<svg version="1.1" xmlns="http://www.w3.org/2000/svg" xmlns:xlink="http://www.w3.org/1999/xlink" width="695" height="616"><defs/><g><g transform="translate(-6,-30) scale(1,1)"><rect fill="#C0C0C0" stroke="none" x="489" y="127" width="209" height="44" opacity="0.2"/></g><g transform="translate(-6,-30) scale(1,1)"><rect fill="#ffffff" stroke="none" x="482" y="120" width="209" height="44"/></g><g transform="translate(-6,-30) scale(1,1)"><path fill="none" stroke="#000000" d="M 482 120 L 691 120 L 691 164 L 482 164 L 482 120 Z Z" stroke-miterlimit="10"/></g><g transform="translate(-6,-30) scale(1,1)"><rect fill="#ffffff" stroke="none" x="472" y="127" width="20" height="10"/></g><g transform="translate(-6,-30) scale(1,1)"><path fill="none" stroke="#000000" d="M 472 127 L 492 127 L 492 137 L 472 137 L 472 127 Z Z" stroke-miterlimit="10"/></g><g transform="translate(-6,-30) scale(1,1)"><rect fill="#ffffff" stroke="none" x="472" y="147" width="20" height="10"/></g><g transform="translate(-6,-30) scale(1,1)"><path fill="none" stroke="#000000" d="M 472 147 L 492 147 L 492 157 L 472 157 L 472 147 Z Z" stroke-miterlimit="10"/></g><g transform="translate(-6,-30) scale(1,1)"><g><path fill="none" stroke="none"/><text fill="#000000" stroke="none" font-family="Arial" font-size="13px" font-style="normal" font-weight="normal" text-decoration="none" x="567" y="137.5">«mysql»</text></g></g><g transform="translate(-6,-30) scale(1,1)"><g><path fill="none" stroke="none"/><text fill="#000000" stroke="none" font-family="Arial" font-size="13px" font-style="normal" font-weight="bold" text-decoration="none" x="504.5" y="152.5">esibank_proto_db_decisionnel</text></g></g><g transform="translate(-6,-30) scale(1,1)"><rect fill="#C0C0C0" stroke="none" x="57" y="143" width="130" height="44" opacity="0.2"/></g><g transform="translate(-6,-30) scale(1,1)"><rect fill="#ffffff" stroke="none" x="50" y="136" width="130" height="44"/></g><g transform="translate(-6,-30) scale(1,1)"><path fill="none" stroke="#000000" d="M 50 136 L 180 136 L 180 180 L 50 180 L 50 136 Z Z" stroke-miterlimit="10"/></g><g transform="translate(-6,-30) scale(1,1)"><rect fill="#ffffff" stroke="none" x="40" y="143" width="20" height="10"/></g><g transform="translate(-6,-30) scale(1,1)"><path fill="none" stroke="#000000" d="M 40 143 L 60 143 L 60 153 L 40 153 L 40 143 Z Z" stroke-miterlimit="10"/></g><g transform="translate(-6,-30) scale(1,1)"><rect fill="#ffffff" stroke="none" x="40" y="163" width="20" height="10"/></g><g transform="translate(-6,-30) scale(1,1)"><path fill="none" stroke="#000000" d="M 40 163 L 60 163 L 60 173 L 40 173 L 40 163 Z Z" stroke-miterlimit="10"/></g><g transform="translate(-6,-30) scale(1,1)"><g><path fill="none" stroke="none"/><text fill="#000000" stroke="none" font-family="Arial" font-size="13px" font-style="normal" font-weight="normal" text-decoration="none" x="95.5" y="153.5">«mysql»</text></g></g><g transform="translate(-6,-30) scale(1,1)"><g><path fill="none" stroke="none"/><text fill="#000000" stroke="none" font-family="Arial" font-size="13px" font-style="normal" font-weight="bold" text-decoration="none" x="69" y="168.5">esibank_proto_db</text></g></g><g transform="translate(-6,-30) scale(1,1)"><rect fill="#C0C0C0" stroke="none" x="257" y="207" width="216" height="44" opacity="0.2"/></g><g transform="translate(-6,-30) scale(1,1)"><rect fill="#ffffff" stroke="none" x="250" y="200" width="216" height="44"/></g><g transform="translate(-6,-30) scale(1,1)"><path fill="none" stroke="#000000" d="M 250 200 L 466 200 L 466 244 L 250 244 L 250 200 Z Z" stroke-miterlimit="10"/></g><g transform="translate(-6,-30) scale(1,1)"><rect fill="#ffffff" stroke="none" x="240" y="207" width="20" height="10"/></g><g transform="translate(-6,-30) scale(1,1)"><path fill="none" stroke="#000000" d="M 240 207 L 260 207 L 260 217 L 240 217 L 240 207 Z Z" stroke-miterlimit="10"/></g><g transform="translate(-6,-30) scale(1,1)"><rect fill="#ffffff" stroke="none" x="240" y="227" width="20" height="10"/></g><g transform="translate(-6,-30) scale(1,1)"><path fill="none" stroke="#000000" d="M 240 227 L 260 227 L 260 237 L 240 237 L 240 227 Z Z" stroke-miterlimit="10"/></g><g transform="translate(-6,-30) scale(1,1)"><g><path fill="none" stroke="none"/><text fill="#000000" stroke="none" font-family="Arial" font-size="13px" font-style="normal" font-weight="normal" text-decoration="none" x="349" y="217.5">«jar»</text></g></g><g transform="translate(-6,-30) scale(1,1)"><g><path fill="none" stroke="none"/><text fill="#000000" stroke="none" font-family="Arial" font-size="13px" font-style="normal" font-weight="bold" text-decoration="none" x="270.5" y="232.5">mysql-connector-java-5.1.30-bin</text></g></g><g transform="translate(-6,-30) scale(1,1)"><rect fill="#C0C0C0" stroke="none" x="113" y="511" width="222" height="44" opacity="0.2"/></g><g transform="translate(-6,-30) scale(1,1)"><rect fill="#ffffff" stroke="none" x="106" y="504" width="222" height="44"/></g><g transform="translate(-6,-30) scale(1,1)"><path fill="none" stroke="#000000" d="M 106 504 L 328 504 L 328 548 L 106 548 L 106 504 Z Z" stroke-miterlimit="10"/></g><g transform="translate(-6,-30) scale(1,1)"><rect fill="#ffffff" stroke="none" x="96" y="511" width="20" height="10"/></g><g transform="translate(-6,-30) scale(1,1)"><path fill="none" stroke="#000000" d="M 96 511 L 116 511 L 116 521 L 96 521 L 96 511 Z Z" stroke-miterlimit="10"/></g><g transform="translate(-6,-30) scale(1,1)"><rect fill="#ffffff" stroke="none" x="96" y="531" width="20" height="10"/></g><g transform="translate(-6,-30) scale(1,1)"><path fill="none" stroke="#000000" d="M 96 531 L 116 531 L 116 541 L 96 541 L 96 531 Z Z" stroke-miterlimit="10"/></g><g transform="translate(-6,-30) scale(1,1)"><g><path fill="none" stroke="none"/><text fill="#000000" stroke="none" font-family="Arial" font-size="13px" font-style="normal" font-weight="normal" text-decoration="none" x="181.5" y="521.5">«Script Shell»</text></g></g><g transform="translate(-6,-30) scale(1,1)"><g><path fill="none" stroke="none"/><text fill="#000000" stroke="none" font-family="Arial" font-size="13px" font-style="normal" font-weight="bold" text-decoration="none" x="139" y="536.5">dataLake_loading_run.0.1.sh</text></g></g><g transform="translate(-6,-30) scale(1,1)"><rect fill="#C0C0C0" stroke="none" x="113" y="431" width="222" height="44" opacity="0.2"/></g><g transform="translate(-6,-30) scale(1,1)"><rect fill="#ffffff" stroke="none" x="106" y="424" width="222" height="44"/></g><g transform="translate(-6,-30) scale(1,1)"><path fill="none" stroke="#000000" d="M 106 424 L 328 424 L 328 468 L 106 468 L 106 424 Z Z" stroke-miterlimit="10"/></g><g transform="translate(-6,-30) scale(1,1)"><rect fill="#ffffff" stroke="none" x="96" y="431" width="20" height="10"/></g><g transform="translate(-6,-30) scale(1,1)"><path fill="none" stroke="#000000" d="M 96 431 L 116 431 L 116 441 L 96 441 L 96 431 Z Z" stroke-miterlimit="10"/></g><g transform="translate(-6,-30) scale(1,1)"><rect fill="#ffffff" stroke="none" x="96" y="451" width="20" height="10"/></g><g transform="translate(-6,-30) scale(1,1)"><path fill="none" stroke="#000000" d="M 96 451 L 116 451 L 116 461 L 96 461 L 96 451 Z Z" stroke-miterlimit="10"/></g><g transform="translate(-6,-30) scale(1,1)"><g><path fill="none" stroke="none"/><text fill="#000000" stroke="none" font-family="Arial" font-size="13px" font-style="normal" font-weight="normal" text-decoration="none" x="208" y="441.5">«jar»</text></g></g><g transform="translate(-6,-30) scale(1,1)"><g><path fill="none" stroke="none"/><text fill="#000000" stroke="none" font-family="Arial" font-size="13px" font-style="normal" font-weight="bold" text-decoration="none" x="151.5" y="456.5">dataLake_loading.0.1.jar</text></g></g><g transform="translate(-6,-30) scale(1,1)"><rect fill="#C0C0C0" stroke="none" x="425" y="431" width="98" height="44" opacity="0.2"/></g><g transform="translate(-6,-30) scale(1,1)"><rect fill="#ffffff" stroke="none" x="418" y="424" width="98" height="44"/></g><g transform="translate(-6,-30) scale(1,1)"><path fill="none" stroke="#000000" d="M 418 424 L 516 424 L 516 468 L 418 468 L 418 424 Z Z" stroke-miterlimit="10"/></g><g transform="translate(-6,-30) scale(1,1)"><rect fill="#ffffff" stroke="none" x="408" y="431" width="20" height="10"/></g><g transform="translate(-6,-30) scale(1,1)"><path fill="none" stroke="#000000" d="M 408 431 L 428 431 L 428 441 L 408 441 L 408 431 Z Z" stroke-miterlimit="10"/></g><g transform="translate(-6,-30) scale(1,1)"><rect fill="#ffffff" stroke="none" x="408" y="451" width="20" height="10"/></g><g transform="translate(-6,-30) scale(1,1)"><path fill="none" stroke="#000000" d="M 408 451 L 428 451 L 428 461 L 408 461 L 408 451 Z Z" stroke-miterlimit="10"/></g><g transform="translate(-6,-30) scale(1,1)"><g><path fill="none" stroke="none"/><text fill="#000000" stroke="none" font-family="Arial" font-size="13px" font-style="normal" font-weight="bold" text-decoration="none" x="448.5" y="443.5">JRE-1.8</text></g></g><g transform="translate(-6,-30) scale(1,1)"><path fill="none" stroke="#000000" d="M 329 446 L 407 446" stroke-miterlimit="10" stroke-dasharray="3"/></g><g transform="translate(-6,-30) scale(1,1)"><path fill="none" stroke="#000000" d="M 396.83732514237585 450.209517756016 L 407 446 L 396.83732514237585 441.790482243984" stroke-miterlimit="10"/></g><g transform="translate(-6,-30) scale(1,1)"><path fill="none" stroke="#000000" d="M 212 503 L 212 469" stroke-miterlimit="10" stroke-dasharray="3"/></g><g transform="translate(-6,-30) scale(1,1)"><path fill="none" stroke="#000000" d="M 216.209517756016 479.16267485762415 L 212 469 L 207.790482243984 479.16267485762415" stroke-miterlimit="10"/></g><g transform="translate(-6,-30) scale(1,1)"><rect fill="#C0C0C0" stroke="none" x="201" y="599" width="98" height="44" opacity="0.2"/></g><g transform="translate(-6,-30) scale(1,1)"><rect fill="#ffffff" stroke="none" x="194" y="592" width="98" height="44"/></g><g transform="translate(-6,-30) scale(1,1)"><path fill="none" stroke="#000000" d="M 194 592 L 292 592 L 292 636 L 194 636 L 194 592 Z Z" stroke-miterlimit="10"/></g><g transform="translate(-6,-30) scale(1,1)"><rect fill="#ffffff" stroke="none" x="184" y="599" width="20" height="10"/></g><g transform="translate(-6,-30) scale(1,1)"><path fill="none" stroke="#000000" d="M 184 599 L 204 599 L 204 609 L 184 609 L 184 599 Z Z" stroke-miterlimit="10"/></g><g transform="translate(-6,-30) scale(1,1)"><rect fill="#ffffff" stroke="none" x="184" y="619" width="20" height="10"/></g><g transform="translate(-6,-30) scale(1,1)"><path fill="none" stroke="#000000" d="M 184 619 L 204 619 L 204 629 L 184 629 L 184 619 Z Z" stroke-miterlimit="10"/></g><g transform="translate(-6,-30) scale(1,1)"><g><path fill="none" stroke="none"/><text fill="#000000" stroke="none" font-family="Arial" font-size="13px" font-style="normal" font-weight="normal" text-decoration="none" x="227.5" y="609.5">«Cron»</text></g></g><g transform="translate(-6,-30) scale(1,1)"><g><path fill="none" stroke="none"/><text fill="#000000" stroke="none" font-family="Arial" font-size="13px" font-style="normal" font-weight="bold" text-decoration="none" x="220" y="624.5">scheduler</text></g></g><g transform="translate(-6,-30) scale(1,1)"><path fill="none" stroke="#000000" d="M 231 591 L 219 549" stroke-miterlimit="10" stroke-dasharray="3"/></g><g transform="translate(-6,-30) scale(1,1)"><path fill="none" stroke="#000000" d="M 225.83945362976945 557.6152117818561 L 219 549 L 217.7443493689122 559.9280987135297" stroke-miterlimit="10"/></g><g transform="translate(-6,-30) scale(1,1)"><rect fill="#C0C0C0" stroke="none" x="81" y="47" width="126" height="44" opacity="0.2"/></g><g transform="translate(-6,-30) scale(1,1)"><rect fill="#ffffff" stroke="none" x="74" y="40" width="126" height="44"/></g><g transform="translate(-6,-30) scale(1,1)"><path fill="none" stroke="#000000" d="M 74 40 L 200 40 L 200 84 L 74 84 L 74 40 Z Z" stroke-miterlimit="10"/></g><g transform="translate(-6,-30) scale(1,1)"><rect fill="#ffffff" stroke="none" x="64" y="47" width="20" height="10"/></g><g transform="translate(-6,-30) scale(1,1)"><path fill="none" stroke="#000000" d="M 64 47 L 84 47 L 84 57 L 64 57 L 64 47 Z Z" stroke-miterlimit="10"/></g><g transform="translate(-6,-30) scale(1,1)"><rect fill="#ffffff" stroke="none" x="64" y="67" width="20" height="10"/></g><g transform="translate(-6,-30) scale(1,1)"><path fill="none" stroke="#000000" d="M 64 67 L 84 67 L 84 77 L 64 77 L 64 67 Z Z" stroke-miterlimit="10"/></g><g transform="translate(-6,-30) scale(1,1)"><g><path fill="none" stroke="none"/><text fill="#000000" stroke="none" font-family="Arial" font-size="13px" font-style="normal" font-weight="normal" text-decoration="none" x="123.5" y="57.5">«qvw»</text></g></g><g transform="translate(-6,-30) scale(1,1)"><g><path fill="none" stroke="none"/><text fill="#000000" stroke="none" font-family="Arial" font-size="13px" font-style="normal" font-weight="bold" text-decoration="none" x="90.5" y="72.5">Analyse_KPI.qvw</text></g></g><g transform="translate(-6,-30) scale(1,1)"><rect fill="#C0C0C0" stroke="none" x="313" y="55" width="116" height="44" opacity="0.2"/></g><g transform="translate(-6,-30) scale(1,1)"><rect fill="#ffffff" stroke="none" x="306" y="48" width="116" height="44"/></g><g transform="translate(-6,-30) scale(1,1)"><path fill="none" stroke="#000000" d="M 306 48 L 422 48 L 422 92 L 306 92 L 306 48 Z Z" stroke-miterlimit="10"/></g><g transform="translate(-6,-30) scale(1,1)"><rect fill="#ffffff" stroke="none" x="296" y="55" width="20" height="10"/></g><g transform="translate(-6,-30) scale(1,1)"><path fill="none" stroke="#000000" d="M 296 55 L 316 55 L 316 65 L 296 65 L 296 55 Z Z" stroke-miterlimit="10"/></g><g transform="translate(-6,-30) scale(1,1)"><rect fill="#ffffff" stroke="none" x="296" y="75" width="20" height="10"/></g><g transform="translate(-6,-30) scale(1,1)"><path fill="none" stroke="#000000" d="M 296 75 L 316 75 L 316 85 L 296 85 L 296 75 Z Z" stroke-miterlimit="10"/></g><g transform="translate(-6,-30) scale(1,1)"><g><path fill="none" stroke="none"/><text fill="#000000" stroke="none" font-family="Arial" font-size="13px" font-style="normal" font-weight="bold" text-decoration="none" x="323.5" y="67.5">Qlikview Server</text></g></g><g transform="translate(-6,-30) scale(1,1)"><path fill="none" stroke="#000000" d="M 295 68 L 201 64" stroke-miterlimit="10" stroke-dasharray="3"/></g><g transform="translate(-6,-30) scale(1,1)"><path fill="none" stroke="#000000" d="M 211.33245263499137 60.226351560404694 L 201 64 L 210.97451972594308 68.63777492303933" stroke-miterlimit="10"/></g><g transform="translate(-6,-30) scale(1,1)"><path fill="none" stroke="#000000" d="M 226 423 L 339 245" stroke-miterlimit="10" stroke-dasharray="3"/></g><g transform="translate(-6,-30) scale(1,1)"><path fill="none" stroke="#000000" d="M 337.1071411121683 255.83591644627978 L 339 245 L 329.9993966450497 251.32369664412022" stroke-miterlimit="10"/></g><g transform="translate(-6,-30) scale(1,1)"><path fill="#C0C0C0" stroke="none" d="M 358 162.5 C 358 156.1487248 363.1487248 151 369.5 151 C 375.8512752 151 381 156.1487248 381 162.5 C 381 168.8512752 375.8512752 174 369.5 174 C 363.1487248 174 358 168.8512752 358 162.5 Z" opacity="0.2"/></g><g transform="translate(-6,-30) scale(1,1)"><path fill="none" stroke="#000000" d="M 373.43681270859616 156.20387502195746 A 11.5 11.5 0 0 1 350.56318729140384 153.79612497804254" stroke-miterlimit="10"/></g><g transform="translate(-6,-30) scale(1,1)"><path fill="#ffffff" stroke="none" d="M 354 155.5 C 354 150.8055792 357.8055792 147 362.5 147 C 367.1944208 147 371 150.8055792 371 155.5 C 371 160.1944208 367.1944208 164 362.5 164 C 357.8055792 164 354 160.1944208 354 155.5 Z"/></g><g transform="translate(-6,-30) scale(1,1)"><path fill="none" stroke="#000000" d="M 354 155.5 C 354 150.8055792 357.8055792 147 362.5 147 C 367.1944208 147 371 150.8055792 371 155.5 C 371 160.1944208 367.1944208 164 362.5 164 C 357.8055792 164 354 160.1944208 354 155.5 Z" stroke-miterlimit="10"/></g><g transform="translate(-6,-30) scale(1,1)"><g><path fill="none" stroke="none"/><text fill="#000000" stroke="none" font-family="Arial" font-size="13px" font-style="normal" font-weight="bold" text-decoration="none" x="344" y="186.5">ODBC</text></g></g><g transform="translate(-6,-30) scale(1,1)"><path fill="none" stroke="#000000" d="M 360 93 L 361.0833333333333 144" stroke-miterlimit="10"/></g><g transform="translate(-6,-30) scale(1,1)"><path fill="#C0C0C0" stroke="none" d="M 598 202.5 C 598 196.1487248 603.1487248 191 609.5 191 C 615.8512752 191 621 196.1487248 621 202.5 C 621 208.8512752 615.8512752 214 609.5 214 C 603.1487248 214 598 208.8512752 598 202.5 Z" opacity="0.2"/></g><g transform="translate(-6,-30) scale(1,1)"><path fill="none" stroke="#000000" d="M 606.5300719336605 205.57016784520766 A 11.5 11.5 0 0 1 597.4699280663395 184.42983215479234" stroke-miterlimit="10"/></g><g transform="translate(-6,-30) scale(1,1)"><path fill="#ffffff" stroke="none" d="M 594 195.5 C 594 190.8055792 597.8055792 187 602.5 187 C 607.1944208 187 611 190.8055792 611 195.5 C 611 200.1944208 607.1944208 204 602.5 204 C 597.8055792 204 594 200.1944208 594 195.5 Z"/></g><g transform="translate(-6,-30) scale(1,1)"><path fill="none" stroke="#000000" d="M 594 195.5 C 594 190.8055792 597.8055792 187 602.5 187 C 607.1944208 187 611 190.8055792 611 195.5 C 611 200.1944208 607.1944208 204 602.5 204 C 597.8055792 204 594 200.1944208 594 195.5 Z" stroke-miterlimit="10"/></g><g transform="translate(-6,-30) scale(1,1)"><g><path fill="none" stroke="none"/><text fill="#000000" stroke="none" font-family="Arial" font-size="13px" font-style="normal" font-weight="bold" text-decoration="none" x="584" y="226.5">ODBC</text></g></g><g transform="translate(-6,-30) scale(1,1)"><path fill="none" stroke="#000000" d="M 588 165 L 594.6666666666666 184" stroke-miterlimit="10"/></g><g transform="translate(-6,-30) scale(1,1)"><path fill="none" stroke="#000000" d="M 467 216 L 591 199.71428571428572" stroke-miterlimit="10"/></g><g transform="translate(-6,-30) scale(1,1)"><path fill="none" stroke="#000000" d="M 357 199 L 360.7368421052632 167" stroke-miterlimit="10"/></g><g transform="translate(-6,-30) scale(1,1)"><path fill="#C0C0C0" stroke="none" d="M 150 226.5 C 150 220.1487248 155.1487248 215 161.5 215 C 167.8512752 215 173 220.1487248 173 226.5 C 173 232.8512752 167.8512752 238 161.5 238 C 155.1487248 238 150 232.8512752 150 226.5 Z" opacity="0.2"/></g><g transform="translate(-6,-30) scale(1,1)"><path fill="none" stroke="#000000" d="M 157.36051315938872 208.0019569329096 A 11.5 11.5 0 0 1 150.63948684061128 229.9980430670904" stroke-miterlimit="10"/></g><g transform="translate(-6,-30) scale(1,1)"><path fill="#ffffff" stroke="none" d="M 146 219.5 C 146 214.8055792 149.8055792 211 154.5 211 C 159.1944208 211 163 214.8055792 163 219.5 C 163 224.1944208 159.1944208 228 154.5 228 C 149.8055792 228 146 224.1944208 146 219.5 Z"/></g><g transform="translate(-6,-30) scale(1,1)"><path fill="none" stroke="#000000" d="M 146 219.5 C 146 214.8055792 149.8055792 211 154.5 211 C 159.1944208 211 163 214.8055792 163 219.5 C 163 224.1944208 159.1944208 228 154.5 228 C 149.8055792 228 146 224.1944208 146 219.5 Z" stroke-miterlimit="10"/></g><g transform="translate(-6,-30) scale(1,1)"><g><path fill="none" stroke="none"/><text fill="#000000" stroke="none" font-family="Arial" font-size="13px" font-style="normal" font-weight="bold" text-decoration="none" x="136" y="250.5">ODBC</text></g></g><g transform="translate(-6,-30) scale(1,1)"><path fill="none" stroke="#000000" d="M 239 228 L 166 222.66666666666666" stroke-miterlimit="10"/></g><g transform="translate(-6,-30) scale(1,1)"><path fill="none" stroke="#000000" d="M 124 181 L 143 210.2" stroke-miterlimit="10"/></g><g transform="translate(-6,-30) scale(1,1)"><rect fill="#C0C0C0" stroke="none" x="353" y="303" width="145" height="44" opacity="0.2"/></g><g transform="translate(-6,-30) scale(1,1)"><rect fill="#ffffff" stroke="none" x="346" y="296" width="145" height="44"/></g><g transform="translate(-6,-30) scale(1,1)"><path fill="none" stroke="#000000" d="M 346 296 L 491 296 L 491 340 L 346 340 L 346 296 Z Z" stroke-miterlimit="10"/></g><g transform="translate(-6,-30) scale(1,1)"><rect fill="#ffffff" stroke="none" x="336" y="303" width="20" height="10"/></g><g transform="translate(-6,-30) scale(1,1)"><path fill="none" stroke="#000000" d="M 336 303 L 356 303 L 356 313 L 336 313 L 336 303 Z Z" stroke-miterlimit="10"/></g><g transform="translate(-6,-30) scale(1,1)"><rect fill="#ffffff" stroke="none" x="336" y="323" width="20" height="10"/></g><g transform="translate(-6,-30) scale(1,1)"><path fill="none" stroke="#000000" d="M 336 323 L 356 323 L 356 333 L 336 333 L 336 323 Z Z" stroke-miterlimit="10"/></g><g transform="translate(-6,-30) scale(1,1)"><g><path fill="none" stroke="none"/><text fill="#000000" stroke="none" font-family="Arial" font-size="13px" font-style="normal" font-weight="normal" text-decoration="none" x="409.5" y="313.5">«jar»</text></g></g><g transform="translate(-6,-30) scale(1,1)"><g><path fill="none" stroke="none"/><text fill="#000000" stroke="none" font-family="Arial" font-size="13px" font-style="normal" font-weight="bold" text-decoration="none" x="366.5" y="328.5">mongodb-connector</text></g></g><g transform="translate(-6,-30) scale(1,1)"><rect fill="#C0C0C0" stroke="none" x="33" y="311" width="165" height="44" opacity="0.2"/></g><g transform="translate(-6,-30) scale(1,1)"><rect fill="#ffffff" stroke="none" x="26" y="304" width="165" height="44"/></g><g transform="translate(-6,-30) scale(1,1)"><path fill="none" stroke="#000000" d="M 26 304 L 191 304 L 191 348 L 26 348 L 26 304 Z Z" stroke-miterlimit="10"/></g><g transform="translate(-6,-30) scale(1,1)"><rect fill="#ffffff" stroke="none" x="16" y="311" width="20" height="10"/></g><g transform="translate(-6,-30) scale(1,1)"><path fill="none" stroke="#000000" d="M 16 311 L 36 311 L 36 321 L 16 321 L 16 311 Z Z" stroke-miterlimit="10"/></g><g transform="translate(-6,-30) scale(1,1)"><rect fill="#ffffff" stroke="none" x="16" y="331" width="20" height="10"/></g><g transform="translate(-6,-30) scale(1,1)"><path fill="none" stroke="#000000" d="M 16 331 L 36 331 L 36 341 L 16 341 L 16 331 Z Z" stroke-miterlimit="10"/></g><g transform="translate(-6,-30) scale(1,1)"><g><path fill="none" stroke="none"/><text fill="#000000" stroke="none" font-family="Arial" font-size="13px" font-style="normal" font-weight="normal" text-decoration="none" x="99.5" y="321.5">«jar»</text></g></g><g transform="translate(-6,-30) scale(1,1)"><g><path fill="none" stroke="none"/><text fill="#000000" stroke="none" font-family="Arial" font-size="13px" font-style="normal" font-weight="bold" text-decoration="none" x="44" y="336.5">AnalysisTweetsEsibank</text></g></g><g transform="translate(-6,-30) scale(1,1)"><path fill="none" stroke="#000000" d="M 158 303 L 298 245" stroke-miterlimit="10" stroke-dasharray="3"/></g><g transform="translate(-6,-30) scale(1,1)"><path fill="none" stroke="#000000" d="M 290.2223044323239 252.77865358892856 L 298 245 L 287.0000000208592 245.00067742332413" stroke-miterlimit="10"/></g><g transform="translate(-6,-30) scale(1,1)"><path fill="none" stroke="#000000" d="M 192 324 L 335 320" stroke-miterlimit="10" stroke-dasharray="3"/></g><g transform="translate(-6,-30) scale(1,1)"><path fill="none" stroke="#000000" d="M 324.95900133383117 324.4920313652062 L 335 320 L 324.723595913627 316.0762875929069" stroke-miterlimit="10"/></g><g transform="translate(-6,-30) scale(1,1)"><path fill="none" stroke="#000000" d="M 248 423 L 377 341" stroke-miterlimit="10" stroke-dasharray="3"/></g><g transform="translate(-6,-30) scale(1,1)"><path fill="none" stroke="#000000" d="M 370.6816107547649 350.00432992208175 L 377 341 L 366.16520137057313 342.89924686646305" stroke-miterlimit="10"/></g><g transform="translate(-6,-30) scale(1,1)"><rect fill="#C0C0C0" stroke="none" x="553" y="279" width="130" height="44" opacity="0.2"/></g><g transform="translate(-6,-30) scale(1,1)"><rect fill="#ffffff" stroke="none" x="546" y="272" width="130" height="44"/></g><g transform="translate(-6,-30) scale(1,1)"><path fill="none" stroke="#000000" d="M 546 272 L 676 272 L 676 316 L 546 316 L 546 272 Z Z" stroke-miterlimit="10"/></g><g transform="translate(-6,-30) scale(1,1)"><rect fill="#ffffff" stroke="none" x="536" y="279" width="20" height="10"/></g><g transform="translate(-6,-30) scale(1,1)"><path fill="none" stroke="#000000" d="M 536 279 L 556 279 L 556 289 L 536 289 L 536 279 Z Z" stroke-miterlimit="10"/></g><g transform="translate(-6,-30) scale(1,1)"><rect fill="#ffffff" stroke="none" x="536" y="299" width="20" height="10"/></g><g transform="translate(-6,-30) scale(1,1)"><path fill="none" stroke="#000000" d="M 536 299 L 556 299 L 556 309 L 536 309 L 536 299 Z Z" stroke-miterlimit="10"/></g><g transform="translate(-6,-30) scale(1,1)"><g><path fill="none" stroke="none"/><text fill="#000000" stroke="none" font-family="Arial" font-size="13px" font-style="normal" font-weight="normal" text-decoration="none" x="591.5" y="289.5">«mysql»</text></g></g><g transform="translate(-6,-30) scale(1,1)"><g><path fill="none" stroke="none"/><text fill="#000000" stroke="none" font-family="Arial" font-size="13px" font-style="normal" font-weight="bold" text-decoration="none" x="565" y="304.5">esibank_proto_db</text></g></g><g transform="translate(-6,-30) scale(1,1)"><path fill="#C0C0C0" stroke="none" d="M 478 386.5 C 478 380.1487248 483.1487248 375 489.5 375 C 495.8512752 375 501 380.1487248 501 386.5 C 501 392.8512752 495.8512752 398 489.5 398 C 483.1487248 398 478 392.8512752 478 386.5 Z" opacity="0.2"/></g><g transform="translate(-6,-30) scale(1,1)"><path fill="none" stroke="#000000" d="M 476.68049092300726 389.1957257309027 A 11.5 11.5 0 1 1 487.31950907699274 368.8042742690973" stroke-miterlimit="10"/></g><g transform="translate(-6,-30) scale(1,1)"><path fill="#ffffff" stroke="none" d="M 474 379.5 C 474 374.8055792 477.8055792 371 482.5 371 C 487.1944208 371 491 374.8055792 491 379.5 C 491 384.1944208 487.1944208 388 482.5 388 C 477.8055792 388 474 384.1944208 474 379.5 Z"/></g><g transform="translate(-6,-30) scale(1,1)"><path fill="none" stroke="#000000" d="M 474 379.5 C 474 374.8055792 477.8055792 371 482.5 371 C 487.1944208 371 491 374.8055792 491 379.5 C 491 384.1944208 487.1944208 388 482.5 388 C 477.8055792 388 474 384.1944208 474 379.5 Z" stroke-miterlimit="10"/></g><g transform="translate(-6,-30) scale(1,1)"><g><path fill="none" stroke="none"/><text fill="#000000" stroke="none" font-family="Arial" font-size="13px" font-style="normal" font-weight="bold" text-decoration="none" x="464" y="410.5">ODBC</text></g></g><g transform="translate(-6,-30) scale(1,1)"><path fill="none" stroke="#000000" d="M 577 317 L 494 374.5" stroke-miterlimit="10"/></g><g transform="translate(-6,-30) scale(1,1)"><path fill="none" stroke="#000000" d="M 434 341 L 471 373.2608695652174" stroke-miterlimit="10"/></g></g></svg>