<svg version="1.1" xmlns="http://www.w3.org/2000/svg" xmlns:xlink="http://www.w3.org/1999/xlink" width="935.1171875" height="245"><defs/><g><g transform="translate(10,-94) scale(1,1)"><rect fill="#C0C0C0" stroke="none" x="255" y="159" width="166.4853515625" height="57" opacity="0.2"/></g><g transform="translate(10,-94) scale(1,1)"><rect fill="#ffffff" stroke="none" x="248" y="152" width="166.4853515625" height="57"/></g><g transform="translate(10,-94) scale(1,1)"><path fill="none" stroke="#000000" d="M 248 152 L 414.4853515625 152 L 414.4853515625 209 L 248 209 L 248 152 Z Z" stroke-miterlimit="10"/></g><g transform="translate(10,-94) scale(1,1)"><path fill="none" stroke="#000000" d="M 248 177 L 414.4853515625 177" stroke-miterlimit="10"/></g><g transform="translate(10,-94) scale(1,1)"><path fill="none" stroke="#000000" d="M 248 187 L 414.4853515625 187" stroke-miterlimit="10"/></g><g transform="translate(10,-94) scale(1,1)"><g><path fill="none" stroke="none"/><text fill="#000000" stroke="none" font-family="Arial" font-size="13px" font-style="normal" font-weight="bold" text-decoration="none" x="270.24267578125" y="171.5">MaintransactionBank</text></g></g><g transform="translate(10,-94) scale(1,1)"><g><path fill="none" stroke="none"/><text fill="#000000" stroke="none" font-family="Arial" font-size="13px" font-style="normal" font-weight="normal" text-decoration="none" x="253" y="204.5">+SendTransaction()</text></g></g><g transform="translate(10,-94) scale(1,1)"><rect fill="#C0C0C0" stroke="none" x="527" y="159" width="139.482421875" height="57" opacity="0.2"/></g><g transform="translate(10,-94) scale(1,1)"><rect fill="#ffffff" stroke="none" x="520" y="152" width="139.482421875" height="57"/></g><g transform="translate(10,-94) scale(1,1)"><path fill="none" stroke="#000000" d="M 520 152 L 659.482421875 152 L 659.482421875 209 L 520 209 L 520 152 Z Z" stroke-miterlimit="10"/></g><g transform="translate(10,-94) scale(1,1)"><path fill="none" stroke="#000000" d="M 520 177 L 659.482421875 177" stroke-miterlimit="10"/></g><g transform="translate(10,-94) scale(1,1)"><path fill="none" stroke="#000000" d="M 520 187 L 659.482421875 187" stroke-miterlimit="10"/></g><g transform="translate(10,-94) scale(1,1)"><g><path fill="none" stroke="none"/><text fill="#000000" stroke="none" font-family="Arial" font-size="13px" font-style="normal" font-weight="bold" text-decoration="none" x="572.2412109375" y="171.5">Model</text></g></g><g transform="translate(10,-94) scale(1,1)"><g><path fill="none" stroke="none"/><text fill="#000000" stroke="none" font-family="Arial" font-size="13px" font-style="normal" font-weight="normal" text-decoration="none" x="525" y="204.5">+GetDBTransaction()</text></g></g><g transform="translate(10,-94) scale(1,1)"><rect fill="#C0C0C0" stroke="none" x="199" y="279" width="277" height="57" opacity="0.2"/></g><g transform="translate(10,-94) scale(1,1)"><rect fill="#ffffff" stroke="none" x="192" y="272" width="277" height="57"/></g><g transform="translate(10,-94) scale(1,1)"><path fill="none" stroke="#000000" d="M 192 272 L 469 272 L 469 329 L 192 329 L 192 272 Z Z" stroke-miterlimit="10"/></g><g transform="translate(10,-94) scale(1,1)"><path fill="none" stroke="#000000" d="M 192 297 L 469 297" stroke-miterlimit="10"/></g><g transform="translate(10,-94) scale(1,1)"><path fill="none" stroke="#000000" d="M 192 307 L 469 307" stroke-miterlimit="10"/></g><g transform="translate(10,-94) scale(1,1)"><g><path fill="none" stroke="none"/><text fill="#000000" stroke="none" font-family="Arial" font-size="13px" font-style="normal" font-weight="bold" text-decoration="none" x="308.5" y="291.5">Service</text></g></g><g transform="translate(10,-94) scale(1,1)"><g><path fill="none" stroke="none"/><text fill="#000000" stroke="none" font-family="Arial" font-size="13px" font-style="normal" font-weight="normal" text-decoration="none" x="197" y="324.5">+SetXmlDocument(List  TabTransaction)</text></g></g><g transform="translate(10,-94) scale(1,1)"><path fill="none" stroke="#000000" d="M 415 180 L 519 180" stroke-miterlimit="10"/></g><g transform="translate(10,-94) scale(1,1)"><path fill="none" stroke="#000000" d="M 508.83732514237585 184.209517756016 L 519 180 L 508.83732514237585 175.790482243984" stroke-miterlimit="10"/></g><g transform="translate(10,-94) scale(1,1)"><path fill="none" stroke="#000000" d="M 331 210 L 330 271" stroke-miterlimit="10"/></g><g transform="translate(10,-94) scale(1,1)"><path fill="none" stroke="#000000" d="M 325.95762661840706 260.769691234191 L 330 271 L 334.3755310717234 260.9076896678519" stroke-miterlimit="10"/></g><g transform="translate(10,-94) scale(1,1)"><rect fill="#C0C0C0" stroke="none" x="743" y="111" width="179.1171875" height="162" opacity="0.2"/></g><g transform="translate(10,-94) scale(1,1)"><rect fill="#ffffff" stroke="none" x="736" y="104" width="179.1171875" height="162"/></g><g transform="translate(10,-94) scale(1,1)"><path fill="none" stroke="#000000" d="M 736 104 L 915.1171875 104 L 915.1171875 266 L 736 266 L 736 104 Z Z" stroke-miterlimit="10"/></g><g transform="translate(10,-94) scale(1,1)"><path fill="none" stroke="#000000" d="M 736 129 L 915.1171875 129" stroke-miterlimit="10"/></g><g transform="translate(10,-94) scale(1,1)"><path fill="none" stroke="#000000" d="M 736 257 L 915.1171875 257" stroke-miterlimit="10"/></g><g transform="translate(10,-94) scale(1,1)"><g><path fill="none" stroke="none"/><text fill="#000000" stroke="none" font-family="Arial" font-size="13px" font-style="normal" font-weight="bold" text-decoration="none" x="791.55859375" y="123.5">Transaction</text></g></g><g transform="translate(10,-94) scale(1,1)"><g><path fill="none" stroke="none"/><text fill="#000000" stroke="none" font-family="Arial" font-size="13px" font-style="normal" font-weight="normal" text-decoration="none" x="741" y="146.5">+id_transaction: int</text></g></g><g transform="translate(10,-94) scale(1,1)"><g><path fill="none" stroke="none"/><text fill="#000000" stroke="none" font-family="Arial" font-size="13px" font-style="normal" font-weight="normal" text-decoration="none" x="741" y="161.5">+transaction_date: Date</text></g></g><g transform="translate(10,-94) scale(1,1)"><g><path fill="none" stroke="none"/><text fill="#000000" stroke="none" font-family="Arial" font-size="13px" font-style="normal" font-weight="normal" text-decoration="none" x="741" y="176.5">+lastname_crediter: String</text></g></g><g transform="translate(10,-94) scale(1,1)"><g><path fill="none" stroke="none"/><text fill="#000000" stroke="none" font-family="Arial" font-size="13px" font-style="normal" font-weight="normal" text-decoration="none" x="741" y="191.5">+firstname_crediter: String</text></g></g><g transform="translate(10,-94) scale(1,1)"><g><path fill="none" stroke="none"/><text fill="#000000" stroke="none" font-family="Arial" font-size="13px" font-style="normal" font-weight="normal" text-decoration="none" x="741" y="206.5">+creditaccount: String</text></g></g><g transform="translate(10,-94) scale(1,1)"><g><path fill="none" stroke="none"/><text fill="#000000" stroke="none" font-family="Arial" font-size="13px" font-style="normal" font-weight="normal" text-decoration="none" x="741" y="221.5">+debit_account: Integer</text></g></g><g transform="translate(10,-94) scale(1,1)"><g><path fill="none" stroke="none"/><text fill="#000000" stroke="none" font-family="Arial" font-size="13px" font-style="normal" font-weight="normal" text-decoration="none" x="741" y="236.5">+amount_transaction: Float</text></g></g><g transform="translate(10,-94) scale(1,1)"><g><path fill="none" stroke="none"/><text fill="#000000" stroke="none" font-family="Arial" font-size="13px" font-style="normal" font-weight="normal" text-decoration="none" x="741" y="251.5">+impacted_bank: String</text></g></g><g transform="translate(10,-94) scale(1,1)"><path fill="none" stroke="#000000" d="M 660 182 L 735 183" stroke-miterlimit="10"/></g><g transform="translate(10,-94) scale(1,1)"><path fill="none" stroke="#000000" d="M 724.7821064558028 187.07365333815406 L 735 183 L 724.894350285844 178.6553660850679" stroke-miterlimit="10"/></g><g transform="translate(10,-94) scale(1,1)"><path fill="#ffffff" stroke="none" d="M 75.82072727272727 145.68 C 75.82072727272727 140.886167936 79.70656959767273 137 84.5 137 C 89.29343040232727 137 93.17927272727273 140.886167936 93.17927272727273 145.68 C 93.17927272727273 150.47383206400002 89.29343040232727 154.36 84.5 154.36 C 79.70656959767273 154.36 75.82072727272727 150.47383206400002 75.82072727272727 145.68 Z"/></g><g transform="translate(10,-94) scale(1,1)"><path fill="none" stroke="#000000" d="M 75.82072727272727 145.68 C 75.82072727272727 140.886167936 79.70656959767273 137 84.5 137 C 89.29343040232727 137 93.17927272727273 140.886167936 93.17927272727273 145.68 C 93.17927272727273 150.47383206400002 89.29343040232727 154.36 84.5 154.36 C 79.70656959767273 154.36 75.82072727272727 150.47383206400002 75.82072727272727 145.68 Z" stroke-miterlimit="10"/></g><g transform="translate(10,-94) scale(1,1)"><path fill="none" stroke="#000000" d="M 84.5 154.36 L 84.5 171.64" stroke-miterlimit="10"/></g><g transform="translate(10,-94) scale(1,1)"><path fill="none" stroke="#000000" d="M 75.31018181818182 160.84 L 93.68981818181818 160.84" stroke-miterlimit="10"/></g><g transform="translate(10,-94) scale(1,1)"><path fill="none" stroke="#000000" d="M 84.5 171.64 L 71.73636363636363 189" stroke-miterlimit="10"/></g><g transform="translate(10,-94) scale(1,1)"><path fill="none" stroke="#000000" d="M 84.5 171.64 L 97.26363636363637 189" stroke-miterlimit="10"/></g><g transform="translate(10,-94) scale(1,1)"><g><path fill="none" stroke="none"/><text fill="#000000" stroke="none" font-family="Arial" font-size="13px" font-style="normal" font-weight="bold" text-decoration="none" x="55.5" y="209.5">Scheduler</text></g></g><g transform="translate(10,-94) scale(1,1)"><g><path fill="none" stroke="none"/><text fill="#000000" stroke="none" font-family="Arial" font-size="13px" font-style="normal" font-weight="normal" text-decoration="none" x="4.5" y="224.5">(from MaintransactionBank)</text></g></g><g transform="translate(10,-94) scale(1,1)"><path fill="none" stroke="#000000" d="M 170 182 L 247 181" stroke-miterlimit="10"/></g><g transform="translate(10,-94) scale(1,1)"><path fill="none" stroke="#000000" d="M 236.8928465171246 185.34113446850012 L 247 181 L 236.78351761304648 176.92280885448469" stroke-miterlimit="10"/></g></g></svg>