<svg version="1.1" xmlns="http://www.w3.org/2000/svg" xmlns:xlink="http://www.w3.org/1999/xlink" width="1207.1171875" height="253"><defs/><g><g transform="translate(10,-38) scale(1,1)"><rect fill="#C0C0C0" stroke="none" x="426" y="110" width="166.4853515625" height="57" opacity="0.2"/></g><g transform="translate(10,-38) scale(1,1)"><rect fill="#ffffff" stroke="none" x="419" y="103" width="166.4853515625" height="57"/></g><g transform="translate(10,-38) scale(1,1)"><path fill="none" stroke="#000000" d="M 419 103 L 585.4853515625 103 L 585.4853515625 160 L 419 160 L 419 103 Z Z" stroke-miterlimit="10"/></g><g transform="translate(10,-38) scale(1,1)"><path fill="none" stroke="#000000" d="M 419 128 L 585.4853515625 128" stroke-miterlimit="10"/></g><g transform="translate(10,-38) scale(1,1)"><path fill="none" stroke="#000000" d="M 419 138 L 585.4853515625 138" stroke-miterlimit="10"/></g><g transform="translate(10,-38) scale(1,1)"><g><path fill="none" stroke="none"/><text fill="#000000" stroke="none" font-family="Arial" font-size="13px" font-style="normal" font-weight="bold" text-decoration="none" x="441.24267578125" y="122.5">MaintransactionBank</text></g></g><g transform="translate(10,-38) scale(1,1)"><g><path fill="none" stroke="none"/><text fill="#000000" stroke="none" font-family="Arial" font-size="13px" font-style="normal" font-weight="normal" text-decoration="none" x="424" y="155.5">+SendTransaction()</text></g></g><g transform="translate(10,-38) scale(1,1)"><rect fill="#C0C0C0" stroke="none" x="730" y="110" width="139.482421875" height="57" opacity="0.2"/></g><g transform="translate(10,-38) scale(1,1)"><rect fill="#ffffff" stroke="none" x="723" y="103" width="139.482421875" height="57"/></g><g transform="translate(10,-38) scale(1,1)"><path fill="none" stroke="#000000" d="M 723 103 L 862.482421875 103 L 862.482421875 160 L 723 160 L 723 103 Z Z" stroke-miterlimit="10"/></g><g transform="translate(10,-38) scale(1,1)"><path fill="none" stroke="#000000" d="M 723 128 L 862.482421875 128" stroke-miterlimit="10"/></g><g transform="translate(10,-38) scale(1,1)"><path fill="none" stroke="#000000" d="M 723 138 L 862.482421875 138" stroke-miterlimit="10"/></g><g transform="translate(10,-38) scale(1,1)"><g><path fill="none" stroke="none"/><text fill="#000000" stroke="none" font-family="Arial" font-size="13px" font-style="normal" font-weight="bold" text-decoration="none" x="775.2412109375" y="122.5">Model</text></g></g><g transform="translate(10,-38) scale(1,1)"><g><path fill="none" stroke="none"/><text fill="#000000" stroke="none" font-family="Arial" font-size="13px" font-style="normal" font-weight="normal" text-decoration="none" x="728" y="155.5">+GetDBTransaction()</text></g></g><g transform="translate(10,-38) scale(1,1)"><rect fill="#C0C0C0" stroke="none" x="719" y="231" width="292.45458984375" height="57" opacity="0.2"/></g><g transform="translate(10,-38) scale(1,1)"><rect fill="#ffffff" stroke="none" x="712" y="224" width="292.45458984375" height="57"/></g><g transform="translate(10,-38) scale(1,1)"><path fill="none" stroke="#000000" d="M 712 224 L 1004.45458984375 224 L 1004.45458984375 281 L 712 281 L 712 224 Z Z" stroke-miterlimit="10"/></g><g transform="translate(10,-38) scale(1,1)"><path fill="none" stroke="#000000" d="M 712 249 L 1004.45458984375 249" stroke-miterlimit="10"/></g><g transform="translate(10,-38) scale(1,1)"><path fill="none" stroke="#000000" d="M 712 259 L 1004.45458984375 259" stroke-miterlimit="10"/></g><g transform="translate(10,-38) scale(1,1)"><g><path fill="none" stroke="none"/><text fill="#000000" stroke="none" font-family="Arial" font-size="13px" font-style="normal" font-weight="bold" text-decoration="none" x="836.227294921875" y="243.5">Service</text></g></g><g transform="translate(10,-38) scale(1,1)"><g><path fill="none" stroke="none"/><text fill="#000000" stroke="none" font-family="Arial" font-size="13px" font-style="normal" font-weight="normal" text-decoration="none" x="717" y="276.5">+SetXmlDocument(List TabTransaction)</text></g></g><g transform="translate(10,-38) scale(1,1)"><path fill="none" stroke="#000000" d="M 586 131 L 722 131" stroke-miterlimit="10"/></g><g transform="translate(10,-38) scale(1,1)"><path fill="none" stroke="#000000" d="M 711.8373251423759 135.209517756016 L 722 131 L 711.8373251423758 126.79048224398402" stroke-miterlimit="10"/></g><g transform="translate(10,-38) scale(1,1)"><path fill="none" stroke="#000000" d="M 586 160 L 773 223" stroke-miterlimit="10"/></g><g transform="translate(10,-38) scale(1,1)"><path fill="none" stroke="#000000" d="M 762.0252307816027 223.74460768389676 L 773 223 L 764.7131491211069 215.76618340632086" stroke-miterlimit="10"/></g><g transform="translate(10,-38) scale(1,1)"><rect fill="#C0C0C0" stroke="none" x="471" y="231" width="93" height="57" opacity="0.2"/></g><g transform="translate(10,-38) scale(1,1)"><rect fill="#ffffff" stroke="none" x="464" y="224" width="93" height="57"/></g><g transform="translate(10,-38) scale(1,1)"><path fill="none" stroke="#000000" d="M 464 224 L 557 224 L 557 281 L 464 281 L 464 224 Z Z" stroke-miterlimit="10"/></g><g transform="translate(10,-38) scale(1,1)"><path fill="none" stroke="#000000" d="M 464 249 L 557 249" stroke-miterlimit="10"/></g><g transform="translate(10,-38) scale(1,1)"><path fill="none" stroke="#000000" d="M 464 272 L 557 272" stroke-miterlimit="10"/></g><g transform="translate(10,-38) scale(1,1)"><g><path fill="none" stroke="none"/><text fill="#000000" stroke="none" font-family="Arial" font-size="13px" font-style="normal" font-weight="bold" text-decoration="none" x="493" y="243.5">Errors</text></g></g><g transform="translate(10,-38) scale(1,1)"><g><path fill="none" stroke="none"/><text fill="#000000" stroke="none" font-family="Arial" font-size="13px" font-style="normal" font-weight="normal" text-decoration="none" x="469" y="266.5">+IO Exception</text></g></g><g transform="translate(10,-38) scale(1,1)"><path fill="none" stroke="#000000" d="M 504 161 L 508 223" stroke-miterlimit="10"/></g><g transform="translate(10,-38) scale(1,1)"><path fill="none" stroke="#000000" d="M 503.14491953483304 213.12942789516464 L 508 223 L 511.54648814939395 212.58739121035424" stroke-miterlimit="10"/></g><g transform="translate(10,-38) scale(1,1)"><rect fill="#C0C0C0" stroke="none" x="1015" y="55" width="179.1171875" height="162" opacity="0.2"/></g><g transform="translate(10,-38) scale(1,1)"><rect fill="#ffffff" stroke="none" x="1008" y="48" width="179.1171875" height="162"/></g><g transform="translate(10,-38) scale(1,1)"><path fill="none" stroke="#000000" d="M 1008 48 L 1187.1171875 48 L 1187.1171875 210 L 1008 210 L 1008 48 Z Z" stroke-miterlimit="10"/></g><g transform="translate(10,-38) scale(1,1)"><path fill="none" stroke="#000000" d="M 1008 73 L 1187.1171875 73" stroke-miterlimit="10"/></g><g transform="translate(10,-38) scale(1,1)"><path fill="none" stroke="#000000" d="M 1008 201 L 1187.1171875 201" stroke-miterlimit="10"/></g><g transform="translate(10,-38) scale(1,1)"><g><path fill="none" stroke="none"/><text fill="#000000" stroke="none" font-family="Arial" font-size="13px" font-style="normal" font-weight="bold" text-decoration="none" x="1063.55859375" y="67.5">Transaction</text></g></g><g transform="translate(10,-38) scale(1,1)"><g><path fill="none" stroke="none"/><text fill="#000000" stroke="none" font-family="Arial" font-size="13px" font-style="normal" font-weight="normal" text-decoration="none" x="1013" y="90.5">+id_transaction: int</text></g></g><g transform="translate(10,-38) scale(1,1)"><g><path fill="none" stroke="none"/><text fill="#000000" stroke="none" font-family="Arial" font-size="13px" font-style="normal" font-weight="normal" text-decoration="none" x="1013" y="105.5">+transaction_date: Date</text></g></g><g transform="translate(10,-38) scale(1,1)"><g><path fill="none" stroke="none"/><text fill="#000000" stroke="none" font-family="Arial" font-size="13px" font-style="normal" font-weight="normal" text-decoration="none" x="1013" y="120.5">+lastname_crediter: String</text></g></g><g transform="translate(10,-38) scale(1,1)"><g><path fill="none" stroke="none"/><text fill="#000000" stroke="none" font-family="Arial" font-size="13px" font-style="normal" font-weight="normal" text-decoration="none" x="1013" y="135.5">+firstname_crediter: String</text></g></g><g transform="translate(10,-38) scale(1,1)"><g><path fill="none" stroke="none"/><text fill="#000000" stroke="none" font-family="Arial" font-size="13px" font-style="normal" font-weight="normal" text-decoration="none" x="1013" y="150.5">+creditaccount: String</text></g></g><g transform="translate(10,-38) scale(1,1)"><g><path fill="none" stroke="none"/><text fill="#000000" stroke="none" font-family="Arial" font-size="13px" font-style="normal" font-weight="normal" text-decoration="none" x="1013" y="165.5">+debit_account: Integer</text></g></g><g transform="translate(10,-38) scale(1,1)"><g><path fill="none" stroke="none"/><text fill="#000000" stroke="none" font-family="Arial" font-size="13px" font-style="normal" font-weight="normal" text-decoration="none" x="1013" y="180.5">+amount_transaction: Float</text></g></g><g transform="translate(10,-38) scale(1,1)"><g><path fill="none" stroke="none"/><text fill="#000000" stroke="none" font-family="Arial" font-size="13px" font-style="normal" font-weight="normal" text-decoration="none" x="1013" y="195.5">+impacted_bank: String</text></g></g><g transform="translate(10,-38) scale(1,1)"><path fill="none" stroke="#000000" d="M 863 131 L 1007 130" stroke-miterlimit="10"/></g><g transform="translate(10,-38) scale(1,1)"><path fill="none" stroke="#000000" d="M 996.8668022399194 134.27998868632824 L 1007 130 L 996.8083381252383 125.86115617224706" stroke-miterlimit="10"/></g><g transform="translate(10,-38) scale(1,1)"><path fill="#ffffff" stroke="none" d="M 140.69563636363634 98.87 C 140.69563636363634 93.418949024 145.08519898996363 89 150.5 89 C 155.91480101003637 89 160.30436363636366 93.418949024 160.30436363636366 98.87 C 160.30436363636366 104.32105097600001 155.91480101003637 108.74 150.5 108.74 C 145.08519898996363 108.74 140.69563636363634 104.32105097600001 140.69563636363634 98.87 Z"/></g><g transform="translate(10,-38) scale(1,1)"><path fill="none" stroke="#000000" d="M 140.69563636363634 98.87 C 140.69563636363634 93.418949024 145.08519898996363 89 150.5 89 C 155.91480101003637 89 160.30436363636366 93.418949024 160.30436363636366 98.87 C 160.30436363636366 104.32105097600001 155.91480101003637 108.74 150.5 108.74 C 145.08519898996363 108.74 140.69563636363634 104.32105097600001 140.69563636363634 98.87 Z" stroke-miterlimit="10"/></g><g transform="translate(10,-38) scale(1,1)"><path fill="none" stroke="#000000" d="M 150.5 108.74 L 150.5 128.26" stroke-miterlimit="10"/></g><g transform="translate(10,-38) scale(1,1)"><path fill="none" stroke="#000000" d="M 140.11890909090909 116.06 L 160.88109090909091 116.06" stroke-miterlimit="10"/></g><g transform="translate(10,-38) scale(1,1)"><path fill="none" stroke="#000000" d="M 150.5 128.26 L 136.08181818181816 148" stroke-miterlimit="10"/></g><g transform="translate(10,-38) scale(1,1)"><path fill="none" stroke="#000000" d="M 150.5 128.26 L 164.91818181818184 148" stroke-miterlimit="10"/></g><g transform="translate(10,-38) scale(1,1)"><g><path fill="none" stroke="none"/><text fill="#000000" stroke="none" font-family="Arial" font-size="13px" font-style="normal" font-weight="bold" text-decoration="none" x="121.5" y="168.5">Scheduler</text></g></g><g transform="translate(10,-38) scale(1,1)"><g><path fill="none" stroke="none"/><text fill="#000000" stroke="none" font-family="Arial" font-size="13px" font-style="normal" font-weight="normal" text-decoration="none" x="4.5" y="183.5">(from DiagrammeConceptuelClassesParticipantes)</text></g></g><g transform="translate(10,-38) scale(1,1)"><path fill="none" stroke="#000000" d="M 302 135 L 418 133" stroke-miterlimit="10"/></g><g transform="translate(10,-38) scale(1,1)"><path fill="none" stroke="#000000" d="M 407.9114024175906 137.3840847186388 L 418 133 L 407.76626820297025 128.9663002706619" stroke-miterlimit="10"/></g></g></svg>