<svg version="1.1" xmlns="http://www.w3.org/2000/svg" xmlns:xlink="http://www.w3.org/1999/xlink" width="951" height="487"><defs/><g><g transform="translate(-62,10) scale(1,1)"><path fill="none" stroke="#000000" d="M 72 0 L 1003 0 L 1003 467 L 72 467 L 72 0" stroke-miterlimit="10"/></g><g transform="translate(-62,10) scale(1,1)"><path fill="#ffffff" stroke="none" d="M 72 0 L 72 22 L 251 22 L 262 11 L 262 0 L 72 0"/></g><g transform="translate(-62,10) scale(1,1)"><path fill="none" stroke="#000000" d="M 72 0 L 72 22 L 251 22 L 262 11 L 262 0 L 72 0 L 72 0" stroke-miterlimit="10"/></g><g transform="translate(-62,10) scale(1,1)"><g><path fill="none" stroke="none"/><text fill="#000000" stroke="none" font-family="Arial" font-size="13px" font-style="normal" font-weight="normal" text-decoration="none" x="143" y="17.5">SequenceSystem</text></g></g><g transform="translate(-62,10) scale(1,1)"><g><path fill="none" stroke="none"/><text fill="#000000" stroke="none" font-family="Arial" font-size="13px" font-style="normal" font-weight="bold" text-decoration="none" x="77" y="17.5">interaction</text></g></g><g transform="translate(-62,10) scale(1,1)"><rect fill="#C0C0C0" stroke="none" x="511" y="47" width="120" height="39" opacity="0.2"/></g><g transform="translate(-62,10) scale(1,1)"><rect fill="#ffffff" stroke="none" x="504" y="40" width="120" height="39"/></g><g transform="translate(-62,10) scale(1,1)"><path fill="none" stroke="#000000" d="M 504 40 L 624 40 L 624 79 L 504 79 L 504 40 Z Z" stroke-miterlimit="10"/></g><g transform="translate(-62,10) scale(1,1)"><g><path fill="none" stroke="none"/><text fill="#000000" stroke="none" font-family="Arial" font-size="13px" font-style="normal" font-weight="bold" text-decoration="none" x="541.5" y="59.5">System</text></g></g><g transform="translate(-62,10) scale(1,1)"><path fill="none" stroke="#000000" d="M 565.5 80 L 565.5 360" stroke-miterlimit="10" stroke-dasharray="3"/></g><g transform="translate(-62,10) scale(1,1)"><rect fill="#C0C0C0" stroke="none" x="775" y="47" width="133" height="39" opacity="0.2"/></g><g transform="translate(-62,10) scale(1,1)"><rect fill="#ffffff" stroke="none" x="768" y="40" width="133" height="39"/></g><g transform="translate(-62,10) scale(1,1)"><path fill="none" stroke="#000000" d="M 768 40 L 901 40 L 901 79 L 768 79 L 768 40 Z Z" stroke-miterlimit="10"/></g><g transform="translate(-62,10) scale(1,1)"><g><path fill="none" stroke="none"/><text fill="#000000" stroke="none" font-family="Arial" font-size="13px" font-style="normal" font-weight="bold" text-decoration="none" x="779" y="59.5">data-access-server</text></g></g><g transform="translate(-62,10) scale(1,1)"><path fill="none" stroke="#000000" d="M 835.5 80 L 835.5 352" stroke-miterlimit="10" stroke-dasharray="3"/></g><g transform="translate(-62,10) scale(1,1)"><path fill="#ffffff" stroke="none" d="M 293.5709090909091 47.3 C 293.5709090909091 43.82060576 296.4493108130909 41 300 41 C 303.5506891869091 41 306.429090909091 43.82060576 306.429090909091 47.3 C 306.429090909091 50.779394239999995 303.5506891869091 53.6 300 53.6 C 296.4493108130909 53.6 293.5709090909091 50.779394239999995 293.5709090909091 47.3 Z"/></g><g transform="translate(-62,10) scale(1,1)"><path fill="none" stroke="#000000" d="M 293.5709090909091 47.3 C 293.5709090909091 43.82060576 296.4493108130909 41 300 41 C 303.5506891869091 41 306.429090909091 43.82060576 306.429090909091 47.3 C 306.429090909091 50.779394239999995 303.5506891869091 53.6 300 53.6 C 296.4493108130909 53.6 293.5709090909091 50.779394239999995 293.5709090909091 47.3 Z" stroke-miterlimit="10"/></g><g transform="translate(-62,10) scale(1,1)"><path fill="none" stroke="#000000" d="M 300 53.6 L 300 66.4" stroke-miterlimit="10"/></g><g transform="translate(-62,10) scale(1,1)"><path fill="none" stroke="#000000" d="M 293.19272727272727 58.4 L 306.8072727272728 58.4" stroke-miterlimit="10"/></g><g transform="translate(-62,10) scale(1,1)"><path fill="none" stroke="#000000" d="M 300 66.4 L 290.54545454545456 79" stroke-miterlimit="10"/></g><g transform="translate(-62,10) scale(1,1)"><path fill="none" stroke="#000000" d="M 300 66.4 L 309.4545454545455 79" stroke-miterlimit="10"/></g><g transform="translate(-62,10) scale(1,1)"><g><path fill="none" stroke="none"/><text fill="#000000" stroke="none" font-family="Arial" font-size="13px" font-style="normal" font-weight="bold" text-decoration="none" x="248" y="99.5">Scheduler: Actor1</text></g></g><g transform="translate(-62,10) scale(1,1)"><path fill="none" stroke="#000000" d="M 301.5 105 L 301.5 352" stroke-miterlimit="10" stroke-dasharray="3"/></g><g transform="translate(-62,10) scale(1,1)"><path fill="none" stroke="#000000" d="M 301 105 L 558 105" stroke-miterlimit="10"/></g><g transform="translate(-62,10) scale(1,1)"><path fill="#000000" stroke="none" d="M 547.8373251423759 109.20951775601598 L 558 105 L 547.8373251423758 100.79048224398402"/></g><g transform="translate(-62,10) scale(1,1)"><path fill="none" stroke="#000000" d="M 547.8373251423759 109.20951775601598 L 558 105 L 547.8373251423758 100.79048224398402 L 547.8373251423759 109.20951775601598" stroke-miterlimit="10"/></g><g transform="translate(-62,10) scale(1,1)"><g><path fill="none" stroke="none"/><text fill="#000000" stroke="none" font-family="Arial" font-size="13px" font-style="normal" font-weight="normal" text-decoration="none" x="405.5" y="101.5">1 : Start</text></g></g><g transform="translate(-62,10) scale(1,1)"><rect fill="#ffffff" stroke="none" x="558" y="105" width="13" height="28"/></g><g transform="translate(-62,10) scale(1,1)"><path fill="none" stroke="#000000" d="M 558 105 L 571 105 L 571 133 L 558 133 L 558 105 Z Z" stroke-miterlimit="10"/></g><g transform="translate(-62,10) scale(1,1)"><path fill="none" stroke="#000000" d="M 565 136 L 828 136" stroke-miterlimit="10"/></g><g transform="translate(-62,10) scale(1,1)"><path fill="#000000" stroke="none" d="M 817.8373251423759 140.209517756016 L 828 136 L 817.8373251423758 131.790482243984"/></g><g transform="translate(-62,10) scale(1,1)"><path fill="none" stroke="#000000" d="M 817.8373251423759 140.209517756016 L 828 136 L 817.8373251423758 131.790482243984 L 817.8373251423759 140.209517756016" stroke-miterlimit="10"/></g><g transform="translate(-62,10) scale(1,1)"><g><path fill="none" stroke="none"/><text fill="#000000" stroke="none" font-family="Arial" font-size="13px" font-style="normal" font-weight="normal" text-decoration="none" x="631.5" y="132.5">2 : GET /Transactions</text></g></g><g transform="translate(-62,10) scale(1,1)"><rect fill="#ffffff" stroke="none" x="828" y="136" width="13" height="28"/></g><g transform="translate(-62,10) scale(1,1)"><path fill="none" stroke="#000000" d="M 828 136 L 841 136 L 841 164 L 828 164 L 828 136 Z Z" stroke-miterlimit="10"/></g><g transform="translate(-62,10) scale(1,1)"><path fill="none" stroke="#000000" d="M 835 168 L 565 168" stroke-miterlimit="10" stroke-dasharray="3"/></g><g transform="translate(-62,10) scale(1,1)"><path fill="none" stroke="#000000" d="M 575.1626748576241 163.790482243984 L 565 168 L 575.1626748576241 172.209517756016" stroke-miterlimit="10"/></g><g transform="translate(-62,10) scale(1,1)"><g><path fill="none" stroke="none"/><text fill="#000000" stroke="none" font-family="Arial" font-size="13px" font-style="normal" font-weight="normal" text-decoration="none" x="656" y="184.5">3 : {Payload-1}</text></g></g><g transform="translate(-62,10) scale(1,1)"><path fill="none" stroke="#000000" d="M 565 208 L 595 208 L 595 228 L 571 228" stroke-miterlimit="10"/></g><g transform="translate(-62,10) scale(1,1)"><path fill="#000000" stroke="none" d="M 581.1626748576241 223.790482243984 L 571 228 L 581.1626748576241 232.209517756016"/></g><g transform="translate(-62,10) scale(1,1)"><path fill="none" stroke="#000000" d="M 581.1626748576241 223.790482243984 L 571 228 L 581.1626748576241 232.209517756016 L 581.1626748576241 223.790482243984" stroke-miterlimit="10"/></g><g transform="translate(-62,10) scale(1,1)"><g><path fill="none" stroke="none"/><text fill="#000000" stroke="none" font-family="Arial" font-size="13px" font-style="normal" font-weight="normal" text-decoration="none" x="606.328125" y="223.5">4 : sendTransaction</text></g></g><g transform="translate(-62,10) scale(1,1)"><rect fill="#ffffff" stroke="none" x="558" y="228" width="13" height="28"/></g><g transform="translate(-62,10) scale(1,1)"><path fill="none" stroke="#000000" d="M 558 228 L 571 228 L 571 256 L 558 256 L 558 228 Z Z" stroke-miterlimit="10"/></g><g transform="translate(-62,10) scale(1,1)"><path fill="none" stroke="#000000" d="M 565 304 L 301 304" stroke-miterlimit="10" stroke-dasharray="3"/></g><g transform="translate(-62,10) scale(1,1)"><path fill="none" stroke="#000000" d="M 311.16267485762415 299.790482243984 L 301 304 L 311.16267485762415 308.209517756016" stroke-miterlimit="10"/></g><g transform="translate(-62,10) scale(1,1)"><g><path fill="none" stroke="none"/><text fill="#000000" stroke="none" font-family="Arial" font-size="13px" font-style="normal" font-weight="normal" text-decoration="none" x="391.5" y="320.5">5 : end: exit 0</text></g></g></g></svg>