<svg version="1.1" xmlns="http://www.w3.org/2000/svg" xmlns:xlink="http://www.w3.org/1999/xlink" width="3900" height="443"><defs/><g><g transform="translate(-38,-134) scale(1,1)"><rect fill="#C0C0C0" stroke="none" x="199" y="151" width="607" height="319" opacity="0.2"/></g><g transform="translate(-38,-134) scale(1,1)"><rect fill="#ffffff" stroke="none" x="192" y="144" width="607" height="319"/></g><g transform="translate(-38,-134) scale(1,1)"><path fill="none" stroke="#000000" d="M 192 144 L 799 144 L 799 463 L 192 463 L 192 144 Z Z" stroke-miterlimit="10"/></g><g transform="translate(-38,-134) scale(1,1)"><g><path fill="none" stroke="none"/><text fill="#000000" stroke="none" font-family="Arial" font-size="13px" font-style="normal" font-weight="bold" text-decoration="none" x="380" y="163.5">UC Detail Envoi des virements bancaire</text></g></g><g transform="translate(-38,-134) scale(1,1)"><path fill="#ffffff" stroke="none" d="M 3883.3207272727273 497.68 C 3883.3207272727273 492.886167936 3887.2065695976726 489 3892 489 C 3896.7934304023274 489 3900.6792727272727 492.886167936 3900.6792727272727 497.68 C 3900.6792727272727 502.473832064 3896.7934304023274 506.36 3892 506.36 C 3887.2065695976726 506.36 3883.3207272727273 502.473832064 3883.3207272727273 497.68 Z"/></g><g transform="translate(-38,-134) scale(1,1)"><path fill="none" stroke="#000000" d="M 3883.3207272727273 497.68 C 3883.3207272727273 492.886167936 3887.2065695976726 489 3892 489 C 3896.7934304023274 489 3900.6792727272727 492.886167936 3900.6792727272727 497.68 C 3900.6792727272727 502.473832064 3896.7934304023274 506.36 3892 506.36 C 3887.2065695976726 506.36 3883.3207272727273 502.473832064 3883.3207272727273 497.68 Z" stroke-miterlimit="10"/></g><g transform="translate(-38,-134) scale(1,1)"><path fill="none" stroke="#000000" d="M 3892 506.36 L 3892 523.64" stroke-miterlimit="10"/></g><g transform="translate(-38,-134) scale(1,1)"><path fill="none" stroke="#000000" d="M 3882.8101818181817 512.84 L 3901.1898181818183 512.84" stroke-miterlimit="10"/></g><g transform="translate(-38,-134) scale(1,1)"><path fill="none" stroke="#000000" d="M 3892 523.64 L 3879.2363636363634 541" stroke-miterlimit="10"/></g><g transform="translate(-38,-134) scale(1,1)"><path fill="none" stroke="#000000" d="M 3892 523.64 L 3904.7636363636366 541" stroke-miterlimit="10"/></g><g transform="translate(-38,-134) scale(1,1)"><g><path fill="none" stroke="none"/><text fill="#000000" stroke="none" font-family="Arial" font-size="13px" font-style="normal" font-weight="bold" text-decoration="none" x="3863" y="561.5">Scheduler</text></g></g><g transform="translate(-38,-134) scale(1,1)"><path fill="#ffffff" stroke="none" d="M 3367.8207272727273 393.68 C 3367.8207272727273 388.886167936 3371.7065695976726 385 3376.5 385 C 3381.2934304023274 385 3385.1792727272727 388.886167936 3385.1792727272727 393.68 C 3385.1792727272727 398.473832064 3381.2934304023274 402.36 3376.5 402.36 C 3371.7065695976726 402.36 3367.8207272727273 398.473832064 3367.8207272727273 393.68 Z"/></g><g transform="translate(-38,-134) scale(1,1)"><path fill="none" stroke="#000000" d="M 3367.8207272727273 393.68 C 3367.8207272727273 388.886167936 3371.7065695976726 385 3376.5 385 C 3381.2934304023274 385 3385.1792727272727 388.886167936 3385.1792727272727 393.68 C 3385.1792727272727 398.473832064 3381.2934304023274 402.36 3376.5 402.36 C 3371.7065695976726 402.36 3367.8207272727273 398.473832064 3367.8207272727273 393.68 Z" stroke-miterlimit="10"/></g><g transform="translate(-38,-134) scale(1,1)"><path fill="none" stroke="#000000" d="M 3376.5 402.36 L 3376.5 419.64" stroke-miterlimit="10"/></g><g transform="translate(-38,-134) scale(1,1)"><path fill="none" stroke="#000000" d="M 3367.3101818181817 408.84 L 3385.6898181818183 408.84" stroke-miterlimit="10"/></g><g transform="translate(-38,-134) scale(1,1)"><path fill="none" stroke="#000000" d="M 3376.5 419.64 L 3363.7363636363634 437" stroke-miterlimit="10"/></g><g transform="translate(-38,-134) scale(1,1)"><path fill="none" stroke="#000000" d="M 3376.5 419.64 L 3389.2636363636366 437" stroke-miterlimit="10"/></g><g transform="translate(-38,-134) scale(1,1)"><g><path fill="none" stroke="none"/><text fill="#000000" stroke="none" font-family="Arial" font-size="13px" font-style="normal" font-weight="bold" text-decoration="none" x="3357.5" y="457.5">Actor1</text></g></g><g transform="translate(-38,-134) scale(1,1)"><path fill="#ffffff" stroke="none" d="M 75.32072727272727 249.68 C 75.32072727272727 244.886167936 79.20656959767273 241 84 241 C 88.79343040232727 241 92.67927272727273 244.886167936 92.67927272727273 249.68 C 92.67927272727273 254.47383206400002 88.79343040232727 258.36 84 258.36 C 79.20656959767273 258.36 75.32072727272727 254.47383206400002 75.32072727272727 249.68 Z"/></g><g transform="translate(-38,-134) scale(1,1)"><path fill="none" stroke="#000000" d="M 75.32072727272727 249.68 C 75.32072727272727 244.886167936 79.20656959767273 241 84 241 C 88.79343040232727 241 92.67927272727273 244.886167936 92.67927272727273 249.68 C 92.67927272727273 254.47383206400002 88.79343040232727 258.36 84 258.36 C 79.20656959767273 258.36 75.32072727272727 254.47383206400002 75.32072727272727 249.68 Z" stroke-miterlimit="10"/></g><g transform="translate(-38,-134) scale(1,1)"><path fill="none" stroke="#000000" d="M 84 258.36 L 84 275.64" stroke-miterlimit="10"/></g><g transform="translate(-38,-134) scale(1,1)"><path fill="none" stroke="#000000" d="M 74.81018181818182 264.84 L 93.18981818181818 264.84" stroke-miterlimit="10"/></g><g transform="translate(-38,-134) scale(1,1)"><path fill="none" stroke="#000000" d="M 84 275.64 L 71.23636363636363 293" stroke-miterlimit="10"/></g><g transform="translate(-38,-134) scale(1,1)"><path fill="none" stroke="#000000" d="M 84 275.64 L 96.76363636363637 293" stroke-miterlimit="10"/></g><g transform="translate(-38,-134) scale(1,1)"><g><path fill="none" stroke="none"/><text fill="#000000" stroke="none" font-family="Arial" font-size="13px" font-style="normal" font-weight="bold" text-decoration="none" x="55" y="313.5">Scheduler</text></g></g><g transform="translate(-38,-134) scale(1,1)"><path fill="#C0C0C0" stroke="none" d="M 239 278.5 C 239 265.5213072 363.4648256 255 517 255 C 670.5351744 255 795 265.5213072 795 278.5 C 795 291.4786928 670.5351744 302 517 302 C 363.4648256 302 239 291.4786928 239 278.5 Z" opacity="0.2"/></g><g transform="translate(-38,-134) scale(1,1)"><path fill="#ffffff" stroke="none" d="M 232 271.5 C 232 258.5213072 356.4648256 248 510 248 C 663.5351744 248 788 258.5213072 788 271.5 C 788 284.4786928 663.5351744 295 510 295 C 356.4648256 295 232 284.4786928 232 271.5 Z"/></g><g transform="translate(-38,-134) scale(1,1)"><path fill="none" stroke="#000000" d="M 232 271.5 C 232 258.5213072 356.4648256 248 510 248 C 663.5351744 248 788 258.5213072 788 271.5 C 788 284.4786928 663.5351744 295 510 295 C 356.4648256 295 232 284.4786928 232 271.5 Z" stroke-miterlimit="10"/></g><g transform="translate(-38,-134) scale(1,1)"><g><path fill="none" stroke="none"/><text fill="#000000" stroke="none" font-family="Arial" font-size="13px" font-style="normal" font-weight="bold" text-decoration="none" x="328" y="278.5">Créer le document XML de transaction à envoyé au SI Externe</text></g></g><g transform="translate(-38,-134) scale(1,1)"><path fill="none" stroke="#000000" d="M 121 278 L 231 276" stroke-miterlimit="10"/></g></g></svg>