<svg version="1.1" xmlns="http://www.w3.org/2000/svg" xmlns:xlink="http://www.w3.org/1999/xlink" width="1175.1171875" height="244"><defs/><g><g transform="translate(10,-110) scale(1,1)"><rect fill="#C0C0C0" stroke="none" x="255" y="159" width="166.4853515625" height="72" opacity="0.2"/></g><g transform="translate(10,-110) scale(1,1)"><rect fill="#ffffff" stroke="none" x="248" y="152" width="166.4853515625" height="72"/></g><g transform="translate(10,-110) scale(1,1)"><path fill="none" stroke="#000000" d="M 248 152 L 414.4853515625 152 L 414.4853515625 224 L 248 224 L 248 152 Z Z" stroke-miterlimit="10"/></g><g transform="translate(10,-110) scale(1,1)"><path fill="none" stroke="#000000" d="M 248 177 L 414.4853515625 177" stroke-miterlimit="10"/></g><g transform="translate(10,-110) scale(1,1)"><path fill="none" stroke="#000000" d="M 248 187 L 414.4853515625 187" stroke-miterlimit="10"/></g><g transform="translate(10,-110) scale(1,1)"><g><path fill="none" stroke="none"/><text fill="#000000" stroke="none" font-family="Arial" font-size="13px" font-style="normal" font-weight="bold" text-decoration="none" x="270.24267578125" y="171.5">MaintransactionBank</text></g></g><g transform="translate(10,-110) scale(1,1)"><g><path fill="none" stroke="none"/><text fill="#000000" stroke="none" font-family="Arial" font-size="13px" font-style="normal" font-weight="normal" text-decoration="none" x="253" y="204.5">+SendTransaction()</text></g></g><g transform="translate(10,-110) scale(1,1)"><g><path fill="none" stroke="none"/><text fill="#000000" stroke="none" font-family="Arial" font-size="13px" font-style="normal" font-weight="normal" text-decoration="none" x="253" y="219.5">+recoveryTransaction()</text></g></g><g transform="translate(10,-110) scale(1,1)"><rect fill="#C0C0C0" stroke="none" x="527" y="159" width="325" height="87" opacity="0.2"/></g><g transform="translate(10,-110) scale(1,1)"><rect fill="#ffffff" stroke="none" x="520" y="152" width="325" height="87"/></g><g transform="translate(10,-110) scale(1,1)"><path fill="none" stroke="#000000" d="M 520 152 L 845 152 L 845 239 L 520 239 L 520 152 Z Z" stroke-miterlimit="10"/></g><g transform="translate(10,-110) scale(1,1)"><path fill="none" stroke="#000000" d="M 520 177 L 845 177" stroke-miterlimit="10"/></g><g transform="translate(10,-110) scale(1,1)"><path fill="none" stroke="#000000" d="M 520 187 L 845 187" stroke-miterlimit="10"/></g><g transform="translate(10,-110) scale(1,1)"><g><path fill="none" stroke="none"/><text fill="#000000" stroke="none" font-family="Arial" font-size="13px" font-style="normal" font-weight="bold" text-decoration="none" x="665" y="171.5">Model</text></g></g><g transform="translate(10,-110) scale(1,1)"><g><path fill="none" stroke="none"/><text fill="#000000" stroke="none" font-family="Arial" font-size="13px" font-style="normal" font-weight="normal" text-decoration="none" x="525" y="204.5">+GetDBTransaction()</text></g></g><g transform="translate(10,-110) scale(1,1)"><g><path fill="none" stroke="none"/><text fill="#000000" stroke="none" font-family="Arial" font-size="13px" font-style="normal" font-weight="normal" text-decoration="none" x="525" y="219.5">+postMessage()</text></g></g><g transform="translate(10,-110) scale(1,1)"><g><path fill="none" stroke="none"/><text fill="#000000" stroke="none" font-family="Arial" font-size="13px" font-style="normal" font-weight="normal" text-decoration="none" x="525" y="234.5">+InputTransaction(List&lt;Transaction&gt; tabTransaction)()</text></g></g><g transform="translate(10,-110) scale(1,1)"><rect fill="#C0C0C0" stroke="none" x="199" y="279" width="277" height="72" opacity="0.2"/></g><g transform="translate(10,-110) scale(1,1)"><rect fill="#ffffff" stroke="none" x="192" y="272" width="277" height="72"/></g><g transform="translate(10,-110) scale(1,1)"><path fill="none" stroke="#000000" d="M 192 272 L 469 272 L 469 344 L 192 344 L 192 272 Z Z" stroke-miterlimit="10"/></g><g transform="translate(10,-110) scale(1,1)"><path fill="none" stroke="#000000" d="M 192 297 L 469 297" stroke-miterlimit="10"/></g><g transform="translate(10,-110) scale(1,1)"><path fill="none" stroke="#000000" d="M 192 307 L 469 307" stroke-miterlimit="10"/></g><g transform="translate(10,-110) scale(1,1)"><g><path fill="none" stroke="none"/><text fill="#000000" stroke="none" font-family="Arial" font-size="13px" font-style="normal" font-weight="bold" text-decoration="none" x="308.5" y="291.5">Service</text></g></g><g transform="translate(10,-110) scale(1,1)"><g><path fill="none" stroke="none"/><text fill="#000000" stroke="none" font-family="Arial" font-size="13px" font-style="normal" font-weight="normal" text-decoration="none" x="197" y="324.5">+SetXmlDocument(List TabTransaction)</text></g></g><g transform="translate(10,-110) scale(1,1)"><g><path fill="none" stroke="none"/><text fill="#000000" stroke="none" font-family="Arial" font-size="13px" font-style="normal" font-weight="normal" text-decoration="none" x="197" y="339.5">+List &lt;Transaction&gt; GetXmlTransaction()</text></g></g><g transform="translate(10,-110) scale(1,1)"><path fill="none" stroke="#000000" d="M 415 190 L 519 192" stroke-miterlimit="10"/></g><g transform="translate(10,-110) scale(1,1)"><path fill="none" stroke="#000000" d="M 508.7582665144411 196.01333965803823 L 519 192 L 508.92014111385225 187.59586048865972" stroke-miterlimit="10"/></g><g transform="translate(10,-110) scale(1,1)"><path fill="none" stroke="#000000" d="M 331 225 L 330 271" stroke-miterlimit="10"/></g><g transform="translate(10,-110) scale(1,1)"><path fill="none" stroke="#000000" d="M 326.0123521078249 260.74823604017183 L 330 271 L 334.42939894957703 260.93121531934037" stroke-miterlimit="10"/></g><g transform="translate(10,-110) scale(1,1)"><rect fill="#C0C0C0" stroke="none" x="983" y="127" width="179.1171875" height="162" opacity="0.2"/></g><g transform="translate(10,-110) scale(1,1)"><rect fill="#ffffff" stroke="none" x="976" y="120" width="179.1171875" height="162"/></g><g transform="translate(10,-110) scale(1,1)"><path fill="none" stroke="#000000" d="M 976 120 L 1155.1171875 120 L 1155.1171875 282 L 976 282 L 976 120 Z Z" stroke-miterlimit="10"/></g><g transform="translate(10,-110) scale(1,1)"><path fill="none" stroke="#000000" d="M 976 145 L 1155.1171875 145" stroke-miterlimit="10"/></g><g transform="translate(10,-110) scale(1,1)"><path fill="none" stroke="#000000" d="M 976 273 L 1155.1171875 273" stroke-miterlimit="10"/></g><g transform="translate(10,-110) scale(1,1)"><g><path fill="none" stroke="none"/><text fill="#000000" stroke="none" font-family="Arial" font-size="13px" font-style="normal" font-weight="bold" text-decoration="none" x="1031.55859375" y="139.5">Transaction</text></g></g><g transform="translate(10,-110) scale(1,1)"><g><path fill="none" stroke="none"/><text fill="#000000" stroke="none" font-family="Arial" font-size="13px" font-style="normal" font-weight="normal" text-decoration="none" x="981" y="162.5">+id_transaction: int</text></g></g><g transform="translate(10,-110) scale(1,1)"><g><path fill="none" stroke="none"/><text fill="#000000" stroke="none" font-family="Arial" font-size="13px" font-style="normal" font-weight="normal" text-decoration="none" x="981" y="177.5">+transaction_date: Date</text></g></g><g transform="translate(10,-110) scale(1,1)"><g><path fill="none" stroke="none"/><text fill="#000000" stroke="none" font-family="Arial" font-size="13px" font-style="normal" font-weight="normal" text-decoration="none" x="981" y="192.5">+lastname_crediter: String</text></g></g><g transform="translate(10,-110) scale(1,1)"><g><path fill="none" stroke="none"/><text fill="#000000" stroke="none" font-family="Arial" font-size="13px" font-style="normal" font-weight="normal" text-decoration="none" x="981" y="207.5">+firstname_crediter: String</text></g></g><g transform="translate(10,-110) scale(1,1)"><g><path fill="none" stroke="none"/><text fill="#000000" stroke="none" font-family="Arial" font-size="13px" font-style="normal" font-weight="normal" text-decoration="none" x="981" y="222.5">+creditaccount: String</text></g></g><g transform="translate(10,-110) scale(1,1)"><g><path fill="none" stroke="none"/><text fill="#000000" stroke="none" font-family="Arial" font-size="13px" font-style="normal" font-weight="normal" text-decoration="none" x="981" y="237.5">+debit_account: Integer</text></g></g><g transform="translate(10,-110) scale(1,1)"><g><path fill="none" stroke="none"/><text fill="#000000" stroke="none" font-family="Arial" font-size="13px" font-style="normal" font-weight="normal" text-decoration="none" x="981" y="252.5">+amount_transaction: Float</text></g></g><g transform="translate(10,-110) scale(1,1)"><g><path fill="none" stroke="none"/><text fill="#000000" stroke="none" font-family="Arial" font-size="13px" font-style="normal" font-weight="normal" text-decoration="none" x="981" y="267.5">+impacted_bank: String</text></g></g><g transform="translate(10,-110) scale(1,1)"><path fill="none" stroke="#000000" d="M 846 198 L 975 200" stroke-miterlimit="10"/></g><g transform="translate(10,-110) scale(1,1)"><path fill="none" stroke="#000000" d="M 964.7732903253184 204.05147000849985 L 975 200 L 964.9038023230224 195.6334461565907" stroke-miterlimit="10"/></g><g transform="translate(10,-110) scale(1,1)"><path fill="#ffffff" stroke="none" d="M 100.41618625710227 145.68 C 100.41618625710227 140.886167936 104.30202858204773 137 109.095458984375 137 C 113.88888938670227 137 117.77473171164773 140.886167936 117.77473171164773 145.68 C 117.77473171164773 150.47383206400002 113.88888938670227 154.36 109.095458984375 154.36 C 104.30202858204773 154.36 100.41618625710227 150.47383206400002 100.41618625710227 145.68 Z"/></g><g transform="translate(10,-110) scale(1,1)"><path fill="none" stroke="#000000" d="M 100.41618625710227 145.68 C 100.41618625710227 140.886167936 104.30202858204773 137 109.095458984375 137 C 113.88888938670227 137 117.77473171164773 140.886167936 117.77473171164773 145.68 C 117.77473171164773 150.47383206400002 113.88888938670227 154.36 109.095458984375 154.36 C 104.30202858204773 154.36 100.41618625710227 150.47383206400002 100.41618625710227 145.68 Z" stroke-miterlimit="10"/></g><g transform="translate(10,-110) scale(1,1)"><path fill="none" stroke="#000000" d="M 109.095458984375 154.36 L 109.095458984375 171.64" stroke-miterlimit="10"/></g><g transform="translate(10,-110) scale(1,1)"><path fill="none" stroke="#000000" d="M 99.90564080255682 160.84 L 118.28527716619318 160.84" stroke-miterlimit="10"/></g><g transform="translate(10,-110) scale(1,1)"><path fill="none" stroke="#000000" d="M 109.095458984375 171.64 L 96.33182262073863 189" stroke-miterlimit="10"/></g><g transform="translate(10,-110) scale(1,1)"><path fill="none" stroke="#000000" d="M 109.095458984375 171.64 L 121.85909534801137 189" stroke-miterlimit="10"/></g><g transform="translate(10,-110) scale(1,1)"><g><path fill="none" stroke="none"/><text fill="#000000" stroke="none" font-family="Arial" font-size="13px" font-style="normal" font-weight="bold" text-decoration="none" x="18.595458984375" y="209.5">Scheduler "Acteur non humain"</text></g></g><g transform="translate(10,-110) scale(1,1)"><g><path fill="none" stroke="none"/><text fill="#000000" stroke="none" font-family="Arial" font-size="13px" font-style="normal" font-weight="normal" text-decoration="none" x="29.095458984375" y="224.5">(from MaintransactionBank)</text></g></g><g transform="translate(10,-110) scale(1,1)"><path fill="none" stroke="#000000" d="M 219 185 L 247 186" stroke-miterlimit="10"/></g><g transform="translate(10,-110) scale(1,1)"><path fill="none" stroke="#000000" d="M 236.69355611504727 189.84411426031022 L 247 186 L 236.99404437791003 181.43044290015254" stroke-miterlimit="10"/></g></g></svg>