<svg version="1.1" xmlns="http://www.w3.org/2000/svg" xmlns:xlink="http://www.w3.org/1999/xlink" width="935.1171875" height="245"><defs/><g><g transform="translate(10,-94) scale(1,1)"><rect fill="#C0C0C0" stroke="none" x="255" y="159" width="166.4853515625" height="57" opacity="0.2"/></g><g transform="translate(10,-94) scale(1,1)"><rect fill="#ffffff" stroke="none" x="248" y="152" width="166.4853515625" height="57"/></g><g transform="translate(10,-94) scale(1,1)"><path fill="none" stroke="#000000" d="M 248 152 L 414.4853515625 152 L 414.4853515625 209 L 248 209 L 248 152 Z Z" stroke-miterlimit="10"/></g><g transform="translate(10,-94) scale(1,1)"><path fill="none" stroke="#000000" d="M 248 177 L 414.4853515625 177" stroke-miterlimit="10"/></g><g transform="translate(10,-94) scale(1,1)"><path fill="none" stroke="#000000" d="M 248 187 L 414.4853515625 187" stroke-miterlimit="10"/></g><g transform="translate(10,-94) scale(1,1)"><g><path fill="none" stroke="none"/><text fill="#000000" stroke="none" font-family="Arial" font-size="13px" font-style="normal" font-weight="bold" text-decoration="none" x="270.24267578125" y="171.5">MaintransactionBank</text></g></g><g transform="translate(10,-94) scale(1,1)"><g><path fill="none" stroke="none"/><text fill="#000000" stroke="none" font-family="Arial" font-size="13px" font-style="normal" font-weight="normal" text-decoration="none" x="253" y="204.5">+SendTransaction()</text></g></g><g transform="translate(10,-94) scale(1,1)"><rect fill="#C0C0C0" stroke="none" x="519" y="151" width="139.482421875" height="72" opacity="0.2"/></g><g transform="translate(10,-94) scale(1,1)"><rect fill="#ffffff" stroke="none" x="512" y="144" width="139.482421875" height="72"/></g><g transform="translate(10,-94) scale(1,1)"><path fill="none" stroke="#000000" d="M 512 144 L 651.482421875 144 L 651.482421875 216 L 512 216 L 512 144 Z Z" stroke-miterlimit="10"/></g><g transform="translate(10,-94) scale(1,1)"><path fill="none" stroke="#000000" d="M 512 169 L 651.482421875 169" stroke-miterlimit="10"/></g><g transform="translate(10,-94) scale(1,1)"><path fill="none" stroke="#000000" d="M 512 179 L 651.482421875 179" stroke-miterlimit="10"/></g><g transform="translate(10,-94) scale(1,1)"><g><path fill="none" stroke="none"/><text fill="#000000" stroke="none" font-family="Arial" font-size="13px" font-style="normal" font-weight="bold" text-decoration="none" x="564.2412109375" y="163.5">Model</text></g></g><g transform="translate(10,-94) scale(1,1)"><g><path fill="none" stroke="none"/><text fill="#000000" stroke="none" font-family="Arial" font-size="13px" font-style="normal" font-weight="normal" text-decoration="none" x="517" y="196.5">+GetDBTransaction()</text></g></g><g transform="translate(10,-94) scale(1,1)"><g><path fill="none" stroke="none"/><text fill="#000000" stroke="none" font-family="Arial" font-size="13px" font-style="normal" font-weight="normal" text-decoration="none" x="517" y="211.5">+postMessage()</text></g></g><g transform="translate(10,-94) scale(1,1)"><rect fill="#C0C0C0" stroke="none" x="199" y="279" width="277" height="57" opacity="0.2"/></g><g transform="translate(10,-94) scale(1,1)"><rect fill="#ffffff" stroke="none" x="192" y="272" width="277" height="57"/></g><g transform="translate(10,-94) scale(1,1)"><path fill="none" stroke="#000000" d="M 192 272 L 469 272 L 469 329 L 192 329 L 192 272 Z Z" stroke-miterlimit="10"/></g><g transform="translate(10,-94) scale(1,1)"><path fill="none" stroke="#000000" d="M 192 297 L 469 297" stroke-miterlimit="10"/></g><g transform="translate(10,-94) scale(1,1)"><path fill="none" stroke="#000000" d="M 192 307 L 469 307" stroke-miterlimit="10"/></g><g transform="translate(10,-94) scale(1,1)"><g><path fill="none" stroke="none"/><text fill="#000000" stroke="none" font-family="Arial" font-size="13px" font-style="normal" font-weight="bold" text-decoration="none" x="308.5" y="291.5">Service</text></g></g><g transform="translate(10,-94) scale(1,1)"><g><path fill="none" stroke="none"/><text fill="#000000" stroke="none" font-family="Arial" font-size="13px" font-style="normal" font-weight="normal" text-decoration="none" x="197" y="324.5">+SetXmlDocument(List TabTransaction)</text></g></g><g transform="translate(10,-94) scale(1,1)"><path fill="none" stroke="#000000" d="M 415 180 L 511 180" stroke-miterlimit="10"/></g><g transform="translate(10,-94) scale(1,1)"><path fill="none" stroke="#000000" d="M 500.83732514237585 184.209517756016 L 511 180 L 500.83732514237585 175.790482243984" stroke-miterlimit="10"/></g><g transform="translate(10,-94) scale(1,1)"><path fill="none" stroke="#000000" d="M 331 210 L 330 271" stroke-miterlimit="10"/></g><g transform="translate(10,-94) scale(1,1)"><path fill="none" stroke="#000000" d="M 325.95762661840706 260.769691234191 L 330 271 L 334.3755310717234 260.9076896678519" stroke-miterlimit="10"/></g><g transform="translate(10,-94) scale(1,1)"><rect fill="#C0C0C0" stroke="none" x="743" y="111" width="179.1171875" height="162" opacity="0.2"/></g><g transform="translate(10,-94) scale(1,1)"><rect fill="#ffffff" stroke="none" x="736" y="104" width="179.1171875" height="162"/></g><g transform="translate(10,-94) scale(1,1)"><path fill="none" stroke="#000000" d="M 736 104 L 915.1171875 104 L 915.1171875 266 L 736 266 L 736 104 Z Z" stroke-miterlimit="10"/></g><g transform="translate(10,-94) scale(1,1)"><path fill="none" stroke="#000000" d="M 736 129 L 915.1171875 129" stroke-miterlimit="10"/></g><g transform="translate(10,-94) scale(1,1)"><path fill="none" stroke="#000000" d="M 736 257 L 915.1171875 257" stroke-miterlimit="10"/></g><g transform="translate(10,-94) scale(1,1)"><g><path fill="none" stroke="none"/><text fill="#000000" stroke="none" font-family="Arial" font-size="13px" font-style="normal" font-weight="bold" text-decoration="none" x="791.55859375" y="123.5">Transaction</text></g></g><g transform="translate(10,-94) scale(1,1)"><g><path fill="none" stroke="none"/><text fill="#000000" stroke="none" font-family="Arial" font-size="13px" font-style="normal" font-weight="normal" text-decoration="none" x="741" y="146.5">+id_transaction: int</text></g></g><g transform="translate(10,-94) scale(1,1)"><g><path fill="none" stroke="none"/><text fill="#000000" stroke="none" font-family="Arial" font-size="13px" font-style="normal" font-weight="normal" text-decoration="none" x="741" y="161.5">+transaction_date: Date</text></g></g><g transform="translate(10,-94) scale(1,1)"><g><path fill="none" stroke="none"/><text fill="#000000" stroke="none" font-family="Arial" font-size="13px" font-style="normal" font-weight="normal" text-decoration="none" x="741" y="176.5">+lastname_crediter: String</text></g></g><g transform="translate(10,-94) scale(1,1)"><g><path fill="none" stroke="none"/><text fill="#000000" stroke="none" font-family="Arial" font-size="13px" font-style="normal" font-weight="normal" text-decoration="none" x="741" y="191.5">+firstname_crediter: String</text></g></g><g transform="translate(10,-94) scale(1,1)"><g><path fill="none" stroke="none"/><text fill="#000000" stroke="none" font-family="Arial" font-size="13px" font-style="normal" font-weight="normal" text-decoration="none" x="741" y="206.5">+creditaccount: String</text></g></g><g transform="translate(10,-94) scale(1,1)"><g><path fill="none" stroke="none"/><text fill="#000000" stroke="none" font-family="Arial" font-size="13px" font-style="normal" font-weight="normal" text-decoration="none" x="741" y="221.5">+debit_account: Integer</text></g></g><g transform="translate(10,-94) scale(1,1)"><g><path fill="none" stroke="none"/><text fill="#000000" stroke="none" font-family="Arial" font-size="13px" font-style="normal" font-weight="normal" text-decoration="none" x="741" y="236.5">+amount_transaction: Float</text></g></g><g transform="translate(10,-94) scale(1,1)"><g><path fill="none" stroke="none"/><text fill="#000000" stroke="none" font-family="Arial" font-size="13px" font-style="normal" font-weight="normal" text-decoration="none" x="741" y="251.5">+impacted_bank: String</text></g></g><g transform="translate(10,-94) scale(1,1)"><path fill="none" stroke="#000000" d="M 652 181 L 735 183" stroke-miterlimit="10"/></g><g transform="translate(10,-94) scale(1,1)"><path fill="none" stroke="#000000" d="M 724.7388695371069 186.96348352128354 L 735 183 L 724.9416789920276 178.54689114206911" stroke-miterlimit="10"/></g><g transform="translate(10,-94) scale(1,1)"><path fill="#ffffff" stroke="none" d="M 100.41618625710227 145.68 C 100.41618625710227 140.886167936 104.30202858204773 137 109.095458984375 137 C 113.88888938670227 137 117.77473171164773 140.886167936 117.77473171164773 145.68 C 117.77473171164773 150.47383206400002 113.88888938670227 154.36 109.095458984375 154.36 C 104.30202858204773 154.36 100.41618625710227 150.47383206400002 100.41618625710227 145.68 Z"/></g><g transform="translate(10,-94) scale(1,1)"><path fill="none" stroke="#000000" d="M 100.41618625710227 145.68 C 100.41618625710227 140.886167936 104.30202858204773 137 109.095458984375 137 C 113.88888938670227 137 117.77473171164773 140.886167936 117.77473171164773 145.68 C 117.77473171164773 150.47383206400002 113.88888938670227 154.36 109.095458984375 154.36 C 104.30202858204773 154.36 100.41618625710227 150.47383206400002 100.41618625710227 145.68 Z" stroke-miterlimit="10"/></g><g transform="translate(10,-94) scale(1,1)"><path fill="none" stroke="#000000" d="M 109.095458984375 154.36 L 109.095458984375 171.64" stroke-miterlimit="10"/></g><g transform="translate(10,-94) scale(1,1)"><path fill="none" stroke="#000000" d="M 99.90564080255682 160.84 L 118.28527716619318 160.84" stroke-miterlimit="10"/></g><g transform="translate(10,-94) scale(1,1)"><path fill="none" stroke="#000000" d="M 109.095458984375 171.64 L 96.33182262073863 189" stroke-miterlimit="10"/></g><g transform="translate(10,-94) scale(1,1)"><path fill="none" stroke="#000000" d="M 109.095458984375 171.64 L 121.85909534801137 189" stroke-miterlimit="10"/></g><g transform="translate(10,-94) scale(1,1)"><g><path fill="none" stroke="none"/><text fill="#000000" stroke="none" font-family="Arial" font-size="13px" font-style="normal" font-weight="bold" text-decoration="none" x="18.595458984375" y="209.5">Scheduler "Acteur non humain"</text></g></g><g transform="translate(10,-94) scale(1,1)"><g><path fill="none" stroke="none"/><text fill="#000000" stroke="none" font-family="Arial" font-size="13px" font-style="normal" font-weight="normal" text-decoration="none" x="29.095458984375" y="224.5">(from MaintransactionBank)</text></g></g><g transform="translate(10,-94) scale(1,1)"><path fill="none" stroke="#000000" d="M 219 182 L 247 181" stroke-miterlimit="10"/></g><g transform="translate(10,-94) scale(1,1)"><path fill="none" stroke="#000000" d="M 236.99404437791003 185.56955709984746 L 247 181 L 236.69355611504727 177.15588573968978" stroke-miterlimit="10"/></g></g></svg>