<svg version="1.1" xmlns="http://www.w3.org/2000/svg" xmlns:xlink="http://www.w3.org/1999/xlink" width="1207.1171875" height="253"><defs/><g><g transform="translate(10,-38) scale(1,1)"><rect fill="#C0C0C0" stroke="none" x="426" y="110" width="166.4853515625" height="57" opacity="0.2"/></g><g transform="translate(10,-38) scale(1,1)"><rect fill="#ffffff" stroke="none" x="419" y="103" width="166.4853515625" height="57"/></g><g transform="translate(10,-38) scale(1,1)"><path fill="none" stroke="#000000" d="M 419 103 L 585.4853515625 103 L 585.4853515625 160 L 419 160 L 419 103 Z Z" stroke-miterlimit="10"/></g><g transform="translate(10,-38) scale(1,1)"><path fill="none" stroke="#000000" d="M 419 128 L 585.4853515625 128" stroke-miterlimit="10"/></g><g transform="translate(10,-38) scale(1,1)"><path fill="none" stroke="#000000" d="M 419 138 L 585.4853515625 138" stroke-miterlimit="10"/></g><g transform="translate(10,-38) scale(1,1)"><g><path fill="none" stroke="none"/><text fill="#000000" stroke="none" font-family="Arial" font-size="13px" font-style="normal" font-weight="bold" text-decoration="none" x="441.24267578125" y="122.5">MaintransactionBank</text></g></g><g transform="translate(10,-38) scale(1,1)"><g><path fill="none" stroke="none"/><text fill="#000000" stroke="none" font-family="Arial" font-size="13px" font-style="normal" font-weight="normal" text-decoration="none" x="424" y="155.5">+SendTransaction()</text></g></g><g transform="translate(10,-38) scale(1,1)"><rect fill="#C0C0C0" stroke="none" x="730" y="110" width="139.482421875" height="72" opacity="0.2"/></g><g transform="translate(10,-38) scale(1,1)"><rect fill="#ffffff" stroke="none" x="723" y="103" width="139.482421875" height="72"/></g><g transform="translate(10,-38) scale(1,1)"><path fill="none" stroke="#000000" d="M 723 103 L 862.482421875 103 L 862.482421875 175 L 723 175 L 723 103 Z Z" stroke-miterlimit="10"/></g><g transform="translate(10,-38) scale(1,1)"><path fill="none" stroke="#000000" d="M 723 128 L 862.482421875 128" stroke-miterlimit="10"/></g><g transform="translate(10,-38) scale(1,1)"><path fill="none" stroke="#000000" d="M 723 138 L 862.482421875 138" stroke-miterlimit="10"/></g><g transform="translate(10,-38) scale(1,1)"><g><path fill="none" stroke="none"/><text fill="#000000" stroke="none" font-family="Arial" font-size="13px" font-style="normal" font-weight="bold" text-decoration="none" x="775.2412109375" y="122.5">Model</text></g></g><g transform="translate(10,-38) scale(1,1)"><g><path fill="none" stroke="none"/><text fill="#000000" stroke="none" font-family="Arial" font-size="13px" font-style="normal" font-weight="normal" text-decoration="none" x="728" y="155.5">+GetDBTransaction()</text></g></g><g transform="translate(10,-38) scale(1,1)"><g><path fill="none" stroke="none"/><text fill="#000000" stroke="none" font-family="Arial" font-size="13px" font-style="normal" font-weight="normal" text-decoration="none" x="728" y="170.5">+postMessage()</text></g></g><g transform="translate(10,-38) scale(1,1)"><rect fill="#C0C0C0" stroke="none" x="719" y="231" width="292.45458984375" height="57" opacity="0.2"/></g><g transform="translate(10,-38) scale(1,1)"><rect fill="#ffffff" stroke="none" x="712" y="224" width="292.45458984375" height="57"/></g><g transform="translate(10,-38) scale(1,1)"><path fill="none" stroke="#000000" d="M 712 224 L 1004.45458984375 224 L 1004.45458984375 281 L 712 281 L 712 224 Z Z" stroke-miterlimit="10"/></g><g transform="translate(10,-38) scale(1,1)"><path fill="none" stroke="#000000" d="M 712 249 L 1004.45458984375 249" stroke-miterlimit="10"/></g><g transform="translate(10,-38) scale(1,1)"><path fill="none" stroke="#000000" d="M 712 259 L 1004.45458984375 259" stroke-miterlimit="10"/></g><g transform="translate(10,-38) scale(1,1)"><g><path fill="none" stroke="none"/><text fill="#000000" stroke="none" font-family="Arial" font-size="13px" font-style="normal" font-weight="bold" text-decoration="none" x="836.227294921875" y="243.5">Service</text></g></g><g transform="translate(10,-38) scale(1,1)"><g><path fill="none" stroke="none"/><text fill="#000000" stroke="none" font-family="Arial" font-size="13px" font-style="normal" font-weight="normal" text-decoration="none" x="717" y="276.5">+SetXmlDocument(List TabTransaction)</text></g></g><g transform="translate(10,-38) scale(1,1)"><path fill="none" stroke="#000000" d="M 586 133 L 722 137" stroke-miterlimit="10"/></g><g transform="translate(10,-38) scale(1,1)"><path fill="none" stroke="#000000" d="M 711.7179620834851 140.90892520820617 L 722 137 L 711.9654737429415 132.49352878668873" stroke-miterlimit="10"/></g><g transform="translate(10,-38) scale(1,1)"><path fill="none" stroke="#000000" d="M 586 160 L 773 223" stroke-miterlimit="10"/></g><g transform="translate(10,-38) scale(1,1)"><path fill="none" stroke="#000000" d="M 762.0252307816027 223.74460768389676 L 773 223 L 764.7131491211069 215.76618340632086" stroke-miterlimit="10"/></g><g transform="translate(10,-38) scale(1,1)"><rect fill="#C0C0C0" stroke="none" x="471" y="231" width="95.00439453125" height="57" opacity="0.2"/></g><g transform="translate(10,-38) scale(1,1)"><rect fill="#ffffff" stroke="none" x="464" y="224" width="95.00439453125" height="57"/></g><g transform="translate(10,-38) scale(1,1)"><path fill="none" stroke="#000000" d="M 464 224 L 559.00439453125 224 L 559.00439453125 281 L 464 281 L 464 224 Z Z" stroke-miterlimit="10"/></g><g transform="translate(10,-38) scale(1,1)"><path fill="none" stroke="#000000" d="M 464 249 L 559.00439453125 249" stroke-miterlimit="10"/></g><g transform="translate(10,-38) scale(1,1)"><path fill="none" stroke="#000000" d="M 464 272 L 559.00439453125 272" stroke-miterlimit="10"/></g><g transform="translate(10,-38) scale(1,1)"><g><path fill="none" stroke="none"/><text fill="#000000" stroke="none" font-family="Arial" font-size="13px" font-style="normal" font-weight="bold" text-decoration="none" x="494.002197265625" y="243.5">Errors</text></g></g><g transform="translate(10,-38) scale(1,1)"><g><path fill="none" stroke="none"/><text fill="#000000" stroke="none" font-family="Arial" font-size="13px" font-style="normal" font-weight="normal" text-decoration="none" x="469" y="266.5">+IO Exception</text></g></g><g transform="translate(10,-38) scale(1,1)"><path fill="none" stroke="#000000" d="M 504 161 L 509 223" stroke-miterlimit="10"/></g><g transform="translate(10,-38) scale(1,1)"><path fill="none" stroke="#000000" d="M 503.9871860469673 213.2085906901876 L 509 223 L 512.3789771813255 212.5318333406426" stroke-miterlimit="10"/></g><g transform="translate(10,-38) scale(1,1)"><rect fill="#C0C0C0" stroke="none" x="1015" y="55" width="179.1171875" height="162" opacity="0.2"/></g><g transform="translate(10,-38) scale(1,1)"><rect fill="#ffffff" stroke="none" x="1008" y="48" width="179.1171875" height="162"/></g><g transform="translate(10,-38) scale(1,1)"><path fill="none" stroke="#000000" d="M 1008 48 L 1187.1171875 48 L 1187.1171875 210 L 1008 210 L 1008 48 Z Z" stroke-miterlimit="10"/></g><g transform="translate(10,-38) scale(1,1)"><path fill="none" stroke="#000000" d="M 1008 73 L 1187.1171875 73" stroke-miterlimit="10"/></g><g transform="translate(10,-38) scale(1,1)"><path fill="none" stroke="#000000" d="M 1008 201 L 1187.1171875 201" stroke-miterlimit="10"/></g><g transform="translate(10,-38) scale(1,1)"><g><path fill="none" stroke="none"/><text fill="#000000" stroke="none" font-family="Arial" font-size="13px" font-style="normal" font-weight="bold" text-decoration="none" x="1063.55859375" y="67.5">Transaction</text></g></g><g transform="translate(10,-38) scale(1,1)"><g><path fill="none" stroke="none"/><text fill="#000000" stroke="none" font-family="Arial" font-size="13px" font-style="normal" font-weight="normal" text-decoration="none" x="1013" y="90.5">+id_transaction: int</text></g></g><g transform="translate(10,-38) scale(1,1)"><g><path fill="none" stroke="none"/><text fill="#000000" stroke="none" font-family="Arial" font-size="13px" font-style="normal" font-weight="normal" text-decoration="none" x="1013" y="105.5">+transaction_date: Date</text></g></g><g transform="translate(10,-38) scale(1,1)"><g><path fill="none" stroke="none"/><text fill="#000000" stroke="none" font-family="Arial" font-size="13px" font-style="normal" font-weight="normal" text-decoration="none" x="1013" y="120.5">+lastname_crediter: String</text></g></g><g transform="translate(10,-38) scale(1,1)"><g><path fill="none" stroke="none"/><text fill="#000000" stroke="none" font-family="Arial" font-size="13px" font-style="normal" font-weight="normal" text-decoration="none" x="1013" y="135.5">+firstname_crediter: String</text></g></g><g transform="translate(10,-38) scale(1,1)"><g><path fill="none" stroke="none"/><text fill="#000000" stroke="none" font-family="Arial" font-size="13px" font-style="normal" font-weight="normal" text-decoration="none" x="1013" y="150.5">+creditaccount: String</text></g></g><g transform="translate(10,-38) scale(1,1)"><g><path fill="none" stroke="none"/><text fill="#000000" stroke="none" font-family="Arial" font-size="13px" font-style="normal" font-weight="normal" text-decoration="none" x="1013" y="165.5">+debit_account: Integer</text></g></g><g transform="translate(10,-38) scale(1,1)"><g><path fill="none" stroke="none"/><text fill="#000000" stroke="none" font-family="Arial" font-size="13px" font-style="normal" font-weight="normal" text-decoration="none" x="1013" y="180.5">+amount_transaction: Float</text></g></g><g transform="translate(10,-38) scale(1,1)"><g><path fill="none" stroke="none"/><text fill="#000000" stroke="none" font-family="Arial" font-size="13px" font-style="normal" font-weight="normal" text-decoration="none" x="1013" y="195.5">+impacted_bank: String</text></g></g><g transform="translate(10,-38) scale(1,1)"><path fill="none" stroke="#000000" d="M 863 137 L 1007 132" stroke-miterlimit="10"/></g><g transform="translate(10,-38) scale(1,1)"><path fill="none" stroke="#000000" d="M 996.9895216157242 136.5596406128058 L 1007 132 L 996.6973700544687 128.14567564864583" stroke-miterlimit="10"/></g><g transform="translate(10,-38) scale(1,1)"><path fill="#ffffff" stroke="none" d="M 149.085669921875 101.59 C 149.085669921875 94.636734368 154.62659323707499 89 161.461669921875 89 C 168.29674660667501 89 173.837669921875 94.636734368 173.837669921875 101.59 C 173.837669921875 108.543265632 168.29674660667501 114.18 161.461669921875 114.18 C 154.62659323707499 114.18 149.085669921875 108.543265632 149.085669921875 101.59 Z"/></g><g transform="translate(10,-38) scale(1,1)"><path fill="none" stroke="#000000" d="M 149.085669921875 101.59 C 149.085669921875 94.636734368 154.62659323707499 89 161.461669921875 89 C 168.29674660667501 89 173.837669921875 94.636734368 173.837669921875 101.59 C 173.837669921875 108.543265632 168.29674660667501 114.18 161.461669921875 114.18 C 154.62659323707499 114.18 149.085669921875 108.543265632 149.085669921875 101.59 Z" stroke-miterlimit="10"/></g><g transform="translate(10,-38) scale(1,1)"><path fill="none" stroke="#000000" d="M 161.461669921875 114.18 L 161.461669921875 138.82" stroke-miterlimit="10"/></g><g transform="translate(10,-38) scale(1,1)"><path fill="none" stroke="#000000" d="M 148.35766992187502 123.42 L 174.56566992187498 123.42" stroke-miterlimit="10"/></g><g transform="translate(10,-38) scale(1,1)"><path fill="none" stroke="#000000" d="M 161.461669921875 138.82 L 143.261669921875 164" stroke-miterlimit="10"/></g><g transform="translate(10,-38) scale(1,1)"><path fill="none" stroke="#000000" d="M 161.461669921875 138.82 L 179.661669921875 164" stroke-miterlimit="10"/></g><g transform="translate(10,-38) scale(1,1)"><path fill="none" stroke="#000000" d="M 0 205 L 322.92333984375 205" stroke-miterlimit="10"/></g><g transform="translate(10,-38) scale(1,1)"><g><path fill="none" stroke="none"/><text fill="#000000" stroke="none" font-family="Arial" font-size="13px" font-style="normal" font-weight="bold" text-decoration="none" x="70.961669921875" y="184.5">Scheduler "Acteur non humain"</text></g></g><g transform="translate(10,-38) scale(1,1)"><g><path fill="none" stroke="none"/><text fill="#000000" stroke="none" font-family="Arial" font-size="13px" font-style="normal" font-weight="normal" text-decoration="none" x="15.461669921875" y="199.5">(from DiagrammeConceptuelClassesParticipantes)</text></g></g><g transform="translate(10,-38) scale(1,1)"><path fill="none" stroke="#000000" d="M 324 141 L 418 136" stroke-miterlimit="10"/></g><g transform="translate(10,-38) scale(1,1)"><path fill="none" stroke="#000000" d="M 408.07526594067383 140.74338000287256 L 418 136 L 407.6280770794015 132.33622941095322" stroke-miterlimit="10"/></g></g></svg>