<svg version="1.1" xmlns="http://www.w3.org/2000/svg" xmlns:xlink="http://www.w3.org/1999/xlink" width="1295.1171875" height="252"><defs/><g><g transform="translate(10,-54) scale(1,1)"><rect fill="#C0C0C0" stroke="none" x="426" y="110" width="166.4853515625" height="72" opacity="0.2"/></g><g transform="translate(10,-54) scale(1,1)"><rect fill="#ffffff" stroke="none" x="419" y="103" width="166.4853515625" height="72"/></g><g transform="translate(10,-54) scale(1,1)"><path fill="none" stroke="#000000" d="M 419 103 L 585.4853515625 103 L 585.4853515625 175 L 419 175 L 419 103 Z Z" stroke-miterlimit="10"/></g><g transform="translate(10,-54) scale(1,1)"><path fill="none" stroke="#000000" d="M 419 128 L 585.4853515625 128" stroke-miterlimit="10"/></g><g transform="translate(10,-54) scale(1,1)"><path fill="none" stroke="#000000" d="M 419 138 L 585.4853515625 138" stroke-miterlimit="10"/></g><g transform="translate(10,-54) scale(1,1)"><g><path fill="none" stroke="none"/><text fill="#000000" stroke="none" font-family="Arial" font-size="13px" font-style="normal" font-weight="bold" text-decoration="none" x="441.24267578125" y="122.5">MaintransactionBank</text></g></g><g transform="translate(10,-54) scale(1,1)"><g><path fill="none" stroke="none"/><text fill="#000000" stroke="none" font-family="Arial" font-size="13px" font-style="normal" font-weight="normal" text-decoration="none" x="424" y="155.5">+SendTransaction()</text></g></g><g transform="translate(10,-54) scale(1,1)"><g><path fill="none" stroke="none"/><text fill="#000000" stroke="none" font-family="Arial" font-size="13px" font-style="normal" font-weight="normal" text-decoration="none" x="424" y="170.5">+recoveryTransaction()</text></g></g><g transform="translate(10,-54) scale(1,1)"><rect fill="#C0C0C0" stroke="none" x="695" y="79" width="348.07275390625" height="87" opacity="0.2"/></g><g transform="translate(10,-54) scale(1,1)"><rect fill="#ffffff" stroke="none" x="688" y="72" width="348.07275390625" height="87"/></g><g transform="translate(10,-54) scale(1,1)"><path fill="none" stroke="#000000" d="M 688 72 L 1036.07275390625 72 L 1036.07275390625 159 L 688 159 L 688 72 Z Z" stroke-miterlimit="10"/></g><g transform="translate(10,-54) scale(1,1)"><path fill="none" stroke="#000000" d="M 688 97 L 1036.07275390625 97" stroke-miterlimit="10"/></g><g transform="translate(10,-54) scale(1,1)"><path fill="none" stroke="#000000" d="M 688 107 L 1036.07275390625 107" stroke-miterlimit="10"/></g><g transform="translate(10,-54) scale(1,1)"><g><path fill="none" stroke="none"/><text fill="#000000" stroke="none" font-family="Arial" font-size="13px" font-style="normal" font-weight="bold" text-decoration="none" x="844.536376953125" y="91.5">Model</text></g></g><g transform="translate(10,-54) scale(1,1)"><g><path fill="none" stroke="none"/><text fill="#000000" stroke="none" font-family="Arial" font-size="13px" font-style="normal" font-weight="normal" text-decoration="none" x="693" y="124.5">+GetDBTransaction()</text></g></g><g transform="translate(10,-54) scale(1,1)"><g><path fill="none" stroke="none"/><text fill="#000000" stroke="none" font-family="Arial" font-size="13px" font-style="normal" font-weight="normal" text-decoration="none" x="693" y="139.5">+postMessage()</text></g></g><g transform="translate(10,-54) scale(1,1)"><g><path fill="none" stroke="none"/><text fill="#000000" stroke="none" font-family="Arial" font-size="13px" font-style="normal" font-weight="normal" text-decoration="none" x="693" y="154.5">+InputTransaction(List&lt;Transaction&gt; tabTransaction)()</text></g></g><g transform="translate(10,-54) scale(1,1)"><rect fill="#C0C0C0" stroke="none" x="719" y="231" width="292.45458984375" height="72" opacity="0.2"/></g><g transform="translate(10,-54) scale(1,1)"><rect fill="#ffffff" stroke="none" x="712" y="224" width="292.45458984375" height="72"/></g><g transform="translate(10,-54) scale(1,1)"><path fill="none" stroke="#000000" d="M 712 224 L 1004.45458984375 224 L 1004.45458984375 296 L 712 296 L 712 224 Z Z" stroke-miterlimit="10"/></g><g transform="translate(10,-54) scale(1,1)"><path fill="none" stroke="#000000" d="M 712 249 L 1004.45458984375 249" stroke-miterlimit="10"/></g><g transform="translate(10,-54) scale(1,1)"><path fill="none" stroke="#000000" d="M 712 259 L 1004.45458984375 259" stroke-miterlimit="10"/></g><g transform="translate(10,-54) scale(1,1)"><g><path fill="none" stroke="none"/><text fill="#000000" stroke="none" font-family="Arial" font-size="13px" font-style="normal" font-weight="bold" text-decoration="none" x="836.227294921875" y="243.5">Service</text></g></g><g transform="translate(10,-54) scale(1,1)"><g><path fill="none" stroke="none"/><text fill="#000000" stroke="none" font-family="Arial" font-size="13px" font-style="normal" font-weight="normal" text-decoration="none" x="717" y="276.5">+SetXmlDocument(List TabTransaction)</text></g></g><g transform="translate(10,-54) scale(1,1)"><g><path fill="none" stroke="none"/><text fill="#000000" stroke="none" font-family="Arial" font-size="13px" font-style="normal" font-weight="normal" text-decoration="none" x="717" y="291.5">+List &lt;Transaction&gt; GetXmlTransaction()</text></g></g><g transform="translate(10,-54) scale(1,1)"><path fill="none" stroke="#000000" d="M 586 133 L 687 127" stroke-miterlimit="10"/></g><g transform="translate(10,-54) scale(1,1)"><path fill="none" stroke="#000000" d="M 677.1048404610221 131.80477030649502 L 687 127 L 676.6055799232996 123.40055125483241" stroke-miterlimit="10"/></g><g transform="translate(10,-54) scale(1,1)"><path fill="none" stroke="#000000" d="M 586 168 L 749 223" stroke-miterlimit="10"/></g><g transform="translate(10,-54) scale(1,1)"><path fill="none" stroke="#000000" d="M 738.0248810396854 223.73943478883766 L 749 223 L 740.7165596054001 215.76227831226484" stroke-miterlimit="10"/></g><g transform="translate(10,-54) scale(1,1)"><rect fill="#C0C0C0" stroke="none" x="471" y="231" width="95.00439453125" height="57" opacity="0.2"/></g><g transform="translate(10,-54) scale(1,1)"><rect fill="#ffffff" stroke="none" x="464" y="224" width="95.00439453125" height="57"/></g><g transform="translate(10,-54) scale(1,1)"><path fill="none" stroke="#000000" d="M 464 224 L 559.00439453125 224 L 559.00439453125 281 L 464 281 L 464 224 Z Z" stroke-miterlimit="10"/></g><g transform="translate(10,-54) scale(1,1)"><path fill="none" stroke="#000000" d="M 464 249 L 559.00439453125 249" stroke-miterlimit="10"/></g><g transform="translate(10,-54) scale(1,1)"><path fill="none" stroke="#000000" d="M 464 272 L 559.00439453125 272" stroke-miterlimit="10"/></g><g transform="translate(10,-54) scale(1,1)"><g><path fill="none" stroke="none"/><text fill="#000000" stroke="none" font-family="Arial" font-size="13px" font-style="normal" font-weight="bold" text-decoration="none" x="494.002197265625" y="243.5">Errors</text></g></g><g transform="translate(10,-54) scale(1,1)"><g><path fill="none" stroke="none"/><text fill="#000000" stroke="none" font-family="Arial" font-size="13px" font-style="normal" font-weight="normal" text-decoration="none" x="469" y="266.5">+IO Exception</text></g></g><g transform="translate(10,-54) scale(1,1)"><path fill="none" stroke="#000000" d="M 505 176 L 509 223" stroke-miterlimit="10"/></g><g transform="translate(10,-54) scale(1,1)"><path fill="none" stroke="#000000" d="M 503.94385179226543 213.23089741575907 L 509 223 L 512.3325619990504 212.5169646322029" stroke-miterlimit="10"/></g><g transform="translate(10,-54) scale(1,1)"><rect fill="#C0C0C0" stroke="none" x="1103" y="71" width="179.1171875" height="162" opacity="0.2"/></g><g transform="translate(10,-54) scale(1,1)"><rect fill="#ffffff" stroke="none" x="1096" y="64" width="179.1171875" height="162"/></g><g transform="translate(10,-54) scale(1,1)"><path fill="none" stroke="#000000" d="M 1096 64 L 1275.1171875 64 L 1275.1171875 226 L 1096 226 L 1096 64 Z Z" stroke-miterlimit="10"/></g><g transform="translate(10,-54) scale(1,1)"><path fill="none" stroke="#000000" d="M 1096 89 L 1275.1171875 89" stroke-miterlimit="10"/></g><g transform="translate(10,-54) scale(1,1)"><path fill="none" stroke="#000000" d="M 1096 217 L 1275.1171875 217" stroke-miterlimit="10"/></g><g transform="translate(10,-54) scale(1,1)"><g><path fill="none" stroke="none"/><text fill="#000000" stroke="none" font-family="Arial" font-size="13px" font-style="normal" font-weight="bold" text-decoration="none" x="1151.55859375" y="83.5">Transaction</text></g></g><g transform="translate(10,-54) scale(1,1)"><g><path fill="none" stroke="none"/><text fill="#000000" stroke="none" font-family="Arial" font-size="13px" font-style="normal" font-weight="normal" text-decoration="none" x="1101" y="106.5">+id_transaction: int</text></g></g><g transform="translate(10,-54) scale(1,1)"><g><path fill="none" stroke="none"/><text fill="#000000" stroke="none" font-family="Arial" font-size="13px" font-style="normal" font-weight="normal" text-decoration="none" x="1101" y="121.5">+transaction_date: Date</text></g></g><g transform="translate(10,-54) scale(1,1)"><g><path fill="none" stroke="none"/><text fill="#000000" stroke="none" font-family="Arial" font-size="13px" font-style="normal" font-weight="normal" text-decoration="none" x="1101" y="136.5">+lastname_crediter: String</text></g></g><g transform="translate(10,-54) scale(1,1)"><g><path fill="none" stroke="none"/><text fill="#000000" stroke="none" font-family="Arial" font-size="13px" font-style="normal" font-weight="normal" text-decoration="none" x="1101" y="151.5">+firstname_crediter: String</text></g></g><g transform="translate(10,-54) scale(1,1)"><g><path fill="none" stroke="none"/><text fill="#000000" stroke="none" font-family="Arial" font-size="13px" font-style="normal" font-weight="normal" text-decoration="none" x="1101" y="166.5">+creditaccount: String</text></g></g><g transform="translate(10,-54) scale(1,1)"><g><path fill="none" stroke="none"/><text fill="#000000" stroke="none" font-family="Arial" font-size="13px" font-style="normal" font-weight="normal" text-decoration="none" x="1101" y="181.5">+debit_account: Integer</text></g></g><g transform="translate(10,-54) scale(1,1)"><g><path fill="none" stroke="none"/><text fill="#000000" stroke="none" font-family="Arial" font-size="13px" font-style="normal" font-weight="normal" text-decoration="none" x="1101" y="196.5">+amount_transaction: Float</text></g></g><g transform="translate(10,-54) scale(1,1)"><g><path fill="none" stroke="none"/><text fill="#000000" stroke="none" font-family="Arial" font-size="13px" font-style="normal" font-weight="normal" text-decoration="none" x="1101" y="211.5">+impacted_bank: String</text></g></g><g transform="translate(10,-54) scale(1,1)"><path fill="none" stroke="#000000" d="M 1037 131 L 1095 137" stroke-miterlimit="10"/></g><g transform="translate(10,-54) scale(1,1)"><path fill="none" stroke="#000000" d="M 1084.4581149122205 140.14144215226872 L 1095 137 L 1085.3244265193673 131.7670966165162" stroke-miterlimit="10"/></g><g transform="translate(10,-54) scale(1,1)"><path fill="#ffffff" stroke="none" d="M 149.085669921875 101.59 C 149.085669921875 94.636734368 154.62659323707499 89 161.461669921875 89 C 168.29674660667501 89 173.837669921875 94.636734368 173.837669921875 101.59 C 173.837669921875 108.543265632 168.29674660667501 114.18 161.461669921875 114.18 C 154.62659323707499 114.18 149.085669921875 108.543265632 149.085669921875 101.59 Z"/></g><g transform="translate(10,-54) scale(1,1)"><path fill="none" stroke="#000000" d="M 149.085669921875 101.59 C 149.085669921875 94.636734368 154.62659323707499 89 161.461669921875 89 C 168.29674660667501 89 173.837669921875 94.636734368 173.837669921875 101.59 C 173.837669921875 108.543265632 168.29674660667501 114.18 161.461669921875 114.18 C 154.62659323707499 114.18 149.085669921875 108.543265632 149.085669921875 101.59 Z" stroke-miterlimit="10"/></g><g transform="translate(10,-54) scale(1,1)"><path fill="none" stroke="#000000" d="M 161.461669921875 114.18 L 161.461669921875 138.82" stroke-miterlimit="10"/></g><g transform="translate(10,-54) scale(1,1)"><path fill="none" stroke="#000000" d="M 148.35766992187502 123.42 L 174.56566992187498 123.42" stroke-miterlimit="10"/></g><g transform="translate(10,-54) scale(1,1)"><path fill="none" stroke="#000000" d="M 161.461669921875 138.82 L 143.261669921875 164" stroke-miterlimit="10"/></g><g transform="translate(10,-54) scale(1,1)"><path fill="none" stroke="#000000" d="M 161.461669921875 138.82 L 179.661669921875 164" stroke-miterlimit="10"/></g><g transform="translate(10,-54) scale(1,1)"><path fill="none" stroke="#000000" d="M 0 205 L 322.92333984375 205" stroke-miterlimit="10"/></g><g transform="translate(10,-54) scale(1,1)"><g><path fill="none" stroke="none"/><text fill="#000000" stroke="none" font-family="Arial" font-size="13px" font-style="normal" font-weight="bold" text-decoration="none" x="70.961669921875" y="184.5">Scheduler "Acteur non humain"</text></g></g><g transform="translate(10,-54) scale(1,1)"><g><path fill="none" stroke="none"/><text fill="#000000" stroke="none" font-family="Arial" font-size="13px" font-style="normal" font-weight="normal" text-decoration="none" x="15.461669921875" y="199.5">(from DiagrammeConceptuelClassesParticipantes)</text></g></g><g transform="translate(10,-54) scale(1,1)"><path fill="none" stroke="#000000" d="M 324 145 L 418 142" stroke-miterlimit="10"/></g><g transform="translate(10,-54) scale(1,1)"><path fill="none" stroke="#000000" d="M 407.97677478487157 146.53155120094797 L 418 142 L 407.7082188975383 138.11680006450703" stroke-miterlimit="10"/></g></g></svg>