<svg version="1.1" xmlns="http://www.w3.org/2000/svg" xmlns:xlink="http://www.w3.org/1999/xlink" width="1124" height="487"><defs/><g><g transform="translate(-54,2) scale(1,1)"><path fill="none" stroke="#000000" d="M 64 8 L 1168 8 L 1168 475 L 64 475 L 64 8" stroke-miterlimit="10"/></g><g transform="translate(-54,2) scale(1,1)"><path fill="#ffffff" stroke="none" d="M 64 8 L 64 30 L 243 30 L 254 19 L 254 8 L 64 8"/></g><g transform="translate(-54,2) scale(1,1)"><path fill="none" stroke="#000000" d="M 64 8 L 64 30 L 243 30 L 254 19 L 254 8 L 64 8 L 64 8" stroke-miterlimit="10"/></g><g transform="translate(-54,2) scale(1,1)"><g><path fill="none" stroke="none"/><text fill="#000000" stroke="none" font-family="Arial" font-size="13px" font-style="normal" font-weight="normal" text-decoration="none" x="135" y="25.5">SequenceSystem</text></g></g><g transform="translate(-54,2) scale(1,1)"><g><path fill="none" stroke="none"/><text fill="#000000" stroke="none" font-family="Arial" font-size="13px" font-style="normal" font-weight="bold" text-decoration="none" x="69" y="25.5">interaction</text></g></g><g transform="translate(-54,2) scale(1,1)"><rect fill="#C0C0C0" stroke="none" x="511" y="47" width="120" height="39" opacity="0.2"/></g><g transform="translate(-54,2) scale(1,1)"><rect fill="#ffffff" stroke="none" x="504" y="40" width="120" height="39"/></g><g transform="translate(-54,2) scale(1,1)"><path fill="none" stroke="#000000" d="M 504 40 L 624 40 L 624 79 L 504 79 L 504 40 Z Z" stroke-miterlimit="10"/></g><g transform="translate(-54,2) scale(1,1)"><g><path fill="none" stroke="none"/><text fill="#000000" stroke="none" font-family="Arial" font-size="13px" font-style="normal" font-weight="bold" text-decoration="none" x="541.5" y="59.5">System</text></g></g><g transform="translate(-54,2) scale(1,1)"><path fill="none" stroke="#000000" d="M 565.5 80 L 565.5 360" stroke-miterlimit="10" stroke-dasharray="3"/></g><g transform="translate(-54,2) scale(1,1)"><rect fill="#C0C0C0" stroke="none" x="775" y="47" width="150.6884765625" height="39" opacity="0.2"/></g><g transform="translate(-54,2) scale(1,1)"><rect fill="#ffffff" stroke="none" x="768" y="40" width="150.6884765625" height="39"/></g><g transform="translate(-54,2) scale(1,1)"><path fill="none" stroke="#000000" d="M 768 40 L 918.6884765625 40 L 918.6884765625 79 L 768 79 L 768 40 Z Z" stroke-miterlimit="10"/></g><g transform="translate(-54,2) scale(1,1)"><g><path fill="none" stroke="none"/><text fill="#000000" stroke="none" font-family="Arial" font-size="13px" font-style="normal" font-weight="bold" text-decoration="none" x="787.84423828125" y="59.5">data-access-server</text></g></g><g transform="translate(-54,2) scale(1,1)"><path fill="none" stroke="#000000" d="M 844.5 80 L 844.5 352" stroke-miterlimit="10" stroke-dasharray="3"/></g><g transform="translate(-54,2) scale(1,1)"><rect fill="#C0C0C0" stroke="none" x="167" y="47" width="94" height="39" opacity="0.2"/></g><g transform="translate(-54,2) scale(1,1)"><rect fill="#ffffff" stroke="none" x="160" y="40" width="94" height="39"/></g><g transform="translate(-54,2) scale(1,1)"><path fill="none" stroke="#000000" d="M 160 40 L 254 40 L 254 79 L 160 79 L 160 40 Z Z" stroke-miterlimit="10"/></g><g transform="translate(-54,2) scale(1,1)"><g><path fill="none" stroke="none"/><text fill="#000000" stroke="none" font-family="Arial" font-size="13px" font-style="normal" font-weight="bold" text-decoration="none" x="173" y="59.5">"Scheduler"</text></g></g><g transform="translate(-54,2) scale(1,1)"><path fill="none" stroke="#000000" d="M 208.5 80 L 208.5 352" stroke-miterlimit="10" stroke-dasharray="3"/></g><g transform="translate(-54,2) scale(1,1)"><rect fill="#C0C0C0" stroke="none" x="1039" y="47" width="79" height="39" opacity="0.2"/></g><g transform="translate(-54,2) scale(1,1)"><rect fill="#ffffff" stroke="none" x="1032" y="40" width="79" height="39"/></g><g transform="translate(-54,2) scale(1,1)"><path fill="none" stroke="#000000" d="M 1032 40 L 1111 40 L 1111 79 L 1032 79 L 1032 40 Z Z" stroke-miterlimit="10"/></g><g transform="translate(-54,2) scale(1,1)"><g><path fill="none" stroke="none"/><text fill="#000000" stroke="none" font-family="Arial" font-size="13px" font-style="normal" font-weight="bold" text-decoration="none" x="1043" y="59.5">si-externe</text></g></g><g transform="translate(-54,2) scale(1,1)"><path fill="none" stroke="#000000" d="M 1072.5 80 L 1072.5 368" stroke-miterlimit="10" stroke-dasharray="3"/></g><g transform="translate(-54,2) scale(1,1)"><path fill="none" stroke="#000000" d="M 208 105 L 558 105" stroke-miterlimit="10"/></g><g transform="translate(-54,2) scale(1,1)"><path fill="#000000" stroke="none" d="M 547.8373251423759 109.20951775601598 L 558 105 L 547.8373251423758 100.79048224398402"/></g><g transform="translate(-54,2) scale(1,1)"><path fill="none" stroke="#000000" d="M 547.8373251423759 109.20951775601598 L 558 105 L 547.8373251423758 100.79048224398402 L 547.8373251423759 109.20951775601598" stroke-miterlimit="10"/></g><g transform="translate(-54,2) scale(1,1)"><g><path fill="none" stroke="none"/><text fill="#000000" stroke="none" font-family="Arial" font-size="13px" font-style="normal" font-weight="normal" text-decoration="none" x="359.5" y="101.5">1 : Start</text></g></g><g transform="translate(-54,2) scale(1,1)"><rect fill="#ffffff" stroke="none" x="558" y="105" width="13" height="28"/></g><g transform="translate(-54,2) scale(1,1)"><path fill="none" stroke="#000000" d="M 558 105 L 571 105 L 571 133 L 558 133 L 558 105 Z Z" stroke-miterlimit="10"/></g><g transform="translate(-54,2) scale(1,1)"><path fill="none" stroke="#000000" d="M 565 136 L 837 136" stroke-miterlimit="10"/></g><g transform="translate(-54,2) scale(1,1)"><path fill="#000000" stroke="none" d="M 826.8373251423759 140.209517756016 L 837 136 L 826.8373251423758 131.790482243984"/></g><g transform="translate(-54,2) scale(1,1)"><path fill="none" stroke="#000000" d="M 826.8373251423759 140.209517756016 L 837 136 L 826.8373251423758 131.790482243984 L 826.8373251423759 140.209517756016" stroke-miterlimit="10"/></g><g transform="translate(-54,2) scale(1,1)"><g><path fill="none" stroke="none"/><text fill="#000000" stroke="none" font-family="Arial" font-size="13px" font-style="normal" font-weight="normal" text-decoration="none" x="636.5" y="132.5">2 : GET /Transactions</text></g></g><g transform="translate(-54,2) scale(1,1)"><rect fill="#ffffff" stroke="none" x="837" y="136" width="13" height="28"/></g><g transform="translate(-54,2) scale(1,1)"><path fill="none" stroke="#000000" d="M 837 136 L 850 136 L 850 164 L 837 164 L 837 136 Z Z" stroke-miterlimit="10"/></g><g transform="translate(-54,2) scale(1,1)"><path fill="none" stroke="#000000" d="M 844 168 L 565 168" stroke-miterlimit="10" stroke-dasharray="3"/></g><g transform="translate(-54,2) scale(1,1)"><path fill="none" stroke="#000000" d="M 575.1626748576241 163.790482243984 L 565 168 L 575.1626748576241 172.209517756016" stroke-miterlimit="10"/></g><g transform="translate(-54,2) scale(1,1)"><g><path fill="none" stroke="none"/><text fill="#000000" stroke="none" font-family="Arial" font-size="13px" font-style="normal" font-weight="normal" text-decoration="none" x="660" y="184.5">3 : {Payload-1}</text></g></g><g transform="translate(-54,2) scale(1,1)"><path fill="none" stroke="#000000" d="M 565 224 L 1065 224" stroke-miterlimit="10"/></g><g transform="translate(-54,2) scale(1,1)"><path fill="#000000" stroke="none" d="M 1054.837325142376 228.209517756016 L 1065 224 L 1054.837325142376 219.790482243984"/></g><g transform="translate(-54,2) scale(1,1)"><path fill="none" stroke="#000000" d="M 1054.837325142376 228.209517756016 L 1065 224 L 1054.837325142376 219.790482243984 L 1054.837325142376 228.209517756016" stroke-miterlimit="10"/></g><g transform="translate(-54,2) scale(1,1)"><g><path fill="none" stroke="none"/><text fill="#000000" stroke="none" font-family="Arial" font-size="13px" font-style="normal" font-weight="normal" text-decoration="none" x="702.5" y="219.5">4 : POST /Transactions/Send</text></g></g><g transform="translate(-54,2) scale(1,1)"><rect fill="#ffffff" stroke="none" x="1065" y="224" width="13" height="48"/></g><g transform="translate(-54,2) scale(1,1)"><path fill="none" stroke="#000000" d="M 1065 224 L 1078 224 L 1078 272 L 1065 272 L 1065 224 Z Z" stroke-miterlimit="10"/></g><g transform="translate(-54,2) scale(1,1)"><path fill="none" stroke="#000000" d="M 1072 272 L 565 272" stroke-miterlimit="10" stroke-dasharray="3"/></g><g transform="translate(-54,2) scale(1,1)"><path fill="none" stroke="#000000" d="M 575.1626748576241 267.790482243984 L 565 272 L 575.1626748576241 276.209517756016" stroke-miterlimit="10"/></g><g transform="translate(-54,2) scale(1,1)"><g><path fill="none" stroke="none"/><text fill="#000000" stroke="none" font-family="Arial" font-size="13px" font-style="normal" font-weight="normal" text-decoration="none" x="774.5" y="288.5">5 : {Payload-2}</text></g></g><g transform="translate(-54,2) scale(1,1)"><path fill="none" stroke="#000000" d="M 565 312 L 208 312" stroke-miterlimit="10" stroke-dasharray="3"/></g><g transform="translate(-54,2) scale(1,1)"><path fill="none" stroke="#000000" d="M 218.16267485762415 307.790482243984 L 208 312 L 218.16267485762415 316.209517756016" stroke-miterlimit="10"/></g><g transform="translate(-54,2) scale(1,1)"><g><path fill="none" stroke="none"/><text fill="#000000" stroke="none" font-family="Arial" font-size="13px" font-style="normal" font-weight="normal" text-decoration="none" x="344.77587890625" y="328.5">6 : end: exit 0</text></g></g></g></svg>