<svg version="1.1" xmlns="http://www.w3.org/2000/svg" xmlns:xlink="http://www.w3.org/1999/xlink" width="1396" height="628"><defs/><g><g transform="translate(-62,10) scale(1,1)"><path fill="none" stroke="#000000" d="M 72 0 L 1448 0 L 1448 608 L 72 608 L 72 0" stroke-miterlimit="10"/></g><g transform="translate(-62,10) scale(1,1)"><path fill="#ffffff" stroke="none" d="M 72 0 L 72 22 L 251 22 L 262 11 L 262 0 L 72 0"/></g><g transform="translate(-62,10) scale(1,1)"><path fill="none" stroke="#000000" d="M 72 0 L 72 22 L 251 22 L 262 11 L 262 0 L 72 0 L 72 0" stroke-miterlimit="10"/></g><g transform="translate(-62,10) scale(1,1)"><g><path fill="none" stroke="none"/><text fill="#000000" stroke="none" font-family="Arial" font-size="13px" font-style="normal" font-weight="normal" text-decoration="none" x="143" y="17.5">SequenceSystem</text></g></g><g transform="translate(-62,10) scale(1,1)"><g><path fill="none" stroke="none"/><text fill="#000000" stroke="none" font-family="Arial" font-size="13px" font-style="normal" font-weight="bold" text-decoration="none" x="77" y="17.5">interaction</text></g></g><g transform="translate(-62,10) scale(1,1)"><rect fill="#C0C0C0" stroke="none" x="519" y="47" width="120" height="39" opacity="0.2"/></g><g transform="translate(-62,10) scale(1,1)"><rect fill="#ffffff" stroke="none" x="512" y="40" width="120" height="39"/></g><g transform="translate(-62,10) scale(1,1)"><path fill="none" stroke="#000000" d="M 512 40 L 632 40 L 632 79 L 512 79 L 512 40 Z Z" stroke-miterlimit="10"/></g><g transform="translate(-62,10) scale(1,1)"><g><path fill="none" stroke="none"/><text fill="#000000" stroke="none" font-family="Arial" font-size="13px" font-style="normal" font-weight="bold" text-decoration="none" x="549.5" y="59.5">System</text></g></g><g transform="translate(-62,10) scale(1,1)"><path fill="none" stroke="#000000" d="M 573.5 80 L 573.5 544" stroke-miterlimit="10" stroke-dasharray="3"/></g><g transform="translate(-62,10) scale(1,1)"><rect fill="#C0C0C0" stroke="none" x="799" y="47" width="150.6884765625" height="39" opacity="0.2"/></g><g transform="translate(-62,10) scale(1,1)"><rect fill="#ffffff" stroke="none" x="792" y="40" width="150.6884765625" height="39"/></g><g transform="translate(-62,10) scale(1,1)"><path fill="none" stroke="#000000" d="M 792 40 L 942.6884765625 40 L 942.6884765625 79 L 792 79 L 792 40 Z Z" stroke-miterlimit="10"/></g><g transform="translate(-62,10) scale(1,1)"><g><path fill="none" stroke="none"/><text fill="#000000" stroke="none" font-family="Arial" font-size="13px" font-style="normal" font-weight="bold" text-decoration="none" x="811.84423828125" y="59.5">data-access-server</text></g></g><g transform="translate(-62,10) scale(1,1)"><path fill="none" stroke="#000000" d="M 868.5 80 L 868.5 536" stroke-miterlimit="10" stroke-dasharray="3"/></g><g transform="translate(-62,10) scale(1,1)"><rect fill="#C0C0C0" stroke="none" x="167" y="47" width="96.1494140625" height="39" opacity="0.2"/></g><g transform="translate(-62,10) scale(1,1)"><rect fill="#ffffff" stroke="none" x="160" y="40" width="96.1494140625" height="39"/></g><g transform="translate(-62,10) scale(1,1)"><path fill="none" stroke="#000000" d="M 160 40 L 256.1494140625 40 L 256.1494140625 79 L 160 79 L 160 40 Z Z" stroke-miterlimit="10"/></g><g transform="translate(-62,10) scale(1,1)"><g><path fill="none" stroke="none"/><text fill="#000000" stroke="none" font-family="Arial" font-size="13px" font-style="normal" font-weight="bold" text-decoration="none" x="174.07470703125" y="59.5">"Scheduler"</text></g></g><g transform="translate(-62,10) scale(1,1)"><path fill="none" stroke="#000000" d="M 209.5 80 L 209.5 536" stroke-miterlimit="10" stroke-dasharray="3"/></g><g transform="translate(-62,10) scale(1,1)"><rect fill="#C0C0C0" stroke="none" x="1095" y="47" width="79" height="39" opacity="0.2"/></g><g transform="translate(-62,10) scale(1,1)"><rect fill="#ffffff" stroke="none" x="1088" y="40" width="79" height="39"/></g><g transform="translate(-62,10) scale(1,1)"><path fill="none" stroke="#000000" d="M 1088 40 L 1167 40 L 1167 79 L 1088 79 L 1088 40 Z Z" stroke-miterlimit="10"/></g><g transform="translate(-62,10) scale(1,1)"><g><path fill="none" stroke="none"/><text fill="#000000" stroke="none" font-family="Arial" font-size="13px" font-style="normal" font-weight="bold" text-decoration="none" x="1099" y="59.5">si-externe</text></g></g><g transform="translate(-62,10) scale(1,1)"><path fill="none" stroke="#000000" d="M 1128.5 80 L 1128.5 536" stroke-miterlimit="10" stroke-dasharray="3"/></g><g transform="translate(-62,10) scale(1,1)"><path fill="none" stroke="#000000" d="M 209 105 L 566 105" stroke-miterlimit="10"/></g><g transform="translate(-62,10) scale(1,1)"><path fill="#000000" stroke="none" d="M 555.8373251423759 109.20951775601598 L 566 105 L 555.8373251423758 100.79048224398402"/></g><g transform="translate(-62,10) scale(1,1)"><path fill="none" stroke="#000000" d="M 555.8373251423759 109.20951775601598 L 566 105 L 555.8373251423758 100.79048224398402 L 555.8373251423759 109.20951775601598" stroke-miterlimit="10"/></g><g transform="translate(-62,10) scale(1,1)"><g><path fill="none" stroke="none"/><text fill="#000000" stroke="none" font-family="Arial" font-size="13px" font-style="normal" font-weight="normal" text-decoration="none" x="363.5" y="101.5">1 : Start</text></g></g><g transform="translate(-62,10) scale(1,1)"><rect fill="#ffffff" stroke="none" x="566" y="105" width="13" height="28"/></g><g transform="translate(-62,10) scale(1,1)"><path fill="none" stroke="#000000" d="M 566 105 L 579 105 L 579 133 L 566 133 L 566 105 Z Z" stroke-miterlimit="10"/></g><g transform="translate(-62,10) scale(1,1)"><path fill="none" stroke="#000000" d="M 573 136 L 861 136" stroke-miterlimit="10"/></g><g transform="translate(-62,10) scale(1,1)"><path fill="#000000" stroke="none" d="M 850.8373251423759 140.209517756016 L 861 136 L 850.8373251423758 131.790482243984"/></g><g transform="translate(-62,10) scale(1,1)"><path fill="none" stroke="#000000" d="M 850.8373251423759 140.209517756016 L 861 136 L 850.8373251423758 131.790482243984 L 850.8373251423759 140.209517756016" stroke-miterlimit="10"/></g><g transform="translate(-62,10) scale(1,1)"><g><path fill="none" stroke="none"/><text fill="#000000" stroke="none" font-family="Arial" font-size="13px" font-style="normal" font-weight="normal" text-decoration="none" x="652.5" y="132.5">2 : GET /Transactions</text></g></g><g transform="translate(-62,10) scale(1,1)"><rect fill="#ffffff" stroke="none" x="861" y="136" width="13" height="28"/></g><g transform="translate(-62,10) scale(1,1)"><path fill="none" stroke="#000000" d="M 861 136 L 874 136 L 874 164 L 861 164 L 861 136 Z Z" stroke-miterlimit="10"/></g><g transform="translate(-62,10) scale(1,1)"><path fill="none" stroke="#000000" d="M 868 168 L 573 168" stroke-miterlimit="10" stroke-dasharray="3"/></g><g transform="translate(-62,10) scale(1,1)"><path fill="none" stroke="#000000" d="M 583.1626748576241 163.790482243984 L 573 168 L 583.1626748576241 172.209517756016" stroke-miterlimit="10"/></g><g transform="translate(-62,10) scale(1,1)"><g><path fill="none" stroke="none"/><text fill="#000000" stroke="none" font-family="Arial" font-size="13px" font-style="normal" font-weight="normal" text-decoration="none" x="676" y="184.5">3 : {Payload-1}</text></g></g><g transform="translate(-62,10) scale(1,1)"><path fill="none" stroke="#000000" d="M 573 217 L 1121 217" stroke-miterlimit="10"/></g><g transform="translate(-62,10) scale(1,1)"><path fill="#000000" stroke="none" d="M 1110.837325142376 221.209517756016 L 1121 217 L 1110.837325142376 212.790482243984"/></g><g transform="translate(-62,10) scale(1,1)"><path fill="none" stroke="#000000" d="M 1110.837325142376 221.209517756016 L 1121 217 L 1110.837325142376 212.790482243984 L 1110.837325142376 221.209517756016" stroke-miterlimit="10"/></g><g transform="translate(-62,10) scale(1,1)"><g><path fill="none" stroke="none"/><text fill="#000000" stroke="none" font-family="Arial" font-size="13px" font-style="normal" font-weight="normal" text-decoration="none" x="758.5" y="213.5">4 : POST /Transactions /Send</text></g></g><g transform="translate(-62,10) scale(1,1)"><rect fill="#ffffff" stroke="none" x="1121" y="217" width="13" height="28"/></g><g transform="translate(-62,10) scale(1,1)"><path fill="none" stroke="#000000" d="M 1121 217 L 1134 217 L 1134 245 L 1121 245 L 1121 217 Z Z" stroke-miterlimit="10"/></g><g transform="translate(-62,10) scale(1,1)"><path fill="none" stroke="#000000" d="M 1128 249 L 573 249" stroke-miterlimit="10" stroke-dasharray="3"/></g><g transform="translate(-62,10) scale(1,1)"><path fill="none" stroke="#000000" d="M 583.1626748576241 244.790482243984 L 573 249 L 583.1626748576241 253.209517756016" stroke-miterlimit="10"/></g><g transform="translate(-62,10) scale(1,1)"><g><path fill="none" stroke="none"/><text fill="#000000" stroke="none" font-family="Arial" font-size="13px" font-style="normal" font-weight="normal" text-decoration="none" x="806.5" y="265.5">5 : {Payload-2}</text></g></g><g transform="translate(-62,10) scale(1,1)"><path fill="none" stroke="#000000" d="M 573 304 L 1121 304" stroke-miterlimit="10"/></g><g transform="translate(-62,10) scale(1,1)"><path fill="#000000" stroke="none" d="M 1110.837325142376 308.209517756016 L 1121 304 L 1110.837325142376 299.790482243984"/></g><g transform="translate(-62,10) scale(1,1)"><path fill="none" stroke="#000000" d="M 1110.837325142376 308.209517756016 L 1121 304 L 1110.837325142376 299.790482243984 L 1110.837325142376 308.209517756016" stroke-miterlimit="10"/></g><g transform="translate(-62,10) scale(1,1)"><g><path fill="none" stroke="none"/><text fill="#000000" stroke="none" font-family="Arial" font-size="13px" font-style="normal" font-weight="normal" text-decoration="none" x="788" y="300.5">6 : GET /transaction</text></g></g><g transform="translate(-62,10) scale(1,1)"><rect fill="#ffffff" stroke="none" x="1121" y="304" width="13" height="28"/></g><g transform="translate(-62,10) scale(1,1)"><path fill="none" stroke="#000000" d="M 1121 304 L 1134 304 L 1134 332 L 1121 332 L 1121 304 Z Z" stroke-miterlimit="10"/></g><g transform="translate(-62,10) scale(1,1)"><path fill="none" stroke="#000000" d="M 1128 336 L 573 336" stroke-miterlimit="10" stroke-dasharray="3"/></g><g transform="translate(-62,10) scale(1,1)"><path fill="none" stroke="#000000" d="M 583.1626748576241 331.790482243984 L 573 336 L 583.1626748576241 340.209517756016" stroke-miterlimit="10"/></g><g transform="translate(-62,10) scale(1,1)"><g><path fill="none" stroke="none"/><text fill="#000000" stroke="none" font-family="Arial" font-size="13px" font-style="normal" font-weight="normal" text-decoration="none" x="806.5" y="352.5">7 : {Payload-1}</text></g></g><g transform="translate(-62,10) scale(1,1)"><path fill="none" stroke="#000000" d="M 573 384 L 861 384" stroke-miterlimit="10"/></g><g transform="translate(-62,10) scale(1,1)"><path fill="#000000" stroke="none" d="M 850.8373251423759 388.209517756016 L 861 384 L 850.8373251423758 379.790482243984"/></g><g transform="translate(-62,10) scale(1,1)"><path fill="none" stroke="#000000" d="M 850.8373251423759 388.209517756016 L 861 384 L 850.8373251423758 379.790482243984 L 850.8373251423759 388.209517756016" stroke-miterlimit="10"/></g><g transform="translate(-62,10) scale(1,1)"><g><path fill="none" stroke="none"/><text fill="#000000" stroke="none" font-family="Arial" font-size="13px" font-style="normal" font-weight="normal" text-decoration="none" x="585.5" y="380.5">8 : POST /GET /transaction/InputTransaction</text></g></g><g transform="translate(-62,10) scale(1,1)"><rect fill="#ffffff" stroke="none" x="861" y="384" width="13" height="28"/></g><g transform="translate(-62,10) scale(1,1)"><path fill="none" stroke="#000000" d="M 861 384 L 874 384 L 874 412 L 861 412 L 861 384 Z Z" stroke-miterlimit="10"/></g><g transform="translate(-62,10) scale(1,1)"><path fill="none" stroke="#000000" d="M 861 408 L 573 408" stroke-miterlimit="10" stroke-dasharray="3"/></g><g transform="translate(-62,10) scale(1,1)"><path fill="none" stroke="#000000" d="M 583.1626748576241 403.790482243984 L 573 408 L 583.1626748576241 412.209517756016" stroke-miterlimit="10"/></g><g transform="translate(-62,10) scale(1,1)"><g><path fill="none" stroke="none"/><text fill="#000000" stroke="none" font-family="Arial" font-size="13px" font-style="normal" font-weight="normal" text-decoration="none" x="673.5" y="424.5">9 : {Payload-2}</text></g></g><g transform="translate(-62,10) scale(1,1)"><path fill="none" stroke="#000000" d="M 573 480 L 209 480" stroke-miterlimit="10" stroke-dasharray="3"/></g><g transform="translate(-62,10) scale(1,1)"><path fill="none" stroke="#000000" d="M 219.16267485762415 475.790482243984 L 209 480 L 219.16267485762415 484.209517756016" stroke-miterlimit="10"/></g><g transform="translate(-62,10) scale(1,1)"><g><path fill="none" stroke="none"/><text fill="#000000" stroke="none" font-family="Arial" font-size="13px" font-style="normal" font-weight="normal" text-decoration="none" x="346.5" y="496.5">10 : end: exit 0</text></g></g></g></svg>