<svg version="1.1" xmlns="http://www.w3.org/2000/svg" xmlns:xlink="http://www.w3.org/1999/xlink" width="876" height="343"><defs/><g><g transform="translate(-6,-126) scale(1,1)"><rect fill="#C0C0C0" stroke="none" x="199" y="143" width="680" height="319" opacity="0.2"/></g><g transform="translate(-6,-126) scale(1,1)"><rect fill="#ffffff" stroke="none" x="192" y="136" width="680" height="319"/></g><g transform="translate(-6,-126) scale(1,1)"><path fill="none" stroke="#000000" d="M 192 136 L 872 136 L 872 455 L 192 455 L 192 136 Z Z" stroke-miterlimit="10"/></g><g transform="translate(-6,-126) scale(1,1)"><g><path fill="none" stroke="none"/><text fill="#000000" stroke="none" font-family="Arial" font-size="13px" font-style="normal" font-weight="bold" text-decoration="none" x="416.5" y="155.5">UC Detail Envoi des virements bancaire</text></g></g><g transform="translate(-6,-126) scale(1,1)"><path fill="#ffffff" stroke="none" d="M 79.75334446022727 225.68 C 79.75334446022727 220.886167936 83.63918678517273 217 88.4326171875 217 C 93.22604758982727 217 97.11188991477273 220.886167936 97.11188991477273 225.68 C 97.11188991477273 230.47383206400002 93.22604758982727 234.36 88.4326171875 234.36 C 83.63918678517273 234.36 79.75334446022727 230.47383206400002 79.75334446022727 225.68 Z"/></g><g transform="translate(-6,-126) scale(1,1)"><path fill="none" stroke="#000000" d="M 79.75334446022727 225.68 C 79.75334446022727 220.886167936 83.63918678517273 217 88.4326171875 217 C 93.22604758982727 217 97.11188991477273 220.886167936 97.11188991477273 225.68 C 97.11188991477273 230.47383206400002 93.22604758982727 234.36 88.4326171875 234.36 C 83.63918678517273 234.36 79.75334446022727 230.47383206400002 79.75334446022727 225.68 Z" stroke-miterlimit="10"/></g><g transform="translate(-6,-126) scale(1,1)"><path fill="none" stroke="#000000" d="M 88.4326171875 234.36 L 88.4326171875 251.64" stroke-miterlimit="10"/></g><g transform="translate(-6,-126) scale(1,1)"><path fill="none" stroke="#000000" d="M 79.24279900568182 240.84 L 97.62243536931818 240.84" stroke-miterlimit="10"/></g><g transform="translate(-6,-126) scale(1,1)"><path fill="none" stroke="#000000" d="M 88.4326171875 251.64 L 75.66898082386363 269" stroke-miterlimit="10"/></g><g transform="translate(-6,-126) scale(1,1)"><path fill="none" stroke="#000000" d="M 88.4326171875 251.64 L 101.19625355113637 269" stroke-miterlimit="10"/></g><g transform="translate(-6,-126) scale(1,1)"><path fill="none" stroke="#000000" d="M 16 295 L 160.865234375 295" stroke-miterlimit="10"/></g><g transform="translate(-6,-126) scale(1,1)"><g><path fill="none" stroke="none"/><text fill="#000000" stroke="none" font-family="Arial" font-size="13px" font-style="normal" font-weight="bold" text-decoration="none" x="59.4326171875" y="289.5">Scheduler</text></g></g><g transform="translate(-6,-126) scale(1,1)"><g><path fill="none" stroke="none"/><text fill="#000000" stroke="none" font-family="Arial" font-size="13px" font-style="normal" font-weight="normal" text-decoration="none" x="21" y="312.5">+"Acteur non humain"</text></g></g><g transform="translate(-6,-126) scale(1,1)"><path fill="#C0C0C0" stroke="none" d="M 263 262.5 C 263 249.5213072 395.7475568 239 559.5 239 C 723.2524432 239 856 249.5213072 856 262.5 C 856 275.4786928 723.2524432 286 559.5 286 C 395.7475568 286 263 275.4786928 263 262.5 Z" opacity="0.2"/></g><g transform="translate(-6,-126) scale(1,1)"><path fill="#ffffff" stroke="none" d="M 256 255.5 C 256 242.5213072 388.7475568 232 552.5 232 C 716.2524432 232 849 242.5213072 849 255.5 C 849 268.4786928 716.2524432 279 552.5 279 C 388.7475568 279 256 268.4786928 256 255.5 Z"/></g><g transform="translate(-6,-126) scale(1,1)"><path fill="none" stroke="#000000" d="M 256 255.5 C 256 242.5213072 388.7475568 232 552.5 232 C 716.2524432 232 849 242.5213072 849 255.5 C 849 268.4786928 716.2524432 279 552.5 279 C 388.7475568 279 256 268.4786928 256 255.5 Z" stroke-miterlimit="10"/></g><g transform="translate(-6,-126) scale(1,1)"><g><path fill="none" stroke="none"/><text fill="#000000" stroke="none" font-family="Arial" font-size="13px" font-style="normal" font-weight="bold" text-decoration="none" x="370.5" y="262.5">Créer le document XML de transaction à envoyé au SI Externe</text></g></g><g transform="translate(-6,-126) scale(1,1)"><path fill="none" stroke="#000000" d="M 162 265 L 255 263" stroke-miterlimit="10"/></g><g transform="translate(-6,-126) scale(1,1)"><path fill="#C0C0C0" stroke="none" d="M 359 360 C 359 350.6111584 434.2161536 343 527 343 C 619.7838464 343 695 350.6111584 695 360 C 695 369.3888416 619.7838464 377 527 377 C 434.2161536 377 359 369.3888416 359 360 Z" opacity="0.2"/></g><g transform="translate(-6,-126) scale(1,1)"><path fill="#ffffff" stroke="none" d="M 352 353 C 352 343.6111584 427.2161536 336 520 336 C 612.7838464 336 688 343.6111584 688 353 C 688 362.3888416 612.7838464 370 520 370 C 427.2161536 370 352 362.3888416 352 353 Z"/></g><g transform="translate(-6,-126) scale(1,1)"><path fill="none" stroke="#000000" d="M 352 353 C 352 343.6111584 427.2161536 336 520 336 C 612.7838464 336 688 343.6111584 688 353 C 688 362.3888416 612.7838464 370 520 370 C 427.2161536 370 352 362.3888416 352 353 Z" stroke-miterlimit="10"/></g><g transform="translate(-6,-126) scale(1,1)"><g><path fill="none" stroke="none"/><text fill="#000000" stroke="none" font-family="Arial" font-size="13px" font-style="normal" font-weight="bold" text-decoration="none" x="411.5" y="360">Envoi des transactions au SI Externe</text></g></g><g transform="translate(-6,-126) scale(1,1)"><path fill="none" stroke="#000000" d="M 526 335 L 544 280" stroke-miterlimit="10" stroke-dasharray="3"/></g><g transform="translate(-6,-126) scale(1,1)"><path fill="none" stroke="#000000" d="M 544.8397247509655 290.96790145573055 L 544 280 L 536.838297571005 288.34925256047075" stroke-miterlimit="10"/></g><g transform="translate(-6,-126) scale(1,1)"><g><path fill="none" stroke="none"/><text fill="#000000" stroke="none" font-family="Arial" font-size="13px" font-style="normal" font-weight="normal" text-decoration="none" x="467.5" y="316.5">«include»</text></g></g><g transform="translate(-6,-126) scale(1,1)"><path fill="#ffffff" stroke="none" d="M 88.23127272727272 355.89 C 88.23127272727272 349.875618528 93.05259561192727 345 99 345 C 104.94740438807273 345 109.76872727272728 349.875618528 109.76872727272728 355.89 C 109.76872727272728 361.90438147199995 104.94740438807273 366.78 99 366.78 C 93.05259561192727 366.78 88.23127272727272 361.90438147199995 88.23127272727272 355.89 Z"/></g><g transform="translate(-6,-126) scale(1,1)"><path fill="none" stroke="#000000" d="M 88.23127272727272 355.89 C 88.23127272727272 349.875618528 93.05259561192727 345 99 345 C 104.94740438807273 345 109.76872727272728 349.875618528 109.76872727272728 355.89 C 109.76872727272728 361.90438147199995 104.94740438807273 366.78 99 366.78 C 93.05259561192727 366.78 88.23127272727272 361.90438147199995 88.23127272727272 355.89 Z" stroke-miterlimit="10"/></g><g transform="translate(-6,-126) scale(1,1)"><path fill="none" stroke="#000000" d="M 99 366.78 L 99 388.22" stroke-miterlimit="10"/></g><g transform="translate(-6,-126) scale(1,1)"><path fill="none" stroke="#000000" d="M 87.59781818181818 374.82 L 110.40218181818182 374.82" stroke-miterlimit="10"/></g><g transform="translate(-6,-126) scale(1,1)"><path fill="none" stroke="#000000" d="M 99 388.22 L 83.16363636363636 410" stroke-miterlimit="10"/></g><g transform="translate(-6,-126) scale(1,1)"><path fill="none" stroke="#000000" d="M 99 388.22 L 114.83636363636364 410" stroke-miterlimit="10"/></g><g transform="translate(-6,-126) scale(1,1)"><path fill="none" stroke="#000000" d="M 24 436 L 174 436" stroke-miterlimit="10"/></g><g transform="translate(-6,-126) scale(1,1)"><g><path fill="none" stroke="none"/><text fill="#000000" stroke="none" font-family="Arial" font-size="13px" font-style="normal" font-weight="bold" text-decoration="none" x="68" y="430.5">SI-Externe</text></g></g><g transform="translate(-6,-126) scale(1,1)"><g><path fill="none" stroke="none"/><text fill="#000000" stroke="none" font-family="Arial" font-size="13px" font-style="normal" font-weight="normal" text-decoration="none" x="29" y="453.5">+"Acteur non humain"()</text></g></g><g transform="translate(-6,-126) scale(1,1)"><path fill="none" stroke="#000000" d="M 175 392 L 362 371" stroke-miterlimit="10"/></g><g transform="translate(-6,-126) scale(1,1)"><path fill="none" stroke="#000000" d="M 162 282 L 430 335" stroke-miterlimit="10"/></g></g></svg>