<svg version="1.1" xmlns="http://www.w3.org/2000/svg" xmlns:xlink="http://www.w3.org/1999/xlink" width="1180" height="339"><defs/><g><g transform="translate(-6,-134) scale(1,1)"><rect fill="#C0C0C0" stroke="none" x="199" y="151" width="984" height="319" opacity="0.2"/></g><g transform="translate(-6,-134) scale(1,1)"><rect fill="#ffffff" stroke="none" x="192" y="144" width="984" height="319"/></g><g transform="translate(-6,-134) scale(1,1)"><path fill="none" stroke="#000000" d="M 192 144 L 1176 144 L 1176 463 L 192 463 L 192 144 Z Z" stroke-miterlimit="10"/></g><g transform="translate(-6,-134) scale(1,1)"><g><path fill="none" stroke="none"/><text fill="#000000" stroke="none" font-family="Arial" font-size="13px" font-style="normal" font-weight="bold" text-decoration="none" x="568.5" y="163.5">UC Detail Envoi des virements bancaire</text></g></g><g transform="translate(-6,-134) scale(1,1)"><path fill="#ffffff" stroke="none" d="M 79.75334446022727 225.68 C 79.75334446022727 220.886167936 83.63918678517273 217 88.4326171875 217 C 93.22604758982727 217 97.11188991477273 220.886167936 97.11188991477273 225.68 C 97.11188991477273 230.47383206400002 93.22604758982727 234.36 88.4326171875 234.36 C 83.63918678517273 234.36 79.75334446022727 230.47383206400002 79.75334446022727 225.68 Z"/></g><g transform="translate(-6,-134) scale(1,1)"><path fill="none" stroke="#000000" d="M 79.75334446022727 225.68 C 79.75334446022727 220.886167936 83.63918678517273 217 88.4326171875 217 C 93.22604758982727 217 97.11188991477273 220.886167936 97.11188991477273 225.68 C 97.11188991477273 230.47383206400002 93.22604758982727 234.36 88.4326171875 234.36 C 83.63918678517273 234.36 79.75334446022727 230.47383206400002 79.75334446022727 225.68 Z" stroke-miterlimit="10"/></g><g transform="translate(-6,-134) scale(1,1)"><path fill="none" stroke="#000000" d="M 88.4326171875 234.36 L 88.4326171875 251.64" stroke-miterlimit="10"/></g><g transform="translate(-6,-134) scale(1,1)"><path fill="none" stroke="#000000" d="M 79.24279900568182 240.84 L 97.62243536931818 240.84" stroke-miterlimit="10"/></g><g transform="translate(-6,-134) scale(1,1)"><path fill="none" stroke="#000000" d="M 88.4326171875 251.64 L 75.66898082386363 269" stroke-miterlimit="10"/></g><g transform="translate(-6,-134) scale(1,1)"><path fill="none" stroke="#000000" d="M 88.4326171875 251.64 L 101.19625355113637 269" stroke-miterlimit="10"/></g><g transform="translate(-6,-134) scale(1,1)"><path fill="none" stroke="#000000" d="M 16 295 L 160.865234375 295" stroke-miterlimit="10"/></g><g transform="translate(-6,-134) scale(1,1)"><g><path fill="none" stroke="none"/><text fill="#000000" stroke="none" font-family="Arial" font-size="13px" font-style="normal" font-weight="bold" text-decoration="none" x="59.4326171875" y="289.5">Scheduler</text></g></g><g transform="translate(-6,-134) scale(1,1)"><g><path fill="none" stroke="none"/><text fill="#000000" stroke="none" font-family="Arial" font-size="13px" font-style="normal" font-weight="normal" text-decoration="none" x="21" y="312.5">+"Acteur non humain"</text></g></g><g transform="translate(-6,-134) scale(1,1)"><path fill="#C0C0C0" stroke="none" d="M 239 278.5 C 239 265.5213072 371.7475568 255 535.5 255 C 699.2524432 255 832 265.5213072 832 278.5 C 832 291.4786928 699.2524432 302 535.5 302 C 371.7475568 302 239 291.4786928 239 278.5 Z" opacity="0.2"/></g><g transform="translate(-6,-134) scale(1,1)"><path fill="#ffffff" stroke="none" d="M 232 271.5 C 232 258.5213072 364.7475568 248 528.5 248 C 692.2524432 248 825 258.5213072 825 271.5 C 825 284.4786928 692.2524432 295 528.5 295 C 364.7475568 295 232 284.4786928 232 271.5 Z"/></g><g transform="translate(-6,-134) scale(1,1)"><path fill="none" stroke="#000000" d="M 232 271.5 C 232 258.5213072 364.7475568 248 528.5 248 C 692.2524432 248 825 258.5213072 825 271.5 C 825 284.4786928 692.2524432 295 528.5 295 C 364.7475568 295 232 284.4786928 232 271.5 Z" stroke-miterlimit="10"/></g><g transform="translate(-6,-134) scale(1,1)"><g><path fill="none" stroke="none"/><text fill="#000000" stroke="none" font-family="Arial" font-size="13px" font-style="normal" font-weight="bold" text-decoration="none" x="346.5" y="278.5">Créer le document XML de transaction à envoyé au SI Externe</text></g></g><g transform="translate(-6,-134) scale(1,1)"><path fill="none" stroke="#000000" d="M 162 268 L 231 268" stroke-miterlimit="10"/></g><g transform="translate(-6,-134) scale(1,1)"><path fill="#C0C0C0" stroke="none" d="M 223 368 C 223 358.6111584 431.8591408 351 689.5 351 C 947.1408592 351 1156 358.6111584 1156 368 C 1156 377.3888416 947.1408592 385 689.5 385 C 431.8591408 385 223 377.3888416 223 368 Z" opacity="0.2"/></g><g transform="translate(-6,-134) scale(1,1)"><path fill="#ffffff" stroke="none" d="M 216 361 C 216 351.6111584 424.8591408 344 682.5 344 C 940.1408592 344 1149 351.6111584 1149 361 C 1149 370.3888416 940.1408592 378 682.5 378 C 424.8591408 378 216 370.3888416 216 361 Z"/></g><g transform="translate(-6,-134) scale(1,1)"><path fill="none" stroke="#000000" d="M 216 361 C 216 351.6111584 424.8591408 344 682.5 344 C 940.1408592 344 1149 351.6111584 1149 361 C 1149 370.3888416 940.1408592 378 682.5 378 C 424.8591408 378 216 370.3888416 216 361 Z" stroke-miterlimit="10"/></g><g transform="translate(-6,-134) scale(1,1)"><g><path fill="none" stroke="none"/><text fill="#000000" stroke="none" font-family="Arial" font-size="13px" font-style="normal" font-weight="bold" text-decoration="none" x="377.5" y="368">Récupérer le document XML de transaction auprès du SI externe et l'enregistrer dans la base de données</text></g></g><g transform="translate(-6,-134) scale(1,1)"><path fill="none" stroke="#000000" d="M 162 279 L 568 343" stroke-miterlimit="10"/></g></g></svg>