<svg version="1.1" xmlns="http://www.w3.org/2000/svg" xmlns:xlink="http://www.w3.org/1999/xlink" width="1092.576171875" height="532"><defs/><g><g transform="translate(-54,-46) scale(1,1)"><rect fill="#C0C0C0" stroke="none" x="577" y="255" width="98.46630859375" height="44" opacity="0.2"/></g><g transform="translate(-54,-46) scale(1,1)"><rect fill="#ffffff" stroke="none" x="570" y="248" width="98.46630859375" height="44"/></g><g transform="translate(-54,-46) scale(1,1)"><path fill="none" stroke="#000000" d="M 570 248 L 668.46630859375 248 L 668.46630859375 292 L 570 292 L 570 248 Z Z" stroke-miterlimit="10"/></g><g transform="translate(-54,-46) scale(1,1)"><rect fill="#ffffff" stroke="none" x="560" y="255" width="20" height="10"/></g><g transform="translate(-54,-46) scale(1,1)"><path fill="none" stroke="#000000" d="M 560 255 L 580 255 L 580 265 L 560 265 L 560 255 Z Z" stroke-miterlimit="10"/></g><g transform="translate(-54,-46) scale(1,1)"><rect fill="#ffffff" stroke="none" x="560" y="275" width="20" height="10"/></g><g transform="translate(-54,-46) scale(1,1)"><path fill="none" stroke="#000000" d="M 560 275 L 580 275 L 580 285 L 560 285 L 560 275 Z Z" stroke-miterlimit="10"/></g><g transform="translate(-54,-46) scale(1,1)"><g><path fill="none" stroke="none"/><text fill="#000000" stroke="none" font-family="Arial" font-size="13px" font-style="normal" font-weight="normal" text-decoration="none" x="609.779541015625" y="265.5">«jar»</text></g></g><g transform="translate(-54,-46) scale(1,1)"><g><path fill="none" stroke="none"/><text fill="#000000" stroke="none" font-family="Arial" font-size="13px" font-style="normal" font-weight="bold" text-decoration="none" x="588.10546875" y="280.5">esibank-utils</text></g></g><g transform="translate(-54,-46) scale(1,1)"><rect fill="#C0C0C0" stroke="none" x="577" y="159" width="98.44091796875" height="44" opacity="0.2"/></g><g transform="translate(-54,-46) scale(1,1)"><rect fill="#ffffff" stroke="none" x="570" y="152" width="98.44091796875" height="44"/></g><g transform="translate(-54,-46) scale(1,1)"><path fill="none" stroke="#000000" d="M 570 152 L 668.44091796875 152 L 668.44091796875 196 L 570 196 L 570 152 Z Z" stroke-miterlimit="10"/></g><g transform="translate(-54,-46) scale(1,1)"><rect fill="#ffffff" stroke="none" x="560" y="159" width="20" height="10"/></g><g transform="translate(-54,-46) scale(1,1)"><path fill="none" stroke="#000000" d="M 560 159 L 580 159 L 580 169 L 560 169 L 560 159 Z Z" stroke-miterlimit="10"/></g><g transform="translate(-54,-46) scale(1,1)"><rect fill="#ffffff" stroke="none" x="560" y="179" width="20" height="10"/></g><g transform="translate(-54,-46) scale(1,1)"><path fill="none" stroke="#000000" d="M 560 179 L 580 179 L 580 189 L 560 189 L 560 179 Z Z" stroke-miterlimit="10"/></g><g transform="translate(-54,-46) scale(1,1)"><g><path fill="none" stroke="none"/><text fill="#000000" stroke="none" font-family="Arial" font-size="13px" font-style="normal" font-weight="normal" text-decoration="none" x="609.766845703125" y="169.5">«jar»</text></g></g><g transform="translate(-54,-46) scale(1,1)"><g><path fill="none" stroke="none"/><text fill="#000000" stroke="none" font-family="Arial" font-size="13px" font-style="normal" font-weight="bold" text-decoration="none" x="603.266845703125" y="184.5">lombok</text></g></g><g transform="translate(-54,-46) scale(1,1)"><path fill="none" stroke="#000000" d="M 620 248 L 620 196" stroke-miterlimit="10" stroke-dasharray="3"/></g><g transform="translate(-54,-46) scale(1,1)"><path fill="none" stroke="#000000" d="M 624.209517756016 206.16267485762415 L 620 196 L 615.790482243984 206.16267485762415" stroke-miterlimit="10"/></g><g transform="translate(-54,-46) scale(1,1)"><rect fill="#C0C0C0" stroke="none" x="745" y="399" width="167.79541015625" height="44" opacity="0.2"/></g><g transform="translate(-54,-46) scale(1,1)"><rect fill="#ffffff" stroke="none" x="738" y="392" width="167.79541015625" height="44"/></g><g transform="translate(-54,-46) scale(1,1)"><path fill="none" stroke="#000000" d="M 738 392 L 905.79541015625 392 L 905.79541015625 436 L 738 436 L 738 392 Z Z" stroke-miterlimit="10"/></g><g transform="translate(-54,-46) scale(1,1)"><rect fill="#ffffff" stroke="none" x="728" y="399" width="20" height="10"/></g><g transform="translate(-54,-46) scale(1,1)"><path fill="none" stroke="#000000" d="M 728 399 L 748 399 L 748 409 L 728 409 L 728 399 Z Z" stroke-miterlimit="10"/></g><g transform="translate(-54,-46) scale(1,1)"><rect fill="#ffffff" stroke="none" x="728" y="419" width="20" height="10"/></g><g transform="translate(-54,-46) scale(1,1)"><path fill="none" stroke="#000000" d="M 728 419 L 748 419 L 748 429 L 728 429 L 728 419 Z Z" stroke-miterlimit="10"/></g><g transform="translate(-54,-46) scale(1,1)"><g><path fill="none" stroke="none"/><text fill="#000000" stroke="none" font-family="Arial" font-size="13px" font-style="normal" font-weight="normal" text-decoration="none" x="812.444091796875" y="409.5">«jar»</text></g></g><g transform="translate(-54,-46) scale(1,1)"><g><path fill="none" stroke="none"/><text fill="#000000" stroke="none" font-family="Arial" font-size="13px" font-style="normal" font-weight="bold" text-decoration="none" x="759.339599609375" y="424.5">notification-push-server</text></g></g><g transform="translate(-54,-46) scale(1,1)"><path fill="none" stroke="#000000" d="M 728 414 L 656 414 L 656 292" stroke-miterlimit="10" stroke-dasharray="3"/></g><g transform="translate(-54,-46) scale(1,1)"><path fill="none" stroke="#000000" d="M 660.209517756016 302.16267485762415 L 656 292 L 651.790482243984 302.16267485762415" stroke-miterlimit="10"/></g><g transform="translate(-54,-46) scale(1,1)"><rect fill="#C0C0C0" stroke="none" x="1001" y="343" width="98.44091796875" height="44" opacity="0.2"/></g><g transform="translate(-54,-46) scale(1,1)"><rect fill="#ffffff" stroke="none" x="994" y="336" width="98.44091796875" height="44"/></g><g transform="translate(-54,-46) scale(1,1)"><path fill="none" stroke="#000000" d="M 994 336 L 1092.44091796875 336 L 1092.44091796875 380 L 994 380 L 994 336 Z Z" stroke-miterlimit="10"/></g><g transform="translate(-54,-46) scale(1,1)"><rect fill="#ffffff" stroke="none" x="984" y="343" width="20" height="10"/></g><g transform="translate(-54,-46) scale(1,1)"><path fill="none" stroke="#000000" d="M 984 343 L 1004 343 L 1004 353 L 984 353 L 984 343 Z Z" stroke-miterlimit="10"/></g><g transform="translate(-54,-46) scale(1,1)"><rect fill="#ffffff" stroke="none" x="984" y="363" width="20" height="10"/></g><g transform="translate(-54,-46) scale(1,1)"><path fill="none" stroke="#000000" d="M 984 363 L 1004 363 L 1004 373 L 984 373 L 984 363 Z Z" stroke-miterlimit="10"/></g><g transform="translate(-54,-46) scale(1,1)"><g><path fill="none" stroke="none"/><text fill="#000000" stroke="none" font-family="Arial" font-size="13px" font-style="normal" font-weight="normal" text-decoration="none" x="1033.766845703125" y="353.5">«jar»</text></g></g><g transform="translate(-54,-46) scale(1,1)"><g><path fill="none" stroke="none"/><text fill="#000000" stroke="none" font-family="Arial" font-size="13px" font-style="normal" font-weight="bold" text-decoration="none" x="1012.800537109375" y="368.5">log4j_1.2.17</text></g></g><g transform="translate(-54,-46) scale(1,1)"><rect fill="#C0C0C0" stroke="none" x="1001" y="287" width="142.576171875" height="44" opacity="0.2"/></g><g transform="translate(-54,-46) scale(1,1)"><rect fill="#ffffff" stroke="none" x="994" y="280" width="142.576171875" height="44"/></g><g transform="translate(-54,-46) scale(1,1)"><path fill="none" stroke="#000000" d="M 994 280 L 1136.576171875 280 L 1136.576171875 324 L 994 324 L 994 280 Z Z" stroke-miterlimit="10"/></g><g transform="translate(-54,-46) scale(1,1)"><rect fill="#ffffff" stroke="none" x="984" y="287" width="20" height="10"/></g><g transform="translate(-54,-46) scale(1,1)"><path fill="none" stroke="#000000" d="M 984 287 L 1004 287 L 1004 297 L 984 297 L 984 287 Z Z" stroke-miterlimit="10"/></g><g transform="translate(-54,-46) scale(1,1)"><rect fill="#ffffff" stroke="none" x="984" y="307" width="20" height="10"/></g><g transform="translate(-54,-46) scale(1,1)"><path fill="none" stroke="#000000" d="M 984 307 L 1004 307 L 1004 317 L 984 317 L 984 307 Z Z" stroke-miterlimit="10"/></g><g transform="translate(-54,-46) scale(1,1)"><g><path fill="none" stroke="none"/><text fill="#000000" stroke="none" font-family="Arial" font-size="13px" font-style="normal" font-weight="normal" text-decoration="none" x="1055.83447265625" y="297.5">«jar»</text></g></g><g transform="translate(-54,-46) scale(1,1)"><g><path fill="none" stroke="none"/><text fill="#000000" stroke="none" font-family="Arial" font-size="13px" font-style="normal" font-weight="bold" text-decoration="none" x="1011.753173828125" y="312.5">jackson-core_2.8.10</text></g></g><g transform="translate(-54,-46) scale(1,1)"><rect fill="#C0C0C0" stroke="none" x="553" y="71" width="169.28076171875" height="44" opacity="0.2"/></g><g transform="translate(-54,-46) scale(1,1)"><rect fill="#ffffff" stroke="none" x="546" y="64" width="169.28076171875" height="44"/></g><g transform="translate(-54,-46) scale(1,1)"><path fill="none" stroke="#000000" d="M 546 64 L 715.28076171875 64 L 715.28076171875 108 L 546 108 L 546 64 Z Z" stroke-miterlimit="10"/></g><g transform="translate(-54,-46) scale(1,1)"><rect fill="#ffffff" stroke="none" x="536" y="71" width="20" height="10"/></g><g transform="translate(-54,-46) scale(1,1)"><path fill="none" stroke="#000000" d="M 536 71 L 556 71 L 556 81 L 536 81 L 536 71 Z Z" stroke-miterlimit="10"/></g><g transform="translate(-54,-46) scale(1,1)"><rect fill="#ffffff" stroke="none" x="536" y="91" width="20" height="10"/></g><g transform="translate(-54,-46) scale(1,1)"><path fill="none" stroke="#000000" d="M 536 91 L 556 91 L 556 101 L 536 101 L 536 91 Z Z" stroke-miterlimit="10"/></g><g transform="translate(-54,-46) scale(1,1)"><g><path fill="none" stroke="none"/><text fill="#000000" stroke="none" font-family="Arial" font-size="13px" font-style="normal" font-weight="normal" text-decoration="none" x="621.186767578125" y="81.5">«jar»</text></g></g><g transform="translate(-54,-46) scale(1,1)"><g><path fill="none" stroke="none"/><text fill="#000000" stroke="none" font-family="Arial" font-size="13px" font-style="normal" font-weight="bold" text-decoration="none" x="564.81005859375" y="96.5">jackson-databind_2.8.10</text></g></g><g transform="translate(-54,-46) scale(1,1)"><rect fill="#C0C0C0" stroke="none" x="1001" y="399" width="138.93896484375" height="44" opacity="0.2"/></g><g transform="translate(-54,-46) scale(1,1)"><rect fill="#ffffff" stroke="none" x="994" y="392" width="138.93896484375" height="44"/></g><g transform="translate(-54,-46) scale(1,1)"><path fill="none" stroke="#000000" d="M 994 392 L 1132.93896484375 392 L 1132.93896484375 436 L 994 436 L 994 392 Z Z" stroke-miterlimit="10"/></g><g transform="translate(-54,-46) scale(1,1)"><rect fill="#ffffff" stroke="none" x="984" y="399" width="20" height="10"/></g><g transform="translate(-54,-46) scale(1,1)"><path fill="none" stroke="#000000" d="M 984 399 L 1004 399 L 1004 409 L 984 409 L 984 399 Z Z" stroke-miterlimit="10"/></g><g transform="translate(-54,-46) scale(1,1)"><rect fill="#ffffff" stroke="none" x="984" y="419" width="20" height="10"/></g><g transform="translate(-54,-46) scale(1,1)"><path fill="none" stroke="#000000" d="M 984 419 L 1004 419 L 1004 429 L 984 429 L 984 419 Z Z" stroke-miterlimit="10"/></g><g transform="translate(-54,-46) scale(1,1)"><g><path fill="none" stroke="none"/><text fill="#000000" stroke="none" font-family="Arial" font-size="13px" font-style="normal" font-weight="normal" text-decoration="none" x="1054.015869140625" y="409.5">«jar»</text></g></g><g transform="translate(-54,-46) scale(1,1)"><g><path fill="none" stroke="none"/><text fill="#000000" stroke="none" font-family="Arial" font-size="13px" font-style="normal" font-weight="bold" text-decoration="none" x="1016.799560546875" y="424.5">ampq-client_5.0.0</text></g></g><g transform="translate(-54,-46) scale(1,1)"><rect fill="#C0C0C0" stroke="none" x="425" y="399" width="132.41357421875" height="44" opacity="0.2"/></g><g transform="translate(-54,-46) scale(1,1)"><rect fill="#ffffff" stroke="none" x="418" y="392" width="132.41357421875" height="44"/></g><g transform="translate(-54,-46) scale(1,1)"><path fill="none" stroke="#000000" d="M 418 392 L 550.41357421875 392 L 550.41357421875 436 L 418 436 L 418 392 Z Z" stroke-miterlimit="10"/></g><g transform="translate(-54,-46) scale(1,1)"><rect fill="#ffffff" stroke="none" x="408" y="399" width="20" height="10"/></g><g transform="translate(-54,-46) scale(1,1)"><path fill="none" stroke="#000000" d="M 408 399 L 428 399 L 428 409 L 408 409 L 408 399 Z Z" stroke-miterlimit="10"/></g><g transform="translate(-54,-46) scale(1,1)"><rect fill="#ffffff" stroke="none" x="408" y="419" width="20" height="10"/></g><g transform="translate(-54,-46) scale(1,1)"><path fill="none" stroke="#000000" d="M 408 419 L 428 419 L 428 429 L 408 429 L 408 419 Z Z" stroke-miterlimit="10"/></g><g transform="translate(-54,-46) scale(1,1)"><g><path fill="none" stroke="none"/><text fill="#000000" stroke="none" font-family="Arial" font-size="13px" font-style="normal" font-weight="normal" text-decoration="none" x="474.753173828125" y="409.5">«jar»</text></g></g><g transform="translate(-54,-46) scale(1,1)"><g><path fill="none" stroke="none"/><text fill="#000000" stroke="none" font-family="Arial" font-size="13px" font-style="normal" font-weight="bold" text-decoration="none" x="437.908203125" y="424.5">notification-server</text></g></g><g transform="translate(-54,-46) scale(1,1)"><path fill="none" stroke="#000000" d="M 550 414 L 584 414 L 584 292" stroke-miterlimit="10" stroke-dasharray="3"/></g><g transform="translate(-54,-46) scale(1,1)"><path fill="none" stroke="#000000" d="M 588.209517756016 302.16267485762415 L 584 292 L 579.790482243984 302.16267485762415" stroke-miterlimit="10"/></g><g transform="translate(-54,-46) scale(1,1)"><rect fill="#C0C0C0" stroke="none" x="81" y="119" width="283.38623046875" height="44" opacity="0.2"/></g><g transform="translate(-54,-46) scale(1,1)"><rect fill="#ffffff" stroke="none" x="74" y="112" width="283.38623046875" height="44"/></g><g transform="translate(-54,-46) scale(1,1)"><path fill="none" stroke="#000000" d="M 74 112 L 357.38623046875 112 L 357.38623046875 156 L 74 156 L 74 112 Z Z" stroke-miterlimit="10"/></g><g transform="translate(-54,-46) scale(1,1)"><rect fill="#ffffff" stroke="none" x="64" y="119" width="20" height="10"/></g><g transform="translate(-54,-46) scale(1,1)"><path fill="none" stroke="#000000" d="M 64 119 L 84 119 L 84 129 L 64 129 L 64 119 Z Z" stroke-miterlimit="10"/></g><g transform="translate(-54,-46) scale(1,1)"><rect fill="#ffffff" stroke="none" x="64" y="139" width="20" height="10"/></g><g transform="translate(-54,-46) scale(1,1)"><path fill="none" stroke="#000000" d="M 64 139 L 84 139 L 84 149 L 64 149 L 64 139 Z Z" stroke-miterlimit="10"/></g><g transform="translate(-54,-46) scale(1,1)"><g><path fill="none" stroke="none"/><text fill="#000000" stroke="none" font-family="Arial" font-size="13px" font-style="normal" font-weight="normal" text-decoration="none" x="200.818603515625" y="129.5">«pom»</text></g></g><g transform="translate(-54,-46) scale(1,1)"><g><path fill="none" stroke="none"/><text fill="#000000" stroke="none" font-family="Arial" font-size="13px" font-style="normal" font-weight="bold" text-decoration="none" x="95.66650390625" y="144.5">spring-boot-dependencies_1.5.3.RELEASE</text></g></g><g transform="translate(-54,-46) scale(1,1)"><rect fill="#C0C0C0" stroke="none" x="225" y="343" width="136" height="44" opacity="0.2"/></g><g transform="translate(-54,-46) scale(1,1)"><rect fill="#ffffff" stroke="none" x="218" y="336" width="136" height="44"/></g><g transform="translate(-54,-46) scale(1,1)"><path fill="none" stroke="#000000" d="M 218 336 L 354 336 L 354 380 L 218 380 L 218 336 Z Z" stroke-miterlimit="10"/></g><g transform="translate(-54,-46) scale(1,1)"><rect fill="#ffffff" stroke="none" x="208" y="343" width="20" height="10"/></g><g transform="translate(-54,-46) scale(1,1)"><path fill="none" stroke="#000000" d="M 208 343 L 228 343 L 228 353 L 208 353 L 208 343 Z Z" stroke-miterlimit="10"/></g><g transform="translate(-54,-46) scale(1,1)"><rect fill="#ffffff" stroke="none" x="208" y="363" width="20" height="10"/></g><g transform="translate(-54,-46) scale(1,1)"><path fill="none" stroke="#000000" d="M 208 363 L 228 363 L 228 373 L 208 373 L 208 363 Z Z" stroke-miterlimit="10"/></g><g transform="translate(-54,-46) scale(1,1)"><g><path fill="none" stroke="none"/><text fill="#000000" stroke="none" font-family="Arial" font-size="13px" font-style="normal" font-weight="normal" text-decoration="none" x="276.54638671875" y="353.5">«jar»</text></g></g><g transform="translate(-54,-46) scale(1,1)"><g><path fill="none" stroke="none"/><text fill="#000000" stroke="none" font-family="Arial" font-size="13px" font-style="normal" font-weight="bold" text-decoration="none" x="237.8955078125" y="368.5">spring-boot-starter</text></g></g><g transform="translate(-54,-46) scale(1,1)"><rect fill="#C0C0C0" stroke="none" x="249" y="287" width="113.681640625" height="44" opacity="0.2"/></g><g transform="translate(-54,-46) scale(1,1)"><rect fill="#ffffff" stroke="none" x="242" y="280" width="113.681640625" height="44"/></g><g transform="translate(-54,-46) scale(1,1)"><path fill="none" stroke="#000000" d="M 242 280 L 355.681640625 280 L 355.681640625 324 L 242 324 L 242 280 Z Z" stroke-miterlimit="10"/></g><g transform="translate(-54,-46) scale(1,1)"><rect fill="#ffffff" stroke="none" x="232" y="287" width="20" height="10"/></g><g transform="translate(-54,-46) scale(1,1)"><path fill="none" stroke="#000000" d="M 232 287 L 252 287 L 252 297 L 232 297 L 232 287 Z Z" stroke-miterlimit="10"/></g><g transform="translate(-54,-46) scale(1,1)"><rect fill="#ffffff" stroke="none" x="232" y="307" width="20" height="10"/></g><g transform="translate(-54,-46) scale(1,1)"><path fill="none" stroke="#000000" d="M 232 307 L 252 307 L 252 317 L 232 317 L 232 307 Z Z" stroke-miterlimit="10"/></g><g transform="translate(-54,-46) scale(1,1)"><g><path fill="none" stroke="none"/><text fill="#000000" stroke="none" font-family="Arial" font-size="13px" font-style="normal" font-weight="normal" text-decoration="none" x="289.38720703125" y="297.5">«jar»</text></g></g><g transform="translate(-54,-46) scale(1,1)"><g><path fill="none" stroke="none"/><text fill="#000000" stroke="none" font-family="Arial" font-size="13px" font-style="normal" font-weight="bold" text-decoration="none" x="259.042236328125" y="312.5">jersey-core_1.9</text></g></g><g transform="translate(-54,-46) scale(1,1)"><rect fill="#C0C0C0" stroke="none" x="161" y="231" width="200.32080078125" height="44" opacity="0.2"/></g><g transform="translate(-54,-46) scale(1,1)"><rect fill="#ffffff" stroke="none" x="154" y="224" width="200.32080078125" height="44"/></g><g transform="translate(-54,-46) scale(1,1)"><path fill="none" stroke="#000000" d="M 154 224 L 354.32080078125 224 L 354.32080078125 268 L 154 268 L 154 224 Z Z" stroke-miterlimit="10"/></g><g transform="translate(-54,-46) scale(1,1)"><rect fill="#ffffff" stroke="none" x="144" y="231" width="20" height="10"/></g><g transform="translate(-54,-46) scale(1,1)"><path fill="none" stroke="#000000" d="M 144 231 L 164 231 L 164 241 L 144 241 L 144 231 Z Z" stroke-miterlimit="10"/></g><g transform="translate(-54,-46) scale(1,1)"><rect fill="#ffffff" stroke="none" x="144" y="251" width="20" height="10"/></g><g transform="translate(-54,-46) scale(1,1)"><path fill="none" stroke="#000000" d="M 144 251 L 164 251 L 164 261 L 144 261 L 144 251 Z Z" stroke-miterlimit="10"/></g><g transform="translate(-54,-46) scale(1,1)"><g><path fill="none" stroke="none"/><text fill="#000000" stroke="none" font-family="Arial" font-size="13px" font-style="normal" font-weight="normal" text-decoration="none" x="244.706787109375" y="241.5">«jar»</text></g></g><g transform="translate(-54,-46) scale(1,1)"><g><path fill="none" stroke="none"/><text fill="#000000" stroke="none" font-family="Arial" font-size="13px" font-style="normal" font-weight="bold" text-decoration="none" x="173.168701171875" y="256.5">spring-rabbit_1.4.5.RELEASE</text></g></g><g transform="translate(-54,-46) scale(1,1)"><rect fill="#C0C0C0" stroke="none" x="177" y="175" width="184.47705078125" height="44" opacity="0.2"/></g><g transform="translate(-54,-46) scale(1,1)"><rect fill="#ffffff" stroke="none" x="170" y="168" width="184.47705078125" height="44"/></g><g transform="translate(-54,-46) scale(1,1)"><path fill="none" stroke="#000000" d="M 170 168 L 354.47705078125 168 L 354.47705078125 212 L 170 212 L 170 168 Z Z" stroke-miterlimit="10"/></g><g transform="translate(-54,-46) scale(1,1)"><rect fill="#ffffff" stroke="none" x="160" y="175" width="20" height="10"/></g><g transform="translate(-54,-46) scale(1,1)"><path fill="none" stroke="#000000" d="M 160 175 L 180 175 L 180 185 L 160 185 L 160 175 Z Z" stroke-miterlimit="10"/></g><g transform="translate(-54,-46) scale(1,1)"><rect fill="#ffffff" stroke="none" x="160" y="195" width="20" height="10"/></g><g transform="translate(-54,-46) scale(1,1)"><path fill="none" stroke="#000000" d="M 160 195 L 180 195 L 180 205 L 160 205 L 160 195 Z Z" stroke-miterlimit="10"/></g><g transform="translate(-54,-46) scale(1,1)"><g><path fill="none" stroke="none"/><text fill="#000000" stroke="none" font-family="Arial" font-size="13px" font-style="normal" font-weight="normal" text-decoration="none" x="252.784912109375" y="185.5">«jar»</text></g></g><g transform="translate(-54,-46) scale(1,1)"><g><path fill="none" stroke="none"/><text fill="#000000" stroke="none" font-family="Arial" font-size="13px" font-style="normal" font-weight="bold" text-decoration="none" x="188.83544921875" y="200.5">jackson-mapper-asl_1.9.13</text></g></g><g transform="translate(-54,-46) scale(1,1)"><rect fill="#C0C0C0" stroke="none" x="265" y="63" width="98.44091796875" height="44" opacity="0.2"/></g><g transform="translate(-54,-46) scale(1,1)"><rect fill="#ffffff" stroke="none" x="258" y="56" width="98.44091796875" height="44"/></g><g transform="translate(-54,-46) scale(1,1)"><path fill="none" stroke="#000000" d="M 258 56 L 356.44091796875 56 L 356.44091796875 100 L 258 100 L 258 56 Z Z" stroke-miterlimit="10"/></g><g transform="translate(-54,-46) scale(1,1)"><rect fill="#ffffff" stroke="none" x="248" y="63" width="20" height="10"/></g><g transform="translate(-54,-46) scale(1,1)"><path fill="none" stroke="#000000" d="M 248 63 L 268 63 L 268 73 L 248 73 L 248 63 Z Z" stroke-miterlimit="10"/></g><g transform="translate(-54,-46) scale(1,1)"><rect fill="#ffffff" stroke="none" x="248" y="83" width="20" height="10"/></g><g transform="translate(-54,-46) scale(1,1)"><path fill="none" stroke="#000000" d="M 248 83 L 268 83 L 268 93 L 248 93 L 248 83 Z Z" stroke-miterlimit="10"/></g><g transform="translate(-54,-46) scale(1,1)"><g><path fill="none" stroke="none"/><text fill="#000000" stroke="none" font-family="Arial" font-size="13px" font-style="normal" font-weight="normal" text-decoration="none" x="297.766845703125" y="73.5">«jar»</text></g></g><g transform="translate(-54,-46) scale(1,1)"><g><path fill="none" stroke="none"/><text fill="#000000" stroke="none" font-family="Arial" font-size="13px" font-style="normal" font-weight="bold" text-decoration="none" x="277.88916015625" y="88.5">dozer_5.5.1</text></g></g><g transform="translate(-54,-46) scale(1,1)"><rect fill="#C0C0C0" stroke="none" x="193" y="399" width="165.61181640625" height="44" opacity="0.2"/></g><g transform="translate(-54,-46) scale(1,1)"><rect fill="#ffffff" stroke="none" x="186" y="392" width="165.61181640625" height="44"/></g><g transform="translate(-54,-46) scale(1,1)"><path fill="none" stroke="#000000" d="M 186 392 L 351.61181640625 392 L 351.61181640625 436 L 186 436 L 186 392 Z Z" stroke-miterlimit="10"/></g><g transform="translate(-54,-46) scale(1,1)"><rect fill="#ffffff" stroke="none" x="176" y="399" width="20" height="10"/></g><g transform="translate(-54,-46) scale(1,1)"><path fill="none" stroke="#000000" d="M 176 399 L 196 399 L 196 409 L 176 409 L 176 399 Z Z" stroke-miterlimit="10"/></g><g transform="translate(-54,-46) scale(1,1)"><rect fill="#ffffff" stroke="none" x="176" y="419" width="20" height="10"/></g><g transform="translate(-54,-46) scale(1,1)"><path fill="none" stroke="#000000" d="M 176 419 L 196 419 L 196 429 L 176 429 L 176 419 Z Z" stroke-miterlimit="10"/></g><g transform="translate(-54,-46) scale(1,1)"><g><path fill="none" stroke="none"/><text fill="#000000" stroke="none" font-family="Arial" font-size="13px" font-style="normal" font-weight="normal" text-decoration="none" x="259.352294921875" y="409.5">«jar»</text></g></g><g transform="translate(-54,-46) scale(1,1)"><g><path fill="none" stroke="none"/><text fill="#000000" stroke="none" font-family="Arial" font-size="13px" font-style="normal" font-weight="bold" text-decoration="none" x="206.61279296875" y="424.5">spring-boot-starter-web</text></g></g><g transform="translate(-54,-46) scale(1,1)"><path fill="none" stroke="#000000" d="M 504 392 L 504 88 L 536 88" stroke-miterlimit="10" stroke-dasharray="3"/></g><g transform="translate(-54,-46) scale(1,1)"><path fill="none" stroke="#000000" d="M 525.8373251423759 92.20951775601598 L 536 88 L 525.8373251423758 83.79048224398402" stroke-miterlimit="10"/></g><g transform="translate(-54,-46) scale(1,1)"><path fill="none" stroke="#000000" d="M 906 414 L 984 414" stroke-miterlimit="10" stroke-dasharray="3"/></g><g transform="translate(-54,-46) scale(1,1)"><path fill="none" stroke="#000000" d="M 973.8373251423759 418.209517756016 L 984 414 L 973.8373251423758 409.790482243984" stroke-miterlimit="10"/></g><g transform="translate(-54,-46) scale(1,1)"><path fill="none" stroke="#000000" d="M 888 392 L 888 360 L 984 360" stroke-miterlimit="10" stroke-dasharray="3"/></g><g transform="translate(-54,-46) scale(1,1)"><path fill="none" stroke="#000000" d="M 973.8373251423759 364.209517756016 L 984 360 L 973.8373251423758 355.790482243984" stroke-miterlimit="10"/></g><g transform="translate(-54,-46) scale(1,1)"><path fill="none" stroke="#000000" d="M 872 392 L 872 304 L 984 304" stroke-miterlimit="10" stroke-dasharray="3"/></g><g transform="translate(-54,-46) scale(1,1)"><path fill="none" stroke="#000000" d="M 973.8373251423759 308.209517756016 L 984 304 L 973.8373251423758 299.790482243984" stroke-miterlimit="10"/></g><g transform="translate(-54,-46) scale(1,1)"><path fill="none" stroke="#000000" d="M 848 392 L 848 88 L 715 88" stroke-miterlimit="10" stroke-dasharray="3"/></g><g transform="translate(-54,-46) scale(1,1)"><path fill="none" stroke="#000000" d="M 725.1626748576241 83.79048224398402 L 715 88 L 725.1626748576241 92.20951775601598" stroke-miterlimit="10"/></g><g transform="translate(-54,-46) scale(1,1)"><path fill="none" stroke="#000000" d="M 408 424 L 352 424" stroke-miterlimit="10" stroke-dasharray="3"/></g><g transform="translate(-54,-46) scale(1,1)"><path fill="none" stroke="#000000" d="M 362.16267485762415 419.790482243984 L 352 424 L 362.16267485762415 428.209517756016" stroke-miterlimit="10"/></g><g transform="translate(-54,-46) scale(1,1)"><path fill="none" stroke="#000000" d="M 408 408 L 400 408 L 400 352 L 354 352" stroke-miterlimit="10" stroke-dasharray="3"/></g><g transform="translate(-54,-46) scale(1,1)"><path fill="none" stroke="#000000" d="M 364.16267485762415 347.790482243984 L 354 352 L 364.16267485762415 356.209517756016" stroke-miterlimit="10"/></g><g transform="translate(-54,-46) scale(1,1)"><path fill="none" stroke="#000000" d="M 424 392 L 424 304 L 356 304" stroke-miterlimit="10" stroke-dasharray="3"/></g><g transform="translate(-54,-46) scale(1,1)"><path fill="none" stroke="#000000" d="M 366.16267485762415 299.790482243984 L 356 304 L 366.16267485762415 308.209517756016" stroke-miterlimit="10"/></g><g transform="translate(-54,-46) scale(1,1)"><path fill="none" stroke="#000000" d="M 432 392 L 432 248 L 354 248" stroke-miterlimit="10" stroke-dasharray="3"/></g><g transform="translate(-54,-46) scale(1,1)"><path fill="none" stroke="#000000" d="M 364.16267485762415 243.790482243984 L 354 248 L 364.16267485762415 252.209517756016" stroke-miterlimit="10"/></g><g transform="translate(-54,-46) scale(1,1)"><path fill="none" stroke="#000000" d="M 448 392 L 448 190 L 354 190" stroke-miterlimit="10" stroke-dasharray="3"/></g><g transform="translate(-54,-46) scale(1,1)"><path fill="none" stroke="#000000" d="M 364.16267485762415 185.790482243984 L 354 190 L 364.16267485762415 194.209517756016" stroke-miterlimit="10"/></g><g transform="translate(-54,-46) scale(1,1)"><path fill="none" stroke="#000000" d="M 464 392 L 464 134 L 357 134" stroke-miterlimit="10" stroke-dasharray="3"/></g><g transform="translate(-54,-46) scale(1,1)"><path fill="none" stroke="#000000" d="M 367.16267485762415 129.790482243984 L 357 134 L 367.16267485762415 138.209517756016" stroke-miterlimit="10"/></g><g transform="translate(-54,-46) scale(1,1)"><path fill="none" stroke="#000000" d="M 479 392 L 479 78 L 356 78" stroke-miterlimit="10" stroke-dasharray="3"/></g><g transform="translate(-54,-46) scale(1,1)"><path fill="none" stroke="#000000" d="M 366.16267485762415 73.79048224398402 L 356 78 L 366.16267485762415 82.20951775601598" stroke-miterlimit="10"/></g><g transform="translate(-54,-46) scale(1,1)"><path fill="#C0C0C0" stroke="none" d="M 478.7099609375 538.5 C 478.7099609375 532.1487248 483.8586857375 527 490.2099609375 527 C 496.5612361375 527 501.7099609375 532.1487248 501.7099609375 538.5 C 501.7099609375 544.8512752 496.5612361375 550 490.2099609375 550 C 483.8586857375 550 478.7099609375 544.8512752 478.7099609375 538.5 Z" opacity="0.2"/></g><g transform="translate(-54,-46) scale(1,1)"><path fill="#ffffff" stroke="none" d="M 471.7099609375 531.5 C 471.7099609375 525.1487248 476.8586857375 520 483.2099609375 520 C 489.5612361375 520 494.7099609375 525.1487248 494.7099609375 531.5 C 494.7099609375 537.8512752 489.5612361375 543 483.2099609375 543 C 476.8586857375 543 471.7099609375 537.8512752 471.7099609375 531.5 Z"/></g><g transform="translate(-54,-46) scale(1,1)"><path fill="none" stroke="#000000" d="M 471.7099609375 531.5 C 471.7099609375 525.1487248 476.8586857375 520 483.2099609375 520 C 489.5612361375 520 494.7099609375 525.1487248 494.7099609375 531.5 C 494.7099609375 537.8512752 489.5612361375 543 483.2099609375 543 C 476.8586857375 543 471.7099609375 537.8512752 471.7099609375 531.5 Z" stroke-miterlimit="10"/></g><g transform="translate(-54,-46) scale(1,1)"><g><path fill="none" stroke="none"/><text fill="#000000" stroke="none" font-family="Arial" font-size="13px" font-style="normal" font-weight="bold" text-decoration="none" x="472.37451171875" y="562.5">rest</text></g></g><g transform="translate(-54,-46) scale(1,1)"><path fill="none" stroke="#000000" d="M 481 436 L 481 520" stroke-miterlimit="10"/></g><g transform="translate(-54,-46) scale(1,1)"><path fill="#C0C0C0" stroke="none" d="M 822.7099609375 530.5 C 822.7099609375 524.1487248 827.8586857375 519 834.2099609375 519 C 840.5612361375 519 845.7099609375 524.1487248 845.7099609375 530.5 C 845.7099609375 536.8512752 840.5612361375 542 834.2099609375 542 C 827.8586857375 542 822.7099609375 536.8512752 822.7099609375 530.5 Z" opacity="0.2"/></g><g transform="translate(-54,-46) scale(1,1)"><path fill="#ffffff" stroke="none" d="M 815.7099609375 523.5 C 815.7099609375 517.1487248 820.8586857375 512 827.2099609375 512 C 833.5612361375 512 838.7099609375 517.1487248 838.7099609375 523.5 C 838.7099609375 529.8512752 833.5612361375 535 827.2099609375 535 C 820.8586857375 535 815.7099609375 529.8512752 815.7099609375 523.5 Z"/></g><g transform="translate(-54,-46) scale(1,1)"><path fill="none" stroke="#000000" d="M 815.7099609375 523.5 C 815.7099609375 517.1487248 820.8586857375 512 827.2099609375 512 C 833.5612361375 512 838.7099609375 517.1487248 838.7099609375 523.5 C 838.7099609375 529.8512752 833.5612361375 535 827.2099609375 535 C 820.8586857375 535 815.7099609375 529.8512752 815.7099609375 523.5 Z" stroke-miterlimit="10"/></g><g transform="translate(-54,-46) scale(1,1)"><g><path fill="none" stroke="none"/><text fill="#000000" stroke="none" font-family="Arial" font-size="13px" font-style="normal" font-weight="bold" text-decoration="none" x="808.424072265625" y="554.5">socket</text></g></g><g transform="translate(-54,-46) scale(1,1)"><path fill="none" stroke="#000000" d="M 827 436 L 827 512" stroke-miterlimit="10"/></g></g></svg>