<svg version="1.1" xmlns="http://www.w3.org/2000/svg" xmlns:xlink="http://www.w3.org/1999/xlink" width="844" height="284"><defs/><g><g transform="translate(-238,-222) scale(1,1)"><path fill="#C0C0C0" stroke="none" d="M 343 249 L 578.5380859375 249 L 578.5380859375 366 L 343 366" opacity="0.2"/></g><g transform="translate(-238,-222) scale(1,1)"><path fill="#C0C0C0" stroke="none" d="M 343 249 L 353 239 L 588.5380859375 239 L 578.5380859375 249" opacity="0.2"/></g><g transform="translate(-238,-222) scale(1,1)"><path fill="#C0C0C0" stroke="none" d="M 588.5380859375 239 L 578.5380859375 249 L 578.5380859375 366 L 588.5380859375 356" opacity="0.2"/></g><g transform="translate(-238,-222) scale(1,1)"><path fill="#ffffff" stroke="none" d="M 336 242 L 571.5380859375 242 L 571.5380859375 359 L 336 359"/></g><g transform="translate(-238,-222) scale(1,1)"><path fill="#ffffff" stroke="none" d="M 336 242 L 346 232 L 581.5380859375 232 L 571.5380859375 242"/></g><g transform="translate(-238,-222) scale(1,1)"><path fill="#ffffff" stroke="none" d="M 581.5380859375 232 L 571.5380859375 242 L 571.5380859375 359 L 581.5380859375 349"/></g><g transform="translate(-238,-222) scale(1,1)"><path fill="none" stroke="#000000" d="M 336 242 L 571.5380859375 242 L 571.5380859375 359 L 336 359 L 336 242" stroke-miterlimit="10"/></g><g transform="translate(-238,-222) scale(1,1)"><path fill="none" stroke="#000000" d="M 336 242 L 346 232 L 581.5380859375 232 L 571.5380859375 242 L 336 242" stroke-miterlimit="10"/></g><g transform="translate(-238,-222) scale(1,1)"><path fill="none" stroke="#000000" d="M 581.5380859375 232 L 571.5380859375 242 L 571.5380859375 359 L 581.5380859375 349 L 581.5380859375 232" stroke-miterlimit="10"/></g><g transform="translate(-238,-222) scale(1,1)"><g><path fill="none" stroke="none"/><text fill="#000000" stroke="none" font-family="Arial" font-size="13px" font-style="normal" font-weight="normal" text-decoration="none" x="428.97998046875" y="259.5">«server»</text></g></g><g transform="translate(-238,-222) scale(1,1)"><g><path fill="none" stroke="none"/><text fill="#000000" stroke="none" font-family="Arial" font-size="13px" font-style="normal" font-weight="bold" text-decoration="none" x="350.564208984375" y="274.5">notification.esibank.inside.esiag.info</text></g></g><g transform="translate(-238,-222) scale(1,1)"><rect fill="#C0C0C0" stroke="none" x="401" y="303" width="132.41357421875" height="44" opacity="0.2"/></g><g transform="translate(-238,-222) scale(1,1)"><rect fill="#ffffff" stroke="none" x="394" y="296" width="132.41357421875" height="44"/></g><g transform="translate(-238,-222) scale(1,1)"><path fill="none" stroke="#000000" d="M 394 296 L 526.41357421875 296 L 526.41357421875 340 L 394 340 L 394 296 Z Z" stroke-miterlimit="10"/></g><g transform="translate(-238,-222) scale(1,1)"><rect fill="#ffffff" stroke="none" x="384" y="303" width="20" height="10"/></g><g transform="translate(-238,-222) scale(1,1)"><path fill="none" stroke="#000000" d="M 384 303 L 404 303 L 404 313 L 384 313 L 384 303 Z Z" stroke-miterlimit="10"/></g><g transform="translate(-238,-222) scale(1,1)"><rect fill="#ffffff" stroke="none" x="384" y="323" width="20" height="10"/></g><g transform="translate(-238,-222) scale(1,1)"><path fill="none" stroke="#000000" d="M 384 323 L 404 323 L 404 333 L 384 333 L 384 323 Z Z" stroke-miterlimit="10"/></g><g transform="translate(-238,-222) scale(1,1)"><g><path fill="none" stroke="none"/><text fill="#000000" stroke="none" font-family="Arial" font-size="13px" font-style="normal" font-weight="normal" text-decoration="none" x="450.753173828125" y="313.5">«jar»</text></g></g><g transform="translate(-238,-222) scale(1,1)"><g><path fill="none" stroke="none"/><text fill="#000000" stroke="none" font-family="Arial" font-size="13px" font-style="normal" font-weight="bold" text-decoration="none" x="413.908203125" y="328.5">notification-server</text></g></g><g transform="translate(-238,-222) scale(1,1)"><path fill="#C0C0C0" stroke="none" d="M 343 385 L 580 385 L 580 502 L 343 502" opacity="0.2"/></g><g transform="translate(-238,-222) scale(1,1)"><path fill="#C0C0C0" stroke="none" d="M 343 385 L 353 375 L 590 375 L 580 385" opacity="0.2"/></g><g transform="translate(-238,-222) scale(1,1)"><path fill="#C0C0C0" stroke="none" d="M 590 375 L 580 385 L 580 502 L 590 492" opacity="0.2"/></g><g transform="translate(-238,-222) scale(1,1)"><path fill="#ffffff" stroke="none" d="M 336 378 L 573 378 L 573 495 L 336 495"/></g><g transform="translate(-238,-222) scale(1,1)"><path fill="#ffffff" stroke="none" d="M 336 378 L 346 368 L 583 368 L 573 378"/></g><g transform="translate(-238,-222) scale(1,1)"><path fill="#ffffff" stroke="none" d="M 583 368 L 573 378 L 573 495 L 583 485"/></g><g transform="translate(-238,-222) scale(1,1)"><path fill="none" stroke="#000000" d="M 336 378 L 573 378 L 573 495 L 336 495 L 336 378" stroke-miterlimit="10"/></g><g transform="translate(-238,-222) scale(1,1)"><path fill="none" stroke="#000000" d="M 336 378 L 346 368 L 583 368 L 573 378 L 336 378" stroke-miterlimit="10"/></g><g transform="translate(-238,-222) scale(1,1)"><path fill="none" stroke="#000000" d="M 583 368 L 573 378 L 573 495 L 583 485 L 583 368" stroke-miterlimit="10"/></g><g transform="translate(-238,-222) scale(1,1)"><g><path fill="none" stroke="none"/><text fill="#000000" stroke="none" font-family="Arial" font-size="13px" font-style="normal" font-weight="normal" text-decoration="none" x="429.7109375" y="395.5">«server»</text></g></g><g transform="translate(-238,-222) scale(1,1)"><g><path fill="none" stroke="none"/><text fill="#000000" stroke="none" font-family="Arial" font-size="13px" font-style="normal" font-weight="bold" text-decoration="none" x="368.275146484375" y="410.5">push.esibank.inside.esiag.info</text></g></g><g transform="translate(-238,-222) scale(1,1)"><rect fill="#C0C0C0" stroke="none" x="385" y="433" width="167.79541015625" height="44" opacity="0.2"/></g><g transform="translate(-238,-222) scale(1,1)"><rect fill="#ffffff" stroke="none" x="378" y="426" width="167.79541015625" height="44"/></g><g transform="translate(-238,-222) scale(1,1)"><path fill="none" stroke="#000000" d="M 378 426 L 545.79541015625 426 L 545.79541015625 470 L 378 470 L 378 426 Z Z" stroke-miterlimit="10"/></g><g transform="translate(-238,-222) scale(1,1)"><rect fill="#ffffff" stroke="none" x="368" y="433" width="20" height="10"/></g><g transform="translate(-238,-222) scale(1,1)"><path fill="none" stroke="#000000" d="M 368 433 L 388 433 L 388 443 L 368 443 L 368 433 Z Z" stroke-miterlimit="10"/></g><g transform="translate(-238,-222) scale(1,1)"><rect fill="#ffffff" stroke="none" x="368" y="453" width="20" height="10"/></g><g transform="translate(-238,-222) scale(1,1)"><path fill="none" stroke="#000000" d="M 368 453 L 388 453 L 388 463 L 368 463 L 368 453 Z Z" stroke-miterlimit="10"/></g><g transform="translate(-238,-222) scale(1,1)"><g><path fill="none" stroke="none"/><text fill="#000000" stroke="none" font-family="Arial" font-size="13px" font-style="normal" font-weight="normal" text-decoration="none" x="452.444091796875" y="443.5">«jar»</text></g></g><g transform="translate(-238,-222) scale(1,1)"><g><path fill="none" stroke="none"/><text fill="#000000" stroke="none" font-family="Arial" font-size="13px" font-style="normal" font-weight="bold" text-decoration="none" x="399.339599609375" y="458.5">notification-push-server</text></g></g><g transform="translate(-238,-222) scale(1,1)"><path fill="#C0C0C0" stroke="none" d="M 831 249 L 1068 249 L 1068 502 L 831 502" opacity="0.2"/></g><g transform="translate(-238,-222) scale(1,1)"><path fill="#C0C0C0" stroke="none" d="M 831 249 L 841 239 L 1078 239 L 1068 249" opacity="0.2"/></g><g transform="translate(-238,-222) scale(1,1)"><path fill="#C0C0C0" stroke="none" d="M 1078 239 L 1068 249 L 1068 502 L 1078 492" opacity="0.2"/></g><g transform="translate(-238,-222) scale(1,1)"><path fill="#ffffff" stroke="none" d="M 824 242 L 1061 242 L 1061 495 L 824 495"/></g><g transform="translate(-238,-222) scale(1,1)"><path fill="#ffffff" stroke="none" d="M 824 242 L 834 232 L 1071 232 L 1061 242"/></g><g transform="translate(-238,-222) scale(1,1)"><path fill="#ffffff" stroke="none" d="M 1071 232 L 1061 242 L 1061 495 L 1071 485"/></g><g transform="translate(-238,-222) scale(1,1)"><path fill="none" stroke="#000000" d="M 824 242 L 1061 242 L 1061 495 L 824 495 L 824 242" stroke-miterlimit="10"/></g><g transform="translate(-238,-222) scale(1,1)"><path fill="none" stroke="#000000" d="M 824 242 L 834 232 L 1071 232 L 1061 242 L 824 242" stroke-miterlimit="10"/></g><g transform="translate(-238,-222) scale(1,1)"><path fill="none" stroke="#000000" d="M 1071 232 L 1061 242 L 1061 495 L 1071 485 L 1071 232" stroke-miterlimit="10"/></g><g transform="translate(-238,-222) scale(1,1)"><g><path fill="none" stroke="none"/><text fill="#000000" stroke="none" font-family="Arial" font-size="13px" font-style="normal" font-weight="normal" text-decoration="none" x="917.7109375" y="259.5">«server»</text></g></g><g transform="translate(-238,-222) scale(1,1)"><g><path fill="none" stroke="none"/><text fill="#000000" stroke="none" font-family="Arial" font-size="13px" font-style="normal" font-weight="bold" text-decoration="none" x="855.926025390625" y="274.5">mom.esiabnk.inside.esaig.info</text></g></g><g transform="translate(-238,-222) scale(1,1)"><rect fill="#C0C0C0" stroke="none" x="905" y="343" width="123.75537109375" height="44" opacity="0.2"/></g><g transform="translate(-238,-222) scale(1,1)"><rect fill="#ffffff" stroke="none" x="898" y="336" width="123.75537109375" height="44"/></g><g transform="translate(-238,-222) scale(1,1)"><path fill="none" stroke="#000000" d="M 898 336 L 1021.75537109375 336 L 1021.75537109375 380 L 898 380 L 898 336 Z Z" stroke-miterlimit="10"/></g><g transform="translate(-238,-222) scale(1,1)"><rect fill="#ffffff" stroke="none" x="888" y="343" width="20" height="10"/></g><g transform="translate(-238,-222) scale(1,1)"><path fill="none" stroke="#000000" d="M 888 343 L 908 343 L 908 353 L 888 353 L 888 343 Z Z" stroke-miterlimit="10"/></g><g transform="translate(-238,-222) scale(1,1)"><rect fill="#ffffff" stroke="none" x="888" y="363" width="20" height="10"/></g><g transform="translate(-238,-222) scale(1,1)"><path fill="none" stroke="#000000" d="M 888 363 L 908 363 L 908 373 L 888 373 L 888 363 Z Z" stroke-miterlimit="10"/></g><g transform="translate(-238,-222) scale(1,1)"><g><path fill="none" stroke="none"/><text fill="#000000" stroke="none" font-family="Arial" font-size="13px" font-style="normal" font-weight="normal" text-decoration="none" x="946.802734375" y="353.5">«app»</text></g></g><g transform="translate(-238,-222) scale(1,1)"><g><path fill="none" stroke="none"/><text fill="#000000" stroke="none" font-family="Arial" font-size="13px" font-style="normal" font-weight="bold" text-decoration="none" x="913.931396484375" y="368.5">RabbitMQ_3.6.14</text></g></g><g transform="translate(-238,-222) scale(1,1)"><path fill="#C0C0C0" stroke="none" d="M 726.7099609375 362.5 C 726.7099609375 356.1487248 731.8586857375 351 738.2099609375 351 C 744.5612361375 351 749.7099609375 356.1487248 749.7099609375 362.5 C 749.7099609375 368.8512752 744.5612361375 374 738.2099609375 374 C 731.8586857375 374 726.7099609375 368.8512752 726.7099609375 362.5 Z" opacity="0.2"/></g><g transform="translate(-238,-222) scale(1,1)"><path fill="none" stroke="#000000" d="M 731 366.5 A 11.5 11.5 0 0 1 731 343.5" stroke-miterlimit="10"/></g><g transform="translate(-238,-222) scale(1,1)"><path fill="none" stroke="#000000" d="M 719.5 355 A 11.5 11.5 0 0 1 742.5 355" stroke-miterlimit="10"/></g><g transform="translate(-238,-222) scale(1,1)"><path fill="#ffffff" stroke="none" d="M 722.7099609375 355.5 C 722.7099609375 350.8055792 726.5155401375 347 731.2099609375 347 C 735.9043817375 347 739.7099609375 350.8055792 739.7099609375 355.5 C 739.7099609375 360.1944208 735.9043817375 364 731.2099609375 364 C 726.5155401375 364 722.7099609375 360.1944208 722.7099609375 355.5 Z"/></g><g transform="translate(-238,-222) scale(1,1)"><path fill="none" stroke="#000000" d="M 722.7099609375 355.5 C 722.7099609375 350.8055792 726.5155401375 347 731.2099609375 347 C 735.9043817375 347 739.7099609375 350.8055792 739.7099609375 355.5 C 739.7099609375 360.1944208 735.9043817375 364 731.2099609375 364 C 726.5155401375 364 722.7099609375 360.1944208 722.7099609375 355.5 Z" stroke-miterlimit="10"/></g><g transform="translate(-238,-222) scale(1,1)"><g><path fill="none" stroke="none"/><text fill="#000000" stroke="none" font-family="Arial" font-size="13px" font-style="normal" font-weight="bold" text-decoration="none" x="714.950439453125" y="386.5">ampq</text></g></g><g transform="translate(-238,-222) scale(1,1)"><path fill="none" stroke="#000000" d="M 888 355 L 742.7099609375 355" stroke-miterlimit="10"/></g><g transform="translate(-238,-222) scale(1,1)"><g><path fill="none" stroke="none"/><text fill="#000000" stroke="none" font-family="Arial" font-size="13px" font-style="normal" font-weight="normal" text-decoration="none" x="772" y="376">+5673</text></g></g><g transform="translate(-238,-222) scale(1,1)"><path fill="#C0C0C0" stroke="none" d="M 273.33544921875 322.5 C 273.33544921875 316.1487248 278.48417401875 311 284.83544921875 311 C 291.18672441875 311 296.33544921875 316.1487248 296.33544921875 322.5 C 296.33544921875 328.8512752 291.18672441875 334 284.83544921875 334 C 278.48417401875 334 273.33544921875 328.8512752 273.33544921875 322.5 Z" opacity="0.2"/></g><g transform="translate(-238,-222) scale(1,1)"><path fill="#ffffff" stroke="none" d="M 266.33544921875 315.5 C 266.33544921875 309.1487248 271.48417401875 304 277.83544921875 304 C 284.18672441875 304 289.33544921875 309.1487248 289.33544921875 315.5 C 289.33544921875 321.8512752 284.18672441875 327 277.83544921875 327 C 271.48417401875 327 266.33544921875 321.8512752 266.33544921875 315.5 Z"/></g><g transform="translate(-238,-222) scale(1,1)"><path fill="none" stroke="#000000" d="M 266.33544921875 315.5 C 266.33544921875 309.1487248 271.48417401875 304 277.83544921875 304 C 284.18672441875 304 289.33544921875 309.1487248 289.33544921875 315.5 C 289.33544921875 321.8512752 284.18672441875 327 277.83544921875 327 C 271.48417401875 327 266.33544921875 321.8512752 266.33544921875 315.5 Z" stroke-miterlimit="10"/></g><g transform="translate(-238,-222) scale(1,1)"><g><path fill="none" stroke="none"/><text fill="#000000" stroke="none" font-family="Arial" font-size="13px" font-style="normal" font-weight="bold" text-decoration="none" x="267" y="346.5">rest</text></g></g><g transform="translate(-238,-222) scale(1,1)"><path fill="none" stroke="#000000" d="M 384 315.53632387907606 L 289.33544921875 315.53632387907606" stroke-miterlimit="10"/></g><g transform="translate(-238,-222) scale(1,1)"><path fill="#C0C0C0" stroke="none" d="M 275.08544921875 450.5 C 275.08544921875 444.1487248 280.23417401875 439 286.58544921875 439 C 292.93672441875 439 298.08544921875 444.1487248 298.08544921875 450.5 C 298.08544921875 456.8512752 292.93672441875 462 286.58544921875 462 C 280.23417401875 462 275.08544921875 456.8512752 275.08544921875 450.5 Z" opacity="0.2"/></g><g transform="translate(-238,-222) scale(1,1)"><path fill="#ffffff" stroke="none" d="M 268.08544921875 443.5 C 268.08544921875 437.1487248 273.23417401875 432 279.58544921875 432 C 285.93672441875 432 291.08544921875 437.1487248 291.08544921875 443.5 C 291.08544921875 449.8512752 285.93672441875 455 279.58544921875 455 C 273.23417401875 455 268.08544921875 449.8512752 268.08544921875 443.5 Z"/></g><g transform="translate(-238,-222) scale(1,1)"><path fill="none" stroke="#000000" d="M 268.08544921875 443.5 C 268.08544921875 437.1487248 273.23417401875 432 279.58544921875 432 C 285.93672441875 432 291.08544921875 437.1487248 291.08544921875 443.5 C 291.08544921875 449.8512752 285.93672441875 455 279.58544921875 455 C 273.23417401875 455 268.08544921875 449.8512752 268.08544921875 443.5 Z" stroke-miterlimit="10"/></g><g transform="translate(-238,-222) scale(1,1)"><g><path fill="none" stroke="none"/><text fill="#000000" stroke="none" font-family="Arial" font-size="13px" font-style="normal" font-weight="bold" text-decoration="none" x="260.799560546875" y="474.5">socket</text></g></g><g transform="translate(-238,-222) scale(1,1)"><path fill="none" stroke="#000000" d="M 368 443 L 291.08544921875 443" stroke-miterlimit="10"/></g><g transform="translate(-238,-222) scale(1,1)"><path fill="none" stroke="#000000" d="M 546 448 L 664 448 L 664 355 L 719.7099609375 355" stroke-miterlimit="10"/></g><g transform="translate(-238,-222) scale(1,1)"><path fill="none" stroke="#000000" d="M 526 320 L 731 320 L 731 344" stroke-miterlimit="10"/></g><g transform="translate(-238,-222) scale(1,1)"><rect fill="#C0C0C0" stroke="none" x="913" y="423" width="98.44091796875" height="44" opacity="0.2"/></g><g transform="translate(-238,-222) scale(1,1)"><rect fill="#ffffff" stroke="none" x="906" y="416" width="98.44091796875" height="44"/></g><g transform="translate(-238,-222) scale(1,1)"><path fill="none" stroke="#000000" d="M 906 416 L 1004.44091796875 416 L 1004.44091796875 460 L 906 460 L 906 416 Z Z" stroke-miterlimit="10"/></g><g transform="translate(-238,-222) scale(1,1)"><rect fill="#ffffff" stroke="none" x="896" y="423" width="20" height="10"/></g><g transform="translate(-238,-222) scale(1,1)"><path fill="none" stroke="#000000" d="M 896 423 L 916 423 L 916 433 L 896 433 L 896 423 Z Z" stroke-miterlimit="10"/></g><g transform="translate(-238,-222) scale(1,1)"><rect fill="#ffffff" stroke="none" x="896" y="443" width="20" height="10"/></g><g transform="translate(-238,-222) scale(1,1)"><path fill="none" stroke="#000000" d="M 896 443 L 916 443 L 916 453 L 896 453 L 896 443 Z Z" stroke-miterlimit="10"/></g><g transform="translate(-238,-222) scale(1,1)"><g><path fill="none" stroke="none"/><text fill="#000000" stroke="none" font-family="Arial" font-size="13px" font-style="normal" font-weight="normal" text-decoration="none" x="942.1455078125" y="433.5">«app»</text></g></g><g transform="translate(-238,-222) scale(1,1)"><g><path fill="none" stroke="none"/><text fill="#000000" stroke="none" font-family="Arial" font-size="13px" font-style="normal" font-weight="bold" text-decoration="none" x="925.16552734375" y="448.5">Erlang_20.1</text></g></g><g transform="translate(-238,-222) scale(1,1)"><path fill="none" stroke="#000000" d="M 955 380 L 955 416" stroke-miterlimit="10" stroke-dasharray="3"/></g><g transform="translate(-238,-222) scale(1,1)"><path fill="none" stroke="#000000" d="M 950.790482243984 405.83732514237585 L 955 416 L 959.209517756016 405.83732514237585" stroke-miterlimit="10"/></g></g></svg>