<svg version="1.1" xmlns="http://www.w3.org/2000/svg" xmlns:xlink="http://www.w3.org/1999/xlink" width="1075.8544921875" height="300"><defs/><g><g transform="translate(-38,-46) scale(1,1)"><rect fill="#C0C0C0" stroke="none" x="191" y="63" width="808" height="280" opacity="0.2"/></g><g transform="translate(-38,-46) scale(1,1)"><rect fill="#ffffff" stroke="none" x="184" y="56" width="808" height="280"/></g><g transform="translate(-38,-46) scale(1,1)"><path fill="none" stroke="#000000" d="M 184 56 L 992 56 L 992 336 L 184 336 L 184 56 Z Z" stroke-miterlimit="10"/></g><g transform="translate(-38,-46) scale(1,1)"><g><path fill="none" stroke="none"/><text fill="#000000" stroke="none" font-family="Arial" font-size="13px" font-style="normal" font-weight="bold" text-decoration="none" x="443.10205078125" y="75.5">Envoyer une notifciation push à un mobile Android</text></g></g><g transform="translate(-38,-46) scale(1,1)"><path fill="#ffffff" stroke="none" d="M 89.33342258522727 169.68 C 89.33342258522727 164.886167936 93.21926491017273 161 98.0126953125 161 C 102.80612571482727 161 106.69196803977273 164.886167936 106.69196803977273 169.68 C 106.69196803977273 174.47383206400002 102.80612571482727 178.36 98.0126953125 178.36 C 93.21926491017273 178.36 89.33342258522727 174.47383206400002 89.33342258522727 169.68 Z"/></g><g transform="translate(-38,-46) scale(1,1)"><path fill="none" stroke="#000000" d="M 89.33342258522727 169.68 C 89.33342258522727 164.886167936 93.21926491017273 161 98.0126953125 161 C 102.80612571482727 161 106.69196803977273 164.886167936 106.69196803977273 169.68 C 106.69196803977273 174.47383206400002 102.80612571482727 178.36 98.0126953125 178.36 C 93.21926491017273 178.36 89.33342258522727 174.47383206400002 89.33342258522727 169.68 Z" stroke-miterlimit="10"/></g><g transform="translate(-38,-46) scale(1,1)"><path fill="none" stroke="#000000" d="M 98.0126953125 178.36 L 98.0126953125 195.64" stroke-miterlimit="10"/></g><g transform="translate(-38,-46) scale(1,1)"><path fill="none" stroke="#000000" d="M 88.82287713068182 184.84 L 107.20251349431818 184.84" stroke-miterlimit="10"/></g><g transform="translate(-38,-46) scale(1,1)"><path fill="none" stroke="#000000" d="M 98.0126953125 195.64 L 85.24905894886363 213" stroke-miterlimit="10"/></g><g transform="translate(-38,-46) scale(1,1)"><path fill="none" stroke="#000000" d="M 98.0126953125 195.64 L 110.77633167613637 213" stroke-miterlimit="10"/></g><g transform="translate(-38,-46) scale(1,1)"><g><path fill="none" stroke="none"/><text fill="#000000" stroke="none" font-family="Arial" font-size="13px" font-style="normal" font-weight="bold" text-decoration="none" x="56.09912109375" y="233.5">AndoidService</text></g></g><g transform="translate(-38,-46) scale(1,1)"><path fill="#C0C0C0" stroke="none" d="M 263 208 C 263 198.6111584 325.68012799999997 191 403 191 C 480.31987200000003 191 543 198.6111584 543 208 C 543 217.3888416 480.31987200000003 225 403 225 C 325.68012799999997 225 263 217.3888416 263 208 Z" opacity="0.2"/></g><g transform="translate(-38,-46) scale(1,1)"><path fill="#ffffff" stroke="none" d="M 256 201 C 256 191.6111584 318.68012799999997 184 396 184 C 473.31987200000003 184 536 191.6111584 536 201 C 536 210.3888416 473.31987200000003 218 396 218 C 318.68012799999997 218 256 210.3888416 256 201 Z"/></g><g transform="translate(-38,-46) scale(1,1)"><path fill="none" stroke="#000000" d="M 256 201 C 256 191.6111584 318.68012799999997 184 396 184 C 473.31987200000003 184 536 191.6111584 536 201 C 536 210.3888416 473.31987200000003 218 396 218 C 318.68012799999997 218 256 210.3888416 256 201 Z" stroke-miterlimit="10"/></g><g transform="translate(-38,-46) scale(1,1)"><g><path fill="none" stroke="none"/><text fill="#000000" stroke="none" font-family="Arial" font-size="13px" font-style="normal" font-weight="bold" text-decoration="none" x="309.28466796875" y="208">Recevoir des notification push</text></g></g><g transform="translate(-38,-46) scale(1,1)"><path fill="none" stroke="#000000" d="M 149 199 L 255 200" stroke-miterlimit="10"/></g><g transform="translate(-38,-46) scale(1,1)"><path fill="#ffffff" stroke="none" d="M 1059.2479733664773 153.68 C 1059.2479733664773 148.886167936 1063.1338156914228 145 1067.92724609375 145 C 1072.7206764960772 145 1076.6065188210227 148.886167936 1076.6065188210227 153.68 C 1076.6065188210227 158.47383206400002 1072.7206764960772 162.36 1067.92724609375 162.36 C 1063.1338156914228 162.36 1059.2479733664773 158.47383206400002 1059.2479733664773 153.68 Z"/></g><g transform="translate(-38,-46) scale(1,1)"><path fill="none" stroke="#000000" d="M 1059.2479733664773 153.68 C 1059.2479733664773 148.886167936 1063.1338156914228 145 1067.92724609375 145 C 1072.7206764960772 145 1076.6065188210227 148.886167936 1076.6065188210227 153.68 C 1076.6065188210227 158.47383206400002 1072.7206764960772 162.36 1067.92724609375 162.36 C 1063.1338156914228 162.36 1059.2479733664773 158.47383206400002 1059.2479733664773 153.68 Z" stroke-miterlimit="10"/></g><g transform="translate(-38,-46) scale(1,1)"><path fill="none" stroke="#000000" d="M 1067.92724609375 162.36 L 1067.92724609375 179.64" stroke-miterlimit="10"/></g><g transform="translate(-38,-46) scale(1,1)"><path fill="none" stroke="#000000" d="M 1058.7374279119317 168.84 L 1077.1170642755683 168.84" stroke-miterlimit="10"/></g><g transform="translate(-38,-46) scale(1,1)"><path fill="none" stroke="#000000" d="M 1067.92724609375 179.64 L 1055.1636097301136 197" stroke-miterlimit="10"/></g><g transform="translate(-38,-46) scale(1,1)"><path fill="none" stroke="#000000" d="M 1067.92724609375 179.64 L 1080.6908824573864 197" stroke-miterlimit="10"/></g><g transform="translate(-38,-46) scale(1,1)"><g><path fill="none" stroke="none"/><text fill="#000000" stroke="none" font-family="Arial" font-size="13px" font-style="normal" font-weight="bold" text-decoration="none" x="1038.658203125" y="217.5">Scheduler</text></g></g><g transform="translate(-38,-46) scale(1,1)"><path fill="#C0C0C0" stroke="none" d="M 751 160 C 751 150.6111584 787.936504 143 833.5 143 C 879.063496 143 916 150.6111584 916 160 C 916 169.3888416 879.063496 177 833.5 177 C 787.936504 177 751 169.3888416 751 160 Z" opacity="0.2"/></g><g transform="translate(-38,-46) scale(1,1)"><path fill="#ffffff" stroke="none" d="M 744 153 C 744 143.6111584 780.936504 136 826.5 136 C 872.063496 136 909 143.6111584 909 153 C 909 162.3888416 872.063496 170 826.5 170 C 780.936504 170 744 162.3888416 744 153 Z"/></g><g transform="translate(-38,-46) scale(1,1)"><path fill="none" stroke="#000000" d="M 744 153 C 744 143.6111584 780.936504 136 826.5 136 C 872.063496 136 909 143.6111584 909 153 C 909 162.3888416 872.063496 170 826.5 170 C 780.936504 170 744 162.3888416 744 153 Z" stroke-miterlimit="10"/></g><g transform="translate(-38,-46) scale(1,1)"><g><path fill="none" stroke="none"/><text fill="#000000" stroke="none" font-family="Arial" font-size="13px" font-style="normal" font-weight="bold" text-decoration="none" x="775.912353515625" y="160">Generer un token</text></g></g><g transform="translate(-38,-46) scale(1,1)"><path fill="#C0C0C0" stroke="none" d="M 727 240 C 727 230.6111584 777.8156752 223 840.5 223 C 903.1843248 223 954 230.6111584 954 240 C 954 249.3888416 903.1843248 257 840.5 257 C 777.8156752 257 727 249.3888416 727 240 Z" opacity="0.2"/></g><g transform="translate(-38,-46) scale(1,1)"><path fill="#ffffff" stroke="none" d="M 720 233 C 720 223.6111584 770.8156752 216 833.5 216 C 896.1843248 216 947 223.6111584 947 233 C 947 242.3888416 896.1843248 250 833.5 250 C 770.8156752 250 720 242.3888416 720 233 Z"/></g><g transform="translate(-38,-46) scale(1,1)"><path fill="none" stroke="#000000" d="M 720 233 C 720 223.6111584 770.8156752 216 833.5 216 C 896.1843248 216 947 223.6111584 947 233 C 947 242.3888416 896.1843248 250 833.5 250 C 770.8156752 250 720 242.3888416 720 233 Z" stroke-miterlimit="10"/></g><g transform="translate(-38,-46) scale(1,1)"><g><path fill="none" stroke="none"/><text fill="#000000" stroke="none" font-family="Arial" font-size="13px" font-style="normal" font-weight="bold" text-decoration="none" x="764.123291015625" y="240">Envoyer une notification</text></g></g><g transform="translate(-38,-46) scale(1,1)"><path fill="none" stroke="#000000" d="M 910 163 L 1031 179" stroke-miterlimit="10"/></g><g transform="translate(-38,-46) scale(1,1)"><path fill="none" stroke="#000000" d="M 917 215 L 1031 191" stroke-miterlimit="10"/></g></g></svg>