<svg version="1.1" xmlns="http://www.w3.org/2000/svg" xmlns:xlink="http://www.w3.org/1999/xlink" width="944" height="384"><defs/><g><g transform="translate(-62,-118) scale(1,1)"><rect fill="#C0C0C0" stroke="none" x="233" y="351" width="209" height="44" opacity="0.2"/></g><g transform="translate(-62,-118) scale(1,1)"><rect fill="#ffffff" stroke="none" x="226" y="344" width="209" height="44"/></g><g transform="translate(-62,-118) scale(1,1)"><path fill="none" stroke="#000000" d="M 226 344 L 435 344 L 435 388 L 226 388 L 226 344 Z Z" stroke-miterlimit="10"/></g><g transform="translate(-62,-118) scale(1,1)"><rect fill="#ffffff" stroke="none" x="216" y="351" width="20" height="10"/></g><g transform="translate(-62,-118) scale(1,1)"><path fill="none" stroke="#000000" d="M 216 351 L 236 351 L 236 361 L 216 361 L 216 351 Z Z" stroke-miterlimit="10"/></g><g transform="translate(-62,-118) scale(1,1)"><rect fill="#ffffff" stroke="none" x="216" y="371" width="20" height="10"/></g><g transform="translate(-62,-118) scale(1,1)"><path fill="none" stroke="#000000" d="M 216 371 L 236 371 L 236 381 L 216 381 L 216 371 Z Z" stroke-miterlimit="10"/></g><g transform="translate(-62,-118) scale(1,1)"><g><path fill="none" stroke="none"/><text fill="#000000" stroke="none" font-family="Arial" font-size="13px" font-style="normal" font-weight="normal" text-decoration="none" x="321.5" y="361.5">«jar»</text></g></g><g transform="translate(-62,-118) scale(1,1)"><g><path fill="none" stroke="none"/><text fill="#000000" stroke="none" font-family="Arial" font-size="13px" font-style="normal" font-weight="bold" text-decoration="none" x="246" y="376.5">extract_load_transform_0_1.jar</text></g></g><g transform="translate(-62,-118) scale(1,1)"><rect fill="#C0C0C0" stroke="none" x="89" y="143" width="98" height="44" opacity="0.2"/></g><g transform="translate(-62,-118) scale(1,1)"><rect fill="#ffffff" stroke="none" x="82" y="136" width="98" height="44"/></g><g transform="translate(-62,-118) scale(1,1)"><path fill="none" stroke="#000000" d="M 82 136 L 180 136 L 180 180 L 82 180 L 82 136 Z Z" stroke-miterlimit="10"/></g><g transform="translate(-62,-118) scale(1,1)"><rect fill="#ffffff" stroke="none" x="72" y="143" width="20" height="10"/></g><g transform="translate(-62,-118) scale(1,1)"><path fill="none" stroke="#000000" d="M 72 143 L 92 143 L 92 153 L 72 153 L 72 143 Z Z" stroke-miterlimit="10"/></g><g transform="translate(-62,-118) scale(1,1)"><rect fill="#ffffff" stroke="none" x="72" y="163" width="20" height="10"/></g><g transform="translate(-62,-118) scale(1,1)"><path fill="none" stroke="#000000" d="M 72 163 L 92 163 L 92 173 L 72 173 L 72 163 Z Z" stroke-miterlimit="10"/></g><g transform="translate(-62,-118) scale(1,1)"><g><path fill="none" stroke="none"/><text fill="#000000" stroke="none" font-family="Arial" font-size="13px" font-style="normal" font-weight="normal" text-decoration="none" x="122" y="153.5">«jar»</text></g></g><g transform="translate(-62,-118) scale(1,1)"><g><path fill="none" stroke="none"/><text fill="#000000" stroke="none" font-family="Arial" font-size="13px" font-style="normal" font-weight="bold" text-decoration="none" x="102" y="168.5">dom4j-1.6.1</text></g></g><g transform="translate(-62,-118) scale(1,1)"><rect fill="#C0C0C0" stroke="none" x="97" y="239" width="98" height="44" opacity="0.2"/></g><g transform="translate(-62,-118) scale(1,1)"><rect fill="#ffffff" stroke="none" x="90" y="232" width="98" height="44"/></g><g transform="translate(-62,-118) scale(1,1)"><path fill="none" stroke="#000000" d="M 90 232 L 188 232 L 188 276 L 90 276 L 90 232 Z Z" stroke-miterlimit="10"/></g><g transform="translate(-62,-118) scale(1,1)"><rect fill="#ffffff" stroke="none" x="80" y="239" width="20" height="10"/></g><g transform="translate(-62,-118) scale(1,1)"><path fill="none" stroke="#000000" d="M 80 239 L 100 239 L 100 249 L 80 249 L 80 239 Z Z" stroke-miterlimit="10"/></g><g transform="translate(-62,-118) scale(1,1)"><rect fill="#ffffff" stroke="none" x="80" y="259" width="20" height="10"/></g><g transform="translate(-62,-118) scale(1,1)"><path fill="none" stroke="#000000" d="M 80 259 L 100 259 L 100 269 L 80 269 L 80 259 Z Z" stroke-miterlimit="10"/></g><g transform="translate(-62,-118) scale(1,1)"><g><path fill="none" stroke="none"/><text fill="#000000" stroke="none" font-family="Arial" font-size="13px" font-style="normal" font-weight="normal" text-decoration="none" x="130" y="249.5">«jar»</text></g></g><g transform="translate(-62,-118) scale(1,1)"><g><path fill="none" stroke="none"/><text fill="#000000" stroke="none" font-family="Arial" font-size="13px" font-style="normal" font-weight="bold" text-decoration="none" x="110.5" y="264.5">log4j-1.2.16</text></g></g><g transform="translate(-62,-118) scale(1,1)"><rect fill="#C0C0C0" stroke="none" x="489" y="231" width="216" height="44" opacity="0.2"/></g><g transform="translate(-62,-118) scale(1,1)"><rect fill="#ffffff" stroke="none" x="482" y="224" width="216" height="44"/></g><g transform="translate(-62,-118) scale(1,1)"><path fill="none" stroke="#000000" d="M 482 224 L 698 224 L 698 268 L 482 268 L 482 224 Z Z" stroke-miterlimit="10"/></g><g transform="translate(-62,-118) scale(1,1)"><rect fill="#ffffff" stroke="none" x="472" y="231" width="20" height="10"/></g><g transform="translate(-62,-118) scale(1,1)"><path fill="none" stroke="#000000" d="M 472 231 L 492 231 L 492 241 L 472 241 L 472 231 Z Z" stroke-miterlimit="10"/></g><g transform="translate(-62,-118) scale(1,1)"><rect fill="#ffffff" stroke="none" x="472" y="251" width="20" height="10"/></g><g transform="translate(-62,-118) scale(1,1)"><path fill="none" stroke="#000000" d="M 472 251 L 492 251 L 492 261 L 472 261 L 472 251 Z Z" stroke-miterlimit="10"/></g><g transform="translate(-62,-118) scale(1,1)"><g><path fill="none" stroke="none"/><text fill="#000000" stroke="none" font-family="Arial" font-size="13px" font-style="normal" font-weight="normal" text-decoration="none" x="581" y="241.5">«jar»</text></g></g><g transform="translate(-62,-118) scale(1,1)"><g><path fill="none" stroke="none"/><text fill="#000000" stroke="none" font-family="Arial" font-size="13px" font-style="normal" font-weight="bold" text-decoration="none" x="502.5" y="256.5">mysql-connector-java-5.1.30-bin</text></g></g><g transform="translate(-62,-118) scale(1,1)"><rect fill="#C0C0C0" stroke="none" x="489" y="135" width="98" height="44" opacity="0.2"/></g><g transform="translate(-62,-118) scale(1,1)"><rect fill="#ffffff" stroke="none" x="482" y="128" width="98" height="44"/></g><g transform="translate(-62,-118) scale(1,1)"><path fill="none" stroke="#000000" d="M 482 128 L 580 128 L 580 172 L 482 172 L 482 128 Z Z" stroke-miterlimit="10"/></g><g transform="translate(-62,-118) scale(1,1)"><rect fill="#ffffff" stroke="none" x="472" y="135" width="20" height="10"/></g><g transform="translate(-62,-118) scale(1,1)"><path fill="none" stroke="#000000" d="M 472 135 L 492 135 L 492 145 L 472 145 L 472 135 Z Z" stroke-miterlimit="10"/></g><g transform="translate(-62,-118) scale(1,1)"><rect fill="#ffffff" stroke="none" x="472" y="155" width="20" height="10"/></g><g transform="translate(-62,-118) scale(1,1)"><path fill="none" stroke="#000000" d="M 472 155 L 492 155 L 492 165 L 472 165 L 472 155 Z Z" stroke-miterlimit="10"/></g><g transform="translate(-62,-118) scale(1,1)"><g><path fill="none" stroke="none"/><text fill="#000000" stroke="none" font-family="Arial" font-size="13px" font-style="normal" font-weight="normal" text-decoration="none" x="522" y="145.5">«jar»</text></g></g><g transform="translate(-62,-118) scale(1,1)"><g><path fill="none" stroke="none"/><text fill="#000000" stroke="none" font-family="Arial" font-size="13px" font-style="normal" font-weight="bold" text-decoration="none" x="513" y="160.5">routines</text></g></g><g transform="translate(-62,-118) scale(1,1)"><path fill="none" stroke="#000000" d="M 272 344 L 272 248 L 188 248" stroke-miterlimit="10" stroke-dasharray="3"/></g><g transform="translate(-62,-118) scale(1,1)"><path fill="none" stroke="#000000" d="M 198.16267485762415 243.790482243984 L 188 248 L 198.16267485762415 252.209517756016" stroke-miterlimit="10"/></g><g transform="translate(-62,-118) scale(1,1)"><path fill="none" stroke="#000000" d="M 304 344 L 304 152 L 180 152" stroke-miterlimit="10" stroke-dasharray="3"/></g><g transform="translate(-62,-118) scale(1,1)"><path fill="none" stroke="#000000" d="M 190.16267485762415 147.790482243984 L 180 152 L 190.16267485762415 156.209517756016" stroke-miterlimit="10"/></g><g transform="translate(-62,-118) scale(1,1)"><path fill="none" stroke="#000000" d="M 384 344 L 384 144 L 472 144" stroke-miterlimit="10" stroke-dasharray="3"/></g><g transform="translate(-62,-118) scale(1,1)"><path fill="none" stroke="#000000" d="M 461.83732514237585 148.209517756016 L 472 144 L 461.83732514237585 139.790482243984" stroke-miterlimit="10"/></g><g transform="translate(-62,-118) scale(1,1)"><path fill="none" stroke="#000000" d="M 416 344 L 416 248 L 472 248" stroke-miterlimit="10" stroke-dasharray="3"/></g><g transform="translate(-62,-118) scale(1,1)"><path fill="none" stroke="#000000" d="M 461.83732514237585 252.209517756016 L 472 248 L 461.83732514237585 243.790482243984" stroke-miterlimit="10"/></g><g transform="translate(-62,-118) scale(1,1)"><rect fill="#C0C0C0" stroke="none" x="553" y="351" width="98" height="44" opacity="0.2"/></g><g transform="translate(-62,-118) scale(1,1)"><rect fill="#ffffff" stroke="none" x="546" y="344" width="98" height="44"/></g><g transform="translate(-62,-118) scale(1,1)"><path fill="none" stroke="#000000" d="M 546 344 L 644 344 L 644 388 L 546 388 L 546 344 Z Z" stroke-miterlimit="10"/></g><g transform="translate(-62,-118) scale(1,1)"><rect fill="#ffffff" stroke="none" x="536" y="351" width="20" height="10"/></g><g transform="translate(-62,-118) scale(1,1)"><path fill="none" stroke="#000000" d="M 536 351 L 556 351 L 556 361 L 536 361 L 536 351 Z Z" stroke-miterlimit="10"/></g><g transform="translate(-62,-118) scale(1,1)"><rect fill="#ffffff" stroke="none" x="536" y="371" width="20" height="10"/></g><g transform="translate(-62,-118) scale(1,1)"><path fill="none" stroke="#000000" d="M 536 371 L 556 371 L 556 381 L 536 381 L 536 371 Z Z" stroke-miterlimit="10"/></g><g transform="translate(-62,-118) scale(1,1)"><g><path fill="none" stroke="none"/><text fill="#000000" stroke="none" font-family="Arial" font-size="13px" font-style="normal" font-weight="bold" text-decoration="none" x="571" y="363.5">JRE-1.8.0</text></g></g><g transform="translate(-62,-118) scale(1,1)"><path fill="none" stroke="#000000" d="M 436 366 L 535 366" stroke-miterlimit="10" stroke-dasharray="3"/></g><g transform="translate(-62,-118) scale(1,1)"><path fill="none" stroke="#000000" d="M 524.8373251423759 370.209517756016 L 535 366 L 524.8373251423758 361.790482243984" stroke-miterlimit="10"/></g><g transform="translate(-62,-118) scale(1,1)"><rect fill="#C0C0C0" stroke="none" x="217" y="455" width="236" height="44" opacity="0.2"/></g><g transform="translate(-62,-118) scale(1,1)"><rect fill="#ffffff" stroke="none" x="210" y="448" width="236" height="44"/></g><g transform="translate(-62,-118) scale(1,1)"><path fill="none" stroke="#000000" d="M 210 448 L 446 448 L 446 492 L 210 492 L 210 448 Z Z" stroke-miterlimit="10"/></g><g transform="translate(-62,-118) scale(1,1)"><rect fill="#ffffff" stroke="none" x="200" y="455" width="20" height="10"/></g><g transform="translate(-62,-118) scale(1,1)"><path fill="none" stroke="#000000" d="M 200 455 L 220 455 L 220 465 L 200 465 L 200 455 Z Z" stroke-miterlimit="10"/></g><g transform="translate(-62,-118) scale(1,1)"><rect fill="#ffffff" stroke="none" x="200" y="475" width="20" height="10"/></g><g transform="translate(-62,-118) scale(1,1)"><path fill="none" stroke="#000000" d="M 200 475 L 220 475 L 220 485 L 200 485 L 200 475 Z Z" stroke-miterlimit="10"/></g><g transform="translate(-62,-118) scale(1,1)"><g><path fill="none" stroke="none"/><text fill="#000000" stroke="none" font-family="Arial" font-size="13px" font-style="normal" font-weight="normal" text-decoration="none" x="294.5" y="465.5">«shell script»</text></g></g><g transform="translate(-62,-118) scale(1,1)"><g><path fill="none" stroke="none"/><text fill="#000000" stroke="none" font-family="Arial" font-size="13px" font-style="normal" font-weight="bold" text-decoration="none" x="231" y="480.5">extract_load_transform_0_1_run.sh</text></g></g><g transform="translate(-62,-118) scale(1,1)"><path fill="none" stroke="#000000" d="M 323 447 L 325 389" stroke-miterlimit="10" stroke-dasharray="3"/></g><g transform="translate(-62,-118) scale(1,1)"><path fill="none" stroke="#000000" d="M 328.8567883955344 399.30170778424974 L 325 389 L 320.44275379603874 399.01156866012917" stroke-miterlimit="10"/></g><g transform="translate(-62,-118) scale(1,1)"><path fill="#C0C0C0" stroke="none" d="M 766 250.5 C 766 244.1487248 771.1487248 239 777.5 239 C 783.8512752 239 789 244.1487248 789 250.5 C 789 256.8512752 783.8512752 262 777.5 262 C 771.1487248 262 766 256.8512752 766 250.5 Z" opacity="0.2"/></g><g transform="translate(-62,-118) scale(1,1)"><path fill="none" stroke="#000000" d="M 773.3605131593887 232.0019569329096 A 11.5 11.5 0 0 1 766.6394868406113 253.9980430670904" stroke-miterlimit="10"/></g><g transform="translate(-62,-118) scale(1,1)"><path fill="#ffffff" stroke="none" d="M 762 243.5 C 762 238.8055792 765.8055792 235 770.5 235 C 775.1944208 235 779 238.8055792 779 243.5 C 779 248.1944208 775.1944208 252 770.5 252 C 765.8055792 252 762 248.1944208 762 243.5 Z"/></g><g transform="translate(-62,-118) scale(1,1)"><path fill="none" stroke="#000000" d="M 762 243.5 C 762 238.8055792 765.8055792 235 770.5 235 C 775.1944208 235 779 238.8055792 779 243.5 C 779 248.1944208 775.1944208 252 770.5 252 C 765.8055792 252 762 248.1944208 762 243.5 Z" stroke-miterlimit="10"/></g><g transform="translate(-62,-118) scale(1,1)"><g><path fill="none" stroke="none"/><text fill="#000000" stroke="none" font-family="Arial" font-size="13px" font-style="normal" font-weight="bold" text-decoration="none" x="768.5" y="274.5"> </text></g></g><g transform="translate(-62,-118) scale(1,1)"><path fill="none" stroke="#000000" d="M 699 252 L 759 246.45714285714286" stroke-miterlimit="10"/></g><g transform="translate(-62,-118) scale(1,1)"><g><path fill="none" stroke="none"/><text fill="#000000" stroke="none" font-family="Arial" font-size="13px" font-style="normal" font-weight="normal" text-decoration="none" x="710.5" y="240.5">+jdbc</text></g></g><g transform="translate(-62,-118) scale(1,1)"><rect fill="#C0C0C0" stroke="none" x="905" y="231" width="98" height="44" opacity="0.2"/></g><g transform="translate(-62,-118) scale(1,1)"><rect fill="#ffffff" stroke="none" x="898" y="224" width="98" height="44"/></g><g transform="translate(-62,-118) scale(1,1)"><path fill="none" stroke="#000000" d="M 898 224 L 996 224 L 996 268 L 898 268 L 898 224 Z Z" stroke-miterlimit="10"/></g><g transform="translate(-62,-118) scale(1,1)"><rect fill="#ffffff" stroke="none" x="888" y="231" width="20" height="10"/></g><g transform="translate(-62,-118) scale(1,1)"><path fill="none" stroke="#000000" d="M 888 231 L 908 231 L 908 241 L 888 241 L 888 231 Z Z" stroke-miterlimit="10"/></g><g transform="translate(-62,-118) scale(1,1)"><rect fill="#ffffff" stroke="none" x="888" y="251" width="20" height="10"/></g><g transform="translate(-62,-118) scale(1,1)"><path fill="none" stroke="#000000" d="M 888 251 L 908 251 L 908 261 L 888 261 L 888 251 Z Z" stroke-miterlimit="10"/></g><g transform="translate(-62,-118) scale(1,1)"><g><path fill="none" stroke="none"/><text fill="#000000" stroke="none" font-family="Arial" font-size="13px" font-style="normal" font-weight="normal" text-decoration="none" x="927.5" y="241.5">«mysql»</text></g></g><g transform="translate(-62,-118) scale(1,1)"><g><path fill="none" stroke="none"/><text fill="#000000" stroke="none" font-family="Arial" font-size="13px" font-style="normal" font-weight="bold" text-decoration="none" x="918" y="256.5">Mysql.5.6.7</text></g></g><g transform="translate(-62,-118) scale(1,1)"><path fill="none" stroke="#000000" d="M 887 249 L 782 246.66666666666666" stroke-miterlimit="10"/></g><g transform="translate(-62,-118) scale(1,1)"><g><path fill="none" stroke="none"/><text fill="#000000" stroke="none" font-family="Arial" font-size="13px" font-style="normal" font-weight="normal" text-decoration="none" x="814.5" y="267.5">+3306</text></g></g></g></svg>