<svg version="1.1" xmlns="http://www.w3.org/2000/svg" xmlns:xlink="http://www.w3.org/1999/xlink" width="764" height="196"><defs/><g><g transform="translate(-62,-143) scale(1,1)"><path fill="#C0C0C0" stroke="none" d="M 79 202 L 284 202 L 284 319 L 79 319" opacity="0.2"/></g><g transform="translate(-62,-143) scale(1,1)"><path fill="#C0C0C0" stroke="none" d="M 79 202 L 89 192 L 294 192 L 284 202" opacity="0.2"/></g><g transform="translate(-62,-143) scale(1,1)"><path fill="#C0C0C0" stroke="none" d="M 294 192 L 284 202 L 284 319 L 294 309" opacity="0.2"/></g><g transform="translate(-62,-143) scale(1,1)"><path fill="#ffffff" stroke="none" d="M 72 195 L 277 195 L 277 312 L 72 312"/></g><g transform="translate(-62,-143) scale(1,1)"><path fill="#ffffff" stroke="none" d="M 72 195 L 82 185 L 287 185 L 277 195"/></g><g transform="translate(-62,-143) scale(1,1)"><path fill="#ffffff" stroke="none" d="M 287 185 L 277 195 L 277 312 L 287 302"/></g><g transform="translate(-62,-143) scale(1,1)"><path fill="none" stroke="#000000" d="M 72 195 L 277 195 L 277 312 L 72 312 L 72 195" stroke-miterlimit="10"/></g><g transform="translate(-62,-143) scale(1,1)"><path fill="none" stroke="#000000" d="M 72 195 L 82 185 L 287 185 L 277 195 L 72 195" stroke-miterlimit="10"/></g><g transform="translate(-62,-143) scale(1,1)"><path fill="none" stroke="#000000" d="M 287 185 L 277 195 L 277 312 L 287 302 L 287 185" stroke-miterlimit="10"/></g><g transform="translate(-62,-143) scale(1,1)"><g><path fill="none" stroke="none"/><text fill="#000000" stroke="none" font-family="Arial" font-size="13px" font-style="normal" font-weight="normal" text-decoration="none" x="149" y="212.5">«device»</text></g></g><g transform="translate(-62,-143) scale(1,1)"><g><path fill="none" stroke="none"/><text fill="#000000" stroke="none" font-family="Arial" font-size="13px" font-style="normal" font-weight="bold" text-decoration="none" x="145" y="227.5">DB Server</text></g></g><g transform="translate(-62,-143) scale(1,1)"><rect fill="#C0C0C0" stroke="none" x="127" y="248" width="107.22998046875" height="26" opacity="0.2"/></g><g transform="translate(-62,-143) scale(1,1)"><rect fill="#ffffff" stroke="none" x="120" y="241" width="107.22998046875" height="26"/></g><g transform="translate(-62,-143) scale(1,1)"><path fill="none" stroke="#000000" d="M 120 241 L 227.22998046875 241 L 227.22998046875 267 L 120 267 L 120 241 Z Z" stroke-miterlimit="10"/></g><g transform="translate(-62,-143) scale(1,1)"><g><path fill="none" stroke="none"/><text fill="#000000" stroke="none" font-family="Arial" font-size="13px" font-style="normal" font-weight="bold" text-decoration="none" x="145.114990234375" y="260.5">Mysql DB</text></g></g><g transform="translate(-62,-143) scale(1,1)"><path fill="#C0C0C0" stroke="none" d="M 495 170 L 812 170 L 812 335 L 495 335" opacity="0.2"/></g><g transform="translate(-62,-143) scale(1,1)"><path fill="#C0C0C0" stroke="none" d="M 495 170 L 505 160 L 822 160 L 812 170" opacity="0.2"/></g><g transform="translate(-62,-143) scale(1,1)"><path fill="#C0C0C0" stroke="none" d="M 822 160 L 812 170 L 812 335 L 822 325" opacity="0.2"/></g><g transform="translate(-62,-143) scale(1,1)"><path fill="#ffffff" stroke="none" d="M 488 163 L 805 163 L 805 328 L 488 328"/></g><g transform="translate(-62,-143) scale(1,1)"><path fill="#ffffff" stroke="none" d="M 488 163 L 498 153 L 815 153 L 805 163"/></g><g transform="translate(-62,-143) scale(1,1)"><path fill="#ffffff" stroke="none" d="M 815 153 L 805 163 L 805 328 L 815 318"/></g><g transform="translate(-62,-143) scale(1,1)"><path fill="none" stroke="#000000" d="M 488 163 L 805 163 L 805 328 L 488 328 L 488 163" stroke-miterlimit="10"/></g><g transform="translate(-62,-143) scale(1,1)"><path fill="none" stroke="#000000" d="M 488 163 L 498 153 L 815 153 L 805 163 L 488 163" stroke-miterlimit="10"/></g><g transform="translate(-62,-143) scale(1,1)"><path fill="none" stroke="#000000" d="M 815 153 L 805 163 L 805 328 L 815 318 L 815 153" stroke-miterlimit="10"/></g><g transform="translate(-62,-143) scale(1,1)"><g><path fill="none" stroke="none"/><text fill="#000000" stroke="none" font-family="Arial" font-size="13px" font-style="normal" font-weight="normal" text-decoration="none" x="621" y="180.5">«device»</text></g></g><g transform="translate(-62,-143) scale(1,1)"><g><path fill="none" stroke="none"/><text fill="#000000" stroke="none" font-family="Arial" font-size="13px" font-style="normal" font-weight="bold" text-decoration="none" x="606.5" y="195.5">Talend Server</text></g></g><g transform="translate(-62,-143) scale(1,1)"><path fill="#C0C0C0" stroke="none" d="M 519 226 L 780 226 L 780 319 L 519 319" opacity="0.2"/></g><g transform="translate(-62,-143) scale(1,1)"><path fill="#C0C0C0" stroke="none" d="M 519 226 L 529 216 L 790 216 L 780 226" opacity="0.2"/></g><g transform="translate(-62,-143) scale(1,1)"><path fill="#C0C0C0" stroke="none" d="M 790 216 L 780 226 L 780 319 L 790 309" opacity="0.2"/></g><g transform="translate(-62,-143) scale(1,1)"><path fill="#ffffff" stroke="none" d="M 512 219 L 773 219 L 773 312 L 512 312"/></g><g transform="translate(-62,-143) scale(1,1)"><path fill="#ffffff" stroke="none" d="M 512 219 L 522 209 L 783 209 L 773 219"/></g><g transform="translate(-62,-143) scale(1,1)"><path fill="#ffffff" stroke="none" d="M 783 209 L 773 219 L 773 312 L 783 302"/></g><g transform="translate(-62,-143) scale(1,1)"><path fill="none" stroke="#000000" d="M 512 219 L 773 219 L 773 312 L 512 312 L 512 219" stroke-miterlimit="10"/></g><g transform="translate(-62,-143) scale(1,1)"><path fill="none" stroke="#000000" d="M 512 219 L 522 209 L 783 209 L 773 219 L 512 219" stroke-miterlimit="10"/></g><g transform="translate(-62,-143) scale(1,1)"><path fill="none" stroke="#000000" d="M 783 209 L 773 219 L 773 312 L 783 302 L 783 209" stroke-miterlimit="10"/></g><g transform="translate(-62,-143) scale(1,1)"><g><path fill="none" stroke="none"/><text fill="#000000" stroke="none" font-family="Arial" font-size="13px" font-style="normal" font-weight="normal" text-decoration="none" x="571.5" y="236.5">«executionEnvironment»</text></g></g><g transform="translate(-62,-143) scale(1,1)"><g><path fill="none" stroke="none"/><text fill="#000000" stroke="none" font-family="Arial" font-size="13px" font-style="normal" font-weight="bold" text-decoration="none" x="629.5" y="251.5">JVM</text></g></g><g transform="translate(-62,-143) scale(1,1)"><rect fill="#C0C0C0" stroke="none" x="535" y="264" width="233" height="48" opacity="0.2"/></g><g transform="translate(-62,-143) scale(1,1)"><rect fill="#ffffff" stroke="none" x="528" y="257" width="233" height="48"/></g><g transform="translate(-62,-143) scale(1,1)"><path fill="none" stroke="#000000" d="M 528 257 L 761 257 L 761 305 L 528 305 L 528 257 Z Z" stroke-miterlimit="10"/></g><g transform="translate(-62,-143) scale(1,1)"><path fill="#ffffff" stroke="none" d="M 734.4 262 L 747.84 262 L 753.6 267.76 L 753.6 286 L 734.4 286"/></g><g transform="translate(-62,-143) scale(1,1)"><path fill="none" stroke="#000000" d="M 734.4 262 L 747.84 262 L 753.6 267.76 L 753.6 286 L 734.4 286 L 734.4 262" stroke-miterlimit="10"/></g><g transform="translate(-62,-143) scale(1,1)"><path fill="none" stroke="#000000" d="M 747.84 262 L 747.84 267.76 L 753.6 267.76 L 747.84 262" stroke-miterlimit="10"/></g><g transform="translate(-62,-143) scale(1,1)"><g><path fill="none" stroke="none"/><text fill="#000000" stroke="none" font-family="Arial" font-size="13px" font-style="normal" font-weight="normal" text-decoration="none" x="605.5" y="274.5">«artifact»</text></g></g><g transform="translate(-62,-143) scale(1,1)"><g><path fill="none" stroke="none"/><text fill="#000000" stroke="none" font-family="Arial" font-size="13px" font-style="normal" font-weight="bold" text-decoration="none" x="543" y="289.5">extract_load_transform_0_1.jar</text></g></g><g transform="translate(-62,-143) scale(1,1)"><path fill="#C0C0C0" stroke="none" d="M 361.5 259.5 C 361.5 253.1487248 366.6487248 248 373 248 C 379.3512752 248 384.5 253.1487248 384.5 259.5 C 384.5 265.8512752 379.3512752 271 373 271 C 366.6487248 271 361.5 265.8512752 361.5 259.5 Z" opacity="0.2"/></g><g transform="translate(-62,-143) scale(1,1)"><path fill="none" stroke="#000000" d="M 368.8563165280786 240.8603655404935 A 11.5 11.5 0 0 1 363.1436834719214 263.1396344595065" stroke-miterlimit="10"/></g><g transform="translate(-62,-143) scale(1,1)"><path fill="#ffffff" stroke="none" d="M 357.5 252.5 C 357.5 247.8055792 361.3055792 244 366 244 C 370.6944208 244 374.5 247.8055792 374.5 252.5 C 374.5 257.1944208 370.6944208 261 366 261 C 361.3055792 261 357.5 257.1944208 357.5 252.5 Z"/></g><g transform="translate(-62,-143) scale(1,1)"><path fill="none" stroke="#000000" d="M 357.5 252.5 C 357.5 247.8055792 361.3055792 244 366 244 C 370.6944208 244 374.5 247.8055792 374.5 252.5 C 374.5 257.1944208 370.6944208 261 366 261 C 361.3055792 261 357.5 257.1944208 357.5 252.5 Z" stroke-miterlimit="10"/></g><g transform="translate(-62,-143) scale(1,1)"><g><path fill="none" stroke="none"/><text fill="#000000" stroke="none" font-family="Arial" font-size="13px" font-style="normal" font-weight="bold" text-decoration="none" x="333" y="283.5">DB Access</text></g></g><g transform="translate(-62,-143) scale(1,1)"><path fill="none" stroke="#000000" d="M 289 258 L 354.5 254.94871794871796" stroke-miterlimit="10"/></g><g transform="translate(-62,-143) scale(1,1)"><g><path fill="none" stroke="none"/><text fill="#000000" stroke="none" font-family="Arial" font-size="13px" font-style="normal" font-weight="normal" text-decoration="none" x="301.5" y="247.5">+3306</text></g></g><g transform="translate(-62,-143) scale(1,1)"><g><path fill="none" stroke="none"/><text fill="#000000" stroke="none" font-family="Arial" font-size="13px" font-style="normal" font-weight="normal" text-decoration="none" x="301.5" y="232.5">«port»</text></g></g><g transform="translate(-62,-143) scale(1,1)"><path fill="none" stroke="#000000" d="M 487 255 L 377.5 254.94871794871796" stroke-miterlimit="10"/></g><g transform="translate(-62,-143) scale(1,1)"><g><path fill="none" stroke="none"/><text fill="#000000" stroke="none" font-family="Arial" font-size="13px" font-style="normal" font-weight="normal" text-decoration="none" x="415.5" y="274.5">+jdbc</text></g></g></g></svg>