<svg version="1.1" xmlns="http://www.w3.org/2000/svg" xmlns:xlink="http://www.w3.org/1999/xlink" width="829.81982421875" height="137"><defs/><g><g transform="translate(-134,-94) scale(1,1)"><rect fill="#C0C0C0" stroke="none" x="519" y="127" width="104.01171875" height="87" opacity="0.2"/></g><g transform="translate(-134,-94) scale(1,1)"><rect fill="#ffffff" stroke="none" x="512" y="120" width="104.01171875" height="87"/></g><g transform="translate(-134,-94) scale(1,1)"><path fill="none" stroke="#000000" d="M 512 120 L 616.01171875 120 L 616.01171875 207 L 512 207 L 512 120 Z Z" stroke-miterlimit="10"/></g><g transform="translate(-134,-94) scale(1,1)"><path fill="none" stroke="#000000" d="M 512 145 L 616.01171875 145" stroke-miterlimit="10"/></g><g transform="translate(-134,-94) scale(1,1)"><path fill="none" stroke="#000000" d="M 512 198 L 616.01171875 198" stroke-miterlimit="10"/></g><g transform="translate(-134,-94) scale(1,1)"><g><path fill="none" stroke="none"/><text fill="#000000" stroke="none" font-family="Arial" font-size="13px" font-style="normal" font-weight="bold" text-decoration="none" x="546.660888671875" y="139.5">Share</text></g></g><g transform="translate(-134,-94) scale(1,1)"><g><path fill="none" stroke="none"/><text fill="#000000" stroke="none" font-family="Arial" font-size="13px" font-style="normal" font-weight="normal" text-decoration="none" x="517" y="162.5">+String name</text></g></g><g transform="translate(-134,-94) scale(1,1)"><g><path fill="none" stroke="none"/><text fill="#000000" stroke="none" font-family="Arial" font-size="13px" font-style="normal" font-weight="normal" text-decoration="none" x="517" y="177.5">+String symbol</text></g></g><g transform="translate(-134,-94) scale(1,1)"><g><path fill="none" stroke="none"/><text fill="#000000" stroke="none" font-family="Arial" font-size="13px" font-style="normal" font-weight="normal" text-decoration="none" x="517" y="192.5">+String currency</text></g></g><g transform="translate(-134,-94) scale(1,1)"><rect fill="#C0C0C0" stroke="none" x="799" y="119" width="161.81982421875" height="102" opacity="0.2"/></g><g transform="translate(-134,-94) scale(1,1)"><rect fill="#ffffff" stroke="none" x="792" y="112" width="161.81982421875" height="102"/></g><g transform="translate(-134,-94) scale(1,1)"><path fill="none" stroke="#000000" d="M 792 112 L 953.81982421875 112 L 953.81982421875 214 L 792 214 L 792 112 Z Z" stroke-miterlimit="10"/></g><g transform="translate(-134,-94) scale(1,1)"><path fill="none" stroke="#000000" d="M 792 137 L 953.81982421875 137" stroke-miterlimit="10"/></g><g transform="translate(-134,-94) scale(1,1)"><path fill="none" stroke="#000000" d="M 792 205 L 953.81982421875 205" stroke-miterlimit="10"/></g><g transform="translate(-134,-94) scale(1,1)"><g><path fill="none" stroke="none"/><text fill="#000000" stroke="none" font-family="Arial" font-size="13px" font-style="normal" font-weight="bold" text-decoration="none" x="840.755859375" y="131.5">SharePrice</text></g></g><g transform="translate(-134,-94) scale(1,1)"><g><path fill="none" stroke="none"/><text fill="#000000" stroke="none" font-family="Arial" font-size="13px" font-style="normal" font-weight="normal" text-decoration="none" x="797" y="154.5">+Share share</text></g></g><g transform="translate(-134,-94) scale(1,1)"><g><path fill="none" stroke="none"/><text fill="#000000" stroke="none" font-family="Arial" font-size="13px" font-style="normal" font-weight="normal" text-decoration="none" x="797" y="169.5">+BigDecimal price</text></g></g><g transform="translate(-134,-94) scale(1,1)"><g><path fill="none" stroke="none"/><text fill="#000000" stroke="none" font-family="Arial" font-size="13px" font-style="normal" font-weight="normal" text-decoration="none" x="797" y="184.5">+BigDecimal change</text></g></g><g transform="translate(-134,-94) scale(1,1)"><g><path fill="none" stroke="none"/><text fill="#000000" stroke="none" font-family="Arial" font-size="13px" font-style="normal" font-weight="normal" text-decoration="none" x="797" y="199.5">+LocalDateTime dateTime</text></g></g><g transform="translate(-134,-94) scale(1,1)"><rect fill="#C0C0C0" stroke="none" x="151" y="111" width="161.81982421875" height="117" opacity="0.2"/></g><g transform="translate(-134,-94) scale(1,1)"><rect fill="#ffffff" stroke="none" x="144" y="104" width="161.81982421875" height="117"/></g><g transform="translate(-134,-94) scale(1,1)"><path fill="none" stroke="#000000" d="M 144 104 L 305.81982421875 104 L 305.81982421875 221 L 144 221 L 144 104 Z Z" stroke-miterlimit="10"/></g><g transform="translate(-134,-94) scale(1,1)"><path fill="none" stroke="#000000" d="M 144 129 L 305.81982421875 129" stroke-miterlimit="10"/></g><g transform="translate(-134,-94) scale(1,1)"><path fill="none" stroke="#000000" d="M 144 197 L 305.81982421875 197" stroke-miterlimit="10"/></g><g transform="translate(-134,-94) scale(1,1)"><g><path fill="none" stroke="none"/><text fill="#000000" stroke="none" font-family="Arial" font-size="13px" font-style="normal" font-weight="bold" text-decoration="none" x="172.5322265625" y="123.5">SharePriceHistory</text></g></g><g transform="translate(-134,-94) scale(1,1)"><g><path fill="none" stroke="none"/><text fill="#000000" stroke="none" font-family="Arial" font-size="13px" font-style="normal" font-weight="normal" text-decoration="none" x="149" y="146.5">+Share Share</text></g></g><g transform="translate(-134,-94) scale(1,1)"><g><path fill="none" stroke="none"/><text fill="#000000" stroke="none" font-family="Arial" font-size="13px" font-style="normal" font-weight="normal" text-decoration="none" x="149" y="161.5">+BigDecimal price</text></g></g><g transform="translate(-134,-94) scale(1,1)"><g><path fill="none" stroke="none"/><text fill="#000000" stroke="none" font-family="Arial" font-size="13px" font-style="normal" font-weight="normal" text-decoration="none" x="149" y="176.5">+BigDecimal change</text></g></g><g transform="translate(-134,-94) scale(1,1)"><g><path fill="none" stroke="none"/><text fill="#000000" stroke="none" font-family="Arial" font-size="13px" font-style="normal" font-weight="normal" text-decoration="none" x="149" y="191.5">+LocalDateTime dateTime</text></g></g><g transform="translate(-134,-94) scale(1,1)"><path fill="none" stroke="#000000" d="M 617 163 L 791 163" stroke-miterlimit="10"/></g><g transform="translate(-134,-94) scale(1,1)"><path fill="none" stroke="#000000" d="M 780.8373251423759 167.209517756016 L 791 163 L 780.8373251423758 158.790482243984" stroke-miterlimit="10"/></g><g transform="translate(-134,-94) scale(1,1)"><g><path fill="none" stroke="none"/><text fill="#000000" stroke="none" font-family="Arial" font-size="13px" font-style="normal" font-weight="normal" text-decoration="none" x="664" y="157">+ActualPrice</text></g></g><g transform="translate(-134,-94) scale(1,1)"><g><path fill="none" stroke="none"/><text fill="#000000" stroke="none" font-family="Arial" font-size="13px" font-style="normal" font-weight="normal" text-decoration="none" x="767" y="154">+1</text></g></g><g transform="translate(-134,-94) scale(1,1)"><path fill="none" stroke="#000000" d="M 511 163 L 307 162" stroke-miterlimit="10"/></g><g transform="translate(-134,-94) scale(1,1)"><path fill="none" stroke="#000000" d="M 317.18318740229716 157.84034925388008 L 307 162 L 317.14191811620685 166.25928361630866" stroke-miterlimit="10"/></g><g transform="translate(-134,-94) scale(1,1)"><g><path fill="none" stroke="none"/><text fill="#000000" stroke="none" font-family="Arial" font-size="13px" font-style="normal" font-weight="normal" text-decoration="none" x="370" y="156">+PriceHistory</text></g></g><g transform="translate(-134,-94) scale(1,1)"><g><path fill="none" stroke="none"/><text fill="#000000" stroke="none" font-family="Arial" font-size="13px" font-style="normal" font-weight="normal" text-decoration="none" x="319" y="157">+*</text></g></g></g></svg>