<svg version="1.1" xmlns="http://www.w3.org/2000/svg" xmlns:xlink="http://www.w3.org/1999/xlink" width="610" height="292"><defs/><g><g transform="translate(-94,-54) scale(1,1)"><rect fill="#C0C0C0" stroke="none" x="111" y="207" width="106" height="57" opacity="0.2"/></g><g transform="translate(-94,-54) scale(1,1)"><rect fill="#ffffff" stroke="none" x="104" y="200" width="106" height="57"/></g><g transform="translate(-94,-54) scale(1,1)"><path fill="none" stroke="#000000" d="M 104 200 L 210 200 L 210 257 L 104 257 L 104 200 Z Z" stroke-miterlimit="10"/></g><g transform="translate(-94,-54) scale(1,1)"><path fill="none" stroke="#000000" d="M 104 225 L 210 225" stroke-miterlimit="10"/></g><g transform="translate(-94,-54) scale(1,1)"><path fill="none" stroke="#000000" d="M 104 248 L 210 248" stroke-miterlimit="10"/></g><g transform="translate(-94,-54) scale(1,1)"><g><path fill="none" stroke="none"/><text fill="#000000" stroke="none" font-family="Arial" font-size="13px" font-style="normal" font-weight="bold" text-decoration="none" x="111" y="219.5">DataProcessing</text></g></g><g transform="translate(-94,-54) scale(1,1)"><g><path fill="none" stroke="none"/><text fill="#000000" stroke="none" font-family="Arial" font-size="13px" font-style="normal" font-weight="normal" text-decoration="none" x="109" y="242.5">+run()</text></g></g><g transform="translate(-94,-54) scale(1,1)"><rect fill="#C0C0C0" stroke="none" x="351" y="223" width="320" height="120" opacity="0.2"/></g><g transform="translate(-94,-54) scale(1,1)"><rect fill="#ffffff" stroke="none" x="344" y="216" width="320" height="120"/></g><g transform="translate(-94,-54) scale(1,1)"><path fill="none" stroke="#000000" d="M 344 216 L 664 216 L 664 336 L 344 336 L 344 216 Z Z" stroke-miterlimit="10"/></g><g transform="translate(-94,-54) scale(1,1)"><path fill="none" stroke="#000000" d="M 344 241 L 664 241" stroke-miterlimit="10"/></g><g transform="translate(-94,-54) scale(1,1)"><path fill="none" stroke="#000000" d="M 344 251 L 664 251" stroke-miterlimit="10"/></g><g transform="translate(-94,-54) scale(1,1)"><g><path fill="none" stroke="none"/><text fill="#000000" stroke="none" font-family="Arial" font-size="13px" font-style="normal" font-weight="bold" text-decoration="none" x="468.5" y="235.5">DataAccess</text></g></g><g transform="translate(-94,-54) scale(1,1)"><g><path fill="none" stroke="none"/><text fill="#000000" stroke="none" font-family="Arial" font-size="13px" font-style="normal" font-weight="normal" text-decoration="none" x="349" y="268.5">+InsertTweetsCount(Dataset Row dataset)</text></g></g><g transform="translate(-94,-54) scale(1,1)"><g><path fill="none" stroke="none"/><text fill="#000000" stroke="none" font-family="Arial" font-size="13px" font-style="normal" font-weight="normal" text-decoration="none" x="349" y="283.5">+InsertsurveysCount(Dataset Row dataset)</text></g></g><g transform="translate(-94,-54) scale(1,1)"><g><path fill="none" stroke="none"/><text fill="#000000" stroke="none" font-family="Arial" font-size="13px" font-style="normal" font-weight="normal" text-decoration="none" x="349" y="298.5">+InsertPositiveSurveys(Dataset Row dataset)</text></g></g><g transform="translate(-94,-54) scale(1,1)"><g><path fill="none" stroke="none"/><text fill="#000000" stroke="none" font-family="Arial" font-size="13px" font-style="normal" font-weight="normal" text-decoration="none" x="349" y="313.5">+InsertNegativeSurveys(Dataset Row dataset)</text></g></g><g transform="translate(-94,-54) scale(1,1)"><g><path fill="none" stroke="none"/><text fill="#000000" stroke="none" font-family="Arial" font-size="13px" font-style="normal" font-weight="normal" text-decoration="none" x="349" y="328.5">+InsertNeutralSurveys(Dataset Row dataset)</text></g></g><g transform="translate(-94,-54) scale(1,1)"><rect fill="#C0C0C0" stroke="none" x="351" y="71" width="350" height="117" opacity="0.2"/></g><g transform="translate(-94,-54) scale(1,1)"><rect fill="#ffffff" stroke="none" x="344" y="64" width="350" height="117"/></g><g transform="translate(-94,-54) scale(1,1)"><path fill="none" stroke="#000000" d="M 344 64 L 694 64 L 694 181 L 344 181 L 344 64 Z Z" stroke-miterlimit="10"/></g><g transform="translate(-94,-54) scale(1,1)"><path fill="none" stroke="#000000" d="M 344 89 L 694 89" stroke-miterlimit="10"/></g><g transform="translate(-94,-54) scale(1,1)"><path fill="none" stroke="#000000" d="M 344 99 L 694 99" stroke-miterlimit="10"/></g><g transform="translate(-94,-54) scale(1,1)"><g><path fill="none" stroke="none"/><text fill="#000000" stroke="none" font-family="Arial" font-size="13px" font-style="normal" font-weight="bold" text-decoration="none" x="478.5" y="83.5">DataDefinition</text></g></g><g transform="translate(-94,-54) scale(1,1)"><g><path fill="none" stroke="none"/><text fill="#000000" stroke="none" font-family="Arial" font-size="13px" font-style="normal" font-weight="normal" text-decoration="none" x="349" y="116.5">+RetrieveDataFromMongodb()</text></g></g><g transform="translate(-94,-54) scale(1,1)"><g><path fill="none" stroke="none"/><text fill="#000000" stroke="none" font-family="Arial" font-size="13px" font-style="normal" font-weight="normal" text-decoration="none" x="349" y="131.5">+RetrieveDataFromCSV(String path, StructType schema)</text></g></g><g transform="translate(-94,-54) scale(1,1)"><g><path fill="none" stroke="none"/><text fill="#000000" stroke="none" font-family="Arial" font-size="13px" font-style="normal" font-weight="normal" text-decoration="none" x="349" y="146.5">+getSchema()</text></g></g><g transform="translate(-94,-54) scale(1,1)"><g><path fill="none" stroke="none"/><text fill="#000000" stroke="none" font-family="Arial" font-size="13px" font-style="normal" font-weight="normal" text-decoration="none" x="349" y="161.5">+formatDate(Dataset Row ds)</text></g></g><g transform="translate(-94,-54) scale(1,1)"><path fill="none" stroke="#000000" d="M 211 212 L 343 174" stroke-miterlimit="10"/></g><g transform="translate(-94,-54) scale(1,1)"><path fill="none" stroke="#000000" d="M 334.3984843284175 180.85667034000622 L 343 174 L 332.0694118463626 172.76620803392072" stroke-miterlimit="10"/></g><g transform="translate(-94,-54) scale(1,1)"><path fill="none" stroke="#000000" d="M 211 235 L 343 254" stroke-miterlimit="10"/></g><g transform="translate(-94,-54) scale(1,1)"><path fill="none" stroke="#000000" d="M 332.34126044734757 256.7186892335687 L 343 254 L 333.54072939042294 248.38553657641344" stroke-miterlimit="10"/></g></g></svg>