<svg version="1.1" xmlns="http://www.w3.org/2000/svg" xmlns:xlink="http://www.w3.org/1999/xlink" width="1240" height="560"><defs/><g><g transform="translate(-22,-110) scale(1,1)"><rect fill="#C0C0C0" stroke="none" x="49" y="311" width="98" height="44" opacity="0.2"/></g><g transform="translate(-22,-110) scale(1,1)"><rect fill="#ffffff" stroke="none" x="42" y="304" width="98" height="44"/></g><g transform="translate(-22,-110) scale(1,1)"><path fill="none" stroke="#000000" d="M 42 304 L 140 304 L 140 348 L 42 348 L 42 304 Z Z" stroke-miterlimit="10"/></g><g transform="translate(-22,-110) scale(1,1)"><rect fill="#ffffff" stroke="none" x="32" y="311" width="20" height="10"/></g><g transform="translate(-22,-110) scale(1,1)"><path fill="none" stroke="#000000" d="M 32 311 L 52 311 L 52 321 L 32 321 L 32 311 Z Z" stroke-miterlimit="10"/></g><g transform="translate(-22,-110) scale(1,1)"><rect fill="#ffffff" stroke="none" x="32" y="331" width="20" height="10"/></g><g transform="translate(-22,-110) scale(1,1)"><path fill="none" stroke="#000000" d="M 32 331 L 52 331 L 52 341 L 32 341 L 32 331 Z Z" stroke-miterlimit="10"/></g><g transform="translate(-22,-110) scale(1,1)"><g><path fill="none" stroke="none"/><text fill="#000000" stroke="none" font-family="Arial" font-size="13px" font-style="normal" font-weight="normal" text-decoration="none" x="82" y="321.5">«jar»</text></g></g><g transform="translate(-22,-110) scale(1,1)"><g><path fill="none" stroke="none"/><text fill="#000000" stroke="none" font-family="Arial" font-size="13px" font-style="normal" font-weight="bold" text-decoration="none" x="62" y="336.5">dom4j-1.6.1</text></g></g><g transform="translate(-22,-110) scale(1,1)"><rect fill="#C0C0C0" stroke="none" x="49" y="199" width="98" height="44" opacity="0.2"/></g><g transform="translate(-22,-110) scale(1,1)"><rect fill="#ffffff" stroke="none" x="42" y="192" width="98" height="44"/></g><g transform="translate(-22,-110) scale(1,1)"><path fill="none" stroke="#000000" d="M 42 192 L 140 192 L 140 236 L 42 236 L 42 192 Z Z" stroke-miterlimit="10"/></g><g transform="translate(-22,-110) scale(1,1)"><rect fill="#ffffff" stroke="none" x="32" y="199" width="20" height="10"/></g><g transform="translate(-22,-110) scale(1,1)"><path fill="none" stroke="#000000" d="M 32 199 L 52 199 L 52 209 L 32 209 L 32 199 Z Z" stroke-miterlimit="10"/></g><g transform="translate(-22,-110) scale(1,1)"><rect fill="#ffffff" stroke="none" x="32" y="219" width="20" height="10"/></g><g transform="translate(-22,-110) scale(1,1)"><path fill="none" stroke="#000000" d="M 32 219 L 52 219 L 52 229 L 32 229 L 32 219 Z Z" stroke-miterlimit="10"/></g><g transform="translate(-22,-110) scale(1,1)"><g><path fill="none" stroke="none"/><text fill="#000000" stroke="none" font-family="Arial" font-size="13px" font-style="normal" font-weight="bold" text-decoration="none" x="62.5" y="211.5">log4j-1.2.16</text></g></g><g transform="translate(-22,-110) scale(1,1)"><rect fill="#C0C0C0" stroke="none" x="185" y="247" width="208" height="44" opacity="0.2"/></g><g transform="translate(-22,-110) scale(1,1)"><rect fill="#ffffff" stroke="none" x="178" y="240" width="208" height="44"/></g><g transform="translate(-22,-110) scale(1,1)"><path fill="none" stroke="#000000" d="M 178 240 L 386 240 L 386 284 L 178 284 L 178 240 Z Z" stroke-miterlimit="10"/></g><g transform="translate(-22,-110) scale(1,1)"><rect fill="#ffffff" stroke="none" x="168" y="247" width="20" height="10"/></g><g transform="translate(-22,-110) scale(1,1)"><path fill="none" stroke="#000000" d="M 168 247 L 188 247 L 188 257 L 168 257 L 168 247 Z Z" stroke-miterlimit="10"/></g><g transform="translate(-22,-110) scale(1,1)"><rect fill="#ffffff" stroke="none" x="168" y="267" width="20" height="10"/></g><g transform="translate(-22,-110) scale(1,1)"><path fill="none" stroke="#000000" d="M 168 267 L 188 267 L 188 277 L 168 277 L 168 267 Z Z" stroke-miterlimit="10"/></g><g transform="translate(-22,-110) scale(1,1)"><g><path fill="none" stroke="none"/><text fill="#000000" stroke="none" font-family="Arial" font-size="13px" font-style="normal" font-weight="normal" text-decoration="none" x="273" y="257.5">«jar»</text></g></g><g transform="translate(-22,-110) scale(1,1)"><g><path fill="none" stroke="none"/><text fill="#000000" stroke="none" font-family="Arial" font-size="13px" font-style="normal" font-weight="bold" text-decoration="none" x="197" y="272.5">data_extract_transform_0_1.jar</text></g></g><g transform="translate(-22,-110) scale(1,1)"><path fill="none" stroke="#000000" d="M 185 239 L 141 228" stroke-miterlimit="10" stroke-dasharray="3"/></g><g transform="translate(-22,-110) scale(1,1)"><path fill="none" stroke="#000000" d="M 151.8802008145965 226.3809786184074 L 141 228 L 149.83828477448273 234.54864277886242" stroke-miterlimit="10"/></g><g transform="translate(-22,-110) scale(1,1)"><path fill="none" stroke="#000000" d="M 208 285 L 141 308" stroke-miterlimit="10" stroke-dasharray="3"/></g><g transform="translate(-22,-110) scale(1,1)"><path fill="none" stroke="#000000" d="M 149.24531468475686 300.7188746921006 L 141 308 L 151.97885100649324 308.681784846724" stroke-miterlimit="10"/></g><g transform="translate(-22,-110) scale(1,1)"><rect fill="#C0C0C0" stroke="none" x="129" y="127" width="98" height="44" opacity="0.2"/></g><g transform="translate(-22,-110) scale(1,1)"><rect fill="#ffffff" stroke="none" x="122" y="120" width="98" height="44"/></g><g transform="translate(-22,-110) scale(1,1)"><path fill="none" stroke="#000000" d="M 122 120 L 220 120 L 220 164 L 122 164 L 122 120 Z Z" stroke-miterlimit="10"/></g><g transform="translate(-22,-110) scale(1,1)"><rect fill="#ffffff" stroke="none" x="112" y="127" width="20" height="10"/></g><g transform="translate(-22,-110) scale(1,1)"><path fill="none" stroke="#000000" d="M 112 127 L 132 127 L 132 137 L 112 137 L 112 127 Z Z" stroke-miterlimit="10"/></g><g transform="translate(-22,-110) scale(1,1)"><rect fill="#ffffff" stroke="none" x="112" y="147" width="20" height="10"/></g><g transform="translate(-22,-110) scale(1,1)"><path fill="none" stroke="#000000" d="M 112 147 L 132 147 L 132 157 L 112 157 L 112 147 Z Z" stroke-miterlimit="10"/></g><g transform="translate(-22,-110) scale(1,1)"><g><path fill="none" stroke="none"/><text fill="#000000" stroke="none" font-family="Arial" font-size="13px" font-style="normal" font-weight="normal" text-decoration="none" x="162" y="137.5">«jar»</text></g></g><g transform="translate(-22,-110) scale(1,1)"><g><path fill="none" stroke="none"/><text fill="#000000" stroke="none" font-family="Arial" font-size="13px" font-style="normal" font-weight="bold" text-decoration="none" x="153" y="152.5">routines</text></g></g><g transform="translate(-22,-110) scale(1,1)"><path fill="none" stroke="#000000" d="M 256 239 L 187 165" stroke-miterlimit="10" stroke-dasharray="3"/></g><g transform="translate(-22,-110) scale(1,1)"><path fill="none" stroke="#000000" d="M 197.00937229358826 169.56206820294784 L 187 165 L 190.85182566167705 175.30356438675696" stroke-miterlimit="10"/></g><g transform="translate(-22,-110) scale(1,1)"><rect fill="#C0C0C0" stroke="none" x="121" y="391" width="235" height="44" opacity="0.2"/></g><g transform="translate(-22,-110) scale(1,1)"><rect fill="#ffffff" stroke="none" x="114" y="384" width="235" height="44"/></g><g transform="translate(-22,-110) scale(1,1)"><path fill="none" stroke="#000000" d="M 114 384 L 349 384 L 349 428 L 114 428 L 114 384 Z Z" stroke-miterlimit="10"/></g><g transform="translate(-22,-110) scale(1,1)"><rect fill="#ffffff" stroke="none" x="104" y="391" width="20" height="10"/></g><g transform="translate(-22,-110) scale(1,1)"><path fill="none" stroke="#000000" d="M 104 391 L 124 391 L 124 401 L 104 401 L 104 391 Z Z" stroke-miterlimit="10"/></g><g transform="translate(-22,-110) scale(1,1)"><rect fill="#ffffff" stroke="none" x="104" y="411" width="20" height="10"/></g><g transform="translate(-22,-110) scale(1,1)"><path fill="none" stroke="#000000" d="M 104 411 L 124 411 L 124 421 L 104 421 L 104 411 Z Z" stroke-miterlimit="10"/></g><g transform="translate(-22,-110) scale(1,1)"><g><path fill="none" stroke="none"/><text fill="#000000" stroke="none" font-family="Arial" font-size="13px" font-style="normal" font-weight="normal" text-decoration="none" x="198" y="401.5">«shell script»</text></g></g><g transform="translate(-22,-110) scale(1,1)"><g><path fill="none" stroke="none"/><text fill="#000000" stroke="none" font-family="Arial" font-size="13px" font-style="normal" font-weight="bold" text-decoration="none" x="134" y="416.5">data_extract_transform_0_1_run.sh</text></g></g><g transform="translate(-22,-110) scale(1,1)"><rect fill="#C0C0C0" stroke="none" x="193" y="479" width="98" height="44" opacity="0.2"/></g><g transform="translate(-22,-110) scale(1,1)"><rect fill="#ffffff" stroke="none" x="186" y="472" width="98" height="44"/></g><g transform="translate(-22,-110) scale(1,1)"><path fill="none" stroke="#000000" d="M 186 472 L 284 472 L 284 516 L 186 516 L 186 472 Z Z" stroke-miterlimit="10"/></g><g transform="translate(-22,-110) scale(1,1)"><rect fill="#ffffff" stroke="none" x="176" y="479" width="20" height="10"/></g><g transform="translate(-22,-110) scale(1,1)"><path fill="none" stroke="#000000" d="M 176 479 L 196 479 L 196 489 L 176 489 L 176 479 Z Z" stroke-miterlimit="10"/></g><g transform="translate(-22,-110) scale(1,1)"><rect fill="#ffffff" stroke="none" x="176" y="499" width="20" height="10"/></g><g transform="translate(-22,-110) scale(1,1)"><path fill="none" stroke="#000000" d="M 176 499 L 196 499 L 196 509 L 176 509 L 176 499 Z Z" stroke-miterlimit="10"/></g><g transform="translate(-22,-110) scale(1,1)"><g><path fill="none" stroke="none"/><text fill="#000000" stroke="none" font-family="Arial" font-size="13px" font-style="normal" font-weight="normal" text-decoration="none" x="208.5" y="489.5">«CronTab»</text></g></g><g transform="translate(-22,-110) scale(1,1)"><g><path fill="none" stroke="none"/><text fill="#000000" stroke="none" font-family="Arial" font-size="13px" font-style="normal" font-weight="bold" text-decoration="none" x="211" y="504.5">Scheduler</text></g></g><g transform="translate(-22,-110) scale(1,1)"><path fill="none" stroke="#000000" d="M 229 471 L 227 429" stroke-miterlimit="10" stroke-dasharray="3"/></g><g transform="translate(-22,-110) scale(1,1)"><path fill="none" stroke="#000000" d="M 231.68814230973317 438.9509457683021 L 227 429 L 223.27863598639388 439.3513984503659" stroke-miterlimit="10"/></g><g transform="translate(-22,-110) scale(1,1)"><path fill="none" stroke="#000000" d="M 234 383 L 269 285" stroke-miterlimit="10" stroke-dasharray="3"/></g><g transform="translate(-22,-110) scale(1,1)"><path fill="none" stroke="#000000" d="M 269.54620185296585 295.98643088249395 L 269 285 L 261.61764325608004 293.1548028121776" stroke-miterlimit="10"/></g><g transform="translate(-22,-110) scale(1,1)"><rect fill="#C0C0C0" stroke="none" x="393" y="143" width="216" height="44" opacity="0.2"/></g><g transform="translate(-22,-110) scale(1,1)"><rect fill="#ffffff" stroke="none" x="386" y="136" width="216" height="44"/></g><g transform="translate(-22,-110) scale(1,1)"><path fill="none" stroke="#000000" d="M 386 136 L 602 136 L 602 180 L 386 180 L 386 136 Z Z" stroke-miterlimit="10"/></g><g transform="translate(-22,-110) scale(1,1)"><rect fill="#ffffff" stroke="none" x="376" y="143" width="20" height="10"/></g><g transform="translate(-22,-110) scale(1,1)"><path fill="none" stroke="#000000" d="M 376 143 L 396 143 L 396 153 L 376 153 L 376 143 Z Z" stroke-miterlimit="10"/></g><g transform="translate(-22,-110) scale(1,1)"><rect fill="#ffffff" stroke="none" x="376" y="163" width="20" height="10"/></g><g transform="translate(-22,-110) scale(1,1)"><path fill="none" stroke="#000000" d="M 376 163 L 396 163 L 396 173 L 376 173 L 376 163 Z Z" stroke-miterlimit="10"/></g><g transform="translate(-22,-110) scale(1,1)"><g><path fill="none" stroke="none"/><text fill="#000000" stroke="none" font-family="Arial" font-size="13px" font-style="normal" font-weight="normal" text-decoration="none" x="485" y="153.5">«jar»</text></g></g><g transform="translate(-22,-110) scale(1,1)"><g><path fill="none" stroke="none"/><text fill="#000000" stroke="none" font-family="Arial" font-size="13px" font-style="normal" font-weight="bold" text-decoration="none" x="406.5" y="168.5">mysql-connector-java-5.1.30-bin</text></g></g><g transform="translate(-22,-110) scale(1,1)"><rect fill="#C0C0C0" stroke="none" x="449" y="247" width="98" height="44" opacity="0.2"/></g><g transform="translate(-22,-110) scale(1,1)"><rect fill="#ffffff" stroke="none" x="442" y="240" width="98" height="44"/></g><g transform="translate(-22,-110) scale(1,1)"><path fill="none" stroke="#000000" d="M 442 240 L 540 240 L 540 284 L 442 284 L 442 240 Z Z" stroke-miterlimit="10"/></g><g transform="translate(-22,-110) scale(1,1)"><rect fill="#ffffff" stroke="none" x="432" y="247" width="20" height="10"/></g><g transform="translate(-22,-110) scale(1,1)"><path fill="none" stroke="#000000" d="M 432 247 L 452 247 L 452 257 L 432 257 L 432 247 Z Z" stroke-miterlimit="10"/></g><g transform="translate(-22,-110) scale(1,1)"><rect fill="#ffffff" stroke="none" x="432" y="267" width="20" height="10"/></g><g transform="translate(-22,-110) scale(1,1)"><path fill="none" stroke="#000000" d="M 432 267 L 452 267 L 452 277 L 432 277 L 432 267 Z Z" stroke-miterlimit="10"/></g><g transform="translate(-22,-110) scale(1,1)"><g><path fill="none" stroke="none"/><text fill="#000000" stroke="none" font-family="Arial" font-size="13px" font-style="normal" font-weight="bold" text-decoration="none" x="467" y="259.5">JRE-1.8.0</text></g></g><g transform="translate(-22,-110) scale(1,1)"><path fill="none" stroke="#000000" d="M 324 239 L 442 181" stroke-miterlimit="10" stroke-dasharray="3"/></g><g transform="translate(-22,-110) scale(1,1)"><path fill="none" stroke="#000000" d="M 434.73641834346904 189.26077366345956 L 442 181 L 431.0226230796853 181.70512123024426" stroke-miterlimit="10"/></g><g transform="translate(-22,-110) scale(1,1)"><path fill="none" stroke="#000000" d="M 387 262 L 431 262" stroke-miterlimit="10" stroke-dasharray="3"/></g><g transform="translate(-22,-110) scale(1,1)"><path fill="none" stroke="#000000" d="M 420.83732514237585 266.209517756016 L 431 262 L 420.83732514237585 257.790482243984" stroke-miterlimit="10"/></g><g transform="translate(-22,-110) scale(1,1)"><rect fill="#C0C0C0" stroke="none" x="665" y="255" width="153" height="44" opacity="0.2"/></g><g transform="translate(-22,-110) scale(1,1)"><rect fill="#ffffff" stroke="none" x="658" y="248" width="153" height="44"/></g><g transform="translate(-22,-110) scale(1,1)"><path fill="none" stroke="#000000" d="M 658 248 L 811 248 L 811 292 L 658 292 L 658 248 Z Z" stroke-miterlimit="10"/></g><g transform="translate(-22,-110) scale(1,1)"><rect fill="#ffffff" stroke="none" x="648" y="255" width="20" height="10"/></g><g transform="translate(-22,-110) scale(1,1)"><path fill="none" stroke="#000000" d="M 648 255 L 668 255 L 668 265 L 648 265 L 648 255 Z Z" stroke-miterlimit="10"/></g><g transform="translate(-22,-110) scale(1,1)"><rect fill="#ffffff" stroke="none" x="648" y="275" width="20" height="10"/></g><g transform="translate(-22,-110) scale(1,1)"><path fill="none" stroke="#000000" d="M 648 275 L 668 275 L 668 285 L 648 285 L 648 275 Z Z" stroke-miterlimit="10"/></g><g transform="translate(-22,-110) scale(1,1)"><g><path fill="none" stroke="none"/><text fill="#000000" stroke="none" font-family="Arial" font-size="13px" font-style="normal" font-weight="normal" text-decoration="none" x="725.5" y="265.5">«jar»</text></g></g><g transform="translate(-22,-110) scale(1,1)"><g><path fill="none" stroke="none"/><text fill="#000000" stroke="none" font-family="Arial" font-size="13px" font-style="normal" font-weight="bold" text-decoration="none" x="677" y="280.5">sentimentAnalysis.jar</text></g></g><g transform="translate(-22,-110) scale(1,1)"><rect fill="#C0C0C0" stroke="none" x="657" y="127" width="118" height="44" opacity="0.2"/></g><g transform="translate(-22,-110) scale(1,1)"><rect fill="#ffffff" stroke="none" x="650" y="120" width="118" height="44"/></g><g transform="translate(-22,-110) scale(1,1)"><path fill="none" stroke="#000000" d="M 650 120 L 768 120 L 768 164 L 650 164 L 650 120 Z Z" stroke-miterlimit="10"/></g><g transform="translate(-22,-110) scale(1,1)"><rect fill="#ffffff" stroke="none" x="640" y="127" width="20" height="10"/></g><g transform="translate(-22,-110) scale(1,1)"><path fill="none" stroke="#000000" d="M 640 127 L 660 127 L 660 137 L 640 137 L 640 127 Z Z" stroke-miterlimit="10"/></g><g transform="translate(-22,-110) scale(1,1)"><rect fill="#ffffff" stroke="none" x="640" y="147" width="20" height="10"/></g><g transform="translate(-22,-110) scale(1,1)"><path fill="none" stroke="#000000" d="M 640 147 L 660 147 L 660 157 L 640 157 L 640 147 Z Z" stroke-miterlimit="10"/></g><g transform="translate(-22,-110) scale(1,1)"><g><path fill="none" stroke="none"/><text fill="#000000" stroke="none" font-family="Arial" font-size="13px" font-style="normal" font-weight="normal" text-decoration="none" x="700" y="137.5">«jar»</text></g></g><g transform="translate(-22,-110) scale(1,1)"><g><path fill="none" stroke="none"/><text fill="#000000" stroke="none" font-family="Arial" font-size="13px" font-style="normal" font-weight="bold" text-decoration="none" x="666.5" y="152.5">Spark-core_2.11</text></g></g><g transform="translate(-22,-110) scale(1,1)"><path fill="none" stroke="#000000" d="M 725 247 L 708 165" stroke-miterlimit="10" stroke-dasharray="3"/></g><g transform="translate(-22,-110) scale(1,1)"><path fill="none" stroke="#000000" d="M 714.1848974640875 174.09654018617653 L 708 165 L 705.9411576868184 175.8056081887811" stroke-miterlimit="10"/></g><g transform="translate(-22,-110) scale(1,1)"><path fill="none" stroke="#000000" d="M 680 247 L 538 181" stroke-miterlimit="10" stroke-dasharray="3"/></g><g transform="translate(-22,-110) scale(1,1)"><path fill="none" stroke="#000000" d="M 548.9901208547276 181.4660939803103 L 538 181 L 545.4416107682899 189.1007671965852" stroke-miterlimit="10"/></g><g transform="translate(-22,-110) scale(1,1)"><path fill="none" stroke="#000000" d="M 647 267 L 541 264" stroke-miterlimit="10" stroke-dasharray="3"/></g><g transform="translate(-22,-110) scale(1,1)"><path fill="none" stroke="#000000" d="M 551.277696775448 260.07967488695823 L 541 264 L 551.0395175567861 268.4953406130106" stroke-miterlimit="10"/></g><g transform="translate(-22,-110) scale(1,1)"><rect fill="#C0C0C0" stroke="none" x="857" y="143" width="140" height="44" opacity="0.2"/></g><g transform="translate(-22,-110) scale(1,1)"><rect fill="#ffffff" stroke="none" x="850" y="136" width="140" height="44"/></g><g transform="translate(-22,-110) scale(1,1)"><path fill="none" stroke="#000000" d="M 850 136 L 990 136 L 990 180 L 850 180 L 850 136 Z Z" stroke-miterlimit="10"/></g><g transform="translate(-22,-110) scale(1,1)"><rect fill="#ffffff" stroke="none" x="840" y="143" width="20" height="10"/></g><g transform="translate(-22,-110) scale(1,1)"><path fill="none" stroke="#000000" d="M 840 143 L 860 143 L 860 153 L 840 153 L 840 143 Z Z" stroke-miterlimit="10"/></g><g transform="translate(-22,-110) scale(1,1)"><rect fill="#ffffff" stroke="none" x="840" y="163" width="20" height="10"/></g><g transform="translate(-22,-110) scale(1,1)"><path fill="none" stroke="#000000" d="M 840 163 L 860 163 L 860 173 L 840 173 L 840 163 Z Z" stroke-miterlimit="10"/></g><g transform="translate(-22,-110) scale(1,1)"><g><path fill="none" stroke="none"/><text fill="#000000" stroke="none" font-family="Arial" font-size="13px" font-style="normal" font-weight="normal" text-decoration="none" x="911" y="153.5">«jar»</text></g></g><g transform="translate(-22,-110) scale(1,1)"><g><path fill="none" stroke="none"/><text fill="#000000" stroke="none" font-family="Arial" font-size="13px" font-style="normal" font-weight="bold" text-decoration="none" x="870" y="168.5">commons-compiler</text></g></g><g transform="translate(-22,-110) scale(1,1)"><path fill="none" stroke="#000000" d="M 767 247 L 877 181" stroke-miterlimit="10" stroke-dasharray="3"/></g><g transform="translate(-22,-110) scale(1,1)"><path fill="none" stroke="#000000" d="M 870.4513572211375 189.83828477448273 L 877 181 L 866.1197991854035 182.61902138159263" stroke-miterlimit="10"/></g><g transform="translate(-22,-110) scale(1,1)"><rect fill="#C0C0C0" stroke="none" x="897" y="255" width="108" height="44" opacity="0.2"/></g><g transform="translate(-22,-110) scale(1,1)"><rect fill="#ffffff" stroke="none" x="890" y="248" width="108" height="44"/></g><g transform="translate(-22,-110) scale(1,1)"><path fill="none" stroke="#000000" d="M 890 248 L 998 248 L 998 292 L 890 292 L 890 248 Z Z" stroke-miterlimit="10"/></g><g transform="translate(-22,-110) scale(1,1)"><rect fill="#ffffff" stroke="none" x="880" y="255" width="20" height="10"/></g><g transform="translate(-22,-110) scale(1,1)"><path fill="none" stroke="#000000" d="M 880 255 L 900 255 L 900 265 L 880 265 L 880 255 Z Z" stroke-miterlimit="10"/></g><g transform="translate(-22,-110) scale(1,1)"><rect fill="#ffffff" stroke="none" x="880" y="275" width="20" height="10"/></g><g transform="translate(-22,-110) scale(1,1)"><path fill="none" stroke="#000000" d="M 880 275 L 900 275 L 900 285 L 880 285 L 880 275 Z Z" stroke-miterlimit="10"/></g><g transform="translate(-22,-110) scale(1,1)"><g><path fill="none" stroke="none"/><text fill="#000000" stroke="none" font-family="Arial" font-size="13px" font-style="normal" font-weight="normal" text-decoration="none" x="935" y="265.5">«jar»</text></g></g><g transform="translate(-22,-110) scale(1,1)"><g><path fill="none" stroke="none"/><text fill="#000000" stroke="none" font-family="Arial" font-size="13px" font-style="normal" font-weight="bold" text-decoration="none" x="906.5" y="280.5">spark-sql_2.11</text></g></g><g transform="translate(-22,-110) scale(1,1)"><path fill="none" stroke="#000000" d="M 812 270 L 879 270" stroke-miterlimit="10" stroke-dasharray="3"/></g><g transform="translate(-22,-110) scale(1,1)"><path fill="none" stroke="#000000" d="M 868.8373251423759 274.209517756016 L 879 270 L 868.8373251423758 265.790482243984" stroke-miterlimit="10"/></g><g transform="translate(-22,-110) scale(1,1)"><rect fill="#C0C0C0" stroke="none" x="841" y="343" width="199" height="44" opacity="0.2"/></g><g transform="translate(-22,-110) scale(1,1)"><rect fill="#ffffff" stroke="none" x="834" y="336" width="199" height="44"/></g><g transform="translate(-22,-110) scale(1,1)"><path fill="none" stroke="#000000" d="M 834 336 L 1033 336 L 1033 380 L 834 380 L 834 336 Z Z" stroke-miterlimit="10"/></g><g transform="translate(-22,-110) scale(1,1)"><rect fill="#ffffff" stroke="none" x="824" y="343" width="20" height="10"/></g><g transform="translate(-22,-110) scale(1,1)"><path fill="none" stroke="#000000" d="M 824 343 L 844 343 L 844 353 L 824 353 L 824 343 Z Z" stroke-miterlimit="10"/></g><g transform="translate(-22,-110) scale(1,1)"><rect fill="#ffffff" stroke="none" x="824" y="363" width="20" height="10"/></g><g transform="translate(-22,-110) scale(1,1)"><path fill="none" stroke="#000000" d="M 824 363 L 844 363 L 844 373 L 824 373 L 824 363 Z Z" stroke-miterlimit="10"/></g><g transform="translate(-22,-110) scale(1,1)"><g><path fill="none" stroke="none"/><text fill="#000000" stroke="none" font-family="Arial" font-size="13px" font-style="normal" font-weight="normal" text-decoration="none" x="924.5" y="353.5">«jar»</text></g></g><g transform="translate(-22,-110) scale(1,1)"><g><path fill="none" stroke="none"/><text fill="#000000" stroke="none" font-family="Arial" font-size="13px" font-style="normal" font-weight="bold" text-decoration="none" x="854.5" y="368.5">mongo-spark-connector_2.11</text></g></g><g transform="translate(-22,-110) scale(1,1)"><path fill="none" stroke="#000000" d="M 781 293 L 876 335" stroke-miterlimit="10" stroke-dasharray="3"/></g><g transform="translate(-22,-110) scale(1,1)"><path fill="none" stroke="#000000" d="M 865.0030554115356 334.74075162827427 L 876 335 L 868.4073021908229 327.0406696275053" stroke-miterlimit="10"/></g><g transform="translate(-22,-110) scale(1,1)"><rect fill="#C0C0C0" stroke="none" x="505" y="327" width="98" height="44" opacity="0.2"/></g><g transform="translate(-22,-110) scale(1,1)"><rect fill="#ffffff" stroke="none" x="498" y="320" width="98" height="44"/></g><g transform="translate(-22,-110) scale(1,1)"><path fill="none" stroke="#000000" d="M 498 320 L 596 320 L 596 364 L 498 364 L 498 320 Z Z" stroke-miterlimit="10"/></g><g transform="translate(-22,-110) scale(1,1)"><rect fill="#ffffff" stroke="none" x="488" y="327" width="20" height="10"/></g><g transform="translate(-22,-110) scale(1,1)"><path fill="none" stroke="#000000" d="M 488 327 L 508 327 L 508 337 L 488 337 L 488 327 Z Z" stroke-miterlimit="10"/></g><g transform="translate(-22,-110) scale(1,1)"><rect fill="#ffffff" stroke="none" x="488" y="347" width="20" height="10"/></g><g transform="translate(-22,-110) scale(1,1)"><path fill="none" stroke="#000000" d="M 488 347 L 508 347 L 508 357 L 488 357 L 488 347 Z Z" stroke-miterlimit="10"/></g><g transform="translate(-22,-110) scale(1,1)"><g><path fill="none" stroke="none"/><text fill="#000000" stroke="none" font-family="Arial" font-size="13px" font-style="normal" font-weight="normal" text-decoration="none" x="520.5" y="337.5">«CronTab»</text></g></g><g transform="translate(-22,-110) scale(1,1)"><g><path fill="none" stroke="none"/><text fill="#000000" stroke="none" font-family="Arial" font-size="13px" font-style="normal" font-weight="bold" text-decoration="none" x="523" y="352.5">Scheduler</text></g></g><g transform="translate(-22,-110) scale(1,1)"><path fill="none" stroke="#000000" d="M 597 321 L 669 293" stroke-miterlimit="10" stroke-dasharray="3"/></g><g transform="translate(-22,-110) scale(1,1)"><path fill="none" stroke="#000000" d="M 661.0540635292724 300.6067137190222 L 669 293 L 658.0026155854057 292.76013329193637" stroke-miterlimit="10"/></g><g transform="translate(-22,-110) scale(1,1)"><rect fill="#C0C0C0" stroke="none" x="377" y="463" width="130" height="44" opacity="0.2"/></g><g transform="translate(-22,-110) scale(1,1)"><rect fill="#ffffff" stroke="none" x="370" y="456" width="130" height="44"/></g><g transform="translate(-22,-110) scale(1,1)"><path fill="none" stroke="#000000" d="M 370 456 L 500 456 L 500 500 L 370 500 L 370 456 Z Z" stroke-miterlimit="10"/></g><g transform="translate(-22,-110) scale(1,1)"><rect fill="#ffffff" stroke="none" x="360" y="463" width="20" height="10"/></g><g transform="translate(-22,-110) scale(1,1)"><path fill="none" stroke="#000000" d="M 360 463 L 380 463 L 380 473 L 360 473 L 360 463 Z Z" stroke-miterlimit="10"/></g><g transform="translate(-22,-110) scale(1,1)"><rect fill="#ffffff" stroke="none" x="360" y="483" width="20" height="10"/></g><g transform="translate(-22,-110) scale(1,1)"><path fill="none" stroke="#000000" d="M 360 483 L 380 483 L 380 493 L 360 493 L 360 483 Z Z" stroke-miterlimit="10"/></g><g transform="translate(-22,-110) scale(1,1)"><g><path fill="none" stroke="none"/><text fill="#000000" stroke="none" font-family="Arial" font-size="13px" font-style="normal" font-weight="normal" text-decoration="none" x="400" y="473.5">«MySql5.6.7»</text></g></g><g transform="translate(-22,-110) scale(1,1)"><g><path fill="none" stroke="none"/><text fill="#000000" stroke="none" font-family="Arial" font-size="13px" font-style="normal" font-weight="bold" text-decoration="none" x="389" y="488.5">esibank_proto_db</text></g></g><g transform="translate(-22,-110) scale(1,1)"><rect fill="#C0C0C0" stroke="none" x="441" y="391" width="146" height="44" opacity="0.2"/></g><g transform="translate(-22,-110) scale(1,1)"><rect fill="#ffffff" stroke="none" x="434" y="384" width="146" height="44"/></g><g transform="translate(-22,-110) scale(1,1)"><path fill="none" stroke="#000000" d="M 434 384 L 580 384 L 580 428 L 434 428 L 434 384 Z Z" stroke-miterlimit="10"/></g><g transform="translate(-22,-110) scale(1,1)"><rect fill="#ffffff" stroke="none" x="424" y="391" width="20" height="10"/></g><g transform="translate(-22,-110) scale(1,1)"><path fill="none" stroke="#000000" d="M 424 391 L 444 391 L 444 401 L 424 401 L 424 391 Z Z" stroke-miterlimit="10"/></g><g transform="translate(-22,-110) scale(1,1)"><rect fill="#ffffff" stroke="none" x="424" y="411" width="20" height="10"/></g><g transform="translate(-22,-110) scale(1,1)"><path fill="none" stroke="#000000" d="M 424 411 L 444 411 L 444 421 L 424 421 L 424 411 Z Z" stroke-miterlimit="10"/></g><g transform="translate(-22,-110) scale(1,1)"><g><path fill="none" stroke="none"/><text fill="#000000" stroke="none" font-family="Arial" font-size="13px" font-style="normal" font-weight="normal" text-decoration="none" x="472" y="401.5">«MySql5.6.7»</text></g></g><g transform="translate(-22,-110) scale(1,1)"><g><path fill="none" stroke="none"/><text fill="#000000" stroke="none" font-family="Arial" font-size="13px" font-style="normal" font-weight="bold" text-decoration="none" x="453.5" y="416.5">esibank_decisionnel</text></g></g><g transform="translate(-22,-110) scale(1,1)"><rect fill="#C0C0C0" stroke="none" x="713" y="423" width="98" height="44" opacity="0.2"/></g><g transform="translate(-22,-110) scale(1,1)"><rect fill="#ffffff" stroke="none" x="706" y="416" width="98" height="44"/></g><g transform="translate(-22,-110) scale(1,1)"><path fill="none" stroke="#000000" d="M 706 416 L 804 416 L 804 460 L 706 460 L 706 416 Z Z" stroke-miterlimit="10"/></g><g transform="translate(-22,-110) scale(1,1)"><rect fill="#ffffff" stroke="none" x="696" y="423" width="20" height="10"/></g><g transform="translate(-22,-110) scale(1,1)"><path fill="none" stroke="#000000" d="M 696 423 L 716 423 L 716 433 L 696 433 L 696 423 Z Z" stroke-miterlimit="10"/></g><g transform="translate(-22,-110) scale(1,1)"><rect fill="#ffffff" stroke="none" x="696" y="443" width="20" height="10"/></g><g transform="translate(-22,-110) scale(1,1)"><path fill="none" stroke="#000000" d="M 696 443 L 716 443 L 716 453 L 696 453 L 696 443 Z Z" stroke-miterlimit="10"/></g><g transform="translate(-22,-110) scale(1,1)"><g><path fill="none" stroke="none"/><text fill="#000000" stroke="none" font-family="Arial" font-size="13px" font-style="normal" font-weight="normal" text-decoration="none" x="735.5" y="433.5">«mysql»</text></g></g><g transform="translate(-22,-110) scale(1,1)"><g><path fill="none" stroke="none"/><text fill="#000000" stroke="none" font-family="Arial" font-size="13px" font-style="normal" font-weight="bold" text-decoration="none" x="727" y="448.5">MySql5.6.7</text></g></g><g transform="translate(-22,-110) scale(1,1)"><path fill="none" stroke="#000000" d="M 501 469 L 695 445" stroke-miterlimit="10" stroke-dasharray="3"/></g><g transform="translate(-22,-110) scale(1,1)"><path fill="none" stroke="#000000" d="M 685.4310362669119 450.42539704306006 L 695 445 L 684.397385815628 442.07005589518246" stroke-miterlimit="10"/></g><g transform="translate(-22,-110) scale(1,1)"><path fill="none" stroke="#000000" d="M 581 416 L 695 431" stroke-miterlimit="10" stroke-dasharray="3"/></g><g transform="translate(-22,-110) scale(1,1)"><path fill="none" stroke="#000000" d="M 684.3750217711846 433.84777766639183 L 695 431 L 685.473322945228 425.50068874366247" stroke-miterlimit="10"/></g><g transform="translate(-22,-110) scale(1,1)"><path fill="none" stroke="#000000" d="M 293 285 L 414 455" stroke-miterlimit="10" stroke-dasharray="3"/></g><g transform="translate(-22,-110) scale(1,1)"><path fill="none" stroke="#000000" d="M 404.6773847406282 449.1614347031374 L 414 455 L 411.536404645517 444.27942641789303" stroke-miterlimit="10"/></g><g transform="translate(-22,-110) scale(1,1)"><path fill="none" stroke="#000000" d="M 313 285 L 466 383" stroke-miterlimit="10" stroke-dasharray="3"/></g><g transform="translate(-22,-110) scale(1,1)"><path fill="none" stroke="#000000" d="M 455.17183098444724 381.0633131975914 L 466 383 L 459.7127726322862 373.973883890251" stroke-miterlimit="10"/></g><g transform="translate(-22,-110) scale(1,1)"><rect fill="#C0C0C0" stroke="none" x="569" y="535" width="98" height="44" opacity="0.2"/></g><g transform="translate(-22,-110) scale(1,1)"><rect fill="#ffffff" stroke="none" x="562" y="528" width="98" height="44"/></g><g transform="translate(-22,-110) scale(1,1)"><path fill="none" stroke="#000000" d="M 562 528 L 660 528 L 660 572 L 562 572 L 562 528 Z Z" stroke-miterlimit="10"/></g><g transform="translate(-22,-110) scale(1,1)"><rect fill="#ffffff" stroke="none" x="552" y="535" width="20" height="10"/></g><g transform="translate(-22,-110) scale(1,1)"><path fill="none" stroke="#000000" d="M 552 535 L 572 535 L 572 545 L 552 545 L 552 535 Z Z" stroke-miterlimit="10"/></g><g transform="translate(-22,-110) scale(1,1)"><rect fill="#ffffff" stroke="none" x="552" y="555" width="20" height="10"/></g><g transform="translate(-22,-110) scale(1,1)"><path fill="none" stroke="#000000" d="M 552 555 L 572 555 L 572 565 L 552 565 L 552 555 Z Z" stroke-miterlimit="10"/></g><g transform="translate(-22,-110) scale(1,1)"><g><path fill="none" stroke="none"/><text fill="#000000" stroke="none" font-family="Arial" font-size="13px" font-style="normal" font-weight="bold" text-decoration="none" x="591.5" y="547.5">Qlikview</text></g></g><g transform="translate(-22,-110) scale(1,1)"><rect fill="#C0C0C0" stroke="none" x="385" y="535" width="115" height="44" opacity="0.2"/></g><g transform="translate(-22,-110) scale(1,1)"><rect fill="#ffffff" stroke="none" x="378" y="528" width="115" height="44"/></g><g transform="translate(-22,-110) scale(1,1)"><path fill="none" stroke="#000000" d="M 378 528 L 493 528 L 493 572 L 378 572 L 378 528 Z Z" stroke-miterlimit="10"/></g><g transform="translate(-22,-110) scale(1,1)"><rect fill="#ffffff" stroke="none" x="368" y="535" width="20" height="10"/></g><g transform="translate(-22,-110) scale(1,1)"><path fill="none" stroke="#000000" d="M 368 535 L 388 535 L 388 545 L 368 545 L 368 535 Z Z" stroke-miterlimit="10"/></g><g transform="translate(-22,-110) scale(1,1)"><rect fill="#ffffff" stroke="none" x="368" y="555" width="20" height="10"/></g><g transform="translate(-22,-110) scale(1,1)"><path fill="none" stroke="#000000" d="M 368 555 L 388 555 L 388 565 L 368 565 L 368 555 Z Z" stroke-miterlimit="10"/></g><g transform="translate(-22,-110) scale(1,1)"><g><path fill="none" stroke="none"/><text fill="#000000" stroke="none" font-family="Arial" font-size="13px" font-style="normal" font-weight="normal" text-decoration="none" x="393" y="545.5">«QlikView Item»</text></g></g><g transform="translate(-22,-110) scale(1,1)"><g><path fill="none" stroke="none"/><text fill="#000000" stroke="none" font-family="Arial" font-size="13px" font-style="normal" font-weight="bold" text-decoration="none" x="396" y="560.5">Dashboard.qvw</text></g></g><g transform="translate(-22,-110) scale(1,1)"><path fill="none" stroke="#000000" d="M 430 527 L 430 501" stroke-miterlimit="10" stroke-dasharray="3"/></g><g transform="translate(-22,-110) scale(1,1)"><path fill="none" stroke="#000000" d="M 434.209517756016 511.16267485762415 L 430 501 L 425.790482243984 511.16267485762415" stroke-miterlimit="10"/></g><g transform="translate(-22,-110) scale(1,1)"><path fill="none" stroke="#000000" d="M 494 550 L 551 550" stroke-miterlimit="10" stroke-dasharray="3"/></g><g transform="translate(-22,-110) scale(1,1)"><path fill="none" stroke="#000000" d="M 540.8373251423759 554.209517756016 L 551 550 L 540.8373251423758 545.790482243984" stroke-miterlimit="10"/></g><g transform="translate(-22,-110) scale(1,1)"><rect fill="#C0C0C0" stroke="none" x="769" y="551" width="98" height="44" opacity="0.2"/></g><g transform="translate(-22,-110) scale(1,1)"><rect fill="#ffffff" stroke="none" x="762" y="544" width="98" height="44"/></g><g transform="translate(-22,-110) scale(1,1)"><path fill="none" stroke="#000000" d="M 762 544 L 860 544 L 860 588 L 762 588 L 762 544 Z Z" stroke-miterlimit="10"/></g><g transform="translate(-22,-110) scale(1,1)"><rect fill="#ffffff" stroke="none" x="752" y="551" width="20" height="10"/></g><g transform="translate(-22,-110) scale(1,1)"><path fill="none" stroke="#000000" d="M 752 551 L 772 551 L 772 561 L 752 561 L 752 551 Z Z" stroke-miterlimit="10"/></g><g transform="translate(-22,-110) scale(1,1)"><rect fill="#ffffff" stroke="none" x="752" y="571" width="20" height="10"/></g><g transform="translate(-22,-110) scale(1,1)"><path fill="none" stroke="#000000" d="M 752 571 L 772 571 L 772 581 L 752 581 L 752 571 Z Z" stroke-miterlimit="10"/></g><g transform="translate(-22,-110) scale(1,1)"><g><path fill="none" stroke="none"/><text fill="#000000" stroke="none" font-family="Arial" font-size="13px" font-style="normal" font-weight="bold" text-decoration="none" x="789.5" y="563.5">Mongodb</text></g></g><g transform="translate(-22,-110) scale(1,1)"><rect fill="#C0C0C0" stroke="none" x="953" y="439" width="128" height="44" opacity="0.2"/></g><g transform="translate(-22,-110) scale(1,1)"><rect fill="#ffffff" stroke="none" x="946" y="432" width="128" height="44"/></g><g transform="translate(-22,-110) scale(1,1)"><path fill="none" stroke="#000000" d="M 946 432 L 1074 432 L 1074 476 L 946 476 L 946 432 Z Z" stroke-miterlimit="10"/></g><g transform="translate(-22,-110) scale(1,1)"><rect fill="#ffffff" stroke="none" x="936" y="439" width="20" height="10"/></g><g transform="translate(-22,-110) scale(1,1)"><path fill="none" stroke="#000000" d="M 936 439 L 956 439 L 956 449 L 936 449 L 936 439 Z Z" stroke-miterlimit="10"/></g><g transform="translate(-22,-110) scale(1,1)"><rect fill="#ffffff" stroke="none" x="936" y="459" width="20" height="10"/></g><g transform="translate(-22,-110) scale(1,1)"><path fill="none" stroke="#000000" d="M 936 459 L 956 459 L 956 469 L 936 469 L 936 459 Z Z" stroke-miterlimit="10"/></g><g transform="translate(-22,-110) scale(1,1)"><g><path fill="none" stroke="none"/><text fill="#000000" stroke="none" font-family="Arial" font-size="13px" font-style="normal" font-weight="normal" text-decoration="none" x="1001" y="449.5">«jar»</text></g></g><g transform="translate(-22,-110) scale(1,1)"><g><path fill="none" stroke="none"/><text fill="#000000" stroke="none" font-family="Arial" font-size="13px" font-style="normal" font-weight="bold" text-decoration="none" x="962.5" y="464.5">Extract_tweets.jar</text></g></g><g transform="translate(-22,-110) scale(1,1)"><rect fill="#C0C0C0" stroke="none" x="945" y="535" width="155" height="44" opacity="0.2"/></g><g transform="translate(-22,-110) scale(1,1)"><rect fill="#ffffff" stroke="none" x="938" y="528" width="155" height="44"/></g><g transform="translate(-22,-110) scale(1,1)"><path fill="none" stroke="#000000" d="M 938 528 L 1093 528 L 1093 572 L 938 572 L 938 528 Z Z" stroke-miterlimit="10"/></g><g transform="translate(-22,-110) scale(1,1)"><rect fill="#ffffff" stroke="none" x="928" y="535" width="20" height="10"/></g><g transform="translate(-22,-110) scale(1,1)"><path fill="none" stroke="#000000" d="M 928 535 L 948 535 L 948 545 L 928 545 L 928 535 Z Z" stroke-miterlimit="10"/></g><g transform="translate(-22,-110) scale(1,1)"><rect fill="#ffffff" stroke="none" x="928" y="555" width="20" height="10"/></g><g transform="translate(-22,-110) scale(1,1)"><path fill="none" stroke="#000000" d="M 928 555 L 948 555 L 948 565 L 928 565 L 928 555 Z Z" stroke-miterlimit="10"/></g><g transform="translate(-22,-110) scale(1,1)"><g><path fill="none" stroke="none"/><text fill="#000000" stroke="none" font-family="Arial" font-size="13px" font-style="normal" font-weight="normal" text-decoration="none" x="982" y="545.5">«shell script»</text></g></g><g transform="translate(-22,-110) scale(1,1)"><g><path fill="none" stroke="none"/><text fill="#000000" stroke="none" font-family="Arial" font-size="13px" font-style="normal" font-weight="bold" text-decoration="none" x="955.5" y="560.5">Extract_tweets_run.sh</text></g></g><g transform="translate(-22,-110) scale(1,1)"><rect fill="#C0C0C0" stroke="none" x="977" y="623" width="98" height="44" opacity="0.2"/></g><g transform="translate(-22,-110) scale(1,1)"><rect fill="#ffffff" stroke="none" x="970" y="616" width="98" height="44"/></g><g transform="translate(-22,-110) scale(1,1)"><path fill="none" stroke="#000000" d="M 970 616 L 1068 616 L 1068 660 L 970 660 L 970 616 Z Z" stroke-miterlimit="10"/></g><g transform="translate(-22,-110) scale(1,1)"><rect fill="#ffffff" stroke="none" x="960" y="623" width="20" height="10"/></g><g transform="translate(-22,-110) scale(1,1)"><path fill="none" stroke="#000000" d="M 960 623 L 980 623 L 980 633 L 960 633 L 960 623 Z Z" stroke-miterlimit="10"/></g><g transform="translate(-22,-110) scale(1,1)"><rect fill="#ffffff" stroke="none" x="960" y="643" width="20" height="10"/></g><g transform="translate(-22,-110) scale(1,1)"><path fill="none" stroke="#000000" d="M 960 643 L 980 643 L 980 653 L 960 653 L 960 643 Z Z" stroke-miterlimit="10"/></g><g transform="translate(-22,-110) scale(1,1)"><g><path fill="none" stroke="none"/><text fill="#000000" stroke="none" font-family="Arial" font-size="13px" font-style="normal" font-weight="normal" text-decoration="none" x="992.5" y="633.5">«CronTab»</text></g></g><g transform="translate(-22,-110) scale(1,1)"><g><path fill="none" stroke="none"/><text fill="#000000" stroke="none" font-family="Arial" font-size="13px" font-style="normal" font-weight="bold" text-decoration="none" x="995" y="648.5">Scheduler</text></g></g><g transform="translate(-22,-110) scale(1,1)"><path fill="none" stroke="#000000" d="M 1013 615 L 1011 573" stroke-miterlimit="10" stroke-dasharray="3"/></g><g transform="translate(-22,-110) scale(1,1)"><path fill="none" stroke="#000000" d="M 1015.6881423097332 582.9509457683021 L 1011 573 L 1007.2786359863939 583.3513984503659" stroke-miterlimit="10"/></g><g transform="translate(-22,-110) scale(1,1)"><path fill="none" stroke="#000000" d="M 1009 527 L 1006 477" stroke-miterlimit="10" stroke-dasharray="3"/></g><g transform="translate(-22,-110) scale(1,1)"><path fill="none" stroke="#000000" d="M 1010.8106268982758 486.8923136245059 L 1006 477 L 1002.4067048560171 487.3965489470414" stroke-miterlimit="10"/></g><g transform="translate(-22,-110) scale(1,1)"><rect fill="#C0C0C0" stroke="none" x="1105" y="351" width="98" height="44" opacity="0.2"/></g><g transform="translate(-22,-110) scale(1,1)"><rect fill="#ffffff" stroke="none" x="1098" y="344" width="98" height="44"/></g><g transform="translate(-22,-110) scale(1,1)"><path fill="none" stroke="#000000" d="M 1098 344 L 1196 344 L 1196 388 L 1098 388 L 1098 344 Z Z" stroke-miterlimit="10"/></g><g transform="translate(-22,-110) scale(1,1)"><rect fill="#ffffff" stroke="none" x="1088" y="351" width="20" height="10"/></g><g transform="translate(-22,-110) scale(1,1)"><path fill="none" stroke="#000000" d="M 1088 351 L 1108 351 L 1108 361 L 1088 361 L 1088 351 Z Z" stroke-miterlimit="10"/></g><g transform="translate(-22,-110) scale(1,1)"><rect fill="#ffffff" stroke="none" x="1088" y="371" width="20" height="10"/></g><g transform="translate(-22,-110) scale(1,1)"><path fill="none" stroke="#000000" d="M 1088 371 L 1108 371 L 1108 381 L 1088 381 L 1088 371 Z Z" stroke-miterlimit="10"/></g><g transform="translate(-22,-110) scale(1,1)"><g><path fill="none" stroke="none"/><text fill="#000000" stroke="none" font-family="Arial" font-size="13px" font-style="normal" font-weight="normal" text-decoration="none" x="1138" y="361.5">«jar»</text></g></g><g transform="translate(-22,-110) scale(1,1)"><g><path fill="none" stroke="none"/><text fill="#000000" stroke="none" font-family="Arial" font-size="13px" font-style="normal" font-weight="bold" text-decoration="none" x="1129" y="376.5">routines</text></g></g><g transform="translate(-22,-110) scale(1,1)"><path fill="none" stroke="#000000" d="M 1041 431 L 1106 389" stroke-miterlimit="10" stroke-dasharray="3"/></g><g transform="translate(-22,-110) scale(1,1)"><path fill="none" stroke="#000000" d="M 1099.7487700435493 398.051084135703 L 1106 389 L 1095.1796299375917 390.9797958764828" stroke-miterlimit="10"/></g><g transform="translate(-22,-110) scale(1,1)"><rect fill="#C0C0C0" stroke="none" x="1137" y="431" width="98" height="44" opacity="0.2"/></g><g transform="translate(-22,-110) scale(1,1)"><rect fill="#ffffff" stroke="none" x="1130" y="424" width="98" height="44"/></g><g transform="translate(-22,-110) scale(1,1)"><path fill="none" stroke="#000000" d="M 1130 424 L 1228 424 L 1228 468 L 1130 468 L 1130 424 Z Z" stroke-miterlimit="10"/></g><g transform="translate(-22,-110) scale(1,1)"><rect fill="#ffffff" stroke="none" x="1120" y="431" width="20" height="10"/></g><g transform="translate(-22,-110) scale(1,1)"><path fill="none" stroke="#000000" d="M 1120 431 L 1140 431 L 1140 441 L 1120 441 L 1120 431 Z Z" stroke-miterlimit="10"/></g><g transform="translate(-22,-110) scale(1,1)"><rect fill="#ffffff" stroke="none" x="1120" y="451" width="20" height="10"/></g><g transform="translate(-22,-110) scale(1,1)"><path fill="none" stroke="#000000" d="M 1120 451 L 1140 451 L 1140 461 L 1120 461 L 1120 451 Z Z" stroke-miterlimit="10"/></g><g transform="translate(-22,-110) scale(1,1)"><g><path fill="none" stroke="none"/><text fill="#000000" stroke="none" font-family="Arial" font-size="13px" font-style="normal" font-weight="bold" text-decoration="none" x="1150.5" y="443.5">log4j-1.2.16</text></g></g><g transform="translate(-22,-110) scale(1,1)"><path fill="none" stroke="#000000" d="M 1075 451 L 1119 449" stroke-miterlimit="10" stroke-dasharray="3"/></g><g transform="translate(-22,-110) scale(1,1)"><path fill="none" stroke="#000000" d="M 1109.0389518877435 453.66663910167813 L 1119 449 L 1108.656663177951 445.25628748624484" stroke-miterlimit="10"/></g><g transform="translate(-22,-110) scale(1,1)"><rect fill="#C0C0C0" stroke="none" x="1161" y="511" width="98" height="44" opacity="0.2"/></g><g transform="translate(-22,-110) scale(1,1)"><rect fill="#ffffff" stroke="none" x="1154" y="504" width="98" height="44"/></g><g transform="translate(-22,-110) scale(1,1)"><path fill="none" stroke="#000000" d="M 1154 504 L 1252 504 L 1252 548 L 1154 548 L 1154 504 Z Z" stroke-miterlimit="10"/></g><g transform="translate(-22,-110) scale(1,1)"><rect fill="#ffffff" stroke="none" x="1144" y="511" width="20" height="10"/></g><g transform="translate(-22,-110) scale(1,1)"><path fill="none" stroke="#000000" d="M 1144 511 L 1164 511 L 1164 521 L 1144 521 L 1144 511 Z Z" stroke-miterlimit="10"/></g><g transform="translate(-22,-110) scale(1,1)"><rect fill="#ffffff" stroke="none" x="1144" y="531" width="20" height="10"/></g><g transform="translate(-22,-110) scale(1,1)"><path fill="none" stroke="#000000" d="M 1144 531 L 1164 531 L 1164 541 L 1144 541 L 1144 531 Z Z" stroke-miterlimit="10"/></g><g transform="translate(-22,-110) scale(1,1)"><g><path fill="none" stroke="none"/><text fill="#000000" stroke="none" font-family="Arial" font-size="13px" font-style="normal" font-weight="bold" text-decoration="none" x="1179" y="523.5">JRE-1.8.0</text></g></g><g transform="translate(-22,-110) scale(1,1)"><path fill="none" stroke="#000000" d="M 1067 477 L 1143 505" stroke-miterlimit="10" stroke-dasharray="3"/></g><g transform="translate(-22,-110) scale(1,1)"><path fill="none" stroke="#000000" d="M 1132.0086711525644 505.4366808531763 L 1143 505 L 1134.9191768452317 497.53673683022225" stroke-miterlimit="10"/></g><g transform="translate(-22,-110) scale(1,1)"><path fill="none" stroke="#000000" d="M 964 477 L 847 543" stroke-miterlimit="10" stroke-dasharray="3"/></g><g transform="translate(-22,-110) scale(1,1)"><path fill="none" stroke="#000000" d="M 853.7832457153663 534.3404632014776 L 847 543 L 857.9196962359598 541.6732618516205" stroke-miterlimit="10"/></g></g></svg>