<svg version="1.1" xmlns="http://www.w3.org/2000/svg" xmlns:xlink="http://www.w3.org/1999/xlink" width="652" height="477"><defs/><g><g transform="translate(-6,-22) scale(1,1)"><path fill="#C0C0C0" stroke="none" d="M 47 49 L 332 49 L 332 222 L 47 222" opacity="0.2"/></g><g transform="translate(-6,-22) scale(1,1)"><path fill="#C0C0C0" stroke="none" d="M 47 49 L 57 39 L 342 39 L 332 49" opacity="0.2"/></g><g transform="translate(-6,-22) scale(1,1)"><path fill="#C0C0C0" stroke="none" d="M 342 39 L 332 49 L 332 222 L 342 212" opacity="0.2"/></g><g transform="translate(-6,-22) scale(1,1)"><path fill="#ffffff" stroke="none" d="M 40 42 L 325 42 L 325 215 L 40 215"/></g><g transform="translate(-6,-22) scale(1,1)"><path fill="#ffffff" stroke="none" d="M 40 42 L 50 32 L 335 32 L 325 42"/></g><g transform="translate(-6,-22) scale(1,1)"><path fill="#ffffff" stroke="none" d="M 335 32 L 325 42 L 325 215 L 335 205"/></g><g transform="translate(-6,-22) scale(1,1)"><path fill="none" stroke="#000000" d="M 40 42 L 325 42 L 325 215 L 40 215 L 40 42" stroke-miterlimit="10"/></g><g transform="translate(-6,-22) scale(1,1)"><path fill="none" stroke="#000000" d="M 40 42 L 50 32 L 335 32 L 325 42 L 40 42" stroke-miterlimit="10"/></g><g transform="translate(-6,-22) scale(1,1)"><path fill="none" stroke="#000000" d="M 335 32 L 325 42 L 325 215 L 335 205 L 335 32" stroke-miterlimit="10"/></g><g transform="translate(-6,-22) scale(1,1)"><g><path fill="none" stroke="none"/><text fill="#000000" stroke="none" font-family="Arial" font-size="13px" font-style="normal" font-weight="normal" text-decoration="none" x="139.5" y="59.5">«Linux Server»</text></g></g><g transform="translate(-6,-22) scale(1,1)"><g><path fill="none" stroke="none"/><text fill="#000000" stroke="none" font-family="Arial" font-size="13px" font-style="normal" font-weight="bold" text-decoration="none" x="133.5" y="74.5">DB Server Mysql</text></g></g><g transform="translate(-6,-22) scale(1,1)"><path fill="#C0C0C0" stroke="none" d="M 375 49 L 644 49 L 644 222 L 375 222" opacity="0.2"/></g><g transform="translate(-6,-22) scale(1,1)"><path fill="#C0C0C0" stroke="none" d="M 375 49 L 385 39 L 654 39 L 644 49" opacity="0.2"/></g><g transform="translate(-6,-22) scale(1,1)"><path fill="#C0C0C0" stroke="none" d="M 654 39 L 644 49 L 644 222 L 654 212" opacity="0.2"/></g><g transform="translate(-6,-22) scale(1,1)"><path fill="#ffffff" stroke="none" d="M 368 42 L 637 42 L 637 215 L 368 215"/></g><g transform="translate(-6,-22) scale(1,1)"><path fill="#ffffff" stroke="none" d="M 368 42 L 378 32 L 647 32 L 637 42"/></g><g transform="translate(-6,-22) scale(1,1)"><path fill="#ffffff" stroke="none" d="M 647 32 L 637 42 L 637 215 L 647 205"/></g><g transform="translate(-6,-22) scale(1,1)"><path fill="none" stroke="#000000" d="M 368 42 L 637 42 L 637 215 L 368 215 L 368 42" stroke-miterlimit="10"/></g><g transform="translate(-6,-22) scale(1,1)"><path fill="none" stroke="#000000" d="M 368 42 L 378 32 L 647 32 L 637 42 L 368 42" stroke-miterlimit="10"/></g><g transform="translate(-6,-22) scale(1,1)"><path fill="none" stroke="#000000" d="M 647 32 L 637 42 L 637 215 L 647 205 L 647 32" stroke-miterlimit="10"/></g><g transform="translate(-6,-22) scale(1,1)"><g><path fill="none" stroke="none"/><text fill="#000000" stroke="none" font-family="Arial" font-size="13px" font-style="normal" font-weight="normal" text-decoration="none" x="459.5" y="59.5">«Linux Server»</text></g></g><g transform="translate(-6,-22) scale(1,1)"><g><path fill="none" stroke="none"/><text fill="#000000" stroke="none" font-family="Arial" font-size="13px" font-style="normal" font-weight="bold" text-decoration="none" x="462.5" y="74.5">Talend Server</text></g></g><g transform="translate(-6,-22) scale(1,1)"><rect fill="#C0C0C0" stroke="none" x="73" y="95" width="146" height="44" opacity="0.2"/></g><g transform="translate(-6,-22) scale(1,1)"><rect fill="#ffffff" stroke="none" x="66" y="88" width="146" height="44"/></g><g transform="translate(-6,-22) scale(1,1)"><path fill="none" stroke="#000000" d="M 66 88 L 212 88 L 212 132 L 66 132 L 66 88 Z Z" stroke-miterlimit="10"/></g><g transform="translate(-6,-22) scale(1,1)"><rect fill="#ffffff" stroke="none" x="56" y="95" width="20" height="10"/></g><g transform="translate(-6,-22) scale(1,1)"><path fill="none" stroke="#000000" d="M 56 95 L 76 95 L 76 105 L 56 105 L 56 95 Z Z" stroke-miterlimit="10"/></g><g transform="translate(-6,-22) scale(1,1)"><rect fill="#ffffff" stroke="none" x="56" y="115" width="20" height="10"/></g><g transform="translate(-6,-22) scale(1,1)"><path fill="none" stroke="#000000" d="M 56 115 L 76 115 L 76 125 L 56 125 L 56 115 Z Z" stroke-miterlimit="10"/></g><g transform="translate(-6,-22) scale(1,1)"><g><path fill="none" stroke="none"/><text fill="#000000" stroke="none" font-family="Arial" font-size="13px" font-style="normal" font-weight="normal" text-decoration="none" x="104" y="105.5">«MySql5.6.7»</text></g></g><g transform="translate(-6,-22) scale(1,1)"><g><path fill="none" stroke="none"/><text fill="#000000" stroke="none" font-family="Arial" font-size="13px" font-style="normal" font-weight="bold" text-decoration="none" x="85.5" y="120.5">esibank_decisionnel</text></g></g><g transform="translate(-6,-22) scale(1,1)"><rect fill="#C0C0C0" stroke="none" x="185" y="167" width="130" height="44" opacity="0.2"/></g><g transform="translate(-6,-22) scale(1,1)"><rect fill="#ffffff" stroke="none" x="178" y="160" width="130" height="44"/></g><g transform="translate(-6,-22) scale(1,1)"><path fill="none" stroke="#000000" d="M 178 160 L 308 160 L 308 204 L 178 204 L 178 160 Z Z" stroke-miterlimit="10"/></g><g transform="translate(-6,-22) scale(1,1)"><rect fill="#ffffff" stroke="none" x="168" y="167" width="20" height="10"/></g><g transform="translate(-6,-22) scale(1,1)"><path fill="none" stroke="#000000" d="M 168 167 L 188 167 L 188 177 L 168 177 L 168 167 Z Z" stroke-miterlimit="10"/></g><g transform="translate(-6,-22) scale(1,1)"><rect fill="#ffffff" stroke="none" x="168" y="187" width="20" height="10"/></g><g transform="translate(-6,-22) scale(1,1)"><path fill="none" stroke="#000000" d="M 168 187 L 188 187 L 188 197 L 168 197 L 168 187 Z Z" stroke-miterlimit="10"/></g><g transform="translate(-6,-22) scale(1,1)"><g><path fill="none" stroke="none"/><text fill="#000000" stroke="none" font-family="Arial" font-size="13px" font-style="normal" font-weight="normal" text-decoration="none" x="208" y="177.5">«MySql5.6.7»</text></g></g><g transform="translate(-6,-22) scale(1,1)"><g><path fill="none" stroke="none"/><text fill="#000000" stroke="none" font-family="Arial" font-size="13px" font-style="normal" font-weight="bold" text-decoration="none" x="197" y="192.5">esibank_proto_db</text></g></g><g transform="translate(-6,-22) scale(1,1)"><rect fill="#C0C0C0" stroke="none" x="409" y="95" width="202" height="44" opacity="0.2"/></g><g transform="translate(-6,-22) scale(1,1)"><rect fill="#ffffff" stroke="none" x="402" y="88" width="202" height="44"/></g><g transform="translate(-6,-22) scale(1,1)"><path fill="none" stroke="#000000" d="M 402 88 L 604 88 L 604 132 L 402 132 L 402 88 Z Z" stroke-miterlimit="10"/></g><g transform="translate(-6,-22) scale(1,1)"><rect fill="#ffffff" stroke="none" x="392" y="95" width="20" height="10"/></g><g transform="translate(-6,-22) scale(1,1)"><path fill="none" stroke="#000000" d="M 392 95 L 412 95 L 412 105 L 392 105 L 392 95 Z Z" stroke-miterlimit="10"/></g><g transform="translate(-6,-22) scale(1,1)"><rect fill="#ffffff" stroke="none" x="392" y="115" width="20" height="10"/></g><g transform="translate(-6,-22) scale(1,1)"><path fill="none" stroke="#000000" d="M 392 115 L 412 115 L 412 125 L 392 125 L 392 115 Z Z" stroke-miterlimit="10"/></g><g transform="translate(-6,-22) scale(1,1)"><g><path fill="none" stroke="none"/><text fill="#000000" stroke="none" font-family="Arial" font-size="13px" font-style="normal" font-weight="normal" text-decoration="none" x="494" y="105.5">«jar»</text></g></g><g transform="translate(-6,-22) scale(1,1)"><g><path fill="none" stroke="none"/><text fill="#000000" stroke="none" font-family="Arial" font-size="13px" font-style="normal" font-weight="bold" text-decoration="none" x="421" y="120.5">data_extract_transform-0.1.jar</text></g></g><g transform="translate(-6,-22) scale(1,1)"><path fill="#C0C0C0" stroke="none" d="M 39 313 L 340 313 L 340 462 L 39 462" opacity="0.2"/></g><g transform="translate(-6,-22) scale(1,1)"><path fill="#C0C0C0" stroke="none" d="M 39 313 L 49 303 L 350 303 L 340 313" opacity="0.2"/></g><g transform="translate(-6,-22) scale(1,1)"><path fill="#C0C0C0" stroke="none" d="M 350 303 L 340 313 L 340 462 L 350 452" opacity="0.2"/></g><g transform="translate(-6,-22) scale(1,1)"><path fill="#ffffff" stroke="none" d="M 32 306 L 333 306 L 333 455 L 32 455"/></g><g transform="translate(-6,-22) scale(1,1)"><path fill="#ffffff" stroke="none" d="M 32 306 L 42 296 L 343 296 L 333 306"/></g><g transform="translate(-6,-22) scale(1,1)"><path fill="#ffffff" stroke="none" d="M 343 296 L 333 306 L 333 455 L 343 445"/></g><g transform="translate(-6,-22) scale(1,1)"><path fill="none" stroke="#000000" d="M 32 306 L 333 306 L 333 455 L 32 455 L 32 306" stroke-miterlimit="10"/></g><g transform="translate(-6,-22) scale(1,1)"><path fill="none" stroke="#000000" d="M 32 306 L 42 296 L 343 296 L 333 306 L 32 306" stroke-miterlimit="10"/></g><g transform="translate(-6,-22) scale(1,1)"><path fill="none" stroke="#000000" d="M 343 296 L 333 306 L 333 455 L 343 445 L 343 296" stroke-miterlimit="10"/></g><g transform="translate(-6,-22) scale(1,1)"><g><path fill="none" stroke="none"/><text fill="#000000" stroke="none" font-family="Arial" font-size="13px" font-style="normal" font-weight="normal" text-decoration="none" x="139.5" y="323.5">«Linux Server»</text></g></g><g transform="translate(-6,-22) scale(1,1)"><g><path fill="none" stroke="none"/><text fill="#000000" stroke="none" font-family="Arial" font-size="13px" font-style="normal" font-weight="bold" text-decoration="none" x="135.5" y="338.5">Mongodb Server</text></g></g><g transform="translate(-6,-22) scale(1,1)"><rect fill="#C0C0C0" stroke="none" x="409" y="151" width="198" height="44" opacity="0.2"/></g><g transform="translate(-6,-22) scale(1,1)"><rect fill="#ffffff" stroke="none" x="402" y="144" width="198" height="44"/></g><g transform="translate(-6,-22) scale(1,1)"><path fill="none" stroke="#000000" d="M 402 144 L 600 144 L 600 188 L 402 188 L 402 144 Z Z" stroke-miterlimit="10"/></g><g transform="translate(-6,-22) scale(1,1)"><rect fill="#ffffff" stroke="none" x="392" y="151" width="20" height="10"/></g><g transform="translate(-6,-22) scale(1,1)"><path fill="none" stroke="#000000" d="M 392 151 L 412 151 L 412 161 L 392 161 L 392 151 Z Z" stroke-miterlimit="10"/></g><g transform="translate(-6,-22) scale(1,1)"><rect fill="#ffffff" stroke="none" x="392" y="171" width="20" height="10"/></g><g transform="translate(-6,-22) scale(1,1)"><path fill="none" stroke="#000000" d="M 392 171 L 412 171 L 412 181 L 392 181 L 392 171 Z Z" stroke-miterlimit="10"/></g><g transform="translate(-6,-22) scale(1,1)"><g><path fill="none" stroke="none"/><text fill="#000000" stroke="none" font-family="Arial" font-size="13px" font-style="normal" font-weight="normal" text-decoration="none" x="492" y="161.5">«jar»</text></g></g><g transform="translate(-6,-22) scale(1,1)"><g><path fill="none" stroke="none"/><text fill="#000000" stroke="none" font-family="Arial" font-size="13px" font-style="normal" font-weight="bold" text-decoration="none" x="454.5" y="176.5">extract_tweets.jar</text></g></g><g transform="translate(-6,-22) scale(1,1)"><path fill="none" stroke="#000000" d="M 191 217 L 192 256 L 504 256 L 505 217" stroke-miterlimit="10"/></g><g transform="translate(-6,-22) scale(1,1)"><g><path fill="none" stroke="none"/><text fill="#000000" stroke="none" font-family="Arial" font-size="13px" font-style="normal" font-weight="normal" text-decoration="none" x="326.5" y="247.5">+JDBC</text></g></g><g transform="translate(-6,-22) scale(1,1)"><g><path fill="none" stroke="none"/><text fill="#000000" stroke="none" font-family="Arial" font-size="13px" font-style="normal" font-weight="normal" text-decoration="none" x="175.5" y="244.5">1</text></g></g><g transform="translate(-6,-22) scale(1,1)"><g><path fill="none" stroke="none"/><text fill="#000000" stroke="none" font-family="Arial" font-size="13px" font-style="normal" font-weight="normal" text-decoration="none" x="512.5" y="244.5">1</text></g></g><g transform="translate(-6,-22) scale(1,1)"><rect fill="#C0C0C0" stroke="none" x="73" y="359" width="110" height="44" opacity="0.2"/></g><g transform="translate(-6,-22) scale(1,1)"><rect fill="#ffffff" stroke="none" x="66" y="352" width="110" height="44"/></g><g transform="translate(-6,-22) scale(1,1)"><path fill="none" stroke="#000000" d="M 66 352 L 176 352 L 176 396 L 66 396 L 66 352 Z Z" stroke-miterlimit="10"/></g><g transform="translate(-6,-22) scale(1,1)"><rect fill="#ffffff" stroke="none" x="56" y="359" width="20" height="10"/></g><g transform="translate(-6,-22) scale(1,1)"><path fill="none" stroke="#000000" d="M 56 359 L 76 359 L 76 369 L 56 369 L 56 359 Z Z" stroke-miterlimit="10"/></g><g transform="translate(-6,-22) scale(1,1)"><rect fill="#ffffff" stroke="none" x="56" y="379" width="20" height="10"/></g><g transform="translate(-6,-22) scale(1,1)"><path fill="none" stroke="#000000" d="M 56 379 L 76 379 L 76 389 L 56 389 L 56 379 Z Z" stroke-miterlimit="10"/></g><g transform="translate(-6,-22) scale(1,1)"><g><path fill="none" stroke="none"/><text fill="#000000" stroke="none" font-family="Arial" font-size="13px" font-style="normal" font-weight="normal" text-decoration="none" x="90.5" y="369.5">«BD NoSql»</text></g></g><g transform="translate(-6,-22) scale(1,1)"><g><path fill="none" stroke="none"/><text fill="#000000" stroke="none" font-family="Arial" font-size="13px" font-style="normal" font-weight="bold" text-decoration="none" x="114" y="384.5">avis</text></g></g><g transform="translate(-6,-22) scale(1,1)"><rect fill="#C0C0C0" stroke="none" x="225" y="399" width="98" height="44" opacity="0.2"/></g><g transform="translate(-6,-22) scale(1,1)"><rect fill="#ffffff" stroke="none" x="218" y="392" width="98" height="44"/></g><g transform="translate(-6,-22) scale(1,1)"><path fill="none" stroke="#000000" d="M 218 392 L 316 392 L 316 436 L 218 436 L 218 392 Z Z" stroke-miterlimit="10"/></g><g transform="translate(-6,-22) scale(1,1)"><rect fill="#ffffff" stroke="none" x="208" y="399" width="20" height="10"/></g><g transform="translate(-6,-22) scale(1,1)"><path fill="none" stroke="#000000" d="M 208 399 L 228 399 L 228 409 L 208 409 L 208 399 Z Z" stroke-miterlimit="10"/></g><g transform="translate(-6,-22) scale(1,1)"><rect fill="#ffffff" stroke="none" x="208" y="419" width="20" height="10"/></g><g transform="translate(-6,-22) scale(1,1)"><path fill="none" stroke="#000000" d="M 208 419 L 228 419 L 228 429 L 208 429 L 208 419 Z Z" stroke-miterlimit="10"/></g><g transform="translate(-6,-22) scale(1,1)"><g><path fill="none" stroke="none"/><text fill="#000000" stroke="none" font-family="Arial" font-size="13px" font-style="normal" font-weight="normal" text-decoration="none" x="236.5" y="409.5">«BD NoSql»</text></g></g><g transform="translate(-6,-22) scale(1,1)"><g><path fill="none" stroke="none"/><text fill="#000000" stroke="none" font-family="Arial" font-size="13px" font-style="normal" font-weight="bold" text-decoration="none" x="253" y="424.5">tweets</text></g></g><g transform="translate(-6,-22) scale(1,1)"><path fill="#C0C0C0" stroke="none" d="M 375 313 L 644 313 L 644 462 L 375 462" opacity="0.2"/></g><g transform="translate(-6,-22) scale(1,1)"><path fill="#C0C0C0" stroke="none" d="M 375 313 L 385 303 L 654 303 L 644 313" opacity="0.2"/></g><g transform="translate(-6,-22) scale(1,1)"><path fill="#C0C0C0" stroke="none" d="M 654 303 L 644 313 L 644 462 L 654 452" opacity="0.2"/></g><g transform="translate(-6,-22) scale(1,1)"><path fill="#ffffff" stroke="none" d="M 368 306 L 637 306 L 637 455 L 368 455"/></g><g transform="translate(-6,-22) scale(1,1)"><path fill="#ffffff" stroke="none" d="M 368 306 L 378 296 L 647 296 L 637 306"/></g><g transform="translate(-6,-22) scale(1,1)"><path fill="#ffffff" stroke="none" d="M 647 296 L 637 306 L 637 455 L 647 445"/></g><g transform="translate(-6,-22) scale(1,1)"><path fill="none" stroke="#000000" d="M 368 306 L 637 306 L 637 455 L 368 455 L 368 306" stroke-miterlimit="10"/></g><g transform="translate(-6,-22) scale(1,1)"><path fill="none" stroke="#000000" d="M 368 306 L 378 296 L 647 296 L 637 306 L 368 306" stroke-miterlimit="10"/></g><g transform="translate(-6,-22) scale(1,1)"><path fill="none" stroke="#000000" d="M 647 296 L 637 306 L 637 455 L 647 445 L 647 296" stroke-miterlimit="10"/></g><g transform="translate(-6,-22) scale(1,1)"><g><path fill="none" stroke="none"/><text fill="#000000" stroke="none" font-family="Arial" font-size="13px" font-style="normal" font-weight="normal" text-decoration="none" x="459.5" y="323.5">«Linux Server»</text></g></g><g transform="translate(-6,-22) scale(1,1)"><g><path fill="none" stroke="none"/><text fill="#000000" stroke="none" font-family="Arial" font-size="13px" font-style="normal" font-weight="bold" text-decoration="none" x="465" y="338.5">Spark Server</text></g></g><g transform="translate(-6,-22) scale(1,1)"><rect fill="#C0C0C0" stroke="none" x="433" y="375" width="175" height="44" opacity="0.2"/></g><g transform="translate(-6,-22) scale(1,1)"><rect fill="#ffffff" stroke="none" x="426" y="368" width="175" height="44"/></g><g transform="translate(-6,-22) scale(1,1)"><path fill="none" stroke="#000000" d="M 426 368 L 601 368 L 601 412 L 426 412 L 426 368 Z Z" stroke-miterlimit="10"/></g><g transform="translate(-6,-22) scale(1,1)"><rect fill="#ffffff" stroke="none" x="416" y="375" width="20" height="10"/></g><g transform="translate(-6,-22) scale(1,1)"><path fill="none" stroke="#000000" d="M 416 375 L 436 375 L 436 385 L 416 385 L 416 375 Z Z" stroke-miterlimit="10"/></g><g transform="translate(-6,-22) scale(1,1)"><rect fill="#ffffff" stroke="none" x="416" y="395" width="20" height="10"/></g><g transform="translate(-6,-22) scale(1,1)"><path fill="none" stroke="#000000" d="M 416 395 L 436 395 L 436 405 L 416 405 L 416 395 Z Z" stroke-miterlimit="10"/></g><g transform="translate(-6,-22) scale(1,1)"><g><path fill="none" stroke="none"/><text fill="#000000" stroke="none" font-family="Arial" font-size="13px" font-style="normal" font-weight="normal" text-decoration="none" x="504.5" y="385.5">«jar»</text></g></g><g transform="translate(-6,-22) scale(1,1)"><g><path fill="none" stroke="none"/><text fill="#000000" stroke="none" font-family="Arial" font-size="13px" font-style="normal" font-weight="bold" text-decoration="none" x="445" y="400.5">sentimentAnalysis-0.1.jar</text></g></g><g transform="translate(-6,-22) scale(1,1)"><path fill="none" stroke="#000000" d="M 521 217 L 528 272 L 184 272 L 185 295" stroke-miterlimit="10"/></g><g transform="translate(-6,-22) scale(1,1)"><g><path fill="none" stroke="none"/><text fill="#000000" stroke="none" font-family="Arial" font-size="13px" font-style="normal" font-weight="normal" text-decoration="none" x="535.5" y="235.5">1</text></g></g><g transform="translate(-6,-22) scale(1,1)"><g><path fill="none" stroke="none"/><text fill="#000000" stroke="none" font-family="Arial" font-size="13px" font-style="normal" font-weight="normal" text-decoration="none" x="167.5" y="279.5">1</text></g></g><g transform="translate(-6,-22) scale(1,1)"><path fill="none" stroke="#000000" d="M 345 376 L 367 376" stroke-miterlimit="10"/></g><g transform="translate(-6,-22) scale(1,1)"><path fill="none" stroke="#000000" d="M 39 121 L 16 120 L 16 488 L 504 488 L 505 457" stroke-miterlimit="10"/></g><g transform="translate(-6,-22) scale(1,1)"><g><path fill="none" stroke="none"/><text fill="#000000" stroke="none" font-family="Arial" font-size="13px" font-style="normal" font-weight="normal" text-decoration="none" x="222.5" y="479.5">+JDBC</text></g></g></g></svg>