<svg version="1.1" xmlns="http://www.w3.org/2000/svg" xmlns:xlink="http://www.w3.org/1999/xlink" width="812" height="300"><defs/><g><g transform="translate(-14,-62) scale(1,1)"><rect fill="#C0C0C0" stroke="none" x="103" y="79" width="632" height="280" opacity="0.2"/></g><g transform="translate(-14,-62) scale(1,1)"><rect fill="#ffffff" stroke="none" x="96" y="72" width="632" height="280"/></g><g transform="translate(-14,-62) scale(1,1)"><path fill="none" stroke="#000000" d="M 96 72 L 728 72 L 728 352 L 96 352 L 96 72 Z Z" stroke-miterlimit="10"/></g><g transform="translate(-14,-62) scale(1,1)"><g><path fill="none" stroke="none"/><text fill="#000000" stroke="none" font-family="Arial" font-size="13px" font-style="normal" font-weight="bold" text-decoration="none" x="255.5" y="91.5">Analyser et exploiter les avis des clients de la banque</text></g></g><g transform="translate(-14,-62) scale(1,1)"><path fill="#ffffff" stroke="none" d="M 46.32072727272727 177.68 C 46.32072727272727 172.886167936 50.206569597672726 169 55 169 C 59.793430402327274 169 63.67927272727273 172.886167936 63.67927272727273 177.68 C 63.67927272727273 182.47383206400002 59.793430402327274 186.36 55 186.36 C 50.206569597672726 186.36 46.32072727272727 182.47383206400002 46.32072727272727 177.68 Z"/></g><g transform="translate(-14,-62) scale(1,1)"><path fill="none" stroke="#000000" d="M 46.32072727272727 177.68 C 46.32072727272727 172.886167936 50.206569597672726 169 55 169 C 59.793430402327274 169 63.67927272727273 172.886167936 63.67927272727273 177.68 C 63.67927272727273 182.47383206400002 59.793430402327274 186.36 55 186.36 C 50.206569597672726 186.36 46.32072727272727 182.47383206400002 46.32072727272727 177.68 Z" stroke-miterlimit="10"/></g><g transform="translate(-14,-62) scale(1,1)"><path fill="none" stroke="#000000" d="M 55 186.36 L 55 203.64" stroke-miterlimit="10"/></g><g transform="translate(-14,-62) scale(1,1)"><path fill="none" stroke="#000000" d="M 45.81018181818182 192.84 L 64.18981818181818 192.84" stroke-miterlimit="10"/></g><g transform="translate(-14,-62) scale(1,1)"><path fill="none" stroke="#000000" d="M 55 203.64 L 42.236363636363635 221" stroke-miterlimit="10"/></g><g transform="translate(-14,-62) scale(1,1)"><path fill="none" stroke="#000000" d="M 55 203.64 L 67.76363636363637 221" stroke-miterlimit="10"/></g><g transform="translate(-14,-62) scale(1,1)"><g><path fill="none" stroke="none"/><text fill="#000000" stroke="none" font-family="Arial" font-size="13px" font-style="normal" font-weight="bold" text-decoration="none" x="30" y="241.5">Manager</text></g></g><g transform="translate(-14,-62) scale(1,1)"><path fill="#ffffff" stroke="none" d="M 771.3207272727273 177.68 C 771.3207272727273 172.886167936 775.2065695976727 169 780 169 C 784.7934304023273 169 788.6792727272727 172.886167936 788.6792727272727 177.68 C 788.6792727272727 182.47383206400002 784.7934304023273 186.36 780 186.36 C 775.2065695976727 186.36 771.3207272727273 182.47383206400002 771.3207272727273 177.68 Z"/></g><g transform="translate(-14,-62) scale(1,1)"><path fill="none" stroke="#000000" d="M 771.3207272727273 177.68 C 771.3207272727273 172.886167936 775.2065695976727 169 780 169 C 784.7934304023273 169 788.6792727272727 172.886167936 788.6792727272727 177.68 C 788.6792727272727 182.47383206400002 784.7934304023273 186.36 780 186.36 C 775.2065695976727 186.36 771.3207272727273 182.47383206400002 771.3207272727273 177.68 Z" stroke-miterlimit="10"/></g><g transform="translate(-14,-62) scale(1,1)"><path fill="none" stroke="#000000" d="M 780 186.36 L 780 203.64" stroke-miterlimit="10"/></g><g transform="translate(-14,-62) scale(1,1)"><path fill="none" stroke="#000000" d="M 770.8101818181818 192.84 L 789.1898181818182 192.84" stroke-miterlimit="10"/></g><g transform="translate(-14,-62) scale(1,1)"><path fill="none" stroke="#000000" d="M 780 203.64 L 767.2363636363636 221" stroke-miterlimit="10"/></g><g transform="translate(-14,-62) scale(1,1)"><path fill="none" stroke="#000000" d="M 780 203.64 L 792.7636363636364 221" stroke-miterlimit="10"/></g><g transform="translate(-14,-62) scale(1,1)"><g><path fill="none" stroke="none"/><text fill="#000000" stroke="none" font-family="Arial" font-size="13px" font-style="normal" font-weight="bold" text-decoration="none" x="751" y="241.5">Scheduler</text></g></g><g transform="translate(-14,-62) scale(1,1)"><path fill="#C0C0C0" stroke="none" d="M 111 168 C 111 158.6111584 214.4222112 151 342 151 C 469.5777888 151 573 158.6111584 573 168 C 573 177.3888416 469.5777888 185 342 185 C 214.4222112 185 111 177.3888416 111 168 Z" opacity="0.2"/></g><g transform="translate(-14,-62) scale(1,1)"><path fill="#ffffff" stroke="none" d="M 104 161 C 104 151.6111584 207.4222112 144 335 144 C 462.5777888 144 566 151.6111584 566 161 C 566 170.3888416 462.5777888 178 335 178 C 207.4222112 178 104 170.3888416 104 161 Z"/></g><g transform="translate(-14,-62) scale(1,1)"><path fill="none" stroke="#000000" d="M 104 161 C 104 151.6111584 207.4222112 144 335 144 C 462.5777888 144 566 151.6111584 566 161 C 566 170.3888416 462.5777888 178 335 178 C 207.4222112 178 104 170.3888416 104 161 Z" stroke-miterlimit="10"/></g><g transform="translate(-14,-62) scale(1,1)"><g><path fill="none" stroke="none"/><text fill="#000000" stroke="none" font-family="Arial" font-size="13px" font-style="normal" font-weight="bold" text-decoration="none" x="184" y="168">Analyser les avis et tweets des clients de la banque</text></g></g><g transform="translate(-14,-62) scale(1,1)"><path fill="#C0C0C0" stroke="none" d="M 263 288 C 263 278.6111584 366.1983536 271 493.5 271 C 620.8016464 271 724 278.6111584 724 288 C 724 297.3888416 620.8016464 305 493.5 305 C 366.1983536 305 263 297.3888416 263 288 Z" opacity="0.2"/></g><g transform="translate(-14,-62) scale(1,1)"><path fill="#ffffff" stroke="none" d="M 256 281 C 256 271.6111584 359.1983536 264 486.5 264 C 613.8016464 264 717 271.6111584 717 281 C 717 290.3888416 613.8016464 298 486.5 298 C 359.1983536 298 256 290.3888416 256 281 Z"/></g><g transform="translate(-14,-62) scale(1,1)"><path fill="none" stroke="#000000" d="M 256 281 C 256 271.6111584 359.1983536 264 486.5 264 C 613.8016464 264 717 271.6111584 717 281 C 717 290.3888416 613.8016464 298 486.5 298 C 359.1983536 298 256 290.3888416 256 281 Z" stroke-miterlimit="10"/></g><g transform="translate(-14,-62) scale(1,1)"><g><path fill="none" stroke="none"/><text fill="#000000" stroke="none" font-family="Arial" font-size="13px" font-style="normal" font-weight="bold" text-decoration="none" x="335.5" y="288">Analyse et traitement big data sur les avis et tweets</text></g></g><g transform="translate(-14,-62) scale(1,1)"><path fill="none" stroke="#000000" d="M 743 216 L 558 263" stroke-miterlimit="10"/></g><g transform="translate(-14,-62) scale(1,1)"><path fill="none" stroke="#000000" d="M 358 179 L 463 263" stroke-miterlimit="10" stroke-dasharray="3"/></g><g transform="translate(-14,-62) scale(1,1)"><path fill="none" stroke="#000000" d="M 452.4346192883948 259.93850846500584 L 463 263 L 457.693949077946 253.36434622806684" stroke-miterlimit="10"/></g><g transform="translate(-14,-62) scale(1,1)"><g><path fill="none" stroke="none"/><text fill="#000000" stroke="none" font-family="Arial" font-size="13px" font-style="normal" font-weight="normal" text-decoration="none" x="415.5" y="220.5">«include»</text></g></g><g transform="translate(-14,-62) scale(1,1)"><path fill="none" stroke="#000000" d="M 87 202 L 225 179" stroke-miterlimit="10"/></g></g></svg>