<svg version="1.1" xmlns="http://www.w3.org/2000/svg" xmlns:xlink="http://www.w3.org/1999/xlink" width="788.1171875" height="306"><defs/><g><g transform="translate(-65,-6) scale(1,1)"><rect fill="#C0C0C0" stroke="none" x="82" y="86" width="166.4853515625" height="57" opacity="0.2"/></g><g transform="translate(-65,-6) scale(1,1)"><rect fill="#ffffff" stroke="none" x="75" y="79" width="166.4853515625" height="57"/></g><g transform="translate(-65,-6) scale(1,1)"><path fill="none" stroke="#000000" d="M 75 79 L 241.4853515625 79 L 241.4853515625 136 L 75 136 L 75 79 Z Z" stroke-miterlimit="10"/></g><g transform="translate(-65,-6) scale(1,1)"><path fill="none" stroke="#000000" d="M 75 104 L 241.4853515625 104" stroke-miterlimit="10"/></g><g transform="translate(-65,-6) scale(1,1)"><path fill="none" stroke="#000000" d="M 75 114 L 241.4853515625 114" stroke-miterlimit="10"/></g><g transform="translate(-65,-6) scale(1,1)"><g><path fill="none" stroke="none"/><text fill="#000000" stroke="none" font-family="Arial" font-size="13px" font-style="normal" font-weight="bold" text-decoration="none" x="95.24267578125" y="98.5">MainTransactionBank</text></g></g><g transform="translate(-65,-6) scale(1,1)"><g><path fill="none" stroke="none"/><text fill="#000000" stroke="none" font-family="Arial" font-size="13px" font-style="normal" font-weight="normal" text-decoration="none" x="80" y="131.5">+SendTransaction()</text></g></g><g transform="translate(-65,-6) scale(1,1)"><rect fill="#C0C0C0" stroke="none" x="386" y="86" width="139.482421875" height="57" opacity="0.2"/></g><g transform="translate(-65,-6) scale(1,1)"><rect fill="#ffffff" stroke="none" x="379" y="79" width="139.482421875" height="57"/></g><g transform="translate(-65,-6) scale(1,1)"><path fill="none" stroke="#000000" d="M 379 79 L 518.482421875 79 L 518.482421875 136 L 379 136 L 379 79 Z Z" stroke-miterlimit="10"/></g><g transform="translate(-65,-6) scale(1,1)"><path fill="none" stroke="#000000" d="M 379 104 L 518.482421875 104" stroke-miterlimit="10"/></g><g transform="translate(-65,-6) scale(1,1)"><path fill="none" stroke="#000000" d="M 379 114 L 518.482421875 114" stroke-miterlimit="10"/></g><g transform="translate(-65,-6) scale(1,1)"><g><path fill="none" stroke="none"/><text fill="#000000" stroke="none" font-family="Arial" font-size="13px" font-style="normal" font-weight="bold" text-decoration="none" x="418.7412109375" y="98.5">ModelJPA</text></g></g><g transform="translate(-65,-6) scale(1,1)"><g><path fill="none" stroke="none"/><text fill="#000000" stroke="none" font-family="Arial" font-size="13px" font-style="normal" font-weight="normal" text-decoration="none" x="384" y="131.5">+GetTransaction()</text></g></g><g transform="translate(-65,-6) scale(1,1)"><rect fill="#C0C0C0" stroke="none" x="231" y="207" width="292.45458984375" height="57" opacity="0.2"/></g><g transform="translate(-65,-6) scale(1,1)"><rect fill="#ffffff" stroke="none" x="224" y="200" width="292.45458984375" height="57"/></g><g transform="translate(-65,-6) scale(1,1)"><path fill="none" stroke="#000000" d="M 224 200 L 516.45458984375 200 L 516.45458984375 257 L 224 257 L 224 200 Z Z" stroke-miterlimit="10"/></g><g transform="translate(-65,-6) scale(1,1)"><path fill="none" stroke="#000000" d="M 224 225 L 516.45458984375 225" stroke-miterlimit="10"/></g><g transform="translate(-65,-6) scale(1,1)"><path fill="none" stroke="#000000" d="M 224 235 L 516.45458984375 235" stroke-miterlimit="10"/></g><g transform="translate(-65,-6) scale(1,1)"><g><path fill="none" stroke="none"/><text fill="#000000" stroke="none" font-family="Arial" font-size="13px" font-style="normal" font-weight="bold" text-decoration="none" x="336.727294921875" y="219.5">ServiceXml</text></g></g><g transform="translate(-65,-6) scale(1,1)"><g><path fill="none" stroke="none"/><text fill="#000000" stroke="none" font-family="Arial" font-size="13px" font-style="normal" font-weight="normal" text-decoration="none" x="229" y="252.5">+SetXmlDocument(ArrayList  TabTransaction)</text></g></g><g transform="translate(-65,-6) scale(1,1)"><path fill="none" stroke="#000000" d="M 242 107 L 378 107" stroke-miterlimit="10"/></g><g transform="translate(-65,-6) scale(1,1)"><path fill="none" stroke="#000000" d="M 367.83732514237585 111.20951775601598 L 378 107 L 367.83732514237585 102.79048224398402" stroke-miterlimit="10"/></g><g transform="translate(-65,-6) scale(1,1)"><path fill="none" stroke="#000000" d="M 211 137 L 319 199" stroke-miterlimit="10"/></g><g transform="translate(-65,-6) scale(1,1)"><path fill="none" stroke="#000000" d="M 308.09060659810643 197.59105159685646 L 319 199 L 312.282170917094 190.28961697668453" stroke-miterlimit="10"/></g><g transform="translate(-65,-6) scale(1,1)"><rect fill="#C0C0C0" stroke="none" x="135" y="199" width="50.18994140625" height="44" opacity="0.2"/></g><g transform="translate(-65,-6) scale(1,1)"><rect fill="#ffffff" stroke="none" x="128" y="192" width="50.18994140625" height="44"/></g><g transform="translate(-65,-6) scale(1,1)"><path fill="none" stroke="#000000" d="M 128 192 L 178.18994140625 192 L 178.18994140625 236 L 128 236 L 128 192 Z Z" stroke-miterlimit="10"/></g><g transform="translate(-65,-6) scale(1,1)"><path fill="none" stroke="#000000" d="M 128 217 L 178.18994140625 217" stroke-miterlimit="10"/></g><g transform="translate(-65,-6) scale(1,1)"><path fill="none" stroke="#000000" d="M 128 227 L 178.18994140625 227" stroke-miterlimit="10"/></g><g transform="translate(-65,-6) scale(1,1)"><g><path fill="none" stroke="none"/><text fill="#000000" stroke="none" font-family="Arial" font-size="13px" font-style="normal" font-weight="bold" text-decoration="none" x="135.594970703125" y="211.5">Errors</text></g></g><g transform="translate(-65,-6) scale(1,1)"><path fill="none" stroke="#000000" d="M 157 137 L 154 191" stroke-miterlimit="10"/></g><g transform="translate(-65,-6) scale(1,1)"><path fill="none" stroke="#000000" d="M 150.36068718827354 180.61947003961725 L 154 191 L 158.7667603592659 181.0864741046724" stroke-miterlimit="10"/></g><g transform="translate(-65,-6) scale(1,1)"><rect fill="#C0C0C0" stroke="none" x="671" y="23" width="179.1171875" height="162" opacity="0.2"/></g><g transform="translate(-65,-6) scale(1,1)"><rect fill="#ffffff" stroke="none" x="664" y="16" width="179.1171875" height="162"/></g><g transform="translate(-65,-6) scale(1,1)"><path fill="none" stroke="#000000" d="M 664 16 L 843.1171875 16 L 843.1171875 178 L 664 178 L 664 16 Z Z" stroke-miterlimit="10"/></g><g transform="translate(-65,-6) scale(1,1)"><path fill="none" stroke="#000000" d="M 664 41 L 843.1171875 41" stroke-miterlimit="10"/></g><g transform="translate(-65,-6) scale(1,1)"><path fill="none" stroke="#000000" d="M 664 169 L 843.1171875 169" stroke-miterlimit="10"/></g><g transform="translate(-65,-6) scale(1,1)"><g><path fill="none" stroke="none"/><text fill="#000000" stroke="none" font-family="Arial" font-size="13px" font-style="normal" font-weight="bold" text-decoration="none" x="719.55859375" y="35.5">Transaction</text></g></g><g transform="translate(-65,-6) scale(1,1)"><g><path fill="none" stroke="none"/><text fill="#000000" stroke="none" font-family="Arial" font-size="13px" font-style="normal" font-weight="normal" text-decoration="none" x="669" y="58.5">+id_transaction: int</text></g></g><g transform="translate(-65,-6) scale(1,1)"><g><path fill="none" stroke="none"/><text fill="#000000" stroke="none" font-family="Arial" font-size="13px" font-style="normal" font-weight="normal" text-decoration="none" x="669" y="73.5">+transaction_date: Date</text></g></g><g transform="translate(-65,-6) scale(1,1)"><g><path fill="none" stroke="none"/><text fill="#000000" stroke="none" font-family="Arial" font-size="13px" font-style="normal" font-weight="normal" text-decoration="none" x="669" y="88.5">+lastname_crediter: String</text></g></g><g transform="translate(-65,-6) scale(1,1)"><g><path fill="none" stroke="none"/><text fill="#000000" stroke="none" font-family="Arial" font-size="13px" font-style="normal" font-weight="normal" text-decoration="none" x="669" y="103.5">+firstname_crediter: String</text></g></g><g transform="translate(-65,-6) scale(1,1)"><g><path fill="none" stroke="none"/><text fill="#000000" stroke="none" font-family="Arial" font-size="13px" font-style="normal" font-weight="normal" text-decoration="none" x="669" y="118.5">+creditaccount: String</text></g></g><g transform="translate(-65,-6) scale(1,1)"><g><path fill="none" stroke="none"/><text fill="#000000" stroke="none" font-family="Arial" font-size="13px" font-style="normal" font-weight="normal" text-decoration="none" x="669" y="133.5">+debit_account: Integer</text></g></g><g transform="translate(-65,-6) scale(1,1)"><g><path fill="none" stroke="none"/><text fill="#000000" stroke="none" font-family="Arial" font-size="13px" font-style="normal" font-weight="normal" text-decoration="none" x="669" y="148.5">+amount_transaction: Float</text></g></g><g transform="translate(-65,-6) scale(1,1)"><g><path fill="none" stroke="none"/><text fill="#000000" stroke="none" font-family="Arial" font-size="13px" font-style="normal" font-weight="normal" text-decoration="none" x="669" y="163.5">+impacted_bank: String</text></g></g><g transform="translate(-65,-6) scale(1,1)"><path fill="none" stroke="#000000" d="M 519 105 L 663 100" stroke-miterlimit="10"/></g><g transform="translate(-65,-6) scale(1,1)"><path fill="none" stroke="#000000" d="M 652.9895216157242 104.55964061280581 L 663 100 L 652.6973700544687 96.14567564864583" stroke-miterlimit="10"/></g><g transform="translate(-65,-6) scale(1,1)"><rect fill="#C0C0C0" stroke="none" x="671" y="207" width="168" height="102" opacity="0.2"/></g><g transform="translate(-65,-6) scale(1,1)"><rect fill="#ffffff" stroke="none" x="664" y="200" width="168" height="102"/></g><g transform="translate(-65,-6) scale(1,1)"><path fill="none" stroke="#000000" d="M 664 200 L 832 200 L 832 302 L 664 302 L 664 200 Z Z" stroke-miterlimit="10"/></g><g transform="translate(-65,-6) scale(1,1)"><path fill="none" stroke="#000000" d="M 664 225 L 832 225" stroke-miterlimit="10"/></g><g transform="translate(-65,-6) scale(1,1)"><path fill="none" stroke="#000000" d="M 664 293 L 832 293" stroke-miterlimit="10"/></g><g transform="translate(-65,-6) scale(1,1)"><g><path fill="none" stroke="none"/><text fill="#000000" stroke="none" font-family="Arial" font-size="13px" font-style="normal" font-weight="bold" text-decoration="none" x="724" y="219.5">Account</text></g></g><g transform="translate(-65,-6) scale(1,1)"><g><path fill="none" stroke="none"/><text fill="#000000" stroke="none" font-family="Arial" font-size="13px" font-style="normal" font-weight="normal" text-decoration="none" x="669" y="242.5">+id_account: Integer</text></g></g><g transform="translate(-65,-6) scale(1,1)"><g><path fill="none" stroke="none"/><text fill="#000000" stroke="none" font-family="Arial" font-size="13px" font-style="normal" font-weight="normal" text-decoration="none" x="669" y="257.5">+typeaccount_id: Integer</text></g></g><g transform="translate(-65,-6) scale(1,1)"><g><path fill="none" stroke="none"/><text fill="#000000" stroke="none" font-family="Arial" font-size="13px" font-style="normal" font-weight="normal" text-decoration="none" x="669" y="272.5">+amount: Float</text></g></g><g transform="translate(-65,-6) scale(1,1)"><g><path fill="none" stroke="none"/><text fill="#000000" stroke="none" font-family="Arial" font-size="13px" font-style="normal" font-weight="normal" text-decoration="none" x="669" y="287.5">+customer_id: Integer</text></g></g><g transform="translate(-65,-6) scale(1,1)"><path fill="none" stroke="#000000" d="M 511 137 L 663 210" stroke-miterlimit="10"/></g><g transform="translate(-65,-6) scale(1,1)"><path fill="none" stroke="#000000" d="M 652.0166543270495 209.39492328711083 L 663 210 L 655.6614556413629 201.8057479477188" stroke-miterlimit="10"/></g></g></svg>