<svg version="1.1" xmlns="http://www.w3.org/2000/svg" xmlns:xlink="http://www.w3.org/1999/xlink" width="951" height="487"><defs/><g><g transform="translate(-62,10) scale(1,1)"><path fill="none" stroke="#000000" d="M 72 0 L 1003 0 L 1003 467 L 72 467 L 72 0" stroke-miterlimit="10"/></g><g transform="translate(-62,10) scale(1,1)"><path fill="#ffffff" stroke="none" d="M 72 0 L 72 22 L 251 22 L 262 11 L 262 0 L 72 0"/></g><g transform="translate(-62,10) scale(1,1)"><path fill="none" stroke="#000000" d="M 72 0 L 72 22 L 251 22 L 262 11 L 262 0 L 72 0 L 72 0" stroke-miterlimit="10"/></g><g transform="translate(-62,10) scale(1,1)"><g><path fill="none" stroke="none"/><text fill="#000000" stroke="none" font-family="Arial" font-size="13px" font-style="normal" font-weight="normal" text-decoration="none" x="143" y="17.5">SequenceSystem</text></g></g><g transform="translate(-62,10) scale(1,1)"><g><path fill="none" stroke="none"/><text fill="#000000" stroke="none" font-family="Arial" font-size="13px" font-style="normal" font-weight="bold" text-decoration="none" x="77" y="17.5">interaction</text></g></g><g transform="translate(-62,10) scale(1,1)"><rect fill="#C0C0C0" stroke="none" x="511" y="47" width="120" height="39" opacity="0.2"/></g><g transform="translate(-62,10) scale(1,1)"><rect fill="#ffffff" stroke="none" x="504" y="40" width="120" height="39"/></g><g transform="translate(-62,10) scale(1,1)"><path fill="none" stroke="#000000" d="M 504 40 L 624 40 L 624 79 L 504 79 L 504 40 Z Z" stroke-miterlimit="10"/></g><g transform="translate(-62,10) scale(1,1)"><g><path fill="none" stroke="none"/><text fill="#000000" stroke="none" font-family="Arial" font-size="13px" font-style="normal" font-weight="bold" text-decoration="none" x="541.5" y="59.5">System</text></g></g><g transform="translate(-62,10) scale(1,1)"><path fill="none" stroke="#000000" d="M 565.5 80 L 565.5 360" stroke-miterlimit="10" stroke-dasharray="3"/></g><g transform="translate(-62,10) scale(1,1)"><rect fill="#C0C0C0" stroke="none" x="775" y="47" width="150.6884765625" height="39" opacity="0.2"/></g><g transform="translate(-62,10) scale(1,1)"><rect fill="#ffffff" stroke="none" x="768" y="40" width="150.6884765625" height="39"/></g><g transform="translate(-62,10) scale(1,1)"><path fill="none" stroke="#000000" d="M 768 40 L 918.6884765625 40 L 918.6884765625 79 L 768 79 L 768 40 Z Z" stroke-miterlimit="10"/></g><g transform="translate(-62,10) scale(1,1)"><g><path fill="none" stroke="none"/><text fill="#000000" stroke="none" font-family="Arial" font-size="13px" font-style="normal" font-weight="bold" text-decoration="none" x="787.84423828125" y="59.5">data-access-server</text></g></g><g transform="translate(-62,10) scale(1,1)"><path fill="none" stroke="#000000" d="M 844.5 80 L 844.5 352" stroke-miterlimit="10" stroke-dasharray="3"/></g><g transform="translate(-62,10) scale(1,1)"><rect fill="#C0C0C0" stroke="none" x="167" y="47" width="94" height="39" opacity="0.2"/></g><g transform="translate(-62,10) scale(1,1)"><rect fill="#ffffff" stroke="none" x="160" y="40" width="94" height="39"/></g><g transform="translate(-62,10) scale(1,1)"><path fill="none" stroke="#000000" d="M 160 40 L 254 40 L 254 79 L 160 79 L 160 40 Z Z" stroke-miterlimit="10"/></g><g transform="translate(-62,10) scale(1,1)"><g><path fill="none" stroke="none"/><text fill="#000000" stroke="none" font-family="Arial" font-size="13px" font-style="normal" font-weight="bold" text-decoration="none" x="173" y="59.5">"Scheduler"</text></g></g><g transform="translate(-62,10) scale(1,1)"><path fill="none" stroke="#000000" d="M 208.5 80 L 208.5 352" stroke-miterlimit="10" stroke-dasharray="3"/></g><g transform="translate(-62,10) scale(1,1)"><path fill="none" stroke="#000000" d="M 208 105 L 558 105" stroke-miterlimit="10"/></g><g transform="translate(-62,10) scale(1,1)"><path fill="#000000" stroke="none" d="M 547.8373251423759 109.20951775601598 L 558 105 L 547.8373251423758 100.79048224398402"/></g><g transform="translate(-62,10) scale(1,1)"><path fill="none" stroke="#000000" d="M 547.8373251423759 109.20951775601598 L 558 105 L 547.8373251423758 100.79048224398402 L 547.8373251423759 109.20951775601598" stroke-miterlimit="10"/></g><g transform="translate(-62,10) scale(1,1)"><g><path fill="none" stroke="none"/><text fill="#000000" stroke="none" font-family="Arial" font-size="13px" font-style="normal" font-weight="normal" text-decoration="none" x="359.5" y="101.5">1 : Start</text></g></g><g transform="translate(-62,10) scale(1,1)"><rect fill="#ffffff" stroke="none" x="558" y="105" width="13" height="28"/></g><g transform="translate(-62,10) scale(1,1)"><path fill="none" stroke="#000000" d="M 558 105 L 571 105 L 571 133 L 558 133 L 558 105 Z Z" stroke-miterlimit="10"/></g><g transform="translate(-62,10) scale(1,1)"><path fill="none" stroke="#000000" d="M 565 136 L 837 136" stroke-miterlimit="10"/></g><g transform="translate(-62,10) scale(1,1)"><path fill="#000000" stroke="none" d="M 826.8373251423759 140.209517756016 L 837 136 L 826.8373251423758 131.790482243984"/></g><g transform="translate(-62,10) scale(1,1)"><path fill="none" stroke="#000000" d="M 826.8373251423759 140.209517756016 L 837 136 L 826.8373251423758 131.790482243984 L 826.8373251423759 140.209517756016" stroke-miterlimit="10"/></g><g transform="translate(-62,10) scale(1,1)"><g><path fill="none" stroke="none"/><text fill="#000000" stroke="none" font-family="Arial" font-size="13px" font-style="normal" font-weight="normal" text-decoration="none" x="636.5" y="132.5">2 : GET /Transactions</text></g></g><g transform="translate(-62,10) scale(1,1)"><rect fill="#ffffff" stroke="none" x="837" y="136" width="13" height="28"/></g><g transform="translate(-62,10) scale(1,1)"><path fill="none" stroke="#000000" d="M 837 136 L 850 136 L 850 164 L 837 164 L 837 136 Z Z" stroke-miterlimit="10"/></g><g transform="translate(-62,10) scale(1,1)"><path fill="none" stroke="#000000" d="M 844 168 L 565 168" stroke-miterlimit="10" stroke-dasharray="3"/></g><g transform="translate(-62,10) scale(1,1)"><path fill="none" stroke="#000000" d="M 575.1626748576241 163.790482243984 L 565 168 L 575.1626748576241 172.209517756016" stroke-miterlimit="10"/></g><g transform="translate(-62,10) scale(1,1)"><g><path fill="none" stroke="none"/><text fill="#000000" stroke="none" font-family="Arial" font-size="13px" font-style="normal" font-weight="normal" text-decoration="none" x="660" y="184.5">3 : {Payload-1}</text></g></g><g transform="translate(-62,10) scale(1,1)"><path fill="none" stroke="#000000" d="M 565 208 L 595 208 L 595 228 L 571 228" stroke-miterlimit="10"/></g><g transform="translate(-62,10) scale(1,1)"><path fill="#000000" stroke="none" d="M 581.1626748576241 223.790482243984 L 571 228 L 581.1626748576241 232.209517756016"/></g><g transform="translate(-62,10) scale(1,1)"><path fill="none" stroke="#000000" d="M 581.1626748576241 223.790482243984 L 571 228 L 581.1626748576241 232.209517756016 L 581.1626748576241 223.790482243984" stroke-miterlimit="10"/></g><g transform="translate(-62,10) scale(1,1)"><g><path fill="none" stroke="none"/><text fill="#000000" stroke="none" font-family="Arial" font-size="13px" font-style="normal" font-weight="normal" text-decoration="none" x="606.328125" y="223.5">4 : sendTransaction</text></g></g><g transform="translate(-62,10) scale(1,1)"><rect fill="#ffffff" stroke="none" x="558" y="228" width="13" height="28"/></g><g transform="translate(-62,10) scale(1,1)"><path fill="none" stroke="#000000" d="M 558 228 L 571 228 L 571 256 L 558 256 L 558 228 Z Z" stroke-miterlimit="10"/></g><g transform="translate(-62,10) scale(1,1)"><path fill="none" stroke="#000000" d="M 565 312 L 208 312" stroke-miterlimit="10" stroke-dasharray="3"/></g><g transform="translate(-62,10) scale(1,1)"><path fill="none" stroke="#000000" d="M 218.16267485762415 307.790482243984 L 208 312 L 218.16267485762415 316.209517756016" stroke-miterlimit="10"/></g><g transform="translate(-62,10) scale(1,1)"><g><path fill="none" stroke="none"/><text fill="#000000" stroke="none" font-family="Arial" font-size="13px" font-style="normal" font-weight="normal" text-decoration="none" x="344.77587890625" y="328.5">5 : end: exit 0</text></g></g></g></svg>