<svg version="1.1" xmlns="http://www.w3.org/2000/svg" xmlns:xlink="http://www.w3.org/1999/xlink" width="887" height="614"><defs/><g><g transform="translate(-14,10) scale(1,1)"><path fill="none" stroke="#000000" d="M 24 0 L 891 0 L 891 594 L 24 594 L 24 0" stroke-miterlimit="10"/></g><g transform="translate(-14,10) scale(1,1)"><path fill="#ffffff" stroke="none" d="M 24 0 L 24 22 L 296 22 L 307 11 L 307 0 L 24 0"/></g><g transform="translate(-14,10) scale(1,1)"><path fill="none" stroke="#000000" d="M 24 0 L 24 22 L 296 22 L 307 11 L 307 0 L 24 0 L 24 0" stroke-miterlimit="10"/></g><g transform="translate(-14,10) scale(1,1)"><g><path fill="none" stroke="none"/><text fill="#000000" stroke="none" font-family="Arial" font-size="13px" font-style="normal" font-weight="normal" text-decoration="none" x="95" y="17.5">Transfer-Bank-Sequence-Diagram</text></g></g><g transform="translate(-14,10) scale(1,1)"><g><path fill="none" stroke="none"/><text fill="#000000" stroke="none" font-family="Arial" font-size="13px" font-style="normal" font-weight="bold" text-decoration="none" x="29" y="17.5">interaction</text></g></g><g transform="translate(-14,10) scale(1,1)"><rect fill="#C0C0C0" stroke="none" x="127" y="47" width="85.23486328125" height="39" opacity="0.2"/></g><g transform="translate(-14,10) scale(1,1)"><rect fill="#ffffff" stroke="none" x="120" y="40" width="85.23486328125" height="39"/></g><g transform="translate(-14,10) scale(1,1)"><path fill="none" stroke="#000000" d="M 120 40 L 205.23486328125 40 L 205.23486328125 79 L 120 79 L 120 40 Z Z" stroke-miterlimit="10"/></g><g transform="translate(-14,10) scale(1,1)"><g><path fill="none" stroke="none"/><text fill="#000000" stroke="none" font-family="Arial" font-size="13px" font-style="normal" font-weight="bold" text-decoration="none" x="132.617431640625" y="59.5">SI externe</text></g></g><g transform="translate(-14,10) scale(1,1)"><path fill="none" stroke="#000000" d="M 163.5 80 L 163.5 544" stroke-miterlimit="10" stroke-dasharray="3"/></g><g transform="translate(-14,10) scale(1,1)"><rect fill="#C0C0C0" stroke="none" x="439" y="47" width="168.9033203125" height="39" opacity="0.2"/></g><g transform="translate(-14,10) scale(1,1)"><rect fill="#ffffff" stroke="none" x="432" y="40" width="168.9033203125" height="39"/></g><g transform="translate(-14,10) scale(1,1)"><path fill="none" stroke="#000000" d="M 432 40 L 600.9033203125 40 L 600.9033203125 79 L 432 79 L 432 40 Z Z" stroke-miterlimit="10"/></g><g transform="translate(-14,10) scale(1,1)"><g><path fill="none" stroke="none"/><text fill="#000000" stroke="none" font-family="Arial" font-size="13px" font-style="normal" font-weight="bold" text-decoration="none" x="451.45166015625" y="59.5">Service Bank-Transfer</text></g></g><g transform="translate(-14,10) scale(1,1)"><path fill="none" stroke="#000000" d="M 517.5 80 L 517.5 552" stroke-miterlimit="10" stroke-dasharray="3"/></g><g transform="translate(-14,10) scale(1,1)"><g><path fill="none" stroke="none"/><text fill="#000000" stroke="none" font-family="Arial" font-size="13px" font-style="normal" font-weight="normal" text-decoration="none" x="381" y="354">{Payload-4}</text></g></g><g transform="translate(-14,10) scale(1,1)"><g><path fill="none" stroke="none"/></g></g><g transform="translate(-14,10) scale(1,1)"><g><path fill="none" stroke="none"/><text fill="#000000" stroke="none" font-family="Arial" font-size="13px" font-style="normal" font-weight="normal" text-decoration="none" x="349" y="34">SUD</text></g></g><g transform="translate(-14,10) scale(1,1)"><g><path fill="none" stroke="none"/><text fill="#000000" stroke="none" font-family="Arial" font-size="13px" font-style="normal" font-weight="normal" text-decoration="none" x="349" y="530">SUD</text></g></g><g transform="translate(-14,10) scale(1,1)"><path fill="none" stroke="#000000" d="M 373 41 L 373 511" stroke-miterlimit="10" stroke-dasharray="3"/></g><g transform="translate(-14,10) scale(1,1)"><rect fill="#C0C0C0" stroke="none" x="687" y="47" width="150.6884765625" height="39" opacity="0.2"/></g><g transform="translate(-14,10) scale(1,1)"><rect fill="#ffffff" stroke="none" x="680" y="40" width="150.6884765625" height="39"/></g><g transform="translate(-14,10) scale(1,1)"><path fill="none" stroke="#000000" d="M 680 40 L 830.6884765625 40 L 830.6884765625 79 L 680 79 L 680 40 Z Z" stroke-miterlimit="10"/></g><g transform="translate(-14,10) scale(1,1)"><g><path fill="none" stroke="none"/><text fill="#000000" stroke="none" font-family="Arial" font-size="13px" font-style="normal" font-weight="bold" text-decoration="none" x="699.84423828125" y="59.5">data-access-server</text></g></g><g transform="translate(-14,10) scale(1,1)"><path fill="none" stroke="#000000" d="M 756.5 80 L 756.5 560" stroke-miterlimit="10" stroke-dasharray="3"/></g><g transform="translate(-14,10) scale(1,1)"><g><path fill="none" stroke="none"/><text fill="#000000" stroke="none" font-family="Arial" font-size="13px" font-style="normal" font-weight="normal" text-decoration="none" x="373" y="234">{Payload-2}</text></g></g><g transform="translate(-14,10) scale(1,1)"><g><path fill="none" stroke="none"/></g></g><g transform="translate(-14,10) scale(1,1)"><g><path fill="none" stroke="none"/><text fill="#000000" stroke="none" font-family="Arial" font-size="13px" font-style="normal" font-weight="normal" text-decoration="none" x="373" y="298">{Payload-3}</text></g></g><g transform="translate(-14,10) scale(1,1)"><g><path fill="none" stroke="none"/></g></g><g transform="translate(-14,10) scale(1,1)"><g><path fill="none" stroke="none"/><text fill="#000000" stroke="none" font-family="Arial" font-size="13px" font-style="normal" font-weight="normal" text-decoration="none" x="341" y="402">{Payload-5}</text></g></g><g transform="translate(-14,10) scale(1,1)"><g><path fill="none" stroke="none"/></g></g><g transform="translate(-14,10) scale(1,1)"><g><path fill="none" stroke="none"/><text fill="#000000" stroke="none" font-family="Arial" font-size="13px" font-style="normal" font-weight="normal" text-decoration="none" x="309" y="458">{Payload-4}</text></g></g><g transform="translate(-14,10) scale(1,1)"><g><path fill="none" stroke="none"/></g></g><g transform="translate(-14,10) scale(1,1)"><g><path fill="none" stroke="none"/><text fill="#000000" stroke="none" font-family="Arial" font-size="13px" font-style="normal" font-weight="normal" text-decoration="none" x="301" y="506">{Payload-5}</text></g></g><g transform="translate(-14,10) scale(1,1)"><g><path fill="none" stroke="none"/></g></g><g transform="translate(-14,10) scale(1,1)"><path fill="none" stroke="#000000" d="M 517 104 L 749 104" stroke-miterlimit="10"/></g><g transform="translate(-14,10) scale(1,1)"><path fill="#000000" stroke="none" d="M 738.8373251423759 108.20951775601598 L 749 104 L 738.8373251423758 99.79048224398402"/></g><g transform="translate(-14,10) scale(1,1)"><path fill="none" stroke="#000000" d="M 738.8373251423759 108.20951775601598 L 749 104 L 738.8373251423758 99.79048224398402 L 738.8373251423759 108.20951775601598" stroke-miterlimit="10"/></g><g transform="translate(-14,10) scale(1,1)"><g><path fill="none" stroke="none"/><text fill="#000000" stroke="none" font-family="Arial" font-size="13px" font-style="normal" font-weight="normal" text-decoration="none" x="568.5" y="100.5">1 : GET /Transactions</text></g></g><g transform="translate(-14,10) scale(1,1)"><rect fill="#ffffff" stroke="none" x="749" y="104" width="13" height="28"/></g><g transform="translate(-14,10) scale(1,1)"><path fill="none" stroke="#000000" d="M 749 104 L 762 104 L 762 132 L 749 132 L 749 104 Z Z" stroke-miterlimit="10"/></g><g transform="translate(-14,10) scale(1,1)"><path fill="none" stroke="#000000" d="M 756 136 L 517 136" stroke-miterlimit="10" stroke-dasharray="3"/></g><g transform="translate(-14,10) scale(1,1)"><path fill="none" stroke="#000000" d="M 527.1626748576241 131.790482243984 L 517 136 L 527.1626748576241 140.209517756016" stroke-miterlimit="10"/></g><g transform="translate(-14,10) scale(1,1)"><g><path fill="none" stroke="none"/><text fill="#000000" stroke="none" font-family="Arial" font-size="13px" font-style="normal" font-weight="normal" text-decoration="none" x="592.687255859375" y="152.5">2 : {Payload-1}</text></g></g><g transform="translate(-14,10) scale(1,1)"><path fill="none" stroke="#000000" d="M 517 160 L 547 160 L 547 180 L 523 180" stroke-miterlimit="10"/></g><g transform="translate(-14,10) scale(1,1)"><path fill="#000000" stroke="none" d="M 533.1626748576241 175.790482243984 L 523 180 L 533.1626748576241 184.209517756016"/></g><g transform="translate(-14,10) scale(1,1)"><path fill="none" stroke="#000000" d="M 533.1626748576241 175.790482243984 L 523 180 L 533.1626748576241 184.209517756016 L 533.1626748576241 175.790482243984" stroke-miterlimit="10"/></g><g transform="translate(-14,10) scale(1,1)"><g><path fill="none" stroke="none"/><text fill="#000000" stroke="none" font-family="Arial" font-size="13px" font-style="normal" font-weight="normal" text-decoration="none" x="565.878662109375" y="180.5">3 : Create XML file</text></g></g><g transform="translate(-14,10) scale(1,1)"><rect fill="#ffffff" stroke="none" x="510" y="180" width="13" height="28"/></g><g transform="translate(-14,10) scale(1,1)"><path fill="none" stroke="#000000" d="M 510 180 L 523 180 L 523 208 L 510 208 L 510 180 Z Z" stroke-miterlimit="10"/></g><g transform="translate(-14,10) scale(1,1)"><path fill="none" stroke="#000000" d="M 517 216 L 169 216" stroke-miterlimit="10"/></g><g transform="translate(-14,10) scale(1,1)"><path fill="#000000" stroke="none" d="M 179.16267485762415 211.790482243984 L 169 216 L 179.16267485762415 220.209517756016"/></g><g transform="translate(-14,10) scale(1,1)"><path fill="none" stroke="#000000" d="M 179.16267485762415 211.790482243984 L 169 216 L 179.16267485762415 220.209517756016 L 179.16267485762415 211.790482243984" stroke-miterlimit="10"/></g><g transform="translate(-14,10) scale(1,1)"><g><path fill="none" stroke="none"/><text fill="#000000" stroke="none" font-family="Arial" font-size="13px" font-style="normal" font-weight="normal" text-decoration="none" x="274.5" y="211.5">4 :  POST /Transaction</text></g></g><g transform="translate(-14,10) scale(1,1)"><rect fill="#ffffff" stroke="none" x="156" y="216" width="13" height="80"/></g><g transform="translate(-14,10) scale(1,1)"><path fill="none" stroke="#000000" d="M 156 216 L 169 216 L 169 296 L 156 296 L 156 216 Z Z" stroke-miterlimit="10"/></g><g transform="translate(-14,10) scale(1,1)"><path fill="none" stroke="#000000" d="M 169 280 L 517 280" stroke-miterlimit="10" stroke-dasharray="3"/></g><g transform="translate(-14,10) scale(1,1)"><path fill="none" stroke="#000000" d="M 506.83732514237585 284.209517756016 L 517 280 L 506.83732514237585 275.790482243984" stroke-miterlimit="10"/></g><g transform="translate(-14,10) scale(1,1)"><g><path fill="none" stroke="none"/><text fill="#000000" stroke="none" font-family="Arial" font-size="13px" font-style="normal" font-weight="normal" text-decoration="none" x="293.5" y="276.5">5 : /* SUCESS */</text></g></g><g transform="translate(-14,10) scale(1,1)"><path fill="none" stroke="#000000" d="M 517 336 L 169 336" stroke-miterlimit="10"/></g><g transform="translate(-14,10) scale(1,1)"><path fill="#000000" stroke="none" d="M 179.16267485762415 331.790482243984 L 169 336 L 179.16267485762415 340.209517756016"/></g><g transform="translate(-14,10) scale(1,1)"><path fill="none" stroke="#000000" d="M 179.16267485762415 331.790482243984 L 169 336 L 179.16267485762415 340.209517756016 L 179.16267485762415 331.790482243984" stroke-miterlimit="10"/></g><g transform="translate(-14,10) scale(1,1)"><g><path fill="none" stroke="none"/><text fill="#000000" stroke="none" font-family="Arial" font-size="13px" font-style="normal" font-weight="normal" text-decoration="none" x="286.5" y="331.5">6 : GET /Status</text></g></g><g transform="translate(-14,10) scale(1,1)"><rect fill="#ffffff" stroke="none" x="156" y="336" width="13" height="40"/></g><g transform="translate(-14,10) scale(1,1)"><path fill="none" stroke="#000000" d="M 156 336 L 169 336 L 169 376 L 156 376 L 156 336 Z Z" stroke-miterlimit="10"/></g><g transform="translate(-14,10) scale(1,1)"><path fill="none" stroke="#000000" d="M 163 384 L 517 384" stroke-miterlimit="10" stroke-dasharray="3"/></g><g transform="translate(-14,10) scale(1,1)"><path fill="none" stroke="#000000" d="M 506.83732514237585 388.209517756016 L 517 384 L 506.83732514237585 379.790482243984" stroke-miterlimit="10"/></g><g transform="translate(-14,10) scale(1,1)"><g><path fill="none" stroke="none"/><text fill="#000000" stroke="none" font-family="Arial" font-size="13px" font-style="normal" font-weight="normal" text-decoration="none" x="296.5" y="380.5">7 : /* READY*/</text></g></g><g transform="translate(-14,10) scale(1,1)"><path fill="none" stroke="#000000" d="M 517 440 L 169 440" stroke-miterlimit="10"/></g><g transform="translate(-14,10) scale(1,1)"><path fill="#000000" stroke="none" d="M 179.16267485762415 435.790482243984 L 169 440 L 179.16267485762415 444.209517756016"/></g><g transform="translate(-14,10) scale(1,1)"><path fill="none" stroke="#000000" d="M 179.16267485762415 435.790482243984 L 169 440 L 179.16267485762415 444.209517756016 L 179.16267485762415 435.790482243984" stroke-miterlimit="10"/></g><g transform="translate(-14,10) scale(1,1)"><g><path fill="none" stroke="none"/><text fill="#000000" stroke="none" font-family="Arial" font-size="13px" font-style="normal" font-weight="normal" text-decoration="none" x="282.5" y="435.5">8 : GET /Status</text></g></g><g transform="translate(-14,10) scale(1,1)"><rect fill="#ffffff" stroke="none" x="156" y="440" width="13" height="28"/></g><g transform="translate(-14,10) scale(1,1)"><path fill="none" stroke="#000000" d="M 156 440 L 169 440 L 169 468 L 156 468 L 156 440 Z Z" stroke-miterlimit="10"/></g><g transform="translate(-14,10) scale(1,1)"><path fill="none" stroke="#000000" d="M 163 488 L 517 488" stroke-miterlimit="10" stroke-dasharray="3"/></g><g transform="translate(-14,10) scale(1,1)"><path fill="none" stroke="#000000" d="M 506.83732514237585 492.209517756016 L 517 488 L 506.83732514237585 483.790482243984" stroke-miterlimit="10"/></g><g transform="translate(-14,10) scale(1,1)"><g><path fill="none" stroke="none"/><text fill="#000000" stroke="none" font-family="Arial" font-size="13px" font-style="normal" font-weight="normal" text-decoration="none" x="279.5" y="484.5">9 : /* NOT READY */</text></g></g></g></svg>