<svg version="1.1" xmlns="http://www.w3.org/2000/svg" xmlns:xlink="http://www.w3.org/1999/xlink" width="803" height="339"><defs/><g><g transform="translate(-6,-134) scale(1,1)"><rect fill="#C0C0C0" stroke="none" x="199" y="151" width="607" height="319" opacity="0.2"/></g><g transform="translate(-6,-134) scale(1,1)"><rect fill="#ffffff" stroke="none" x="192" y="144" width="607" height="319"/></g><g transform="translate(-6,-134) scale(1,1)"><path fill="none" stroke="#000000" d="M 192 144 L 799 144 L 799 463 L 192 463 L 192 144 Z Z" stroke-miterlimit="10"/></g><g transform="translate(-6,-134) scale(1,1)"><g><path fill="none" stroke="none"/><text fill="#000000" stroke="none" font-family="Arial" font-size="13px" font-style="normal" font-weight="bold" text-decoration="none" x="380" y="163.5">UC Detail Envoi des virements bancaire</text></g></g><g transform="translate(-6,-134) scale(1,1)"><path fill="#ffffff" stroke="none" d="M 75.32072727272727 225.68 C 75.32072727272727 220.886167936 79.20656959767273 217 84 217 C 88.79343040232727 217 92.67927272727273 220.886167936 92.67927272727273 225.68 C 92.67927272727273 230.47383206400002 88.79343040232727 234.36 84 234.36 C 79.20656959767273 234.36 75.32072727272727 230.47383206400002 75.32072727272727 225.68 Z"/></g><g transform="translate(-6,-134) scale(1,1)"><path fill="none" stroke="#000000" d="M 75.32072727272727 225.68 C 75.32072727272727 220.886167936 79.20656959767273 217 84 217 C 88.79343040232727 217 92.67927272727273 220.886167936 92.67927272727273 225.68 C 92.67927272727273 230.47383206400002 88.79343040232727 234.36 84 234.36 C 79.20656959767273 234.36 75.32072727272727 230.47383206400002 75.32072727272727 225.68 Z" stroke-miterlimit="10"/></g><g transform="translate(-6,-134) scale(1,1)"><path fill="none" stroke="#000000" d="M 84 234.36 L 84 251.64" stroke-miterlimit="10"/></g><g transform="translate(-6,-134) scale(1,1)"><path fill="none" stroke="#000000" d="M 74.81018181818182 240.84 L 93.18981818181818 240.84" stroke-miterlimit="10"/></g><g transform="translate(-6,-134) scale(1,1)"><path fill="none" stroke="#000000" d="M 84 251.64 L 71.23636363636363 269" stroke-miterlimit="10"/></g><g transform="translate(-6,-134) scale(1,1)"><path fill="none" stroke="#000000" d="M 84 251.64 L 96.76363636363637 269" stroke-miterlimit="10"/></g><g transform="translate(-6,-134) scale(1,1)"><path fill="none" stroke="#000000" d="M 16 295 L 152 295" stroke-miterlimit="10"/></g><g transform="translate(-6,-134) scale(1,1)"><g><path fill="none" stroke="none"/><text fill="#000000" stroke="none" font-family="Arial" font-size="13px" font-style="normal" font-weight="bold" text-decoration="none" x="55" y="289.5">Scheduler</text></g></g><g transform="translate(-6,-134) scale(1,1)"><g><path fill="none" stroke="none"/><text fill="#000000" stroke="none" font-family="Arial" font-size="13px" font-style="normal" font-weight="normal" text-decoration="none" x="21" y="312.5">+"Acteur non humain"</text></g></g><g transform="translate(-6,-134) scale(1,1)"><path fill="#C0C0C0" stroke="none" d="M 239 278.5 C 239 265.5213072 363.4648256 255 517 255 C 670.5351744 255 795 265.5213072 795 278.5 C 795 291.4786928 670.5351744 302 517 302 C 363.4648256 302 239 291.4786928 239 278.5 Z" opacity="0.2"/></g><g transform="translate(-6,-134) scale(1,1)"><path fill="#ffffff" stroke="none" d="M 232 271.5 C 232 258.5213072 356.4648256 248 510 248 C 663.5351744 248 788 258.5213072 788 271.5 C 788 284.4786928 663.5351744 295 510 295 C 356.4648256 295 232 284.4786928 232 271.5 Z"/></g><g transform="translate(-6,-134) scale(1,1)"><path fill="none" stroke="#000000" d="M 232 271.5 C 232 258.5213072 356.4648256 248 510 248 C 663.5351744 248 788 258.5213072 788 271.5 C 788 284.4786928 663.5351744 295 510 295 C 356.4648256 295 232 284.4786928 232 271.5 Z" stroke-miterlimit="10"/></g><g transform="translate(-6,-134) scale(1,1)"><g><path fill="none" stroke="none"/><text fill="#000000" stroke="none" font-family="Arial" font-size="13px" font-style="normal" font-weight="bold" text-decoration="none" x="328" y="278.5">Créer le document XML de transaction à envoyé au SI Externe</text></g></g><g transform="translate(-6,-134) scale(1,1)"><path fill="none" stroke="#000000" d="M 153 268 L 231 268" stroke-miterlimit="10"/></g></g></svg>