<svg version="1.1" xmlns="http://www.w3.org/2000/svg" xmlns:xlink="http://www.w3.org/1999/xlink" width="1172.5634765625" height="576"><defs/><g><g transform="translate(-6,-214) scale(1,1)"><rect fill="#C0C0C0" stroke="none" x="641" y="351" width="141.12255859375" height="44" opacity="0.2"/></g><g transform="translate(-6,-214) scale(1,1)"><rect fill="#ffffff" stroke="none" x="634" y="344" width="141.12255859375" height="44"/></g><g transform="translate(-6,-214) scale(1,1)"><path fill="none" stroke="#000000" d="M 634 344 L 775.12255859375 344 L 775.12255859375 388 L 634 388 L 634 344 Z Z" stroke-miterlimit="10"/></g><g transform="translate(-6,-214) scale(1,1)"><rect fill="#ffffff" stroke="none" x="624" y="351" width="20" height="10"/></g><g transform="translate(-6,-214) scale(1,1)"><path fill="none" stroke="#000000" d="M 624 351 L 644 351 L 644 361 L 624 361 L 624 351 Z Z" stroke-miterlimit="10"/></g><g transform="translate(-6,-214) scale(1,1)"><rect fill="#ffffff" stroke="none" x="624" y="371" width="20" height="10"/></g><g transform="translate(-6,-214) scale(1,1)"><path fill="none" stroke="#000000" d="M 624 371 L 644 371 L 644 381 L 624 381 L 624 371 Z Z" stroke-miterlimit="10"/></g><g transform="translate(-6,-214) scale(1,1)"><g><path fill="none" stroke="none"/><text fill="#000000" stroke="none" font-family="Arial" font-size="13px" font-style="normal" font-weight="normal" text-decoration="none" x="695.107666015625" y="361.5">«jar»</text></g></g><g transform="translate(-6,-214) scale(1,1)"><g><path fill="none" stroke="none"/><text fill="#000000" stroke="none" font-family="Arial" font-size="13px" font-style="normal" font-weight="bold" text-decoration="none" x="653.93359375" y="376.5">SharesPriceHistory</text></g></g><g transform="translate(-6,-214) scale(1,1)"><rect fill="#C0C0C0" stroke="none" x="337" y="351" width="154.078125" height="44" opacity="0.2"/></g><g transform="translate(-6,-214) scale(1,1)"><rect fill="#ffffff" stroke="none" x="330" y="344" width="154.078125" height="44"/></g><g transform="translate(-6,-214) scale(1,1)"><path fill="none" stroke="#000000" d="M 330 344 L 484.078125 344 L 484.078125 388 L 330 388 L 330 344 Z Z" stroke-miterlimit="10"/></g><g transform="translate(-6,-214) scale(1,1)"><rect fill="#ffffff" stroke="none" x="320" y="351" width="20" height="10"/></g><g transform="translate(-6,-214) scale(1,1)"><path fill="none" stroke="#000000" d="M 320 351 L 340 351 L 340 361 L 320 361 L 320 351 Z Z" stroke-miterlimit="10"/></g><g transform="translate(-6,-214) scale(1,1)"><rect fill="#ffffff" stroke="none" x="320" y="371" width="20" height="10"/></g><g transform="translate(-6,-214) scale(1,1)"><path fill="none" stroke="#000000" d="M 320 371 L 340 371 L 340 381 L 320 381 L 320 371 Z Z" stroke-miterlimit="10"/></g><g transform="translate(-6,-214) scale(1,1)"><g><path fill="none" stroke="none"/><text fill="#000000" stroke="none" font-family="Arial" font-size="13px" font-style="normal" font-weight="normal" text-decoration="none" x="397.58544921875" y="361.5">«jar»</text></g></g><g transform="translate(-6,-214) scale(1,1)"><g><path fill="none" stroke="none"/><text fill="#000000" stroke="none" font-family="Arial" font-size="13px" font-style="normal" font-weight="bold" text-decoration="none" x="359.642333984375" y="376.5">YahooFinanceAPI</text></g></g><g transform="translate(-6,-214) scale(1,1)"><rect fill="#C0C0C0" stroke="none" x="873" y="239" width="98.44091796875" height="44" opacity="0.2"/></g><g transform="translate(-6,-214) scale(1,1)"><rect fill="#ffffff" stroke="none" x="866" y="232" width="98.44091796875" height="44"/></g><g transform="translate(-6,-214) scale(1,1)"><path fill="none" stroke="#000000" d="M 866 232 L 964.44091796875 232 L 964.44091796875 276 L 866 276 L 866 232 Z Z" stroke-miterlimit="10"/></g><g transform="translate(-6,-214) scale(1,1)"><rect fill="#ffffff" stroke="none" x="856" y="239" width="20" height="10"/></g><g transform="translate(-6,-214) scale(1,1)"><path fill="none" stroke="#000000" d="M 856 239 L 876 239 L 876 249 L 856 249 L 856 239 Z Z" stroke-miterlimit="10"/></g><g transform="translate(-6,-214) scale(1,1)"><rect fill="#ffffff" stroke="none" x="856" y="259" width="20" height="10"/></g><g transform="translate(-6,-214) scale(1,1)"><path fill="none" stroke="#000000" d="M 856 259 L 876 259 L 876 269 L 856 269 L 856 259 Z Z" stroke-miterlimit="10"/></g><g transform="translate(-6,-214) scale(1,1)"><g><path fill="none" stroke="none"/><text fill="#000000" stroke="none" font-family="Arial" font-size="13px" font-style="normal" font-weight="normal" text-decoration="none" x="905.766845703125" y="249.5">«jar»</text></g></g><g transform="translate(-6,-214) scale(1,1)"><g><path fill="none" stroke="none"/><text fill="#000000" stroke="none" font-family="Arial" font-size="13px" font-style="normal" font-weight="bold" text-decoration="none" x="885.17822265625" y="264.5">esibankUtils</text></g></g><g transform="translate(-6,-214) scale(1,1)"><rect fill="#C0C0C0" stroke="none" x="641" y="567" width="138.97705078125" height="44" opacity="0.2"/></g><g transform="translate(-6,-214) scale(1,1)"><rect fill="#ffffff" stroke="none" x="634" y="560" width="138.97705078125" height="44"/></g><g transform="translate(-6,-214) scale(1,1)"><path fill="none" stroke="#000000" d="M 634 560 L 772.97705078125 560 L 772.97705078125 604 L 634 604 L 634 560 Z Z" stroke-miterlimit="10"/></g><g transform="translate(-6,-214) scale(1,1)"><rect fill="#ffffff" stroke="none" x="624" y="567" width="20" height="10"/></g><g transform="translate(-6,-214) scale(1,1)"><path fill="none" stroke="#000000" d="M 624 567 L 644 567 L 644 577 L 624 577 L 624 567 Z Z" stroke-miterlimit="10"/></g><g transform="translate(-6,-214) scale(1,1)"><rect fill="#ffffff" stroke="none" x="624" y="587" width="20" height="10"/></g><g transform="translate(-6,-214) scale(1,1)"><path fill="none" stroke="#000000" d="M 624 587 L 644 587 L 644 597 L 624 597 L 624 587 Z Z" stroke-miterlimit="10"/></g><g transform="translate(-6,-214) scale(1,1)"><g><path fill="none" stroke="none"/><text fill="#000000" stroke="none" font-family="Arial" font-size="13px" font-style="normal" font-weight="normal" text-decoration="none" x="690.784912109375" y="577.5">«war»</text></g></g><g transform="translate(-6,-214) scale(1,1)"><g><path fill="none" stroke="none"/><text fill="#000000" stroke="none" font-family="Arial" font-size="13px" font-style="normal" font-weight="bold" text-decoration="none" x="654.66357421875" y="592.5">DataAccessServer</text></g></g><g transform="translate(-6,-214) scale(1,1)"><rect fill="#C0C0C0" stroke="none" x="905" y="743" width="104.26171875" height="44" opacity="0.2"/></g><g transform="translate(-6,-214) scale(1,1)"><rect fill="#ffffff" stroke="none" x="898" y="736" width="104.26171875" height="44"/></g><g transform="translate(-6,-214) scale(1,1)"><path fill="none" stroke="#000000" d="M 898 736 L 1002.26171875 736 L 1002.26171875 780 L 898 780 L 898 736 Z Z" stroke-miterlimit="10"/></g><g transform="translate(-6,-214) scale(1,1)"><rect fill="#ffffff" stroke="none" x="888" y="743" width="20" height="10"/></g><g transform="translate(-6,-214) scale(1,1)"><path fill="none" stroke="#000000" d="M 888 743 L 908 743 L 908 753 L 888 753 L 888 743 Z Z" stroke-miterlimit="10"/></g><g transform="translate(-6,-214) scale(1,1)"><rect fill="#ffffff" stroke="none" x="888" y="763" width="20" height="10"/></g><g transform="translate(-6,-214) scale(1,1)"><path fill="none" stroke="#000000" d="M 888 763 L 908 763 L 908 773 L 888 773 L 888 763 Z Z" stroke-miterlimit="10"/></g><g transform="translate(-6,-214) scale(1,1)"><g><path fill="none" stroke="none"/><text fill="#000000" stroke="none" font-family="Arial" font-size="13px" font-style="normal" font-weight="normal" text-decoration="none" x="929.121337890625" y="753.5">«DBMS»</text></g></g><g transform="translate(-6,-214) scale(1,1)"><g><path fill="none" stroke="none"/><text fill="#000000" stroke="none" font-family="Arial" font-size="13px" font-style="normal" font-weight="bold" text-decoration="none" x="921.89453125" y="768.5">Mysql.5.6.7</text></g></g><g transform="translate(-6,-214) scale(1,1)"><path fill="none" stroke="#000000" d="M 742 343 L 867 277" stroke-miterlimit="10" stroke-dasharray="3"/></g><g transform="translate(-6,-214) scale(1,1)"><path fill="none" stroke="#000000" d="M 859.9785854956363 285.4675698023642 L 867 277 L 856.0476341630207 278.02258621786495" stroke-miterlimit="10"/></g><g transform="translate(-6,-214) scale(1,1)"><path fill="none" stroke="#000000" d="M 623 366 L 485 366" stroke-miterlimit="10" stroke-dasharray="3"/></g><g transform="translate(-6,-214) scale(1,1)"><path fill="none" stroke="#000000" d="M 495.16267485762415 361.790482243984 L 485 366 L 495.16267485762415 370.209517756016" stroke-miterlimit="10"/></g><g transform="translate(-6,-214) scale(1,1)"><path fill="#C0C0C0" stroke="none" d="M 694.7099609375 482.5 C 694.7099609375 476.1487248 699.8586857375 471 706.2099609375 471 C 712.5612361375 471 717.7099609375 476.1487248 717.7099609375 482.5 C 717.7099609375 488.8512752 712.5612361375 494 706.2099609375 494 C 699.8586857375 494 694.7099609375 488.8512752 694.7099609375 482.5 Z" opacity="0.2"/></g><g transform="translate(-6,-214) scale(1,1)"><path fill="none" stroke="#000000" d="M 687.5 475 A 11.5 11.5 0 0 1 710.5 475" stroke-miterlimit="10"/></g><g transform="translate(-6,-214) scale(1,1)"><path fill="none" stroke="#000000" d="M 687.5 475 A 11.5 11.5 0 0 1 710.5 475" stroke-miterlimit="10"/></g><g transform="translate(-6,-214) scale(1,1)"><path fill="none" stroke="#000000" d="M 687.5 475 A 11.5 11.5 0 0 1 710.5 475" stroke-miterlimit="10"/></g><g transform="translate(-6,-214) scale(1,1)"><path fill="#ffffff" stroke="none" d="M 690.7099609375 475.5 C 690.7099609375 470.8055792 694.5155401375 467 699.2099609375 467 C 703.9043817375 467 707.7099609375 470.8055792 707.7099609375 475.5 C 707.7099609375 480.1944208 703.9043817375 484 699.2099609375 484 C 694.5155401375 484 690.7099609375 480.1944208 690.7099609375 475.5 Z"/></g><g transform="translate(-6,-214) scale(1,1)"><path fill="none" stroke="#000000" d="M 690.7099609375 475.5 C 690.7099609375 470.8055792 694.5155401375 467 699.2099609375 467 C 703.9043817375 467 707.7099609375 470.8055792 707.7099609375 475.5 C 707.7099609375 480.1944208 703.9043817375 484 699.2099609375 484 C 694.5155401375 484 690.7099609375 480.1944208 690.7099609375 475.5 Z" stroke-miterlimit="10"/></g><g transform="translate(-6,-214) scale(1,1)"><g><path fill="none" stroke="none"/><text fill="#000000" stroke="none" font-family="Arial" font-size="13px" font-style="normal" font-weight="bold" text-decoration="none" x="681.87451171875" y="506.5">REST</text></g></g><g transform="translate(-6,-214) scale(1,1)"><path fill="none" stroke="#000000" d="M 698 559 L 699 487" stroke-miterlimit="10"/></g><g transform="translate(-6,-214) scale(1,1)"><path fill="none" stroke="#000000" d="M 699 389 L 699 464" stroke-miterlimit="10"/></g><g transform="translate(-6,-214) scale(1,1)"><rect fill="#C0C0C0" stroke="none" x="865" y="567" width="180.8525390625" height="44" opacity="0.2"/></g><g transform="translate(-6,-214) scale(1,1)"><rect fill="#ffffff" stroke="none" x="858" y="560" width="180.8525390625" height="44"/></g><g transform="translate(-6,-214) scale(1,1)"><path fill="none" stroke="#000000" d="M 858 560 L 1038.8525390625 560 L 1038.8525390625 604 L 858 604 L 858 560 Z Z" stroke-miterlimit="10"/></g><g transform="translate(-6,-214) scale(1,1)"><rect fill="#ffffff" stroke="none" x="848" y="567" width="20" height="10"/></g><g transform="translate(-6,-214) scale(1,1)"><path fill="none" stroke="#000000" d="M 848 567 L 868 567 L 868 577 L 848 577 L 848 567 Z Z" stroke-miterlimit="10"/></g><g transform="translate(-6,-214) scale(1,1)"><rect fill="#ffffff" stroke="none" x="848" y="587" width="20" height="10"/></g><g transform="translate(-6,-214) scale(1,1)"><path fill="none" stroke="#000000" d="M 848 587 L 868 587 L 868 597 L 848 597 L 848 587 Z Z" stroke-miterlimit="10"/></g><g transform="translate(-6,-214) scale(1,1)"><g><path fill="none" stroke="none"/><text fill="#000000" stroke="none" font-family="Arial" font-size="13px" font-style="normal" font-weight="normal" text-decoration="none" x="938.97265625" y="577.5">«jar»</text></g></g><g transform="translate(-6,-214) scale(1,1)"><g><path fill="none" stroke="none"/><text fill="#000000" stroke="none" font-family="Arial" font-size="13px" font-style="normal" font-weight="bold" text-decoration="none" x="877.91455078125" y="592.5">mysql.connectorjava.5.6.7</text></g></g><g transform="translate(-6,-214) scale(1,1)"><path fill="none" stroke="#000000" d="M 774 582 L 847 582" stroke-miterlimit="10" stroke-dasharray="3"/></g><g transform="translate(-6,-214) scale(1,1)"><path fill="none" stroke="#000000" d="M 836.8373251423759 586.209517756016 L 847 582 L 836.8373251423758 577.790482243984" stroke-miterlimit="10"/></g><g transform="translate(-6,-214) scale(1,1)"><path fill="#C0C0C0" stroke="none" d="M 942.7099609375 674.5 C 942.7099609375 668.1487248 947.8586857375 663 954.2099609375 663 C 960.5612361375 663 965.7099609375 668.1487248 965.7099609375 674.5 C 965.7099609375 680.8512752 960.5612361375 686 954.2099609375 686 C 947.8586857375 686 942.7099609375 680.8512752 942.7099609375 674.5 Z" opacity="0.2"/></g><g transform="translate(-6,-214) scale(1,1)"><path fill="none" stroke="#000000" d="M 935.5397237801839 667.955023018318 A 11.5 11.5 0 0 1 958.4602762198161 666.044976981682" stroke-miterlimit="10"/></g><g transform="translate(-6,-214) scale(1,1)"><path fill="#ffffff" stroke="none" d="M 938.7099609375 667.5 C 938.7099609375 662.8055792 942.5155401375 659 947.2099609375 659 C 951.9043817375 659 955.7099609375 662.8055792 955.7099609375 667.5 C 955.7099609375 672.1944208 951.9043817375 676 947.2099609375 676 C 942.5155401375 676 938.7099609375 672.1944208 938.7099609375 667.5 Z"/></g><g transform="translate(-6,-214) scale(1,1)"><path fill="none" stroke="#000000" d="M 938.7099609375 667.5 C 938.7099609375 662.8055792 942.5155401375 659 947.2099609375 659 C 951.9043817375 659 955.7099609375 662.8055792 955.7099609375 667.5 C 955.7099609375 672.1944208 951.9043817375 676 947.2099609375 676 C 942.5155401375 676 938.7099609375 672.1944208 938.7099609375 667.5 Z" stroke-miterlimit="10"/></g><g transform="translate(-6,-214) scale(1,1)"><g><path fill="none" stroke="none"/><text fill="#000000" stroke="none" font-family="Arial" font-size="13px" font-style="normal" font-weight="bold" text-decoration="none" x="930.236328125" y="698.5">JDBC</text></g></g><g transform="translate(-6,-214) scale(1,1)"><path fill="none" stroke="#000000" d="M 946 735 L 946.6842105263158 679" stroke-miterlimit="10"/></g><g transform="translate(-6,-214) scale(1,1)"><path fill="none" stroke="#000000" d="M 944 605 L 946.0833333333334 656" stroke-miterlimit="10"/></g><g transform="translate(-6,-214) scale(1,1)"><rect fill="#C0C0C0" stroke="none" x="585" y="711" width="246.5634765625" height="44" opacity="0.2"/></g><g transform="translate(-6,-214) scale(1,1)"><rect fill="#ffffff" stroke="none" x="578" y="704" width="246.5634765625" height="44"/></g><g transform="translate(-6,-214) scale(1,1)"><path fill="none" stroke="#000000" d="M 578 704 L 824.5634765625 704 L 824.5634765625 748 L 578 748 L 578 704 Z Z" stroke-miterlimit="10"/></g><g transform="translate(-6,-214) scale(1,1)"><rect fill="#ffffff" stroke="none" x="568" y="711" width="20" height="10"/></g><g transform="translate(-6,-214) scale(1,1)"><path fill="none" stroke="#000000" d="M 568 711 L 588 711 L 588 721 L 568 721 L 568 711 Z Z" stroke-miterlimit="10"/></g><g transform="translate(-6,-214) scale(1,1)"><rect fill="#ffffff" stroke="none" x="568" y="731" width="20" height="10"/></g><g transform="translate(-6,-214) scale(1,1)"><path fill="none" stroke="#000000" d="M 568 731 L 588 731 L 588 741 L 568 741 L 568 731 Z Z" stroke-miterlimit="10"/></g><g transform="translate(-6,-214) scale(1,1)"><g><path fill="none" stroke="none"/><text fill="#000000" stroke="none" font-family="Arial" font-size="13px" font-style="normal" font-weight="normal" text-decoration="none" x="691.828125" y="721.5">«jar»</text></g></g><g transform="translate(-6,-214) scale(1,1)"><g><path fill="none" stroke="none"/><text fill="#000000" stroke="none" font-family="Arial" font-size="13px" font-style="normal" font-weight="bold" text-decoration="none" x="598.984130859375" y="736.5">org.springframework.4.3.4.RELEASE</text></g></g><g transform="translate(-6,-214) scale(1,1)"><path fill="none" stroke="#000000" d="M 698 605 L 696 703" stroke-miterlimit="10" stroke-dasharray="3"/></g><g transform="translate(-6,-214) scale(1,1)"><path fill="none" stroke="#000000" d="M 691.9987169383965 692.7535501825791 L 696 703 L 700.4159997626792 692.9253314647074" stroke-miterlimit="10"/></g><g transform="translate(-6,-214) scale(1,1)"><rect fill="#C0C0C0" stroke="none" x="929" y="351" width="246.5634765625" height="44" opacity="0.2"/></g><g transform="translate(-6,-214) scale(1,1)"><rect fill="#ffffff" stroke="none" x="922" y="344" width="246.5634765625" height="44"/></g><g transform="translate(-6,-214) scale(1,1)"><path fill="none" stroke="#000000" d="M 922 344 L 1168.5634765625 344 L 1168.5634765625 388 L 922 388 L 922 344 Z Z" stroke-miterlimit="10"/></g><g transform="translate(-6,-214) scale(1,1)"><rect fill="#ffffff" stroke="none" x="912" y="351" width="20" height="10"/></g><g transform="translate(-6,-214) scale(1,1)"><path fill="none" stroke="#000000" d="M 912 351 L 932 351 L 932 361 L 912 361 L 912 351 Z Z" stroke-miterlimit="10"/></g><g transform="translate(-6,-214) scale(1,1)"><rect fill="#ffffff" stroke="none" x="912" y="371" width="20" height="10"/></g><g transform="translate(-6,-214) scale(1,1)"><path fill="none" stroke="#000000" d="M 912 371 L 932 371 L 932 381 L 912 381 L 912 371 Z Z" stroke-miterlimit="10"/></g><g transform="translate(-6,-214) scale(1,1)"><g><path fill="none" stroke="none"/><text fill="#000000" stroke="none" font-family="Arial" font-size="13px" font-style="normal" font-weight="normal" text-decoration="none" x="1035.828125" y="361.5">«jar»</text></g></g><g transform="translate(-6,-214) scale(1,1)"><g><path fill="none" stroke="none"/><text fill="#000000" stroke="none" font-family="Arial" font-size="13px" font-style="normal" font-weight="bold" text-decoration="none" x="942.984130859375" y="376.5">org.springframework.4.3.4.RELEASE</text></g></g><g transform="translate(-6,-214) scale(1,1)"><path fill="none" stroke="#000000" d="M 776 366 L 911 366" stroke-miterlimit="10" stroke-dasharray="3"/></g><g transform="translate(-6,-214) scale(1,1)"><path fill="none" stroke="#000000" d="M 900.8373251423759 370.209517756016 L 911 366 L 900.8373251423758 361.790482243984" stroke-miterlimit="10"/></g><g transform="translate(-6,-214) scale(1,1)"><rect fill="#C0C0C0" stroke="none" x="473" y="239" width="102.0908203125" height="44" opacity="0.2"/></g><g transform="translate(-6,-214) scale(1,1)"><rect fill="#ffffff" stroke="none" x="466" y="232" width="102.0908203125" height="44"/></g><g transform="translate(-6,-214) scale(1,1)"><path fill="none" stroke="#000000" d="M 466 232 L 568.0908203125 232 L 568.0908203125 276 L 466 276 L 466 232 Z Z" stroke-miterlimit="10"/></g><g transform="translate(-6,-214) scale(1,1)"><rect fill="#ffffff" stroke="none" x="456" y="239" width="20" height="10"/></g><g transform="translate(-6,-214) scale(1,1)"><path fill="none" stroke="#000000" d="M 456 239 L 476 239 L 476 249 L 456 249 L 456 239 Z Z" stroke-miterlimit="10"/></g><g transform="translate(-6,-214) scale(1,1)"><rect fill="#ffffff" stroke="none" x="456" y="259" width="20" height="10"/></g><g transform="translate(-6,-214) scale(1,1)"><path fill="none" stroke="#000000" d="M 456 259 L 476 259 L 476 269 L 456 269 L 456 259 Z Z" stroke-miterlimit="10"/></g><g transform="translate(-6,-214) scale(1,1)"><g><path fill="none" stroke="none"/><text fill="#000000" stroke="none" font-family="Arial" font-size="13px" font-style="normal" font-weight="normal" text-decoration="none" x="507.591796875" y="249.5">«jar»</text></g></g><g transform="translate(-6,-214) scale(1,1)"><g><path fill="none" stroke="none"/><text fill="#000000" stroke="none" font-family="Arial" font-size="13px" font-style="normal" font-weight="bold" text-decoration="none" x="483.023193359375" y="264.5">org.slf4j.1.7.5</text></g></g><g transform="translate(-6,-214) scale(1,1)"><path fill="none" stroke="#000000" d="M 661 343 L 550 277" stroke-miterlimit="10" stroke-dasharray="3"/></g><g transform="translate(-6,-214) scale(1,1)"><path fill="none" stroke="#000000" d="M 560.8865646993925 278.57566146298706 L 550 277 L 556.583802817434 285.81212462809896" stroke-miterlimit="10"/></g><g transform="translate(-6,-214) scale(1,1)"><rect fill="#C0C0C0" stroke="none" x="649" y="231" width="133.1181640625" height="44" opacity="0.2"/></g><g transform="translate(-6,-214) scale(1,1)"><rect fill="#ffffff" stroke="none" x="642" y="224" width="133.1181640625" height="44"/></g><g transform="translate(-6,-214) scale(1,1)"><path fill="none" stroke="#000000" d="M 642 224 L 775.1181640625 224 L 775.1181640625 268 L 642 268 L 642 224 Z Z" stroke-miterlimit="10"/></g><g transform="translate(-6,-214) scale(1,1)"><rect fill="#ffffff" stroke="none" x="632" y="231" width="20" height="10"/></g><g transform="translate(-6,-214) scale(1,1)"><path fill="none" stroke="#000000" d="M 632 231 L 652 231 L 652 241 L 632 241 L 632 231 Z Z" stroke-miterlimit="10"/></g><g transform="translate(-6,-214) scale(1,1)"><rect fill="#ffffff" stroke="none" x="632" y="251" width="20" height="10"/></g><g transform="translate(-6,-214) scale(1,1)"><path fill="none" stroke="#000000" d="M 632 251 L 652 251 L 652 261 L 632 261 L 632 251 Z Z" stroke-miterlimit="10"/></g><g transform="translate(-6,-214) scale(1,1)"><g><path fill="none" stroke="none"/><text fill="#000000" stroke="none" font-family="Arial" font-size="13px" font-style="normal" font-weight="normal" text-decoration="none" x="699.10546875" y="241.5">«jar»</text></g></g><g transform="translate(-6,-214) scale(1,1)"><g><path fill="none" stroke="none"/><text fill="#000000" stroke="none" font-family="Arial" font-size="13px" font-style="normal" font-weight="bold" text-decoration="none" x="661.8955078125" y="256.5">org.projectlombok</text></g></g><g transform="translate(-6,-214) scale(1,1)"><path fill="none" stroke="#000000" d="M 700 343 L 702 269" stroke-miterlimit="10" stroke-dasharray="3"/></g><g transform="translate(-6,-214) scale(1,1)"><path fill="none" stroke="#000000" d="M 705.9334145288594 279.27269439553993 L 702 269 L 697.5174522184309 279.04523595471755" stroke-miterlimit="10"/></g><g transform="translate(-6,-214) scale(1,1)"><rect fill="#C0C0C0" stroke="none" x="289" y="527" width="181.54443359375" height="44" opacity="0.2"/></g><g transform="translate(-6,-214) scale(1,1)"><rect fill="#ffffff" stroke="none" x="282" y="520" width="181.54443359375" height="44"/></g><g transform="translate(-6,-214) scale(1,1)"><path fill="none" stroke="#000000" d="M 282 520 L 463.54443359375 520 L 463.54443359375 564 L 282 564 L 282 520 Z Z" stroke-miterlimit="10"/></g><g transform="translate(-6,-214) scale(1,1)"><rect fill="#ffffff" stroke="none" x="272" y="527" width="20" height="10"/></g><g transform="translate(-6,-214) scale(1,1)"><path fill="none" stroke="#000000" d="M 272 527 L 292 527 L 292 537 L 272 537 L 272 527 Z Z" stroke-miterlimit="10"/></g><g transform="translate(-6,-214) scale(1,1)"><rect fill="#ffffff" stroke="none" x="272" y="547" width="20" height="10"/></g><g transform="translate(-6,-214) scale(1,1)"><path fill="none" stroke="#000000" d="M 272 547 L 292 547 L 292 557 L 272 557 L 272 547 Z Z" stroke-miterlimit="10"/></g><g transform="translate(-6,-214) scale(1,1)"><g><path fill="none" stroke="none"/><text fill="#000000" stroke="none" font-family="Arial" font-size="13px" font-style="normal" font-weight="normal" text-decoration="none" x="360.068603515625" y="537.5">«war»</text></g></g><g transform="translate(-6,-214) scale(1,1)"><g><path fill="none" stroke="none"/><text fill="#000000" stroke="none" font-family="Arial" font-size="13px" font-style="normal" font-weight="bold" text-decoration="none" x="302.996826171875" y="552.5">Shares-price-Historisation</text></g></g><g transform="translate(-6,-214) scale(1,1)"><path fill="#C0C0C0" stroke="none" d="M 503 594.5 C 503 588.1487248 508.1487248 583 514.5 583 C 520.8512752 583 526 588.1487248 526 594.5 C 526 600.8512752 520.8512752 606 514.5 606 C 508.1487248 606 503 600.8512752 503 594.5 Z" opacity="0.2"/></g><g transform="translate(-6,-214) scale(1,1)"><path fill="none" stroke="#000000" d="M 505.03877351238384 598.3315308173377 A 11.5 11.5 0 1 1 508.96122648761616 575.6684691826623" stroke-miterlimit="10"/></g><g transform="translate(-6,-214) scale(1,1)"><path fill="#ffffff" stroke="none" d="M 499 587.5 C 499 582.8055792 502.8055792 579 507.5 579 C 512.1944208 579 516 582.8055792 516 587.5 C 516 592.1944208 512.1944208 596 507.5 596 C 502.8055792 596 499 592.1944208 499 587.5 Z"/></g><g transform="translate(-6,-214) scale(1,1)"><path fill="none" stroke="#000000" d="M 499 587.5 C 499 582.8055792 502.8055792 579 507.5 579 C 512.1944208 579 516 582.8055792 516 587.5 C 516 592.1944208 512.1944208 596 507.5 596 C 502.8055792 596 499 592.1944208 499 587.5 Z" stroke-miterlimit="10"/></g><g transform="translate(-6,-214) scale(1,1)"><g><path fill="none" stroke="none"/><text fill="#000000" stroke="none" font-family="Arial" font-size="13px" font-style="normal" font-weight="bold" text-decoration="none" x="490.16455078125" y="618.5">REST</text></g></g><g transform="translate(-6,-214) scale(1,1)"><path fill="none" stroke="#000000" d="M 623 589 L 519 588.811320754717" stroke-miterlimit="10"/></g><g transform="translate(-6,-214) scale(1,1)"><path fill="none" stroke="#000000" d="M 699 389 L 699 464" stroke-miterlimit="10"/></g><g transform="translate(-6,-214) scale(1,1)"><path fill="none" stroke="#000000" d="M 699 389 L 699 464" stroke-miterlimit="10"/></g><g transform="translate(-6,-214) scale(1,1)"><path fill="none" stroke="#000000" d="M 423 565 L 496 585.0961538461538" stroke-miterlimit="10"/></g><g transform="translate(-6,-214) scale(1,1)"><rect fill="#C0C0C0" stroke="none" x="249" y="711" width="200.314453125" height="44" opacity="0.2"/></g><g transform="translate(-6,-214) scale(1,1)"><rect fill="#ffffff" stroke="none" x="242" y="704" width="200.314453125" height="44"/></g><g transform="translate(-6,-214) scale(1,1)"><path fill="none" stroke="#000000" d="M 242 704 L 442.314453125 704 L 442.314453125 748 L 242 748 L 242 704 Z Z" stroke-miterlimit="10"/></g><g transform="translate(-6,-214) scale(1,1)"><rect fill="#ffffff" stroke="none" x="232" y="711" width="20" height="10"/></g><g transform="translate(-6,-214) scale(1,1)"><path fill="none" stroke="#000000" d="M 232 711 L 252 711 L 252 721 L 232 721 L 232 711 Z Z" stroke-miterlimit="10"/></g><g transform="translate(-6,-214) scale(1,1)"><rect fill="#ffffff" stroke="none" x="232" y="731" width="20" height="10"/></g><g transform="translate(-6,-214) scale(1,1)"><path fill="none" stroke="#000000" d="M 232 731 L 252 731 L 252 741 L 232 741 L 232 731 Z Z" stroke-miterlimit="10"/></g><g transform="translate(-6,-214) scale(1,1)"><g><path fill="none" stroke="none"/><text fill="#000000" stroke="none" font-family="Arial" font-size="13px" font-style="normal" font-weight="normal" text-decoration="none" x="332.70361328125" y="721.5">«jar»</text></g></g><g transform="translate(-6,-214) scale(1,1)"><g><path fill="none" stroke="none"/><text fill="#000000" stroke="none" font-family="Arial" font-size="13px" font-style="normal" font-weight="bold" text-decoration="none" x="261.168701171875" y="736.5">spring-rabbit  1.4.5.RELEASE</text></g></g><g transform="translate(-6,-214) scale(1,1)"><path fill="none" stroke="#000000" d="M 363 565 L 341 703" stroke-miterlimit="10" stroke-dasharray="3"/></g><g transform="translate(-6,-214) scale(1,1)"><path fill="none" stroke="#000000" d="M 338.4429089561979 692.3013418881756 L 341 703 L 346.7569572832837 693.6267698823486" stroke-miterlimit="10"/></g><g transform="translate(-6,-214) scale(1,1)"><rect fill="#C0C0C0" stroke="none" x="33" y="383" width="165.61181640625" height="44" opacity="0.2"/></g><g transform="translate(-6,-214) scale(1,1)"><rect fill="#ffffff" stroke="none" x="26" y="376" width="165.61181640625" height="44"/></g><g transform="translate(-6,-214) scale(1,1)"><path fill="none" stroke="#000000" d="M 26 376 L 191.61181640625 376 L 191.61181640625 420 L 26 420 L 26 376 Z Z" stroke-miterlimit="10"/></g><g transform="translate(-6,-214) scale(1,1)"><rect fill="#ffffff" stroke="none" x="16" y="383" width="20" height="10"/></g><g transform="translate(-6,-214) scale(1,1)"><path fill="none" stroke="#000000" d="M 16 383 L 36 383 L 36 393 L 16 393 L 16 383 Z Z" stroke-miterlimit="10"/></g><g transform="translate(-6,-214) scale(1,1)"><rect fill="#ffffff" stroke="none" x="16" y="403" width="20" height="10"/></g><g transform="translate(-6,-214) scale(1,1)"><path fill="none" stroke="#000000" d="M 16 403 L 36 403 L 36 413 L 16 413 L 16 403 Z Z" stroke-miterlimit="10"/></g><g transform="translate(-6,-214) scale(1,1)"><g><path fill="none" stroke="none"/><text fill="#000000" stroke="none" font-family="Arial" font-size="13px" font-style="normal" font-weight="normal" text-decoration="none" x="99.352294921875" y="393.5">«jar»</text></g></g><g transform="translate(-6,-214) scale(1,1)"><g><path fill="none" stroke="none"/><text fill="#000000" stroke="none" font-family="Arial" font-size="13px" font-style="normal" font-weight="bold" text-decoration="none" x="46.61279296875" y="408.5">spring-boot-starter-web</text></g></g><g transform="translate(-6,-214) scale(1,1)"><rect fill="#C0C0C0" stroke="none" x="33" y="511" width="177.2470703125" height="44" opacity="0.2"/></g><g transform="translate(-6,-214) scale(1,1)"><rect fill="#ffffff" stroke="none" x="26" y="504" width="177.2470703125" height="44"/></g><g transform="translate(-6,-214) scale(1,1)"><path fill="none" stroke="#000000" d="M 26 504 L 203.2470703125 504 L 203.2470703125 548 L 26 548 L 26 504 Z Z" stroke-miterlimit="10"/></g><g transform="translate(-6,-214) scale(1,1)"><rect fill="#ffffff" stroke="none" x="16" y="511" width="20" height="10"/></g><g transform="translate(-6,-214) scale(1,1)"><path fill="none" stroke="#000000" d="M 16 511 L 36 511 L 36 521 L 16 521 L 16 511 Z Z" stroke-miterlimit="10"/></g><g transform="translate(-6,-214) scale(1,1)"><rect fill="#ffffff" stroke="none" x="16" y="531" width="20" height="10"/></g><g transform="translate(-6,-214) scale(1,1)"><path fill="none" stroke="#000000" d="M 16 531 L 36 531 L 36 541 L 16 541 L 16 531 Z Z" stroke-miterlimit="10"/></g><g transform="translate(-6,-214) scale(1,1)"><g><path fill="none" stroke="none"/><text fill="#000000" stroke="none" font-family="Arial" font-size="13px" font-style="normal" font-weight="normal" text-decoration="none" x="105.169921875" y="521.5">«jar»</text></g></g><g transform="translate(-6,-214) scale(1,1)"><g><path fill="none" stroke="none"/><text fill="#000000" stroke="none" font-family="Arial" font-size="13px" font-style="normal" font-weight="bold" text-decoration="none" x="44.83544921875" y="536.5">jackson-mapper-asl1.9.13</text></g></g><g transform="translate(-6,-214) scale(1,1)"><rect fill="#C0C0C0" stroke="none" x="49" y="623" width="177.919921875" height="44" opacity="0.2"/></g><g transform="translate(-6,-214) scale(1,1)"><rect fill="#ffffff" stroke="none" x="42" y="616" width="177.919921875" height="44"/></g><g transform="translate(-6,-214) scale(1,1)"><path fill="none" stroke="#000000" d="M 42 616 L 219.919921875 616 L 219.919921875 660 L 42 660 L 42 616 Z Z" stroke-miterlimit="10"/></g><g transform="translate(-6,-214) scale(1,1)"><rect fill="#ffffff" stroke="none" x="32" y="623" width="20" height="10"/></g><g transform="translate(-6,-214) scale(1,1)"><path fill="none" stroke="#000000" d="M 32 623 L 52 623 L 52 633 L 32 633 L 32 623 Z Z" stroke-miterlimit="10"/></g><g transform="translate(-6,-214) scale(1,1)"><rect fill="#ffffff" stroke="none" x="32" y="643" width="20" height="10"/></g><g transform="translate(-6,-214) scale(1,1)"><path fill="none" stroke="#000000" d="M 32 643 L 52 643 L 52 653 L 32 653 L 32 643 Z Z" stroke-miterlimit="10"/></g><g transform="translate(-6,-214) scale(1,1)"><g><path fill="none" stroke="none"/><text fill="#000000" stroke="none" font-family="Arial" font-size="13px" font-style="normal" font-weight="normal" text-decoration="none" x="121.50634765625" y="633.5">«jar»</text></g></g><g transform="translate(-6,-214) scale(1,1)"><g><path fill="none" stroke="none"/><text fill="#000000" stroke="none" font-family="Arial" font-size="13px" font-style="normal" font-weight="bold" text-decoration="none" x="92.970458984375" y="648.5">jersey-core 1.9</text></g></g><g transform="translate(-6,-214) scale(1,1)"><path fill="none" stroke="#000000" d="M 325 519 L 145 421" stroke-miterlimit="10" stroke-dasharray="3"/></g><g transform="translate(-6,-214) scale(1,1)"><path fill="none" stroke="#000000" d="M 155.93841241277187 422.1623828492016 L 145 421 L 151.91269679748072 429.5565543874915" stroke-miterlimit="10"/></g><g transform="translate(-6,-214) scale(1,1)"><path fill="none" stroke="#000000" d="M 309 565 L 183 615" stroke-miterlimit="10" stroke-dasharray="3"/></g><g transform="translate(-6,-214) scale(1,1)"><path fill="none" stroke="#000000" d="M 190.89345011384626 607.3388352517244 L 183 615 L 193.99877364775142 615.1642505571654" stroke-miterlimit="10"/></g><g transform="translate(-6,-214) scale(1,1)"><path fill="none" stroke="#000000" d="M 271 536 L 204 532" stroke-miterlimit="10" stroke-dasharray="3"/></g><g transform="translate(-6,-214) scale(1,1)"><path fill="none" stroke="#000000" d="M 214.3954796902984 528.4036126448068 L 204 532 L 213.89374406932768 536.8076842960663" stroke-miterlimit="10"/></g></g></svg>