<svg version="1.1" xmlns="http://www.w3.org/2000/svg" xmlns:xlink="http://www.w3.org/1999/xlink" width="701" height="242"><defs/><g><g transform="translate(-78,-14) scale(1,1)"><rect fill="#C0C0C0" stroke="none" x="95" y="95" width="133" height="57" opacity="0.2"/></g><g transform="translate(-78,-14) scale(1,1)"><rect fill="#ffffff" stroke="none" x="88" y="88" width="133" height="57"/></g><g transform="translate(-78,-14) scale(1,1)"><path fill="none" stroke="#000000" d="M 88 88 L 221 88 L 221 145 L 88 145 L 88 88 Z Z" stroke-miterlimit="10"/></g><g transform="translate(-78,-14) scale(1,1)"><path fill="none" stroke="#000000" d="M 88 113 L 221 113" stroke-miterlimit="10"/></g><g transform="translate(-78,-14) scale(1,1)"><path fill="none" stroke="#000000" d="M 88 123 L 221 123" stroke-miterlimit="10"/></g><g transform="translate(-78,-14) scale(1,1)"><g><path fill="none" stroke="none"/><text fill="#000000" stroke="none" font-family="Arial" font-size="13px" font-style="normal" font-weight="bold" text-decoration="none" x="97" y="107.5">ComplaintsAnalysis</text></g></g><g transform="translate(-78,-14) scale(1,1)"><g><path fill="none" stroke="none"/><text fill="#000000" stroke="none" font-family="Arial" font-size="13px" font-style="normal" font-weight="normal" text-decoration="none" x="93" y="140.5">+run()</text></g></g><g transform="translate(-78,-14) scale(1,1)"><rect fill="#C0C0C0" stroke="none" x="399" y="31" width="377" height="102" opacity="0.2"/></g><g transform="translate(-78,-14) scale(1,1)"><rect fill="#ffffff" stroke="none" x="392" y="24" width="377" height="102"/></g><g transform="translate(-78,-14) scale(1,1)"><path fill="none" stroke="#000000" d="M 392 24 L 769 24 L 769 126 L 392 126 L 392 24 Z Z" stroke-miterlimit="10"/></g><g transform="translate(-78,-14) scale(1,1)"><path fill="none" stroke="#000000" d="M 392 49 L 769 49" stroke-miterlimit="10"/></g><g transform="translate(-78,-14) scale(1,1)"><path fill="none" stroke="#000000" d="M 392 59 L 769 59" stroke-miterlimit="10"/></g><g transform="translate(-78,-14) scale(1,1)"><g><path fill="none" stroke="none"/><text fill="#000000" stroke="none" font-family="Arial" font-size="13px" font-style="normal" font-weight="bold" text-decoration="none" x="542" y="43.5">DataHandling</text></g></g><g transform="translate(-78,-14) scale(1,1)"><g><path fill="none" stroke="none"/><text fill="#000000" stroke="none" font-family="Arial" font-size="13px" font-style="normal" font-weight="normal" text-decoration="none" x="397" y="76.5">+loadData(string path, StructType schema)</text></g></g><g transform="translate(-78,-14) scale(1,1)"><g><path fill="none" stroke="none"/><text fill="#000000" stroke="none" font-family="Arial" font-size="13px" font-style="normal" font-weight="normal" text-decoration="none" x="397" y="91.5">+getSchema()</text></g></g><g transform="translate(-78,-14) scale(1,1)"><g><path fill="none" stroke="none"/><text fill="#000000" stroke="none" font-family="Arial" font-size="13px" font-style="normal" font-weight="normal" text-decoration="none" x="397" y="106.5">+formatDate(Dataset&lt;Row&gt; ds)()</text></g></g><g transform="translate(-78,-14) scale(1,1)"><g><path fill="none" stroke="none"/><text fill="#000000" stroke="none" font-family="Arial" font-size="13px" font-style="normal" font-weight="normal" text-decoration="none" x="397" y="121.5">+loadDataFromMongoDb()</text></g></g><g transform="translate(-78,-14) scale(1,1)"><rect fill="#C0C0C0" stroke="none" x="399" y="151" width="313" height="102" opacity="0.2"/></g><g transform="translate(-78,-14) scale(1,1)"><rect fill="#ffffff" stroke="none" x="392" y="144" width="313" height="102"/></g><g transform="translate(-78,-14) scale(1,1)"><path fill="none" stroke="#000000" d="M 392 144 L 705 144 L 705 246 L 392 246 L 392 144 Z Z" stroke-miterlimit="10"/></g><g transform="translate(-78,-14) scale(1,1)"><path fill="none" stroke="#000000" d="M 392 169 L 705 169" stroke-miterlimit="10"/></g><g transform="translate(-78,-14) scale(1,1)"><path fill="none" stroke="#000000" d="M 392 179 L 705 179" stroke-miterlimit="10"/></g><g transform="translate(-78,-14) scale(1,1)"><g><path fill="none" stroke="none"/><text fill="#000000" stroke="none" font-family="Arial" font-size="13px" font-style="normal" font-weight="bold" text-decoration="none" x="513" y="163.5">DataAccess</text></g></g><g transform="translate(-78,-14) scale(1,1)"><g><path fill="none" stroke="none"/><text fill="#000000" stroke="none" font-family="Arial" font-size="13px" font-style="normal" font-weight="normal" text-decoration="none" x="397" y="196.5">+insertProductCount(Dataset&lt;Row&gt; ds)()</text></g></g><g transform="translate(-78,-14) scale(1,1)"><g><path fill="none" stroke="none"/><text fill="#000000" stroke="none" font-family="Arial" font-size="13px" font-style="normal" font-weight="normal" text-decoration="none" x="397" y="211.5">+insertConsumerDisputedCount(Dataset&lt;Row&gt; ds)()</text></g></g><g transform="translate(-78,-14) scale(1,1)"><g><path fill="none" stroke="none"/><text fill="#000000" stroke="none" font-family="Arial" font-size="13px" font-style="normal" font-weight="normal" text-decoration="none" x="397" y="226.5">+insertResponseCount(Dataset&lt;Row&gt; ds)()</text></g></g><g transform="translate(-78,-14) scale(1,1)"><g><path fill="none" stroke="none"/><text fill="#000000" stroke="none" font-family="Arial" font-size="13px" font-style="normal" font-weight="normal" text-decoration="none" x="397" y="241.5">+insertIssuesPerYearCount(Dataset&lt;Row&gt; ds)()</text></g></g><g transform="translate(-78,-14) scale(1,1)"><path fill="none" stroke="#000000" d="M 222 109 L 391 93" stroke-miterlimit="10"/></g><g transform="translate(-78,-14) scale(1,1)"><path fill="none" stroke="#000000" d="M 381.27932670014167 98.1486416264313 L 391 93 L 380.48580658402227 89.76708539992005" stroke-miterlimit="10"/></g><g transform="translate(-78,-14) scale(1,1)"><path fill="none" stroke="#000000" d="M 222 130 L 391 164" stroke-miterlimit="10"/></g><g transform="translate(-78,-14) scale(1,1)"><path fill="none" stroke="#000000" d="M 380.2067014894309 166.12242956579152 L 391 164 L 381.8672010932439 157.8687697703679" stroke-miterlimit="10"/></g></g></svg>