<svg version="1.1" xmlns="http://www.w3.org/2000/svg" xmlns:xlink="http://www.w3.org/1999/xlink" width="1133" height="528"><defs/><g><g transform="translate(-62,-102) scale(1,1)"><rect fill="#C0C0C0" stroke="none" x="233" y="351" width="209" height="44" opacity="0.2"/></g><g transform="translate(-62,-102) scale(1,1)"><rect fill="#ffffff" stroke="none" x="226" y="344" width="209" height="44"/></g><g transform="translate(-62,-102) scale(1,1)"><path fill="none" stroke="#000000" d="M 226 344 L 435 344 L 435 388 L 226 388 L 226 344 Z Z" stroke-miterlimit="10"/></g><g transform="translate(-62,-102) scale(1,1)"><rect fill="#ffffff" stroke="none" x="216" y="351" width="20" height="10"/></g><g transform="translate(-62,-102) scale(1,1)"><path fill="none" stroke="#000000" d="M 216 351 L 236 351 L 236 361 L 216 361 L 216 351 Z Z" stroke-miterlimit="10"/></g><g transform="translate(-62,-102) scale(1,1)"><rect fill="#ffffff" stroke="none" x="216" y="371" width="20" height="10"/></g><g transform="translate(-62,-102) scale(1,1)"><path fill="none" stroke="#000000" d="M 216 371 L 236 371 L 236 381 L 216 381 L 216 371 Z Z" stroke-miterlimit="10"/></g><g transform="translate(-62,-102) scale(1,1)"><g><path fill="none" stroke="none"/><text fill="#000000" stroke="none" font-family="Arial" font-size="13px" font-style="normal" font-weight="normal" text-decoration="none" x="321.5" y="361.5">«jar»</text></g></g><g transform="translate(-62,-102) scale(1,1)"><g><path fill="none" stroke="none"/><text fill="#000000" stroke="none" font-family="Arial" font-size="13px" font-style="normal" font-weight="bold" text-decoration="none" x="246" y="376.5">extract_load_transform_0_1.jar</text></g></g><g transform="translate(-62,-102) scale(1,1)"><rect fill="#C0C0C0" stroke="none" x="89" y="143" width="98" height="44" opacity="0.2"/></g><g transform="translate(-62,-102) scale(1,1)"><rect fill="#ffffff" stroke="none" x="82" y="136" width="98" height="44"/></g><g transform="translate(-62,-102) scale(1,1)"><path fill="none" stroke="#000000" d="M 82 136 L 180 136 L 180 180 L 82 180 L 82 136 Z Z" stroke-miterlimit="10"/></g><g transform="translate(-62,-102) scale(1,1)"><rect fill="#ffffff" stroke="none" x="72" y="143" width="20" height="10"/></g><g transform="translate(-62,-102) scale(1,1)"><path fill="none" stroke="#000000" d="M 72 143 L 92 143 L 92 153 L 72 153 L 72 143 Z Z" stroke-miterlimit="10"/></g><g transform="translate(-62,-102) scale(1,1)"><rect fill="#ffffff" stroke="none" x="72" y="163" width="20" height="10"/></g><g transform="translate(-62,-102) scale(1,1)"><path fill="none" stroke="#000000" d="M 72 163 L 92 163 L 92 173 L 72 173 L 72 163 Z Z" stroke-miterlimit="10"/></g><g transform="translate(-62,-102) scale(1,1)"><g><path fill="none" stroke="none"/><text fill="#000000" stroke="none" font-family="Arial" font-size="13px" font-style="normal" font-weight="normal" text-decoration="none" x="122" y="153.5">«jar»</text></g></g><g transform="translate(-62,-102) scale(1,1)"><g><path fill="none" stroke="none"/><text fill="#000000" stroke="none" font-family="Arial" font-size="13px" font-style="normal" font-weight="bold" text-decoration="none" x="102" y="168.5">dom4j-1.6.1</text></g></g><g transform="translate(-62,-102) scale(1,1)"><rect fill="#C0C0C0" stroke="none" x="97" y="239" width="98" height="44" opacity="0.2"/></g><g transform="translate(-62,-102) scale(1,1)"><rect fill="#ffffff" stroke="none" x="90" y="232" width="98" height="44"/></g><g transform="translate(-62,-102) scale(1,1)"><path fill="none" stroke="#000000" d="M 90 232 L 188 232 L 188 276 L 90 276 L 90 232 Z Z" stroke-miterlimit="10"/></g><g transform="translate(-62,-102) scale(1,1)"><rect fill="#ffffff" stroke="none" x="80" y="239" width="20" height="10"/></g><g transform="translate(-62,-102) scale(1,1)"><path fill="none" stroke="#000000" d="M 80 239 L 100 239 L 100 249 L 80 249 L 80 239 Z Z" stroke-miterlimit="10"/></g><g transform="translate(-62,-102) scale(1,1)"><rect fill="#ffffff" stroke="none" x="80" y="259" width="20" height="10"/></g><g transform="translate(-62,-102) scale(1,1)"><path fill="none" stroke="#000000" d="M 80 259 L 100 259 L 100 269 L 80 269 L 80 259 Z Z" stroke-miterlimit="10"/></g><g transform="translate(-62,-102) scale(1,1)"><g><path fill="none" stroke="none"/><text fill="#000000" stroke="none" font-family="Arial" font-size="13px" font-style="normal" font-weight="normal" text-decoration="none" x="130" y="249.5">«jar»</text></g></g><g transform="translate(-62,-102) scale(1,1)"><g><path fill="none" stroke="none"/><text fill="#000000" stroke="none" font-family="Arial" font-size="13px" font-style="normal" font-weight="bold" text-decoration="none" x="110.5" y="264.5">log4j-1.2.16</text></g></g><g transform="translate(-62,-102) scale(1,1)"><rect fill="#C0C0C0" stroke="none" x="489" y="231" width="216" height="44" opacity="0.2"/></g><g transform="translate(-62,-102) scale(1,1)"><rect fill="#ffffff" stroke="none" x="482" y="224" width="216" height="44"/></g><g transform="translate(-62,-102) scale(1,1)"><path fill="none" stroke="#000000" d="M 482 224 L 698 224 L 698 268 L 482 268 L 482 224 Z Z" stroke-miterlimit="10"/></g><g transform="translate(-62,-102) scale(1,1)"><rect fill="#ffffff" stroke="none" x="472" y="231" width="20" height="10"/></g><g transform="translate(-62,-102) scale(1,1)"><path fill="none" stroke="#000000" d="M 472 231 L 492 231 L 492 241 L 472 241 L 472 231 Z Z" stroke-miterlimit="10"/></g><g transform="translate(-62,-102) scale(1,1)"><rect fill="#ffffff" stroke="none" x="472" y="251" width="20" height="10"/></g><g transform="translate(-62,-102) scale(1,1)"><path fill="none" stroke="#000000" d="M 472 251 L 492 251 L 492 261 L 472 261 L 472 251 Z Z" stroke-miterlimit="10"/></g><g transform="translate(-62,-102) scale(1,1)"><g><path fill="none" stroke="none"/><text fill="#000000" stroke="none" font-family="Arial" font-size="13px" font-style="normal" font-weight="normal" text-decoration="none" x="581" y="241.5">«jar»</text></g></g><g transform="translate(-62,-102) scale(1,1)"><g><path fill="none" stroke="none"/><text fill="#000000" stroke="none" font-family="Arial" font-size="13px" font-style="normal" font-weight="bold" text-decoration="none" x="502.5" y="256.5">mysql-connector-java-5.1.30-bin</text></g></g><g transform="translate(-62,-102) scale(1,1)"><rect fill="#C0C0C0" stroke="none" x="489" y="135" width="98" height="44" opacity="0.2"/></g><g transform="translate(-62,-102) scale(1,1)"><rect fill="#ffffff" stroke="none" x="482" y="128" width="98" height="44"/></g><g transform="translate(-62,-102) scale(1,1)"><path fill="none" stroke="#000000" d="M 482 128 L 580 128 L 580 172 L 482 172 L 482 128 Z Z" stroke-miterlimit="10"/></g><g transform="translate(-62,-102) scale(1,1)"><rect fill="#ffffff" stroke="none" x="472" y="135" width="20" height="10"/></g><g transform="translate(-62,-102) scale(1,1)"><path fill="none" stroke="#000000" d="M 472 135 L 492 135 L 492 145 L 472 145 L 472 135 Z Z" stroke-miterlimit="10"/></g><g transform="translate(-62,-102) scale(1,1)"><rect fill="#ffffff" stroke="none" x="472" y="155" width="20" height="10"/></g><g transform="translate(-62,-102) scale(1,1)"><path fill="none" stroke="#000000" d="M 472 155 L 492 155 L 492 165 L 472 165 L 472 155 Z Z" stroke-miterlimit="10"/></g><g transform="translate(-62,-102) scale(1,1)"><g><path fill="none" stroke="none"/><text fill="#000000" stroke="none" font-family="Arial" font-size="13px" font-style="normal" font-weight="normal" text-decoration="none" x="522" y="145.5">«jar»</text></g></g><g transform="translate(-62,-102) scale(1,1)"><g><path fill="none" stroke="none"/><text fill="#000000" stroke="none" font-family="Arial" font-size="13px" font-style="normal" font-weight="bold" text-decoration="none" x="513" y="160.5">routines</text></g></g><g transform="translate(-62,-102) scale(1,1)"><path fill="none" stroke="#000000" d="M 272 344 L 272 248 L 188 248" stroke-miterlimit="10" stroke-dasharray="3"/></g><g transform="translate(-62,-102) scale(1,1)"><path fill="none" stroke="#000000" d="M 198.16267485762415 243.790482243984 L 188 248 L 198.16267485762415 252.209517756016" stroke-miterlimit="10"/></g><g transform="translate(-62,-102) scale(1,1)"><path fill="none" stroke="#000000" d="M 304 344 L 304 152 L 180 152" stroke-miterlimit="10" stroke-dasharray="3"/></g><g transform="translate(-62,-102) scale(1,1)"><path fill="none" stroke="#000000" d="M 190.16267485762415 147.790482243984 L 180 152 L 190.16267485762415 156.209517756016" stroke-miterlimit="10"/></g><g transform="translate(-62,-102) scale(1,1)"><path fill="none" stroke="#000000" d="M 384 344 L 384 144 L 472 144" stroke-miterlimit="10" stroke-dasharray="3"/></g><g transform="translate(-62,-102) scale(1,1)"><path fill="none" stroke="#000000" d="M 461.83732514237585 148.209517756016 L 472 144 L 461.83732514237585 139.790482243984" stroke-miterlimit="10"/></g><g transform="translate(-62,-102) scale(1,1)"><path fill="none" stroke="#000000" d="M 416 344 L 416 248 L 472 248" stroke-miterlimit="10" stroke-dasharray="3"/></g><g transform="translate(-62,-102) scale(1,1)"><path fill="none" stroke="#000000" d="M 461.83732514237585 252.209517756016 L 472 248 L 461.83732514237585 243.790482243984" stroke-miterlimit="10"/></g><g transform="translate(-62,-102) scale(1,1)"><rect fill="#C0C0C0" stroke="none" x="521" y="303" width="98" height="44" opacity="0.2"/></g><g transform="translate(-62,-102) scale(1,1)"><rect fill="#ffffff" stroke="none" x="514" y="296" width="98" height="44"/></g><g transform="translate(-62,-102) scale(1,1)"><path fill="none" stroke="#000000" d="M 514 296 L 612 296 L 612 340 L 514 340 L 514 296 Z Z" stroke-miterlimit="10"/></g><g transform="translate(-62,-102) scale(1,1)"><rect fill="#ffffff" stroke="none" x="504" y="303" width="20" height="10"/></g><g transform="translate(-62,-102) scale(1,1)"><path fill="none" stroke="#000000" d="M 504 303 L 524 303 L 524 313 L 504 313 L 504 303 Z Z" stroke-miterlimit="10"/></g><g transform="translate(-62,-102) scale(1,1)"><rect fill="#ffffff" stroke="none" x="504" y="323" width="20" height="10"/></g><g transform="translate(-62,-102) scale(1,1)"><path fill="none" stroke="#000000" d="M 504 323 L 524 323 L 524 333 L 504 333 L 504 323 Z Z" stroke-miterlimit="10"/></g><g transform="translate(-62,-102) scale(1,1)"><g><path fill="none" stroke="none"/><text fill="#000000" stroke="none" font-family="Arial" font-size="13px" font-style="normal" font-weight="bold" text-decoration="none" x="539" y="315.5">JRE-1.8.0</text></g></g><g transform="translate(-62,-102) scale(1,1)"><path fill="none" stroke="#000000" d="M 436 343 L 503 329" stroke-miterlimit="10" stroke-dasharray="3"/></g><g transform="translate(-62,-102) scale(1,1)"><path fill="none" stroke="#000000" d="M 493.91318212382475 335.1991725968246 L 503 329 L 492.1911724793888 326.95812644130984" stroke-miterlimit="10"/></g><g transform="translate(-62,-102) scale(1,1)"><rect fill="#C0C0C0" stroke="none" x="217" y="455" width="236" height="44" opacity="0.2"/></g><g transform="translate(-62,-102) scale(1,1)"><rect fill="#ffffff" stroke="none" x="210" y="448" width="236" height="44"/></g><g transform="translate(-62,-102) scale(1,1)"><path fill="none" stroke="#000000" d="M 210 448 L 446 448 L 446 492 L 210 492 L 210 448 Z Z" stroke-miterlimit="10"/></g><g transform="translate(-62,-102) scale(1,1)"><rect fill="#ffffff" stroke="none" x="200" y="455" width="20" height="10"/></g><g transform="translate(-62,-102) scale(1,1)"><path fill="none" stroke="#000000" d="M 200 455 L 220 455 L 220 465 L 200 465 L 200 455 Z Z" stroke-miterlimit="10"/></g><g transform="translate(-62,-102) scale(1,1)"><rect fill="#ffffff" stroke="none" x="200" y="475" width="20" height="10"/></g><g transform="translate(-62,-102) scale(1,1)"><path fill="none" stroke="#000000" d="M 200 475 L 220 475 L 220 485 L 200 485 L 200 475 Z Z" stroke-miterlimit="10"/></g><g transform="translate(-62,-102) scale(1,1)"><g><path fill="none" stroke="none"/><text fill="#000000" stroke="none" font-family="Arial" font-size="13px" font-style="normal" font-weight="normal" text-decoration="none" x="294.5" y="465.5">«shell script»</text></g></g><g transform="translate(-62,-102) scale(1,1)"><g><path fill="none" stroke="none"/><text fill="#000000" stroke="none" font-family="Arial" font-size="13px" font-style="normal" font-weight="bold" text-decoration="none" x="231" y="480.5">extract_load_transform_0_1_run.sh</text></g></g><g transform="translate(-62,-102) scale(1,1)"><path fill="none" stroke="#000000" d="M 323 447 L 325 389" stroke-miterlimit="10" stroke-dasharray="3"/></g><g transform="translate(-62,-102) scale(1,1)"><path fill="none" stroke="#000000" d="M 328.8567883955344 399.30170778424974 L 325 389 L 320.44275379603874 399.01156866012917" stroke-miterlimit="10"/></g><g transform="translate(-62,-102) scale(1,1)"><rect fill="#C0C0C0" stroke="none" x="1017" y="367" width="98" height="44" opacity="0.2"/></g><g transform="translate(-62,-102) scale(1,1)"><rect fill="#ffffff" stroke="none" x="1010" y="360" width="98" height="44"/></g><g transform="translate(-62,-102) scale(1,1)"><path fill="none" stroke="#000000" d="M 1010 360 L 1108 360 L 1108 404 L 1010 404 L 1010 360 Z Z" stroke-miterlimit="10"/></g><g transform="translate(-62,-102) scale(1,1)"><rect fill="#ffffff" stroke="none" x="1000" y="367" width="20" height="10"/></g><g transform="translate(-62,-102) scale(1,1)"><path fill="none" stroke="#000000" d="M 1000 367 L 1020 367 L 1020 377 L 1000 377 L 1000 367 Z Z" stroke-miterlimit="10"/></g><g transform="translate(-62,-102) scale(1,1)"><rect fill="#ffffff" stroke="none" x="1000" y="387" width="20" height="10"/></g><g transform="translate(-62,-102) scale(1,1)"><path fill="none" stroke="#000000" d="M 1000 387 L 1020 387 L 1020 397 L 1000 397 L 1000 387 Z Z" stroke-miterlimit="10"/></g><g transform="translate(-62,-102) scale(1,1)"><g><path fill="none" stroke="none"/><text fill="#000000" stroke="none" font-family="Arial" font-size="13px" font-style="normal" font-weight="normal" text-decoration="none" x="1039.5" y="377.5">«mysql»</text></g></g><g transform="translate(-62,-102) scale(1,1)"><g><path fill="none" stroke="none"/><text fill="#000000" stroke="none" font-family="Arial" font-size="13px" font-style="normal" font-weight="bold" text-decoration="none" x="1030" y="392.5">Mysql.5.6.7</text></g></g><g transform="translate(-62,-102) scale(1,1)"><rect fill="#C0C0C0" stroke="none" x="761" y="351" width="130" height="44" opacity="0.2"/></g><g transform="translate(-62,-102) scale(1,1)"><rect fill="#ffffff" stroke="none" x="754" y="344" width="130" height="44"/></g><g transform="translate(-62,-102) scale(1,1)"><path fill="none" stroke="#000000" d="M 754 344 L 884 344 L 884 388 L 754 388 L 754 344 Z Z" stroke-miterlimit="10"/></g><g transform="translate(-62,-102) scale(1,1)"><rect fill="#ffffff" stroke="none" x="744" y="351" width="20" height="10"/></g><g transform="translate(-62,-102) scale(1,1)"><path fill="none" stroke="#000000" d="M 744 351 L 764 351 L 764 361 L 744 361 L 744 351 Z Z" stroke-miterlimit="10"/></g><g transform="translate(-62,-102) scale(1,1)"><rect fill="#ffffff" stroke="none" x="744" y="371" width="20" height="10"/></g><g transform="translate(-62,-102) scale(1,1)"><path fill="none" stroke="#000000" d="M 744 371 L 764 371 L 764 381 L 744 381 L 744 371 Z Z" stroke-miterlimit="10"/></g><g transform="translate(-62,-102) scale(1,1)"><g><path fill="none" stroke="none"/><text fill="#000000" stroke="none" font-family="Arial" font-size="13px" font-style="normal" font-weight="normal" text-decoration="none" x="782" y="361.5">«MySql 5.6.7»</text></g></g><g transform="translate(-62,-102) scale(1,1)"><g><path fill="none" stroke="none"/><text fill="#000000" stroke="none" font-family="Arial" font-size="13px" font-style="normal" font-weight="bold" text-decoration="none" x="773" y="376.5">esibank_proto_db</text></g></g><g transform="translate(-62,-102) scale(1,1)"><rect fill="#C0C0C0" stroke="none" x="761" y="399" width="146" height="44" opacity="0.2"/></g><g transform="translate(-62,-102) scale(1,1)"><rect fill="#ffffff" stroke="none" x="754" y="392" width="146" height="44"/></g><g transform="translate(-62,-102) scale(1,1)"><path fill="none" stroke="#000000" d="M 754 392 L 900 392 L 900 436 L 754 436 L 754 392 Z Z" stroke-miterlimit="10"/></g><g transform="translate(-62,-102) scale(1,1)"><rect fill="#ffffff" stroke="none" x="744" y="399" width="20" height="10"/></g><g transform="translate(-62,-102) scale(1,1)"><path fill="none" stroke="#000000" d="M 744 399 L 764 399 L 764 409 L 744 409 L 744 399 Z Z" stroke-miterlimit="10"/></g><g transform="translate(-62,-102) scale(1,1)"><rect fill="#ffffff" stroke="none" x="744" y="419" width="20" height="10"/></g><g transform="translate(-62,-102) scale(1,1)"><path fill="none" stroke="#000000" d="M 744 419 L 764 419 L 764 429 L 744 429 L 744 419 Z Z" stroke-miterlimit="10"/></g><g transform="translate(-62,-102) scale(1,1)"><g><path fill="none" stroke="none"/><text fill="#000000" stroke="none" font-family="Arial" font-size="13px" font-style="normal" font-weight="normal" text-decoration="none" x="792" y="409.5">«MySql5.6.7»</text></g></g><g transform="translate(-62,-102) scale(1,1)"><g><path fill="none" stroke="none"/><text fill="#000000" stroke="none" font-family="Arial" font-size="13px" font-style="normal" font-weight="bold" text-decoration="none" x="773.5" y="424.5">esibank_decisionnel</text></g></g><g transform="translate(-62,-102) scale(1,1)"><path fill="none" stroke="#000000" d="M 436 366 L 743 366" stroke-miterlimit="10" stroke-dasharray="3"/></g><g transform="translate(-62,-102) scale(1,1)"><path fill="none" stroke="#000000" d="M 732.8373251423759 370.209517756016 L 743 366 L 732.8373251423758 361.790482243984" stroke-miterlimit="10"/></g><g transform="translate(-62,-102) scale(1,1)"><path fill="none" stroke="#000000" d="M 436 377 L 743 406" stroke-miterlimit="10" stroke-dasharray="3"/></g><g transform="translate(-62,-102) scale(1,1)"><path fill="none" stroke="#000000" d="M 732.486486168556 409.2351239413714 L 743 406 L 733.2782449987646 400.85340115261" stroke-miterlimit="10"/></g><g transform="translate(-62,-102) scale(1,1)"><rect fill="#C0C0C0" stroke="none" x="1017" y="423" width="98" height="44" opacity="0.2"/></g><g transform="translate(-62,-102) scale(1,1)"><rect fill="#ffffff" stroke="none" x="1010" y="416" width="98" height="44"/></g><g transform="translate(-62,-102) scale(1,1)"><path fill="none" stroke="#000000" d="M 1010 416 L 1108 416 L 1108 460 L 1010 460 L 1010 416 Z Z" stroke-miterlimit="10"/></g><g transform="translate(-62,-102) scale(1,1)"><rect fill="#ffffff" stroke="none" x="1000" y="423" width="20" height="10"/></g><g transform="translate(-62,-102) scale(1,1)"><path fill="none" stroke="#000000" d="M 1000 423 L 1020 423 L 1020 433 L 1000 433 L 1000 423 Z Z" stroke-miterlimit="10"/></g><g transform="translate(-62,-102) scale(1,1)"><rect fill="#ffffff" stroke="none" x="1000" y="443" width="20" height="10"/></g><g transform="translate(-62,-102) scale(1,1)"><path fill="none" stroke="#000000" d="M 1000 443 L 1020 443 L 1020 453 L 1000 453 L 1000 443 Z Z" stroke-miterlimit="10"/></g><g transform="translate(-62,-102) scale(1,1)"><g><path fill="none" stroke="none"/><text fill="#000000" stroke="none" font-family="Arial" font-size="13px" font-style="normal" font-weight="bold" text-decoration="none" x="1038.5" y="435.5">QlikView</text></g></g><g transform="translate(-62,-102) scale(1,1)"><rect fill="#C0C0C0" stroke="none" x="745" y="519" width="115" height="44" opacity="0.2"/></g><g transform="translate(-62,-102) scale(1,1)"><rect fill="#ffffff" stroke="none" x="738" y="512" width="115" height="44"/></g><g transform="translate(-62,-102) scale(1,1)"><path fill="none" stroke="#000000" d="M 738 512 L 853 512 L 853 556 L 738 556 L 738 512 Z Z" stroke-miterlimit="10"/></g><g transform="translate(-62,-102) scale(1,1)"><rect fill="#ffffff" stroke="none" x="728" y="519" width="20" height="10"/></g><g transform="translate(-62,-102) scale(1,1)"><path fill="none" stroke="#000000" d="M 728 519 L 748 519 L 748 529 L 728 529 L 728 519 Z Z" stroke-miterlimit="10"/></g><g transform="translate(-62,-102) scale(1,1)"><rect fill="#ffffff" stroke="none" x="728" y="539" width="20" height="10"/></g><g transform="translate(-62,-102) scale(1,1)"><path fill="none" stroke="#000000" d="M 728 539 L 748 539 L 748 549 L 728 549 L 728 539 Z Z" stroke-miterlimit="10"/></g><g transform="translate(-62,-102) scale(1,1)"><g><path fill="none" stroke="none"/><text fill="#000000" stroke="none" font-family="Arial" font-size="13px" font-style="normal" font-weight="normal" text-decoration="none" x="753" y="529.5">«QlikView Item»</text></g></g><g transform="translate(-62,-102) scale(1,1)"><g><path fill="none" stroke="none"/><text fill="#000000" stroke="none" font-family="Arial" font-size="13px" font-style="normal" font-weight="bold" text-decoration="none" x="756" y="544.5">Dashboard.qvw</text></g></g><g transform="translate(-62,-102) scale(1,1)"><path fill="none" stroke="#000000" d="M 853 511 L 999 458" stroke-miterlimit="10" stroke-dasharray="3"/></g><g transform="translate(-62,-102) scale(1,1)"><path fill="none" stroke="#000000" d="M 990.8836733096048 465.4246374359142 L 999 458 L 988.0108788801098 457.5109018376826" stroke-miterlimit="10"/></g><g transform="translate(-62,-102) scale(1,1)"><path fill="none" stroke="#000000" d="M 796 511 L 816 437" stroke-miterlimit="10" stroke-dasharray="3"/></g><g transform="translate(-62,-102) scale(1,1)"><path fill="none" stroke="#000000" d="M 817.4121807540146 447.9089754568424 L 816 437 L 809.2847520660939 445.7123731087558" stroke-miterlimit="10"/></g><g transform="translate(-62,-102) scale(1,1)"><path fill="none" stroke="#000000" d="M 885 371 L 999 378" stroke-miterlimit="10" stroke-dasharray="3"/></g><g transform="translate(-62,-102) scale(1,1)"><path fill="none" stroke="#000000" d="M 988.5984365134049 381.5787535587591 L 999 378 L 989.1144230140922 373.17554483328024" stroke-miterlimit="10"/></g><g transform="translate(-62,-102) scale(1,1)"><path fill="none" stroke="#000000" d="M 901 403 L 999 390" stroke-miterlimit="10" stroke-dasharray="3"/></g><g transform="translate(-62,-102) scale(1,1)"><path fill="none" stroke="#000000" d="M 989.4791338048582 395.5093653803507 L 999 390 L 988.3720213301651 387.1634405711258" stroke-miterlimit="10"/></g><g transform="translate(-62,-102) scale(1,1)"><rect fill="#C0C0C0" stroke="none" x="289" y="583" width="98" height="44" opacity="0.2"/></g><g transform="translate(-62,-102) scale(1,1)"><rect fill="#ffffff" stroke="none" x="282" y="576" width="98" height="44"/></g><g transform="translate(-62,-102) scale(1,1)"><path fill="none" stroke="#000000" d="M 282 576 L 380 576 L 380 620 L 282 620 L 282 576 Z Z" stroke-miterlimit="10"/></g><g transform="translate(-62,-102) scale(1,1)"><rect fill="#ffffff" stroke="none" x="272" y="583" width="20" height="10"/></g><g transform="translate(-62,-102) scale(1,1)"><path fill="none" stroke="#000000" d="M 272 583 L 292 583 L 292 593 L 272 593 L 272 583 Z Z" stroke-miterlimit="10"/></g><g transform="translate(-62,-102) scale(1,1)"><rect fill="#ffffff" stroke="none" x="272" y="603" width="20" height="10"/></g><g transform="translate(-62,-102) scale(1,1)"><path fill="none" stroke="#000000" d="M 272 603 L 292 603 L 292 613 L 272 613 L 272 603 Z Z" stroke-miterlimit="10"/></g><g transform="translate(-62,-102) scale(1,1)"><g><path fill="none" stroke="none"/><text fill="#000000" stroke="none" font-family="Arial" font-size="13px" font-style="normal" font-weight="normal" text-decoration="none" x="304.5" y="593.5">«CronTab»</text></g></g><g transform="translate(-62,-102) scale(1,1)"><g><path fill="none" stroke="none"/><text fill="#000000" stroke="none" font-family="Arial" font-size="13px" font-style="normal" font-weight="bold" text-decoration="none" x="308" y="608.5">scheduler</text></g></g><g transform="translate(-62,-102) scale(1,1)"><path fill="none" stroke="#000000" d="M 325 575 L 324 493" stroke-miterlimit="10" stroke-dasharray="3"/></g><g transform="translate(-62,-102) scale(1,1)"><path fill="none" stroke="#000000" d="M 328.3331306134767 503.1105874748479 L 324 493 L 319.9147210753117 503.2132510058011" stroke-miterlimit="10"/></g><g transform="translate(-62,-102) scale(1,1)"><rect fill="#C0C0C0" stroke="none" x="753" y="295" width="214" height="44" opacity="0.2"/></g><g transform="translate(-62,-102) scale(1,1)"><rect fill="#ffffff" stroke="none" x="746" y="288" width="214" height="44"/></g><g transform="translate(-62,-102) scale(1,1)"><path fill="none" stroke="#000000" d="M 746 288 L 960 288 L 960 332 L 746 332 L 746 288 Z Z" stroke-miterlimit="10"/></g><g transform="translate(-62,-102) scale(1,1)"><rect fill="#ffffff" stroke="none" x="736" y="295" width="20" height="10"/></g><g transform="translate(-62,-102) scale(1,1)"><path fill="none" stroke="#000000" d="M 736 295 L 756 295 L 756 305 L 736 305 L 736 295 Z Z" stroke-miterlimit="10"/></g><g transform="translate(-62,-102) scale(1,1)"><rect fill="#ffffff" stroke="none" x="736" y="315" width="20" height="10"/></g><g transform="translate(-62,-102) scale(1,1)"><path fill="none" stroke="#000000" d="M 736 315 L 756 315 L 756 325 L 736 325 L 736 315 Z Z" stroke-miterlimit="10"/></g><g transform="translate(-62,-102) scale(1,1)"><g><path fill="none" stroke="none"/><text fill="#000000" stroke="none" font-family="Arial" font-size="13px" font-style="normal" font-weight="normal" text-decoration="none" x="844" y="305.5">«jar»</text></g></g><g transform="translate(-62,-102) scale(1,1)"><g><path fill="none" stroke="none"/><text fill="#000000" stroke="none" font-family="Arial" font-size="13px" font-style="normal" font-weight="bold" text-decoration="none" x="768" y="320.5">bigdata_complaintsAnalysis.jar</text></g></g><g transform="translate(-62,-102) scale(1,1)"><path fill="none" stroke="#000000" d="M 800 288 L 800 248 L 698 248" stroke-miterlimit="10" stroke-dasharray="3"/></g><g transform="translate(-62,-102) scale(1,1)"><path fill="none" stroke="#000000" d="M 708.1626748576241 243.790482243984 L 698 248 L 708.1626748576241 252.209517756016" stroke-miterlimit="10"/></g><g transform="translate(-62,-102) scale(1,1)"><rect fill="#C0C0C0" stroke="none" x="993" y="223" width="199" height="44" opacity="0.2"/></g><g transform="translate(-62,-102) scale(1,1)"><rect fill="#ffffff" stroke="none" x="986" y="216" width="199" height="44"/></g><g transform="translate(-62,-102) scale(1,1)"><path fill="none" stroke="#000000" d="M 986 216 L 1185 216 L 1185 260 L 986 260 L 986 216 Z Z" stroke-miterlimit="10"/></g><g transform="translate(-62,-102) scale(1,1)"><rect fill="#ffffff" stroke="none" x="976" y="223" width="20" height="10"/></g><g transform="translate(-62,-102) scale(1,1)"><path fill="none" stroke="#000000" d="M 976 223 L 996 223 L 996 233 L 976 233 L 976 223 Z Z" stroke-miterlimit="10"/></g><g transform="translate(-62,-102) scale(1,1)"><rect fill="#ffffff" stroke="none" x="976" y="243" width="20" height="10"/></g><g transform="translate(-62,-102) scale(1,1)"><path fill="none" stroke="#000000" d="M 976 243 L 996 243 L 996 253 L 976 253 L 976 243 Z Z" stroke-miterlimit="10"/></g><g transform="translate(-62,-102) scale(1,1)"><g><path fill="none" stroke="none"/><text fill="#000000" stroke="none" font-family="Arial" font-size="13px" font-style="normal" font-weight="normal" text-decoration="none" x="1076.5" y="233.5">«jar»</text></g></g><g transform="translate(-62,-102) scale(1,1)"><g><path fill="none" stroke="none"/><text fill="#000000" stroke="none" font-family="Arial" font-size="13px" font-style="normal" font-weight="bold" text-decoration="none" x="1006.5" y="248.5">mongo-spark-connector_2.11</text></g></g><g transform="translate(-62,-102) scale(1,1)"><path fill="none" stroke="#000000" d="M 896 288 L 896 248 L 976 248" stroke-miterlimit="10" stroke-dasharray="3"/></g><g transform="translate(-62,-102) scale(1,1)"><path fill="none" stroke="#000000" d="M 965.8373251423759 252.209517756016 L 976 248 L 965.8373251423758 243.790482243984" stroke-miterlimit="10"/></g><g transform="translate(-62,-102) scale(1,1)"><rect fill="#C0C0C0" stroke="none" x="1001" y="159" width="108" height="44" opacity="0.2"/></g><g transform="translate(-62,-102) scale(1,1)"><rect fill="#ffffff" stroke="none" x="994" y="152" width="108" height="44"/></g><g transform="translate(-62,-102) scale(1,1)"><path fill="none" stroke="#000000" d="M 994 152 L 1102 152 L 1102 196 L 994 196 L 994 152 Z Z" stroke-miterlimit="10"/></g><g transform="translate(-62,-102) scale(1,1)"><rect fill="#ffffff" stroke="none" x="984" y="159" width="20" height="10"/></g><g transform="translate(-62,-102) scale(1,1)"><path fill="none" stroke="#000000" d="M 984 159 L 1004 159 L 1004 169 L 984 169 L 984 159 Z Z" stroke-miterlimit="10"/></g><g transform="translate(-62,-102) scale(1,1)"><rect fill="#ffffff" stroke="none" x="984" y="179" width="20" height="10"/></g><g transform="translate(-62,-102) scale(1,1)"><path fill="none" stroke="#000000" d="M 984 179 L 1004 179 L 1004 189 L 984 189 L 984 179 Z Z" stroke-miterlimit="10"/></g><g transform="translate(-62,-102) scale(1,1)"><g><path fill="none" stroke="none"/><text fill="#000000" stroke="none" font-family="Arial" font-size="13px" font-style="normal" font-weight="normal" text-decoration="none" x="1039" y="169.5">«jar»</text></g></g><g transform="translate(-62,-102) scale(1,1)"><g><path fill="none" stroke="none"/><text fill="#000000" stroke="none" font-family="Arial" font-size="13px" font-style="normal" font-weight="bold" text-decoration="none" x="1010.5" y="184.5">spark-sql_2.11</text></g></g><g transform="translate(-62,-102) scale(1,1)"><rect fill="#C0C0C0" stroke="none" x="673" y="175" width="116" height="44" opacity="0.2"/></g><g transform="translate(-62,-102) scale(1,1)"><rect fill="#ffffff" stroke="none" x="666" y="168" width="116" height="44"/></g><g transform="translate(-62,-102) scale(1,1)"><path fill="none" stroke="#000000" d="M 666 168 L 782 168 L 782 212 L 666 212 L 666 168 Z Z" stroke-miterlimit="10"/></g><g transform="translate(-62,-102) scale(1,1)"><rect fill="#ffffff" stroke="none" x="656" y="175" width="20" height="10"/></g><g transform="translate(-62,-102) scale(1,1)"><path fill="none" stroke="#000000" d="M 656 175 L 676 175 L 676 185 L 656 185 L 656 175 Z Z" stroke-miterlimit="10"/></g><g transform="translate(-62,-102) scale(1,1)"><rect fill="#ffffff" stroke="none" x="656" y="195" width="20" height="10"/></g><g transform="translate(-62,-102) scale(1,1)"><path fill="none" stroke="#000000" d="M 656 195 L 676 195 L 676 205 L 656 205 L 656 195 Z Z" stroke-miterlimit="10"/></g><g transform="translate(-62,-102) scale(1,1)"><g><path fill="none" stroke="none"/><text fill="#000000" stroke="none" font-family="Arial" font-size="13px" font-style="normal" font-weight="normal" text-decoration="none" x="715" y="185.5">«jar»</text></g></g><g transform="translate(-62,-102) scale(1,1)"><g><path fill="none" stroke="none"/><text fill="#000000" stroke="none" font-family="Arial" font-size="13px" font-style="normal" font-weight="bold" text-decoration="none" x="682.5" y="200.5">spark-core_2.11</text></g></g><g transform="translate(-62,-102) scale(1,1)"><rect fill="#C0C0C0" stroke="none" x="785" y="119" width="140" height="44" opacity="0.2"/></g><g transform="translate(-62,-102) scale(1,1)"><rect fill="#ffffff" stroke="none" x="778" y="112" width="140" height="44"/></g><g transform="translate(-62,-102) scale(1,1)"><path fill="none" stroke="#000000" d="M 778 112 L 918 112 L 918 156 L 778 156 L 778 112 Z Z" stroke-miterlimit="10"/></g><g transform="translate(-62,-102) scale(1,1)"><rect fill="#ffffff" stroke="none" x="768" y="119" width="20" height="10"/></g><g transform="translate(-62,-102) scale(1,1)"><path fill="none" stroke="#000000" d="M 768 119 L 788 119 L 788 129 L 768 129 L 768 119 Z Z" stroke-miterlimit="10"/></g><g transform="translate(-62,-102) scale(1,1)"><rect fill="#ffffff" stroke="none" x="768" y="139" width="20" height="10"/></g><g transform="translate(-62,-102) scale(1,1)"><path fill="none" stroke="#000000" d="M 768 139 L 788 139 L 788 149 L 768 149 L 768 139 Z Z" stroke-miterlimit="10"/></g><g transform="translate(-62,-102) scale(1,1)"><g><path fill="none" stroke="none"/><text fill="#000000" stroke="none" font-family="Arial" font-size="13px" font-style="normal" font-weight="normal" text-decoration="none" x="839" y="129.5">«jar»</text></g></g><g transform="translate(-62,-102) scale(1,1)"><g><path fill="none" stroke="none"/><text fill="#000000" stroke="none" font-family="Arial" font-size="13px" font-style="normal" font-weight="bold" text-decoration="none" x="798" y="144.5">commons-compiler</text></g></g><g transform="translate(-62,-102) scale(1,1)"><path fill="none" stroke="#000000" d="M 847 287 L 844 157" stroke-miterlimit="10" stroke-dasharray="3"/></g><g transform="translate(-62,-102) scale(1,1)"><path fill="none" stroke="#000000" d="M 848.4428581698487 167.06285303890547 L 844 157 L 840.0260635178563 167.25708676164376" stroke-miterlimit="10"/></g><g transform="translate(-62,-102) scale(1,1)"><path fill="none" stroke="#000000" d="M 824 288 L 824 192 L 782 192" stroke-miterlimit="10" stroke-dasharray="3"/></g><g transform="translate(-62,-102) scale(1,1)"><path fill="none" stroke="#000000" d="M 792.1626748576241 187.790482243984 L 782 192 L 792.1626748576241 196.209517756016" stroke-miterlimit="10"/></g><g transform="translate(-62,-102) scale(1,1)"><path fill="none" stroke="#000000" d="M 872 288 L 872 176 L 984 176" stroke-miterlimit="10" stroke-dasharray="3"/></g><g transform="translate(-62,-102) scale(1,1)"><path fill="none" stroke="#000000" d="M 973.8373251423759 180.209517756016 L 984 176 L 973.8373251423758 171.790482243984" stroke-miterlimit="10"/></g><g transform="translate(-62,-102) scale(1,1)"><rect fill="#C0C0C0" stroke="none" x="1089" y="295" width="98" height="44" opacity="0.2"/></g><g transform="translate(-62,-102) scale(1,1)"><rect fill="#ffffff" stroke="none" x="1082" y="288" width="98" height="44"/></g><g transform="translate(-62,-102) scale(1,1)"><path fill="none" stroke="#000000" d="M 1082 288 L 1180 288 L 1180 332 L 1082 332 L 1082 288 Z Z" stroke-miterlimit="10"/></g><g transform="translate(-62,-102) scale(1,1)"><rect fill="#ffffff" stroke="none" x="1072" y="295" width="20" height="10"/></g><g transform="translate(-62,-102) scale(1,1)"><path fill="none" stroke="#000000" d="M 1072 295 L 1092 295 L 1092 305 L 1072 305 L 1072 295 Z Z" stroke-miterlimit="10"/></g><g transform="translate(-62,-102) scale(1,1)"><rect fill="#ffffff" stroke="none" x="1072" y="315" width="20" height="10"/></g><g transform="translate(-62,-102) scale(1,1)"><path fill="none" stroke="#000000" d="M 1072 315 L 1092 315 L 1092 325 L 1072 325 L 1072 315 Z Z" stroke-miterlimit="10"/></g><g transform="translate(-62,-102) scale(1,1)"><g><path fill="none" stroke="none"/><text fill="#000000" stroke="none" font-family="Arial" font-size="13px" font-style="normal" font-weight="normal" text-decoration="none" x="1104.5" y="305.5">«CronTab»</text></g></g><g transform="translate(-62,-102) scale(1,1)"><g><path fill="none" stroke="none"/><text fill="#000000" stroke="none" font-family="Arial" font-size="13px" font-style="normal" font-weight="bold" text-decoration="none" x="1108" y="320.5">scheduler</text></g></g><g transform="translate(-62,-102) scale(1,1)"><path fill="none" stroke="#000000" d="M 1071 310 L 961 310" stroke-miterlimit="10" stroke-dasharray="3"/></g><g transform="translate(-62,-102) scale(1,1)"><path fill="none" stroke="#000000" d="M 971.1626748576241 305.790482243984 L 961 310 L 971.1626748576241 314.209517756016" stroke-miterlimit="10"/></g><g transform="translate(-62,-102) scale(1,1)"><path fill="none" stroke="#000000" d="M 735 313 L 613 316" stroke-miterlimit="10" stroke-dasharray="3"/></g><g transform="translate(-62,-102) scale(1,1)"><path fill="none" stroke="#000000" d="M 623.0561222366856 311.5419280444526 L 613 316 L 623.2630851367863 319.9584193152161" stroke-miterlimit="10"/></g></g></svg>