<svg version="1.1" xmlns="http://www.w3.org/2000/svg" xmlns:xlink="http://www.w3.org/1999/xlink" width="772" height="532"><defs/><g><g transform="translate(-54,-134) scale(1,1)"><path fill="#C0C0C0" stroke="none" d="M 79 161 L 372 161 L 372 325 L 79 325" opacity="0.2"/></g><g transform="translate(-54,-134) scale(1,1)"><path fill="#C0C0C0" stroke="none" d="M 79 161 L 89 151 L 382 151 L 372 161" opacity="0.2"/></g><g transform="translate(-54,-134) scale(1,1)"><path fill="#C0C0C0" stroke="none" d="M 382 151 L 372 161 L 372 325 L 382 315" opacity="0.2"/></g><g transform="translate(-54,-134) scale(1,1)"><path fill="#ffffff" stroke="none" d="M 72 154 L 365 154 L 365 318 L 72 318"/></g><g transform="translate(-54,-134) scale(1,1)"><path fill="#ffffff" stroke="none" d="M 72 154 L 82 144 L 375 144 L 365 154"/></g><g transform="translate(-54,-134) scale(1,1)"><path fill="#ffffff" stroke="none" d="M 375 144 L 365 154 L 365 318 L 375 308"/></g><g transform="translate(-54,-134) scale(1,1)"><path fill="none" stroke="#000000" d="M 72 154 L 365 154 L 365 318 L 72 318 L 72 154" stroke-miterlimit="10"/></g><g transform="translate(-54,-134) scale(1,1)"><path fill="none" stroke="#000000" d="M 72 154 L 82 144 L 375 144 L 365 154 L 72 154" stroke-miterlimit="10"/></g><g transform="translate(-54,-134) scale(1,1)"><path fill="none" stroke="#000000" d="M 375 144 L 365 154 L 365 318 L 375 308 L 375 144" stroke-miterlimit="10"/></g><g transform="translate(-54,-134) scale(1,1)"><g><path fill="none" stroke="none"/><text fill="#000000" stroke="none" font-family="Arial" font-size="13px" font-style="normal" font-weight="normal" text-decoration="none" x="175.5" y="171.5">«Linux Server»</text></g></g><g transform="translate(-54,-134) scale(1,1)"><g><path fill="none" stroke="none"/><text fill="#000000" stroke="none" font-family="Arial" font-size="13px" font-style="normal" font-weight="bold" text-decoration="none" x="189" y="186.5">DB Server</text></g></g><g transform="translate(-54,-134) scale(1,1)"><path fill="#C0C0C0" stroke="none" d="M 495 170 L 812 170 L 812 335 L 495 335" opacity="0.2"/></g><g transform="translate(-54,-134) scale(1,1)"><path fill="#C0C0C0" stroke="none" d="M 495 170 L 505 160 L 822 160 L 812 170" opacity="0.2"/></g><g transform="translate(-54,-134) scale(1,1)"><path fill="#C0C0C0" stroke="none" d="M 822 160 L 812 170 L 812 335 L 822 325" opacity="0.2"/></g><g transform="translate(-54,-134) scale(1,1)"><rect fill="#ffffff" stroke="none" x="488" y="153" width="328" height="176"/></g><g transform="translate(-54,-134) scale(1,1)"><path fill="none" stroke="#000000" d="M 488 153 L 816 153 L 816 329 L 488 329 L 488 153 Z Z" stroke-miterlimit="10"/></g><g transform="translate(-54,-134) scale(1,1)"><path fill="none" stroke="#000000" d="M 790 168 L 806 168 L 806 178 L 790 178 L 790 168 Z Z" stroke-miterlimit="10"/></g><g transform="translate(-54,-134) scale(1,1)"><path fill="none" stroke="#000000" d="M 790 168 L 795 163 L 811 163 L 806 168 L 790 168" stroke-miterlimit="10"/></g><g transform="translate(-54,-134) scale(1,1)"><path fill="none" stroke="#000000" d="M 806 168 L 811 163 L 811 173 L 806 178 L 806 168" stroke-miterlimit="10"/></g><g transform="translate(-54,-134) scale(1,1)"><g><path fill="none" stroke="none"/><text fill="#000000" stroke="none" font-family="Arial" font-size="13px" font-style="normal" font-weight="normal" text-decoration="none" x="596.5" y="170.5">«Linux Server»</text></g></g><g transform="translate(-54,-134) scale(1,1)"><g><path fill="none" stroke="none"/><text fill="#000000" stroke="none" font-family="Arial" font-size="13px" font-style="normal" font-weight="bold" text-decoration="none" x="599.5" y="185.5">Talend Server</text></g></g><g transform="translate(-54,-134) scale(1,1)"><path fill="none" stroke="#000000" d="M 180 319 L 180 416 L 528 416 L 528 329" stroke-miterlimit="10"/></g><g transform="translate(-54,-134) scale(1,1)"><g><path fill="none" stroke="none"/><text fill="#000000" stroke="none" font-family="Arial" font-size="13px" font-style="normal" font-weight="normal" text-decoration="none" x="332.5" y="407.5">+JDBC</text></g></g><g transform="translate(-54,-134) scale(1,1)"><g><path fill="none" stroke="none"/><text fill="#000000" stroke="none" font-family="Arial" font-size="13px" font-style="normal" font-weight="normal" text-decoration="none" x="163.5" y="346.5">1</text></g></g><g transform="translate(-54,-134) scale(1,1)"><g><path fill="none" stroke="none"/><text fill="#000000" stroke="none" font-family="Arial" font-size="13px" font-style="normal" font-weight="normal" text-decoration="none" x="536.5" y="356.5">1</text></g></g><g transform="translate(-54,-134) scale(1,1)"><rect fill="#C0C0C0" stroke="none" x="97" y="199" width="146" height="52" opacity="0.2"/></g><g transform="translate(-54,-134) scale(1,1)"><rect fill="#ffffff" stroke="none" x="90" y="192" width="146" height="52"/></g><g transform="translate(-54,-134) scale(1,1)"><path fill="none" stroke="#000000" d="M 90 192 L 236 192 L 236 244 L 90 244 L 90 192 Z Z" stroke-miterlimit="10"/></g><g transform="translate(-54,-134) scale(1,1)"><rect fill="#ffffff" stroke="none" x="80" y="199" width="20" height="10"/></g><g transform="translate(-54,-134) scale(1,1)"><path fill="none" stroke="#000000" d="M 80 199 L 100 199 L 100 209 L 80 209 L 80 199 Z Z" stroke-miterlimit="10"/></g><g transform="translate(-54,-134) scale(1,1)"><rect fill="#ffffff" stroke="none" x="80" y="219" width="20" height="10"/></g><g transform="translate(-54,-134) scale(1,1)"><path fill="none" stroke="#000000" d="M 80 219 L 100 219 L 100 229 L 80 229 L 80 219 Z Z" stroke-miterlimit="10"/></g><g transform="translate(-54,-134) scale(1,1)"><g><path fill="none" stroke="none"/><text fill="#000000" stroke="none" font-family="Arial" font-size="13px" font-style="normal" font-weight="normal" text-decoration="none" x="128" y="209.5">«MySql5.6.7»</text></g></g><g transform="translate(-54,-134) scale(1,1)"><g><path fill="none" stroke="none"/><text fill="#000000" stroke="none" font-family="Arial" font-size="13px" font-style="normal" font-weight="bold" text-decoration="none" x="109.5" y="224.5">esibank_decisionnel</text></g></g><g transform="translate(-54,-134) scale(1,1)"><rect fill="#C0C0C0" stroke="none" x="225" y="263" width="130" height="52" opacity="0.2"/></g><g transform="translate(-54,-134) scale(1,1)"><rect fill="#ffffff" stroke="none" x="218" y="256" width="130" height="52"/></g><g transform="translate(-54,-134) scale(1,1)"><path fill="none" stroke="#000000" d="M 218 256 L 348 256 L 348 308 L 218 308 L 218 256 Z Z" stroke-miterlimit="10"/></g><g transform="translate(-54,-134) scale(1,1)"><rect fill="#ffffff" stroke="none" x="208" y="263" width="20" height="10"/></g><g transform="translate(-54,-134) scale(1,1)"><path fill="none" stroke="#000000" d="M 208 263 L 228 263 L 228 273 L 208 273 L 208 263 Z Z" stroke-miterlimit="10"/></g><g transform="translate(-54,-134) scale(1,1)"><rect fill="#ffffff" stroke="none" x="208" y="283" width="20" height="10"/></g><g transform="translate(-54,-134) scale(1,1)"><path fill="none" stroke="#000000" d="M 208 283 L 228 283 L 228 293 L 208 293 L 208 283 Z Z" stroke-miterlimit="10"/></g><g transform="translate(-54,-134) scale(1,1)"><g><path fill="none" stroke="none"/><text fill="#000000" stroke="none" font-family="Arial" font-size="13px" font-style="normal" font-weight="normal" text-decoration="none" x="246" y="273.5">«MySql 5.6.7»</text></g></g><g transform="translate(-54,-134) scale(1,1)"><g><path fill="none" stroke="none"/><text fill="#000000" stroke="none" font-family="Arial" font-size="13px" font-style="normal" font-weight="bold" text-decoration="none" x="237" y="288.5">esibank_proto_db</text></g></g><g transform="translate(-54,-134) scale(1,1)"><rect fill="#C0C0C0" stroke="none" x="553" y="207" width="209" height="52" opacity="0.2"/></g><g transform="translate(-54,-134) scale(1,1)"><rect fill="#ffffff" stroke="none" x="546" y="200" width="209" height="52"/></g><g transform="translate(-54,-134) scale(1,1)"><path fill="none" stroke="#000000" d="M 546 200 L 755 200 L 755 252 L 546 252 L 546 200 Z Z" stroke-miterlimit="10"/></g><g transform="translate(-54,-134) scale(1,1)"><rect fill="#ffffff" stroke="none" x="536" y="207" width="20" height="10"/></g><g transform="translate(-54,-134) scale(1,1)"><path fill="none" stroke="#000000" d="M 536 207 L 556 207 L 556 217 L 536 217 L 536 207 Z Z" stroke-miterlimit="10"/></g><g transform="translate(-54,-134) scale(1,1)"><rect fill="#ffffff" stroke="none" x="536" y="227" width="20" height="10"/></g><g transform="translate(-54,-134) scale(1,1)"><path fill="none" stroke="#000000" d="M 536 227 L 556 227 L 556 237 L 536 237 L 536 227 Z Z" stroke-miterlimit="10"/></g><g transform="translate(-54,-134) scale(1,1)"><g><path fill="none" stroke="none"/><text fill="#000000" stroke="none" font-family="Arial" font-size="13px" font-style="normal" font-weight="normal" text-decoration="none" x="641.5" y="217.5">«jar»</text></g></g><g transform="translate(-54,-134) scale(1,1)"><g><path fill="none" stroke="none"/><text fill="#000000" stroke="none" font-family="Arial" font-size="13px" font-style="normal" font-weight="bold" text-decoration="none" x="566" y="232.5">extract_load_transform_0_1.jar</text></g></g><g transform="translate(-54,-134) scale(1,1)"><g><path fill="none" stroke="none"/><text fill="#000000" stroke="none" font-family="Arial" font-size="13px" font-style="normal" font-weight="normal" text-decoration="none" x="615.5" y="247.5">(from Model1)</text></g></g><g transform="translate(-54,-134) scale(1,1)"><rect fill="#ffffff" stroke="none" x="176" y="312" width="14" height="14"/></g><g transform="translate(-54,-134) scale(1,1)"><path fill="none" stroke="#000000" d="M 176 312 L 190 312 L 190 326 L 176 326 L 176 312 Z Z" stroke-miterlimit="10"/></g><g transform="translate(-54,-134) scale(1,1)"><g><path fill="none" stroke="none"/><text fill="#000000" stroke="none" font-family="Arial" font-size="13px" font-style="normal" font-weight="normal" text-decoration="none" x="126.5" y="315">3306</text></g></g><g transform="translate(-54,-134) scale(1,1)"><g><path fill="none" stroke="none"/><text fill="#000000" stroke="none" font-family="Arial" font-size="13px" font-style="normal" font-weight="normal" text-decoration="none" x="118.5" y="299">«Port»</text></g></g><g transform="translate(-54,-134) scale(1,1)"><rect fill="#C0C0C0" stroke="none" x="553" y="271" width="214" height="44" opacity="0.2"/></g><g transform="translate(-54,-134) scale(1,1)"><rect fill="#ffffff" stroke="none" x="546" y="264" width="214" height="44"/></g><g transform="translate(-54,-134) scale(1,1)"><path fill="none" stroke="#000000" d="M 546 264 L 760 264 L 760 308 L 546 308 L 546 264 Z Z" stroke-miterlimit="10"/></g><g transform="translate(-54,-134) scale(1,1)"><rect fill="#ffffff" stroke="none" x="536" y="271" width="20" height="10"/></g><g transform="translate(-54,-134) scale(1,1)"><path fill="none" stroke="#000000" d="M 536 271 L 556 271 L 556 281 L 536 281 L 536 271 Z Z" stroke-miterlimit="10"/></g><g transform="translate(-54,-134) scale(1,1)"><rect fill="#ffffff" stroke="none" x="536" y="291" width="20" height="10"/></g><g transform="translate(-54,-134) scale(1,1)"><path fill="none" stroke="#000000" d="M 536 291 L 556 291 L 556 301 L 536 301 L 536 291 Z Z" stroke-miterlimit="10"/></g><g transform="translate(-54,-134) scale(1,1)"><g><path fill="none" stroke="none"/><text fill="#000000" stroke="none" font-family="Arial" font-size="13px" font-style="normal" font-weight="normal" text-decoration="none" x="644" y="281.5">«jar»</text></g></g><g transform="translate(-54,-134) scale(1,1)"><g><path fill="none" stroke="none"/><text fill="#000000" stroke="none" font-family="Arial" font-size="13px" font-style="normal" font-weight="bold" text-decoration="none" x="568" y="296.5">bigdata_complaintsAnalysis.jar</text></g></g><g transform="translate(-54,-134) scale(1,1)"><path fill="#C0C0C0" stroke="none" d="M 71 489 L 276 489 L 276 662 L 71 662" opacity="0.2"/></g><g transform="translate(-54,-134) scale(1,1)"><path fill="#C0C0C0" stroke="none" d="M 71 489 L 81 479 L 286 479 L 276 489" opacity="0.2"/></g><g transform="translate(-54,-134) scale(1,1)"><path fill="#C0C0C0" stroke="none" d="M 286 479 L 276 489 L 276 662 L 286 652" opacity="0.2"/></g><g transform="translate(-54,-134) scale(1,1)"><path fill="#ffffff" stroke="none" d="M 64 482 L 269 482 L 269 655 L 64 655"/></g><g transform="translate(-54,-134) scale(1,1)"><path fill="#ffffff" stroke="none" d="M 64 482 L 74 472 L 279 472 L 269 482"/></g><g transform="translate(-54,-134) scale(1,1)"><path fill="#ffffff" stroke="none" d="M 279 472 L 269 482 L 269 655 L 279 645"/></g><g transform="translate(-54,-134) scale(1,1)"><path fill="none" stroke="#000000" d="M 64 482 L 269 482 L 269 655 L 64 655 L 64 482" stroke-miterlimit="10"/></g><g transform="translate(-54,-134) scale(1,1)"><path fill="none" stroke="#000000" d="M 64 482 L 74 472 L 279 472 L 269 482 L 64 482" stroke-miterlimit="10"/></g><g transform="translate(-54,-134) scale(1,1)"><path fill="none" stroke="#000000" d="M 279 472 L 269 482 L 269 655 L 279 645 L 279 472" stroke-miterlimit="10"/></g><g transform="translate(-54,-134) scale(1,1)"><g><path fill="none" stroke="none"/><text fill="#000000" stroke="none" font-family="Arial" font-size="13px" font-style="normal" font-weight="normal" text-decoration="none" x="123.5" y="499.5">«Linux Server»</text></g></g><g transform="translate(-54,-134) scale(1,1)"><g><path fill="none" stroke="none"/><text fill="#000000" stroke="none" font-family="Arial" font-size="13px" font-style="normal" font-weight="bold" text-decoration="none" x="117.5" y="514.5">MongoDB Server</text></g></g><g transform="translate(-54,-134) scale(1,1)"><rect fill="#C0C0C0" stroke="none" x="97" y="551" width="147" height="44" opacity="0.2"/></g><g transform="translate(-54,-134) scale(1,1)"><rect fill="#ffffff" stroke="none" x="90" y="544" width="147" height="44"/></g><g transform="translate(-54,-134) scale(1,1)"><path fill="none" stroke="#000000" d="M 90 544 L 237 544 L 237 588 L 90 588 L 90 544 Z Z" stroke-miterlimit="10"/></g><g transform="translate(-54,-134) scale(1,1)"><rect fill="#ffffff" stroke="none" x="80" y="551" width="20" height="10"/></g><g transform="translate(-54,-134) scale(1,1)"><path fill="none" stroke="#000000" d="M 80 551 L 100 551 L 100 561 L 80 561 L 80 551 Z Z" stroke-miterlimit="10"/></g><g transform="translate(-54,-134) scale(1,1)"><rect fill="#ffffff" stroke="none" x="80" y="571" width="20" height="10"/></g><g transform="translate(-54,-134) scale(1,1)"><path fill="none" stroke="#000000" d="M 80 571 L 100 571 L 100 581 L 80 581 L 80 571 Z Z" stroke-miterlimit="10"/></g><g transform="translate(-54,-134) scale(1,1)"><g><path fill="none" stroke="none"/><text fill="#000000" stroke="none" font-family="Arial" font-size="13px" font-style="normal" font-weight="normal" text-decoration="none" x="122" y="561.5">«MongoDB 3.6»</text></g></g><g transform="translate(-54,-134) scale(1,1)"><g><path fill="none" stroke="none"/><text fill="#000000" stroke="none" font-family="Arial" font-size="13px" font-style="normal" font-weight="bold" text-decoration="none" x="110" y="576.5">ConsumerComplaint</text></g></g><g transform="translate(-54,-134) scale(1,1)"><path fill="#C0C0C0" stroke="none" d="M 535 489 L 780 489 L 780 654 L 535 654" opacity="0.2"/></g><g transform="translate(-54,-134) scale(1,1)"><path fill="#C0C0C0" stroke="none" d="M 535 489 L 545 479 L 790 479 L 780 489" opacity="0.2"/></g><g transform="translate(-54,-134) scale(1,1)"><path fill="#C0C0C0" stroke="none" d="M 790 479 L 780 489 L 780 654 L 790 644" opacity="0.2"/></g><g transform="translate(-54,-134) scale(1,1)"><path fill="#ffffff" stroke="none" d="M 528 482 L 773 482 L 773 647 L 528 647"/></g><g transform="translate(-54,-134) scale(1,1)"><path fill="#ffffff" stroke="none" d="M 528 482 L 538 472 L 783 472 L 773 482"/></g><g transform="translate(-54,-134) scale(1,1)"><path fill="#ffffff" stroke="none" d="M 783 472 L 773 482 L 773 647 L 783 637"/></g><g transform="translate(-54,-134) scale(1,1)"><path fill="none" stroke="#000000" d="M 528 482 L 773 482 L 773 647 L 528 647 L 528 482" stroke-miterlimit="10"/></g><g transform="translate(-54,-134) scale(1,1)"><path fill="none" stroke="#000000" d="M 528 482 L 538 472 L 783 472 L 773 482 L 528 482" stroke-miterlimit="10"/></g><g transform="translate(-54,-134) scale(1,1)"><path fill="none" stroke="#000000" d="M 783 472 L 773 482 L 773 647 L 783 637 L 783 472" stroke-miterlimit="10"/></g><g transform="translate(-54,-134) scale(1,1)"><g><path fill="none" stroke="none"/><text fill="#000000" stroke="none" font-family="Arial" font-size="13px" font-style="normal" font-weight="normal" text-decoration="none" x="607.5" y="499.5">«Linux Server»</text></g></g><g transform="translate(-54,-134) scale(1,1)"><g><path fill="none" stroke="none"/><text fill="#000000" stroke="none" font-family="Arial" font-size="13px" font-style="normal" font-weight="bold" text-decoration="none" x="613" y="514.5">Spark Server</text></g></g><g transform="translate(-54,-134) scale(1,1)"><rect fill="#C0C0C0" stroke="none" x="553" y="591" width="214" height="44" opacity="0.2"/></g><g transform="translate(-54,-134) scale(1,1)"><rect fill="#ffffff" stroke="none" x="546" y="584" width="214" height="44"/></g><g transform="translate(-54,-134) scale(1,1)"><path fill="none" stroke="#000000" d="M 546 584 L 760 584 L 760 628 L 546 628 L 546 584 Z Z" stroke-miterlimit="10"/></g><g transform="translate(-54,-134) scale(1,1)"><rect fill="#ffffff" stroke="none" x="536" y="591" width="20" height="10"/></g><g transform="translate(-54,-134) scale(1,1)"><path fill="none" stroke="#000000" d="M 536 591 L 556 591 L 556 601 L 536 601 L 536 591 Z Z" stroke-miterlimit="10"/></g><g transform="translate(-54,-134) scale(1,1)"><rect fill="#ffffff" stroke="none" x="536" y="611" width="20" height="10"/></g><g transform="translate(-54,-134) scale(1,1)"><path fill="none" stroke="#000000" d="M 536 611 L 556 611 L 556 621 L 536 621 L 536 611 Z Z" stroke-miterlimit="10"/></g><g transform="translate(-54,-134) scale(1,1)"><g><path fill="none" stroke="none"/><text fill="#000000" stroke="none" font-family="Arial" font-size="13px" font-style="normal" font-weight="normal" text-decoration="none" x="644" y="601.5">«jar»</text></g></g><g transform="translate(-54,-134) scale(1,1)"><g><path fill="none" stroke="none"/><text fill="#000000" stroke="none" font-family="Arial" font-size="13px" font-style="normal" font-weight="bold" text-decoration="none" x="568" y="616.5">bigdata_complaintsAnalysis.jar</text></g></g><g transform="translate(-54,-134) scale(1,1)"><rect fill="#C0C0C0" stroke="none" x="551" y="543" width="210" height="37" opacity="0.2"/></g><g transform="translate(-54,-134) scale(1,1)"><rect fill="#ffffff" stroke="none" x="544" y="536" width="210" height="37"/></g><g transform="translate(-54,-134) scale(1,1)"><path fill="none" stroke="#000000" d="M 544 536 L 754 536 L 754 573 L 544 573 L 544 536 Z Z" stroke-miterlimit="10"/></g><g transform="translate(-54,-134) scale(1,1)"><path fill="#ffffff" stroke="none" d="M 727.4 541 L 740.84 541 L 746.6 546.76 L 746.6 565 L 727.4 565"/></g><g transform="translate(-54,-134) scale(1,1)"><path fill="none" stroke="#000000" d="M 727.4 541 L 740.84 541 L 746.6 546.76 L 746.6 565 L 727.4 565 L 727.4 541" stroke-miterlimit="10"/></g><g transform="translate(-54,-134) scale(1,1)"><path fill="none" stroke="#000000" d="M 740.84 541 L 740.84 546.76 L 746.6 546.76 L 740.84 541" stroke-miterlimit="10"/></g><g transform="translate(-54,-134) scale(1,1)"><g><path fill="none" stroke="none"/><text fill="#000000" stroke="none" font-family="Arial" font-size="13px" font-style="normal" font-weight="normal" text-decoration="none" x="610" y="553.5">«artifact»</text></g></g><g transform="translate(-54,-134) scale(1,1)"><g><path fill="none" stroke="none"/><text fill="#000000" stroke="none" font-family="Arial" font-size="13px" font-style="normal" font-weight="bold" text-decoration="none" x="559" y="568.5">Consumer_Complaints.csv</text></g></g><g transform="translate(-54,-134) scale(1,1)"><path fill="none" stroke="#000000" d="M 527 561 L 281 563" stroke-miterlimit="10"/></g><g transform="translate(-54,-134) scale(1,1)"><g><path fill="none" stroke="none"/><text fill="#000000" stroke="none" font-family="Arial" font-size="13px" font-style="normal" font-weight="normal" text-decoration="none" x="363.5" y="582.5">+MongoSpark</text></g></g><g transform="translate(-54,-134) scale(1,1)"><g><path fill="none" stroke="none"/><text fill="#000000" stroke="none" font-family="Arial" font-size="13px" font-style="normal" font-weight="normal" text-decoration="none" x="263.5" y="556.5">+Port 27017</text></g></g><g transform="translate(-54,-134) scale(1,1)"><path fill="none" stroke="#000000" d="M 608 472 L 608 440 L 96 440 L 96 319" stroke-miterlimit="10"/></g><g transform="translate(-54,-134) scale(1,1)"><g><path fill="none" stroke="none"/><text fill="#000000" stroke="none" font-family="Arial" font-size="13px" font-style="normal" font-weight="normal" text-decoration="none" x="329.5" y="461.5">+JDBC</text></g></g></g></svg>