<svg version="1.1" xmlns="http://www.w3.org/2000/svg" xmlns:xlink="http://www.w3.org/1999/xlink" width="764" height="284"><defs/><g><g transform="translate(-62,-143) scale(1,1)"><path fill="#C0C0C0" stroke="none" d="M 79 202 L 372 202 L 372 366 L 79 366" opacity="0.2"/></g><g transform="translate(-62,-143) scale(1,1)"><path fill="#C0C0C0" stroke="none" d="M 79 202 L 89 192 L 382 192 L 372 202" opacity="0.2"/></g><g transform="translate(-62,-143) scale(1,1)"><path fill="#C0C0C0" stroke="none" d="M 382 192 L 372 202 L 372 366 L 382 356" opacity="0.2"/></g><g transform="translate(-62,-143) scale(1,1)"><path fill="#ffffff" stroke="none" d="M 72 195 L 365 195 L 365 359 L 72 359"/></g><g transform="translate(-62,-143) scale(1,1)"><path fill="#ffffff" stroke="none" d="M 72 195 L 82 185 L 375 185 L 365 195"/></g><g transform="translate(-62,-143) scale(1,1)"><path fill="#ffffff" stroke="none" d="M 375 185 L 365 195 L 365 359 L 375 349"/></g><g transform="translate(-62,-143) scale(1,1)"><path fill="none" stroke="#000000" d="M 72 195 L 365 195 L 365 359 L 72 359 L 72 195" stroke-miterlimit="10"/></g><g transform="translate(-62,-143) scale(1,1)"><path fill="none" stroke="#000000" d="M 72 195 L 82 185 L 375 185 L 365 195 L 72 195" stroke-miterlimit="10"/></g><g transform="translate(-62,-143) scale(1,1)"><path fill="none" stroke="#000000" d="M 375 185 L 365 195 L 365 359 L 375 349 L 375 185" stroke-miterlimit="10"/></g><g transform="translate(-62,-143) scale(1,1)"><g><path fill="none" stroke="none"/><text fill="#000000" stroke="none" font-family="Arial" font-size="13px" font-style="normal" font-weight="normal" text-decoration="none" x="175.5" y="212.5">«Linux Server»</text></g></g><g transform="translate(-62,-143) scale(1,1)"><g><path fill="none" stroke="none"/><text fill="#000000" stroke="none" font-family="Arial" font-size="13px" font-style="normal" font-weight="bold" text-decoration="none" x="189" y="227.5">DB Server</text></g></g><g transform="translate(-62,-143) scale(1,1)"><path fill="#C0C0C0" stroke="none" d="M 495 170 L 812 170 L 812 335 L 495 335" opacity="0.2"/></g><g transform="translate(-62,-143) scale(1,1)"><path fill="#C0C0C0" stroke="none" d="M 495 170 L 505 160 L 822 160 L 812 170" opacity="0.2"/></g><g transform="translate(-62,-143) scale(1,1)"><path fill="#C0C0C0" stroke="none" d="M 822 160 L 812 170 L 812 335 L 822 325" opacity="0.2"/></g><g transform="translate(-62,-143) scale(1,1)"><rect fill="#ffffff" stroke="none" x="488" y="153" width="328" height="176"/></g><g transform="translate(-62,-143) scale(1,1)"><path fill="none" stroke="#000000" d="M 488 153 L 816 153 L 816 329 L 488 329 L 488 153 Z Z" stroke-miterlimit="10"/></g><g transform="translate(-62,-143) scale(1,1)"><path fill="none" stroke="#000000" d="M 790 168 L 806 168 L 806 178 L 790 178 L 790 168 Z Z" stroke-miterlimit="10"/></g><g transform="translate(-62,-143) scale(1,1)"><path fill="none" stroke="#000000" d="M 790 168 L 795 163 L 811 163 L 806 168 L 790 168" stroke-miterlimit="10"/></g><g transform="translate(-62,-143) scale(1,1)"><path fill="none" stroke="#000000" d="M 806 168 L 811 163 L 811 173 L 806 178 L 806 168" stroke-miterlimit="10"/></g><g transform="translate(-62,-143) scale(1,1)"><g><path fill="none" stroke="none"/><text fill="#000000" stroke="none" font-family="Arial" font-size="13px" font-style="normal" font-weight="normal" text-decoration="none" x="596.5" y="170.5">«Linux Server»</text></g></g><g transform="translate(-62,-143) scale(1,1)"><g><path fill="none" stroke="none"/><text fill="#000000" stroke="none" font-family="Arial" font-size="13px" font-style="normal" font-weight="bold" text-decoration="none" x="599.5" y="185.5">Talend Server</text></g></g><g transform="translate(-62,-143) scale(1,1)"><path fill="none" stroke="#000000" d="M 180 360 L 180 416 L 528 416 L 528 329" stroke-miterlimit="10"/></g><g transform="translate(-62,-143) scale(1,1)"><g><path fill="none" stroke="none"/><text fill="#000000" stroke="none" font-family="Arial" font-size="13px" font-style="normal" font-weight="normal" text-decoration="none" x="332.5" y="407.5">+JDBC</text></g></g><g transform="translate(-62,-143) scale(1,1)"><g><path fill="none" stroke="none"/><text fill="#000000" stroke="none" font-family="Arial" font-size="13px" font-style="normal" font-weight="normal" text-decoration="none" x="163.5" y="387.5">1</text></g></g><g transform="translate(-62,-143) scale(1,1)"><g><path fill="none" stroke="none"/><text fill="#000000" stroke="none" font-family="Arial" font-size="13px" font-style="normal" font-weight="normal" text-decoration="none" x="536.5" y="356.5">1</text></g></g><g transform="translate(-62,-143) scale(1,1)"><rect fill="#C0C0C0" stroke="none" x="97" y="255" width="146" height="52" opacity="0.2"/></g><g transform="translate(-62,-143) scale(1,1)"><rect fill="#ffffff" stroke="none" x="90" y="248" width="146" height="52"/></g><g transform="translate(-62,-143) scale(1,1)"><path fill="none" stroke="#000000" d="M 90 248 L 236 248 L 236 300 L 90 300 L 90 248 Z Z" stroke-miterlimit="10"/></g><g transform="translate(-62,-143) scale(1,1)"><rect fill="#ffffff" stroke="none" x="80" y="255" width="20" height="10"/></g><g transform="translate(-62,-143) scale(1,1)"><path fill="none" stroke="#000000" d="M 80 255 L 100 255 L 100 265 L 80 265 L 80 255 Z Z" stroke-miterlimit="10"/></g><g transform="translate(-62,-143) scale(1,1)"><rect fill="#ffffff" stroke="none" x="80" y="275" width="20" height="10"/></g><g transform="translate(-62,-143) scale(1,1)"><path fill="none" stroke="#000000" d="M 80 275 L 100 275 L 100 285 L 80 285 L 80 275 Z Z" stroke-miterlimit="10"/></g><g transform="translate(-62,-143) scale(1,1)"><g><path fill="none" stroke="none"/><text fill="#000000" stroke="none" font-family="Arial" font-size="13px" font-style="normal" font-weight="normal" text-decoration="none" x="128" y="265.5">«MySql5.6.7»</text></g></g><g transform="translate(-62,-143) scale(1,1)"><g><path fill="none" stroke="none"/><text fill="#000000" stroke="none" font-family="Arial" font-size="13px" font-style="normal" font-weight="bold" text-decoration="none" x="109.5" y="280.5">esibank_decisionnel</text></g></g><g transform="translate(-62,-143) scale(1,1)"><rect fill="#C0C0C0" stroke="none" x="233" y="311" width="130" height="52" opacity="0.2"/></g><g transform="translate(-62,-143) scale(1,1)"><rect fill="#ffffff" stroke="none" x="226" y="304" width="130" height="52"/></g><g transform="translate(-62,-143) scale(1,1)"><path fill="none" stroke="#000000" d="M 226 304 L 356 304 L 356 356 L 226 356 L 226 304 Z Z" stroke-miterlimit="10"/></g><g transform="translate(-62,-143) scale(1,1)"><rect fill="#ffffff" stroke="none" x="216" y="311" width="20" height="10"/></g><g transform="translate(-62,-143) scale(1,1)"><path fill="none" stroke="#000000" d="M 216 311 L 236 311 L 236 321 L 216 321 L 216 311 Z Z" stroke-miterlimit="10"/></g><g transform="translate(-62,-143) scale(1,1)"><rect fill="#ffffff" stroke="none" x="216" y="331" width="20" height="10"/></g><g transform="translate(-62,-143) scale(1,1)"><path fill="none" stroke="#000000" d="M 216 331 L 236 331 L 236 341 L 216 341 L 216 331 Z Z" stroke-miterlimit="10"/></g><g transform="translate(-62,-143) scale(1,1)"><g><path fill="none" stroke="none"/><text fill="#000000" stroke="none" font-family="Arial" font-size="13px" font-style="normal" font-weight="normal" text-decoration="none" x="254" y="321.5">«MySql 5.6.7»</text></g></g><g transform="translate(-62,-143) scale(1,1)"><g><path fill="none" stroke="none"/><text fill="#000000" stroke="none" font-family="Arial" font-size="13px" font-style="normal" font-weight="bold" text-decoration="none" x="245" y="336.5">esibank_proto_db</text></g></g><g transform="translate(-62,-143) scale(1,1)"><rect fill="#C0C0C0" stroke="none" x="553" y="207" width="209" height="52" opacity="0.2"/></g><g transform="translate(-62,-143) scale(1,1)"><rect fill="#ffffff" stroke="none" x="546" y="200" width="209" height="52"/></g><g transform="translate(-62,-143) scale(1,1)"><path fill="none" stroke="#000000" d="M 546 200 L 755 200 L 755 252 L 546 252 L 546 200 Z Z" stroke-miterlimit="10"/></g><g transform="translate(-62,-143) scale(1,1)"><rect fill="#ffffff" stroke="none" x="536" y="207" width="20" height="10"/></g><g transform="translate(-62,-143) scale(1,1)"><path fill="none" stroke="#000000" d="M 536 207 L 556 207 L 556 217 L 536 217 L 536 207 Z Z" stroke-miterlimit="10"/></g><g transform="translate(-62,-143) scale(1,1)"><rect fill="#ffffff" stroke="none" x="536" y="227" width="20" height="10"/></g><g transform="translate(-62,-143) scale(1,1)"><path fill="none" stroke="#000000" d="M 536 227 L 556 227 L 556 237 L 536 237 L 536 227 Z Z" stroke-miterlimit="10"/></g><g transform="translate(-62,-143) scale(1,1)"><g><path fill="none" stroke="none"/><text fill="#000000" stroke="none" font-family="Arial" font-size="13px" font-style="normal" font-weight="normal" text-decoration="none" x="641.5" y="217.5">«jar»</text></g></g><g transform="translate(-62,-143) scale(1,1)"><g><path fill="none" stroke="none"/><text fill="#000000" stroke="none" font-family="Arial" font-size="13px" font-style="normal" font-weight="bold" text-decoration="none" x="566" y="232.5">extract_load_transform_0_1.jar</text></g></g><g transform="translate(-62,-143) scale(1,1)"><g><path fill="none" stroke="none"/><text fill="#000000" stroke="none" font-family="Arial" font-size="13px" font-style="normal" font-weight="normal" text-decoration="none" x="615.5" y="247.5">(from Model1)</text></g></g><g transform="translate(-62,-143) scale(1,1)"><rect fill="#ffffff" stroke="none" x="176" y="353" width="14" height="14"/></g><g transform="translate(-62,-143) scale(1,1)"><path fill="none" stroke="#000000" d="M 176 353 L 190 353 L 190 367 L 176 367 L 176 353 Z Z" stroke-miterlimit="10"/></g><g transform="translate(-62,-143) scale(1,1)"><g><path fill="none" stroke="none"/><text fill="#000000" stroke="none" font-family="Arial" font-size="13px" font-style="normal" font-weight="normal" text-decoration="none" x="142.5" y="355">3306</text></g></g><g transform="translate(-62,-143) scale(1,1)"><g><path fill="none" stroke="none"/><text fill="#000000" stroke="none" font-family="Arial" font-size="13px" font-style="normal" font-weight="normal" text-decoration="none" x="138.5" y="341">«Port»</text></g></g><g transform="translate(-62,-143) scale(1,1)"><rect fill="#C0C0C0" stroke="none" x="553" y="271" width="214" height="44" opacity="0.2"/></g><g transform="translate(-62,-143) scale(1,1)"><rect fill="#ffffff" stroke="none" x="546" y="264" width="214" height="44"/></g><g transform="translate(-62,-143) scale(1,1)"><path fill="none" stroke="#000000" d="M 546 264 L 760 264 L 760 308 L 546 308 L 546 264 Z Z" stroke-miterlimit="10"/></g><g transform="translate(-62,-143) scale(1,1)"><rect fill="#ffffff" stroke="none" x="536" y="271" width="20" height="10"/></g><g transform="translate(-62,-143) scale(1,1)"><path fill="none" stroke="#000000" d="M 536 271 L 556 271 L 556 281 L 536 281 L 536 271 Z Z" stroke-miterlimit="10"/></g><g transform="translate(-62,-143) scale(1,1)"><rect fill="#ffffff" stroke="none" x="536" y="291" width="20" height="10"/></g><g transform="translate(-62,-143) scale(1,1)"><path fill="none" stroke="#000000" d="M 536 291 L 556 291 L 556 301 L 536 301 L 536 291 Z Z" stroke-miterlimit="10"/></g><g transform="translate(-62,-143) scale(1,1)"><g><path fill="none" stroke="none"/><text fill="#000000" stroke="none" font-family="Arial" font-size="13px" font-style="normal" font-weight="normal" text-decoration="none" x="644" y="281.5">«jar»</text></g></g><g transform="translate(-62,-143) scale(1,1)"><g><path fill="none" stroke="none"/><text fill="#000000" stroke="none" font-family="Arial" font-size="13px" font-style="normal" font-weight="bold" text-decoration="none" x="568" y="296.5">bigdata_complaintsAnalysis.jar</text></g></g></g></svg>