<svg version="1.1" xmlns="http://www.w3.org/2000/svg" xmlns:xlink="http://www.w3.org/1999/xlink" width="900" height="292"><defs/><g><g transform="translate(-62,-46) scale(1,1)"><rect fill="#C0C0C0" stroke="none" x="159" y="63" width="688" height="272" opacity="0.2"/></g><g transform="translate(-62,-46) scale(1,1)"><rect fill="#ffffff" stroke="none" x="152" y="56" width="688" height="272"/></g><g transform="translate(-62,-46) scale(1,1)"><path fill="none" stroke="#000000" d="M 152 56 L 840 56 L 840 328 L 152 328 L 152 56 Z Z" stroke-miterlimit="10"/></g><g transform="translate(-62,-46) scale(1,1)"><g><path fill="none" stroke="none"/><text fill="#000000" stroke="none" font-family="Arial" font-size="13px" font-style="normal" font-weight="bold" text-decoration="none" x="366.5" y="75.5">Analyse des plaintes des clients de banques</text></g></g><g transform="translate(-62,-46) scale(1,1)"><path fill="#ffffff" stroke="none" d="M 94.32072727272727 145.68 C 94.32072727272727 140.886167936 98.20656959767273 137 103 137 C 107.79343040232727 137 111.67927272727273 140.886167936 111.67927272727273 145.68 C 111.67927272727273 150.47383206400002 107.79343040232727 154.36 103 154.36 C 98.20656959767273 154.36 94.32072727272727 150.47383206400002 94.32072727272727 145.68 Z"/></g><g transform="translate(-62,-46) scale(1,1)"><path fill="none" stroke="#000000" d="M 94.32072727272727 145.68 C 94.32072727272727 140.886167936 98.20656959767273 137 103 137 C 107.79343040232727 137 111.67927272727273 140.886167936 111.67927272727273 145.68 C 111.67927272727273 150.47383206400002 107.79343040232727 154.36 103 154.36 C 98.20656959767273 154.36 94.32072727272727 150.47383206400002 94.32072727272727 145.68 Z" stroke-miterlimit="10"/></g><g transform="translate(-62,-46) scale(1,1)"><path fill="none" stroke="#000000" d="M 103 154.36 L 103 171.64" stroke-miterlimit="10"/></g><g transform="translate(-62,-46) scale(1,1)"><path fill="none" stroke="#000000" d="M 93.81018181818182 160.84 L 112.18981818181818 160.84" stroke-miterlimit="10"/></g><g transform="translate(-62,-46) scale(1,1)"><path fill="none" stroke="#000000" d="M 103 171.64 L 90.23636363636363 189" stroke-miterlimit="10"/></g><g transform="translate(-62,-46) scale(1,1)"><path fill="none" stroke="#000000" d="M 103 171.64 L 115.76363636363637 189" stroke-miterlimit="10"/></g><g transform="translate(-62,-46) scale(1,1)"><g><path fill="none" stroke="none"/><text fill="#000000" stroke="none" font-family="Arial" font-size="13px" font-style="normal" font-weight="bold" text-decoration="none" x="78" y="209.5">Manager</text></g></g><g transform="translate(-62,-46) scale(1,1)"><path fill="#C0C0C0" stroke="none" d="M 183 176 C 183 166.6111584 273.2146128 159 384.5 159 C 495.7853872 159 586 166.6111584 586 176 C 586 185.3888416 495.7853872 193 384.5 193 C 273.2146128 193 183 185.3888416 183 176 Z" opacity="0.2"/></g><g transform="translate(-62,-46) scale(1,1)"><path fill="#ffffff" stroke="none" d="M 176 169 C 176 159.6111584 266.2146128 152 377.5 152 C 488.7853872 152 579 159.6111584 579 169 C 579 178.3888416 488.7853872 186 377.5 186 C 266.2146128 186 176 178.3888416 176 169 Z"/></g><g transform="translate(-62,-46) scale(1,1)"><path fill="none" stroke="#000000" d="M 176 169 C 176 159.6111584 266.2146128 152 377.5 152 C 488.7853872 152 579 159.6111584 579 169 C 579 178.3888416 488.7853872 186 377.5 186 C 266.2146128 186 176 178.3888416 176 169 Z" stroke-miterlimit="10"/></g><g transform="translate(-62,-46) scale(1,1)"><g><path fill="none" stroke="none"/><text fill="#000000" stroke="none" font-family="Arial" font-size="13px" font-style="normal" font-weight="bold" text-decoration="none" x="248" y="176">Analyser les plaintes des clients de banques</text></g></g><g transform="translate(-62,-46) scale(1,1)"><path fill="none" stroke="#000000" d="M 135 174 L 175 173" stroke-miterlimit="10"/></g><g transform="translate(-62,-46) scale(1,1)"><path fill="#ffffff" stroke="none" d="M 907.3207272727273 153.68 C 907.3207272727273 148.886167936 911.2065695976727 145 916 145 C 920.7934304023273 145 924.6792727272727 148.886167936 924.6792727272727 153.68 C 924.6792727272727 158.47383206400002 920.7934304023273 162.36 916 162.36 C 911.2065695976727 162.36 907.3207272727273 158.47383206400002 907.3207272727273 153.68 Z"/></g><g transform="translate(-62,-46) scale(1,1)"><path fill="none" stroke="#000000" d="M 907.3207272727273 153.68 C 907.3207272727273 148.886167936 911.2065695976727 145 916 145 C 920.7934304023273 145 924.6792727272727 148.886167936 924.6792727272727 153.68 C 924.6792727272727 158.47383206400002 920.7934304023273 162.36 916 162.36 C 911.2065695976727 162.36 907.3207272727273 158.47383206400002 907.3207272727273 153.68 Z" stroke-miterlimit="10"/></g><g transform="translate(-62,-46) scale(1,1)"><path fill="none" stroke="#000000" d="M 916 162.36 L 916 179.64" stroke-miterlimit="10"/></g><g transform="translate(-62,-46) scale(1,1)"><path fill="none" stroke="#000000" d="M 906.8101818181818 168.84 L 925.1898181818182 168.84" stroke-miterlimit="10"/></g><g transform="translate(-62,-46) scale(1,1)"><path fill="none" stroke="#000000" d="M 916 179.64 L 903.2363636363636 197" stroke-miterlimit="10"/></g><g transform="translate(-62,-46) scale(1,1)"><path fill="none" stroke="#000000" d="M 916 179.64 L 928.7636363636364 197" stroke-miterlimit="10"/></g><g transform="translate(-62,-46) scale(1,1)"><g><path fill="none" stroke="none"/><text fill="#000000" stroke="none" font-family="Arial" font-size="13px" font-style="normal" font-weight="bold" text-decoration="none" x="887" y="217.5">Scheduler</text></g></g><g transform="translate(-62,-46) scale(1,1)"><path fill="#C0C0C0" stroke="none" d="M 407 280 C 407 270.6111584 501.2440496 263 617.5 263 C 733.7559504 263 828 270.6111584 828 280 C 828 289.3888416 733.7559504 297 617.5 297 C 501.2440496 297 407 289.3888416 407 280 Z" opacity="0.2"/></g><g transform="translate(-62,-46) scale(1,1)"><path fill="#ffffff" stroke="none" d="M 400 273 C 400 263.6111584 494.2440496 256 610.5 256 C 726.7559504 256 821 263.6111584 821 273 C 821 282.3888416 726.7559504 290 610.5 290 C 494.2440496 290 400 282.3888416 400 273 Z"/></g><g transform="translate(-62,-46) scale(1,1)"><path fill="none" stroke="#000000" d="M 400 273 C 400 263.6111584 494.2440496 256 610.5 256 C 726.7559504 256 821 263.6111584 821 273 C 821 282.3888416 726.7559504 290 610.5 290 C 494.2440496 290 400 282.3888416 400 273 Z" stroke-miterlimit="10"/></g><g transform="translate(-62,-46) scale(1,1)"><g><path fill="none" stroke="none"/><text fill="#000000" stroke="none" font-family="Arial" font-size="13px" font-style="normal" font-weight="bold" text-decoration="none" x="475" y="280">Création des analyses big data sur les plaintes</text></g></g><g transform="translate(-62,-46) scale(1,1)"><path fill="none" stroke="#000000" d="M 671 255 L 879 194" stroke-miterlimit="10"/></g><g transform="translate(-62,-46) scale(1,1)"><path fill="none" stroke="#000000" d="M 417 187 L 570 255" stroke-miterlimit="10" stroke-dasharray="3"/></g><g transform="translate(-62,-46) scale(1,1)"><path fill="none" stroke="#000000" d="M 559.0035832659772 254.71925276189404 L 570 255 L 562.4228774344834 247.02584088275515" stroke-miterlimit="10"/></g><g transform="translate(-62,-46) scale(1,1)"><g><path fill="none" stroke="none"/><text fill="#000000" stroke="none" font-family="Arial" font-size="13px" font-style="normal" font-weight="normal" text-decoration="none" x="494.5" y="220.5">+&lt;&lt;Include&gt;&gt;</text></g></g></g></svg>