<svg version="1.1" xmlns="http://www.w3.org/2000/svg" xmlns:xlink="http://www.w3.org/1999/xlink" width="1013.81982421875" height="405"><defs/><g><g transform="translate(-110,-150) scale(1,1)"><rect fill="#C0C0C0" stroke="none" x="127" y="383" width="123.51171875" height="70" opacity="0.2"/></g><g transform="translate(-110,-150) scale(1,1)"><rect fill="#ffffff" stroke="none" x="120" y="376" width="123.51171875" height="70"/></g><g transform="translate(-110,-150) scale(1,1)"><path fill="none" stroke="#000000" d="M 120 376 L 243.51171875 376 L 243.51171875 446 L 120 446 L 120 376 Z Z" stroke-miterlimit="10"/></g><g transform="translate(-110,-150) scale(1,1)"><path fill="none" stroke="#000000" d="M 120 414 L 243.51171875 414" stroke-miterlimit="10"/></g><g transform="translate(-110,-150) scale(1,1)"><path fill="none" stroke="#000000" d="M 120 424 L 243.51171875 424" stroke-miterlimit="10"/></g><g transform="translate(-110,-150) scale(1,1)"><g><path fill="none" stroke="none"/><text fill="#000000" stroke="none" font-family="Arial" font-size="13px" font-style="normal" font-weight="normal" text-decoration="none" x="160.437255859375" y="393.5">«main»</text></g></g><g transform="translate(-110,-150) scale(1,1)"><g><path fill="none" stroke="none"/><text fill="#000000" stroke="none" font-family="Arial" font-size="13px" font-style="normal" font-weight="bold" text-decoration="none" x="151.76953125" y="408.5">FetchData</text></g></g><g transform="translate(-110,-150) scale(1,1)"><g><path fill="none" stroke="none"/><text fill="#000000" stroke="none" font-family="Arial" font-size="13px" font-style="normal" font-weight="normal" text-decoration="none" x="125" y="441.5">+main(String[] args)</text></g></g><g transform="translate(-110,-150) scale(1,1)"><rect fill="#C0C0C0" stroke="none" x="407" y="495" width="189.97802734375" height="57" opacity="0.2"/></g><g transform="translate(-110,-150) scale(1,1)"><rect fill="#ffffff" stroke="none" x="400" y="488" width="189.97802734375" height="57"/></g><g transform="translate(-110,-150) scale(1,1)"><path fill="none" stroke="#000000" d="M 400 488 L 589.97802734375 488 L 589.97802734375 545 L 400 545 L 400 488 Z Z" stroke-miterlimit="10"/></g><g transform="translate(-110,-150) scale(1,1)"><path fill="none" stroke="#000000" d="M 400 513 L 589.97802734375 513" stroke-miterlimit="10"/></g><g transform="translate(-110,-150) scale(1,1)"><path fill="none" stroke="#000000" d="M 400 523 L 589.97802734375 523" stroke-miterlimit="10"/></g><g transform="translate(-110,-150) scale(1,1)"><g><path fill="none" stroke="none"/><text fill="#000000" stroke="none" font-family="Arial" font-size="13px" font-style="normal" font-weight="bold" text-decoration="none" x="441.884521484375" y="507.5">SharePriceAccess</text></g></g><g transform="translate(-110,-150) scale(1,1)"><g><path fill="none" stroke="none"/><text fill="#000000" stroke="none" font-family="Arial" font-size="13px" font-style="normal" font-weight="normal" text-decoration="none" x="405" y="540.5">+save(ArrayList sharePriceList)</text></g></g><g transform="translate(-110,-150) scale(1,1)"><rect fill="#C0C0C0" stroke="none" x="407" y="391" width="205.87255859375" height="70" opacity="0.2"/></g><g transform="translate(-110,-150) scale(1,1)"><rect fill="#ffffff" stroke="none" x="400" y="384" width="205.87255859375" height="70"/></g><g transform="translate(-110,-150) scale(1,1)"><path fill="none" stroke="#000000" d="M 400 384 L 605.87255859375 384 L 605.87255859375 454 L 400 454 L 400 384 Z Z" stroke-miterlimit="10"/></g><g transform="translate(-110,-150) scale(1,1)"><path fill="none" stroke="#000000" d="M 400 409 L 605.87255859375 409" stroke-miterlimit="10"/></g><g transform="translate(-110,-150) scale(1,1)"><path fill="none" stroke="#000000" d="M 400 432 L 605.87255859375 432" stroke-miterlimit="10"/></g><g transform="translate(-110,-150) scale(1,1)"><g><path fill="none" stroke="none"/><text fill="#000000" stroke="none" font-family="Arial" font-size="13px" font-style="normal" font-weight="bold" text-decoration="none" x="440.7958984375" y="403.5">StockShareConverter</text></g></g><g transform="translate(-110,-150) scale(1,1)"><g><path fill="none" stroke="none"/><text fill="#000000" stroke="none" font-family="Arial" font-size="13px" font-style="normal" font-weight="normal" text-decoration="none" x="405" y="426.5">+ArrayList sharePriceList</text></g></g><g transform="translate(-110,-150) scale(1,1)"><g><path fill="none" stroke="none"/><text fill="#000000" stroke="none" font-family="Arial" font-size="13px" font-style="normal" font-weight="normal" text-decoration="none" x="405" y="449.5">+toSharePrice(ArrayList stockList)</text></g></g><g transform="translate(-110,-150) scale(1,1)"><rect fill="#C0C0C0" stroke="none" x="407" y="167" width="241.3115234375" height="70" opacity="0.2"/></g><g transform="translate(-110,-150) scale(1,1)"><rect fill="#ffffff" stroke="none" x="400" y="160" width="241.3115234375" height="70"/></g><g transform="translate(-110,-150) scale(1,1)"><path fill="none" stroke="#000000" d="M 400 160 L 641.3115234375 160 L 641.3115234375 230 L 400 230 L 400 160 Z Z" stroke-miterlimit="10"/></g><g transform="translate(-110,-150) scale(1,1)"><path fill="none" stroke="#000000" d="M 400 185 L 641.3115234375 185" stroke-miterlimit="10"/></g><g transform="translate(-110,-150) scale(1,1)"><path fill="none" stroke="#000000" d="M 400 208 L 641.3115234375 208" stroke-miterlimit="10"/></g><g transform="translate(-110,-150) scale(1,1)"><g><path fill="none" stroke="none"/><text fill="#000000" stroke="none" font-family="Arial" font-size="13px" font-style="normal" font-weight="bold" text-decoration="none" x="495.731689453125" y="179.5">Symbols</text></g></g><g transform="translate(-110,-150) scale(1,1)"><g><path fill="none" stroke="none"/><text fill="#000000" stroke="none" font-family="Arial" font-size="13px" font-style="normal" font-weight="normal" text-decoration="none" x="405" y="202.5">+HashMap mappingCompaniesSymbols</text></g></g><g transform="translate(-110,-150) scale(1,1)"><g><path fill="none" stroke="none"/><text fill="#000000" stroke="none" font-family="Arial" font-size="13px" font-style="normal" font-weight="normal" text-decoration="none" x="405" y="225.5">+void fillList()</text></g></g><g transform="translate(-110,-150) scale(1,1)"><rect fill="#C0C0C0" stroke="none" x="407" y="279" width="241.3115234375" height="70" opacity="0.2"/></g><g transform="translate(-110,-150) scale(1,1)"><rect fill="#ffffff" stroke="none" x="400" y="272" width="241.3115234375" height="70"/></g><g transform="translate(-110,-150) scale(1,1)"><path fill="none" stroke="#000000" d="M 400 272 L 641.3115234375 272 L 641.3115234375 342 L 400 342 L 400 272 Z Z" stroke-miterlimit="10"/></g><g transform="translate(-110,-150) scale(1,1)"><path fill="none" stroke="#000000" d="M 400 297 L 641.3115234375 297" stroke-miterlimit="10"/></g><g transform="translate(-110,-150) scale(1,1)"><path fill="none" stroke="#000000" d="M 400 320 L 641.3115234375 320" stroke-miterlimit="10"/></g><g transform="translate(-110,-150) scale(1,1)"><g><path fill="none" stroke="none"/><text fill="#000000" stroke="none" font-family="Arial" font-size="13px" font-style="normal" font-weight="bold" text-decoration="none" x="484.889892578125" y="291.5">DataFetcher</text></g></g><g transform="translate(-110,-150) scale(1,1)"><g><path fill="none" stroke="none"/><text fill="#000000" stroke="none" font-family="Arial" font-size="13px" font-style="normal" font-weight="normal" text-decoration="none" x="405" y="314.5">+ArrayList stockList</text></g></g><g transform="translate(-110,-150) scale(1,1)"><g><path fill="none" stroke="none"/><text fill="#000000" stroke="none" font-family="Arial" font-size="13px" font-style="normal" font-weight="normal" text-decoration="none" x="405" y="337.5">+ArrayList fetchData()</text></g></g><g transform="translate(-110,-150) scale(1,1)"><rect fill="#C0C0C0" stroke="none" x="719" y="287" width="157.814453125" height="44" opacity="0.2"/></g><g transform="translate(-110,-150) scale(1,1)"><rect fill="#ffffff" stroke="none" x="712" y="280" width="157.814453125" height="44"/></g><g transform="translate(-110,-150) scale(1,1)"><path fill="none" stroke="#000000" d="M 712 280 L 869.814453125 280 L 869.814453125 324 L 712 324 L 712 280 Z Z" stroke-miterlimit="10"/></g><g transform="translate(-110,-150) scale(1,1)"><path fill="none" stroke="#000000" d="M 712 305 L 869.814453125 305" stroke-miterlimit="10"/></g><g transform="translate(-110,-150) scale(1,1)"><path fill="none" stroke="#000000" d="M 712 315 L 869.814453125 315" stroke-miterlimit="10"/></g><g transform="translate(-110,-150) scale(1,1)"><g><path fill="none" stroke="none"/><text fill="#000000" stroke="none" font-family="Arial" font-size="13px" font-style="normal" font-weight="bold" text-decoration="none" x="721.88916015625" y="299.5">yahoo.finance.api.Stock</text></g></g><g transform="translate(-110,-150) scale(1,1)"><path fill="none" stroke="#000000" d="M 951 419 L 817 419" stroke-miterlimit="10"/></g><g transform="translate(-110,-150) scale(1,1)"><path fill="#000000" stroke="none" d="M 827.1626748576241 414.790482243984 L 817 419 L 827.1626748576241 423.209517756016 L 839 419"/></g><g transform="translate(-110,-150) scale(1,1)"><path fill="none" stroke="#000000" d="M 827.1626748576241 414.790482243984 L 817 419 L 827.1626748576241 423.209517756016 L 839 419 L 827.1626748576241 414.790482243984" stroke-miterlimit="10"/></g><g transform="translate(-110,-150) scale(1,1)"><path fill="none" stroke="#000000" d="M 245 392 L 403 343" stroke-miterlimit="10"/></g><g transform="translate(-110,-150) scale(1,1)"><path fill="none" stroke="#000000" d="M 394.5402915616121 350.03088423581755 L 403 343 L 392.0464968754706 341.98966871723906" stroke-miterlimit="10"/></g><g transform="translate(-110,-150) scale(1,1)"><path fill="none" stroke="#000000" d="M 245 413 L 399 416" stroke-miterlimit="10"/></g><g transform="translate(-110,-150) scale(1,1)"><path fill="none" stroke="#000000" d="M 388.75726487642487 420.0107826154356 L 399 416 L 388.9212409509828 411.593344121462" stroke-miterlimit="10"/></g><g transform="translate(-110,-150) scale(1,1)"><path fill="none" stroke="#000000" d="M 642 305 L 711 303" stroke-miterlimit="10"/></g><g transform="translate(-110,-150) scale(1,1)"><path fill="none" stroke="#000000" d="M 700.9635553724215 307.50219715667276 L 711 303 L 700.7196278051139 299.0866960845581" stroke-miterlimit="10"/></g><g transform="translate(-110,-150) scale(1,1)"><path fill="none" stroke="#000000" d="M 607 419 L 711 419" stroke-miterlimit="10"/></g><g transform="translate(-110,-150) scale(1,1)"><path fill="none" stroke="#000000" d="M 700.8373251423759 423.209517756016 L 711 419 L 700.8373251423758 414.790482243984" stroke-miterlimit="10"/></g><g transform="translate(-110,-150) scale(1,1)"><path fill="none" stroke="#000000" d="M 245 432 L 408 487" stroke-miterlimit="10"/></g><g transform="translate(-110,-150) scale(1,1)"><path fill="none" stroke="#000000" d="M 397.0248810396854 487.7394347888376 L 408 487 L 399.71655960540016 479.76227831226487" stroke-miterlimit="10"/></g><g transform="translate(-110,-150) scale(1,1)"><path fill="none" stroke="#000000" d="M 520 271 L 520 231" stroke-miterlimit="10" stroke-dasharray="3"/></g><g transform="translate(-110,-150) scale(1,1)"><path fill="none" stroke="#000000" d="M 524.209517756016 241.16267485762415 L 520 231 L 515.790482243984 241.16267485762415" stroke-miterlimit="10"/></g><g transform="translate(-110,-150) scale(1,1)"><rect fill="#C0C0C0" stroke="none" x="719" y="383" width="104.01171875" height="87" opacity="0.2"/></g><g transform="translate(-110,-150) scale(1,1)"><rect fill="#ffffff" stroke="none" x="712" y="376" width="104.01171875" height="87"/></g><g transform="translate(-110,-150) scale(1,1)"><path fill="none" stroke="#000000" d="M 712 376 L 816.01171875 376 L 816.01171875 463 L 712 463 L 712 376 Z Z" stroke-miterlimit="10"/></g><g transform="translate(-110,-150) scale(1,1)"><path fill="none" stroke="#000000" d="M 712 401 L 816.01171875 401" stroke-miterlimit="10"/></g><g transform="translate(-110,-150) scale(1,1)"><path fill="none" stroke="#000000" d="M 712 454 L 816.01171875 454" stroke-miterlimit="10"/></g><g transform="translate(-110,-150) scale(1,1)"><g><path fill="none" stroke="none"/><text fill="#000000" stroke="none" font-family="Arial" font-size="13px" font-style="normal" font-weight="bold" text-decoration="none" x="746.660888671875" y="395.5">Share</text></g></g><g transform="translate(-110,-150) scale(1,1)"><g><path fill="none" stroke="none"/><text fill="#000000" stroke="none" font-family="Arial" font-size="13px" font-style="normal" font-weight="normal" text-decoration="none" x="717" y="418.5">+String name</text></g></g><g transform="translate(-110,-150) scale(1,1)"><g><path fill="none" stroke="none"/><text fill="#000000" stroke="none" font-family="Arial" font-size="13px" font-style="normal" font-weight="normal" text-decoration="none" x="717" y="433.5">+String symbol</text></g></g><g transform="translate(-110,-150) scale(1,1)"><g><path fill="none" stroke="none"/><text fill="#000000" stroke="none" font-family="Arial" font-size="13px" font-style="normal" font-weight="normal" text-decoration="none" x="717" y="448.5">+String currency</text></g></g><g transform="translate(-110,-150) scale(1,1)"><rect fill="#C0C0C0" stroke="none" x="959" y="375" width="161.81982421875" height="102" opacity="0.2"/></g><g transform="translate(-110,-150) scale(1,1)"><rect fill="#ffffff" stroke="none" x="952" y="368" width="161.81982421875" height="102"/></g><g transform="translate(-110,-150) scale(1,1)"><path fill="none" stroke="#000000" d="M 952 368 L 1113.81982421875 368 L 1113.81982421875 470 L 952 470 L 952 368 Z Z" stroke-miterlimit="10"/></g><g transform="translate(-110,-150) scale(1,1)"><path fill="none" stroke="#000000" d="M 952 393 L 1113.81982421875 393" stroke-miterlimit="10"/></g><g transform="translate(-110,-150) scale(1,1)"><path fill="none" stroke="#000000" d="M 952 461 L 1113.81982421875 461" stroke-miterlimit="10"/></g><g transform="translate(-110,-150) scale(1,1)"><g><path fill="none" stroke="none"/><text fill="#000000" stroke="none" font-family="Arial" font-size="13px" font-style="normal" font-weight="bold" text-decoration="none" x="1000.755859375" y="387.5">SharePrice</text></g></g><g transform="translate(-110,-150) scale(1,1)"><g><path fill="none" stroke="none"/><text fill="#000000" stroke="none" font-family="Arial" font-size="13px" font-style="normal" font-weight="normal" text-decoration="none" x="957" y="410.5">+Share share</text></g></g><g transform="translate(-110,-150) scale(1,1)"><g><path fill="none" stroke="none"/><text fill="#000000" stroke="none" font-family="Arial" font-size="13px" font-style="normal" font-weight="normal" text-decoration="none" x="957" y="425.5">+BigDecimal price</text></g></g><g transform="translate(-110,-150) scale(1,1)"><g><path fill="none" stroke="none"/><text fill="#000000" stroke="none" font-family="Arial" font-size="13px" font-style="normal" font-weight="normal" text-decoration="none" x="957" y="440.5">+BigDecimal change</text></g></g><g transform="translate(-110,-150) scale(1,1)"><g><path fill="none" stroke="none"/><text fill="#000000" stroke="none" font-family="Arial" font-size="13px" font-style="normal" font-weight="normal" text-decoration="none" x="957" y="455.5">+Date dateTime</text></g></g></g></svg>