<svg version="1.1" xmlns="http://www.w3.org/2000/svg" xmlns:xlink="http://www.w3.org/1999/xlink" width="681.57177734375" height="360"><defs/><g><g transform="translate(-166,-46) scale(1,1)"><rect fill="#C0C0C0" stroke="none" x="721" y="335" width="98.44091796875" height="44" opacity="0.2"/></g><g transform="translate(-166,-46) scale(1,1)"><rect fill="#ffffff" stroke="none" x="714" y="328" width="98.44091796875" height="44"/></g><g transform="translate(-166,-46) scale(1,1)"><path fill="none" stroke="#000000" d="M 714 328 L 812.44091796875 328 L 812.44091796875 372 L 714 372 L 714 328 Z Z" stroke-miterlimit="10"/></g><g transform="translate(-166,-46) scale(1,1)"><rect fill="#ffffff" stroke="none" x="704" y="335" width="20" height="10"/></g><g transform="translate(-166,-46) scale(1,1)"><path fill="none" stroke="#000000" d="M 704 335 L 724 335 L 724 345 L 704 345 L 704 335 Z Z" stroke-miterlimit="10"/></g><g transform="translate(-166,-46) scale(1,1)"><rect fill="#ffffff" stroke="none" x="704" y="355" width="20" height="10"/></g><g transform="translate(-166,-46) scale(1,1)"><path fill="none" stroke="#000000" d="M 704 355 L 724 355 L 724 365 L 704 365 L 704 355 Z Z" stroke-miterlimit="10"/></g><g transform="translate(-166,-46) scale(1,1)"><g><path fill="none" stroke="none"/><text fill="#000000" stroke="none" font-family="Arial" font-size="13px" font-style="normal" font-weight="bold" text-decoration="none" x="739.319580078125" y="347.5">JRE-1.8.0</text></g></g><g transform="translate(-166,-46) scale(1,1)"><rect fill="#C0C0C0" stroke="none" x="705" y="239" width="125.90087890625" height="44" opacity="0.2"/></g><g transform="translate(-166,-46) scale(1,1)"><rect fill="#ffffff" stroke="none" x="698" y="232" width="125.90087890625" height="44"/></g><g transform="translate(-166,-46) scale(1,1)"><path fill="none" stroke="#000000" d="M 698 232 L 823.90087890625 232 L 823.90087890625 276 L 698 276 L 698 232 Z Z" stroke-miterlimit="10"/></g><g transform="translate(-166,-46) scale(1,1)"><rect fill="#ffffff" stroke="none" x="688" y="239" width="20" height="10"/></g><g transform="translate(-166,-46) scale(1,1)"><path fill="none" stroke="#000000" d="M 688 239 L 708 239 L 708 249 L 688 249 L 688 239 Z Z" stroke-miterlimit="10"/></g><g transform="translate(-166,-46) scale(1,1)"><rect fill="#ffffff" stroke="none" x="688" y="259" width="20" height="10"/></g><g transform="translate(-166,-46) scale(1,1)"><path fill="none" stroke="#000000" d="M 688 259 L 708 259 L 708 269 L 688 269 L 688 259 Z Z" stroke-miterlimit="10"/></g><g transform="translate(-166,-46) scale(1,1)"><g><path fill="none" stroke="none"/><text fill="#000000" stroke="none" font-family="Arial" font-size="13px" font-style="normal" font-weight="normal" text-decoration="none" x="742.464111328125" y="249.5">«fat jar»</text></g></g><g transform="translate(-166,-46) scale(1,1)"><g><path fill="none" stroke="none"/><text fill="#000000" stroke="none" font-family="Arial" font-size="13px" font-style="normal" font-weight="bold" text-decoration="none" x="716.432373046875" y="264.5">ods_loading_0_1</text></g></g><g transform="translate(-166,-46) scale(1,1)"><rect fill="#C0C0C0" stroke="none" x="193" y="63" width="209.71533203125" height="44" opacity="0.2"/></g><g transform="translate(-166,-46) scale(1,1)"><rect fill="#ffffff" stroke="none" x="186" y="56" width="209.71533203125" height="44"/></g><g transform="translate(-166,-46) scale(1,1)"><path fill="none" stroke="#000000" d="M 186 56 L 395.71533203125 56 L 395.71533203125 100 L 186 100 L 186 56 Z Z" stroke-miterlimit="10"/></g><g transform="translate(-166,-46) scale(1,1)"><rect fill="#ffffff" stroke="none" x="176" y="63" width="20" height="10"/></g><g transform="translate(-166,-46) scale(1,1)"><path fill="none" stroke="#000000" d="M 176 63 L 196 63 L 196 73 L 176 73 L 176 63 Z Z" stroke-miterlimit="10"/></g><g transform="translate(-166,-46) scale(1,1)"><rect fill="#ffffff" stroke="none" x="176" y="83" width="20" height="10"/></g><g transform="translate(-166,-46) scale(1,1)"><path fill="none" stroke="#000000" d="M 176 83 L 196 83 L 196 93 L 176 93 L 176 83 Z Z" stroke-miterlimit="10"/></g><g transform="translate(-166,-46) scale(1,1)"><g><path fill="none" stroke="none"/><text fill="#000000" stroke="none" font-family="Arial" font-size="13px" font-style="normal" font-weight="normal" text-decoration="none" x="271.654052734375" y="73.5">«mysql»</text></g></g><g transform="translate(-166,-46) scale(1,1)"><g><path fill="none" stroke="none"/><text fill="#000000" stroke="none" font-family="Arial" font-size="13px" font-style="normal" font-weight="bold" text-decoration="none" x="208.041015625" y="88.5">esibank_proto_db_decisionnel</text></g></g><g transform="translate(-166,-46) scale(1,1)"><rect fill="#C0C0C0" stroke="none" x="513" y="63" width="138.1962890625" height="44" opacity="0.2"/></g><g transform="translate(-166,-46) scale(1,1)"><rect fill="#ffffff" stroke="none" x="506" y="56" width="138.1962890625" height="44"/></g><g transform="translate(-166,-46) scale(1,1)"><path fill="none" stroke="#000000" d="M 506 56 L 644.1962890625 56 L 644.1962890625 100 L 506 100 L 506 56 Z Z" stroke-miterlimit="10"/></g><g transform="translate(-166,-46) scale(1,1)"><rect fill="#ffffff" stroke="none" x="496" y="63" width="20" height="10"/></g><g transform="translate(-166,-46) scale(1,1)"><path fill="none" stroke="#000000" d="M 496 63 L 516 63 L 516 73 L 496 73 L 496 63 Z Z" stroke-miterlimit="10"/></g><g transform="translate(-166,-46) scale(1,1)"><rect fill="#ffffff" stroke="none" x="496" y="83" width="20" height="10"/></g><g transform="translate(-166,-46) scale(1,1)"><path fill="none" stroke="#000000" d="M 496 83 L 516 83 L 516 93 L 496 93 L 496 83 Z Z" stroke-miterlimit="10"/></g><g transform="translate(-166,-46) scale(1,1)"><g><path fill="none" stroke="none"/><text fill="#000000" stroke="none" font-family="Arial" font-size="13px" font-style="normal" font-weight="normal" text-decoration="none" x="555.89453125" y="73.5">«mysql»</text></g></g><g transform="translate(-166,-46) scale(1,1)"><g><path fill="none" stroke="none"/><text fill="#000000" stroke="none" font-family="Arial" font-size="13px" font-style="normal" font-weight="bold" text-decoration="none" x="524.8037109375" y="88.5">esibank_proto_db_</text></g></g><g transform="translate(-166,-46) scale(1,1)"><rect fill="#C0C0C0" stroke="none" x="697" y="143" width="147.57177734375" height="44" opacity="0.2"/></g><g transform="translate(-166,-46) scale(1,1)"><rect fill="#ffffff" stroke="none" x="690" y="136" width="147.57177734375" height="44"/></g><g transform="translate(-166,-46) scale(1,1)"><path fill="none" stroke="#000000" d="M 690 136 L 837.57177734375 136 L 837.57177734375 180 L 690 180 L 690 136 Z Z" stroke-miterlimit="10"/></g><g transform="translate(-166,-46) scale(1,1)"><rect fill="#ffffff" stroke="none" x="680" y="143" width="20" height="10"/></g><g transform="translate(-166,-46) scale(1,1)"><path fill="none" stroke="#000000" d="M 680 143 L 700 143 L 700 153 L 680 153 L 680 143 Z Z" stroke-miterlimit="10"/></g><g transform="translate(-166,-46) scale(1,1)"><rect fill="#ffffff" stroke="none" x="680" y="163" width="20" height="10"/></g><g transform="translate(-166,-46) scale(1,1)"><path fill="none" stroke="#000000" d="M 680 163 L 700 163 L 700 173 L 680 173 L 680 163 Z Z" stroke-miterlimit="10"/></g><g transform="translate(-166,-46) scale(1,1)"><g><path fill="none" stroke="none"/><text fill="#000000" stroke="none" font-family="Arial" font-size="13px" font-style="normal" font-weight="normal" text-decoration="none" x="730.852294921875" y="153.5">«shell script»</text></g></g><g transform="translate(-166,-46) scale(1,1)"><g><path fill="none" stroke="none"/><text fill="#000000" stroke="none" font-family="Arial" font-size="13px" font-style="normal" font-weight="bold" text-decoration="none" x="708.44189453125" y="168.5">ODS_loading_run.sh</text></g></g><g transform="translate(-166,-46) scale(1,1)"><rect fill="#C0C0C0" stroke="none" x="377" y="239" width="217.6689453125" height="44" opacity="0.2"/></g><g transform="translate(-166,-46) scale(1,1)"><rect fill="#ffffff" stroke="none" x="370" y="232" width="217.6689453125" height="44"/></g><g transform="translate(-166,-46) scale(1,1)"><path fill="none" stroke="#000000" d="M 370 232 L 587.6689453125 232 L 587.6689453125 276 L 370 276 L 370 232 Z Z" stroke-miterlimit="10"/></g><g transform="translate(-166,-46) scale(1,1)"><rect fill="#ffffff" stroke="none" x="360" y="239" width="20" height="10"/></g><g transform="translate(-166,-46) scale(1,1)"><path fill="none" stroke="#000000" d="M 360 239 L 380 239 L 380 249 L 360 249 L 360 239 Z Z" stroke-miterlimit="10"/></g><g transform="translate(-166,-46) scale(1,1)"><rect fill="#ffffff" stroke="none" x="360" y="259" width="20" height="10"/></g><g transform="translate(-166,-46) scale(1,1)"><path fill="none" stroke="#000000" d="M 360 259 L 380 259 L 380 269 L 360 269 L 360 259 Z Z" stroke-miterlimit="10"/></g><g transform="translate(-166,-46) scale(1,1)"><g><path fill="none" stroke="none"/><text fill="#000000" stroke="none" font-family="Arial" font-size="13px" font-style="normal" font-weight="normal" text-decoration="none" x="469.380859375" y="249.5">«jar»</text></g></g><g transform="translate(-166,-46) scale(1,1)"><g><path fill="none" stroke="none"/><text fill="#000000" stroke="none" font-family="Arial" font-size="13px" font-style="normal" font-weight="bold" text-decoration="none" x="390.9873046875" y="264.5">mysql-connector-java-5.1.30-bin</text></g></g><g transform="translate(-166,-46) scale(1,1)"><path fill="none" stroke="#000000" d="M 756 277 L 757 327" stroke-miterlimit="10" stroke-dasharray="3"/></g><g transform="translate(-166,-46) scale(1,1)"><path fill="none" stroke="#000000" d="M 752.5881110364041 316.9235305898891 L 757 327 L 761.0054632463075 316.755183545691" stroke-miterlimit="10"/></g><g transform="translate(-166,-46) scale(1,1)"><path fill="none" stroke="#000000" d="M 757 181 L 756 231" stroke-miterlimit="10" stroke-dasharray="3"/></g><g transform="translate(-166,-46) scale(1,1)"><path fill="none" stroke="#000000" d="M 751.9945367536925 220.75518354569104 L 756 231 L 760.4118889635959 220.92353058988908" stroke-miterlimit="10"/></g><g transform="translate(-166,-46) scale(1,1)"><path fill="none" stroke="#000000" d="M 687 254 L 589 254" stroke-miterlimit="10" stroke-dasharray="3"/></g><g transform="translate(-166,-46) scale(1,1)"><path fill="none" stroke="#000000" d="M 599.1626748576241 249.790482243984 L 589 254 L 599.1626748576241 258.209517756016" stroke-miterlimit="10"/></g><g transform="translate(-166,-46) scale(1,1)"><path fill="#C0C0C0" stroke="none" d="M 358.7099609375 162.5 C 358.7099609375 156.1487248 363.8586857375 151 370.2099609375 151 C 376.5612361375 151 381.7099609375 156.1487248 381.7099609375 162.5 C 381.7099609375 168.8512752 376.5612361375 174 370.2099609375 174 C 363.8586857375 174 358.7099609375 168.8512752 358.7099609375 162.5 Z" opacity="0.2"/></g><g transform="translate(-166,-46) scale(1,1)"><path fill="none" stroke="#000000" d="M 371.79647877834606 147.59243892349804 A 11.5 11.5 0 0 1 354.20352122165394 162.40756107650196" stroke-miterlimit="10"/></g><g transform="translate(-166,-46) scale(1,1)"><path fill="#ffffff" stroke="none" d="M 354.7099609375 155.5 C 354.7099609375 150.8055792 358.5155401375 147 363.2099609375 147 C 367.9043817375 147 371.7099609375 150.8055792 371.7099609375 155.5 C 371.7099609375 160.1944208 367.9043817375 164 363.2099609375 164 C 358.5155401375 164 354.7099609375 160.1944208 354.7099609375 155.5 Z"/></g><g transform="translate(-166,-46) scale(1,1)"><path fill="none" stroke="#000000" d="M 354.7099609375 155.5 C 354.7099609375 150.8055792 358.5155401375 147 363.2099609375 147 C 367.9043817375 147 371.7099609375 150.8055792 371.7099609375 155.5 C 371.7099609375 160.1944208 367.9043817375 164 363.2099609375 164 C 358.5155401375 164 354.7099609375 160.1944208 354.7099609375 155.5 Z" stroke-miterlimit="10"/></g><g transform="translate(-166,-46) scale(1,1)"><g><path fill="none" stroke="none"/><text fill="#000000" stroke="none" font-family="Arial" font-size="13px" font-style="normal" font-weight="bold" text-decoration="none" x="344.430419921875" y="186.5">ODBC</text></g></g><g transform="translate(-166,-46) scale(1,1)"><path fill="none" stroke="#000000" d="M 305 101 L 351.7099609375 148.841796875" stroke-miterlimit="10"/></g><g transform="translate(-166,-46) scale(1,1)"><path fill="#C0C0C0" stroke="none" d="M 518.7099609375 154.5 C 518.7099609375 148.1487248 523.8586857375 143 530.2099609375 143 C 536.5612361375 143 541.7099609375 148.1487248 541.7099609375 154.5 C 541.7099609375 160.8512752 536.5612361375 166 530.2099609375 166 C 523.8586857375 166 518.7099609375 160.8512752 518.7099609375 154.5 Z" opacity="0.2"/></g><g transform="translate(-166,-46) scale(1,1)"><path fill="none" stroke="#000000" d="M 533.8808858269637 150.72240830922433 A 11.5 11.5 0 0 1 512.1191141730363 143.27759169077567" stroke-miterlimit="10"/></g><g transform="translate(-166,-46) scale(1,1)"><path fill="#ffffff" stroke="none" d="M 514.7099609375 147.5 C 514.7099609375 142.8055792 518.5155401375 139 523.2099609375 139 C 527.9043817375 139 531.7099609375 142.8055792 531.7099609375 147.5 C 531.7099609375 152.1944208 527.9043817375 156 523.2099609375 156 C 518.5155401375 156 514.7099609375 152.1944208 514.7099609375 147.5 Z"/></g><g transform="translate(-166,-46) scale(1,1)"><path fill="none" stroke="#000000" d="M 514.7099609375 147.5 C 514.7099609375 142.8055792 518.5155401375 139 523.2099609375 139 C 527.9043817375 139 531.7099609375 142.8055792 531.7099609375 147.5 C 531.7099609375 152.1944208 527.9043817375 156 523.2099609375 156 C 518.5155401375 156 514.7099609375 152.1944208 514.7099609375 147.5 Z" stroke-miterlimit="10"/></g><g transform="translate(-166,-46) scale(1,1)"><g><path fill="none" stroke="none"/><text fill="#000000" stroke="none" font-family="Arial" font-size="13px" font-style="normal" font-weight="bold" text-decoration="none" x="504.430419921875" y="178.5">ODBC</text></g></g><g transform="translate(-166,-46) scale(1,1)"><path fill="none" stroke="#000000" d="M 557 101 L 534.7099609375 136.962890625" stroke-miterlimit="10"/></g><g transform="translate(-166,-46) scale(1,1)"><path fill="none" stroke="#000000" d="M 444 231 L 373.10526315789474 167" stroke-miterlimit="10"/></g><g transform="translate(-166,-46) scale(1,1)"><path fill="none" stroke="#000000" d="M 485 231 L 518.8947368421053 159" stroke-miterlimit="10"/></g><g transform="translate(-166,-46) scale(1,1)"><rect fill="#C0C0C0" stroke="none" x="313" y="359" width="98.44091796875" height="44" opacity="0.2"/></g><g transform="translate(-166,-46) scale(1,1)"><rect fill="#ffffff" stroke="none" x="306" y="352" width="98.44091796875" height="44"/></g><g transform="translate(-166,-46) scale(1,1)"><path fill="none" stroke="#000000" d="M 306 352 L 404.44091796875 352 L 404.44091796875 396 L 306 396 L 306 352 Z Z" stroke-miterlimit="10"/></g><g transform="translate(-166,-46) scale(1,1)"><rect fill="#ffffff" stroke="none" x="296" y="359" width="20" height="10"/></g><g transform="translate(-166,-46) scale(1,1)"><path fill="none" stroke="#000000" d="M 296 359 L 316 359 L 316 369 L 296 369 L 296 359 Z Z" stroke-miterlimit="10"/></g><g transform="translate(-166,-46) scale(1,1)"><rect fill="#ffffff" stroke="none" x="296" y="379" width="20" height="10"/></g><g transform="translate(-166,-46) scale(1,1)"><path fill="none" stroke="#000000" d="M 296 379 L 316 379 L 316 389 L 296 389 L 296 379 Z Z" stroke-miterlimit="10"/></g><g transform="translate(-166,-46) scale(1,1)"><g><path fill="none" stroke="none"/><text fill="#000000" stroke="none" font-family="Arial" font-size="13px" font-style="normal" font-weight="normal" text-decoration="none" x="341.431396484375" y="369.5">«qvw»</text></g></g><g transform="translate(-166,-46) scale(1,1)"><g><path fill="none" stroke="none"/><text fill="#000000" stroke="none" font-family="Arial" font-size="13px" font-style="normal" font-weight="bold" text-decoration="none" x="337.464111328125" y="384.5">qlikview</text></g></g><g transform="translate(-166,-46) scale(1,1)"><path fill="none" stroke="#000000" d="M 374 351 L 449 277" stroke-miterlimit="10" stroke-dasharray="3"/></g><g transform="translate(-166,-46) scale(1,1)"><path fill="none" stroke="#000000" d="M 444.7223727099889 287.1341948258237 L 449 277 L 438.80930285263895 281.1412186190501" stroke-miterlimit="10"/></g></g></svg>