<svg version="1.1" xmlns="http://www.w3.org/2000/svg" xmlns:xlink="http://www.w3.org/1999/xlink" width="768.1962890625" height="344"><defs/><g><g transform="translate(-38,-78) scale(1,1)"><rect fill="#C0C0C0" stroke="none" x="329" y="375" width="98.44091796875" height="44" opacity="0.2"/></g><g transform="translate(-38,-78) scale(1,1)"><rect fill="#ffffff" stroke="none" x="322" y="368" width="98.44091796875" height="44"/></g><g transform="translate(-38,-78) scale(1,1)"><path fill="none" stroke="#000000" d="M 322 368 L 420.44091796875 368 L 420.44091796875 412 L 322 412 L 322 368 Z Z" stroke-miterlimit="10"/></g><g transform="translate(-38,-78) scale(1,1)"><rect fill="#ffffff" stroke="none" x="312" y="375" width="20" height="10"/></g><g transform="translate(-38,-78) scale(1,1)"><path fill="none" stroke="#000000" d="M 312 375 L 332 375 L 332 385 L 312 385 L 312 375 Z Z" stroke-miterlimit="10"/></g><g transform="translate(-38,-78) scale(1,1)"><rect fill="#ffffff" stroke="none" x="312" y="395" width="20" height="10"/></g><g transform="translate(-38,-78) scale(1,1)"><path fill="none" stroke="#000000" d="M 312 395 L 332 395 L 332 405 L 312 405 L 312 395 Z Z" stroke-miterlimit="10"/></g><g transform="translate(-38,-78) scale(1,1)"><g><path fill="none" stroke="none"/><text fill="#000000" stroke="none" font-family="Arial" font-size="13px" font-style="normal" font-weight="bold" text-decoration="none" x="347.319580078125" y="387.5">JRE-1.8.0</text></g></g><g transform="translate(-38,-78) scale(1,1)"><rect fill="#C0C0C0" stroke="none" x="305" y="247" width="125.90087890625" height="44" opacity="0.2"/></g><g transform="translate(-38,-78) scale(1,1)"><rect fill="#ffffff" stroke="none" x="298" y="240" width="125.90087890625" height="44"/></g><g transform="translate(-38,-78) scale(1,1)"><path fill="none" stroke="#000000" d="M 298 240 L 423.90087890625 240 L 423.90087890625 284 L 298 284 L 298 240 Z Z" stroke-miterlimit="10"/></g><g transform="translate(-38,-78) scale(1,1)"><rect fill="#ffffff" stroke="none" x="288" y="247" width="20" height="10"/></g><g transform="translate(-38,-78) scale(1,1)"><path fill="none" stroke="#000000" d="M 288 247 L 308 247 L 308 257 L 288 257 L 288 247 Z Z" stroke-miterlimit="10"/></g><g transform="translate(-38,-78) scale(1,1)"><rect fill="#ffffff" stroke="none" x="288" y="267" width="20" height="10"/></g><g transform="translate(-38,-78) scale(1,1)"><path fill="none" stroke="#000000" d="M 288 267 L 308 267 L 308 277 L 288 277 L 288 267 Z Z" stroke-miterlimit="10"/></g><g transform="translate(-38,-78) scale(1,1)"><g><path fill="none" stroke="none"/><text fill="#000000" stroke="none" font-family="Arial" font-size="13px" font-style="normal" font-weight="normal" text-decoration="none" x="351.496826171875" y="257.5">«jar»</text></g></g><g transform="translate(-38,-78) scale(1,1)"><g><path fill="none" stroke="none"/><text fill="#000000" stroke="none" font-family="Arial" font-size="13px" font-style="normal" font-weight="bold" text-decoration="none" x="316.432373046875" y="272.5">ods_loading_0_1</text></g></g><g transform="translate(-38,-78) scale(1,1)"><rect fill="#C0C0C0" stroke="none" x="529" y="95" width="209.71533203125" height="44" opacity="0.2"/></g><g transform="translate(-38,-78) scale(1,1)"><rect fill="#ffffff" stroke="none" x="522" y="88" width="209.71533203125" height="44"/></g><g transform="translate(-38,-78) scale(1,1)"><path fill="none" stroke="#000000" d="M 522 88 L 731.71533203125 88 L 731.71533203125 132 L 522 132 L 522 88 Z Z" stroke-miterlimit="10"/></g><g transform="translate(-38,-78) scale(1,1)"><rect fill="#ffffff" stroke="none" x="512" y="95" width="20" height="10"/></g><g transform="translate(-38,-78) scale(1,1)"><path fill="none" stroke="#000000" d="M 512 95 L 532 95 L 532 105 L 512 105 L 512 95 Z Z" stroke-miterlimit="10"/></g><g transform="translate(-38,-78) scale(1,1)"><rect fill="#ffffff" stroke="none" x="512" y="115" width="20" height="10"/></g><g transform="translate(-38,-78) scale(1,1)"><path fill="none" stroke="#000000" d="M 512 115 L 532 115 L 532 125 L 512 125 L 512 115 Z Z" stroke-miterlimit="10"/></g><g transform="translate(-38,-78) scale(1,1)"><g><path fill="none" stroke="none"/><text fill="#000000" stroke="none" font-family="Arial" font-size="13px" font-style="normal" font-weight="normal" text-decoration="none" x="607.654052734375" y="105.5">«mysql»</text></g></g><g transform="translate(-38,-78) scale(1,1)"><g><path fill="none" stroke="none"/><text fill="#000000" stroke="none" font-family="Arial" font-size="13px" font-style="normal" font-weight="bold" text-decoration="none" x="544.041015625" y="120.5">esibank_proto_db_decisionnel</text></g></g><g transform="translate(-38,-78) scale(1,1)"><rect fill="#C0C0C0" stroke="none" x="665" y="247" width="138.1962890625" height="44" opacity="0.2"/></g><g transform="translate(-38,-78) scale(1,1)"><rect fill="#ffffff" stroke="none" x="658" y="240" width="138.1962890625" height="44"/></g><g transform="translate(-38,-78) scale(1,1)"><path fill="none" stroke="#000000" d="M 658 240 L 796.1962890625 240 L 796.1962890625 284 L 658 284 L 658 240 Z Z" stroke-miterlimit="10"/></g><g transform="translate(-38,-78) scale(1,1)"><rect fill="#ffffff" stroke="none" x="648" y="247" width="20" height="10"/></g><g transform="translate(-38,-78) scale(1,1)"><path fill="none" stroke="#000000" d="M 648 247 L 668 247 L 668 257 L 648 257 L 648 247 Z Z" stroke-miterlimit="10"/></g><g transform="translate(-38,-78) scale(1,1)"><rect fill="#ffffff" stroke="none" x="648" y="267" width="20" height="10"/></g><g transform="translate(-38,-78) scale(1,1)"><path fill="none" stroke="#000000" d="M 648 267 L 668 267 L 668 277 L 648 277 L 648 267 Z Z" stroke-miterlimit="10"/></g><g transform="translate(-38,-78) scale(1,1)"><g><path fill="none" stroke="none"/><text fill="#000000" stroke="none" font-family="Arial" font-size="13px" font-style="normal" font-weight="normal" text-decoration="none" x="707.89453125" y="257.5">«mysql»</text></g></g><g transform="translate(-38,-78) scale(1,1)"><g><path fill="none" stroke="none"/><text fill="#000000" stroke="none" font-family="Arial" font-size="13px" font-style="normal" font-weight="bold" text-decoration="none" x="676.8037109375" y="272.5">esibank_proto_db_</text></g></g><g transform="translate(-38,-78) scale(1,1)"><rect fill="#C0C0C0" stroke="none" x="65" y="247" width="147.57177734375" height="44" opacity="0.2"/></g><g transform="translate(-38,-78) scale(1,1)"><rect fill="#ffffff" stroke="none" x="58" y="240" width="147.57177734375" height="44"/></g><g transform="translate(-38,-78) scale(1,1)"><path fill="none" stroke="#000000" d="M 58 240 L 205.57177734375 240 L 205.57177734375 284 L 58 284 L 58 240 Z Z" stroke-miterlimit="10"/></g><g transform="translate(-38,-78) scale(1,1)"><rect fill="#ffffff" stroke="none" x="48" y="247" width="20" height="10"/></g><g transform="translate(-38,-78) scale(1,1)"><path fill="none" stroke="#000000" d="M 48 247 L 68 247 L 68 257 L 48 257 L 48 247 Z Z" stroke-miterlimit="10"/></g><g transform="translate(-38,-78) scale(1,1)"><rect fill="#ffffff" stroke="none" x="48" y="267" width="20" height="10"/></g><g transform="translate(-38,-78) scale(1,1)"><path fill="none" stroke="#000000" d="M 48 267 L 68 267 L 68 277 L 48 277 L 48 267 Z Z" stroke-miterlimit="10"/></g><g transform="translate(-38,-78) scale(1,1)"><g><path fill="none" stroke="none"/><text fill="#000000" stroke="none" font-family="Arial" font-size="13px" font-style="normal" font-weight="normal" text-decoration="none" x="98.852294921875" y="257.5">«shell script»</text></g></g><g transform="translate(-38,-78) scale(1,1)"><g><path fill="none" stroke="none"/><text fill="#000000" stroke="none" font-family="Arial" font-size="13px" font-style="normal" font-weight="bold" text-decoration="none" x="76.44189453125" y="272.5">ODS_loading_run.sh</text></g></g><g transform="translate(-38,-78) scale(1,1)"><rect fill="#C0C0C0" stroke="none" x="569" y="367" width="217.6689453125" height="44" opacity="0.2"/></g><g transform="translate(-38,-78) scale(1,1)"><rect fill="#ffffff" stroke="none" x="562" y="360" width="217.6689453125" height="44"/></g><g transform="translate(-38,-78) scale(1,1)"><path fill="none" stroke="#000000" d="M 562 360 L 779.6689453125 360 L 779.6689453125 404 L 562 404 L 562 360 Z Z" stroke-miterlimit="10"/></g><g transform="translate(-38,-78) scale(1,1)"><rect fill="#ffffff" stroke="none" x="552" y="367" width="20" height="10"/></g><g transform="translate(-38,-78) scale(1,1)"><path fill="none" stroke="#000000" d="M 552 367 L 572 367 L 572 377 L 552 377 L 552 367 Z Z" stroke-miterlimit="10"/></g><g transform="translate(-38,-78) scale(1,1)"><rect fill="#ffffff" stroke="none" x="552" y="387" width="20" height="10"/></g><g transform="translate(-38,-78) scale(1,1)"><path fill="none" stroke="#000000" d="M 552 387 L 572 387 L 572 397 L 552 397 L 552 387 Z Z" stroke-miterlimit="10"/></g><g transform="translate(-38,-78) scale(1,1)"><g><path fill="none" stroke="none"/><text fill="#000000" stroke="none" font-family="Arial" font-size="13px" font-style="normal" font-weight="normal" text-decoration="none" x="661.380859375" y="377.5">«jar»</text></g></g><g transform="translate(-38,-78) scale(1,1)"><g><path fill="none" stroke="none"/><text fill="#000000" stroke="none" font-family="Arial" font-size="13px" font-style="normal" font-weight="bold" text-decoration="none" x="582.9873046875" y="392.5">mysql-connector-java-5.1.30-bin</text></g></g><g transform="translate(-38,-78) scale(1,1)"><path fill="none" stroke="#000000" d="M 357 285 L 364 367" stroke-miterlimit="10" stroke-dasharray="3"/></g><g transform="translate(-38,-78) scale(1,1)"><path fill="none" stroke="#000000" d="M 358.94133544733234 357.2322001994521 L 364 367 L 367.3298614673007 356.51610651482065" stroke-miterlimit="10"/></g><g transform="translate(-38,-78) scale(1,1)"><path fill="none" stroke="#000000" d="M 207 262 L 287 262" stroke-miterlimit="10" stroke-dasharray="3"/></g><g transform="translate(-38,-78) scale(1,1)"><path fill="none" stroke="#000000" d="M 276.83732514237585 266.209517756016 L 287 262 L 276.83732514237585 257.790482243984" stroke-miterlimit="10"/></g><g transform="translate(-38,-78) scale(1,1)"><path fill="none" stroke="#000000" d="M 414 285 L 606 359" stroke-miterlimit="10" stroke-dasharray="3"/></g><g transform="translate(-38,-78) scale(1,1)"><path fill="none" stroke="#000000" d="M 595.003390027792 359.27307346838205 L 606 359 L 598.031130417333 351.4173146198432" stroke-miterlimit="10"/></g><g transform="translate(-38,-78) scale(1,1)"><path fill="none" stroke="#000000" d="M 609 133 L 550.7099609375 248.19080528846155" stroke-miterlimit="10"/></g><g transform="translate(-38,-78) scale(1,1)"><path fill="#C0C0C0" stroke="none" d="M 534.7099609375 266.5 C 534.7099609375 260.1487248 539.8586857375 255 546.2099609375 255 C 552.5612361375 255 557.7099609375 260.1487248 557.7099609375 266.5 C 557.7099609375 272.8512752 552.5612361375 278 546.2099609375 278 C 539.8586857375 278 534.7099609375 272.8512752 534.7099609375 266.5 Z" opacity="0.2"/></g><g transform="translate(-38,-78) scale(1,1)"><path fill="none" stroke="#000000" d="M 542.3605131593887 269.9980430670904 A 11.5 11.5 0 0 1 535.6394868406113 248.0019569329096" stroke-miterlimit="10"/></g><g transform="translate(-38,-78) scale(1,1)"><path fill="#ffffff" stroke="none" d="M 530.7099609375 259.5 C 530.7099609375 254.8055792 534.5155401375 251 539.2099609375 251 C 543.9043817375 251 547.7099609375 254.8055792 547.7099609375 259.5 C 547.7099609375 264.1944208 543.9043817375 268 539.2099609375 268 C 534.5155401375 268 530.7099609375 264.1944208 530.7099609375 259.5 Z"/></g><g transform="translate(-38,-78) scale(1,1)"><path fill="none" stroke="#000000" d="M 530.7099609375 259.5 C 530.7099609375 254.8055792 534.5155401375 251 539.2099609375 251 C 543.9043817375 251 547.7099609375 254.8055792 547.7099609375 259.5 C 547.7099609375 264.1944208 543.9043817375 268 539.2099609375 268 C 534.5155401375 268 530.7099609375 264.1944208 530.7099609375 259.5 Z" stroke-miterlimit="10"/></g><g transform="translate(-38,-78) scale(1,1)"><g><path fill="none" stroke="none"/><text fill="#000000" stroke="none" font-family="Arial" font-size="13px" font-style="normal" font-weight="bold" text-decoration="none" x="520.430419921875" y="290.5">ODBC</text></g></g><g transform="translate(-38,-78) scale(1,1)"><path fill="none" stroke="#000000" d="M 647 266 L 550.7099609375 262.5780436197917" stroke-miterlimit="10"/></g><g transform="translate(-38,-78) scale(1,1)"><path fill="none" stroke="#000000" d="M 425 266 L 527.7099609375 262.4497341579861" stroke-miterlimit="10"/></g><g transform="translate(-38,-78) scale(1,1)"><rect fill="#C0C0C0" stroke="none" x="225" y="111" width="98.44091796875" height="44" opacity="0.2"/></g><g transform="translate(-38,-78) scale(1,1)"><rect fill="#ffffff" stroke="none" x="218" y="104" width="98.44091796875" height="44"/></g><g transform="translate(-38,-78) scale(1,1)"><path fill="none" stroke="#000000" d="M 218 104 L 316.44091796875 104 L 316.44091796875 148 L 218 148 L 218 104 Z Z" stroke-miterlimit="10"/></g><g transform="translate(-38,-78) scale(1,1)"><rect fill="#ffffff" stroke="none" x="208" y="111" width="20" height="10"/></g><g transform="translate(-38,-78) scale(1,1)"><path fill="none" stroke="#000000" d="M 208 111 L 228 111 L 228 121 L 208 121 L 208 111 Z Z" stroke-miterlimit="10"/></g><g transform="translate(-38,-78) scale(1,1)"><rect fill="#ffffff" stroke="none" x="208" y="131" width="20" height="10"/></g><g transform="translate(-38,-78) scale(1,1)"><path fill="none" stroke="#000000" d="M 208 131 L 228 131 L 228 141 L 208 141 L 208 131 Z Z" stroke-miterlimit="10"/></g><g transform="translate(-38,-78) scale(1,1)"><g><path fill="none" stroke="none"/><text fill="#000000" stroke="none" font-family="Arial" font-size="13px" font-style="normal" font-weight="normal" text-decoration="none" x="253.431396484375" y="121.5">«qvw»</text></g></g><g transform="translate(-38,-78) scale(1,1)"><g><path fill="none" stroke="none"/><text fill="#000000" stroke="none" font-family="Arial" font-size="13px" font-style="normal" font-weight="bold" text-decoration="none" x="249.464111328125" y="136.5">qlikview</text></g></g><g transform="translate(-38,-78) scale(1,1)"><path fill="#C0C0C0" stroke="none" d="M 425.7099609375 130.5 C 425.7099609375 124.1487248 430.8586857375 119 437.2099609375 119 C 443.5612361375 119 448.7099609375 124.1487248 448.7099609375 130.5 C 448.7099609375 136.8512752 443.5612361375 142 437.2099609375 142 C 430.8586857375 142 425.7099609375 136.8512752 425.7099609375 130.5 Z" opacity="0.2"/></g><g transform="translate(-38,-78) scale(1,1)"><path fill="none" stroke="#000000" d="M 433.36051315938874 133.9980430670904 A 11.5 11.5 0 1 1 426.63948684061126 112.00195693290961" stroke-miterlimit="10"/></g><g transform="translate(-38,-78) scale(1,1)"><path fill="#ffffff" stroke="none" d="M 421.7099609375 123.5 C 421.7099609375 118.8055792 425.5155401375 115 430.2099609375 115 C 434.9043817375 115 438.7099609375 118.8055792 438.7099609375 123.5 C 438.7099609375 128.1944208 434.9043817375 132 430.2099609375 132 C 425.5155401375 132 421.7099609375 128.1944208 421.7099609375 123.5 Z"/></g><g transform="translate(-38,-78) scale(1,1)"><path fill="none" stroke="#000000" d="M 421.7099609375 123.5 C 421.7099609375 118.8055792 425.5155401375 115 430.2099609375 115 C 434.9043817375 115 438.7099609375 118.8055792 438.7099609375 123.5 C 438.7099609375 128.1944208 434.9043817375 132 430.2099609375 132 C 425.5155401375 132 421.7099609375 128.1944208 421.7099609375 123.5 Z" stroke-miterlimit="10"/></g><g transform="translate(-38,-78) scale(1,1)"><g><path fill="none" stroke="none"/><text fill="#000000" stroke="none" font-family="Arial" font-size="13px" font-style="normal" font-weight="bold" text-decoration="none" x="411.430419921875" y="154.5">ODBC</text></g></g><g transform="translate(-38,-78) scale(1,1)"><path fill="none" stroke="#000000" d="M 317 129 L 418.7099609375 126.44973415798611" stroke-miterlimit="10"/></g><g transform="translate(-38,-78) scale(1,1)"><path fill="none" stroke="#000000" d="M 511 125 L 441.7099609375 125.60221354166667" stroke-miterlimit="10"/></g></g></svg>