<svg version="1.1" xmlns="http://www.w3.org/2000/svg" xmlns:xlink="http://www.w3.org/1999/xlink" width="841.57177734375" height="336"><defs/><g><g transform="translate(-6,-126) scale(1,1)"><rect fill="#C0C0C0" stroke="none" x="721" y="335" width="98.44091796875" height="44" opacity="0.2"/></g><g transform="translate(-6,-126) scale(1,1)"><rect fill="#ffffff" stroke="none" x="714" y="328" width="98.44091796875" height="44"/></g><g transform="translate(-6,-126) scale(1,1)"><path fill="none" stroke="#000000" d="M 714 328 L 812.44091796875 328 L 812.44091796875 372 L 714 372 L 714 328 Z Z" stroke-miterlimit="10"/></g><g transform="translate(-6,-126) scale(1,1)"><rect fill="#ffffff" stroke="none" x="704" y="335" width="20" height="10"/></g><g transform="translate(-6,-126) scale(1,1)"><path fill="none" stroke="#000000" d="M 704 335 L 724 335 L 724 345 L 704 345 L 704 335 Z Z" stroke-miterlimit="10"/></g><g transform="translate(-6,-126) scale(1,1)"><rect fill="#ffffff" stroke="none" x="704" y="355" width="20" height="10"/></g><g transform="translate(-6,-126) scale(1,1)"><path fill="none" stroke="#000000" d="M 704 355 L 724 355 L 724 365 L 704 365 L 704 355 Z Z" stroke-miterlimit="10"/></g><g transform="translate(-6,-126) scale(1,1)"><g><path fill="none" stroke="none"/><text fill="#000000" stroke="none" font-family="Arial" font-size="13px" font-style="normal" font-weight="bold" text-decoration="none" x="739.319580078125" y="347.5">JRE-1.8.0</text></g></g><g transform="translate(-6,-126) scale(1,1)"><rect fill="#C0C0C0" stroke="none" x="705" y="239" width="125.90087890625" height="44" opacity="0.2"/></g><g transform="translate(-6,-126) scale(1,1)"><rect fill="#ffffff" stroke="none" x="698" y="232" width="125.90087890625" height="44"/></g><g transform="translate(-6,-126) scale(1,1)"><path fill="none" stroke="#000000" d="M 698 232 L 823.90087890625 232 L 823.90087890625 276 L 698 276 L 698 232 Z Z" stroke-miterlimit="10"/></g><g transform="translate(-6,-126) scale(1,1)"><rect fill="#ffffff" stroke="none" x="688" y="239" width="20" height="10"/></g><g transform="translate(-6,-126) scale(1,1)"><path fill="none" stroke="#000000" d="M 688 239 L 708 239 L 708 249 L 688 249 L 688 239 Z Z" stroke-miterlimit="10"/></g><g transform="translate(-6,-126) scale(1,1)"><rect fill="#ffffff" stroke="none" x="688" y="259" width="20" height="10"/></g><g transform="translate(-6,-126) scale(1,1)"><path fill="none" stroke="#000000" d="M 688 259 L 708 259 L 708 269 L 688 269 L 688 259 Z Z" stroke-miterlimit="10"/></g><g transform="translate(-6,-126) scale(1,1)"><g><path fill="none" stroke="none"/><text fill="#000000" stroke="none" font-family="Arial" font-size="13px" font-style="normal" font-weight="normal" text-decoration="none" x="742.464111328125" y="249.5">«fat jar»</text></g></g><g transform="translate(-6,-126) scale(1,1)"><g><path fill="none" stroke="none"/><text fill="#000000" stroke="none" font-family="Arial" font-size="13px" font-style="normal" font-weight="bold" text-decoration="none" x="716.432373046875" y="264.5">ods_loading_0_1</text></g></g><g transform="translate(-6,-126) scale(1,1)"><rect fill="#C0C0C0" stroke="none" x="33" y="231" width="209.71533203125" height="44" opacity="0.2"/></g><g transform="translate(-6,-126) scale(1,1)"><rect fill="#ffffff" stroke="none" x="26" y="224" width="209.71533203125" height="44"/></g><g transform="translate(-6,-126) scale(1,1)"><path fill="none" stroke="#000000" d="M 26 224 L 235.71533203125 224 L 235.71533203125 268 L 26 268 L 26 224 Z Z" stroke-miterlimit="10"/></g><g transform="translate(-6,-126) scale(1,1)"><rect fill="#ffffff" stroke="none" x="16" y="231" width="20" height="10"/></g><g transform="translate(-6,-126) scale(1,1)"><path fill="none" stroke="#000000" d="M 16 231 L 36 231 L 36 241 L 16 241 L 16 231 Z Z" stroke-miterlimit="10"/></g><g transform="translate(-6,-126) scale(1,1)"><rect fill="#ffffff" stroke="none" x="16" y="251" width="20" height="10"/></g><g transform="translate(-6,-126) scale(1,1)"><path fill="none" stroke="#000000" d="M 16 251 L 36 251 L 36 261 L 16 261 L 16 251 Z Z" stroke-miterlimit="10"/></g><g transform="translate(-6,-126) scale(1,1)"><g><path fill="none" stroke="none"/><text fill="#000000" stroke="none" font-family="Arial" font-size="13px" font-style="normal" font-weight="normal" text-decoration="none" x="111.654052734375" y="241.5">«mysql»</text></g></g><g transform="translate(-6,-126) scale(1,1)"><g><path fill="none" stroke="none"/><text fill="#000000" stroke="none" font-family="Arial" font-size="13px" font-style="normal" font-weight="bold" text-decoration="none" x="48.041015625" y="256.5">esibank_proto_db_decisionnel</text></g></g><g transform="translate(-6,-126) scale(1,1)"><rect fill="#C0C0C0" stroke="none" x="417" y="415" width="138.1962890625" height="44" opacity="0.2"/></g><g transform="translate(-6,-126) scale(1,1)"><rect fill="#ffffff" stroke="none" x="410" y="408" width="138.1962890625" height="44"/></g><g transform="translate(-6,-126) scale(1,1)"><path fill="none" stroke="#000000" d="M 410 408 L 548.1962890625 408 L 548.1962890625 452 L 410 452 L 410 408 Z Z" stroke-miterlimit="10"/></g><g transform="translate(-6,-126) scale(1,1)"><rect fill="#ffffff" stroke="none" x="400" y="415" width="20" height="10"/></g><g transform="translate(-6,-126) scale(1,1)"><path fill="none" stroke="#000000" d="M 400 415 L 420 415 L 420 425 L 400 425 L 400 415 Z Z" stroke-miterlimit="10"/></g><g transform="translate(-6,-126) scale(1,1)"><rect fill="#ffffff" stroke="none" x="400" y="435" width="20" height="10"/></g><g transform="translate(-6,-126) scale(1,1)"><path fill="none" stroke="#000000" d="M 400 435 L 420 435 L 420 445 L 400 445 L 400 435 Z Z" stroke-miterlimit="10"/></g><g transform="translate(-6,-126) scale(1,1)"><g><path fill="none" stroke="none"/><text fill="#000000" stroke="none" font-family="Arial" font-size="13px" font-style="normal" font-weight="normal" text-decoration="none" x="459.89453125" y="425.5">«mysql»</text></g></g><g transform="translate(-6,-126) scale(1,1)"><g><path fill="none" stroke="none"/><text fill="#000000" stroke="none" font-family="Arial" font-size="13px" font-style="normal" font-weight="bold" text-decoration="none" x="428.8037109375" y="440.5">esibank_proto_db_</text></g></g><g transform="translate(-6,-126) scale(1,1)"><rect fill="#C0C0C0" stroke="none" x="697" y="143" width="147.57177734375" height="44" opacity="0.2"/></g><g transform="translate(-6,-126) scale(1,1)"><rect fill="#ffffff" stroke="none" x="690" y="136" width="147.57177734375" height="44"/></g><g transform="translate(-6,-126) scale(1,1)"><path fill="none" stroke="#000000" d="M 690 136 L 837.57177734375 136 L 837.57177734375 180 L 690 180 L 690 136 Z Z" stroke-miterlimit="10"/></g><g transform="translate(-6,-126) scale(1,1)"><rect fill="#ffffff" stroke="none" x="680" y="143" width="20" height="10"/></g><g transform="translate(-6,-126) scale(1,1)"><path fill="none" stroke="#000000" d="M 680 143 L 700 143 L 700 153 L 680 153 L 680 143 Z Z" stroke-miterlimit="10"/></g><g transform="translate(-6,-126) scale(1,1)"><rect fill="#ffffff" stroke="none" x="680" y="163" width="20" height="10"/></g><g transform="translate(-6,-126) scale(1,1)"><path fill="none" stroke="#000000" d="M 680 163 L 700 163 L 700 173 L 680 173 L 680 163 Z Z" stroke-miterlimit="10"/></g><g transform="translate(-6,-126) scale(1,1)"><g><path fill="none" stroke="none"/><text fill="#000000" stroke="none" font-family="Arial" font-size="13px" font-style="normal" font-weight="normal" text-decoration="none" x="730.852294921875" y="153.5">«shell script»</text></g></g><g transform="translate(-6,-126) scale(1,1)"><g><path fill="none" stroke="none"/><text fill="#000000" stroke="none" font-family="Arial" font-size="13px" font-style="normal" font-weight="bold" text-decoration="none" x="708.44189453125" y="168.5">ODS_loading_run.sh</text></g></g><g transform="translate(-6,-126) scale(1,1)"><rect fill="#C0C0C0" stroke="none" x="377" y="239" width="217.6689453125" height="44" opacity="0.2"/></g><g transform="translate(-6,-126) scale(1,1)"><rect fill="#ffffff" stroke="none" x="370" y="232" width="217.6689453125" height="44"/></g><g transform="translate(-6,-126) scale(1,1)"><path fill="none" stroke="#000000" d="M 370 232 L 587.6689453125 232 L 587.6689453125 276 L 370 276 L 370 232 Z Z" stroke-miterlimit="10"/></g><g transform="translate(-6,-126) scale(1,1)"><rect fill="#ffffff" stroke="none" x="360" y="239" width="20" height="10"/></g><g transform="translate(-6,-126) scale(1,1)"><path fill="none" stroke="#000000" d="M 360 239 L 380 239 L 380 249 L 360 249 L 360 239 Z Z" stroke-miterlimit="10"/></g><g transform="translate(-6,-126) scale(1,1)"><rect fill="#ffffff" stroke="none" x="360" y="259" width="20" height="10"/></g><g transform="translate(-6,-126) scale(1,1)"><path fill="none" stroke="#000000" d="M 360 259 L 380 259 L 380 269 L 360 269 L 360 259 Z Z" stroke-miterlimit="10"/></g><g transform="translate(-6,-126) scale(1,1)"><g><path fill="none" stroke="none"/><text fill="#000000" stroke="none" font-family="Arial" font-size="13px" font-style="normal" font-weight="normal" text-decoration="none" x="469.380859375" y="249.5">«jar»</text></g></g><g transform="translate(-6,-126) scale(1,1)"><g><path fill="none" stroke="none"/><text fill="#000000" stroke="none" font-family="Arial" font-size="13px" font-style="normal" font-weight="bold" text-decoration="none" x="390.9873046875" y="264.5">mysql-connector-java-5.1.30-bin</text></g></g><g transform="translate(-6,-126) scale(1,1)"><path fill="none" stroke="#000000" d="M 756 277 L 757 327" stroke-miterlimit="10" stroke-dasharray="3"/></g><g transform="translate(-6,-126) scale(1,1)"><path fill="none" stroke="#000000" d="M 752.5881110364041 316.9235305898891 L 757 327 L 761.0054632463075 316.755183545691" stroke-miterlimit="10"/></g><g transform="translate(-6,-126) scale(1,1)"><path fill="none" stroke="#000000" d="M 757 181 L 756 231" stroke-miterlimit="10" stroke-dasharray="3"/></g><g transform="translate(-6,-126) scale(1,1)"><path fill="none" stroke="#000000" d="M 751.9945367536925 220.75518354569104 L 756 231 L 760.4118889635959 220.92353058988908" stroke-miterlimit="10"/></g><g transform="translate(-6,-126) scale(1,1)"><path fill="none" stroke="#000000" d="M 687 254 L 589 254" stroke-miterlimit="10" stroke-dasharray="3"/></g><g transform="translate(-6,-126) scale(1,1)"><path fill="none" stroke="#000000" d="M 599.1626748576241 249.790482243984 L 589 254 L 599.1626748576241 258.209517756016" stroke-miterlimit="10"/></g><g transform="translate(-6,-126) scale(1,1)"><path fill="#C0C0C0" stroke="none" d="M 286.7099609375 274.5 C 286.7099609375 268.1487248 291.8586857375 263 298.2099609375 263 C 304.5612361375 263 309.7099609375 268.1487248 309.7099609375 274.5 C 309.7099609375 280.8512752 304.5612361375 286 298.2099609375 286 C 291.8586857375 286 286.7099609375 280.8512752 286.7099609375 274.5 Z" opacity="0.2"/></g><g transform="translate(-6,-126) scale(1,1)"><path fill="none" stroke="#000000" d="M 293.49470026491457 255.77384880788455 A 11.5 11.5 0 0 1 288.50529973508543 278.2261511921155" stroke-miterlimit="10"/></g><g transform="translate(-6,-126) scale(1,1)"><path fill="#ffffff" stroke="none" d="M 282.7099609375 267.5 C 282.7099609375 262.8055792 286.5155401375 259 291.2099609375 259 C 295.9043817375 259 299.7099609375 262.8055792 299.7099609375 267.5 C 299.7099609375 272.1944208 295.9043817375 276 291.2099609375 276 C 286.5155401375 276 282.7099609375 272.1944208 282.7099609375 267.5 Z"/></g><g transform="translate(-6,-126) scale(1,1)"><path fill="none" stroke="#000000" d="M 282.7099609375 267.5 C 282.7099609375 262.8055792 286.5155401375 259 291.2099609375 259 C 295.9043817375 259 299.7099609375 262.8055792 299.7099609375 267.5 C 299.7099609375 272.1944208 295.9043817375 276 291.2099609375 276 C 286.5155401375 276 282.7099609375 272.1944208 282.7099609375 267.5 Z" stroke-miterlimit="10"/></g><g transform="translate(-6,-126) scale(1,1)"><g><path fill="none" stroke="none"/><text fill="#000000" stroke="none" font-family="Arial" font-size="13px" font-style="normal" font-weight="bold" text-decoration="none" x="272.430419921875" y="298.5">ODBC</text></g></g><g transform="translate(-6,-126) scale(1,1)"><path fill="none" stroke="#000000" d="M 237 269 L 279.7099609375 268.8816731770833" stroke-miterlimit="10"/></g><g transform="translate(-6,-126) scale(1,1)"><path fill="#C0C0C0" stroke="none" d="M 470.7099609375 354.5 C 470.7099609375 348.1487248 475.8586857375 343 482.2099609375 343 C 488.5612361375 343 493.7099609375 348.1487248 493.7099609375 354.5 C 493.7099609375 360.8512752 488.5612361375 366 482.2099609375 366 C 475.8586857375 366 470.7099609375 360.8512752 470.7099609375 354.5 Z" opacity="0.2"/></g><g transform="translate(-6,-126) scale(1,1)"><path fill="none" stroke="#000000" d="M 463.5 347 A 11.5 11.5 0 0 1 486.5 347" stroke-miterlimit="10"/></g><g transform="translate(-6,-126) scale(1,1)"><path fill="#ffffff" stroke="none" d="M 466.7099609375 347.5 C 466.7099609375 342.8055792 470.5155401375 339 475.2099609375 339 C 479.9043817375 339 483.7099609375 342.8055792 483.7099609375 347.5 C 483.7099609375 352.1944208 479.9043817375 356 475.2099609375 356 C 470.5155401375 356 466.7099609375 352.1944208 466.7099609375 347.5 Z"/></g><g transform="translate(-6,-126) scale(1,1)"><path fill="none" stroke="#000000" d="M 466.7099609375 347.5 C 466.7099609375 342.8055792 470.5155401375 339 475.2099609375 339 C 479.9043817375 339 483.7099609375 342.8055792 483.7099609375 347.5 C 483.7099609375 352.1944208 479.9043817375 356 475.2099609375 356 C 470.5155401375 356 466.7099609375 352.1944208 466.7099609375 347.5 Z" stroke-miterlimit="10"/></g><g transform="translate(-6,-126) scale(1,1)"><g><path fill="none" stroke="none"/><text fill="#000000" stroke="none" font-family="Arial" font-size="13px" font-style="normal" font-weight="bold" text-decoration="none" x="456.430419921875" y="378.5">ODBC</text></g></g><g transform="translate(-6,-126) scale(1,1)"><path fill="none" stroke="#000000" d="M 474 407 L 475 359" stroke-miterlimit="10"/></g><g transform="translate(-6,-126) scale(1,1)"><path fill="none" stroke="#000000" d="M 359 270 L 302.7099609375 269.6022135416667" stroke-miterlimit="10"/></g><g transform="translate(-6,-126) scale(1,1)"><path fill="none" stroke="#000000" d="M 473 277 L 475 336" stroke-miterlimit="10"/></g></g></svg>