<svg version="1.1" xmlns="http://www.w3.org/2000/svg" xmlns:xlink="http://www.w3.org/1999/xlink" width="717.76171875" height="432"><defs/><g><g transform="translate(-110,-30) scale(1,1)"><rect fill="#C0C0C0" stroke="none" x="689" y="343" width="98.44091796875" height="44" opacity="0.2"/></g><g transform="translate(-110,-30) scale(1,1)"><rect fill="#ffffff" stroke="none" x="682" y="336" width="98.44091796875" height="44"/></g><g transform="translate(-110,-30) scale(1,1)"><path fill="none" stroke="#000000" d="M 682 336 L 780.44091796875 336 L 780.44091796875 380 L 682 380 L 682 336 Z Z" stroke-miterlimit="10"/></g><g transform="translate(-110,-30) scale(1,1)"><rect fill="#ffffff" stroke="none" x="672" y="343" width="20" height="10"/></g><g transform="translate(-110,-30) scale(1,1)"><path fill="none" stroke="#000000" d="M 672 343 L 692 343 L 692 353 L 672 353 L 672 343 Z Z" stroke-miterlimit="10"/></g><g transform="translate(-110,-30) scale(1,1)"><rect fill="#ffffff" stroke="none" x="672" y="363" width="20" height="10"/></g><g transform="translate(-110,-30) scale(1,1)"><path fill="none" stroke="#000000" d="M 672 363 L 692 363 L 692 373 L 672 373 L 672 363 Z Z" stroke-miterlimit="10"/></g><g transform="translate(-110,-30) scale(1,1)"><g><path fill="none" stroke="none"/><text fill="#000000" stroke="none" font-family="Arial" font-size="13px" font-style="normal" font-weight="bold" text-decoration="none" x="707.319580078125" y="355.5">JRE-1.8.0</text></g></g><g transform="translate(-110,-30) scale(1,1)"><rect fill="#C0C0C0" stroke="none" x="657" y="247" width="157.72802734375" height="44" opacity="0.2"/></g><g transform="translate(-110,-30) scale(1,1)"><rect fill="#ffffff" stroke="none" x="650" y="240" width="157.72802734375" height="44"/></g><g transform="translate(-110,-30) scale(1,1)"><path fill="none" stroke="#000000" d="M 650 240 L 807.72802734375 240 L 807.72802734375 284 L 650 284 L 650 240 Z Z" stroke-miterlimit="10"/></g><g transform="translate(-110,-30) scale(1,1)"><rect fill="#ffffff" stroke="none" x="640" y="247" width="20" height="10"/></g><g transform="translate(-110,-30) scale(1,1)"><path fill="none" stroke="#000000" d="M 640 247 L 660 247 L 660 257 L 640 257 L 640 247 Z Z" stroke-miterlimit="10"/></g><g transform="translate(-110,-30) scale(1,1)"><rect fill="#ffffff" stroke="none" x="640" y="267" width="20" height="10"/></g><g transform="translate(-110,-30) scale(1,1)"><path fill="none" stroke="#000000" d="M 640 267 L 660 267 L 660 277 L 640 277 L 640 267 Z Z" stroke-miterlimit="10"/></g><g transform="translate(-110,-30) scale(1,1)"><g><path fill="none" stroke="none"/><text fill="#000000" stroke="none" font-family="Arial" font-size="13px" font-style="normal" font-weight="normal" text-decoration="none" x="710.377685546875" y="257.5">«fat jar»</text></g></g><g transform="translate(-110,-30) scale(1,1)"><g><path fill="none" stroke="none"/><text fill="#000000" stroke="none" font-family="Arial" font-size="13px" font-style="normal" font-weight="bold" text-decoration="none" x="668.080078125" y="272.5">dataLake_loading_0_1</text></g></g><g transform="translate(-110,-30) scale(1,1)"><rect fill="#C0C0C0" stroke="none" x="449" y="47" width="209.71533203125" height="44" opacity="0.2"/></g><g transform="translate(-110,-30) scale(1,1)"><rect fill="#a3e0ff" stroke="none" x="442" y="40" width="209.71533203125" height="44"/></g><g transform="translate(-110,-30) scale(1,1)"><path fill="none" stroke="#000000" d="M 442 40 L 651.71533203125 40 L 651.71533203125 84 L 442 84 L 442 40 Z Z" stroke-miterlimit="10"/></g><g transform="translate(-110,-30) scale(1,1)"><rect fill="#a3e0ff" stroke="none" x="432" y="47" width="20" height="10"/></g><g transform="translate(-110,-30) scale(1,1)"><path fill="none" stroke="#000000" d="M 432 47 L 452 47 L 452 57 L 432 57 L 432 47 Z Z" stroke-miterlimit="10"/></g><g transform="translate(-110,-30) scale(1,1)"><rect fill="#a3e0ff" stroke="none" x="432" y="67" width="20" height="10"/></g><g transform="translate(-110,-30) scale(1,1)"><path fill="none" stroke="#000000" d="M 432 67 L 452 67 L 452 77 L 432 77 L 432 67 Z Z" stroke-miterlimit="10"/></g><g transform="translate(-110,-30) scale(1,1)"><g><path fill="none" stroke="none"/><text fill="#000000" stroke="none" font-family="Arial" font-size="13px" font-style="normal" font-weight="normal" text-decoration="none" x="527.654052734375" y="57.5">«mysql»</text></g></g><g transform="translate(-110,-30) scale(1,1)"><g><path fill="none" stroke="none"/><text fill="#000000" stroke="none" font-family="Arial" font-size="13px" font-style="normal" font-weight="bold" text-decoration="none" x="503.0791015625" y="72.5">esibank-proto-db</text></g></g><g transform="translate(-110,-30) scale(1,1)"><rect fill="#C0C0C0" stroke="none" x="369" y="415" width="138.1962890625" height="44" opacity="0.2"/></g><g transform="translate(-110,-30) scale(1,1)"><rect fill="#a3e0ff" stroke="none" x="362" y="408" width="138.1962890625" height="44"/></g><g transform="translate(-110,-30) scale(1,1)"><path fill="none" stroke="#000000" d="M 362 408 L 500.1962890625 408 L 500.1962890625 452 L 362 452 L 362 408 Z Z" stroke-miterlimit="10"/></g><g transform="translate(-110,-30) scale(1,1)"><rect fill="#a3e0ff" stroke="none" x="352" y="415" width="20" height="10"/></g><g transform="translate(-110,-30) scale(1,1)"><path fill="none" stroke="#000000" d="M 352 415 L 372 415 L 372 425 L 352 425 L 352 415 Z Z" stroke-miterlimit="10"/></g><g transform="translate(-110,-30) scale(1,1)"><rect fill="#a3e0ff" stroke="none" x="352" y="435" width="20" height="10"/></g><g transform="translate(-110,-30) scale(1,1)"><path fill="none" stroke="#000000" d="M 352 435 L 372 435 L 372 445 L 352 445 L 352 435 Z Z" stroke-miterlimit="10"/></g><g transform="translate(-110,-30) scale(1,1)"><g><path fill="none" stroke="none"/><text fill="#000000" stroke="none" font-family="Arial" font-size="13px" font-style="normal" font-weight="normal" text-decoration="none" x="411.89453125" y="425.5">«mysql»</text></g></g><g transform="translate(-110,-30) scale(1,1)"><g><path fill="none" stroke="none"/><text fill="#000000" stroke="none" font-family="Arial" font-size="13px" font-style="normal" font-weight="bold" text-decoration="none" x="384.418701171875" y="440.5">esibank_proto_db</text></g></g><g transform="translate(-110,-30) scale(1,1)"><rect fill="#C0C0C0" stroke="none" x="649" y="151" width="175.76171875" height="44" opacity="0.2"/></g><g transform="translate(-110,-30) scale(1,1)"><rect fill="#ffffff" stroke="none" x="642" y="144" width="175.76171875" height="44"/></g><g transform="translate(-110,-30) scale(1,1)"><path fill="none" stroke="#000000" d="M 642 144 L 817.76171875 144 L 817.76171875 188 L 642 188 L 642 144 Z Z" stroke-miterlimit="10"/></g><g transform="translate(-110,-30) scale(1,1)"><rect fill="#ffffff" stroke="none" x="632" y="151" width="20" height="10"/></g><g transform="translate(-110,-30) scale(1,1)"><path fill="none" stroke="#000000" d="M 632 151 L 652 151 L 652 161 L 632 161 L 632 151 Z Z" stroke-miterlimit="10"/></g><g transform="translate(-110,-30) scale(1,1)"><rect fill="#ffffff" stroke="none" x="632" y="171" width="20" height="10"/></g><g transform="translate(-110,-30) scale(1,1)"><path fill="none" stroke="#000000" d="M 632 171 L 652 171 L 652 181 L 632 181 L 632 171 Z Z" stroke-miterlimit="10"/></g><g transform="translate(-110,-30) scale(1,1)"><g><path fill="none" stroke="none"/><text fill="#000000" stroke="none" font-family="Arial" font-size="13px" font-style="normal" font-weight="normal" text-decoration="none" x="696.947265625" y="161.5">«shell script»</text></g></g><g transform="translate(-110,-30) scale(1,1)"><g><path fill="none" stroke="none"/><text fill="#000000" stroke="none" font-family="Arial" font-size="13px" font-style="normal" font-weight="bold" text-decoration="none" x="661.87646484375" y="176.5">dataLake_loading_run.sh</text></g></g><g transform="translate(-110,-30) scale(1,1)"><rect fill="#C0C0C0" stroke="none" x="337" y="199" width="217.6689453125" height="44" opacity="0.2"/></g><g transform="translate(-110,-30) scale(1,1)"><rect fill="#a3ffd1" stroke="none" x="330" y="192" width="217.6689453125" height="44"/></g><g transform="translate(-110,-30) scale(1,1)"><path fill="none" stroke="#000000" d="M 330 192 L 547.6689453125 192 L 547.6689453125 236 L 330 236 L 330 192 Z Z" stroke-miterlimit="10"/></g><g transform="translate(-110,-30) scale(1,1)"><rect fill="#a3ffd1" stroke="none" x="320" y="199" width="20" height="10"/></g><g transform="translate(-110,-30) scale(1,1)"><path fill="none" stroke="#000000" d="M 320 199 L 340 199 L 340 209 L 320 209 L 320 199 Z Z" stroke-miterlimit="10"/></g><g transform="translate(-110,-30) scale(1,1)"><rect fill="#a3ffd1" stroke="none" x="320" y="219" width="20" height="10"/></g><g transform="translate(-110,-30) scale(1,1)"><path fill="none" stroke="#000000" d="M 320 219 L 340 219 L 340 229 L 320 229 L 320 219 Z Z" stroke-miterlimit="10"/></g><g transform="translate(-110,-30) scale(1,1)"><g><path fill="none" stroke="none"/><text fill="#000000" stroke="none" font-family="Arial" font-size="13px" font-style="normal" font-weight="normal" text-decoration="none" x="429.380859375" y="209.5">«jar»</text></g></g><g transform="translate(-110,-30) scale(1,1)"><g><path fill="none" stroke="none"/><text fill="#000000" stroke="none" font-family="Arial" font-size="13px" font-style="normal" font-weight="bold" text-decoration="none" x="361.825927734375" y="224.5">mysql-connector-java-5.1.30</text></g></g><g transform="translate(-110,-30) scale(1,1)"><path fill="none" stroke="#000000" d="M 724 285 L 725 335" stroke-miterlimit="10" stroke-dasharray="3"/></g><g transform="translate(-110,-30) scale(1,1)"><path fill="none" stroke="#000000" d="M 720.5881110364041 324.9235305898891 L 725 335 L 729.0054632463075 324.755183545691" stroke-miterlimit="10"/></g><g transform="translate(-110,-30) scale(1,1)"><path fill="none" stroke="#000000" d="M 724 189 L 723 239" stroke-miterlimit="10" stroke-dasharray="3"/></g><g transform="translate(-110,-30) scale(1,1)"><path fill="none" stroke="#000000" d="M 718.9945367536925 228.75518354569104 L 723 239 L 727.4118889635959 228.92353058988908" stroke-miterlimit="10"/></g><g transform="translate(-110,-30) scale(1,1)"><path fill="none" stroke="#000000" d="M 639 248 L 549 233" stroke-miterlimit="10" stroke-dasharray="3"/></g><g transform="translate(-110,-30) scale(1,1)"><path fill="none" stroke="#000000" d="M 559.7164411855751 230.51849071810935 L 549 233 L 558.3323602733092 238.82297619170473" stroke-miterlimit="10"/></g><g transform="translate(-110,-30) scale(1,1)"><path fill="#C0C0C0" stroke="none" d="M 430.7099609375 146.5 C 430.7099609375 140.1487248 435.8586857375 135 442.2099609375 135 C 448.5612361375 135 453.7099609375 140.1487248 453.7099609375 146.5 C 453.7099609375 152.8512752 448.5612361375 158 442.2099609375 158 C 435.8586857375 158 430.7099609375 152.8512752 430.7099609375 146.5 Z" opacity="0.2"/></g><g transform="translate(-110,-30) scale(1,1)"><path fill="none" stroke="#000000" d="M 446.4960200725577 139.3025268440147 A 11.5 11.5 0 0 1 423.5039799274423 138.6974731559853" stroke-miterlimit="10"/></g><g transform="translate(-110,-30) scale(1,1)"><path fill="#ffffff" stroke="none" d="M 426.7099609375 139.5 C 426.7099609375 134.8055792 430.5155401375 131 435.2099609375 131 C 439.9043817375 131 443.7099609375 134.8055792 443.7099609375 139.5 C 443.7099609375 144.1944208 439.9043817375 148 435.2099609375 148 C 430.5155401375 148 426.7099609375 144.1944208 426.7099609375 139.5 Z"/></g><g transform="translate(-110,-30) scale(1,1)"><path fill="none" stroke="#000000" d="M 426.7099609375 139.5 C 426.7099609375 134.8055792 430.5155401375 131 435.2099609375 131 C 439.9043817375 131 443.7099609375 134.8055792 443.7099609375 139.5 C 443.7099609375 144.1944208 439.9043817375 148 435.2099609375 148 C 430.5155401375 148 426.7099609375 144.1944208 426.7099609375 139.5 Z" stroke-miterlimit="10"/></g><g transform="translate(-110,-30) scale(1,1)"><g><path fill="none" stroke="none"/><text fill="#000000" stroke="none" font-family="Arial" font-size="13px" font-style="normal" font-weight="bold" text-decoration="none" x="416.430419921875" y="170.5">ODBC</text></g></g><g transform="translate(-110,-30) scale(1,1)"><path fill="none" stroke="#000000" d="M 514 85 L 446.7099609375 134.15449892241378" stroke-miterlimit="10"/></g><g transform="translate(-110,-30) scale(1,1)"><path fill="#C0C0C0" stroke="none" d="M 422.7099609375 362.5 C 422.7099609375 356.1487248 427.8586857375 351 434.2099609375 351 C 440.5612361375 351 445.7099609375 356.1487248 445.7099609375 362.5 C 445.7099609375 368.8512752 440.5612361375 374 434.2099609375 374 C 427.8586857375 374 422.7099609375 368.8512752 422.7099609375 362.5 Z" opacity="0.2"/></g><g transform="translate(-110,-30) scale(1,1)"><path fill="none" stroke="#000000" d="M 415.53972378018386 354.04497698168194 A 11.5 11.5 0 0 1 438.46027621981614 355.955023018318" stroke-miterlimit="10"/></g><g transform="translate(-110,-30) scale(1,1)"><path fill="#ffffff" stroke="none" d="M 418.7099609375 355.5 C 418.7099609375 350.8055792 422.5155401375 347 427.2099609375 347 C 431.9043817375 347 435.7099609375 350.8055792 435.7099609375 355.5 C 435.7099609375 360.1944208 431.9043817375 364 427.2099609375 364 C 422.5155401375 364 418.7099609375 360.1944208 418.7099609375 355.5 Z"/></g><g transform="translate(-110,-30) scale(1,1)"><path fill="none" stroke="#000000" d="M 418.7099609375 355.5 C 418.7099609375 350.8055792 422.5155401375 347 427.2099609375 347 C 431.9043817375 347 435.7099609375 350.8055792 435.7099609375 355.5 C 435.7099609375 360.1944208 431.9043817375 364 427.2099609375 364 C 422.5155401375 364 418.7099609375 360.1944208 418.7099609375 355.5 Z" stroke-miterlimit="10"/></g><g transform="translate(-110,-30) scale(1,1)"><g><path fill="none" stroke="none"/><text fill="#000000" stroke="none" font-family="Arial" font-size="13px" font-style="normal" font-weight="bold" text-decoration="none" x="408.430419921875" y="386.5">ODBC</text></g></g><g transform="translate(-110,-30) scale(1,1)"><path fill="none" stroke="#000000" d="M 426 407 L 427 367" stroke-miterlimit="10"/></g><g transform="translate(-110,-30) scale(1,1)"><path fill="none" stroke="#000000" d="M 434 191 L 434.6842105263158 151" stroke-miterlimit="10"/></g><g transform="translate(-110,-30) scale(1,1)"><rect fill="#C0C0C0" stroke="none" x="369" y="279" width="145.37548828125" height="44" opacity="0.2"/></g><g transform="translate(-110,-30) scale(1,1)"><rect fill="#a3ffd1" stroke="none" x="362" y="272" width="145.37548828125" height="44"/></g><g transform="translate(-110,-30) scale(1,1)"><path fill="none" stroke="#000000" d="M 362 272 L 507.37548828125 272 L 507.37548828125 316 L 362 316 L 362 272 Z Z" stroke-miterlimit="10"/></g><g transform="translate(-110,-30) scale(1,1)"><rect fill="#a3ffd1" stroke="none" x="352" y="279" width="20" height="10"/></g><g transform="translate(-110,-30) scale(1,1)"><path fill="none" stroke="#000000" d="M 352 279 L 372 279 L 372 289 L 352 289 L 352 279 Z Z" stroke-miterlimit="10"/></g><g transform="translate(-110,-30) scale(1,1)"><rect fill="#a3ffd1" stroke="none" x="352" y="299" width="20" height="10"/></g><g transform="translate(-110,-30) scale(1,1)"><path fill="none" stroke="#000000" d="M 352 299 L 372 299 L 372 309 L 352 309 L 352 299 Z Z" stroke-miterlimit="10"/></g><g transform="translate(-110,-30) scale(1,1)"><g><path fill="none" stroke="none"/><text fill="#000000" stroke="none" font-family="Arial" font-size="13px" font-style="normal" font-weight="normal" text-decoration="none" x="425.234130859375" y="289.5">«jar»</text></g></g><g transform="translate(-110,-30) scale(1,1)"><g><path fill="none" stroke="none"/><text fill="#000000" stroke="none" font-family="Arial" font-size="13px" font-style="normal" font-weight="bold" text-decoration="none" x="381.873291015625" y="304.5">mongodb-connector</text></g></g><g transform="translate(-110,-30) scale(1,1)"><path fill="none" stroke="#000000" d="M 428 317 L 427.9166666666667 344" stroke-miterlimit="10"/></g><g transform="translate(-110,-30) scale(1,1)"><path fill="none" stroke="#000000" d="M 639 271 L 508 285" stroke-miterlimit="10" stroke-dasharray="3"/></g><g transform="translate(-110,-30) scale(1,1)"><path fill="none" stroke="#000000" d="M 517.6578072192146 279.7343794557066 L 508 285 L 518.5524569701241 288.105744982074" stroke-miterlimit="10"/></g><g transform="translate(-110,-30) scale(1,1)"><rect fill="#C0C0C0" stroke="none" x="137" y="279" width="111.47265625" height="44" opacity="0.2"/></g><g transform="translate(-110,-30) scale(1,1)"><rect fill="#ffffff" stroke="none" x="130" y="272" width="111.47265625" height="44"/></g><g transform="translate(-110,-30) scale(1,1)"><path fill="none" stroke="#000000" d="M 130 272 L 241.47265625 272 L 241.47265625 316 L 130 316 L 130 272 Z Z" stroke-miterlimit="10"/></g><g transform="translate(-110,-30) scale(1,1)"><rect fill="#ffffff" stroke="none" x="120" y="279" width="20" height="10"/></g><g transform="translate(-110,-30) scale(1,1)"><path fill="none" stroke="#000000" d="M 120 279 L 140 279 L 140 289 L 120 289 L 120 279 Z Z" stroke-miterlimit="10"/></g><g transform="translate(-110,-30) scale(1,1)"><rect fill="#ffffff" stroke="none" x="120" y="299" width="20" height="10"/></g><g transform="translate(-110,-30) scale(1,1)"><path fill="none" stroke="#000000" d="M 120 299 L 140 299 L 140 309 L 120 309 L 120 299 Z Z" stroke-miterlimit="10"/></g><g transform="translate(-110,-30) scale(1,1)"><g><path fill="none" stroke="none"/><text fill="#000000" stroke="none" font-family="Arial" font-size="13px" font-style="normal" font-weight="normal" text-decoration="none" x="176.28271484375" y="289.5">«jar»</text></g></g><g transform="translate(-110,-30) scale(1,1)"><g><path fill="none" stroke="none"/><text fill="#000000" stroke="none" font-family="Arial" font-size="13px" font-style="normal" font-weight="bold" text-decoration="none" x="148.114990234375" y="304.5">my-appli-spark</text></g></g><g transform="translate(-110,-30) scale(1,1)"><path fill="none" stroke="#000000" d="M 242 294 L 351 294" stroke-miterlimit="10" stroke-dasharray="3"/></g><g transform="translate(-110,-30) scale(1,1)"><path fill="none" stroke="#000000" d="M 340.83732514237585 298.209517756016 L 351 294 L 340.83732514237585 289.790482243984" stroke-miterlimit="10"/></g><g transform="translate(-110,-30) scale(1,1)"><rect fill="#C0C0C0" stroke="none" x="161" y="47" width="201.0126953125" height="44" opacity="0.2"/></g><g transform="translate(-110,-30) scale(1,1)"><rect fill="#a3e0ff" stroke="none" x="154" y="40" width="201.0126953125" height="44"/></g><g transform="translate(-110,-30) scale(1,1)"><path fill="none" stroke="#000000" d="M 154 40 L 355.0126953125 40 L 355.0126953125 84 L 154 84 L 154 40 Z Z" stroke-miterlimit="10"/></g><g transform="translate(-110,-30) scale(1,1)"><rect fill="#a3e0ff" stroke="none" x="144" y="47" width="20" height="10"/></g><g transform="translate(-110,-30) scale(1,1)"><path fill="none" stroke="#000000" d="M 144 47 L 164 47 L 164 57 L 144 57 L 144 47 Z Z" stroke-miterlimit="10"/></g><g transform="translate(-110,-30) scale(1,1)"><rect fill="#a3e0ff" stroke="none" x="144" y="67" width="20" height="10"/></g><g transform="translate(-110,-30) scale(1,1)"><path fill="none" stroke="#000000" d="M 144 67 L 164 67 L 164 77 L 144 77 L 144 67 Z Z" stroke-miterlimit="10"/></g><g transform="translate(-110,-30) scale(1,1)"><g><path fill="none" stroke="none"/><text fill="#000000" stroke="none" font-family="Arial" font-size="13px" font-style="normal" font-weight="normal" text-decoration="none" x="235.302734375" y="57.5">«mysql»</text></g></g><g transform="translate(-110,-30) scale(1,1)"><g><path fill="none" stroke="none"/><text fill="#000000" stroke="none" font-family="Arial" font-size="13px" font-style="normal" font-weight="bold" text-decoration="none" x="176.041015625" y="72.5">esibank-proto-db-decisionnel</text></g></g><g transform="translate(-110,-30) scale(1,1)"><rect fill="#C0C0C0" stroke="none" x="145" y="167" width="98.44091796875" height="44" opacity="0.2"/></g><g transform="translate(-110,-30) scale(1,1)"><rect fill="#ffffff" stroke="none" x="138" y="160" width="98.44091796875" height="44"/></g><g transform="translate(-110,-30) scale(1,1)"><path fill="none" stroke="#000000" d="M 138 160 L 236.44091796875 160 L 236.44091796875 204 L 138 204 L 138 160 Z Z" stroke-miterlimit="10"/></g><g transform="translate(-110,-30) scale(1,1)"><rect fill="#ffffff" stroke="none" x="128" y="167" width="20" height="10"/></g><g transform="translate(-110,-30) scale(1,1)"><path fill="none" stroke="#000000" d="M 128 167 L 148 167 L 148 177 L 128 177 L 128 167 Z Z" stroke-miterlimit="10"/></g><g transform="translate(-110,-30) scale(1,1)"><rect fill="#ffffff" stroke="none" x="128" y="187" width="20" height="10"/></g><g transform="translate(-110,-30) scale(1,1)"><path fill="none" stroke="#000000" d="M 128 187 L 148 187 L 148 197 L 128 197 L 128 187 Z Z" stroke-miterlimit="10"/></g><g transform="translate(-110,-30) scale(1,1)"><g><path fill="none" stroke="none"/><text fill="#000000" stroke="none" font-family="Arial" font-size="13px" font-style="normal" font-weight="normal" text-decoration="none" x="173.431396484375" y="177.5">«qvw»</text></g></g><g transform="translate(-110,-30) scale(1,1)"><g><path fill="none" stroke="none"/><text fill="#000000" stroke="none" font-family="Arial" font-size="13px" font-style="normal" font-weight="bold" text-decoration="none" x="168.378662109375" y="192.5">qlikView</text></g></g><g transform="translate(-110,-30) scale(1,1)"><path fill="none" stroke="#000000" d="M 242 274 L 360 237" stroke-miterlimit="10" stroke-dasharray="3"/></g><g transform="translate(-110,-30) scale(1,1)"><path fill="none" stroke="#000000" d="M 351.5623290697889 244.0573160106 L 360 237 L 349.0433896597555 236.02394167589878" stroke-miterlimit="10"/></g><g transform="translate(-110,-30) scale(1,1)"><path fill="none" stroke="#000000" d="M 237 189 L 319 199" stroke-miterlimit="10" stroke-dasharray="3"/></g><g transform="translate(-110,-30) scale(1,1)"><path fill="none" stroke="#000000" d="M 308.40248215537775 201.94832419060612 L 319 199 L 309.4216432400082 193.59120329663608" stroke-miterlimit="10"/></g><g transform="translate(-110,-30) scale(1,1)"><path fill="#C0C0C0" stroke="none" d="M 334.7099609375 130.5 C 334.7099609375 124.1487248 339.8586857375 119 346.2099609375 119 C 352.5612361375 119 357.7099609375 124.1487248 357.7099609375 130.5 C 357.7099609375 136.8512752 352.5612361375 142 346.2099609375 142 C 339.8586857375 142 334.7099609375 136.8512752 334.7099609375 130.5 Z" opacity="0.2"/></g><g transform="translate(-110,-30) scale(1,1)"><path fill="none" stroke="#000000" d="M 348.02615180363443 115.87409068134127 A 11.5 11.5 0 0 1 329.97384819636557 130.12590931865873" stroke-miterlimit="10"/></g><g transform="translate(-110,-30) scale(1,1)"><path fill="#ffffff" stroke="none" d="M 330.7099609375 123.5 C 330.7099609375 118.8055792 334.5155401375 115 339.2099609375 115 C 343.9043817375 115 347.7099609375 118.8055792 347.7099609375 123.5 C 347.7099609375 128.1944208 343.9043817375 132 339.2099609375 132 C 334.5155401375 132 330.7099609375 128.1944208 330.7099609375 123.5 Z"/></g><g transform="translate(-110,-30) scale(1,1)"><path fill="none" stroke="#000000" d="M 330.7099609375 123.5 C 330.7099609375 118.8055792 334.5155401375 115 339.2099609375 115 C 343.9043817375 115 347.7099609375 118.8055792 347.7099609375 123.5 C 347.7099609375 128.1944208 343.9043817375 132 339.2099609375 132 C 334.5155401375 132 330.7099609375 128.1944208 330.7099609375 123.5 Z" stroke-miterlimit="10"/></g><g transform="translate(-110,-30) scale(1,1)"><g><path fill="none" stroke="none"/><text fill="#000000" stroke="none" font-family="Arial" font-size="13px" font-style="normal" font-weight="bold" text-decoration="none" x="320.430419921875" y="154.5">ODBC</text></g></g><g transform="translate(-110,-30) scale(1,1)"><path fill="none" stroke="#000000" d="M 277 85 L 327.7099609375 118.483984375" stroke-miterlimit="10"/></g><g transform="translate(-110,-30) scale(1,1)"><path fill="none" stroke="#000000" d="M 405 191 L 348.4736842105263 135" stroke-miterlimit="10"/></g></g></svg>