<svg version="1.1" xmlns="http://www.w3.org/2000/svg" xmlns:xlink="http://www.w3.org/1999/xlink" width="611.17529296875" height="416"><defs/><g><g transform="translate(-182,-22) scale(1,1)"><rect fill="#C0C0C0" stroke="none" x="649" y="39" width="98.44091796875" height="44" opacity="0.2"/></g><g transform="translate(-182,-22) scale(1,1)"><rect fill="#ffffff" stroke="none" x="642" y="32" width="98.44091796875" height="44"/></g><g transform="translate(-182,-22) scale(1,1)"><path fill="none" stroke="#000000" d="M 642 32 L 740.44091796875 32 L 740.44091796875 76 L 642 76 L 642 32 Z Z" stroke-miterlimit="10"/></g><g transform="translate(-182,-22) scale(1,1)"><rect fill="#ffffff" stroke="none" x="632" y="39" width="20" height="10"/></g><g transform="translate(-182,-22) scale(1,1)"><path fill="none" stroke="#000000" d="M 632 39 L 652 39 L 652 49 L 632 49 L 632 39 Z Z" stroke-miterlimit="10"/></g><g transform="translate(-182,-22) scale(1,1)"><rect fill="#ffffff" stroke="none" x="632" y="59" width="20" height="10"/></g><g transform="translate(-182,-22) scale(1,1)"><path fill="none" stroke="#000000" d="M 632 59 L 652 59 L 652 69 L 632 69 L 632 59 Z Z" stroke-miterlimit="10"/></g><g transform="translate(-182,-22) scale(1,1)"><g><path fill="none" stroke="none"/><text fill="#000000" stroke="none" font-family="Arial" font-size="13px" font-style="normal" font-weight="bold" text-decoration="none" x="667.319580078125" y="51.5">JRE-1.8.0</text></g></g><g transform="translate(-182,-22) scale(1,1)"><rect fill="#C0C0C0" stroke="none" x="409" y="391" width="138.1962890625" height="44" opacity="0.2"/></g><g transform="translate(-182,-22) scale(1,1)"><rect fill="#a3e0ff" stroke="none" x="402" y="384" width="138.1962890625" height="44"/></g><g transform="translate(-182,-22) scale(1,1)"><path fill="none" stroke="#000000" d="M 402 384 L 540.1962890625 384 L 540.1962890625 428 L 402 428 L 402 384 Z Z" stroke-miterlimit="10"/></g><g transform="translate(-182,-22) scale(1,1)"><rect fill="#a3e0ff" stroke="none" x="392" y="391" width="20" height="10"/></g><g transform="translate(-182,-22) scale(1,1)"><path fill="none" stroke="#000000" d="M 392 391 L 412 391 L 412 401 L 392 401 L 392 391 Z Z" stroke-miterlimit="10"/></g><g transform="translate(-182,-22) scale(1,1)"><rect fill="#a3e0ff" stroke="none" x="392" y="411" width="20" height="10"/></g><g transform="translate(-182,-22) scale(1,1)"><path fill="none" stroke="#000000" d="M 392 411 L 412 411 L 412 421 L 392 421 L 392 411 Z Z" stroke-miterlimit="10"/></g><g transform="translate(-182,-22) scale(1,1)"><g><path fill="none" stroke="none"/><text fill="#000000" stroke="none" font-family="Arial" font-size="13px" font-style="normal" font-weight="normal" text-decoration="none" x="441.763671875" y="401.5">«mongodb»</text></g></g><g transform="translate(-182,-22) scale(1,1)"><g><path fill="none" stroke="none"/><text fill="#000000" stroke="none" font-family="Arial" font-size="13px" font-style="normal" font-weight="bold" text-decoration="none" x="442.84912109375" y="416.5">esibank_db</text></g></g><g transform="translate(-182,-22) scale(1,1)"><path fill="#C0C0C0" stroke="none" d="M 462.7099609375 314.5 C 462.7099609375 308.1487248 467.8586857375 303 474.2099609375 303 C 480.5612361375 303 485.7099609375 308.1487248 485.7099609375 314.5 C 485.7099609375 320.8512752 480.5612361375 326 474.2099609375 326 C 467.8586857375 326 462.7099609375 320.8512752 462.7099609375 314.5 Z" opacity="0.2"/></g><g transform="translate(-182,-22) scale(1,1)"><path fill="none" stroke="#000000" d="M 455.53972378018386 307.955023018318 A 11.5 11.5 0 0 1 478.46027621981614 306.044976981682" stroke-miterlimit="10"/></g><g transform="translate(-182,-22) scale(1,1)"><path fill="#ffffff" stroke="none" d="M 458.7099609375 307.5 C 458.7099609375 302.8055792 462.5155401375 299 467.2099609375 299 C 471.9043817375 299 475.7099609375 302.8055792 475.7099609375 307.5 C 475.7099609375 312.1944208 471.9043817375 316 467.2099609375 316 C 462.5155401375 316 458.7099609375 312.1944208 458.7099609375 307.5 Z"/></g><g transform="translate(-182,-22) scale(1,1)"><path fill="none" stroke="#000000" d="M 458.7099609375 307.5 C 458.7099609375 302.8055792 462.5155401375 299 467.2099609375 299 C 471.9043817375 299 475.7099609375 302.8055792 475.7099609375 307.5 C 475.7099609375 312.1944208 471.9043817375 316 467.2099609375 316 C 462.5155401375 316 458.7099609375 312.1944208 458.7099609375 307.5 Z" stroke-miterlimit="10"/></g><g transform="translate(-182,-22) scale(1,1)"><g><path fill="none" stroke="none"/><text fill="#000000" stroke="none" font-family="Arial" font-size="13px" font-style="normal" font-weight="bold" text-decoration="none" x="448.430419921875" y="338.5">ODBC</text></g></g><g transform="translate(-182,-22) scale(1,1)"><path fill="none" stroke="#000000" d="M 466 383 L 467 319" stroke-miterlimit="10"/></g><g transform="translate(-182,-22) scale(1,1)"><rect fill="#C0C0C0" stroke="none" x="353" y="223" width="246" height="44" opacity="0.2"/></g><g transform="translate(-182,-22) scale(1,1)"><rect fill="#a3ffd1" stroke="none" x="346" y="216" width="246" height="44"/></g><g transform="translate(-182,-22) scale(1,1)"><path fill="none" stroke="#000000" d="M 346 216 L 592 216 L 592 260 L 346 260 L 346 216 Z Z" stroke-miterlimit="10"/></g><g transform="translate(-182,-22) scale(1,1)"><rect fill="#a3ffd1" stroke="none" x="336" y="223" width="20" height="10"/></g><g transform="translate(-182,-22) scale(1,1)"><path fill="none" stroke="#000000" d="M 336 223 L 356 223 L 356 233 L 336 233 L 336 223 Z Z" stroke-miterlimit="10"/></g><g transform="translate(-182,-22) scale(1,1)"><rect fill="#a3ffd1" stroke="none" x="336" y="243" width="20" height="10"/></g><g transform="translate(-182,-22) scale(1,1)"><path fill="none" stroke="#000000" d="M 336 243 L 356 243 L 356 253 L 336 253 L 336 243 Z Z" stroke-miterlimit="10"/></g><g transform="translate(-182,-22) scale(1,1)"><g><path fill="none" stroke="none"/><text fill="#000000" stroke="none" font-family="Arial" font-size="13px" font-style="normal" font-weight="normal" text-decoration="none" x="459.54638671875" y="233.5">«jar»</text></g></g><g transform="translate(-182,-22) scale(1,1)"><g><path fill="none" stroke="none"/><text fill="#000000" stroke="none" font-family="Arial" font-size="13px" font-style="normal" font-weight="bold" text-decoration="none" x="372.827880859375" y="248.5">mongo-spark-connector_2.11:2.2.2</text></g></g><g transform="translate(-182,-22) scale(1,1)"><path fill="none" stroke="#000000" d="M 465 261 L 466.0833333333333 296" stroke-miterlimit="10"/></g><g transform="translate(-182,-22) scale(1,1)"><rect fill="#C0C0C0" stroke="none" x="657" y="167" width="133.17529296875" height="44" opacity="0.2"/></g><g transform="translate(-182,-22) scale(1,1)"><rect fill="#ffffff" stroke="none" x="650" y="160" width="133.17529296875" height="44"/></g><g transform="translate(-182,-22) scale(1,1)"><path fill="none" stroke="#000000" d="M 650 160 L 783.17529296875 160 L 783.17529296875 204 L 650 204 L 650 160 Z Z" stroke-miterlimit="10"/></g><g transform="translate(-182,-22) scale(1,1)"><rect fill="#ffffff" stroke="none" x="640" y="167" width="20" height="10"/></g><g transform="translate(-182,-22) scale(1,1)"><path fill="none" stroke="#000000" d="M 640 167 L 660 167 L 660 177 L 640 177 L 640 167 Z Z" stroke-miterlimit="10"/></g><g transform="translate(-182,-22) scale(1,1)"><rect fill="#ffffff" stroke="none" x="640" y="187" width="20" height="10"/></g><g transform="translate(-182,-22) scale(1,1)"><path fill="none" stroke="#000000" d="M 640 187 L 660 187 L 660 197 L 640 197 L 640 187 Z Z" stroke-miterlimit="10"/></g><g transform="translate(-182,-22) scale(1,1)"><g><path fill="none" stroke="none"/><text fill="#000000" stroke="none" font-family="Arial" font-size="13px" font-style="normal" font-weight="normal" text-decoration="none" x="681.84814453125" y="177.5">«scala script»</text></g></g><g transform="translate(-182,-22) scale(1,1)"><g><path fill="none" stroke="none"/><text fill="#000000" stroke="none" font-family="Arial" font-size="13px" font-style="normal" font-weight="bold" text-decoration="none" x="668.838623046875" y="192.5">ExpensesAnalysis</text></g></g><g transform="translate(-182,-22) scale(1,1)"><path fill="none" stroke="#000000" d="M 463 141 L 464 215" stroke-miterlimit="10" stroke-dasharray="3"/></g><g transform="translate(-182,-22) scale(1,1)"><path fill="none" stroke="#000000" d="M 459.6535456458295 204.89513312571054 L 464 215 L 468.07181254184565 204.78137276225087" stroke-miterlimit="10"/></g><g transform="translate(-182,-22) scale(1,1)"><rect fill="#C0C0C0" stroke="none" x="209" y="103" width="98.44091796875" height="44" opacity="0.2"/></g><g transform="translate(-182,-22) scale(1,1)"><rect fill="#ffffff" stroke="none" x="202" y="96" width="98.44091796875" height="44"/></g><g transform="translate(-182,-22) scale(1,1)"><path fill="none" stroke="#000000" d="M 202 96 L 300.44091796875 96 L 300.44091796875 140 L 202 140 L 202 96 Z Z" stroke-miterlimit="10"/></g><g transform="translate(-182,-22) scale(1,1)"><rect fill="#ffffff" stroke="none" x="192" y="103" width="20" height="10"/></g><g transform="translate(-182,-22) scale(1,1)"><path fill="none" stroke="#000000" d="M 192 103 L 212 103 L 212 113 L 192 113 L 192 103 Z Z" stroke-miterlimit="10"/></g><g transform="translate(-182,-22) scale(1,1)"><rect fill="#ffffff" stroke="none" x="192" y="123" width="20" height="10"/></g><g transform="translate(-182,-22) scale(1,1)"><path fill="none" stroke="#000000" d="M 192 123 L 212 123 L 212 133 L 192 133 L 192 123 Z Z" stroke-miterlimit="10"/></g><g transform="translate(-182,-22) scale(1,1)"><g><path fill="none" stroke="none"/><text fill="#000000" stroke="none" font-family="Arial" font-size="13px" font-style="normal" font-weight="normal" text-decoration="none" x="217.201416015625" y="113.5">«Shell script»</text></g></g><g transform="translate(-182,-22) scale(1,1)"><g><path fill="none" stroke="none"/><text fill="#000000" stroke="none" font-family="Arial" font-size="13px" font-style="normal" font-weight="bold" text-decoration="none" x="234.8955078125" y="128.5">Launch</text></g></g><g transform="translate(-182,-22) scale(1,1)"><path fill="none" stroke="#000000" d="M 301 118 L 367 118" stroke-miterlimit="10" stroke-dasharray="3"/></g><g transform="translate(-182,-22) scale(1,1)"><path fill="none" stroke="#000000" d="M 356.83732514237585 122.20951775601598 L 367 118 L 356.83732514237585 113.79048224398402" stroke-miterlimit="10"/></g><g transform="translate(-182,-22) scale(1,1)"><rect fill="#C0C0C0" stroke="none" x="385" y="103" width="180.0908203125" height="44" opacity="0.2"/></g><g transform="translate(-182,-22) scale(1,1)"><rect fill="#ffffff" stroke="none" x="378" y="96" width="180.0908203125" height="44"/></g><g transform="translate(-182,-22) scale(1,1)"><path fill="none" stroke="#000000" d="M 378 96 L 558.0908203125 96 L 558.0908203125 140 L 378 140 L 378 96 Z Z" stroke-miterlimit="10"/></g><g transform="translate(-182,-22) scale(1,1)"><rect fill="#ffffff" stroke="none" x="368" y="103" width="20" height="10"/></g><g transform="translate(-182,-22) scale(1,1)"><path fill="none" stroke="#000000" d="M 368 103 L 388 103 L 388 113 L 368 113 L 368 103 Z Z" stroke-miterlimit="10"/></g><g transform="translate(-182,-22) scale(1,1)"><rect fill="#ffffff" stroke="none" x="368" y="123" width="20" height="10"/></g><g transform="translate(-182,-22) scale(1,1)"><path fill="none" stroke="#000000" d="M 368 123 L 388 123 L 388 133 L 368 133 L 368 123 Z Z" stroke-miterlimit="10"/></g><g transform="translate(-182,-22) scale(1,1)"><g><path fill="none" stroke="none"/><text fill="#000000" stroke="none" font-family="Arial" font-size="13px" font-style="normal" font-weight="bold" text-decoration="none" x="396.800537109375" y="115.5">spark-2.0.0-bin-hadoop2.7</text></g></g><g transform="translate(-182,-22) scale(1,1)"><path fill="none" stroke="#000000" d="M 543 95 L 631 70" stroke-miterlimit="10" stroke-dasharray="3"/></g><g transform="translate(-182,-22) scale(1,1)"><path fill="none" stroke="#000000" d="M 622.3745284913357 76.82651018114092 L 631 70 L 620.0737989643684 68.72794224621587" stroke-miterlimit="10"/></g><g transform="translate(-182,-22) scale(1,1)"><path fill="none" stroke="#000000" d="M 552 141 L 639 163" stroke-miterlimit="10" stroke-dasharray="3"/></g><g transform="translate(-182,-22) scale(1,1)"><path fill="none" stroke="#000000" d="M 628.1154632054712 164.58960962772292 L 639 163 L 630.1794464753119 156.42749396971652" stroke-miterlimit="10"/></g></g></svg>