<svg version="1.1" xmlns="http://www.w3.org/2000/svg" xmlns:xlink="http://www.w3.org/1999/xlink" width="1689.17529296875" height="1648"><defs/><g><g transform="translate(-38,-6) scale(1,1)"><rect fill="#C0C0C0" stroke="none" x="545" y="255" width="297.10986328125" height="44" opacity="0.2"/></g><g transform="translate(-38,-6) scale(1,1)"><rect fill="#ffffff" stroke="none" x="538" y="248" width="297.10986328125" height="44"/></g><g transform="translate(-38,-6) scale(1,1)"><path fill="none" stroke="#000000" d="M 538 248 L 835.10986328125 248 L 835.10986328125 292 L 538 292 L 538 248 Z Z" stroke-miterlimit="10"/></g><g transform="translate(-38,-6) scale(1,1)"><rect fill="#ffffff" stroke="none" x="528" y="255" width="20" height="10"/></g><g transform="translate(-38,-6) scale(1,1)"><path fill="none" stroke="#000000" d="M 528 255 L 548 255 L 548 265 L 528 265 L 528 255 Z Z" stroke-miterlimit="10"/></g><g transform="translate(-38,-6) scale(1,1)"><rect fill="#ffffff" stroke="none" x="528" y="275" width="20" height="10"/></g><g transform="translate(-38,-6) scale(1,1)"><path fill="none" stroke="#000000" d="M 528 275 L 548 275 L 548 285 L 528 285 L 528 275 Z Z" stroke-miterlimit="10"/></g><g transform="translate(-38,-6) scale(1,1)"><g><path fill="none" stroke="none"/><text fill="#000000" stroke="none" font-family="Arial" font-size="13px" font-style="normal" font-weight="normal" text-decoration="none" x="673.851318359375" y="265.5">«war»</text></g></g><g transform="translate(-38,-6) scale(1,1)"><g><path fill="none" stroke="none"/><text fill="#000000" stroke="none" font-family="Arial" font-size="13px" font-style="normal" font-weight="bold" text-decoration="none" x="588.59912109375" y="280.5">data.access.server.1.0.SNAPSHOT</text></g></g><g transform="translate(-38,-6) scale(1,1)"><rect fill="#C0C0C0" stroke="none" x="889" y="175" width="184.46435546875" height="44" opacity="0.2"/></g><g transform="translate(-38,-6) scale(1,1)"><rect fill="#ffffff" stroke="none" x="882" y="168" width="184.46435546875" height="44"/></g><g transform="translate(-38,-6) scale(1,1)"><path fill="none" stroke="#000000" d="M 882 168 L 1066.46435546875 168 L 1066.46435546875 212 L 882 212 L 882 168 Z Z" stroke-miterlimit="10"/></g><g transform="translate(-38,-6) scale(1,1)"><rect fill="#ffffff" stroke="none" x="872" y="175" width="20" height="10"/></g><g transform="translate(-38,-6) scale(1,1)"><path fill="none" stroke="#000000" d="M 872 175 L 892 175 L 892 185 L 872 185 L 872 175 Z Z" stroke-miterlimit="10"/></g><g transform="translate(-38,-6) scale(1,1)"><rect fill="#ffffff" stroke="none" x="872" y="195" width="20" height="10"/></g><g transform="translate(-38,-6) scale(1,1)"><path fill="none" stroke="#000000" d="M 872 195 L 892 195 L 892 205 L 872 205 L 872 195 Z Z" stroke-miterlimit="10"/></g><g transform="translate(-38,-6) scale(1,1)"><g><path fill="none" stroke="none"/><text fill="#000000" stroke="none" font-family="Arial" font-size="13px" font-style="normal" font-weight="normal" text-decoration="none" x="964.778564453125" y="185.5">«jar»</text></g></g><g transform="translate(-38,-6) scale(1,1)"><g><path fill="none" stroke="none"/><text fill="#000000" stroke="none" font-family="Arial" font-size="13px" font-style="normal" font-weight="bold" text-decoration="none" x="901.91455078125" y="200.5">mysql.connector.java.5.6.7</text></g></g><g transform="translate(-38,-6) scale(1,1)"><path fill="none" stroke="#000000" d="M 835 248 L 835 176 L 872 176" stroke-miterlimit="10" stroke-dasharray="3"/></g><g transform="translate(-38,-6) scale(1,1)"><path fill="none" stroke="#000000" d="M 861.8373251423759 180.209517756016 L 872 176 L 861.8373251423758 171.790482243984" stroke-miterlimit="10"/></g><g transform="translate(-38,-6) scale(1,1)"><rect fill="#C0C0C0" stroke="none" x="889" y="95" width="260.998046875" height="44" opacity="0.2"/></g><g transform="translate(-38,-6) scale(1,1)"><rect fill="#ffffff" stroke="none" x="882" y="88" width="260.998046875" height="44"/></g><g transform="translate(-38,-6) scale(1,1)"><path fill="none" stroke="#000000" d="M 882 88 L 1142.998046875 88 L 1142.998046875 132 L 882 132 L 882 88 Z Z" stroke-miterlimit="10"/></g><g transform="translate(-38,-6) scale(1,1)"><rect fill="#ffffff" stroke="none" x="872" y="95" width="20" height="10"/></g><g transform="translate(-38,-6) scale(1,1)"><path fill="none" stroke="#000000" d="M 872 95 L 892 95 L 892 105 L 872 105 L 872 95 Z Z" stroke-miterlimit="10"/></g><g transform="translate(-38,-6) scale(1,1)"><rect fill="#ffffff" stroke="none" x="872" y="115" width="20" height="10"/></g><g transform="translate(-38,-6) scale(1,1)"><path fill="none" stroke="#000000" d="M 872 115 L 892 115 L 892 125 L 872 125 L 872 115 Z Z" stroke-miterlimit="10"/></g><g transform="translate(-38,-6) scale(1,1)"><g><path fill="none" stroke="none"/><text fill="#000000" stroke="none" font-family="Arial" font-size="13px" font-style="normal" font-weight="normal" text-decoration="none" x="1003.04541015625" y="105.5">«jar»</text></g></g><g transform="translate(-38,-6) scale(1,1)"><g><path fill="none" stroke="none"/><text fill="#000000" stroke="none" font-family="Arial" font-size="13px" font-style="normal" font-weight="bold" text-decoration="none" x="903.326904296875" y="120.5">spring.boot.starter.web.1.5.7.RELEASE</text></g></g><g transform="translate(-38,-6) scale(1,1)"><rect fill="#C0C0C0" stroke="none" x="289" y="39" width="109.34619140625" height="44" opacity="0.2"/></g><g transform="translate(-38,-6) scale(1,1)"><rect fill="#ffffff" stroke="none" x="282" y="32" width="109.34619140625" height="44"/></g><g transform="translate(-38,-6) scale(1,1)"><path fill="none" stroke="#000000" d="M 282 32 L 391.34619140625 32 L 391.34619140625 76 L 282 76 L 282 32 Z Z" stroke-miterlimit="10"/></g><g transform="translate(-38,-6) scale(1,1)"><rect fill="#ffffff" stroke="none" x="272" y="39" width="20" height="10"/></g><g transform="translate(-38,-6) scale(1,1)"><path fill="none" stroke="#000000" d="M 272 39 L 292 39 L 292 49 L 272 49 L 272 39 Z Z" stroke-miterlimit="10"/></g><g transform="translate(-38,-6) scale(1,1)"><rect fill="#ffffff" stroke="none" x="272" y="59" width="20" height="10"/></g><g transform="translate(-38,-6) scale(1,1)"><path fill="none" stroke="#000000" d="M 272 59 L 292 59 L 292 69 L 272 69 L 272 59 Z Z" stroke-miterlimit="10"/></g><g transform="translate(-38,-6) scale(1,1)"><g><path fill="none" stroke="none"/><text fill="#000000" stroke="none" font-family="Arial" font-size="13px" font-style="normal" font-weight="normal" text-decoration="none" x="327.219482421875" y="49.5">«jar»</text></g></g><g transform="translate(-38,-6) scale(1,1)"><g><path fill="none" stroke="none"/><text fill="#000000" stroke="none" font-family="Arial" font-size="13px" font-style="normal" font-weight="bold" text-decoration="none" x="299.042236328125" y="64.5">jersey.core.1.9</text></g></g><g transform="translate(-38,-6) scale(1,1)"><rect fill="#C0C0C0" stroke="none" x="289" y="127" width="284.83984375" height="44" opacity="0.2"/></g><g transform="translate(-38,-6) scale(1,1)"><rect fill="#ffffff" stroke="none" x="282" y="120" width="284.83984375" height="44"/></g><g transform="translate(-38,-6) scale(1,1)"><path fill="none" stroke="#000000" d="M 282 120 L 566.83984375 120 L 566.83984375 164 L 282 164 L 282 120 Z Z" stroke-miterlimit="10"/></g><g transform="translate(-38,-6) scale(1,1)"><rect fill="#ffffff" stroke="none" x="272" y="127" width="20" height="10"/></g><g transform="translate(-38,-6) scale(1,1)"><path fill="none" stroke="#000000" d="M 272 127 L 292 127 L 292 137 L 272 137 L 272 127 Z Z" stroke-miterlimit="10"/></g><g transform="translate(-38,-6) scale(1,1)"><rect fill="#ffffff" stroke="none" x="272" y="147" width="20" height="10"/></g><g transform="translate(-38,-6) scale(1,1)"><path fill="none" stroke="#000000" d="M 272 147 L 292 147 L 292 157 L 272 157 L 272 147 Z Z" stroke-miterlimit="10"/></g><g transform="translate(-38,-6) scale(1,1)"><g><path fill="none" stroke="none"/><text fill="#000000" stroke="none" font-family="Arial" font-size="13px" font-style="normal" font-weight="normal" text-decoration="none" x="414.96630859375" y="137.5">«jar»</text></g></g><g transform="translate(-38,-6) scale(1,1)"><g><path fill="none" stroke="none"/><text fill="#000000" stroke="none" font-family="Arial" font-size="13px" font-style="normal" font-weight="bold" text-decoration="none" x="304.041015625" y="152.5">spring.boot.starter.data.jpa.1.5.7.RELEASE</text></g></g><g transform="translate(-38,-6) scale(1,1)"><path fill="none" stroke="#000000" d="M 808 248 L 808 112 L 872 112" stroke-miterlimit="10" stroke-dasharray="3"/></g><g transform="translate(-38,-6) scale(1,1)"><path fill="none" stroke="#000000" d="M 861.8373251423759 116.20951775601598 L 872 112 L 861.8373251423758 107.79048224398402" stroke-miterlimit="10"/></g><g transform="translate(-38,-6) scale(1,1)"><path fill="none" stroke="#000000" d="M 609 248 L 609 142 L 567 142" stroke-miterlimit="10" stroke-dasharray="3"/></g><g transform="translate(-38,-6) scale(1,1)"><path fill="none" stroke="#000000" d="M 577.1626748576241 137.790482243984 L 567 142 L 577.1626748576241 146.209517756016" stroke-miterlimit="10"/></g><g transform="translate(-38,-6) scale(1,1)"><path fill="none" stroke="#000000" d="M 643 248 L 643 54 L 391 54" stroke-miterlimit="10" stroke-dasharray="3"/></g><g transform="translate(-38,-6) scale(1,1)"><path fill="none" stroke="#000000" d="M 401.16267485762415 49.790482243984016 L 391 54 L 401.16267485762415 58.209517756015984" stroke-miterlimit="10"/></g><g transform="translate(-38,-6) scale(1,1)"><rect fill="#C0C0C0" stroke="none" x="1137" y="1095" width="290.5908203125" height="44" opacity="0.2"/></g><g transform="translate(-38,-6) scale(1,1)"><rect fill="#ffffff" stroke="none" x="1130" y="1088" width="290.5908203125" height="44"/></g><g transform="translate(-38,-6) scale(1,1)"><path fill="none" stroke="#000000" d="M 1130 1088 L 1420.5908203125 1088 L 1420.5908203125 1132 L 1130 1132 L 1130 1088 Z Z" stroke-miterlimit="10"/></g><g transform="translate(-38,-6) scale(1,1)"><rect fill="#ffffff" stroke="none" x="1120" y="1095" width="20" height="10"/></g><g transform="translate(-38,-6) scale(1,1)"><path fill="none" stroke="#000000" d="M 1120 1095 L 1140 1095 L 1140 1105 L 1120 1105 L 1120 1095 Z Z" stroke-miterlimit="10"/></g><g transform="translate(-38,-6) scale(1,1)"><rect fill="#ffffff" stroke="none" x="1120" y="1115" width="20" height="10"/></g><g transform="translate(-38,-6) scale(1,1)"><path fill="none" stroke="#000000" d="M 1120 1115 L 1140 1115 L 1140 1125 L 1120 1125 L 1120 1115 Z Z" stroke-miterlimit="10"/></g><g transform="translate(-38,-6) scale(1,1)"><g><path fill="none" stroke="none"/><text fill="#000000" stroke="none" font-family="Arial" font-size="13px" font-style="normal" font-weight="normal" text-decoration="none" x="1262.591796875" y="1105.5">«war»</text></g></g><g transform="translate(-38,-6) scale(1,1)"><g><path fill="none" stroke="none"/><text fill="#000000" stroke="none" font-family="Arial" font-size="13px" font-style="normal" font-weight="bold" text-decoration="none" x="1186.734130859375" y="1120.5">web-app-server.1.0.SNAPSHOT</text></g></g><g transform="translate(-38,-6) scale(1,1)"><rect fill="#C0C0C0" stroke="none" x="1513" y="1607" width="211.17529296875" height="44" opacity="0.2"/></g><g transform="translate(-38,-6) scale(1,1)"><rect fill="#ffffff" stroke="none" x="1506" y="1600" width="211.17529296875" height="44"/></g><g transform="translate(-38,-6) scale(1,1)"><path fill="none" stroke="#000000" d="M 1506 1600 L 1717.17529296875 1600 L 1717.17529296875 1644 L 1506 1644 L 1506 1600 Z Z" stroke-miterlimit="10"/></g><g transform="translate(-38,-6) scale(1,1)"><rect fill="#ffffff" stroke="none" x="1496" y="1607" width="20" height="10"/></g><g transform="translate(-38,-6) scale(1,1)"><path fill="none" stroke="#000000" d="M 1496 1607 L 1516 1607 L 1516 1617 L 1496 1617 L 1496 1607 Z Z" stroke-miterlimit="10"/></g><g transform="translate(-38,-6) scale(1,1)"><rect fill="#ffffff" stroke="none" x="1496" y="1627" width="20" height="10"/></g><g transform="translate(-38,-6) scale(1,1)"><path fill="none" stroke="#000000" d="M 1496 1627 L 1516 1627 L 1516 1637 L 1496 1637 L 1496 1627 Z Z" stroke-miterlimit="10"/></g><g transform="translate(-38,-6) scale(1,1)"><g><path fill="none" stroke="none"/><text fill="#000000" stroke="none" font-family="Arial" font-size="13px" font-style="normal" font-weight="normal" text-decoration="none" x="1602.134033203125" y="1617.5">«jar»</text></g></g><g transform="translate(-38,-6) scale(1,1)"><g><path fill="none" stroke="none"/><text fill="#000000" stroke="none" font-family="Arial" font-size="13px" font-style="normal" font-weight="bold" text-decoration="none" x="1525.1845703125" y="1632.5">spring.webmvc.4.2.0.RELEASE</text></g></g><g transform="translate(-38,-6) scale(1,1)"><rect fill="#C0C0C0" stroke="none" x="1513" y="1447" width="185.15625" height="44" opacity="0.2"/></g><g transform="translate(-38,-6) scale(1,1)"><rect fill="#ffffff" stroke="none" x="1506" y="1440" width="185.15625" height="44"/></g><g transform="translate(-38,-6) scale(1,1)"><path fill="none" stroke="#000000" d="M 1506 1440 L 1691.15625 1440 L 1691.15625 1484 L 1506 1484 L 1506 1440 Z Z" stroke-miterlimit="10"/></g><g transform="translate(-38,-6) scale(1,1)"><rect fill="#ffffff" stroke="none" x="1496" y="1447" width="20" height="10"/></g><g transform="translate(-38,-6) scale(1,1)"><path fill="none" stroke="#000000" d="M 1496 1447 L 1516 1447 L 1516 1457 L 1496 1457 L 1496 1447 Z Z" stroke-miterlimit="10"/></g><g transform="translate(-38,-6) scale(1,1)"><rect fill="#ffffff" stroke="none" x="1496" y="1467" width="20" height="10"/></g><g transform="translate(-38,-6) scale(1,1)"><path fill="none" stroke="#000000" d="M 1496 1467 L 1516 1467 L 1516 1477 L 1496 1477 L 1496 1467 Z Z" stroke-miterlimit="10"/></g><g transform="translate(-38,-6) scale(1,1)"><g><path fill="none" stroke="none"/><text fill="#000000" stroke="none" font-family="Arial" font-size="13px" font-style="normal" font-weight="normal" text-decoration="none" x="1589.12451171875" y="1457.5">«jar»</text></g></g><g transform="translate(-38,-6) scale(1,1)"><g><path fill="none" stroke="none"/><text fill="#000000" stroke="none" font-family="Arial" font-size="13px" font-style="normal" font-weight="bold" text-decoration="none" x="1524.089599609375" y="1472.5">spring.web.4.2.0.RELEASE</text></g></g><g transform="translate(-38,-6) scale(1,1)"><rect fill="#C0C0C0" stroke="none" x="1513" y="1359" width="98.44091796875" height="44" opacity="0.2"/></g><g transform="translate(-38,-6) scale(1,1)"><rect fill="#ffffff" stroke="none" x="1506" y="1352" width="98.44091796875" height="44"/></g><g transform="translate(-38,-6) scale(1,1)"><path fill="none" stroke="#000000" d="M 1506 1352 L 1604.44091796875 1352 L 1604.44091796875 1396 L 1506 1396 L 1506 1352 Z Z" stroke-miterlimit="10"/></g><g transform="translate(-38,-6) scale(1,1)"><rect fill="#ffffff" stroke="none" x="1496" y="1359" width="20" height="10"/></g><g transform="translate(-38,-6) scale(1,1)"><path fill="none" stroke="#000000" d="M 1496 1359 L 1516 1359 L 1516 1369 L 1496 1369 L 1496 1359 Z Z" stroke-miterlimit="10"/></g><g transform="translate(-38,-6) scale(1,1)"><rect fill="#ffffff" stroke="none" x="1496" y="1379" width="20" height="10"/></g><g transform="translate(-38,-6) scale(1,1)"><path fill="none" stroke="#000000" d="M 1496 1379 L 1516 1379 L 1516 1389 L 1496 1389 L 1496 1379 Z Z" stroke-miterlimit="10"/></g><g transform="translate(-38,-6) scale(1,1)"><g><path fill="none" stroke="none"/><text fill="#000000" stroke="none" font-family="Arial" font-size="13px" font-style="normal" font-weight="normal" text-decoration="none" x="1545.766845703125" y="1369.5">«jar»</text></g></g><g transform="translate(-38,-6) scale(1,1)"><g><path fill="none" stroke="none"/><text fill="#000000" stroke="none" font-family="Arial" font-size="13px" font-style="normal" font-weight="bold" text-decoration="none" x="1541.4345703125" y="1384.5">jstl.1.2</text></g></g><g transform="translate(-38,-6) scale(1,1)"><rect fill="#C0C0C0" stroke="none" x="1513" y="1103" width="157.71533203125" height="44" opacity="0.2"/></g><g transform="translate(-38,-6) scale(1,1)"><rect fill="#ffffff" stroke="none" x="1506" y="1096" width="157.71533203125" height="44"/></g><g transform="translate(-38,-6) scale(1,1)"><path fill="none" stroke="#000000" d="M 1506 1096 L 1663.71533203125 1096 L 1663.71533203125 1140 L 1506 1140 L 1506 1096 Z Z" stroke-miterlimit="10"/></g><g transform="translate(-38,-6) scale(1,1)"><rect fill="#ffffff" stroke="none" x="1496" y="1103" width="20" height="10"/></g><g transform="translate(-38,-6) scale(1,1)"><path fill="none" stroke="#000000" d="M 1496 1103 L 1516 1103 L 1516 1113 L 1496 1113 L 1496 1103 Z Z" stroke-miterlimit="10"/></g><g transform="translate(-38,-6) scale(1,1)"><rect fill="#ffffff" stroke="none" x="1496" y="1123" width="20" height="10"/></g><g transform="translate(-38,-6) scale(1,1)"><path fill="none" stroke="#000000" d="M 1496 1123 L 1516 1123 L 1516 1133 L 1496 1133 L 1496 1123 Z Z" stroke-miterlimit="10"/></g><g transform="translate(-38,-6) scale(1,1)"><g><path fill="none" stroke="none"/><text fill="#000000" stroke="none" font-family="Arial" font-size="13px" font-style="normal" font-weight="normal" text-decoration="none" x="1575.404052734375" y="1113.5">«jar»</text></g></g><g transform="translate(-38,-6) scale(1,1)"><g><path fill="none" stroke="none"/><text fill="#000000" stroke="none" font-family="Arial" font-size="13px" font-style="normal" font-weight="bold" text-decoration="none" x="1524.81005859375" y="1128.5">jackson.databind.2.8.7</text></g></g><g transform="translate(-38,-6) scale(1,1)"><rect fill="#C0C0C0" stroke="none" x="1513" y="1271" width="115.83984375" height="44" opacity="0.2"/></g><g transform="translate(-38,-6) scale(1,1)"><rect fill="#ffffff" stroke="none" x="1506" y="1264" width="115.83984375" height="44"/></g><g transform="translate(-38,-6) scale(1,1)"><path fill="none" stroke="#000000" d="M 1506 1264 L 1621.83984375 1264 L 1621.83984375 1308 L 1506 1308 L 1506 1264 Z Z" stroke-miterlimit="10"/></g><g transform="translate(-38,-6) scale(1,1)"><rect fill="#ffffff" stroke="none" x="1496" y="1271" width="20" height="10"/></g><g transform="translate(-38,-6) scale(1,1)"><path fill="none" stroke="#000000" d="M 1496 1271 L 1516 1271 L 1516 1281 L 1496 1281 L 1496 1271 Z Z" stroke-miterlimit="10"/></g><g transform="translate(-38,-6) scale(1,1)"><rect fill="#ffffff" stroke="none" x="1496" y="1291" width="20" height="10"/></g><g transform="translate(-38,-6) scale(1,1)"><path fill="none" stroke="#000000" d="M 1496 1291 L 1516 1291 L 1516 1301 L 1496 1301 L 1496 1291 Z Z" stroke-miterlimit="10"/></g><g transform="translate(-38,-6) scale(1,1)"><g><path fill="none" stroke="none"/><text fill="#000000" stroke="none" font-family="Arial" font-size="13px" font-style="normal" font-weight="normal" text-decoration="none" x="1554.46630859375" y="1281.5">«jar»</text></g></g><g transform="translate(-38,-6) scale(1,1)"><g><path fill="none" stroke="none"/><text fill="#000000" stroke="none" font-family="Arial" font-size="13px" font-style="normal" font-weight="bold" text-decoration="none" x="1523.759521484375" y="1296.5">jersey.client.1.9</text></g></g><g transform="translate(-38,-6) scale(1,1)"><rect fill="#C0C0C0" stroke="none" x="1513" y="1527" width="151.9833984375" height="44" opacity="0.2"/></g><g transform="translate(-38,-6) scale(1,1)"><rect fill="#ffffff" stroke="none" x="1506" y="1520" width="151.9833984375" height="44"/></g><g transform="translate(-38,-6) scale(1,1)"><path fill="none" stroke="#000000" d="M 1506 1520 L 1657.9833984375 1520 L 1657.9833984375 1564 L 1506 1564 L 1506 1520 Z Z" stroke-miterlimit="10"/></g><g transform="translate(-38,-6) scale(1,1)"><rect fill="#ffffff" stroke="none" x="1496" y="1527" width="20" height="10"/></g><g transform="translate(-38,-6) scale(1,1)"><path fill="none" stroke="#000000" d="M 1496 1527 L 1516 1527 L 1516 1537 L 1496 1537 L 1496 1527 Z Z" stroke-miterlimit="10"/></g><g transform="translate(-38,-6) scale(1,1)"><rect fill="#ffffff" stroke="none" x="1496" y="1547" width="20" height="10"/></g><g transform="translate(-38,-6) scale(1,1)"><path fill="none" stroke="#000000" d="M 1496 1547 L 1516 1547 L 1516 1557 L 1496 1557 L 1496 1547 Z Z" stroke-miterlimit="10"/></g><g transform="translate(-38,-6) scale(1,1)"><g><path fill="none" stroke="none"/><text fill="#000000" stroke="none" font-family="Arial" font-size="13px" font-style="normal" font-weight="normal" text-decoration="none" x="1572.5380859375" y="1537.5">«jar»</text></g></g><g transform="translate(-38,-6) scale(1,1)"><g><path fill="none" stroke="none"/><text fill="#000000" stroke="none" font-family="Arial" font-size="13px" font-style="normal" font-weight="bold" text-decoration="none" x="1524.12451171875" y="1552.5">javax.servlet.api.3.1.0</text></g></g><g transform="translate(-38,-6) scale(1,1)"><rect fill="#C0C0C0" stroke="none" x="1513" y="1191" width="98.44091796875" height="44" opacity="0.2"/></g><g transform="translate(-38,-6) scale(1,1)"><rect fill="#ffffff" stroke="none" x="1506" y="1184" width="98.44091796875" height="44"/></g><g transform="translate(-38,-6) scale(1,1)"><path fill="none" stroke="#000000" d="M 1506 1184 L 1604.44091796875 1184 L 1604.44091796875 1228 L 1506 1228 L 1506 1184 Z Z" stroke-miterlimit="10"/></g><g transform="translate(-38,-6) scale(1,1)"><rect fill="#ffffff" stroke="none" x="1496" y="1191" width="20" height="10"/></g><g transform="translate(-38,-6) scale(1,1)"><path fill="none" stroke="#000000" d="M 1496 1191 L 1516 1191 L 1516 1201 L 1496 1201 L 1496 1191 Z Z" stroke-miterlimit="10"/></g><g transform="translate(-38,-6) scale(1,1)"><rect fill="#ffffff" stroke="none" x="1496" y="1211" width="20" height="10"/></g><g transform="translate(-38,-6) scale(1,1)"><path fill="none" stroke="#000000" d="M 1496 1211 L 1516 1211 L 1516 1221 L 1496 1221 L 1496 1211 Z Z" stroke-miterlimit="10"/></g><g transform="translate(-38,-6) scale(1,1)"><g><path fill="none" stroke="none"/><text fill="#000000" stroke="none" font-family="Arial" font-size="13px" font-style="normal" font-weight="normal" text-decoration="none" x="1545.766845703125" y="1201.5">«jar»</text></g></g><g transform="translate(-38,-6) scale(1,1)"><g><path fill="none" stroke="none"/><text fill="#000000" stroke="none" font-family="Arial" font-size="13px" font-style="normal" font-weight="bold" text-decoration="none" x="1524.4482421875" y="1216.5">groovy.1.8.3</text></g></g><g transform="translate(-38,-6) scale(1,1)"><path fill="none" stroke="#000000" d="M 1168 1132 L 1168 1622 L 1496 1622" stroke-miterlimit="10" stroke-dasharray="3"/></g><g transform="translate(-38,-6) scale(1,1)"><path fill="none" stroke="#000000" d="M 1485.837325142376 1626.2095177560159 L 1496 1622 L 1485.837325142376 1617.7904822439841" stroke-miterlimit="10"/></g><g transform="translate(-38,-6) scale(1,1)"><path fill="none" stroke="#000000" d="M 1216 1132 L 1216 1550 L 1496 1550" stroke-miterlimit="10" stroke-dasharray="3"/></g><g transform="translate(-38,-6) scale(1,1)"><path fill="none" stroke="#000000" d="M 1485.837325142376 1554.2095177560159 L 1496 1550 L 1485.837325142376 1545.7904822439841" stroke-miterlimit="10"/></g><g transform="translate(-38,-6) scale(1,1)"><path fill="none" stroke="#000000" d="M 1248 1132 L 1248 1456 L 1496 1456" stroke-miterlimit="10" stroke-dasharray="3"/></g><g transform="translate(-38,-6) scale(1,1)"><path fill="none" stroke="#000000" d="M 1485.837325142376 1460.2095177560159 L 1496 1456 L 1485.837325142376 1451.7904822439841" stroke-miterlimit="10"/></g><g transform="translate(-38,-6) scale(1,1)"><path fill="none" stroke="#000000" d="M 1280 1132 L 1280 1390 L 1496 1390" stroke-miterlimit="10" stroke-dasharray="3"/></g><g transform="translate(-38,-6) scale(1,1)"><path fill="none" stroke="#000000" d="M 1485.837325142376 1394.2095177560159 L 1496 1390 L 1485.837325142376 1385.7904822439841" stroke-miterlimit="10"/></g><g transform="translate(-38,-6) scale(1,1)"><path fill="none" stroke="#000000" d="M 1421 1110 L 1496 1110" stroke-miterlimit="10" stroke-dasharray="3"/></g><g transform="translate(-38,-6) scale(1,1)"><path fill="none" stroke="#000000" d="M 1485.837325142376 1114.2095177560159 L 1496 1110 L 1485.837325142376 1105.7904822439841" stroke-miterlimit="10"/></g><g transform="translate(-38,-6) scale(1,1)"><path fill="none" stroke="#000000" d="M 1309 1132 L 1309 1286 L 1496 1286" stroke-miterlimit="10" stroke-dasharray="3"/></g><g transform="translate(-38,-6) scale(1,1)"><path fill="none" stroke="#000000" d="M 1485.837325142376 1290.2095177560159 L 1496 1286 L 1485.837325142376 1281.7904822439841" stroke-miterlimit="10"/></g><g transform="translate(-38,-6) scale(1,1)"><path fill="none" stroke="#000000" d="M 1336 1132 L 1336 1184 L 1496 1184" stroke-miterlimit="10" stroke-dasharray="3"/></g><g transform="translate(-38,-6) scale(1,1)"><path fill="none" stroke="#000000" d="M 1485.837325142376 1188.2095177560159 L 1496 1184 L 1485.837325142376 1179.7904822439841" stroke-miterlimit="10"/></g><g transform="translate(-38,-6) scale(1,1)"><rect fill="#C0C0C0" stroke="none" x="1521" y="199" width="141" height="55" opacity="0.2"/></g><g transform="translate(-38,-6) scale(1,1)"><rect fill="#ffffff" stroke="none" x="1514" y="192" width="141" height="55"/></g><g transform="translate(-38,-6) scale(1,1)"><path fill="none" stroke="#000000" d="M 1514 192 L 1655 192 L 1655 247 L 1514 247 L 1514 192 Z Z" stroke-miterlimit="10"/></g><g transform="translate(-38,-6) scale(1,1)"><rect fill="#ffffff" stroke="none" x="1504" y="199" width="20" height="10"/></g><g transform="translate(-38,-6) scale(1,1)"><path fill="none" stroke="#000000" d="M 1504 199 L 1524 199 L 1524 209 L 1504 209 L 1504 199 Z Z" stroke-miterlimit="10"/></g><g transform="translate(-38,-6) scale(1,1)"><rect fill="#ffffff" stroke="none" x="1504" y="219" width="20" height="10"/></g><g transform="translate(-38,-6) scale(1,1)"><path fill="none" stroke="#000000" d="M 1504 219 L 1524 219 L 1524 229 L 1504 229 L 1504 219 Z Z" stroke-miterlimit="10"/></g><g transform="translate(-38,-6) scale(1,1)"><g><path fill="none" stroke="none"/><text fill="#000000" stroke="none" font-family="Arial" font-size="13px" font-style="normal" font-weight="normal" text-decoration="none" x="1550.109619140625" y="209.5">«component»</text></g></g><g transform="translate(-38,-6) scale(1,1)"><g><path fill="none" stroke="none"/><text fill="#000000" stroke="none" font-family="Arial" font-size="13px" font-style="normal" font-weight="bold" text-decoration="none" x="1556.263671875" y="224.5">Mysql.5.6.7</text></g></g><g transform="translate(-38,-6) scale(1,1)"><path fill="#C0C0C0" stroke="none" d="M 1318.7099609375 234.5 C 1318.7099609375 228.1487248 1323.8586857375 223 1330.2099609375 223 C 1336.5612361375 223 1341.7099609375 228.1487248 1341.7099609375 234.5 C 1341.7099609375 240.8512752 1336.5612361375 246 1330.2099609375 246 C 1323.8586857375 246 1318.7099609375 240.8512752 1318.7099609375 234.5 Z" opacity="0.2"/></g><g transform="translate(-38,-6) scale(1,1)"><path fill="none" stroke="#000000" d="M 1314.8682720163547 235.1317279836453 A 11.5 11.5 0 0 1 1331.1317279836453 218.8682720163547" stroke-miterlimit="10"/></g><g transform="translate(-38,-6) scale(1,1)"><path fill="#ffffff" stroke="none" d="M 1314.7099609375 227.5 C 1314.7099609375 222.8055792 1318.5155401375 219 1323.2099609375 219 C 1327.9043817375 219 1331.7099609375 222.8055792 1331.7099609375 227.5 C 1331.7099609375 232.1944208 1327.9043817375 236 1323.2099609375 236 C 1318.5155401375 236 1314.7099609375 232.1944208 1314.7099609375 227.5 Z"/></g><g transform="translate(-38,-6) scale(1,1)"><path fill="none" stroke="#000000" d="M 1314.7099609375 227.5 C 1314.7099609375 222.8055792 1318.5155401375 219 1323.2099609375 219 C 1327.9043817375 219 1331.7099609375 222.8055792 1331.7099609375 227.5 C 1331.7099609375 232.1944208 1327.9043817375 236 1323.2099609375 236 C 1318.5155401375 236 1314.7099609375 232.1944208 1314.7099609375 227.5 Z" stroke-miterlimit="10"/></g><g transform="translate(-38,-6) scale(1,1)"><g><path fill="none" stroke="none"/><text fill="#000000" stroke="none" font-family="Arial" font-size="13px" font-style="normal" font-weight="bold" text-decoration="none" x="1323.2099609375" y="258.5"></text></g></g><g transform="translate(-38,-6) scale(1,1)"><path fill="none" stroke="#000000" d="M 1504 227 L 1334.7099609375 227" stroke-miterlimit="10"/></g><g transform="translate(-38,-6) scale(1,1)"><g><path fill="none" stroke="none"/><text fill="#000000" stroke="none" font-family="Arial" font-size="13px" font-style="normal" font-weight="normal" text-decoration="none" x="1457.244140625" y="209.5">+3306</text></g></g><g transform="translate(-38,-6) scale(1,1)"><path fill="none" stroke="#000000" d="M 1066 190 L 1144 190 L 1144 184 L 1312 184 L 1312 216" stroke-miterlimit="10"/></g><g transform="translate(-38,-6) scale(1,1)"><g><path fill="none" stroke="none"/><text fill="#000000" stroke="none" font-family="Helvetica" font-size="13px" font-style="normal" font-weight="normal" text-decoration="none" x="1206.5" y="208.5">+jdbc</text></g></g><g transform="translate(-38,-6) scale(1,1)"><rect fill="#C0C0C0" stroke="none" x="1473" y="407" width="229" height="55" opacity="0.2"/></g><g transform="translate(-38,-6) scale(1,1)"><rect fill="#ffffff" stroke="none" x="1466" y="400" width="229" height="55"/></g><g transform="translate(-38,-6) scale(1,1)"><path fill="none" stroke="#000000" d="M 1466 400 L 1695 400 L 1695 455 L 1466 455 L 1466 400 Z Z" stroke-miterlimit="10"/></g><g transform="translate(-38,-6) scale(1,1)"><rect fill="#ffffff" stroke="none" x="1456" y="407" width="20" height="10"/></g><g transform="translate(-38,-6) scale(1,1)"><path fill="none" stroke="#000000" d="M 1456 407 L 1476 407 L 1476 417 L 1456 417 L 1456 407 Z Z" stroke-miterlimit="10"/></g><g transform="translate(-38,-6) scale(1,1)"><rect fill="#ffffff" stroke="none" x="1456" y="427" width="20" height="10"/></g><g transform="translate(-38,-6) scale(1,1)"><path fill="none" stroke="#000000" d="M 1456 427 L 1476 427 L 1476 437 L 1456 437 L 1456 427 Z Z" stroke-miterlimit="10"/></g><g transform="translate(-38,-6) scale(1,1)"><g><path fill="none" stroke="none"/><text fill="#000000" stroke="none" font-family="Arial" font-size="13px" font-style="normal" font-weight="normal" text-decoration="none" x="1567.7900390625" y="417.5">«apk»</text></g></g><g transform="translate(-38,-6) scale(1,1)"><g><path fill="none" stroke="none"/><text fill="#000000" stroke="none" font-family="Arial" font-size="13px" font-style="normal" font-weight="bold" text-decoration="none" x="1529.491455078125" y="432.5">app.mobile.esibank</text></g></g><g transform="translate(-38,-6) scale(1,1)"><rect fill="#C0C0C0" stroke="none" x="889" y="23" width="98.44091796875" height="44" opacity="0.2"/></g><g transform="translate(-38,-6) scale(1,1)"><rect fill="#ffffff" stroke="none" x="882" y="16" width="98.44091796875" height="44"/></g><g transform="translate(-38,-6) scale(1,1)"><path fill="none" stroke="#000000" d="M 882 16 L 980.44091796875 16 L 980.44091796875 60 L 882 60 L 882 16 Z Z" stroke-miterlimit="10"/></g><g transform="translate(-38,-6) scale(1,1)"><rect fill="#ffffff" stroke="none" x="872" y="23" width="20" height="10"/></g><g transform="translate(-38,-6) scale(1,1)"><path fill="none" stroke="#000000" d="M 872 23 L 892 23 L 892 33 L 872 33 L 872 23 Z Z" stroke-miterlimit="10"/></g><g transform="translate(-38,-6) scale(1,1)"><rect fill="#ffffff" stroke="none" x="872" y="43" width="20" height="10"/></g><g transform="translate(-38,-6) scale(1,1)"><path fill="none" stroke="#000000" d="M 872 43 L 892 43 L 892 53 L 872 53 L 872 43 Z Z" stroke-miterlimit="10"/></g><g transform="translate(-38,-6) scale(1,1)"><g><path fill="none" stroke="none"/><text fill="#000000" stroke="none" font-family="Arial" font-size="13px" font-style="normal" font-weight="normal" text-decoration="none" x="921.766845703125" y="33.5">«jar»</text></g></g><g transform="translate(-38,-6) scale(1,1)"><g><path fill="none" stroke="none"/><text fill="#000000" stroke="none" font-family="Arial" font-size="13px" font-style="normal" font-weight="bold" text-decoration="none" x="903.6982421875" y="48.5">dozer.5.5.1</text></g></g><g transform="translate(-38,-6) scale(1,1)"><path fill="none" stroke="#000000" d="M 766 248 L 766 38 L 872 38" stroke-miterlimit="10" stroke-dasharray="3"/></g><g transform="translate(-38,-6) scale(1,1)"><path fill="none" stroke="#000000" d="M 861.8373251423759 42.20951775601599 L 872 38 L 861.8373251423758 33.790482243984016" stroke-miterlimit="10"/></g><g transform="translate(-38,-6) scale(1,1)"><rect fill="#C0C0C0" stroke="none" x="529" y="1175" width="183.0234375" height="44" opacity="0.2"/></g><g transform="translate(-38,-6) scale(1,1)"><rect fill="#ffffff" stroke="none" x="522" y="1168" width="183.0234375" height="44"/></g><g transform="translate(-38,-6) scale(1,1)"><path fill="none" stroke="#000000" d="M 522 1168 L 705.0234375 1168 L 705.0234375 1212 L 522 1212 L 522 1168 Z Z" stroke-miterlimit="10"/></g><g transform="translate(-38,-6) scale(1,1)"><rect fill="#ffffff" stroke="none" x="512" y="1175" width="20" height="10"/></g><g transform="translate(-38,-6) scale(1,1)"><path fill="none" stroke="#000000" d="M 512 1175 L 532 1175 L 532 1185 L 512 1185 L 512 1175 Z Z" stroke-miterlimit="10"/></g><g transform="translate(-38,-6) scale(1,1)"><rect fill="#ffffff" stroke="none" x="512" y="1195" width="20" height="10"/></g><g transform="translate(-38,-6) scale(1,1)"><path fill="none" stroke="#000000" d="M 512 1195 L 532 1195 L 532 1205 L 512 1205 L 512 1195 Z Z" stroke-miterlimit="10"/></g><g transform="translate(-38,-6) scale(1,1)"><g><path fill="none" stroke="none"/><text fill="#000000" stroke="none" font-family="Arial" font-size="13px" font-style="normal" font-weight="normal" text-decoration="none" x="600.80810546875" y="1185.5">«war»</text></g></g><g transform="translate(-38,-6) scale(1,1)"><g><path fill="none" stroke="none"/><text fill="#000000" stroke="none" font-family="Arial" font-size="13px" font-style="normal" font-weight="bold" text-decoration="none" x="539.4072265625" y="1200.5">rest.server.1.0.SNAPSHOT</text></g></g><g transform="translate(-38,-6) scale(1,1)"><rect fill="#C0C0C0" stroke="none" x="65" y="1119" width="260.998046875" height="44" opacity="0.2"/></g><g transform="translate(-38,-6) scale(1,1)"><rect fill="#ffffff" stroke="none" x="58" y="1112" width="260.998046875" height="44"/></g><g transform="translate(-38,-6) scale(1,1)"><path fill="none" stroke="#000000" d="M 58 1112 L 318.998046875 1112 L 318.998046875 1156 L 58 1156 L 58 1112 Z Z" stroke-miterlimit="10"/></g><g transform="translate(-38,-6) scale(1,1)"><rect fill="#ffffff" stroke="none" x="48" y="1119" width="20" height="10"/></g><g transform="translate(-38,-6) scale(1,1)"><path fill="none" stroke="#000000" d="M 48 1119 L 68 1119 L 68 1129 L 48 1129 L 48 1119 Z Z" stroke-miterlimit="10"/></g><g transform="translate(-38,-6) scale(1,1)"><rect fill="#ffffff" stroke="none" x="48" y="1139" width="20" height="10"/></g><g transform="translate(-38,-6) scale(1,1)"><path fill="none" stroke="#000000" d="M 48 1139 L 68 1139 L 68 1149 L 48 1149 L 48 1139 Z Z" stroke-miterlimit="10"/></g><g transform="translate(-38,-6) scale(1,1)"><g><path fill="none" stroke="none"/><text fill="#000000" stroke="none" font-family="Arial" font-size="13px" font-style="normal" font-weight="normal" text-decoration="none" x="179.04541015625" y="1129.5">«jar»</text></g></g><g transform="translate(-38,-6) scale(1,1)"><g><path fill="none" stroke="none"/><text fill="#000000" stroke="none" font-family="Arial" font-size="13px" font-style="normal" font-weight="bold" text-decoration="none" x="79.326904296875" y="1144.5">spring.boot.starter.web.1.5.7.RELEASE</text></g></g><g transform="translate(-38,-6) scale(1,1)"><rect fill="#C0C0C0" stroke="none" x="65" y="1223" width="109.34619140625" height="44" opacity="0.2"/></g><g transform="translate(-38,-6) scale(1,1)"><rect fill="#ffffff" stroke="none" x="58" y="1216" width="109.34619140625" height="44"/></g><g transform="translate(-38,-6) scale(1,1)"><path fill="none" stroke="#000000" d="M 58 1216 L 167.34619140625 1216 L 167.34619140625 1260 L 58 1260 L 58 1216 Z Z" stroke-miterlimit="10"/></g><g transform="translate(-38,-6) scale(1,1)"><rect fill="#ffffff" stroke="none" x="48" y="1223" width="20" height="10"/></g><g transform="translate(-38,-6) scale(1,1)"><path fill="none" stroke="#000000" d="M 48 1223 L 68 1223 L 68 1233 L 48 1233 L 48 1223 Z Z" stroke-miterlimit="10"/></g><g transform="translate(-38,-6) scale(1,1)"><rect fill="#ffffff" stroke="none" x="48" y="1243" width="20" height="10"/></g><g transform="translate(-38,-6) scale(1,1)"><path fill="none" stroke="#000000" d="M 48 1243 L 68 1243 L 68 1253 L 48 1253 L 48 1243 Z Z" stroke-miterlimit="10"/></g><g transform="translate(-38,-6) scale(1,1)"><g><path fill="none" stroke="none"/><text fill="#000000" stroke="none" font-family="Arial" font-size="13px" font-style="normal" font-weight="normal" text-decoration="none" x="103.219482421875" y="1233.5">«jar»</text></g></g><g transform="translate(-38,-6) scale(1,1)"><g><path fill="none" stroke="none"/><text fill="#000000" stroke="none" font-family="Arial" font-size="13px" font-style="normal" font-weight="bold" text-decoration="none" x="75.042236328125" y="1248.5">jersey.core.1.9</text></g></g><g transform="translate(-38,-6) scale(1,1)"><path fill="none" stroke="#000000" d="M 528 1168 L 528 1134 L 319 1134" stroke-miterlimit="10" stroke-dasharray="3"/></g><g transform="translate(-38,-6) scale(1,1)"><path fill="none" stroke="#000000" d="M 329.16267485762415 1129.7904822439841 L 319 1134 L 329.16267485762415 1138.2095177560159" stroke-miterlimit="10"/></g><g transform="translate(-38,-6) scale(1,1)"><path fill="none" stroke="#000000" d="M 528 1212 L 528 1238 L 167 1238" stroke-miterlimit="10" stroke-dasharray="3"/></g><g transform="translate(-38,-6) scale(1,1)"><path fill="none" stroke="#000000" d="M 177.16267485762415 1233.7904822439841 L 167 1238 L 177.16267485762415 1242.2095177560159" stroke-miterlimit="10"/></g><g transform="translate(-38,-6) scale(1,1)"><path fill="#C0C0C0" stroke="none" d="M 934.7099609375 1098.5 C 934.7099609375 1092.1487248 939.8586857375 1087 946.2099609375 1087 C 952.5612361375 1087 957.7099609375 1092.1487248 957.7099609375 1098.5 C 957.7099609375 1104.8512752 952.5612361375 1110 946.2099609375 1110 C 939.8586857375 1110 934.7099609375 1104.8512752 934.7099609375 1098.5 Z" opacity="0.2"/></g><g transform="translate(-38,-6) scale(1,1)"><path fill="none" stroke="#000000" d="M 939 1079.5 A 11.5 11.5 0 0 1 939 1102.5" stroke-miterlimit="10"/></g><g transform="translate(-38,-6) scale(1,1)"><path fill="none" stroke="#000000" d="M 928.5307855091801 1086.2412661405365 A 11.5 11.5 0 0 1 949.4692144908199 1095.7587338594635" stroke-miterlimit="10"/></g><g transform="translate(-38,-6) scale(1,1)"><path fill="#ffffff" stroke="none" d="M 930.7099609375 1091.5 C 930.7099609375 1086.8055792 934.5155401375 1083 939.2099609375 1083 C 943.9043817375 1083 947.7099609375 1086.8055792 947.7099609375 1091.5 C 947.7099609375 1096.1944208 943.9043817375 1100 939.2099609375 1100 C 934.5155401375 1100 930.7099609375 1096.1944208 930.7099609375 1091.5 Z"/></g><g transform="translate(-38,-6) scale(1,1)"><path fill="none" stroke="#000000" d="M 930.7099609375 1091.5 C 930.7099609375 1086.8055792 934.5155401375 1083 939.2099609375 1083 C 943.9043817375 1083 947.7099609375 1086.8055792 947.7099609375 1091.5 C 947.7099609375 1096.1944208 943.9043817375 1100 939.2099609375 1100 C 934.5155401375 1100 930.7099609375 1096.1944208 930.7099609375 1091.5 Z" stroke-miterlimit="10"/></g><g transform="translate(-38,-6) scale(1,1)"><g><path fill="none" stroke="none"/><text fill="#000000" stroke="none" font-family="Arial" font-size="13px" font-style="normal" font-weight="bold" text-decoration="none" x="921.87451171875" y="1122.5">REST</text></g></g><g transform="translate(-38,-6) scale(1,1)"><path fill="#C0C0C0" stroke="none" d="M 646.7099609375 434.5 C 646.7099609375 428.1487248 651.8586857375 423 658.2099609375 423 C 664.5612361375 423 669.7099609375 428.1487248 669.7099609375 434.5 C 669.7099609375 440.8512752 664.5612361375 446 658.2099609375 446 C 651.8586857375 446 646.7099609375 440.8512752 646.7099609375 434.5 Z" opacity="0.2"/></g><g transform="translate(-38,-6) scale(1,1)"><path fill="none" stroke="#000000" d="M 651 438.5 A 11.5 11.5 0 0 1 651 415.5" stroke-miterlimit="10"/></g><g transform="translate(-38,-6) scale(1,1)"><path fill="none" stroke="#000000" d="M 651 415.5 A 11.5 11.5 0 0 1 651 438.5" stroke-miterlimit="10"/></g><g transform="translate(-38,-6) scale(1,1)"><path fill="#ffffff" stroke="none" d="M 642.7099609375 427.5 C 642.7099609375 422.8055792 646.5155401375 419 651.2099609375 419 C 655.9043817375 419 659.7099609375 422.8055792 659.7099609375 427.5 C 659.7099609375 432.1944208 655.9043817375 436 651.2099609375 436 C 646.5155401375 436 642.7099609375 432.1944208 642.7099609375 427.5 Z"/></g><g transform="translate(-38,-6) scale(1,1)"><path fill="none" stroke="#000000" d="M 642.7099609375 427.5 C 642.7099609375 422.8055792 646.5155401375 419 651.2099609375 419 C 655.9043817375 419 659.7099609375 422.8055792 659.7099609375 427.5 C 659.7099609375 432.1944208 655.9043817375 436 651.2099609375 436 C 646.5155401375 436 642.7099609375 432.1944208 642.7099609375 427.5 Z" stroke-miterlimit="10"/></g><g transform="translate(-38,-6) scale(1,1)"><g><path fill="none" stroke="none"/><text fill="#000000" stroke="none" font-family="Arial" font-size="13px" font-style="normal" font-weight="bold" text-decoration="none" x="633.87451171875" y="458.5">REST</text></g></g><g transform="translate(-38,-6) scale(1,1)"><rect fill="#C0C0C0" stroke="none" x="1369" y="647" width="229.2216796875" height="44" opacity="0.2"/></g><g transform="translate(-38,-6) scale(1,1)"><rect fill="#ffffff" stroke="none" x="1362" y="640" width="229.2216796875" height="44"/></g><g transform="translate(-38,-6) scale(1,1)"><path fill="none" stroke="#000000" d="M 1362 640 L 1591.2216796875 640 L 1591.2216796875 684 L 1362 684 L 1362 640 Z Z" stroke-miterlimit="10"/></g><g transform="translate(-38,-6) scale(1,1)"><rect fill="#ffffff" stroke="none" x="1352" y="647" width="20" height="10"/></g><g transform="translate(-38,-6) scale(1,1)"><path fill="none" stroke="#000000" d="M 1352 647 L 1372 647 L 1372 657 L 1352 657 L 1352 647 Z Z" stroke-miterlimit="10"/></g><g transform="translate(-38,-6) scale(1,1)"><rect fill="#ffffff" stroke="none" x="1352" y="667" width="20" height="10"/></g><g transform="translate(-38,-6) scale(1,1)"><path fill="none" stroke="#000000" d="M 1352 667 L 1372 667 L 1372 677 L 1352 677 L 1352 667 Z Z" stroke-miterlimit="10"/></g><g transform="translate(-38,-6) scale(1,1)"><g><path fill="none" stroke="none"/><text fill="#000000" stroke="none" font-family="Arial" font-size="13px" font-style="normal" font-weight="normal" text-decoration="none" x="1463.9072265625" y="657.5">«war»</text></g></g><g transform="translate(-38,-6) scale(1,1)"><g><path fill="none" stroke="none"/><text fill="#000000" stroke="none" font-family="Arial" font-size="13px" font-style="normal" font-weight="bold" text-decoration="none" x="1382.266845703125" y="672.5">notification.server.1.0.SNAPSHOT</text></g></g><g transform="translate(-38,-6) scale(1,1)"><rect fill="#C0C0C0" stroke="none" x="1593" y="759" width="112.208984375" height="44" opacity="0.2"/></g><g transform="translate(-38,-6) scale(1,1)"><rect fill="#ffffff" stroke="none" x="1586" y="752" width="112.208984375" height="44"/></g><g transform="translate(-38,-6) scale(1,1)"><path fill="none" stroke="#000000" d="M 1586 752 L 1698.208984375 752 L 1698.208984375 796 L 1586 796 L 1586 752 Z Z" stroke-miterlimit="10"/></g><g transform="translate(-38,-6) scale(1,1)"><rect fill="#ffffff" stroke="none" x="1576" y="759" width="20" height="10"/></g><g transform="translate(-38,-6) scale(1,1)"><path fill="none" stroke="#000000" d="M 1576 759 L 1596 759 L 1596 769 L 1576 769 L 1576 759 Z Z" stroke-miterlimit="10"/></g><g transform="translate(-38,-6) scale(1,1)"><rect fill="#ffffff" stroke="none" x="1576" y="779" width="20" height="10"/></g><g transform="translate(-38,-6) scale(1,1)"><path fill="none" stroke="#000000" d="M 1576 779 L 1596 779 L 1596 789 L 1576 789 L 1576 779 Z Z" stroke-miterlimit="10"/></g><g transform="translate(-38,-6) scale(1,1)"><g><path fill="none" stroke="none"/><text fill="#000000" stroke="none" font-family="Arial" font-size="13px" font-style="normal" font-weight="normal" text-decoration="none" x="1632.65087890625" y="769.5">«jar»</text></g></g><g transform="translate(-38,-6) scale(1,1)"><g><path fill="none" stroke="none"/><text fill="#000000" stroke="none" font-family="Arial" font-size="13px" font-style="normal" font-weight="bold" text-decoration="none" x="1602.658203125" y="784.5">lombok.0.15.16</text></g></g><g transform="translate(-38,-6) scale(1,1)"><rect fill="#C0C0C0" stroke="none" x="1585" y="863" width="98.44091796875" height="44" opacity="0.2"/></g><g transform="translate(-38,-6) scale(1,1)"><rect fill="#ffffff" stroke="none" x="1578" y="856" width="98.44091796875" height="44"/></g><g transform="translate(-38,-6) scale(1,1)"><path fill="none" stroke="#000000" d="M 1578 856 L 1676.44091796875 856 L 1676.44091796875 900 L 1578 900 L 1578 856 Z Z" stroke-miterlimit="10"/></g><g transform="translate(-38,-6) scale(1,1)"><rect fill="#ffffff" stroke="none" x="1568" y="863" width="20" height="10"/></g><g transform="translate(-38,-6) scale(1,1)"><path fill="none" stroke="#000000" d="M 1568 863 L 1588 863 L 1588 873 L 1568 873 L 1568 863 Z Z" stroke-miterlimit="10"/></g><g transform="translate(-38,-6) scale(1,1)"><rect fill="#ffffff" stroke="none" x="1568" y="883" width="20" height="10"/></g><g transform="translate(-38,-6) scale(1,1)"><path fill="none" stroke="#000000" d="M 1568 883 L 1588 883 L 1588 893 L 1568 893 L 1568 883 Z Z" stroke-miterlimit="10"/></g><g transform="translate(-38,-6) scale(1,1)"><g><path fill="none" stroke="none"/><text fill="#000000" stroke="none" font-family="Arial" font-size="13px" font-style="normal" font-weight="normal" text-decoration="none" x="1617.766845703125" y="873.5">«jar»</text></g></g><g transform="translate(-38,-6) scale(1,1)"><g><path fill="none" stroke="none"/><text fill="#000000" stroke="none" font-family="Arial" font-size="13px" font-style="normal" font-weight="bold" text-decoration="none" x="1599.6982421875" y="888.5">dozer.5.5.1</text></g></g><g transform="translate(-38,-6) scale(1,1)"><path fill="none" stroke="#000000" d="M 1505 684 L 1505 774 L 1576 774" stroke-miterlimit="10" stroke-dasharray="3"/></g><g transform="translate(-38,-6) scale(1,1)"><path fill="none" stroke="#000000" d="M 1565.837325142376 778.209517756016 L 1576 774 L 1565.837325142376 769.790482243984" stroke-miterlimit="10"/></g><g transform="translate(-38,-6) scale(1,1)"><path fill="none" stroke="#000000" d="M 1487 684 L 1487 878 L 1568 878" stroke-miterlimit="10" stroke-dasharray="3"/></g><g transform="translate(-38,-6) scale(1,1)"><path fill="none" stroke="#000000" d="M 1557.837325142376 882.209517756016 L 1568 878 L 1557.837325142376 873.790482243984" stroke-miterlimit="10"/></g><g transform="translate(-38,-6) scale(1,1)"><path fill="#C0C0C0" stroke="none" d="M 1222.7099609375 602.5 C 1222.7099609375 596.1487248 1227.8586857375 591 1234.2099609375 591 C 1240.5612361375 591 1245.7099609375 596.1487248 1245.7099609375 602.5 C 1245.7099609375 608.8512752 1240.5612361375 614 1234.2099609375 614 C 1227.8586857375 614 1222.7099609375 608.8512752 1222.7099609375 602.5 Z" opacity="0.2"/></g><g transform="translate(-38,-6) scale(1,1)"><path fill="none" stroke="#000000" d="M 1227 583.5 A 11.5 11.5 0 0 1 1227 606.5" stroke-miterlimit="10"/></g><g transform="translate(-38,-6) scale(1,1)"><path fill="#ffffff" stroke="none" d="M 1218.7099609375 595.5 C 1218.7099609375 590.8055792 1222.5155401375 587 1227.2099609375 587 C 1231.9043817375 587 1235.7099609375 590.8055792 1235.7099609375 595.5 C 1235.7099609375 600.1944208 1231.9043817375 604 1227.2099609375 604 C 1222.5155401375 604 1218.7099609375 600.1944208 1218.7099609375 595.5 Z"/></g><g transform="translate(-38,-6) scale(1,1)"><path fill="none" stroke="#000000" d="M 1218.7099609375 595.5 C 1218.7099609375 590.8055792 1222.5155401375 587 1227.2099609375 587 C 1231.9043817375 587 1235.7099609375 590.8055792 1235.7099609375 595.5 C 1235.7099609375 600.1944208 1231.9043817375 604 1227.2099609375 604 C 1222.5155401375 604 1218.7099609375 600.1944208 1218.7099609375 595.5 Z" stroke-miterlimit="10"/></g><g transform="translate(-38,-6) scale(1,1)"><g><path fill="none" stroke="none"/><text fill="#000000" stroke="none" font-family="Arial" font-size="13px" font-style="normal" font-weight="bold" text-decoration="none" x="1207.338623046875" y="626.5">Socket</text></g></g><g transform="translate(-38,-6) scale(1,1)"><path fill="none" stroke="#000000" d="M 1352 662 L 1227 662 L 1227 607" stroke-miterlimit="10"/></g><g transform="translate(-38,-6) scale(1,1)"><path fill="none" stroke="#000000" d="M 1519 455 L 1519 595 L 1238.7099609375 595" stroke-miterlimit="10"/></g><g transform="translate(-38,-6) scale(1,1)"><g><path fill="none" stroke="none"/><text fill="#000000" stroke="none" font-family="Arial" font-size="13px" font-style="normal" font-weight="normal" text-decoration="none" x="1500.7041015625" y="616.5">+TCP</text></g></g><g transform="translate(-38,-6) scale(1,1)"><rect fill="#C0C0C0" stroke="none" x="337" y="631" width="240.08251953125" height="44" opacity="0.2"/></g><g transform="translate(-38,-6) scale(1,1)"><rect fill="#ffffff" stroke="none" x="330" y="624" width="240.08251953125" height="44"/></g><g transform="translate(-38,-6) scale(1,1)"><path fill="none" stroke="#000000" d="M 330 624 L 570.08251953125 624 L 570.08251953125 668 L 330 668 L 330 624 Z Z" stroke-miterlimit="10"/></g><g transform="translate(-38,-6) scale(1,1)"><rect fill="#ffffff" stroke="none" x="320" y="631" width="20" height="10"/></g><g transform="translate(-38,-6) scale(1,1)"><path fill="none" stroke="#000000" d="M 320 631 L 340 631 L 340 641 L 320 641 L 320 631 Z Z" stroke-miterlimit="10"/></g><g transform="translate(-38,-6) scale(1,1)"><rect fill="#ffffff" stroke="none" x="320" y="651" width="20" height="10"/></g><g transform="translate(-38,-6) scale(1,1)"><path fill="none" stroke="#000000" d="M 320 651 L 340 651 L 340 661 L 320 661 L 320 651 Z Z" stroke-miterlimit="10"/></g><g transform="translate(-38,-6) scale(1,1)"><g><path fill="none" stroke="none"/><text fill="#000000" stroke="none" font-family="Arial" font-size="13px" font-style="normal" font-weight="normal" text-decoration="none" x="437.337646484375" y="641.5">«war»</text></g></g><g transform="translate(-38,-6) scale(1,1)"><g><path fill="none" stroke="none"/><text fill="#000000" stroke="none" font-family="Arial" font-size="13px" font-style="normal" font-weight="bold" text-decoration="none" x="350.28271484375" y="656.5">shares.price.history.1.0.SNAPSHOT</text></g></g><g transform="translate(-38,-6) scale(1,1)"><path fill="none" stroke="#000000" d="M 705 1190 L 939 1190 L 939 1103" stroke-miterlimit="10"/></g><g transform="translate(-38,-6) scale(1,1)"><path fill="none" stroke="#000000" d="M 656 292 L 656 416" stroke-miterlimit="10"/></g><g transform="translate(-38,-6) scale(1,1)"><path fill="none" stroke="#000000" d="M 488 624 L 488 427 L 639.7099609375 427" stroke-miterlimit="10"/></g><g transform="translate(-38,-6) scale(1,1)"><g><path fill="none" stroke="none"/><text fill="#000000" stroke="none" font-family="Arial" font-size="13px" font-style="normal" font-weight="normal" text-decoration="none" x="494.733642578125" y="507.5">+HTTP</text></g></g><g transform="translate(-38,-6) scale(1,1)"><path fill="#C0C0C0" stroke="none" d="M 526.7099609375 802.5 C 526.7099609375 796.1487248 531.8586857375 791 538.2099609375 791 C 544.5612361375 791 549.7099609375 796.1487248 549.7099609375 802.5 C 549.7099609375 808.8512752 544.5612361375 814 538.2099609375 814 C 531.8586857375 814 526.7099609375 808.8512752 526.7099609375 802.5 Z" opacity="0.2"/></g><g transform="translate(-38,-6) scale(1,1)"><path fill="none" stroke="#000000" d="M 542.5 795 A 11.5 11.5 0 0 1 519.5 795" stroke-miterlimit="10"/></g><g transform="translate(-38,-6) scale(1,1)"><path fill="#ffffff" stroke="none" d="M 522.7099609375 795.5 C 522.7099609375 790.8055792 526.5155401375 787 531.2099609375 787 C 535.9043817375 787 539.7099609375 790.8055792 539.7099609375 795.5 C 539.7099609375 800.1944208 535.9043817375 804 531.2099609375 804 C 526.5155401375 804 522.7099609375 800.1944208 522.7099609375 795.5 Z"/></g><g transform="translate(-38,-6) scale(1,1)"><path fill="none" stroke="#000000" d="M 522.7099609375 795.5 C 522.7099609375 790.8055792 526.5155401375 787 531.2099609375 787 C 535.9043817375 787 539.7099609375 790.8055792 539.7099609375 795.5 C 539.7099609375 800.1944208 535.9043817375 804 531.2099609375 804 C 526.5155401375 804 522.7099609375 800.1944208 522.7099609375 795.5 Z" stroke-miterlimit="10"/></g><g transform="translate(-38,-6) scale(1,1)"><g><path fill="none" stroke="none"/><text fill="#000000" stroke="none" font-family="Arial" font-size="13px" font-style="normal" font-weight="bold" text-decoration="none" x="513.87451171875" y="826.5">REST</text></g></g><g transform="translate(-38,-6) scale(1,1)"><path fill="none" stroke="#000000" d="M 488 668 L 488 795 L 519.7099609375 795" stroke-miterlimit="10"/></g><g transform="translate(-38,-6) scale(1,1)"><path fill="none" stroke="#000000" d="M 592 1168 L 592 984 L 531 984 L 531 807" stroke-miterlimit="10"/></g><g transform="translate(-38,-6) scale(1,1)"><g><path fill="none" stroke="none"/><text fill="#000000" stroke="none" font-family="Arial" font-size="13px" font-style="normal" font-weight="normal" text-decoration="none" x="538.733642578125" y="1005.5">+HTTP</text></g></g><g transform="translate(-38,-6) scale(1,1)"><path fill="none" stroke="#000000" d="M 1120 1091 L 950.7099609375 1091" stroke-miterlimit="10"/></g><g transform="translate(-38,-6) scale(1,1)"><g><path fill="none" stroke="none"/><text fill="#000000" stroke="none" font-family="Arial" font-size="13px" font-style="normal" font-weight="normal" text-decoration="none" x="1012.733642578125" y="1112.5">+HTTP</text></g></g><g transform="translate(-38,-6) scale(1,1)"><rect fill="#C0C0C0" stroke="none" x="737" y="631" width="198.88623046875" height="44" opacity="0.2"/></g><g transform="translate(-38,-6) scale(1,1)"><rect fill="#ffffff" stroke="none" x="730" y="624" width="198.88623046875" height="44"/></g><g transform="translate(-38,-6) scale(1,1)"><path fill="none" stroke="#000000" d="M 730 624 L 928.88623046875 624 L 928.88623046875 668 L 730 668 L 730 624 Z Z" stroke-miterlimit="10"/></g><g transform="translate(-38,-6) scale(1,1)"><rect fill="#ffffff" stroke="none" x="720" y="631" width="20" height="10"/></g><g transform="translate(-38,-6) scale(1,1)"><path fill="none" stroke="#000000" d="M 720 631 L 740 631 L 740 641 L 720 641 L 720 631 Z Z" stroke-miterlimit="10"/></g><g transform="translate(-38,-6) scale(1,1)"><rect fill="#ffffff" stroke="none" x="720" y="651" width="20" height="10"/></g><g transform="translate(-38,-6) scale(1,1)"><path fill="none" stroke="#000000" d="M 720 651 L 740 651 L 740 661 L 720 661 L 720 651 Z Z" stroke-miterlimit="10"/></g><g transform="translate(-38,-6) scale(1,1)"><g><path fill="none" stroke="none"/><text fill="#000000" stroke="none" font-family="Arial" font-size="13px" font-style="normal" font-weight="normal" text-decoration="none" x="816.739501953125" y="641.5">«war»</text></g></g><g transform="translate(-38,-6) scale(1,1)"><g><path fill="none" stroke="none"/><text fill="#000000" stroke="none" font-family="Arial" font-size="13px" font-style="normal" font-weight="bold" text-decoration="none" x="748.102294921875" y="656.5">bank.transfer.1.0.SNAPSHOT</text></g></g><g transform="translate(-38,-6) scale(1,1)"><path fill="#C0C0C0" stroke="none" d="M 726.7099609375 802.5 C 726.7099609375 796.1487248 731.8586857375 791 738.2099609375 791 C 744.5612361375 791 749.7099609375 796.1487248 749.7099609375 802.5 C 749.7099609375 808.8512752 744.5612361375 814 738.2099609375 814 C 731.8586857375 814 726.7099609375 808.8512752 726.7099609375 802.5 Z" opacity="0.2"/></g><g transform="translate(-38,-6) scale(1,1)"><path fill="none" stroke="#000000" d="M 742.5 795 A 11.5 11.5 0 0 1 719.5 795" stroke-miterlimit="10"/></g><g transform="translate(-38,-6) scale(1,1)"><path fill="#ffffff" stroke="none" d="M 722.7099609375 795.5 C 722.7099609375 790.8055792 726.5155401375 787 731.2099609375 787 C 735.9043817375 787 739.7099609375 790.8055792 739.7099609375 795.5 C 739.7099609375 800.1944208 735.9043817375 804 731.2099609375 804 C 726.5155401375 804 722.7099609375 800.1944208 722.7099609375 795.5 Z"/></g><g transform="translate(-38,-6) scale(1,1)"><path fill="none" stroke="#000000" d="M 722.7099609375 795.5 C 722.7099609375 790.8055792 726.5155401375 787 731.2099609375 787 C 735.9043817375 787 739.7099609375 790.8055792 739.7099609375 795.5 C 739.7099609375 800.1944208 735.9043817375 804 731.2099609375 804 C 726.5155401375 804 722.7099609375 800.1944208 722.7099609375 795.5 Z" stroke-miterlimit="10"/></g><g transform="translate(-38,-6) scale(1,1)"><g><path fill="none" stroke="none"/><text fill="#000000" stroke="none" font-family="Arial" font-size="13px" font-style="normal" font-weight="bold" text-decoration="none" x="713.87451171875" y="826.5">REST</text></g></g><g transform="translate(-38,-6) scale(1,1)"><path fill="none" stroke="#000000" d="M 672 1168 L 672 984 L 731 984 L 731 807" stroke-miterlimit="10"/></g><g transform="translate(-38,-6) scale(1,1)"><g><path fill="none" stroke="none"/><text fill="#000000" stroke="none" font-family="Arial" font-size="13px" font-style="normal" font-weight="normal" text-decoration="none" x="686.733642578125" y="1003.5">+HTTP</text></g></g><g transform="translate(-38,-6) scale(1,1)"><path fill="none" stroke="#000000" d="M 792 624 L 792 427 L 662.7099609375 427" stroke-miterlimit="10"/></g><g transform="translate(-38,-6) scale(1,1)"><g><path fill="none" stroke="none"/><text fill="#000000" stroke="none" font-family="Arial" font-size="13px" font-style="normal" font-weight="normal" text-decoration="none" x="798.733642578125" y="507.5">+HTTP</text></g></g><g transform="translate(-38,-6) scale(1,1)"><path fill="none" stroke="#000000" d="M 1443 684 L 1443 824 L 944 824 L 944 1080" stroke-miterlimit="10"/></g><g transform="translate(-38,-6) scale(1,1)"><path fill="none" stroke="#000000" d="M 784 668 L 784 795 L 742.7099609375 795" stroke-miterlimit="10"/></g></g></svg>