<svg version="1.1" xmlns="http://www.w3.org/2000/svg" xmlns:xlink="http://www.w3.org/1999/xlink" width="2872.24072265625" height="1648"><defs/><g><g transform="translate(-38,-6) scale(1,1)"><rect fill="#C0C0C0" stroke="none" x="545" y="255" width="297.10986328125" height="44" opacity="0.2"/></g><g transform="translate(-38,-6) scale(1,1)"><rect fill="#ffffff" stroke="none" x="538" y="248" width="297.10986328125" height="44"/></g><g transform="translate(-38,-6) scale(1,1)"><path fill="none" stroke="#000000" d="M 538 248 L 835.10986328125 248 L 835.10986328125 292 L 538 292 L 538 248 Z Z" stroke-miterlimit="10"/></g><g transform="translate(-38,-6) scale(1,1)"><rect fill="#ffffff" stroke="none" x="528" y="255" width="20" height="10"/></g><g transform="translate(-38,-6) scale(1,1)"><path fill="none" stroke="#000000" d="M 528 255 L 548 255 L 548 265 L 528 265 L 528 255 Z Z" stroke-miterlimit="10"/></g><g transform="translate(-38,-6) scale(1,1)"><rect fill="#ffffff" stroke="none" x="528" y="275" width="20" height="10"/></g><g transform="translate(-38,-6) scale(1,1)"><path fill="none" stroke="#000000" d="M 528 275 L 548 275 L 548 285 L 528 285 L 528 275 Z Z" stroke-miterlimit="10"/></g><g transform="translate(-38,-6) scale(1,1)"><g><path fill="none" stroke="none"/><text fill="#000000" stroke="none" font-family="Arial" font-size="13px" font-style="normal" font-weight="normal" text-decoration="none" x="674.554931640625" y="265.5">«war»</text></g></g><g transform="translate(-38,-6) scale(1,1)"><g><path fill="none" stroke="none"/><text fill="#000000" stroke="none" font-family="Arial" font-size="13px" font-style="normal" font-weight="bold" text-decoration="none" x="587.054931640625" y="280.5">data.access.server.1.0.SNAPSHOT</text></g></g><g transform="translate(-38,-6) scale(1,1)"><rect fill="#C0C0C0" stroke="none" x="889" y="175" width="185" height="44" opacity="0.2"/></g><g transform="translate(-38,-6) scale(1,1)"><rect fill="#ffffff" stroke="none" x="882" y="168" width="185" height="44"/></g><g transform="translate(-38,-6) scale(1,1)"><path fill="none" stroke="#000000" d="M 882 168 L 1067 168 L 1067 212 L 882 212 L 882 168 Z Z" stroke-miterlimit="10"/></g><g transform="translate(-38,-6) scale(1,1)"><rect fill="#ffffff" stroke="none" x="872" y="175" width="20" height="10"/></g><g transform="translate(-38,-6) scale(1,1)"><path fill="none" stroke="#000000" d="M 872 175 L 892 175 L 892 185 L 872 185 L 872 175 Z Z" stroke-miterlimit="10"/></g><g transform="translate(-38,-6) scale(1,1)"><rect fill="#ffffff" stroke="none" x="872" y="195" width="20" height="10"/></g><g transform="translate(-38,-6) scale(1,1)"><path fill="none" stroke="#000000" d="M 872 195 L 892 195 L 892 205 L 872 205 L 872 195 Z Z" stroke-miterlimit="10"/></g><g transform="translate(-38,-6) scale(1,1)"><g><path fill="none" stroke="none"/><text fill="#000000" stroke="none" font-family="Arial" font-size="13px" font-style="normal" font-weight="normal" text-decoration="none" x="965.5" y="185.5">«jar»</text></g></g><g transform="translate(-38,-6) scale(1,1)"><g><path fill="none" stroke="none"/><text fill="#000000" stroke="none" font-family="Arial" font-size="13px" font-style="normal" font-weight="bold" text-decoration="none" x="901" y="200.5">mysql.connector.java.5.6.7</text></g></g><g transform="translate(-38,-6) scale(1,1)"><path fill="none" stroke="#000000" d="M 835 248 L 835 176 L 872 176" stroke-miterlimit="10" stroke-dasharray="3"/></g><g transform="translate(-38,-6) scale(1,1)"><path fill="none" stroke="#000000" d="M 861.8373251423759 180.209517756016 L 872 176 L 861.8373251423758 171.790482243984" stroke-miterlimit="10"/></g><g transform="translate(-38,-6) scale(1,1)"><rect fill="#C0C0C0" stroke="none" x="889" y="95" width="262" height="44" opacity="0.2"/></g><g transform="translate(-38,-6) scale(1,1)"><rect fill="#ffffff" stroke="none" x="882" y="88" width="262" height="44"/></g><g transform="translate(-38,-6) scale(1,1)"><path fill="none" stroke="#000000" d="M 882 88 L 1144 88 L 1144 132 L 882 132 L 882 88 Z Z" stroke-miterlimit="10"/></g><g transform="translate(-38,-6) scale(1,1)"><rect fill="#ffffff" stroke="none" x="872" y="95" width="20" height="10"/></g><g transform="translate(-38,-6) scale(1,1)"><path fill="none" stroke="#000000" d="M 872 95 L 892 95 L 892 105 L 872 105 L 872 95 Z Z" stroke-miterlimit="10"/></g><g transform="translate(-38,-6) scale(1,1)"><rect fill="#ffffff" stroke="none" x="872" y="115" width="20" height="10"/></g><g transform="translate(-38,-6) scale(1,1)"><path fill="none" stroke="#000000" d="M 872 115 L 892 115 L 892 125 L 872 125 L 872 115 Z Z" stroke-miterlimit="10"/></g><g transform="translate(-38,-6) scale(1,1)"><g><path fill="none" stroke="none"/><text fill="#000000" stroke="none" font-family="Arial" font-size="13px" font-style="normal" font-weight="normal" text-decoration="none" x="1004" y="105.5">«jar»</text></g></g><g transform="translate(-38,-6) scale(1,1)"><g><path fill="none" stroke="none"/><text fill="#000000" stroke="none" font-family="Arial" font-size="13px" font-style="normal" font-weight="bold" text-decoration="none" x="903" y="120.5">spring.boot.starter.web.1.5.7.RELEASE</text></g></g><g transform="translate(-38,-6) scale(1,1)"><rect fill="#C0C0C0" stroke="none" x="289" y="39" width="109.34619140625" height="44" opacity="0.2"/></g><g transform="translate(-38,-6) scale(1,1)"><rect fill="#ffffff" stroke="none" x="282" y="32" width="109.34619140625" height="44"/></g><g transform="translate(-38,-6) scale(1,1)"><path fill="none" stroke="#000000" d="M 282 32 L 391.34619140625 32 L 391.34619140625 76 L 282 76 L 282 32 Z Z" stroke-miterlimit="10"/></g><g transform="translate(-38,-6) scale(1,1)"><rect fill="#ffffff" stroke="none" x="272" y="39" width="20" height="10"/></g><g transform="translate(-38,-6) scale(1,1)"><path fill="none" stroke="#000000" d="M 272 39 L 292 39 L 292 49 L 272 49 L 272 39 Z Z" stroke-miterlimit="10"/></g><g transform="translate(-38,-6) scale(1,1)"><rect fill="#ffffff" stroke="none" x="272" y="59" width="20" height="10"/></g><g transform="translate(-38,-6) scale(1,1)"><path fill="none" stroke="#000000" d="M 272 59 L 292 59 L 292 69 L 272 69 L 272 59 Z Z" stroke-miterlimit="10"/></g><g transform="translate(-38,-6) scale(1,1)"><g><path fill="none" stroke="none"/><text fill="#000000" stroke="none" font-family="Arial" font-size="13px" font-style="normal" font-weight="normal" text-decoration="none" x="327.673095703125" y="49.5">«jar»</text></g></g><g transform="translate(-38,-6) scale(1,1)"><g><path fill="none" stroke="none"/><text fill="#000000" stroke="none" font-family="Arial" font-size="13px" font-style="normal" font-weight="bold" text-decoration="none" x="298.673095703125" y="64.5">jersey.core.1.9</text></g></g><g transform="translate(-38,-6) scale(1,1)"><rect fill="#C0C0C0" stroke="none" x="289" y="127" width="286" height="44" opacity="0.2"/></g><g transform="translate(-38,-6) scale(1,1)"><rect fill="#ffffff" stroke="none" x="282" y="120" width="286" height="44"/></g><g transform="translate(-38,-6) scale(1,1)"><path fill="none" stroke="#000000" d="M 282 120 L 568 120 L 568 164 L 282 164 L 282 120 Z Z" stroke-miterlimit="10"/></g><g transform="translate(-38,-6) scale(1,1)"><rect fill="#ffffff" stroke="none" x="272" y="127" width="20" height="10"/></g><g transform="translate(-38,-6) scale(1,1)"><path fill="none" stroke="#000000" d="M 272 127 L 292 127 L 292 137 L 272 137 L 272 127 Z Z" stroke-miterlimit="10"/></g><g transform="translate(-38,-6) scale(1,1)"><rect fill="#ffffff" stroke="none" x="272" y="147" width="20" height="10"/></g><g transform="translate(-38,-6) scale(1,1)"><path fill="none" stroke="#000000" d="M 272 147 L 292 147 L 292 157 L 272 157 L 272 147 Z Z" stroke-miterlimit="10"/></g><g transform="translate(-38,-6) scale(1,1)"><g><path fill="none" stroke="none"/><text fill="#000000" stroke="none" font-family="Arial" font-size="13px" font-style="normal" font-weight="normal" text-decoration="none" x="416" y="137.5">«jar»</text></g></g><g transform="translate(-38,-6) scale(1,1)"><g><path fill="none" stroke="none"/><text fill="#000000" stroke="none" font-family="Arial" font-size="13px" font-style="normal" font-weight="bold" text-decoration="none" x="303.5" y="152.5">spring.boot.starter.data.jpa.1.5.7.RELEASE</text></g></g><g transform="translate(-38,-6) scale(1,1)"><path fill="none" stroke="#000000" d="M 808 248 L 808 112 L 872 112" stroke-miterlimit="10" stroke-dasharray="3"/></g><g transform="translate(-38,-6) scale(1,1)"><path fill="none" stroke="#000000" d="M 861.8373251423759 116.20951775601598 L 872 112 L 861.8373251423758 107.79048224398402" stroke-miterlimit="10"/></g><g transform="translate(-38,-6) scale(1,1)"><path fill="none" stroke="#000000" d="M 609 248 L 609 142 L 568 142" stroke-miterlimit="10" stroke-dasharray="3"/></g><g transform="translate(-38,-6) scale(1,1)"><path fill="none" stroke="#000000" d="M 578.1626748576241 137.790482243984 L 568 142 L 578.1626748576241 146.209517756016" stroke-miterlimit="10"/></g><g transform="translate(-38,-6) scale(1,1)"><path fill="none" stroke="#000000" d="M 643 248 L 643 54 L 391 54" stroke-miterlimit="10" stroke-dasharray="3"/></g><g transform="translate(-38,-6) scale(1,1)"><path fill="none" stroke="#000000" d="M 401.16267485762415 49.790482243984016 L 391 54 L 401.16267485762415 58.209517756015984" stroke-miterlimit="10"/></g><g transform="translate(-38,-6) scale(1,1)"><rect fill="#C0C0C0" stroke="none" x="1137" y="1095" width="290.5908203125" height="44" opacity="0.2"/></g><g transform="translate(-38,-6) scale(1,1)"><rect fill="#ffffff" stroke="none" x="1130" y="1088" width="290.5908203125" height="44"/></g><g transform="translate(-38,-6) scale(1,1)"><path fill="none" stroke="#000000" d="M 1130 1088 L 1420.5908203125 1088 L 1420.5908203125 1132 L 1130 1132 L 1130 1088 Z Z" stroke-miterlimit="10"/></g><g transform="translate(-38,-6) scale(1,1)"><rect fill="#ffffff" stroke="none" x="1120" y="1095" width="20" height="10"/></g><g transform="translate(-38,-6) scale(1,1)"><path fill="none" stroke="#000000" d="M 1120 1095 L 1140 1095 L 1140 1105 L 1120 1105 L 1120 1095 Z Z" stroke-miterlimit="10"/></g><g transform="translate(-38,-6) scale(1,1)"><rect fill="#ffffff" stroke="none" x="1120" y="1115" width="20" height="10"/></g><g transform="translate(-38,-6) scale(1,1)"><path fill="none" stroke="#000000" d="M 1120 1115 L 1140 1115 L 1140 1125 L 1120 1125 L 1120 1115 Z Z" stroke-miterlimit="10"/></g><g transform="translate(-38,-6) scale(1,1)"><g><path fill="none" stroke="none"/><text fill="#000000" stroke="none" font-family="Arial" font-size="13px" font-style="normal" font-weight="normal" text-decoration="none" x="1263.29541015625" y="1105.5">«war»</text></g></g><g transform="translate(-38,-6) scale(1,1)"><g><path fill="none" stroke="none"/><text fill="#000000" stroke="none" font-family="Arial" font-size="13px" font-style="normal" font-weight="bold" text-decoration="none" x="1187.29541015625" y="1120.5">web-app-server.1.0.SNAPSHOT</text></g></g><g transform="translate(-38,-6) scale(1,1)"><rect fill="#C0C0C0" stroke="none" x="1513" y="1607" width="213" height="44" opacity="0.2"/></g><g transform="translate(-38,-6) scale(1,1)"><rect fill="#ffffff" stroke="none" x="1506" y="1600" width="213" height="44"/></g><g transform="translate(-38,-6) scale(1,1)"><path fill="none" stroke="#000000" d="M 1506 1600 L 1719 1600 L 1719 1644 L 1506 1644 L 1506 1600 Z Z" stroke-miterlimit="10"/></g><g transform="translate(-38,-6) scale(1,1)"><rect fill="#ffffff" stroke="none" x="1496" y="1607" width="20" height="10"/></g><g transform="translate(-38,-6) scale(1,1)"><path fill="none" stroke="#000000" d="M 1496 1607 L 1516 1607 L 1516 1617 L 1496 1617 L 1496 1607 Z Z" stroke-miterlimit="10"/></g><g transform="translate(-38,-6) scale(1,1)"><rect fill="#ffffff" stroke="none" x="1496" y="1627" width="20" height="10"/></g><g transform="translate(-38,-6) scale(1,1)"><path fill="none" stroke="#000000" d="M 1496 1627 L 1516 1627 L 1516 1637 L 1496 1637 L 1496 1627 Z Z" stroke-miterlimit="10"/></g><g transform="translate(-38,-6) scale(1,1)"><g><path fill="none" stroke="none"/><text fill="#000000" stroke="none" font-family="Arial" font-size="13px" font-style="normal" font-weight="normal" text-decoration="none" x="1603.5" y="1617.5">«jar»</text></g></g><g transform="translate(-38,-6) scale(1,1)"><g><path fill="none" stroke="none"/><text fill="#000000" stroke="none" font-family="Arial" font-size="13px" font-style="normal" font-weight="bold" text-decoration="none" x="1525" y="1632.5">spring.webmvc.4.2.0.RELEASE</text></g></g><g transform="translate(-38,-6) scale(1,1)"><rect fill="#C0C0C0" stroke="none" x="1513" y="1447" width="187" height="44" opacity="0.2"/></g><g transform="translate(-38,-6) scale(1,1)"><rect fill="#ffffff" stroke="none" x="1506" y="1440" width="187" height="44"/></g><g transform="translate(-38,-6) scale(1,1)"><path fill="none" stroke="#000000" d="M 1506 1440 L 1693 1440 L 1693 1484 L 1506 1484 L 1506 1440 Z Z" stroke-miterlimit="10"/></g><g transform="translate(-38,-6) scale(1,1)"><rect fill="#ffffff" stroke="none" x="1496" y="1447" width="20" height="10"/></g><g transform="translate(-38,-6) scale(1,1)"><path fill="none" stroke="#000000" d="M 1496 1447 L 1516 1447 L 1516 1457 L 1496 1457 L 1496 1447 Z Z" stroke-miterlimit="10"/></g><g transform="translate(-38,-6) scale(1,1)"><rect fill="#ffffff" stroke="none" x="1496" y="1467" width="20" height="10"/></g><g transform="translate(-38,-6) scale(1,1)"><path fill="none" stroke="#000000" d="M 1496 1467 L 1516 1467 L 1516 1477 L 1496 1477 L 1496 1467 Z Z" stroke-miterlimit="10"/></g><g transform="translate(-38,-6) scale(1,1)"><g><path fill="none" stroke="none"/><text fill="#000000" stroke="none" font-family="Arial" font-size="13px" font-style="normal" font-weight="normal" text-decoration="none" x="1590.5" y="1457.5">«jar»</text></g></g><g transform="translate(-38,-6) scale(1,1)"><g><path fill="none" stroke="none"/><text fill="#000000" stroke="none" font-family="Arial" font-size="13px" font-style="normal" font-weight="bold" text-decoration="none" x="1524.5" y="1472.5">spring.web.4.2.0.RELEASE</text></g></g><g transform="translate(-38,-6) scale(1,1)"><rect fill="#C0C0C0" stroke="none" x="1513" y="1359" width="98.44091796875" height="44" opacity="0.2"/></g><g transform="translate(-38,-6) scale(1,1)"><rect fill="#ffffff" stroke="none" x="1506" y="1352" width="98.44091796875" height="44"/></g><g transform="translate(-38,-6) scale(1,1)"><path fill="none" stroke="#000000" d="M 1506 1352 L 1604.44091796875 1352 L 1604.44091796875 1396 L 1506 1396 L 1506 1352 Z Z" stroke-miterlimit="10"/></g><g transform="translate(-38,-6) scale(1,1)"><rect fill="#ffffff" stroke="none" x="1496" y="1359" width="20" height="10"/></g><g transform="translate(-38,-6) scale(1,1)"><path fill="none" stroke="#000000" d="M 1496 1359 L 1516 1359 L 1516 1369 L 1496 1369 L 1496 1359 Z Z" stroke-miterlimit="10"/></g><g transform="translate(-38,-6) scale(1,1)"><rect fill="#ffffff" stroke="none" x="1496" y="1379" width="20" height="10"/></g><g transform="translate(-38,-6) scale(1,1)"><path fill="none" stroke="#000000" d="M 1496 1379 L 1516 1379 L 1516 1389 L 1496 1389 L 1496 1379 Z Z" stroke-miterlimit="10"/></g><g transform="translate(-38,-6) scale(1,1)"><g><path fill="none" stroke="none"/><text fill="#000000" stroke="none" font-family="Arial" font-size="13px" font-style="normal" font-weight="normal" text-decoration="none" x="1546.220458984375" y="1369.5">«jar»</text></g></g><g transform="translate(-38,-6) scale(1,1)"><g><path fill="none" stroke="none"/><text fill="#000000" stroke="none" font-family="Arial" font-size="13px" font-style="normal" font-weight="bold" text-decoration="none" x="1540.720458984375" y="1384.5">jstl.1.2</text></g></g><g transform="translate(-38,-6) scale(1,1)"><rect fill="#C0C0C0" stroke="none" x="1513" y="1103" width="158" height="44" opacity="0.2"/></g><g transform="translate(-38,-6) scale(1,1)"><rect fill="#ffffff" stroke="none" x="1506" y="1096" width="158" height="44"/></g><g transform="translate(-38,-6) scale(1,1)"><path fill="none" stroke="#000000" d="M 1506 1096 L 1664 1096 L 1664 1140 L 1506 1140 L 1506 1096 Z Z" stroke-miterlimit="10"/></g><g transform="translate(-38,-6) scale(1,1)"><rect fill="#ffffff" stroke="none" x="1496" y="1103" width="20" height="10"/></g><g transform="translate(-38,-6) scale(1,1)"><path fill="none" stroke="#000000" d="M 1496 1103 L 1516 1103 L 1516 1113 L 1496 1113 L 1496 1103 Z Z" stroke-miterlimit="10"/></g><g transform="translate(-38,-6) scale(1,1)"><rect fill="#ffffff" stroke="none" x="1496" y="1123" width="20" height="10"/></g><g transform="translate(-38,-6) scale(1,1)"><path fill="none" stroke="#000000" d="M 1496 1123 L 1516 1123 L 1516 1133 L 1496 1133 L 1496 1123 Z Z" stroke-miterlimit="10"/></g><g transform="translate(-38,-6) scale(1,1)"><g><path fill="none" stroke="none"/><text fill="#000000" stroke="none" font-family="Arial" font-size="13px" font-style="normal" font-weight="normal" text-decoration="none" x="1576" y="1113.5">«jar»</text></g></g><g transform="translate(-38,-6) scale(1,1)"><g><path fill="none" stroke="none"/><text fill="#000000" stroke="none" font-family="Arial" font-size="13px" font-style="normal" font-weight="bold" text-decoration="none" x="1524.5" y="1128.5">jackson.databind.2.8.7</text></g></g><g transform="translate(-38,-6) scale(1,1)"><rect fill="#C0C0C0" stroke="none" x="1513" y="1271" width="116" height="44" opacity="0.2"/></g><g transform="translate(-38,-6) scale(1,1)"><rect fill="#ffffff" stroke="none" x="1506" y="1264" width="116" height="44"/></g><g transform="translate(-38,-6) scale(1,1)"><path fill="none" stroke="#000000" d="M 1506 1264 L 1622 1264 L 1622 1308 L 1506 1308 L 1506 1264 Z Z" stroke-miterlimit="10"/></g><g transform="translate(-38,-6) scale(1,1)"><rect fill="#ffffff" stroke="none" x="1496" y="1271" width="20" height="10"/></g><g transform="translate(-38,-6) scale(1,1)"><path fill="none" stroke="#000000" d="M 1496 1271 L 1516 1271 L 1516 1281 L 1496 1281 L 1496 1271 Z Z" stroke-miterlimit="10"/></g><g transform="translate(-38,-6) scale(1,1)"><rect fill="#ffffff" stroke="none" x="1496" y="1291" width="20" height="10"/></g><g transform="translate(-38,-6) scale(1,1)"><path fill="none" stroke="#000000" d="M 1496 1291 L 1516 1291 L 1516 1301 L 1496 1301 L 1496 1291 Z Z" stroke-miterlimit="10"/></g><g transform="translate(-38,-6) scale(1,1)"><g><path fill="none" stroke="none"/><text fill="#000000" stroke="none" font-family="Arial" font-size="13px" font-style="normal" font-weight="normal" text-decoration="none" x="1555" y="1281.5">«jar»</text></g></g><g transform="translate(-38,-6) scale(1,1)"><g><path fill="none" stroke="none"/><text fill="#000000" stroke="none" font-family="Arial" font-size="13px" font-style="normal" font-weight="bold" text-decoration="none" x="1523" y="1296.5">jersey.client.1.9</text></g></g><g transform="translate(-38,-6) scale(1,1)"><rect fill="#C0C0C0" stroke="none" x="1513" y="1527" width="152" height="44" opacity="0.2"/></g><g transform="translate(-38,-6) scale(1,1)"><rect fill="#ffffff" stroke="none" x="1506" y="1520" width="152" height="44"/></g><g transform="translate(-38,-6) scale(1,1)"><path fill="none" stroke="#000000" d="M 1506 1520 L 1658 1520 L 1658 1564 L 1506 1564 L 1506 1520 Z Z" stroke-miterlimit="10"/></g><g transform="translate(-38,-6) scale(1,1)"><rect fill="#ffffff" stroke="none" x="1496" y="1527" width="20" height="10"/></g><g transform="translate(-38,-6) scale(1,1)"><path fill="none" stroke="#000000" d="M 1496 1527 L 1516 1527 L 1516 1537 L 1496 1537 L 1496 1527 Z Z" stroke-miterlimit="10"/></g><g transform="translate(-38,-6) scale(1,1)"><rect fill="#ffffff" stroke="none" x="1496" y="1547" width="20" height="10"/></g><g transform="translate(-38,-6) scale(1,1)"><path fill="none" stroke="#000000" d="M 1496 1547 L 1516 1547 L 1516 1557 L 1496 1557 L 1496 1547 Z Z" stroke-miterlimit="10"/></g><g transform="translate(-38,-6) scale(1,1)"><g><path fill="none" stroke="none"/><text fill="#000000" stroke="none" font-family="Arial" font-size="13px" font-style="normal" font-weight="normal" text-decoration="none" x="1573" y="1537.5">«jar»</text></g></g><g transform="translate(-38,-6) scale(1,1)"><g><path fill="none" stroke="none"/><text fill="#000000" stroke="none" font-family="Arial" font-size="13px" font-style="normal" font-weight="bold" text-decoration="none" x="1523" y="1552.5">javax.servlet.api.3.1.0</text></g></g><g transform="translate(-38,-6) scale(1,1)"><rect fill="#C0C0C0" stroke="none" x="1513" y="1191" width="98.44091796875" height="44" opacity="0.2"/></g><g transform="translate(-38,-6) scale(1,1)"><rect fill="#ffffff" stroke="none" x="1506" y="1184" width="98.44091796875" height="44"/></g><g transform="translate(-38,-6) scale(1,1)"><path fill="none" stroke="#000000" d="M 1506 1184 L 1604.44091796875 1184 L 1604.44091796875 1228 L 1506 1228 L 1506 1184 Z Z" stroke-miterlimit="10"/></g><g transform="translate(-38,-6) scale(1,1)"><rect fill="#ffffff" stroke="none" x="1496" y="1191" width="20" height="10"/></g><g transform="translate(-38,-6) scale(1,1)"><path fill="none" stroke="#000000" d="M 1496 1191 L 1516 1191 L 1516 1201 L 1496 1201 L 1496 1191 Z Z" stroke-miterlimit="10"/></g><g transform="translate(-38,-6) scale(1,1)"><rect fill="#ffffff" stroke="none" x="1496" y="1211" width="20" height="10"/></g><g transform="translate(-38,-6) scale(1,1)"><path fill="none" stroke="#000000" d="M 1496 1211 L 1516 1211 L 1516 1221 L 1496 1221 L 1496 1211 Z Z" stroke-miterlimit="10"/></g><g transform="translate(-38,-6) scale(1,1)"><g><path fill="none" stroke="none"/><text fill="#000000" stroke="none" font-family="Arial" font-size="13px" font-style="normal" font-weight="normal" text-decoration="none" x="1546.220458984375" y="1201.5">«jar»</text></g></g><g transform="translate(-38,-6) scale(1,1)"><g><path fill="none" stroke="none"/><text fill="#000000" stroke="none" font-family="Arial" font-size="13px" font-style="normal" font-weight="bold" text-decoration="none" x="1524.220458984375" y="1216.5">groovy.1.8.3</text></g></g><g transform="translate(-38,-6) scale(1,1)"><path fill="none" stroke="#000000" d="M 1168 1132 L 1168 1622 L 1496 1622" stroke-miterlimit="10" stroke-dasharray="3"/></g><g transform="translate(-38,-6) scale(1,1)"><path fill="none" stroke="#000000" d="M 1485.837325142376 1626.2095177560159 L 1496 1622 L 1485.837325142376 1617.7904822439841" stroke-miterlimit="10"/></g><g transform="translate(-38,-6) scale(1,1)"><path fill="none" stroke="#000000" d="M 1216 1132 L 1216 1550 L 1496 1550" stroke-miterlimit="10" stroke-dasharray="3"/></g><g transform="translate(-38,-6) scale(1,1)"><path fill="none" stroke="#000000" d="M 1485.837325142376 1554.2095177560159 L 1496 1550 L 1485.837325142376 1545.7904822439841" stroke-miterlimit="10"/></g><g transform="translate(-38,-6) scale(1,1)"><path fill="none" stroke="#000000" d="M 1248 1132 L 1248 1456 L 1496 1456" stroke-miterlimit="10" stroke-dasharray="3"/></g><g transform="translate(-38,-6) scale(1,1)"><path fill="none" stroke="#000000" d="M 1485.837325142376 1460.2095177560159 L 1496 1456 L 1485.837325142376 1451.7904822439841" stroke-miterlimit="10"/></g><g transform="translate(-38,-6) scale(1,1)"><path fill="none" stroke="#000000" d="M 1280 1132 L 1280 1390 L 1496 1390" stroke-miterlimit="10" stroke-dasharray="3"/></g><g transform="translate(-38,-6) scale(1,1)"><path fill="none" stroke="#000000" d="M 1485.837325142376 1394.2095177560159 L 1496 1390 L 1485.837325142376 1385.7904822439841" stroke-miterlimit="10"/></g><g transform="translate(-38,-6) scale(1,1)"><path fill="none" stroke="#000000" d="M 1421 1110 L 1496 1110" stroke-miterlimit="10" stroke-dasharray="3"/></g><g transform="translate(-38,-6) scale(1,1)"><path fill="none" stroke="#000000" d="M 1485.837325142376 1114.2095177560159 L 1496 1110 L 1485.837325142376 1105.7904822439841" stroke-miterlimit="10"/></g><g transform="translate(-38,-6) scale(1,1)"><path fill="none" stroke="#000000" d="M 1309 1132 L 1309 1286 L 1496 1286" stroke-miterlimit="10" stroke-dasharray="3"/></g><g transform="translate(-38,-6) scale(1,1)"><path fill="none" stroke="#000000" d="M 1485.837325142376 1290.2095177560159 L 1496 1286 L 1485.837325142376 1281.7904822439841" stroke-miterlimit="10"/></g><g transform="translate(-38,-6) scale(1,1)"><path fill="none" stroke="#000000" d="M 1336 1132 L 1336 1184 L 1496 1184" stroke-miterlimit="10" stroke-dasharray="3"/></g><g transform="translate(-38,-6) scale(1,1)"><path fill="none" stroke="#000000" d="M 1485.837325142376 1188.2095177560159 L 1496 1184 L 1485.837325142376 1179.7904822439841" stroke-miterlimit="10"/></g><g transform="translate(-38,-6) scale(1,1)"><rect fill="#C0C0C0" stroke="none" x="1401" y="191" width="141" height="55" opacity="0.2"/></g><g transform="translate(-38,-6) scale(1,1)"><rect fill="#ffffff" stroke="none" x="1394" y="184" width="141" height="55"/></g><g transform="translate(-38,-6) scale(1,1)"><path fill="none" stroke="#000000" d="M 1394 184 L 1535 184 L 1535 239 L 1394 239 L 1394 184 Z Z" stroke-miterlimit="10"/></g><g transform="translate(-38,-6) scale(1,1)"><rect fill="#ffffff" stroke="none" x="1384" y="191" width="20" height="10"/></g><g transform="translate(-38,-6) scale(1,1)"><path fill="none" stroke="#000000" d="M 1384 191 L 1404 191 L 1404 201 L 1384 201 L 1384 191 Z Z" stroke-miterlimit="10"/></g><g transform="translate(-38,-6) scale(1,1)"><rect fill="#ffffff" stroke="none" x="1384" y="211" width="20" height="10"/></g><g transform="translate(-38,-6) scale(1,1)"><path fill="none" stroke="#000000" d="M 1384 211 L 1404 211 L 1404 221 L 1384 221 L 1384 211 Z Z" stroke-miterlimit="10"/></g><g transform="translate(-38,-6) scale(1,1)"><g><path fill="none" stroke="none"/><text fill="#000000" stroke="none" font-family="Arial" font-size="13px" font-style="normal" font-weight="normal" text-decoration="none" x="1430.5" y="201.5">«component»</text></g></g><g transform="translate(-38,-6) scale(1,1)"><g><path fill="none" stroke="none"/><text fill="#000000" stroke="none" font-family="Arial" font-size="13px" font-style="normal" font-weight="bold" text-decoration="none" x="1435.5" y="216.5">Mysql.5.6.7</text></g></g><g transform="translate(-38,-6) scale(1,1)"><path fill="#C0C0C0" stroke="none" d="M 1318.7099609375 234.5 C 1318.7099609375 228.1487248 1323.8586857375 223 1330.2099609375 223 C 1336.5612361375 223 1341.7099609375 228.1487248 1341.7099609375 234.5 C 1341.7099609375 240.8512752 1336.5612361375 246 1330.2099609375 246 C 1323.8586857375 246 1318.7099609375 240.8512752 1318.7099609375 234.5 Z" opacity="0.2"/></g><g transform="translate(-38,-6) scale(1,1)"><path fill="none" stroke="#000000" d="M 1314.8682720163547 235.1317279836453 A 11.5 11.5 0 0 1 1331.1317279836453 218.8682720163547" stroke-miterlimit="10"/></g><g transform="translate(-38,-6) scale(1,1)"><path fill="#ffffff" stroke="none" d="M 1314.7099609375 227.5 C 1314.7099609375 222.8055792 1318.5155401375 219 1323.2099609375 219 C 1327.9043817375 219 1331.7099609375 222.8055792 1331.7099609375 227.5 C 1331.7099609375 232.1944208 1327.9043817375 236 1323.2099609375 236 C 1318.5155401375 236 1314.7099609375 232.1944208 1314.7099609375 227.5 Z"/></g><g transform="translate(-38,-6) scale(1,1)"><path fill="none" stroke="#000000" d="M 1314.7099609375 227.5 C 1314.7099609375 222.8055792 1318.5155401375 219 1323.2099609375 219 C 1327.9043817375 219 1331.7099609375 222.8055792 1331.7099609375 227.5 C 1331.7099609375 232.1944208 1327.9043817375 236 1323.2099609375 236 C 1318.5155401375 236 1314.7099609375 232.1944208 1314.7099609375 227.5 Z" stroke-miterlimit="10"/></g><g transform="translate(-38,-6) scale(1,1)"><g><path fill="none" stroke="none"/><text fill="#000000" stroke="none" font-family="Arial" font-size="13px" font-style="normal" font-weight="bold" text-decoration="none" x="1323.2099609375" y="258.5"></text></g></g><g transform="translate(-38,-6) scale(1,1)"><path fill="none" stroke="#000000" d="M 1384 227 L 1334.7099609375 227" stroke-miterlimit="10"/></g><g transform="translate(-38,-6) scale(1,1)"><g><path fill="none" stroke="none"/><text fill="#000000" stroke="none" font-family="Arial" font-size="13px" font-style="normal" font-weight="normal" text-decoration="none" x="1329.5" y="219.5">+3306</text></g></g><g transform="translate(-38,-6) scale(1,1)"><path fill="none" stroke="#000000" d="M 1067 190 L 1144 190 L 1144 184 L 1312 184 L 1312 216" stroke-miterlimit="10"/></g><g transform="translate(-38,-6) scale(1,1)"><g><path fill="none" stroke="none"/><text fill="#000000" stroke="none" font-family="Helvetica" font-size="13px" font-style="normal" font-weight="normal" text-decoration="none" x="1206.780029296875" y="208.5">+jdbc</text></g></g><g transform="translate(-38,-6) scale(1,1)"><rect fill="#C0C0C0" stroke="none" x="2041" y="255" width="229" height="55" opacity="0.2"/></g><g transform="translate(-38,-6) scale(1,1)"><rect fill="#ffffff" stroke="none" x="2034" y="248" width="229" height="55"/></g><g transform="translate(-38,-6) scale(1,1)"><path fill="none" stroke="#000000" d="M 2034 248 L 2263 248 L 2263 303 L 2034 303 L 2034 248 Z Z" stroke-miterlimit="10"/></g><g transform="translate(-38,-6) scale(1,1)"><rect fill="#ffffff" stroke="none" x="2024" y="255" width="20" height="10"/></g><g transform="translate(-38,-6) scale(1,1)"><path fill="none" stroke="#000000" d="M 2024 255 L 2044 255 L 2044 265 L 2024 265 L 2024 255 Z Z" stroke-miterlimit="10"/></g><g transform="translate(-38,-6) scale(1,1)"><rect fill="#ffffff" stroke="none" x="2024" y="275" width="20" height="10"/></g><g transform="translate(-38,-6) scale(1,1)"><path fill="none" stroke="#000000" d="M 2024 275 L 2044 275 L 2044 285 L 2024 285 L 2024 275 Z Z" stroke-miterlimit="10"/></g><g transform="translate(-38,-6) scale(1,1)"><g><path fill="none" stroke="none"/><text fill="#000000" stroke="none" font-family="Arial" font-size="13px" font-style="normal" font-weight="normal" text-decoration="none" x="2136" y="265.5">«apk»</text></g></g><g transform="translate(-38,-6) scale(1,1)"><g><path fill="none" stroke="none"/><text fill="#000000" stroke="none" font-family="Arial" font-size="13px" font-style="normal" font-weight="bold" text-decoration="none" x="2097.5" y="280.5">app.mobile.esibank</text></g></g><g transform="translate(-38,-6) scale(1,1)"><rect fill="#C0C0C0" stroke="none" x="889" y="23" width="98.44091796875" height="44" opacity="0.2"/></g><g transform="translate(-38,-6) scale(1,1)"><rect fill="#ffffff" stroke="none" x="882" y="16" width="98.44091796875" height="44"/></g><g transform="translate(-38,-6) scale(1,1)"><path fill="none" stroke="#000000" d="M 882 16 L 980.44091796875 16 L 980.44091796875 60 L 882 60 L 882 16 Z Z" stroke-miterlimit="10"/></g><g transform="translate(-38,-6) scale(1,1)"><rect fill="#ffffff" stroke="none" x="872" y="23" width="20" height="10"/></g><g transform="translate(-38,-6) scale(1,1)"><path fill="none" stroke="#000000" d="M 872 23 L 892 23 L 892 33 L 872 33 L 872 23 Z Z" stroke-miterlimit="10"/></g><g transform="translate(-38,-6) scale(1,1)"><rect fill="#ffffff" stroke="none" x="872" y="43" width="20" height="10"/></g><g transform="translate(-38,-6) scale(1,1)"><path fill="none" stroke="#000000" d="M 872 43 L 892 43 L 892 53 L 872 53 L 872 43 Z Z" stroke-miterlimit="10"/></g><g transform="translate(-38,-6) scale(1,1)"><g><path fill="none" stroke="none"/><text fill="#000000" stroke="none" font-family="Arial" font-size="13px" font-style="normal" font-weight="normal" text-decoration="none" x="922.220458984375" y="33.5">«jar»</text></g></g><g transform="translate(-38,-6) scale(1,1)"><g><path fill="none" stroke="none"/><text fill="#000000" stroke="none" font-family="Arial" font-size="13px" font-style="normal" font-weight="bold" text-decoration="none" x="903.720458984375" y="48.5">dozer.5.5.1</text></g></g><g transform="translate(-38,-6) scale(1,1)"><path fill="none" stroke="#000000" d="M 766 248 L 766 38 L 872 38" stroke-miterlimit="10" stroke-dasharray="3"/></g><g transform="translate(-38,-6) scale(1,1)"><path fill="none" stroke="#000000" d="M 861.8373251423759 42.20951775601599 L 872 38 L 861.8373251423758 33.790482243984016" stroke-miterlimit="10"/></g><g transform="translate(-38,-6) scale(1,1)"><rect fill="#C0C0C0" stroke="none" x="529" y="1175" width="183.0234375" height="44" opacity="0.2"/></g><g transform="translate(-38,-6) scale(1,1)"><rect fill="#ffffff" stroke="none" x="522" y="1168" width="183.0234375" height="44"/></g><g transform="translate(-38,-6) scale(1,1)"><path fill="none" stroke="#000000" d="M 522 1168 L 705.0234375 1168 L 705.0234375 1212 L 522 1212 L 522 1168 Z Z" stroke-miterlimit="10"/></g><g transform="translate(-38,-6) scale(1,1)"><rect fill="#ffffff" stroke="none" x="512" y="1175" width="20" height="10"/></g><g transform="translate(-38,-6) scale(1,1)"><path fill="none" stroke="#000000" d="M 512 1175 L 532 1175 L 532 1185 L 512 1185 L 512 1175 Z Z" stroke-miterlimit="10"/></g><g transform="translate(-38,-6) scale(1,1)"><rect fill="#ffffff" stroke="none" x="512" y="1195" width="20" height="10"/></g><g transform="translate(-38,-6) scale(1,1)"><path fill="none" stroke="#000000" d="M 512 1195 L 532 1195 L 532 1205 L 512 1205 L 512 1195 Z Z" stroke-miterlimit="10"/></g><g transform="translate(-38,-6) scale(1,1)"><g><path fill="none" stroke="none"/><text fill="#000000" stroke="none" font-family="Arial" font-size="13px" font-style="normal" font-weight="normal" text-decoration="none" x="601.51171875" y="1185.5">«war»</text></g></g><g transform="translate(-38,-6) scale(1,1)"><g><path fill="none" stroke="none"/><text fill="#000000" stroke="none" font-family="Arial" font-size="13px" font-style="normal" font-weight="bold" text-decoration="none" x="538.51171875" y="1200.5">rest.server.1.0.SNAPSHOT</text></g></g><g transform="translate(-38,-6) scale(1,1)"><rect fill="#C0C0C0" stroke="none" x="65" y="1119" width="262" height="44" opacity="0.2"/></g><g transform="translate(-38,-6) scale(1,1)"><rect fill="#ffffff" stroke="none" x="58" y="1112" width="262" height="44"/></g><g transform="translate(-38,-6) scale(1,1)"><path fill="none" stroke="#000000" d="M 58 1112 L 320 1112 L 320 1156 L 58 1156 L 58 1112 Z Z" stroke-miterlimit="10"/></g><g transform="translate(-38,-6) scale(1,1)"><rect fill="#ffffff" stroke="none" x="48" y="1119" width="20" height="10"/></g><g transform="translate(-38,-6) scale(1,1)"><path fill="none" stroke="#000000" d="M 48 1119 L 68 1119 L 68 1129 L 48 1129 L 48 1119 Z Z" stroke-miterlimit="10"/></g><g transform="translate(-38,-6) scale(1,1)"><rect fill="#ffffff" stroke="none" x="48" y="1139" width="20" height="10"/></g><g transform="translate(-38,-6) scale(1,1)"><path fill="none" stroke="#000000" d="M 48 1139 L 68 1139 L 68 1149 L 48 1149 L 48 1139 Z Z" stroke-miterlimit="10"/></g><g transform="translate(-38,-6) scale(1,1)"><g><path fill="none" stroke="none"/><text fill="#000000" stroke="none" font-family="Arial" font-size="13px" font-style="normal" font-weight="normal" text-decoration="none" x="180" y="1129.5">«jar»</text></g></g><g transform="translate(-38,-6) scale(1,1)"><g><path fill="none" stroke="none"/><text fill="#000000" stroke="none" font-family="Arial" font-size="13px" font-style="normal" font-weight="bold" text-decoration="none" x="79" y="1144.5">spring.boot.starter.web.1.5.7.RELEASE</text></g></g><g transform="translate(-38,-6) scale(1,1)"><rect fill="#C0C0C0" stroke="none" x="65" y="1223" width="109.34619140625" height="44" opacity="0.2"/></g><g transform="translate(-38,-6) scale(1,1)"><rect fill="#ffffff" stroke="none" x="58" y="1216" width="109.34619140625" height="44"/></g><g transform="translate(-38,-6) scale(1,1)"><path fill="none" stroke="#000000" d="M 58 1216 L 167.34619140625 1216 L 167.34619140625 1260 L 58 1260 L 58 1216 Z Z" stroke-miterlimit="10"/></g><g transform="translate(-38,-6) scale(1,1)"><rect fill="#ffffff" stroke="none" x="48" y="1223" width="20" height="10"/></g><g transform="translate(-38,-6) scale(1,1)"><path fill="none" stroke="#000000" d="M 48 1223 L 68 1223 L 68 1233 L 48 1233 L 48 1223 Z Z" stroke-miterlimit="10"/></g><g transform="translate(-38,-6) scale(1,1)"><rect fill="#ffffff" stroke="none" x="48" y="1243" width="20" height="10"/></g><g transform="translate(-38,-6) scale(1,1)"><path fill="none" stroke="#000000" d="M 48 1243 L 68 1243 L 68 1253 L 48 1253 L 48 1243 Z Z" stroke-miterlimit="10"/></g><g transform="translate(-38,-6) scale(1,1)"><g><path fill="none" stroke="none"/><text fill="#000000" stroke="none" font-family="Arial" font-size="13px" font-style="normal" font-weight="normal" text-decoration="none" x="103.673095703125" y="1233.5">«jar»</text></g></g><g transform="translate(-38,-6) scale(1,1)"><g><path fill="none" stroke="none"/><text fill="#000000" stroke="none" font-family="Arial" font-size="13px" font-style="normal" font-weight="bold" text-decoration="none" x="74.673095703125" y="1248.5">jersey.core.1.9</text></g></g><g transform="translate(-38,-6) scale(1,1)"><path fill="none" stroke="#000000" d="M 528 1168 L 528 1134 L 320 1134" stroke-miterlimit="10" stroke-dasharray="3"/></g><g transform="translate(-38,-6) scale(1,1)"><path fill="none" stroke="#000000" d="M 330.16267485762415 1129.7904822439841 L 320 1134 L 330.16267485762415 1138.2095177560159" stroke-miterlimit="10"/></g><g transform="translate(-38,-6) scale(1,1)"><path fill="none" stroke="#000000" d="M 528 1212 L 528 1238 L 167 1238" stroke-miterlimit="10" stroke-dasharray="3"/></g><g transform="translate(-38,-6) scale(1,1)"><path fill="none" stroke="#000000" d="M 177.16267485762415 1233.7904822439841 L 167 1238 L 177.16267485762415 1242.2095177560159" stroke-miterlimit="10"/></g><g transform="translate(-38,-6) scale(1,1)"><path fill="#C0C0C0" stroke="none" d="M 934.7099609375 1098.5 C 934.7099609375 1092.1487248 939.8586857375 1087 946.2099609375 1087 C 952.5612361375 1087 957.7099609375 1092.1487248 957.7099609375 1098.5 C 957.7099609375 1104.8512752 952.5612361375 1110 946.2099609375 1110 C 939.8586857375 1110 934.7099609375 1104.8512752 934.7099609375 1098.5 Z" opacity="0.2"/></g><g transform="translate(-38,-6) scale(1,1)"><path fill="none" stroke="#000000" d="M 939 1079.5 A 11.5 11.5 0 0 1 939 1102.5" stroke-miterlimit="10"/></g><g transform="translate(-38,-6) scale(1,1)"><path fill="#ffffff" stroke="none" d="M 930.7099609375 1091.5 C 930.7099609375 1086.8055792 934.5155401375 1083 939.2099609375 1083 C 943.9043817375 1083 947.7099609375 1086.8055792 947.7099609375 1091.5 C 947.7099609375 1096.1944208 943.9043817375 1100 939.2099609375 1100 C 934.5155401375 1100 930.7099609375 1096.1944208 930.7099609375 1091.5 Z"/></g><g transform="translate(-38,-6) scale(1,1)"><path fill="none" stroke="#000000" d="M 930.7099609375 1091.5 C 930.7099609375 1086.8055792 934.5155401375 1083 939.2099609375 1083 C 943.9043817375 1083 947.7099609375 1086.8055792 947.7099609375 1091.5 C 947.7099609375 1096.1944208 943.9043817375 1100 939.2099609375 1100 C 934.5155401375 1100 930.7099609375 1096.1944208 930.7099609375 1091.5 Z" stroke-miterlimit="10"/></g><g transform="translate(-38,-6) scale(1,1)"><g><path fill="none" stroke="none"/><text fill="#000000" stroke="none" font-family="Arial" font-size="13px" font-style="normal" font-weight="bold" text-decoration="none" x="921.7099609375" y="1122.5">REST</text></g></g><g transform="translate(-38,-6) scale(1,1)"><path fill="#C0C0C0" stroke="none" d="M 646.7099609375 434.5 C 646.7099609375 428.1487248 651.8586857375 423 658.2099609375 423 C 664.5612361375 423 669.7099609375 428.1487248 669.7099609375 434.5 C 669.7099609375 440.8512752 664.5612361375 446 658.2099609375 446 C 651.8586857375 446 646.7099609375 440.8512752 646.7099609375 434.5 Z" opacity="0.2"/></g><g transform="translate(-38,-6) scale(1,1)"><path fill="none" stroke="#000000" d="M 651 438.5 A 11.5 11.5 0 0 1 651 415.5" stroke-miterlimit="10"/></g><g transform="translate(-38,-6) scale(1,1)"><path fill="none" stroke="#000000" d="M 651 415.5 A 11.5 11.5 0 0 1 651 438.5" stroke-miterlimit="10"/></g><g transform="translate(-38,-6) scale(1,1)"><path fill="#ffffff" stroke="none" d="M 642.7099609375 427.5 C 642.7099609375 422.8055792 646.5155401375 419 651.2099609375 419 C 655.9043817375 419 659.7099609375 422.8055792 659.7099609375 427.5 C 659.7099609375 432.1944208 655.9043817375 436 651.2099609375 436 C 646.5155401375 436 642.7099609375 432.1944208 642.7099609375 427.5 Z"/></g><g transform="translate(-38,-6) scale(1,1)"><path fill="none" stroke="#000000" d="M 642.7099609375 427.5 C 642.7099609375 422.8055792 646.5155401375 419 651.2099609375 419 C 655.9043817375 419 659.7099609375 422.8055792 659.7099609375 427.5 C 659.7099609375 432.1944208 655.9043817375 436 651.2099609375 436 C 646.5155401375 436 642.7099609375 432.1944208 642.7099609375 427.5 Z" stroke-miterlimit="10"/></g><g transform="translate(-38,-6) scale(1,1)"><g><path fill="none" stroke="none"/><text fill="#000000" stroke="none" font-family="Arial" font-size="13px" font-style="normal" font-weight="bold" text-decoration="none" x="633.7099609375" y="458.5">REST</text></g></g><g transform="translate(-38,-6) scale(1,1)"><rect fill="#C0C0C0" stroke="none" x="1561" y="663" width="229.2216796875" height="44" opacity="0.2"/></g><g transform="translate(-38,-6) scale(1,1)"><rect fill="#ffffff" stroke="none" x="1554" y="656" width="229.2216796875" height="44"/></g><g transform="translate(-38,-6) scale(1,1)"><path fill="none" stroke="#000000" d="M 1554 656 L 1783.2216796875 656 L 1783.2216796875 700 L 1554 700 L 1554 656 Z Z" stroke-miterlimit="10"/></g><g transform="translate(-38,-6) scale(1,1)"><rect fill="#ffffff" stroke="none" x="1544" y="663" width="20" height="10"/></g><g transform="translate(-38,-6) scale(1,1)"><path fill="none" stroke="#000000" d="M 1544 663 L 1564 663 L 1564 673 L 1544 673 L 1544 663 Z Z" stroke-miterlimit="10"/></g><g transform="translate(-38,-6) scale(1,1)"><rect fill="#ffffff" stroke="none" x="1544" y="683" width="20" height="10"/></g><g transform="translate(-38,-6) scale(1,1)"><path fill="none" stroke="#000000" d="M 1544 683 L 1564 683 L 1564 693 L 1544 693 L 1544 683 Z Z" stroke-miterlimit="10"/></g><g transform="translate(-38,-6) scale(1,1)"><g><path fill="none" stroke="none"/><text fill="#000000" stroke="none" font-family="Arial" font-size="13px" font-style="normal" font-weight="normal" text-decoration="none" x="1656.61083984375" y="673.5">«war»</text></g></g><g transform="translate(-38,-6) scale(1,1)"><g><path fill="none" stroke="none"/><text fill="#000000" stroke="none" font-family="Arial" font-size="13px" font-style="normal" font-weight="bold" text-decoration="none" x="1573.11083984375" y="688.5">notification.server.1.0.SNAPSHOT</text></g></g><g transform="translate(-38,-6) scale(1,1)"><rect fill="#C0C0C0" stroke="none" x="2081" y="751" width="113" height="44" opacity="0.2"/></g><g transform="translate(-38,-6) scale(1,1)"><rect fill="#ffffff" stroke="none" x="2074" y="744" width="113" height="44"/></g><g transform="translate(-38,-6) scale(1,1)"><path fill="none" stroke="#000000" d="M 2074 744 L 2187 744 L 2187 788 L 2074 788 L 2074 744 Z Z" stroke-miterlimit="10"/></g><g transform="translate(-38,-6) scale(1,1)"><rect fill="#ffffff" stroke="none" x="2064" y="751" width="20" height="10"/></g><g transform="translate(-38,-6) scale(1,1)"><path fill="none" stroke="#000000" d="M 2064 751 L 2084 751 L 2084 761 L 2064 761 L 2064 751 Z Z" stroke-miterlimit="10"/></g><g transform="translate(-38,-6) scale(1,1)"><rect fill="#ffffff" stroke="none" x="2064" y="771" width="20" height="10"/></g><g transform="translate(-38,-6) scale(1,1)"><path fill="none" stroke="#000000" d="M 2064 771 L 2084 771 L 2084 781 L 2064 781 L 2064 771 Z Z" stroke-miterlimit="10"/></g><g transform="translate(-38,-6) scale(1,1)"><g><path fill="none" stroke="none"/><text fill="#000000" stroke="none" font-family="Arial" font-size="13px" font-style="normal" font-weight="normal" text-decoration="none" x="2121.5" y="761.5">«jar»</text></g></g><g transform="translate(-38,-6) scale(1,1)"><g><path fill="none" stroke="none"/><text fill="#000000" stroke="none" font-family="Arial" font-size="13px" font-style="normal" font-weight="bold" text-decoration="none" x="2091" y="776.5">lombok.0.15.16</text></g></g><g transform="translate(-38,-6) scale(1,1)"><rect fill="#C0C0C0" stroke="none" x="2089" y="655" width="98.44091796875" height="44" opacity="0.2"/></g><g transform="translate(-38,-6) scale(1,1)"><rect fill="#ffffff" stroke="none" x="2082" y="648" width="98.44091796875" height="44"/></g><g transform="translate(-38,-6) scale(1,1)"><path fill="none" stroke="#000000" d="M 2082 648 L 2180.44091796875 648 L 2180.44091796875 692 L 2082 692 L 2082 648 Z Z" stroke-miterlimit="10"/></g><g transform="translate(-38,-6) scale(1,1)"><rect fill="#ffffff" stroke="none" x="2072" y="655" width="20" height="10"/></g><g transform="translate(-38,-6) scale(1,1)"><path fill="none" stroke="#000000" d="M 2072 655 L 2092 655 L 2092 665 L 2072 665 L 2072 655 Z Z" stroke-miterlimit="10"/></g><g transform="translate(-38,-6) scale(1,1)"><rect fill="#ffffff" stroke="none" x="2072" y="675" width="20" height="10"/></g><g transform="translate(-38,-6) scale(1,1)"><path fill="none" stroke="#000000" d="M 2072 675 L 2092 675 L 2092 685 L 2072 685 L 2072 675 Z Z" stroke-miterlimit="10"/></g><g transform="translate(-38,-6) scale(1,1)"><g><path fill="none" stroke="none"/><text fill="#000000" stroke="none" font-family="Arial" font-size="13px" font-style="normal" font-weight="normal" text-decoration="none" x="2122.220458984375" y="665.5">«jar»</text></g></g><g transform="translate(-38,-6) scale(1,1)"><g><path fill="none" stroke="none"/><text fill="#000000" stroke="none" font-family="Arial" font-size="13px" font-style="normal" font-weight="bold" text-decoration="none" x="2103.720458984375" y="680.5">dozer.5.5.1</text></g></g><g transform="translate(-38,-6) scale(1,1)"><path fill="none" stroke="#000000" d="M 1768 700 L 1768 766 L 2064 766" stroke-miterlimit="10" stroke-dasharray="3"/></g><g transform="translate(-38,-6) scale(1,1)"><path fill="none" stroke="#000000" d="M 2053.837325142376 770.209517756016 L 2064 766 L 2053.837325142376 761.790482243984" stroke-miterlimit="10"/></g><g transform="translate(-38,-6) scale(1,1)"><path fill="none" stroke="#000000" d="M 1783 670 L 2072 670" stroke-miterlimit="10" stroke-dasharray="3"/></g><g transform="translate(-38,-6) scale(1,1)"><path fill="none" stroke="#000000" d="M 2061.837325142376 674.209517756016 L 2072 670 L 2061.837325142376 665.790482243984" stroke-miterlimit="10"/></g><g transform="translate(-38,-6) scale(1,1)"><rect fill="#C0C0C0" stroke="none" x="337" y="631" width="240.08251953125" height="44" opacity="0.2"/></g><g transform="translate(-38,-6) scale(1,1)"><rect fill="#ffffff" stroke="none" x="330" y="624" width="240.08251953125" height="44"/></g><g transform="translate(-38,-6) scale(1,1)"><path fill="none" stroke="#000000" d="M 330 624 L 570.08251953125 624 L 570.08251953125 668 L 330 668 L 330 624 Z Z" stroke-miterlimit="10"/></g><g transform="translate(-38,-6) scale(1,1)"><rect fill="#ffffff" stroke="none" x="320" y="631" width="20" height="10"/></g><g transform="translate(-38,-6) scale(1,1)"><path fill="none" stroke="#000000" d="M 320 631 L 340 631 L 340 641 L 320 641 L 320 631 Z Z" stroke-miterlimit="10"/></g><g transform="translate(-38,-6) scale(1,1)"><rect fill="#ffffff" stroke="none" x="320" y="651" width="20" height="10"/></g><g transform="translate(-38,-6) scale(1,1)"><path fill="none" stroke="#000000" d="M 320 651 L 340 651 L 340 661 L 320 661 L 320 651 Z Z" stroke-miterlimit="10"/></g><g transform="translate(-38,-6) scale(1,1)"><g><path fill="none" stroke="none"/><text fill="#000000" stroke="none" font-family="Arial" font-size="13px" font-style="normal" font-weight="normal" text-decoration="none" x="438.041259765625" y="641.5">«war»</text></g></g><g transform="translate(-38,-6) scale(1,1)"><g><path fill="none" stroke="none"/><text fill="#000000" stroke="none" font-family="Arial" font-size="13px" font-style="normal" font-weight="bold" text-decoration="none" x="349.041259765625" y="656.5">shares.price.history.1.0.SNAPSHOT</text></g></g><g transform="translate(-38,-6) scale(1,1)"><path fill="none" stroke="#000000" d="M 705 1190 L 939 1190 L 939 1103" stroke-miterlimit="10"/></g><g transform="translate(-38,-6) scale(1,1)"><path fill="none" stroke="#000000" d="M 656 292 L 656 416" stroke-miterlimit="10"/></g><g transform="translate(-38,-6) scale(1,1)"><path fill="none" stroke="#000000" d="M 488 624 L 488 427 L 639.7099609375 427" stroke-miterlimit="10"/></g><g transform="translate(-38,-6) scale(1,1)"><g><path fill="none" stroke="none"/><text fill="#000000" stroke="none" font-family="Arial" font-size="13px" font-style="normal" font-weight="normal" text-decoration="none" x="494.5" y="507.5">+HTTP</text></g></g><g transform="translate(-38,-6) scale(1,1)"><path fill="#C0C0C0" stroke="none" d="M 526.7099609375 802.5 C 526.7099609375 796.1487248 531.8586857375 791 538.2099609375 791 C 544.5612361375 791 549.7099609375 796.1487248 549.7099609375 802.5 C 549.7099609375 808.8512752 544.5612361375 814 538.2099609375 814 C 531.8586857375 814 526.7099609375 808.8512752 526.7099609375 802.5 Z" opacity="0.2"/></g><g transform="translate(-38,-6) scale(1,1)"><path fill="none" stroke="#000000" d="M 542.5 795 A 11.5 11.5 0 0 1 519.5 795" stroke-miterlimit="10"/></g><g transform="translate(-38,-6) scale(1,1)"><path fill="#ffffff" stroke="none" d="M 522.7099609375 795.5 C 522.7099609375 790.8055792 526.5155401375 787 531.2099609375 787 C 535.9043817375 787 539.7099609375 790.8055792 539.7099609375 795.5 C 539.7099609375 800.1944208 535.9043817375 804 531.2099609375 804 C 526.5155401375 804 522.7099609375 800.1944208 522.7099609375 795.5 Z"/></g><g transform="translate(-38,-6) scale(1,1)"><path fill="none" stroke="#000000" d="M 522.7099609375 795.5 C 522.7099609375 790.8055792 526.5155401375 787 531.2099609375 787 C 535.9043817375 787 539.7099609375 790.8055792 539.7099609375 795.5 C 539.7099609375 800.1944208 535.9043817375 804 531.2099609375 804 C 526.5155401375 804 522.7099609375 800.1944208 522.7099609375 795.5 Z" stroke-miterlimit="10"/></g><g transform="translate(-38,-6) scale(1,1)"><g><path fill="none" stroke="none"/><text fill="#000000" stroke="none" font-family="Arial" font-size="13px" font-style="normal" font-weight="bold" text-decoration="none" x="513.7099609375" y="826.5">REST</text></g></g><g transform="translate(-38,-6) scale(1,1)"><path fill="none" stroke="#000000" d="M 488 668 L 488 795 L 519.7099609375 795" stroke-miterlimit="10"/></g><g transform="translate(-38,-6) scale(1,1)"><path fill="none" stroke="#000000" d="M 592 1168 L 592 984 L 531 984 L 531 807" stroke-miterlimit="10"/></g><g transform="translate(-38,-6) scale(1,1)"><g><path fill="none" stroke="none"/><text fill="#000000" stroke="none" font-family="Arial" font-size="13px" font-style="normal" font-weight="normal" text-decoration="none" x="538.5" y="1005.5">+HTTP</text></g></g><g transform="translate(-38,-6) scale(1,1)"><path fill="none" stroke="#000000" d="M 1120 1091 L 950.7099609375 1091" stroke-miterlimit="10"/></g><g transform="translate(-38,-6) scale(1,1)"><g><path fill="none" stroke="none"/><text fill="#000000" stroke="none" font-family="Arial" font-size="13px" font-style="normal" font-weight="normal" text-decoration="none" x="1012.5" y="1112.5">+HTTP</text></g></g><g transform="translate(-38,-6) scale(1,1)"><rect fill="#C0C0C0" stroke="none" x="737" y="631" width="198.88623046875" height="44" opacity="0.2"/></g><g transform="translate(-38,-6) scale(1,1)"><rect fill="#ffffff" stroke="none" x="730" y="624" width="198.88623046875" height="44"/></g><g transform="translate(-38,-6) scale(1,1)"><path fill="none" stroke="#000000" d="M 730 624 L 928.88623046875 624 L 928.88623046875 668 L 730 668 L 730 624 Z Z" stroke-miterlimit="10"/></g><g transform="translate(-38,-6) scale(1,1)"><rect fill="#ffffff" stroke="none" x="720" y="631" width="20" height="10"/></g><g transform="translate(-38,-6) scale(1,1)"><path fill="none" stroke="#000000" d="M 720 631 L 740 631 L 740 641 L 720 641 L 720 631 Z Z" stroke-miterlimit="10"/></g><g transform="translate(-38,-6) scale(1,1)"><rect fill="#ffffff" stroke="none" x="720" y="651" width="20" height="10"/></g><g transform="translate(-38,-6) scale(1,1)"><path fill="none" stroke="#000000" d="M 720 651 L 740 651 L 740 661 L 720 661 L 720 651 Z Z" stroke-miterlimit="10"/></g><g transform="translate(-38,-6) scale(1,1)"><g><path fill="none" stroke="none"/><text fill="#000000" stroke="none" font-family="Arial" font-size="13px" font-style="normal" font-weight="normal" text-decoration="none" x="817.443115234375" y="641.5">«war»</text></g></g><g transform="translate(-38,-6) scale(1,1)"><g><path fill="none" stroke="none"/><text fill="#000000" stroke="none" font-family="Arial" font-size="13px" font-style="normal" font-weight="bold" text-decoration="none" x="747.443115234375" y="656.5">bank.transfer.1.0.SNAPSHOT</text></g></g><g transform="translate(-38,-6) scale(1,1)"><path fill="#C0C0C0" stroke="none" d="M 726.7099609375 802.5 C 726.7099609375 796.1487248 731.8586857375 791 738.2099609375 791 C 744.5612361375 791 749.7099609375 796.1487248 749.7099609375 802.5 C 749.7099609375 808.8512752 744.5612361375 814 738.2099609375 814 C 731.8586857375 814 726.7099609375 808.8512752 726.7099609375 802.5 Z" opacity="0.2"/></g><g transform="translate(-38,-6) scale(1,1)"><path fill="none" stroke="#000000" d="M 742.5 795 A 11.5 11.5 0 0 1 719.5 795" stroke-miterlimit="10"/></g><g transform="translate(-38,-6) scale(1,1)"><path fill="#ffffff" stroke="none" d="M 722.7099609375 795.5 C 722.7099609375 790.8055792 726.5155401375 787 731.2099609375 787 C 735.9043817375 787 739.7099609375 790.8055792 739.7099609375 795.5 C 739.7099609375 800.1944208 735.9043817375 804 731.2099609375 804 C 726.5155401375 804 722.7099609375 800.1944208 722.7099609375 795.5 Z"/></g><g transform="translate(-38,-6) scale(1,1)"><path fill="none" stroke="#000000" d="M 722.7099609375 795.5 C 722.7099609375 790.8055792 726.5155401375 787 731.2099609375 787 C 735.9043817375 787 739.7099609375 790.8055792 739.7099609375 795.5 C 739.7099609375 800.1944208 735.9043817375 804 731.2099609375 804 C 726.5155401375 804 722.7099609375 800.1944208 722.7099609375 795.5 Z" stroke-miterlimit="10"/></g><g transform="translate(-38,-6) scale(1,1)"><g><path fill="none" stroke="none"/><text fill="#000000" stroke="none" font-family="Arial" font-size="13px" font-style="normal" font-weight="bold" text-decoration="none" x="713.7099609375" y="826.5">REST</text></g></g><g transform="translate(-38,-6) scale(1,1)"><path fill="none" stroke="#000000" d="M 672 1168 L 672 984 L 731 984 L 731 807" stroke-miterlimit="10"/></g><g transform="translate(-38,-6) scale(1,1)"><g><path fill="none" stroke="none"/><text fill="#000000" stroke="none" font-family="Arial" font-size="13px" font-style="normal" font-weight="normal" text-decoration="none" x="686.5" y="1003.5">+HTTP</text></g></g><g transform="translate(-38,-6) scale(1,1)"><path fill="none" stroke="#000000" d="M 792 624 L 792 427 L 662.7099609375 427" stroke-miterlimit="10"/></g><g transform="translate(-38,-6) scale(1,1)"><g><path fill="none" stroke="none"/><text fill="#000000" stroke="none" font-family="Arial" font-size="13px" font-style="normal" font-weight="normal" text-decoration="none" x="798.5" y="507.5">+HTTP</text></g></g><g transform="translate(-38,-6) scale(1,1)"><path fill="none" stroke="#000000" d="M 784 668 L 784 795 L 742.7099609375 795" stroke-miterlimit="10"/></g><g transform="translate(-38,-6) scale(1,1)"><rect fill="#C0C0C0" stroke="none" x="2081" y="839" width="163.4599609375" height="44" opacity="0.2"/></g><g transform="translate(-38,-6) scale(1,1)"><rect fill="#ffffff" stroke="none" x="2074" y="832" width="163.4599609375" height="44"/></g><g transform="translate(-38,-6) scale(1,1)"><path fill="none" stroke="#000000" d="M 2074 832 L 2237.4599609375 832 L 2237.4599609375 876 L 2074 876 L 2074 832 Z Z" stroke-miterlimit="10"/></g><g transform="translate(-38,-6) scale(1,1)"><rect fill="#ffffff" stroke="none" x="2064" y="839" width="20" height="10"/></g><g transform="translate(-38,-6) scale(1,1)"><path fill="none" stroke="#000000" d="M 2064 839 L 2084 839 L 2084 849 L 2064 849 L 2064 839 Z Z" stroke-miterlimit="10"/></g><g transform="translate(-38,-6) scale(1,1)"><rect fill="#ffffff" stroke="none" x="2064" y="859" width="20" height="10"/></g><g transform="translate(-38,-6) scale(1,1)"><path fill="none" stroke="#000000" d="M 2064 859 L 2084 859 L 2084 869 L 2064 869 L 2064 859 Z Z" stroke-miterlimit="10"/></g><g transform="translate(-38,-6) scale(1,1)"><g><path fill="none" stroke="none"/><text fill="#000000" stroke="none" font-family="Arial" font-size="13px" font-style="normal" font-weight="normal" text-decoration="none" x="2146.72998046875" y="849.5">«jar»</text></g></g><g transform="translate(-38,-6) scale(1,1)"><g><path fill="none" stroke="none"/><text fill="#000000" stroke="none" font-family="Arial" font-size="13px" font-style="normal" font-weight="bold" text-decoration="none" x="2094.72998046875" y="864.5">spring.boot.starter.web</text></g></g><g transform="translate(-38,-6) scale(1,1)"><rect fill="#C0C0C0" stroke="none" x="2081" y="911" width="109.34619140625" height="44" opacity="0.2"/></g><g transform="translate(-38,-6) scale(1,1)"><rect fill="#ffffff" stroke="none" x="2074" y="904" width="109.34619140625" height="44"/></g><g transform="translate(-38,-6) scale(1,1)"><path fill="none" stroke="#000000" d="M 2074 904 L 2183.34619140625 904 L 2183.34619140625 948 L 2074 948 L 2074 904 Z Z" stroke-miterlimit="10"/></g><g transform="translate(-38,-6) scale(1,1)"><rect fill="#ffffff" stroke="none" x="2064" y="911" width="20" height="10"/></g><g transform="translate(-38,-6) scale(1,1)"><path fill="none" stroke="#000000" d="M 2064 911 L 2084 911 L 2084 921 L 2064 921 L 2064 911 Z Z" stroke-miterlimit="10"/></g><g transform="translate(-38,-6) scale(1,1)"><rect fill="#ffffff" stroke="none" x="2064" y="931" width="20" height="10"/></g><g transform="translate(-38,-6) scale(1,1)"><path fill="none" stroke="#000000" d="M 2064 931 L 2084 931 L 2084 941 L 2064 941 L 2064 931 Z Z" stroke-miterlimit="10"/></g><g transform="translate(-38,-6) scale(1,1)"><g><path fill="none" stroke="none"/><text fill="#000000" stroke="none" font-family="Arial" font-size="13px" font-style="normal" font-weight="normal" text-decoration="none" x="2119.673095703125" y="921.5">«jar»</text></g></g><g transform="translate(-38,-6) scale(1,1)"><g><path fill="none" stroke="none"/><text fill="#000000" stroke="none" font-family="Arial" font-size="13px" font-style="normal" font-weight="bold" text-decoration="none" x="2090.673095703125" y="936.5">jersey.core.1.9</text></g></g><g transform="translate(-38,-6) scale(1,1)"><rect fill="#C0C0C0" stroke="none" x="2081" y="983" width="198" height="44" opacity="0.2"/></g><g transform="translate(-38,-6) scale(1,1)"><rect fill="#ffffff" stroke="none" x="2074" y="976" width="198" height="44"/></g><g transform="translate(-38,-6) scale(1,1)"><path fill="none" stroke="#000000" d="M 2074 976 L 2272 976 L 2272 1020 L 2074 1020 L 2074 976 Z Z" stroke-miterlimit="10"/></g><g transform="translate(-38,-6) scale(1,1)"><rect fill="#ffffff" stroke="none" x="2064" y="983" width="20" height="10"/></g><g transform="translate(-38,-6) scale(1,1)"><path fill="none" stroke="#000000" d="M 2064 983 L 2084 983 L 2084 993 L 2064 993 L 2064 983 Z Z" stroke-miterlimit="10"/></g><g transform="translate(-38,-6) scale(1,1)"><rect fill="#ffffff" stroke="none" x="2064" y="1003" width="20" height="10"/></g><g transform="translate(-38,-6) scale(1,1)"><path fill="none" stroke="#000000" d="M 2064 1003 L 2084 1003 L 2084 1013 L 2064 1013 L 2064 1003 Z Z" stroke-miterlimit="10"/></g><g transform="translate(-38,-6) scale(1,1)"><g><path fill="none" stroke="none"/><text fill="#000000" stroke="none" font-family="Arial" font-size="13px" font-style="normal" font-weight="normal" text-decoration="none" x="2164" y="993.5">«jar»</text></g></g><g transform="translate(-38,-6) scale(1,1)"><g><path fill="none" stroke="none"/><text fill="#000000" stroke="none" font-family="Arial" font-size="13px" font-style="normal" font-weight="bold" text-decoration="none" x="2093.5" y="1008.5">spring.rabbit.1.4.5.RELEASE</text></g></g><g transform="translate(-38,-6) scale(1,1)"><rect fill="#C0C0C0" stroke="none" x="2081" y="1063" width="180" height="44" opacity="0.2"/></g><g transform="translate(-38,-6) scale(1,1)"><rect fill="#ffffff" stroke="none" x="2074" y="1056" width="180" height="44"/></g><g transform="translate(-38,-6) scale(1,1)"><path fill="none" stroke="#000000" d="M 2074 1056 L 2254 1056 L 2254 1100 L 2074 1100 L 2074 1056 Z Z" stroke-miterlimit="10"/></g><g transform="translate(-38,-6) scale(1,1)"><rect fill="#ffffff" stroke="none" x="2064" y="1063" width="20" height="10"/></g><g transform="translate(-38,-6) scale(1,1)"><path fill="none" stroke="#000000" d="M 2064 1063 L 2084 1063 L 2084 1073 L 2064 1073 L 2064 1063 Z Z" stroke-miterlimit="10"/></g><g transform="translate(-38,-6) scale(1,1)"><rect fill="#ffffff" stroke="none" x="2064" y="1083" width="20" height="10"/></g><g transform="translate(-38,-6) scale(1,1)"><path fill="none" stroke="#000000" d="M 2064 1083 L 2084 1083 L 2084 1093 L 2064 1093 L 2064 1083 Z Z" stroke-miterlimit="10"/></g><g transform="translate(-38,-6) scale(1,1)"><g><path fill="none" stroke="none"/><text fill="#000000" stroke="none" font-family="Arial" font-size="13px" font-style="normal" font-weight="normal" text-decoration="none" x="2155" y="1073.5">«jar»</text></g></g><g transform="translate(-38,-6) scale(1,1)"><g><path fill="none" stroke="none"/><text fill="#000000" stroke="none" font-family="Arial" font-size="13px" font-style="normal" font-weight="bold" text-decoration="none" x="2092.5" y="1088.5">jackson.mapper.asl.1.9.13</text></g></g><g transform="translate(-38,-6) scale(1,1)"><rect fill="#C0C0C0" stroke="none" x="2081" y="1167" width="154.103515625" height="44" opacity="0.2"/></g><g transform="translate(-38,-6) scale(1,1)"><rect fill="#ffffff" stroke="none" x="2074" y="1160" width="154.103515625" height="44"/></g><g transform="translate(-38,-6) scale(1,1)"><path fill="none" stroke="#000000" d="M 2074 1160 L 2228.103515625 1160 L 2228.103515625 1204 L 2074 1204 L 2074 1160 Z Z" stroke-miterlimit="10"/></g><g transform="translate(-38,-6) scale(1,1)"><rect fill="#ffffff" stroke="none" x="2064" y="1167" width="20" height="10"/></g><g transform="translate(-38,-6) scale(1,1)"><path fill="none" stroke="#000000" d="M 2064 1167 L 2084 1167 L 2084 1177 L 2064 1177 L 2064 1167 Z Z" stroke-miterlimit="10"/></g><g transform="translate(-38,-6) scale(1,1)"><rect fill="#ffffff" stroke="none" x="2064" y="1187" width="20" height="10"/></g><g transform="translate(-38,-6) scale(1,1)"><path fill="none" stroke="#000000" d="M 2064 1187 L 2084 1187 L 2084 1197 L 2064 1197 L 2064 1187 Z Z" stroke-miterlimit="10"/></g><g transform="translate(-38,-6) scale(1,1)"><g><path fill="none" stroke="none"/><text fill="#000000" stroke="none" font-family="Arial" font-size="13px" font-style="normal" font-weight="normal" text-decoration="none" x="2142.0517578125" y="1177.5">«jar»</text></g></g><g transform="translate(-38,-6) scale(1,1)"><g><path fill="none" stroke="none"/><text fill="#000000" stroke="none" font-family="Arial" font-size="13px" font-style="normal" font-weight="bold" text-decoration="none" x="2092.5517578125" y="1192.5">jackson.databind.2.10</text></g></g><g transform="translate(-38,-6) scale(1,1)"><path fill="none" stroke="#000000" d="M 1744 700 L 1744 926 L 2064 926" stroke-miterlimit="10" stroke-dasharray="3"/></g><g transform="translate(-38,-6) scale(1,1)"><path fill="none" stroke="#000000" d="M 2053.837325142376 930.209517756016 L 2064 926 L 2053.837325142376 921.790482243984" stroke-miterlimit="10"/></g><g transform="translate(-38,-6) scale(1,1)"><path fill="none" stroke="#000000" d="M 1720 700 L 1720 990 L 2064 990" stroke-miterlimit="10" stroke-dasharray="3"/></g><g transform="translate(-38,-6) scale(1,1)"><path fill="none" stroke="#000000" d="M 2053.837325142376 994.209517756016 L 2064 990 L 2053.837325142376 985.790482243984" stroke-miterlimit="10"/></g><g transform="translate(-38,-6) scale(1,1)"><path fill="none" stroke="#000000" d="M 1707 700 L 1707 1070 L 2064 1070" stroke-miterlimit="10" stroke-dasharray="3"/></g><g transform="translate(-38,-6) scale(1,1)"><path fill="none" stroke="#000000" d="M 2053.837325142376 1074.2095177560159 L 2064 1070 L 2053.837325142376 1065.7904822439841" stroke-miterlimit="10"/></g><g transform="translate(-38,-6) scale(1,1)"><path fill="none" stroke="#000000" d="M 1688 700 L 1688 1174 L 2064 1174" stroke-miterlimit="10" stroke-dasharray="3"/></g><g transform="translate(-38,-6) scale(1,1)"><path fill="none" stroke="#000000" d="M 2053.837325142376 1178.2095177560159 L 2064 1174 L 2053.837325142376 1169.7904822439841" stroke-miterlimit="10"/></g><g transform="translate(-38,-6) scale(1,1)"><rect fill="#C0C0C0" stroke="none" x="1153" y="527" width="98.44091796875" height="44" opacity="0.2"/></g><g transform="translate(-38,-6) scale(1,1)"><rect fill="#ffffff" stroke="none" x="1146" y="520" width="98.44091796875" height="44"/></g><g transform="translate(-38,-6) scale(1,1)"><path fill="none" stroke="#000000" d="M 1146 520 L 1244.44091796875 520 L 1244.44091796875 564 L 1146 564 L 1146 520 Z Z" stroke-miterlimit="10"/></g><g transform="translate(-38,-6) scale(1,1)"><rect fill="#ffffff" stroke="none" x="1136" y="527" width="20" height="10"/></g><g transform="translate(-38,-6) scale(1,1)"><path fill="none" stroke="#000000" d="M 1136 527 L 1156 527 L 1156 537 L 1136 537 L 1136 527 Z Z" stroke-miterlimit="10"/></g><g transform="translate(-38,-6) scale(1,1)"><rect fill="#ffffff" stroke="none" x="1136" y="547" width="20" height="10"/></g><g transform="translate(-38,-6) scale(1,1)"><path fill="none" stroke="#000000" d="M 1136 547 L 1156 547 L 1156 557 L 1136 557 L 1136 547 Z Z" stroke-miterlimit="10"/></g><g transform="translate(-38,-6) scale(1,1)"><g><path fill="none" stroke="none"/><text fill="#000000" stroke="none" font-family="Arial" font-size="13px" font-style="normal" font-weight="normal" text-decoration="none" x="1186.220458984375" y="537.5">«jar»</text></g></g><g transform="translate(-38,-6) scale(1,1)"><g><path fill="none" stroke="none"/><text fill="#000000" stroke="none" font-family="Arial" font-size="13px" font-style="normal" font-weight="bold" text-decoration="none" x="1163.720458984375" y="552.5">esibank.utils</text></g></g><g transform="translate(-38,-6) scale(1,1)"><rect fill="#C0C0C0" stroke="none" x="1185" y="431" width="113" height="44" opacity="0.2"/></g><g transform="translate(-38,-6) scale(1,1)"><rect fill="#ffffff" stroke="none" x="1178" y="424" width="113" height="44"/></g><g transform="translate(-38,-6) scale(1,1)"><path fill="none" stroke="#000000" d="M 1178 424 L 1291 424 L 1291 468 L 1178 468 L 1178 424 Z Z" stroke-miterlimit="10"/></g><g transform="translate(-38,-6) scale(1,1)"><rect fill="#ffffff" stroke="none" x="1168" y="431" width="20" height="10"/></g><g transform="translate(-38,-6) scale(1,1)"><path fill="none" stroke="#000000" d="M 1168 431 L 1188 431 L 1188 441 L 1168 441 L 1168 431 Z Z" stroke-miterlimit="10"/></g><g transform="translate(-38,-6) scale(1,1)"><rect fill="#ffffff" stroke="none" x="1168" y="451" width="20" height="10"/></g><g transform="translate(-38,-6) scale(1,1)"><path fill="none" stroke="#000000" d="M 1168 451 L 1188 451 L 1188 461 L 1168 461 L 1168 451 Z Z" stroke-miterlimit="10"/></g><g transform="translate(-38,-6) scale(1,1)"><g><path fill="none" stroke="none"/><text fill="#000000" stroke="none" font-family="Arial" font-size="13px" font-style="normal" font-weight="normal" text-decoration="none" x="1225.5" y="441.5">«jar»</text></g></g><g transform="translate(-38,-6) scale(1,1)"><g><path fill="none" stroke="none"/><text fill="#000000" stroke="none" font-family="Arial" font-size="13px" font-style="normal" font-weight="bold" text-decoration="none" x="1195" y="456.5">lombok.0.15.16</text></g></g><g transform="translate(-38,-6) scale(1,1)"><path fill="none" stroke="#000000" d="M 1229 520 L 1229 468" stroke-miterlimit="10" stroke-dasharray="3"/></g><g transform="translate(-38,-6) scale(1,1)"><path fill="none" stroke="#000000" d="M 1233.2095177560159 478.16267485762415 L 1229 468 L 1224.7904822439841 478.16267485762415" stroke-miterlimit="10"/></g><g transform="translate(-38,-6) scale(1,1)"><path fill="none" stroke="#000000" d="M 1544 678 L 1190 678 L 1190 564" stroke-miterlimit="10" stroke-dasharray="3"/></g><g transform="translate(-38,-6) scale(1,1)"><path fill="none" stroke="#000000" d="M 1194.2095177560159 574.1626748576241 L 1190 564 L 1185.7904822439841 574.1626748576241" stroke-miterlimit="10"/></g><g transform="translate(-38,-6) scale(1,1)"><rect fill="#C0C0C0" stroke="none" x="2441" y="247" width="264" height="44" opacity="0.2"/></g><g transform="translate(-38,-6) scale(1,1)"><rect fill="#ffffff" stroke="none" x="2434" y="240" width="264" height="44"/></g><g transform="translate(-38,-6) scale(1,1)"><path fill="none" stroke="#000000" d="M 2434 240 L 2698 240 L 2698 284 L 2434 284 L 2434 240 Z Z" stroke-miterlimit="10"/></g><g transform="translate(-38,-6) scale(1,1)"><rect fill="#ffffff" stroke="none" x="2424" y="247" width="20" height="10"/></g><g transform="translate(-38,-6) scale(1,1)"><path fill="none" stroke="#000000" d="M 2424 247 L 2444 247 L 2444 257 L 2424 257 L 2424 247 Z Z" stroke-miterlimit="10"/></g><g transform="translate(-38,-6) scale(1,1)"><rect fill="#ffffff" stroke="none" x="2424" y="267" width="20" height="10"/></g><g transform="translate(-38,-6) scale(1,1)"><path fill="none" stroke="#000000" d="M 2424 267 L 2444 267 L 2444 277 L 2424 277 L 2424 267 Z Z" stroke-miterlimit="10"/></g><g transform="translate(-38,-6) scale(1,1)"><g><path fill="none" stroke="none"/><text fill="#000000" stroke="none" font-family="Arial" font-size="13px" font-style="normal" font-weight="normal" text-decoration="none" x="2554" y="257.5">«war»</text></g></g><g transform="translate(-38,-6) scale(1,1)"><g><path fill="none" stroke="none"/><text fill="#000000" stroke="none" font-family="Arial" font-size="13px" font-style="normal" font-weight="bold" text-decoration="none" x="2454.5" y="272.5">notification.push.server.1.0.SNAPSHOT</text></g></g><g transform="translate(-38,-6) scale(1,1)"><rect fill="#C0C0C0" stroke="none" x="2769" y="439" width="98.44091796875" height="44" opacity="0.2"/></g><g transform="translate(-38,-6) scale(1,1)"><rect fill="#ffffff" stroke="none" x="2762" y="432" width="98.44091796875" height="44"/></g><g transform="translate(-38,-6) scale(1,1)"><path fill="none" stroke="#000000" d="M 2762 432 L 2860.44091796875 432 L 2860.44091796875 476 L 2762 476 L 2762 432 Z Z" stroke-miterlimit="10"/></g><g transform="translate(-38,-6) scale(1,1)"><rect fill="#ffffff" stroke="none" x="2752" y="439" width="20" height="10"/></g><g transform="translate(-38,-6) scale(1,1)"><path fill="none" stroke="#000000" d="M 2752 439 L 2772 439 L 2772 449 L 2752 449 L 2752 439 Z Z" stroke-miterlimit="10"/></g><g transform="translate(-38,-6) scale(1,1)"><rect fill="#ffffff" stroke="none" x="2752" y="459" width="20" height="10"/></g><g transform="translate(-38,-6) scale(1,1)"><path fill="none" stroke="#000000" d="M 2752 459 L 2772 459 L 2772 469 L 2752 469 L 2752 459 Z Z" stroke-miterlimit="10"/></g><g transform="translate(-38,-6) scale(1,1)"><g><path fill="none" stroke="none"/><text fill="#000000" stroke="none" font-family="Arial" font-size="13px" font-style="normal" font-weight="normal" text-decoration="none" x="2802.220458984375" y="449.5">«jar»</text></g></g><g transform="translate(-38,-6) scale(1,1)"><g><path fill="none" stroke="none"/><text fill="#000000" stroke="none" font-family="Arial" font-size="13px" font-style="normal" font-weight="bold" text-decoration="none" x="2782.720458984375" y="464.5">log4j.1.2.17</text></g></g><g transform="translate(-38,-6) scale(1,1)"><rect fill="#C0C0C0" stroke="none" x="2769" y="551" width="125" height="44" opacity="0.2"/></g><g transform="translate(-38,-6) scale(1,1)"><rect fill="#ffffff" stroke="none" x="2762" y="544" width="125" height="44"/></g><g transform="translate(-38,-6) scale(1,1)"><path fill="none" stroke="#000000" d="M 2762 544 L 2887 544 L 2887 588 L 2762 588 L 2762 544 Z Z" stroke-miterlimit="10"/></g><g transform="translate(-38,-6) scale(1,1)"><rect fill="#ffffff" stroke="none" x="2752" y="551" width="20" height="10"/></g><g transform="translate(-38,-6) scale(1,1)"><path fill="none" stroke="#000000" d="M 2752 551 L 2772 551 L 2772 561 L 2752 561 L 2752 551 Z Z" stroke-miterlimit="10"/></g><g transform="translate(-38,-6) scale(1,1)"><rect fill="#ffffff" stroke="none" x="2752" y="571" width="20" height="10"/></g><g transform="translate(-38,-6) scale(1,1)"><path fill="none" stroke="#000000" d="M 2752 571 L 2772 571 L 2772 581 L 2752 581 L 2752 571 Z Z" stroke-miterlimit="10"/></g><g transform="translate(-38,-6) scale(1,1)"><g><path fill="none" stroke="none"/><text fill="#000000" stroke="none" font-family="Arial" font-size="13px" font-style="normal" font-weight="normal" text-decoration="none" x="2815.5" y="561.5">«jar»</text></g></g><g transform="translate(-38,-6) scale(1,1)"><g><path fill="none" stroke="none"/><text fill="#000000" stroke="none" font-family="Arial" font-size="13px" font-style="normal" font-weight="bold" text-decoration="none" x="2779.5" y="576.5">ampq.client.5.0.0</text></g></g><g transform="translate(-38,-6) scale(1,1)"><rect fill="#C0C0C0" stroke="none" x="2769" y="351" width="138.24072265625" height="44" opacity="0.2"/></g><g transform="translate(-38,-6) scale(1,1)"><rect fill="#ffffff" stroke="none" x="2762" y="344" width="138.24072265625" height="44"/></g><g transform="translate(-38,-6) scale(1,1)"><path fill="none" stroke="#000000" d="M 2762 344 L 2900.24072265625 344 L 2900.24072265625 388 L 2762 388 L 2762 344 Z Z" stroke-miterlimit="10"/></g><g transform="translate(-38,-6) scale(1,1)"><rect fill="#ffffff" stroke="none" x="2752" y="351" width="20" height="10"/></g><g transform="translate(-38,-6) scale(1,1)"><path fill="none" stroke="#000000" d="M 2752 351 L 2772 351 L 2772 361 L 2752 361 L 2752 351 Z Z" stroke-miterlimit="10"/></g><g transform="translate(-38,-6) scale(1,1)"><rect fill="#ffffff" stroke="none" x="2752" y="371" width="20" height="10"/></g><g transform="translate(-38,-6) scale(1,1)"><path fill="none" stroke="#000000" d="M 2752 371 L 2772 371 L 2772 381 L 2752 381 L 2752 371 Z Z" stroke-miterlimit="10"/></g><g transform="translate(-38,-6) scale(1,1)"><g><path fill="none" stroke="none"/><text fill="#000000" stroke="none" font-family="Arial" font-size="13px" font-style="normal" font-weight="normal" text-decoration="none" x="2822.120361328125" y="361.5">«jar»</text></g></g><g transform="translate(-38,-6) scale(1,1)"><g><path fill="none" stroke="none"/><text fill="#000000" stroke="none" font-family="Arial" font-size="13px" font-style="normal" font-weight="bold" text-decoration="none" x="2779.120361328125" y="376.5">jackson.core.2.8.10</text></g></g><g transform="translate(-38,-6) scale(1,1)"><path fill="none" stroke="#000000" d="M 2619 284 L 2619 366 L 2752 366" stroke-miterlimit="10" stroke-dasharray="3"/></g><g transform="translate(-38,-6) scale(1,1)"><path fill="none" stroke="#000000" d="M 2741.837325142376 370.209517756016 L 2752 366 L 2741.837325142376 361.790482243984" stroke-miterlimit="10"/></g><g transform="translate(-38,-6) scale(1,1)"><path fill="none" stroke="#000000" d="M 2589 284 L 2589 454 L 2752 454" stroke-miterlimit="10" stroke-dasharray="3"/></g><g transform="translate(-38,-6) scale(1,1)"><path fill="none" stroke="#000000" d="M 2741.837325142376 458.209517756016 L 2752 454 L 2741.837325142376 449.790482243984" stroke-miterlimit="10"/></g><g transform="translate(-38,-6) scale(1,1)"><path fill="none" stroke="#000000" d="M 2580 284 L 2580 566 L 2752 566" stroke-miterlimit="10" stroke-dasharray="3"/></g><g transform="translate(-38,-6) scale(1,1)"><path fill="none" stroke="#000000" d="M 2741.837325142376 570.209517756016 L 2752 566 L 2741.837325142376 561.790482243984" stroke-miterlimit="10"/></g><g transform="translate(-38,-6) scale(1,1)"><path fill="#C0C0C0" stroke="none" d="M 2390.7099609375 122.5 C 2390.7099609375 116.1487248 2395.8586857375 111 2402.2099609375 111 C 2408.5612361375 111 2413.7099609375 116.1487248 2413.7099609375 122.5 C 2413.7099609375 128.8512752 2408.5612361375 134 2402.2099609375 134 C 2395.8586857375 134 2390.7099609375 128.8512752 2390.7099609375 122.5 Z" opacity="0.2"/></g><g transform="translate(-38,-6) scale(1,1)"><path fill="none" stroke="#000000" d="M 2395 126.5 A 11.5 11.5 0 0 1 2395 103.5" stroke-miterlimit="10"/></g><g transform="translate(-38,-6) scale(1,1)"><path fill="#ffffff" stroke="none" d="M 2386.7099609375 115.5 C 2386.7099609375 110.8055792 2390.5155401375 107 2395.2099609375 107 C 2399.9043817375 107 2403.7099609375 110.8055792 2403.7099609375 115.5 C 2403.7099609375 120.1944208 2399.9043817375 124 2395.2099609375 124 C 2390.5155401375 124 2386.7099609375 120.1944208 2386.7099609375 115.5 Z"/></g><g transform="translate(-38,-6) scale(1,1)"><path fill="none" stroke="#000000" d="M 2386.7099609375 115.5 C 2386.7099609375 110.8055792 2390.5155401375 107 2395.2099609375 107 C 2399.9043817375 107 2403.7099609375 110.8055792 2403.7099609375 115.5 C 2403.7099609375 120.1944208 2399.9043817375 124 2395.2099609375 124 C 2390.5155401375 124 2386.7099609375 120.1944208 2386.7099609375 115.5 Z" stroke-miterlimit="10"/></g><g transform="translate(-38,-6) scale(1,1)"><g><path fill="none" stroke="none"/><text fill="#000000" stroke="none" font-family="Arial" font-size="13px" font-style="normal" font-weight="bold" text-decoration="none" x="2375.7099609375" y="146.5">socket</text></g></g><g transform="translate(-38,-6) scale(1,1)"><path fill="none" stroke="#000000" d="M 2523 240 L 2523 115 L 2406.7099609375 115" stroke-miterlimit="10"/></g><g transform="translate(-38,-6) scale(1,1)"><g><path fill="none" stroke="none"/><text fill="#000000" stroke="none" font-family="Arial" font-size="13px" font-style="normal" font-weight="normal" text-decoration="none" x="2503.755859375" y="136.5">+2702</text></g></g><g transform="translate(-38,-6) scale(1,1)"><path fill="none" stroke="#000000" d="M 2255 248 L 2255 115 L 2383.7099609375 115" stroke-miterlimit="10"/></g><g transform="translate(-38,-6) scale(1,1)"><g><path fill="none" stroke="none"/><text fill="#000000" stroke="none" font-family="Arial" font-size="13px" font-style="normal" font-weight="normal" text-decoration="none" x="2233.5" y="106.5">+HTTP</text></g></g><g transform="translate(-38,-6) scale(1,1)"><path fill="#C0C0C0" stroke="none" d="M 1846.7099609375 514.5 C 1846.7099609375 508.1487248 1851.8586857375 503 1858.2099609375 503 C 1864.5612361375 503 1869.7099609375 508.1487248 1869.7099609375 514.5 C 1869.7099609375 520.8512752 1864.5612361375 526 1858.2099609375 526 C 1851.8586857375 526 1846.7099609375 520.8512752 1846.7099609375 514.5 Z" opacity="0.2"/></g><g transform="translate(-38,-6) scale(1,1)"><path fill="none" stroke="#000000" d="M 1851 495.5 A 11.5 11.5 0 0 1 1851 518.5" stroke-miterlimit="10"/></g><g transform="translate(-38,-6) scale(1,1)"><path fill="#ffffff" stroke="none" d="M 1842.7099609375 507.5 C 1842.7099609375 502.8055792 1846.5155401375 499 1851.2099609375 499 C 1855.9043817375 499 1859.7099609375 502.8055792 1859.7099609375 507.5 C 1859.7099609375 512.1944208 1855.9043817375 516 1851.2099609375 516 C 1846.5155401375 516 1842.7099609375 512.1944208 1842.7099609375 507.5 Z"/></g><g transform="translate(-38,-6) scale(1,1)"><path fill="none" stroke="#000000" d="M 1842.7099609375 507.5 C 1842.7099609375 502.8055792 1846.5155401375 499 1851.2099609375 499 C 1855.9043817375 499 1859.7099609375 502.8055792 1859.7099609375 507.5 C 1859.7099609375 512.1944208 1855.9043817375 516 1851.2099609375 516 C 1846.5155401375 516 1842.7099609375 512.1944208 1842.7099609375 507.5 Z" stroke-miterlimit="10"/></g><g transform="translate(-38,-6) scale(1,1)"><g><path fill="none" stroke="none"/><text fill="#000000" stroke="none" font-family="Arial" font-size="13px" font-style="normal" font-weight="bold" text-decoration="none" x="1833.7099609375" y="538.5">REST</text></g></g><g transform="translate(-38,-6) scale(1,1)"><path fill="none" stroke="#000000" d="M 1704 656 L 1704 507 L 1839.7099609375 507" stroke-miterlimit="10"/></g><g transform="translate(-38,-6) scale(1,1)"><path fill="none" stroke="#000000" d="M 2139 303 L 2139 507 L 1862.7099609375 507" stroke-miterlimit="10"/></g><g transform="translate(-38,-6) scale(1,1)"><g><path fill="none" stroke="none"/><text fill="#000000" stroke="none" font-family="Arial" font-size="13px" font-style="normal" font-weight="normal" text-decoration="none" x="2116.5" y="528.5">+HTTP</text></g></g><g transform="translate(-38,-6) scale(1,1)"><rect fill="#C0C0C0" stroke="none" x="1729" y="23" width="259" height="44" opacity="0.2"/></g><g transform="translate(-38,-6) scale(1,1)"><rect fill="#ffffff" stroke="none" x="1722" y="16" width="259" height="44"/></g><g transform="translate(-38,-6) scale(1,1)"><path fill="none" stroke="#000000" d="M 1722 16 L 1981 16 L 1981 60 L 1722 60 L 1722 16 Z Z" stroke-miterlimit="10"/></g><g transform="translate(-38,-6) scale(1,1)"><rect fill="#ffffff" stroke="none" x="1712" y="23" width="20" height="10"/></g><g transform="translate(-38,-6) scale(1,1)"><path fill="none" stroke="#000000" d="M 1712 23 L 1732 23 L 1732 33 L 1712 33 L 1712 23 Z Z" stroke-miterlimit="10"/></g><g transform="translate(-38,-6) scale(1,1)"><rect fill="#ffffff" stroke="none" x="1712" y="43" width="20" height="10"/></g><g transform="translate(-38,-6) scale(1,1)"><path fill="none" stroke="#000000" d="M 1712 43 L 1732 43 L 1732 53 L 1712 53 L 1712 43 Z Z" stroke-miterlimit="10"/></g><g transform="translate(-38,-6) scale(1,1)"><g><path fill="none" stroke="none"/><text fill="#000000" stroke="none" font-family="Arial" font-size="13px" font-style="normal" font-weight="bold" text-decoration="none" x="1745.5" y="35.5">com.android.support.appcompat.v7.26</text></g></g><g transform="translate(-38,-6) scale(1,1)"><rect fill="#C0C0C0" stroke="none" x="1729" y="95" width="273.34423828125" height="44" opacity="0.2"/></g><g transform="translate(-38,-6) scale(1,1)"><rect fill="#ffffff" stroke="none" x="1722" y="88" width="273.34423828125" height="44"/></g><g transform="translate(-38,-6) scale(1,1)"><path fill="none" stroke="#000000" d="M 1722 88 L 1995.34423828125 88 L 1995.34423828125 132 L 1722 132 L 1722 88 Z Z" stroke-miterlimit="10"/></g><g transform="translate(-38,-6) scale(1,1)"><rect fill="#ffffff" stroke="none" x="1712" y="95" width="20" height="10"/></g><g transform="translate(-38,-6) scale(1,1)"><path fill="none" stroke="#000000" d="M 1712 95 L 1732 95 L 1732 105 L 1712 105 L 1712 95 Z Z" stroke-miterlimit="10"/></g><g transform="translate(-38,-6) scale(1,1)"><rect fill="#ffffff" stroke="none" x="1712" y="115" width="20" height="10"/></g><g transform="translate(-38,-6) scale(1,1)"><path fill="none" stroke="#000000" d="M 1712 115 L 1732 115 L 1732 125 L 1712 125 L 1712 115 Z Z" stroke-miterlimit="10"/></g><g transform="translate(-38,-6) scale(1,1)"><g><path fill="none" stroke="none"/><text fill="#000000" stroke="none" font-family="Arial" font-size="13px" font-style="normal" font-weight="bold" text-decoration="none" x="1744.172119140625" y="107.5">com.fasterxml.jackson.core.jackson.core</text></g></g><g transform="translate(-38,-6) scale(1,1)"><rect fill="#C0C0C0" stroke="none" x="1729" y="159" width="231.3798828125" height="44" opacity="0.2"/></g><g transform="translate(-38,-6) scale(1,1)"><rect fill="#ffffff" stroke="none" x="1722" y="152" width="231.3798828125" height="44"/></g><g transform="translate(-38,-6) scale(1,1)"><path fill="none" stroke="#000000" d="M 1722 152 L 1953.3798828125 152 L 1953.3798828125 196 L 1722 196 L 1722 152 Z Z" stroke-miterlimit="10"/></g><g transform="translate(-38,-6) scale(1,1)"><rect fill="#ffffff" stroke="none" x="1712" y="159" width="20" height="10"/></g><g transform="translate(-38,-6) scale(1,1)"><path fill="none" stroke="#000000" d="M 1712 159 L 1732 159 L 1732 169 L 1712 169 L 1712 159 Z Z" stroke-miterlimit="10"/></g><g transform="translate(-38,-6) scale(1,1)"><rect fill="#ffffff" stroke="none" x="1712" y="179" width="20" height="10"/></g><g transform="translate(-38,-6) scale(1,1)"><path fill="none" stroke="#000000" d="M 1712 179 L 1732 179 L 1732 189 L 1712 189 L 1712 179 Z Z" stroke-miterlimit="10"/></g><g transform="translate(-38,-6) scale(1,1)"><g><path fill="none" stroke="none"/><text fill="#000000" stroke="none" font-family="Arial" font-size="13px" font-style="normal" font-weight="bold" text-decoration="none" x="1744.18994140625" y="171.5">com.squareup.retrofit.retrofit.1.9.0</text></g></g><g transform="translate(-38,-6) scale(1,1)"><rect fill="#C0C0C0" stroke="none" x="1729" y="239" width="197" height="44" opacity="0.2"/></g><g transform="translate(-38,-6) scale(1,1)"><rect fill="#ffffff" stroke="none" x="1722" y="232" width="197" height="44"/></g><g transform="translate(-38,-6) scale(1,1)"><path fill="none" stroke="#000000" d="M 1722 232 L 1919 232 L 1919 276 L 1722 276 L 1722 232 Z Z" stroke-miterlimit="10"/></g><g transform="translate(-38,-6) scale(1,1)"><rect fill="#ffffff" stroke="none" x="1712" y="239" width="20" height="10"/></g><g transform="translate(-38,-6) scale(1,1)"><path fill="none" stroke="#000000" d="M 1712 239 L 1732 239 L 1732 249 L 1712 249 L 1712 239 Z Z" stroke-miterlimit="10"/></g><g transform="translate(-38,-6) scale(1,1)"><rect fill="#ffffff" stroke="none" x="1712" y="259" width="20" height="10"/></g><g transform="translate(-38,-6) scale(1,1)"><path fill="none" stroke="#000000" d="M 1712 259 L 1732 259 L 1732 269 L 1712 269 L 1712 259 Z Z" stroke-miterlimit="10"/></g><g transform="translate(-38,-6) scale(1,1)"><g><path fill="none" stroke="none"/><text fill="#000000" stroke="none" font-family="Arial" font-size="13px" font-style="normal" font-weight="bold" text-decoration="none" x="1744" y="251.5">com.google.code.gson.gson</text></g></g><g transform="translate(-38,-6) scale(1,1)"><rect fill="#C0C0C0" stroke="none" x="1729" y="343" width="236" height="44" opacity="0.2"/></g><g transform="translate(-38,-6) scale(1,1)"><rect fill="#ffffff" stroke="none" x="1722" y="336" width="236" height="44"/></g><g transform="translate(-38,-6) scale(1,1)"><path fill="none" stroke="#000000" d="M 1722 336 L 1958 336 L 1958 380 L 1722 380 L 1722 336 Z Z" stroke-miterlimit="10"/></g><g transform="translate(-38,-6) scale(1,1)"><rect fill="#ffffff" stroke="none" x="1712" y="343" width="20" height="10"/></g><g transform="translate(-38,-6) scale(1,1)"><path fill="none" stroke="#000000" d="M 1712 343 L 1732 343 L 1732 353 L 1712 353 L 1712 343 Z Z" stroke-miterlimit="10"/></g><g transform="translate(-38,-6) scale(1,1)"><rect fill="#ffffff" stroke="none" x="1712" y="363" width="20" height="10"/></g><g transform="translate(-38,-6) scale(1,1)"><path fill="none" stroke="#000000" d="M 1712 363 L 1732 363 L 1732 373 L 1712 373 L 1712 363 Z Z" stroke-miterlimit="10"/></g><g transform="translate(-38,-6) scale(1,1)"><g><path fill="none" stroke="none"/><text fill="#000000" stroke="none" font-family="Arial" font-size="13px" font-style="normal" font-weight="bold" text-decoration="none" x="1745" y="355.5">com.android.support.design.27.0.2</text></g></g><g transform="translate(-38,-6) scale(1,1)"><path fill="none" stroke="#000000" d="M 2035 303 L 2035 358 L 1958 358" stroke-miterlimit="10" stroke-dasharray="3"/></g><g transform="translate(-38,-6) scale(1,1)"><path fill="none" stroke="#000000" d="M 1968.162674857624 353.790482243984 L 1958 358 L 1968.162674857624 362.209517756016" stroke-miterlimit="10"/></g><g transform="translate(-38,-6) scale(1,1)"><path fill="none" stroke="#000000" d="M 2024 267 L 1919 267" stroke-miterlimit="10" stroke-dasharray="3"/></g><g transform="translate(-38,-6) scale(1,1)"><path fill="none" stroke="#000000" d="M 1929.162674857624 262.790482243984 L 1919 267 L 1929.162674857624 271.209517756016" stroke-miterlimit="10"/></g><g transform="translate(-38,-6) scale(1,1)"><path fill="none" stroke="#000000" d="M 2056 248 L 2056 168 L 1953 168" stroke-miterlimit="10" stroke-dasharray="3"/></g><g transform="translate(-38,-6) scale(1,1)"><path fill="none" stroke="#000000" d="M 1963.162674857624 163.790482243984 L 1953 168 L 1963.162674857624 172.209517756016" stroke-miterlimit="10"/></g><g transform="translate(-38,-6) scale(1,1)"><path fill="none" stroke="#000000" d="M 2096 248 L 2096 112 L 1995 112" stroke-miterlimit="10" stroke-dasharray="3"/></g><g transform="translate(-38,-6) scale(1,1)"><path fill="none" stroke="#000000" d="M 2005.162674857624 107.79048224398402 L 1995 112 L 2005.162674857624 116.20951775601598" stroke-miterlimit="10"/></g><g transform="translate(-38,-6) scale(1,1)"><path fill="none" stroke="#000000" d="M 2144 248 L 2144 32 L 1981 32" stroke-miterlimit="10" stroke-dasharray="3"/></g><g transform="translate(-38,-6) scale(1,1)"><path fill="none" stroke="#000000" d="M 1991.162674857624 27.790482243984012 L 1981 32 L 1991.162674857624 36.209517756015984" stroke-miterlimit="10"/></g><g transform="translate(-38,-6) scale(1,1)"><rect fill="#C0C0C0" stroke="none" x="841" y="327" width="209" height="44" opacity="0.2"/></g><g transform="translate(-38,-6) scale(1,1)"><rect fill="#ffffff" stroke="none" x="834" y="320" width="209" height="44"/></g><g transform="translate(-38,-6) scale(1,1)"><path fill="none" stroke="#000000" d="M 834 320 L 1043 320 L 1043 364 L 834 364 L 834 320 Z Z" stroke-miterlimit="10"/></g><g transform="translate(-38,-6) scale(1,1)"><rect fill="#ffffff" stroke="none" x="824" y="327" width="20" height="10"/></g><g transform="translate(-38,-6) scale(1,1)"><path fill="none" stroke="#000000" d="M 824 327 L 844 327 L 844 337 L 824 337 L 824 327 Z Z" stroke-miterlimit="10"/></g><g transform="translate(-38,-6) scale(1,1)"><rect fill="#ffffff" stroke="none" x="824" y="347" width="20" height="10"/></g><g transform="translate(-38,-6) scale(1,1)"><path fill="none" stroke="#000000" d="M 824 347 L 844 347 L 844 357 L 824 357 L 824 347 Z Z" stroke-miterlimit="10"/></g><g transform="translate(-38,-6) scale(1,1)"><g><path fill="none" stroke="none"/><text fill="#000000" stroke="none" font-family="Arial" font-size="13px" font-style="normal" font-weight="bold" text-decoration="none" x="854" y="339.5">extract_load_transform_0_1.jar</text></g></g><g transform="translate(-38,-6) scale(1,1)"><path fill="none" stroke="#000000" d="M 938 319 L 964 213" stroke-miterlimit="10" stroke-dasharray="3"/></g><g transform="translate(-38,-6) scale(1,1)"><path fill="none" stroke="#000000" d="M 965.6673613619723 223.8728977778972 L 964 213 L 957.4907027758397 221.86730227563828" stroke-miterlimit="10"/></g><g transform="translate(-38,-6) scale(1,1)"><rect fill="#C0C0C0" stroke="none" x="1089" y="327" width="214" height="44" opacity="0.2"/></g><g transform="translate(-38,-6) scale(1,1)"><rect fill="#ffffff" stroke="none" x="1082" y="320" width="214" height="44"/></g><g transform="translate(-38,-6) scale(1,1)"><path fill="none" stroke="#000000" d="M 1082 320 L 1296 320 L 1296 364 L 1082 364 L 1082 320 Z Z" stroke-miterlimit="10"/></g><g transform="translate(-38,-6) scale(1,1)"><rect fill="#ffffff" stroke="none" x="1072" y="327" width="20" height="10"/></g><g transform="translate(-38,-6) scale(1,1)"><path fill="none" stroke="#000000" d="M 1072 327 L 1092 327 L 1092 337 L 1072 337 L 1072 327 Z Z" stroke-miterlimit="10"/></g><g transform="translate(-38,-6) scale(1,1)"><rect fill="#ffffff" stroke="none" x="1072" y="347" width="20" height="10"/></g><g transform="translate(-38,-6) scale(1,1)"><path fill="none" stroke="#000000" d="M 1072 347 L 1092 347 L 1092 357 L 1072 357 L 1072 347 Z Z" stroke-miterlimit="10"/></g><g transform="translate(-38,-6) scale(1,1)"><g><path fill="none" stroke="none"/><text fill="#000000" stroke="none" font-family="Arial" font-size="13px" font-style="normal" font-weight="bold" text-decoration="none" x="1104" y="339.5">bigdata_complaintsAnalysis.jar</text></g></g><g transform="translate(-38,-6) scale(1,1)"><path fill="none" stroke="#000000" d="M 1151 319 L 1002 213" stroke-miterlimit="10" stroke-dasharray="3"/></g><g transform="translate(-38,-6) scale(1,1)"><path fill="none" stroke="#000000" d="M 1012.7211543814154 215.4610665837918 L 1002 213 L 1007.8407640948959 222.32123783559751" stroke-miterlimit="10"/></g><g transform="translate(-38,-6) scale(1,1)"><rect fill="#C0C0C0" stroke="none" x="1401" y="279" width="199" height="44" opacity="0.2"/></g><g transform="translate(-38,-6) scale(1,1)"><rect fill="#ffffff" stroke="none" x="1394" y="272" width="199" height="44"/></g><g transform="translate(-38,-6) scale(1,1)"><path fill="none" stroke="#000000" d="M 1394 272 L 1593 272 L 1593 316 L 1394 316 L 1394 272 Z Z" stroke-miterlimit="10"/></g><g transform="translate(-38,-6) scale(1,1)"><rect fill="#ffffff" stroke="none" x="1384" y="279" width="20" height="10"/></g><g transform="translate(-38,-6) scale(1,1)"><path fill="none" stroke="#000000" d="M 1384 279 L 1404 279 L 1404 289 L 1384 289 L 1384 279 Z Z" stroke-miterlimit="10"/></g><g transform="translate(-38,-6) scale(1,1)"><rect fill="#ffffff" stroke="none" x="1384" y="299" width="20" height="10"/></g><g transform="translate(-38,-6) scale(1,1)"><path fill="none" stroke="#000000" d="M 1384 299 L 1404 299 L 1404 309 L 1384 309 L 1384 299 Z Z" stroke-miterlimit="10"/></g><g transform="translate(-38,-6) scale(1,1)"><g><path fill="none" stroke="none"/><text fill="#000000" stroke="none" font-family="Arial" font-size="13px" font-style="normal" font-weight="normal" text-decoration="none" x="1484.5" y="289.5">«jar»</text></g></g><g transform="translate(-38,-6) scale(1,1)"><g><path fill="none" stroke="none"/><text fill="#000000" stroke="none" font-family="Arial" font-size="13px" font-style="normal" font-weight="bold" text-decoration="none" x="1414.5" y="304.5">mongo-spark-connector_2.11</text></g></g><g transform="translate(-38,-6) scale(1,1)"><path fill="none" stroke="#000000" d="M 1297 324 L 1383 311" stroke-miterlimit="10" stroke-dasharray="3"/></g><g transform="translate(-38,-6) scale(1,1)"><path fill="none" stroke="#000000" d="M 1373.5806566416975 316.6811944781361 L 1383 311 L 1372.3223072962903 308.3567295777495" stroke-miterlimit="10"/></g><g transform="translate(-38,-6) scale(1,1)"><rect fill="#C0C0C0" stroke="none" x="1489" y="399" width="102" height="44" opacity="0.2"/></g><g transform="translate(-38,-6) scale(1,1)"><rect fill="#ffffff" stroke="none" x="1482" y="392" width="102" height="44"/></g><g transform="translate(-38,-6) scale(1,1)"><path fill="none" stroke="#000000" d="M 1482 392 L 1584 392 L 1584 436 L 1482 436 L 1482 392 Z Z" stroke-miterlimit="10"/></g><g transform="translate(-38,-6) scale(1,1)"><rect fill="#ffffff" stroke="none" x="1472" y="399" width="20" height="10"/></g><g transform="translate(-38,-6) scale(1,1)"><path fill="none" stroke="#000000" d="M 1472 399 L 1492 399 L 1492 409 L 1472 409 L 1472 399 Z Z" stroke-miterlimit="10"/></g><g transform="translate(-38,-6) scale(1,1)"><rect fill="#ffffff" stroke="none" x="1472" y="419" width="20" height="10"/></g><g transform="translate(-38,-6) scale(1,1)"><path fill="none" stroke="#000000" d="M 1472 419 L 1492 419 L 1492 429 L 1472 429 L 1472 419 Z Z" stroke-miterlimit="10"/></g><g transform="translate(-38,-6) scale(1,1)"><g><path fill="none" stroke="none"/><text fill="#000000" stroke="none" font-family="Arial" font-size="13px" font-style="normal" font-weight="normal" text-decoration="none" x="1499" y="409.5">«component»</text></g></g><g transform="translate(-38,-6) scale(1,1)"><g><path fill="none" stroke="none"/><text fill="#000000" stroke="none" font-family="Arial" font-size="13px" font-style="normal" font-weight="bold" text-decoration="none" x="1498.5" y="424.5">MongoDB 3.6</text></g></g><g transform="translate(-38,-6) scale(1,1)"><path fill="#C0C0C0" stroke="none" d="M 1502 354.5 C 1502 348.1487248 1507.1487248 343 1513.5 343 C 1519.8512752 343 1525 348.1487248 1525 354.5 C 1525 360.8512752 1519.8512752 366 1513.5 366 C 1507.1487248 366 1502 360.8512752 1502 354.5 Z" opacity="0.2"/></g><g transform="translate(-38,-6) scale(1,1)"><path fill="none" stroke="#000000" d="M 1496.0665426396681 352.79451679352707 A 11.5 11.5 0 0 1 1515.9334573603319 341.20548320647293" stroke-miterlimit="10"/></g><g transform="translate(-38,-6) scale(1,1)"><path fill="#ffffff" stroke="none" d="M 1498 347.5 C 1498 342.8055792 1501.8055792 339 1506.5 339 C 1511.1944208 339 1515 342.8055792 1515 347.5 C 1515 352.1944208 1511.1944208 356 1506.5 356 C 1501.8055792 356 1498 352.1944208 1498 347.5 Z"/></g><g transform="translate(-38,-6) scale(1,1)"><path fill="none" stroke="#000000" d="M 1498 347.5 C 1498 342.8055792 1501.8055792 339 1506.5 339 C 1511.1944208 339 1515 342.8055792 1515 347.5 C 1515 352.1944208 1511.1944208 356 1506.5 356 C 1501.8055792 356 1498 352.1944208 1498 347.5 Z" stroke-miterlimit="10"/></g><g transform="translate(-38,-6) scale(1,1)"><g><path fill="none" stroke="none"/><text fill="#000000" stroke="none" font-family="Arial" font-size="13px" font-style="normal" font-weight="bold" text-decoration="none" x="1504.5" y="378.5"> </text></g></g><g transform="translate(-38,-6) scale(1,1)"><path fill="none" stroke="#000000" d="M 1494 317 L 1499.5833333333333 336" stroke-miterlimit="10"/></g><g transform="translate(-38,-6) scale(1,1)"><g><path fill="none" stroke="none"/><text fill="#000000" stroke="none" font-family="Arial" font-size="13px" font-style="normal" font-weight="normal" text-decoration="none" x="1506.5" y="332.5">+MongoSpark</text></g></g><g transform="translate(-38,-6) scale(1,1)"><path fill="none" stroke="#000000" d="M 1519 391 L 1509.157894736842 359" stroke-miterlimit="10"/></g><g transform="translate(-38,-6) scale(1,1)"><g><path fill="none" stroke="none"/><text fill="#000000" stroke="none" font-family="Arial" font-size="13px" font-style="normal" font-weight="normal" text-decoration="none" x="1529.5" y="388.5">+27017</text></g></g></g></svg>