<svg version="1.1" xmlns="http://www.w3.org/2000/svg" xmlns:xlink="http://www.w3.org/1999/xlink" width="668" height="373"><defs/><g><g transform="translate(-30,-158) scale(1,1)"><path fill="#C0C0C0" stroke="none" d="M 47 185 L 332 185 L 332 446 L 47 446" opacity="0.2"/></g><g transform="translate(-30,-158) scale(1,1)"><path fill="#C0C0C0" stroke="none" d="M 47 185 L 57 175 L 342 175 L 332 185" opacity="0.2"/></g><g transform="translate(-30,-158) scale(1,1)"><path fill="#C0C0C0" stroke="none" d="M 342 175 L 332 185 L 332 446 L 342 436" opacity="0.2"/></g><g transform="translate(-30,-158) scale(1,1)"><path fill="#ffffff" stroke="none" d="M 40 178 L 325 178 L 325 439 L 40 439"/></g><g transform="translate(-30,-158) scale(1,1)"><path fill="#ffffff" stroke="none" d="M 40 178 L 50 168 L 335 168 L 325 178"/></g><g transform="translate(-30,-158) scale(1,1)"><path fill="#ffffff" stroke="none" d="M 335 168 L 325 178 L 325 439 L 335 429"/></g><g transform="translate(-30,-158) scale(1,1)"><path fill="none" stroke="#000000" d="M 40 178 L 325 178 L 325 439 L 40 439 L 40 178" stroke-miterlimit="10"/></g><g transform="translate(-30,-158) scale(1,1)"><path fill="none" stroke="#000000" d="M 40 178 L 50 168 L 335 168 L 325 178 L 40 178" stroke-miterlimit="10"/></g><g transform="translate(-30,-158) scale(1,1)"><path fill="none" stroke="#000000" d="M 335 168 L 325 178 L 325 439 L 335 429 L 335 168" stroke-miterlimit="10"/></g><g transform="translate(-30,-158) scale(1,1)"><g><path fill="none" stroke="none"/><text fill="#000000" stroke="none" font-family="Arial" font-size="13px" font-style="normal" font-weight="normal" text-decoration="none" x="139.5" y="195.5">«Linux Server»</text></g></g><g transform="translate(-30,-158) scale(1,1)"><g><path fill="none" stroke="none"/><text fill="#000000" stroke="none" font-family="Arial" font-size="13px" font-style="normal" font-weight="bold" text-decoration="none" x="153" y="210.5">DB Server</text></g></g><g transform="translate(-30,-158) scale(1,1)"><path fill="#C0C0C0" stroke="none" d="M 423 201 L 684 201 L 684 422 L 423 422" opacity="0.2"/></g><g transform="translate(-30,-158) scale(1,1)"><path fill="#C0C0C0" stroke="none" d="M 423 201 L 433 191 L 694 191 L 684 201" opacity="0.2"/></g><g transform="translate(-30,-158) scale(1,1)"><path fill="#C0C0C0" stroke="none" d="M 694 191 L 684 201 L 684 422 L 694 412" opacity="0.2"/></g><g transform="translate(-30,-158) scale(1,1)"><path fill="#ffffff" stroke="none" d="M 416 194 L 677 194 L 677 415 L 416 415"/></g><g transform="translate(-30,-158) scale(1,1)"><path fill="#ffffff" stroke="none" d="M 416 194 L 426 184 L 687 184 L 677 194"/></g><g transform="translate(-30,-158) scale(1,1)"><path fill="#ffffff" stroke="none" d="M 687 184 L 677 194 L 677 415 L 687 405"/></g><g transform="translate(-30,-158) scale(1,1)"><path fill="none" stroke="#000000" d="M 416 194 L 677 194 L 677 415 L 416 415 L 416 194" stroke-miterlimit="10"/></g><g transform="translate(-30,-158) scale(1,1)"><path fill="none" stroke="#000000" d="M 416 194 L 426 184 L 687 184 L 677 194 L 416 194" stroke-miterlimit="10"/></g><g transform="translate(-30,-158) scale(1,1)"><path fill="none" stroke="#000000" d="M 687 184 L 677 194 L 677 415 L 687 405 L 687 184" stroke-miterlimit="10"/></g><g transform="translate(-30,-158) scale(1,1)"><g><path fill="none" stroke="none"/><text fill="#000000" stroke="none" font-family="Arial" font-size="13px" font-style="normal" font-weight="normal" text-decoration="none" x="503.5" y="211.5">«Linux Server»</text></g></g><g transform="translate(-30,-158) scale(1,1)"><g><path fill="none" stroke="none"/><text fill="#000000" stroke="none" font-family="Arial" font-size="13px" font-style="normal" font-weight="bold" text-decoration="none" x="506.5" y="226.5">Talend Server</text></g></g><g transform="translate(-30,-158) scale(1,1)"><rect fill="#C0C0C0" stroke="none" x="73" y="239" width="146" height="44" opacity="0.2"/></g><g transform="translate(-30,-158) scale(1,1)"><rect fill="#ffffff" stroke="none" x="66" y="232" width="146" height="44"/></g><g transform="translate(-30,-158) scale(1,1)"><path fill="none" stroke="#000000" d="M 66 232 L 212 232 L 212 276 L 66 276 L 66 232 Z Z" stroke-miterlimit="10"/></g><g transform="translate(-30,-158) scale(1,1)"><rect fill="#ffffff" stroke="none" x="56" y="239" width="20" height="10"/></g><g transform="translate(-30,-158) scale(1,1)"><path fill="none" stroke="#000000" d="M 56 239 L 76 239 L 76 249 L 56 249 L 56 239 Z Z" stroke-miterlimit="10"/></g><g transform="translate(-30,-158) scale(1,1)"><rect fill="#ffffff" stroke="none" x="56" y="259" width="20" height="10"/></g><g transform="translate(-30,-158) scale(1,1)"><path fill="none" stroke="#000000" d="M 56 259 L 76 259 L 76 269 L 56 269 L 56 259 Z Z" stroke-miterlimit="10"/></g><g transform="translate(-30,-158) scale(1,1)"><g><path fill="none" stroke="none"/><text fill="#000000" stroke="none" font-family="Arial" font-size="13px" font-style="normal" font-weight="normal" text-decoration="none" x="104" y="249.5">«MySql5.6.7»</text></g></g><g transform="translate(-30,-158) scale(1,1)"><g><path fill="none" stroke="none"/><text fill="#000000" stroke="none" font-family="Arial" font-size="13px" font-style="normal" font-weight="bold" text-decoration="none" x="85.5" y="264.5">esibank_decisionnel</text></g></g><g transform="translate(-30,-158) scale(1,1)"><rect fill="#C0C0C0" stroke="none" x="129" y="311" width="150" height="44" opacity="0.2"/></g><g transform="translate(-30,-158) scale(1,1)"><rect fill="#ffffff" stroke="none" x="122" y="304" width="150" height="44"/></g><g transform="translate(-30,-158) scale(1,1)"><path fill="none" stroke="#000000" d="M 122 304 L 272 304 L 272 348 L 122 348 L 122 304 Z Z" stroke-miterlimit="10"/></g><g transform="translate(-30,-158) scale(1,1)"><rect fill="#ffffff" stroke="none" x="112" y="311" width="20" height="10"/></g><g transform="translate(-30,-158) scale(1,1)"><path fill="none" stroke="#000000" d="M 112 311 L 132 311 L 132 321 L 112 321 L 112 311 Z Z" stroke-miterlimit="10"/></g><g transform="translate(-30,-158) scale(1,1)"><rect fill="#ffffff" stroke="none" x="112" y="331" width="20" height="10"/></g><g transform="translate(-30,-158) scale(1,1)"><path fill="none" stroke="#000000" d="M 112 331 L 132 331 L 132 341 L 112 341 L 112 331 Z Z" stroke-miterlimit="10"/></g><g transform="translate(-30,-158) scale(1,1)"><g><path fill="none" stroke="none"/><text fill="#000000" stroke="none" font-family="Arial" font-size="13px" font-style="normal" font-weight="normal" text-decoration="none" x="162" y="321.5">«MySql5.6.7»</text></g></g><g transform="translate(-30,-158) scale(1,1)"><g><path fill="none" stroke="none"/><text fill="#000000" stroke="none" font-family="Arial" font-size="13px" font-style="normal" font-weight="bold" text-decoration="none" x="141.5" y="336.5">esibank_financial_db</text></g></g><g transform="translate(-30,-158) scale(1,1)"><rect fill="#C0C0C0" stroke="none" x="193" y="383" width="130" height="44" opacity="0.2"/></g><g transform="translate(-30,-158) scale(1,1)"><rect fill="#ffffff" stroke="none" x="186" y="376" width="130" height="44"/></g><g transform="translate(-30,-158) scale(1,1)"><path fill="none" stroke="#000000" d="M 186 376 L 316 376 L 316 420 L 186 420 L 186 376 Z Z" stroke-miterlimit="10"/></g><g transform="translate(-30,-158) scale(1,1)"><rect fill="#ffffff" stroke="none" x="176" y="383" width="20" height="10"/></g><g transform="translate(-30,-158) scale(1,1)"><path fill="none" stroke="#000000" d="M 176 383 L 196 383 L 196 393 L 176 393 L 176 383 Z Z" stroke-miterlimit="10"/></g><g transform="translate(-30,-158) scale(1,1)"><rect fill="#ffffff" stroke="none" x="176" y="403" width="20" height="10"/></g><g transform="translate(-30,-158) scale(1,1)"><path fill="none" stroke="#000000" d="M 176 403 L 196 403 L 196 413 L 176 413 L 176 403 Z Z" stroke-miterlimit="10"/></g><g transform="translate(-30,-158) scale(1,1)"><g><path fill="none" stroke="none"/><text fill="#000000" stroke="none" font-family="Arial" font-size="13px" font-style="normal" font-weight="normal" text-decoration="none" x="216" y="393.5">«MySql5.6.7»</text></g></g><g transform="translate(-30,-158) scale(1,1)"><g><path fill="none" stroke="none"/><text fill="#000000" stroke="none" font-family="Arial" font-size="13px" font-style="normal" font-weight="bold" text-decoration="none" x="205" y="408.5">esibank_proto_db</text></g></g><g transform="translate(-30,-158) scale(1,1)"><rect fill="#C0C0C0" stroke="none" x="465" y="295" width="185" height="44" opacity="0.2"/></g><g transform="translate(-30,-158) scale(1,1)"><rect fill="#ffffff" stroke="none" x="458" y="288" width="185" height="44"/></g><g transform="translate(-30,-158) scale(1,1)"><path fill="none" stroke="#000000" d="M 458 288 L 643 288 L 643 332 L 458 332 L 458 288 Z Z" stroke-miterlimit="10"/></g><g transform="translate(-30,-158) scale(1,1)"><rect fill="#ffffff" stroke="none" x="448" y="295" width="20" height="10"/></g><g transform="translate(-30,-158) scale(1,1)"><path fill="none" stroke="#000000" d="M 448 295 L 468 295 L 468 305 L 448 305 L 448 295 Z Z" stroke-miterlimit="10"/></g><g transform="translate(-30,-158) scale(1,1)"><rect fill="#ffffff" stroke="none" x="448" y="315" width="20" height="10"/></g><g transform="translate(-30,-158) scale(1,1)"><path fill="none" stroke="#000000" d="M 448 315 L 468 315 L 468 325 L 448 325 L 448 315 Z Z" stroke-miterlimit="10"/></g><g transform="translate(-30,-158) scale(1,1)"><g><path fill="none" stroke="none"/><text fill="#000000" stroke="none" font-family="Arial" font-size="13px" font-style="normal" font-weight="normal" text-decoration="none" x="541.5" y="305.5">«jar»</text></g></g><g transform="translate(-30,-158) scale(1,1)"><g><path fill="none" stroke="none"/><text fill="#000000" stroke="none" font-family="Arial" font-size="13px" font-style="normal" font-weight="bold" text-decoration="none" x="476" y="320.5">data_extract_transform_0.1</text></g></g><g transform="translate(-30,-158) scale(1,1)"><path fill="none" stroke="#000000" d="M 191 441 L 192 520 L 552 520 L 552 417" stroke-miterlimit="10"/></g><g transform="translate(-30,-158) scale(1,1)"><g><path fill="none" stroke="none"/><text fill="#000000" stroke="none" font-family="Arial" font-size="13px" font-style="normal" font-weight="normal" text-decoration="none" x="350.5" y="511.5">+JDBC</text></g></g><g transform="translate(-30,-158) scale(1,1)"><g><path fill="none" stroke="none"/><text fill="#000000" stroke="none" font-family="Arial" font-size="13px" font-style="normal" font-weight="normal" text-decoration="none" x="174.5" y="468.5">1</text></g></g><g transform="translate(-30,-158) scale(1,1)"><g><path fill="none" stroke="none"/><text fill="#000000" stroke="none" font-family="Arial" font-size="13px" font-style="normal" font-weight="normal" text-decoration="none" x="560.5" y="444.5">1</text></g></g><g transform="translate(-30,-158) scale(1,1)"><rect fill="#ffffff" stroke="none" x="184" y="432" width="16" height="16"/></g><g transform="translate(-30,-158) scale(1,1)"><path fill="none" stroke="#000000" d="M 184 432 L 200 432 L 200 448 L 184 448 L 184 432 Z Z" stroke-miterlimit="10"/></g><g transform="translate(-30,-158) scale(1,1)"><g><path fill="none" stroke="none"/><text fill="#000000" stroke="none" font-family="Arial" font-size="13px" font-style="normal" font-weight="normal" text-decoration="none" x="117" y="426">Port :3306</text></g></g></g></svg>