<svg version="1.1" xmlns="http://www.w3.org/2000/svg" xmlns:xlink="http://www.w3.org/1999/xlink" width="1916" height="2036"><defs/><g><g transform="translate(-94,-94) scale(1,1)"><path fill="#C0C0C0" stroke="none" d="M 743 129 L 1084 129 L 1084 294 L 743 294" opacity="0.2"/></g><g transform="translate(-94,-94) scale(1,1)"><path fill="#C0C0C0" stroke="none" d="M 743 129 L 753 119 L 1094 119 L 1084 129" opacity="0.2"/></g><g transform="translate(-94,-94) scale(1,1)"><path fill="#C0C0C0" stroke="none" d="M 1094 119 L 1084 129 L 1084 294 L 1094 284" opacity="0.2"/></g><g transform="translate(-94,-94) scale(1,1)"><path fill="#ffffff" stroke="none" d="M 736 122 L 1077 122 L 1077 287 L 736 287"/></g><g transform="translate(-94,-94) scale(1,1)"><path fill="#ffffff" stroke="none" d="M 736 122 L 746 112 L 1087 112 L 1077 122"/></g><g transform="translate(-94,-94) scale(1,1)"><path fill="#ffffff" stroke="none" d="M 1087 112 L 1077 122 L 1077 287 L 1087 277"/></g><g transform="translate(-94,-94) scale(1,1)"><path fill="none" stroke="#000000" d="M 736 122 L 1077 122 L 1077 287 L 736 287 L 736 122" stroke-miterlimit="10"/></g><g transform="translate(-94,-94) scale(1,1)"><path fill="none" stroke="#000000" d="M 736 122 L 746 112 L 1087 112 L 1077 122 L 736 122" stroke-miterlimit="10"/></g><g transform="translate(-94,-94) scale(1,1)"><path fill="none" stroke="#000000" d="M 1087 112 L 1077 122 L 1077 287 L 1087 277 L 1087 112" stroke-miterlimit="10"/></g><g transform="translate(-94,-94) scale(1,1)"><g><path fill="none" stroke="none"/><text fill="#000000" stroke="none" font-family="Arial" font-size="13px" font-style="normal" font-weight="normal" text-decoration="none" x="881" y="139.5">«deivce»</text></g></g><g transform="translate(-94,-94) scale(1,1)"><g><path fill="none" stroke="none"/><text fill="#000000" stroke="none" font-family="Arial" font-size="13px" font-style="normal" font-weight="bold" text-decoration="none" x="888" y="154.5">Mobile</text></g></g><g transform="translate(-94,-94) scale(1,1)"><path fill="#C0C0C0" stroke="none" d="M 951 1713 L 1156 1713 L 1156 1830 L 951 1830" opacity="0.2"/></g><g transform="translate(-94,-94) scale(1,1)"><path fill="#C0C0C0" stroke="none" d="M 951 1713 L 961 1703 L 1166 1703 L 1156 1713" opacity="0.2"/></g><g transform="translate(-94,-94) scale(1,1)"><path fill="#C0C0C0" stroke="none" d="M 1166 1703 L 1156 1713 L 1156 1830 L 1166 1820" opacity="0.2"/></g><g transform="translate(-94,-94) scale(1,1)"><path fill="#ffffff" stroke="none" d="M 944 1706 L 1149 1706 L 1149 1823 L 944 1823"/></g><g transform="translate(-94,-94) scale(1,1)"><path fill="#ffffff" stroke="none" d="M 944 1706 L 954 1696 L 1159 1696 L 1149 1706"/></g><g transform="translate(-94,-94) scale(1,1)"><path fill="#ffffff" stroke="none" d="M 1159 1696 L 1149 1706 L 1149 1823 L 1159 1813"/></g><g transform="translate(-94,-94) scale(1,1)"><path fill="none" stroke="#000000" d="M 944 1706 L 1149 1706 L 1149 1823 L 944 1823 L 944 1706" stroke-miterlimit="10"/></g><g transform="translate(-94,-94) scale(1,1)"><path fill="none" stroke="#000000" d="M 944 1706 L 954 1696 L 1159 1696 L 1149 1706 L 944 1706" stroke-miterlimit="10"/></g><g transform="translate(-94,-94) scale(1,1)"><path fill="none" stroke="#000000" d="M 1159 1696 L 1149 1706 L 1149 1823 L 1159 1813 L 1159 1696" stroke-miterlimit="10"/></g><g transform="translate(-94,-94) scale(1,1)"><g><path fill="none" stroke="none"/><text fill="#000000" stroke="none" font-family="Arial" font-size="13px" font-style="normal" font-weight="normal" text-decoration="none" x="1021" y="1723.5">«device»</text></g></g><g transform="translate(-94,-94) scale(1,1)"><g><path fill="none" stroke="none"/><text fill="#000000" stroke="none" font-family="Arial" font-size="13px" font-style="normal" font-weight="bold" text-decoration="none" x="1017" y="1738.5">DB Server</text></g></g><g transform="translate(-94,-94) scale(1,1)"><path fill="#C0C0C0" stroke="none" d="M 135 457 L 476 457 L 476 661 L 135 661" opacity="0.2"/></g><g transform="translate(-94,-94) scale(1,1)"><path fill="#C0C0C0" stroke="none" d="M 135 457 L 145 447 L 486 447 L 476 457" opacity="0.2"/></g><g transform="translate(-94,-94) scale(1,1)"><path fill="#C0C0C0" stroke="none" d="M 486 447 L 476 457 L 476 661 L 486 651" opacity="0.2"/></g><g transform="translate(-94,-94) scale(1,1)"><path fill="#ffffff" stroke="none" d="M 128 450 L 469 450 L 469 654 L 128 654"/></g><g transform="translate(-94,-94) scale(1,1)"><path fill="#ffffff" stroke="none" d="M 128 450 L 138 440 L 479 440 L 469 450"/></g><g transform="translate(-94,-94) scale(1,1)"><path fill="#ffffff" stroke="none" d="M 479 440 L 469 450 L 469 654 L 479 644"/></g><g transform="translate(-94,-94) scale(1,1)"><path fill="none" stroke="#000000" d="M 128 450 L 469 450 L 469 654 L 128 654 L 128 450" stroke-miterlimit="10"/></g><g transform="translate(-94,-94) scale(1,1)"><path fill="none" stroke="#000000" d="M 128 450 L 138 440 L 479 440 L 469 450 L 128 450" stroke-miterlimit="10"/></g><g transform="translate(-94,-94) scale(1,1)"><path fill="none" stroke="#000000" d="M 479 440 L 469 450 L 469 654 L 479 644 L 479 440" stroke-miterlimit="10"/></g><g transform="translate(-94,-94) scale(1,1)"><g><path fill="none" stroke="none"/><text fill="#000000" stroke="none" font-family="Arial" font-size="13px" font-style="normal" font-weight="normal" text-decoration="none" x="273" y="467.5">«device»</text></g></g><g transform="translate(-94,-94) scale(1,1)"><g><path fill="none" stroke="none"/><text fill="#000000" stroke="none" font-family="Arial" font-size="13px" font-style="normal" font-weight="bold" text-decoration="none" x="235" y="482.5">Apache tomcat server</text></g></g><g transform="translate(-94,-94) scale(1,1)"><path fill="#C0C0C0" stroke="none" d="M 519 865 L 836 865 L 836 1070 L 519 1070" opacity="0.2"/></g><g transform="translate(-94,-94) scale(1,1)"><path fill="#C0C0C0" stroke="none" d="M 519 865 L 529 855 L 846 855 L 836 865" opacity="0.2"/></g><g transform="translate(-94,-94) scale(1,1)"><path fill="#C0C0C0" stroke="none" d="M 846 855 L 836 865 L 836 1070 L 846 1060" opacity="0.2"/></g><g transform="translate(-94,-94) scale(1,1)"><path fill="#ffffff" stroke="none" d="M 512 858 L 829 858 L 829 1063 L 512 1063"/></g><g transform="translate(-94,-94) scale(1,1)"><path fill="#ffffff" stroke="none" d="M 512 858 L 522 848 L 839 848 L 829 858"/></g><g transform="translate(-94,-94) scale(1,1)"><path fill="#ffffff" stroke="none" d="M 839 848 L 829 858 L 829 1063 L 839 1053"/></g><g transform="translate(-94,-94) scale(1,1)"><path fill="none" stroke="#000000" d="M 512 858 L 829 858 L 829 1063 L 512 1063 L 512 858" stroke-miterlimit="10"/></g><g transform="translate(-94,-94) scale(1,1)"><path fill="none" stroke="#000000" d="M 512 858 L 522 848 L 839 848 L 829 858 L 512 858" stroke-miterlimit="10"/></g><g transform="translate(-94,-94) scale(1,1)"><path fill="none" stroke="#000000" d="M 839 848 L 829 858 L 829 1063 L 839 1053 L 839 848" stroke-miterlimit="10"/></g><g transform="translate(-94,-94) scale(1,1)"><g><path fill="none" stroke="none"/><text fill="#000000" stroke="none" font-family="Arial" font-size="13px" font-style="normal" font-weight="normal" text-decoration="none" x="645" y="875.5">«device»</text></g></g><g transform="translate(-94,-94) scale(1,1)"><g><path fill="none" stroke="none"/><text fill="#000000" stroke="none" font-family="Arial" font-size="13px" font-style="normal" font-weight="bold" text-decoration="none" x="607" y="890.5">Apache tomcat server</text></g></g><g transform="translate(-94,-94) scale(1,1)"><path fill="#C0C0C0" stroke="none" d="M 159 529 L 428 529 L 428 638 L 159 638" opacity="0.2"/></g><g transform="translate(-94,-94) scale(1,1)"><path fill="#C0C0C0" stroke="none" d="M 159 529 L 169 519 L 438 519 L 428 529" opacity="0.2"/></g><g transform="translate(-94,-94) scale(1,1)"><path fill="#C0C0C0" stroke="none" d="M 438 519 L 428 529 L 428 638 L 438 628" opacity="0.2"/></g><g transform="translate(-94,-94) scale(1,1)"><path fill="#ffffff" stroke="none" d="M 152 522 L 421 522 L 421 631 L 152 631"/></g><g transform="translate(-94,-94) scale(1,1)"><path fill="#ffffff" stroke="none" d="M 152 522 L 162 512 L 431 512 L 421 522"/></g><g transform="translate(-94,-94) scale(1,1)"><path fill="#ffffff" stroke="none" d="M 431 512 L 421 522 L 421 631 L 431 621"/></g><g transform="translate(-94,-94) scale(1,1)"><path fill="none" stroke="#000000" d="M 152 522 L 421 522 L 421 631 L 152 631 L 152 522" stroke-miterlimit="10"/></g><g transform="translate(-94,-94) scale(1,1)"><path fill="none" stroke="#000000" d="M 152 522 L 162 512 L 431 512 L 421 522 L 152 522" stroke-miterlimit="10"/></g><g transform="translate(-94,-94) scale(1,1)"><path fill="none" stroke="#000000" d="M 431 512 L 421 522 L 421 631 L 431 621 L 431 512" stroke-miterlimit="10"/></g><g transform="translate(-94,-94) scale(1,1)"><g><path fill="none" stroke="none"/><text fill="#000000" stroke="none" font-family="Arial" font-size="13px" font-style="normal" font-weight="normal" text-decoration="none" x="266.5" y="539.5">«JVM»</text></g></g><g transform="translate(-94,-94) scale(1,1)"><g><path fill="none" stroke="none"/><text fill="#000000" stroke="none" font-family="Arial" font-size="13px" font-style="normal" font-weight="bold" text-decoration="none" x="222.5" y="554.5">executionEnvironment</text></g></g><g transform="translate(-94,-94) scale(1,1)"><path fill="#C0C0C0" stroke="none" d="M 543 937 L 796 937 L 796 1046 L 543 1046" opacity="0.2"/></g><g transform="translate(-94,-94) scale(1,1)"><path fill="#C0C0C0" stroke="none" d="M 543 937 L 553 927 L 806 927 L 796 937" opacity="0.2"/></g><g transform="translate(-94,-94) scale(1,1)"><path fill="#C0C0C0" stroke="none" d="M 806 927 L 796 937 L 796 1046 L 806 1036" opacity="0.2"/></g><g transform="translate(-94,-94) scale(1,1)"><path fill="#ffffff" stroke="none" d="M 536 930 L 789 930 L 789 1039 L 536 1039"/></g><g transform="translate(-94,-94) scale(1,1)"><path fill="#ffffff" stroke="none" d="M 536 930 L 546 920 L 799 920 L 789 930"/></g><g transform="translate(-94,-94) scale(1,1)"><path fill="#ffffff" stroke="none" d="M 799 920 L 789 930 L 789 1039 L 799 1029"/></g><g transform="translate(-94,-94) scale(1,1)"><path fill="none" stroke="#000000" d="M 536 930 L 789 930 L 789 1039 L 536 1039 L 536 930" stroke-miterlimit="10"/></g><g transform="translate(-94,-94) scale(1,1)"><path fill="none" stroke="#000000" d="M 536 930 L 546 920 L 799 920 L 789 930 L 536 930" stroke-miterlimit="10"/></g><g transform="translate(-94,-94) scale(1,1)"><path fill="none" stroke="#000000" d="M 799 920 L 789 930 L 789 1039 L 799 1029 L 799 920" stroke-miterlimit="10"/></g><g transform="translate(-94,-94) scale(1,1)"><g><path fill="none" stroke="none"/><text fill="#000000" stroke="none" font-family="Arial" font-size="13px" font-style="normal" font-weight="normal" text-decoration="none" x="591.5" y="947.5">«executionEnvironment»</text></g></g><g transform="translate(-94,-94) scale(1,1)"><g><path fill="none" stroke="none"/><text fill="#000000" stroke="none" font-family="Arial" font-size="13px" font-style="normal" font-weight="bold" text-decoration="none" x="649.5" y="962.5">JVM</text></g></g><g transform="translate(-94,-94) scale(1,1)"><rect fill="#C0C0C0" stroke="none" x="999" y="1759" width="107.22998046875" height="26" opacity="0.2"/></g><g transform="translate(-94,-94) scale(1,1)"><rect fill="#ffffff" stroke="none" x="992" y="1752" width="107.22998046875" height="26"/></g><g transform="translate(-94,-94) scale(1,1)"><path fill="none" stroke="#000000" d="M 992 1752 L 1099.22998046875 1752 L 1099.22998046875 1778 L 992 1778 L 992 1752 Z Z" stroke-miterlimit="10"/></g><g transform="translate(-94,-94) scale(1,1)"><g><path fill="none" stroke="none"/><text fill="#000000" stroke="none" font-family="Arial" font-size="13px" font-style="normal" font-weight="bold" text-decoration="none" x="1017.114990234375" y="1771.5">Mysql DB</text></g></g><g transform="translate(-94,-94) scale(1,1)"><rect fill="#C0C0C0" stroke="none" x="551" y="975" width="243.8779296875" height="40" opacity="0.2"/></g><g transform="translate(-94,-94) scale(1,1)"><rect fill="#ffffff" stroke="none" x="544" y="968" width="243.8779296875" height="40"/></g><g transform="translate(-94,-94) scale(1,1)"><path fill="none" stroke="#000000" d="M 544 968 L 787.8779296875 968 L 787.8779296875 1008 L 544 1008 L 544 968 Z Z" stroke-miterlimit="10"/></g><g transform="translate(-94,-94) scale(1,1)"><path fill="#ffffff" stroke="none" d="M 761.2779296875 973 L 774.7179296875 973 L 780.4779296875 978.76 L 780.4779296875 997 L 761.2779296875 997"/></g><g transform="translate(-94,-94) scale(1,1)"><path fill="none" stroke="#000000" d="M 761.2779296875 973 L 774.7179296875 973 L 780.4779296875 978.76 L 780.4779296875 997 L 761.2779296875 997 L 761.2779296875 973" stroke-miterlimit="10"/></g><g transform="translate(-94,-94) scale(1,1)"><path fill="none" stroke="#000000" d="M 774.7179296875 973 L 774.7179296875 978.76 L 780.4779296875 978.76 L 774.7179296875 973" stroke-miterlimit="10"/></g><g transform="translate(-94,-94) scale(1,1)"><g><path fill="none" stroke="none"/><text fill="#000000" stroke="none" font-family="Arial" font-size="13px" font-style="normal" font-weight="normal" text-decoration="none" x="626.93896484375" y="985.5">«artifact»</text></g></g><g transform="translate(-94,-94) scale(1,1)"><g><path fill="none" stroke="none"/><text fill="#000000" stroke="none" font-family="Arial" font-size="13px" font-style="normal" font-weight="bold" text-decoration="none" x="556.43896484375" y="1000.5">rest.server.0.0.1.SNAPSHOT.war</text></g></g><g transform="translate(-94,-94) scale(1,1)"><rect fill="#C0C0C0" stroke="none" x="167" y="567" width="261.1943359375" height="37" opacity="0.2"/></g><g transform="translate(-94,-94) scale(1,1)"><rect fill="#ffffff" stroke="none" x="160" y="560" width="261.1943359375" height="37"/></g><g transform="translate(-94,-94) scale(1,1)"><path fill="none" stroke="#000000" d="M 160 560 L 421.1943359375 560 L 421.1943359375 597 L 160 597 L 160 560 Z Z" stroke-miterlimit="10"/></g><g transform="translate(-94,-94) scale(1,1)"><path fill="#ffffff" stroke="none" d="M 394.5943359375 565 L 408.0343359375 565 L 413.79433593749997 570.76 L 413.79433593749997 589 L 394.5943359375 589"/></g><g transform="translate(-94,-94) scale(1,1)"><path fill="none" stroke="#000000" d="M 394.5943359375 565 L 408.0343359375 565 L 413.79433593749997 570.76 L 413.79433593749997 589 L 394.5943359375 589 L 394.5943359375 565" stroke-miterlimit="10"/></g><g transform="translate(-94,-94) scale(1,1)"><path fill="none" stroke="#000000" d="M 408.0343359375 565 L 408.0343359375 570.76 L 413.79433593749997 570.76 L 408.0343359375 565" stroke-miterlimit="10"/></g><g transform="translate(-94,-94) scale(1,1)"><g><path fill="none" stroke="none"/><text fill="#000000" stroke="none" font-family="Arial" font-size="13px" font-style="normal" font-weight="normal" text-decoration="none" x="251.59716796875" y="577.5">«artifact»</text></g></g><g transform="translate(-94,-94) scale(1,1)"><g><path fill="none" stroke="none"/><text fill="#000000" stroke="none" font-family="Arial" font-size="13px" font-style="normal" font-weight="bold" text-decoration="none" x="173.59716796875" y="592.5">web.app.server.1.0.SNAPSHOT.war</text></g></g><g transform="translate(-94,-94) scale(1,1)"><path fill="#C0C0C0" stroke="none" d="M 415 121 L 604 121 L 604 214 L 415 214" opacity="0.2"/></g><g transform="translate(-94,-94) scale(1,1)"><path fill="#C0C0C0" stroke="none" d="M 415 121 L 425 111 L 614 111 L 604 121" opacity="0.2"/></g><g transform="translate(-94,-94) scale(1,1)"><path fill="#C0C0C0" stroke="none" d="M 614 111 L 604 121 L 604 214 L 614 204" opacity="0.2"/></g><g transform="translate(-94,-94) scale(1,1)"><path fill="#ffffff" stroke="none" d="M 408 114 L 597 114 L 597 207 L 408 207"/></g><g transform="translate(-94,-94) scale(1,1)"><path fill="#ffffff" stroke="none" d="M 408 114 L 418 104 L 607 104 L 597 114"/></g><g transform="translate(-94,-94) scale(1,1)"><path fill="#ffffff" stroke="none" d="M 607 104 L 597 114 L 597 207 L 607 197"/></g><g transform="translate(-94,-94) scale(1,1)"><path fill="none" stroke="#000000" d="M 408 114 L 597 114 L 597 207 L 408 207 L 408 114" stroke-miterlimit="10"/></g><g transform="translate(-94,-94) scale(1,1)"><path fill="none" stroke="#000000" d="M 408 114 L 418 104 L 607 104 L 597 114 L 408 114" stroke-miterlimit="10"/></g><g transform="translate(-94,-94) scale(1,1)"><path fill="none" stroke="#000000" d="M 607 104 L 597 114 L 597 207 L 607 197 L 607 104" stroke-miterlimit="10"/></g><g transform="translate(-94,-94) scale(1,1)"><g><path fill="none" stroke="none"/><text fill="#000000" stroke="none" font-family="Arial" font-size="13px" font-style="normal" font-weight="normal" text-decoration="none" x="477" y="131.5">«device»</text></g></g><g transform="translate(-94,-94) scale(1,1)"><g><path fill="none" stroke="none"/><text fill="#000000" stroke="none" font-family="Arial" font-size="13px" font-style="normal" font-weight="bold" text-decoration="none" x="468" y="146.5">Desktop PC</text></g></g><g transform="translate(-94,-94) scale(1,1)"><path fill="#C0C0C0" stroke="none" d="M 785 185 L 1044 185 L 1044 278 L 785 278" opacity="0.2"/></g><g transform="translate(-94,-94) scale(1,1)"><path fill="#C0C0C0" stroke="none" d="M 785 185 L 795 175 L 1054 175 L 1044 185" opacity="0.2"/></g><g transform="translate(-94,-94) scale(1,1)"><path fill="#C0C0C0" stroke="none" d="M 1054 175 L 1044 185 L 1044 278 L 1054 268" opacity="0.2"/></g><g transform="translate(-94,-94) scale(1,1)"><path fill="#ffffff" stroke="none" d="M 778 178 L 1037 178 L 1037 271 L 778 271"/></g><g transform="translate(-94,-94) scale(1,1)"><path fill="#ffffff" stroke="none" d="M 778 178 L 788 168 L 1047 168 L 1037 178"/></g><g transform="translate(-94,-94) scale(1,1)"><path fill="#ffffff" stroke="none" d="M 1047 168 L 1037 178 L 1037 271 L 1047 261"/></g><g transform="translate(-94,-94) scale(1,1)"><path fill="none" stroke="#000000" d="M 778 178 L 1037 178 L 1037 271 L 778 271 L 778 178" stroke-miterlimit="10"/></g><g transform="translate(-94,-94) scale(1,1)"><path fill="none" stroke="#000000" d="M 778 178 L 788 168 L 1047 168 L 1037 178 L 778 178" stroke-miterlimit="10"/></g><g transform="translate(-94,-94) scale(1,1)"><path fill="none" stroke="#000000" d="M 1047 168 L 1037 178 L 1037 271 L 1047 261 L 1047 168" stroke-miterlimit="10"/></g><g transform="translate(-94,-94) scale(1,1)"><g><path fill="none" stroke="none"/><text fill="#000000" stroke="none" font-family="Arial" font-size="13px" font-style="normal" font-weight="normal" text-decoration="none" x="836.5" y="195.5">«executionEnvironment»</text></g></g><g transform="translate(-94,-94) scale(1,1)"><g><path fill="none" stroke="none"/><text fill="#000000" stroke="none" font-family="Arial" font-size="13px" font-style="normal" font-weight="bold" text-decoration="none" x="886" y="210.5">Android</text></g></g><g transform="translate(-94,-94) scale(1,1)"><rect fill="#C0C0C0" stroke="none" x="815" y="231" width="207.70263671875" height="37" opacity="0.2"/></g><g transform="translate(-94,-94) scale(1,1)"><rect fill="#ffffff" stroke="none" x="808" y="224" width="207.70263671875" height="37"/></g><g transform="translate(-94,-94) scale(1,1)"><path fill="none" stroke="#000000" d="M 808 224 L 1015.70263671875 224 L 1015.70263671875 261 L 808 261 L 808 224 Z Z" stroke-miterlimit="10"/></g><g transform="translate(-94,-94) scale(1,1)"><path fill="#ffffff" stroke="none" d="M 989.10263671875 229 L 1002.54263671875 229 L 1008.30263671875 234.76000000000002 L 1008.30263671875 253 L 989.10263671875 253"/></g><g transform="translate(-94,-94) scale(1,1)"><path fill="none" stroke="#000000" d="M 989.10263671875 229 L 1002.54263671875 229 L 1008.30263671875 234.76000000000002 L 1008.30263671875 253 L 989.10263671875 253 L 989.10263671875 229" stroke-miterlimit="10"/></g><g transform="translate(-94,-94) scale(1,1)"><path fill="none" stroke="#000000" d="M 1002.54263671875 229 L 1002.54263671875 234.76000000000002 L 1008.30263671875 234.76000000000002 L 1002.54263671875 229" stroke-miterlimit="10"/></g><g transform="translate(-94,-94) scale(1,1)"><g><path fill="none" stroke="none"/><text fill="#000000" stroke="none" font-family="Arial" font-size="13px" font-style="normal" font-weight="normal" text-decoration="none" x="872.851318359375" y="241.5">«artifact»</text></g></g><g transform="translate(-94,-94) scale(1,1)"><g><path fill="none" stroke="none"/><text fill="#000000" stroke="none" font-family="Arial" font-size="13px" font-style="normal" font-weight="bold" text-decoration="none" x="831.351318359375" y="256.5">app.mobile.esibank.apk</text></g></g><g transform="translate(-94,-94) scale(1,1)"><path fill="#C0C0C0" stroke="none" d="M 679 1313 L 948 1313 L 948 1470 L 679 1470" opacity="0.2"/></g><g transform="translate(-94,-94) scale(1,1)"><path fill="#C0C0C0" stroke="none" d="M 679 1313 L 689 1303 L 958 1303 L 948 1313" opacity="0.2"/></g><g transform="translate(-94,-94) scale(1,1)"><path fill="#C0C0C0" stroke="none" d="M 958 1303 L 948 1313 L 948 1470 L 958 1460" opacity="0.2"/></g><g transform="translate(-94,-94) scale(1,1)"><path fill="#ffffff" stroke="none" d="M 672 1306 L 941 1306 L 941 1463 L 672 1463"/></g><g transform="translate(-94,-94) scale(1,1)"><path fill="#ffffff" stroke="none" d="M 672 1306 L 682 1296 L 951 1296 L 941 1306"/></g><g transform="translate(-94,-94) scale(1,1)"><path fill="#ffffff" stroke="none" d="M 951 1296 L 941 1306 L 941 1463 L 951 1453"/></g><g transform="translate(-94,-94) scale(1,1)"><path fill="none" stroke="#000000" d="M 672 1306 L 941 1306 L 941 1463 L 672 1463 L 672 1306" stroke-miterlimit="10"/></g><g transform="translate(-94,-94) scale(1,1)"><path fill="none" stroke="#000000" d="M 672 1306 L 682 1296 L 951 1296 L 941 1306 L 672 1306" stroke-miterlimit="10"/></g><g transform="translate(-94,-94) scale(1,1)"><path fill="none" stroke="#000000" d="M 951 1296 L 941 1306 L 941 1463 L 951 1453 L 951 1296" stroke-miterlimit="10"/></g><g transform="translate(-94,-94) scale(1,1)"><g><path fill="none" stroke="none"/><text fill="#000000" stroke="none" font-family="Arial" font-size="13px" font-style="normal" font-weight="bold" text-decoration="none" x="743" y="1325.5">Apache tomcat server</text></g></g><g transform="translate(-94,-94) scale(1,1)"><path fill="#C0C0C0" stroke="none" d="M 734.7099609375 602.5 C 734.7099609375 596.1487248 739.8586857375 591 746.2099609375 591 C 752.5612361375 591 757.7099609375 596.1487248 757.7099609375 602.5 C 757.7099609375 608.8512752 752.5612361375 614 746.2099609375 614 C 739.8586857375 614 734.7099609375 608.8512752 734.7099609375 602.5 Z" opacity="0.2"/></g><g transform="translate(-94,-94) scale(1,1)"><path fill="none" stroke="#000000" d="M 739 606.5 A 11.5 11.5 0 0 1 739 583.5" stroke-miterlimit="10"/></g><g transform="translate(-94,-94) scale(1,1)"><path fill="#ffffff" stroke="none" d="M 730.7099609375 595.5 C 730.7099609375 590.8055792 734.5155401375 587 739.2099609375 587 C 743.9043817375 587 747.7099609375 590.8055792 747.7099609375 595.5 C 747.7099609375 600.1944208 743.9043817375 604 739.2099609375 604 C 734.5155401375 604 730.7099609375 600.1944208 730.7099609375 595.5 Z"/></g><g transform="translate(-94,-94) scale(1,1)"><path fill="none" stroke="#000000" d="M 730.7099609375 595.5 C 730.7099609375 590.8055792 734.5155401375 587 739.2099609375 587 C 743.9043817375 587 747.7099609375 590.8055792 747.7099609375 595.5 C 747.7099609375 600.1944208 743.9043817375 604 739.2099609375 604 C 734.5155401375 604 730.7099609375 600.1944208 730.7099609375 595.5 Z" stroke-miterlimit="10"/></g><g transform="translate(-94,-94) scale(1,1)"><g><path fill="none" stroke="none"/><text fill="#000000" stroke="none" font-family="Arial" font-size="13px" font-style="normal" font-weight="bold" text-decoration="none" x="721.7099609375" y="626.5">REST</text></g></g><g transform="translate(-94,-94) scale(1,1)"><path fill="none" stroke="#000000" d="M 739 848 L 739 607" stroke-miterlimit="10"/></g><g transform="translate(-94,-94) scale(1,1)"><g><path fill="none" stroke="none"/><text fill="#000000" stroke="none" font-family="Arial" font-size="13px" font-style="normal" font-weight="normal" text-decoration="none" x="702.63134765625" y="732.5">+HTTP</text></g></g><g transform="translate(-94,-94) scale(1,1)"><path fill="none" stroke="#000000" d="M 480 595 L 727.7099609375 595" stroke-miterlimit="10"/></g><g transform="translate(-94,-94) scale(1,1)"><path fill="#C0C0C0" stroke="none" d="M 358.7099609375 346.5 C 358.7099609375 340.1487248 363.8586857375 335 370.2099609375 335 C 376.5612361375 335 381.7099609375 340.1487248 381.7099609375 346.5 C 381.7099609375 352.8512752 376.5612361375 358 370.2099609375 358 C 363.8586857375 358 358.7099609375 352.8512752 358.7099609375 346.5 Z" opacity="0.2"/></g><g transform="translate(-94,-94) scale(1,1)"><path fill="none" stroke="#000000" d="M 363 327.5 A 11.5 11.5 0 0 1 363 350.5" stroke-miterlimit="10"/></g><g transform="translate(-94,-94) scale(1,1)"><path fill="#ffffff" stroke="none" d="M 354.7099609375 339.5 C 354.7099609375 334.8055792 358.5155401375 331 363.2099609375 331 C 367.9043817375 331 371.7099609375 334.8055792 371.7099609375 339.5 C 371.7099609375 344.1944208 367.9043817375 348 363.2099609375 348 C 358.5155401375 348 354.7099609375 344.1944208 354.7099609375 339.5 Z"/></g><g transform="translate(-94,-94) scale(1,1)"><path fill="none" stroke="#000000" d="M 354.7099609375 339.5 C 354.7099609375 334.8055792 358.5155401375 331 363.2099609375 331 C 367.9043817375 331 371.7099609375 334.8055792 371.7099609375 339.5 C 371.7099609375 344.1944208 367.9043817375 348 363.2099609375 348 C 358.5155401375 348 354.7099609375 344.1944208 354.7099609375 339.5 Z" stroke-miterlimit="10"/></g><g transform="translate(-94,-94) scale(1,1)"><g><path fill="none" stroke="none"/><text fill="#000000" stroke="none" font-family="Arial" font-size="13px" font-style="normal" font-weight="bold" text-decoration="none" x="345.7099609375" y="370.5">REST</text></g></g><g transform="translate(-94,-94) scale(1,1)"><path fill="none" stroke="#000000" d="M 363 440 L 363 351" stroke-miterlimit="10"/></g><g transform="translate(-94,-94) scale(1,1)"><g><path fill="none" stroke="none"/><text fill="#000000" stroke="none" font-family="Arial" font-size="13px" font-style="normal" font-weight="normal" text-decoration="none" x="326.5" y="400.5">+HTTP</text></g></g><g transform="translate(-94,-94) scale(1,1)"><path fill="none" stroke="#000000" d="M 469 208 L 469 339 L 374.7099609375 339" stroke-miterlimit="10"/></g><g transform="translate(-94,-94) scale(1,1)"><path fill="#C0C0C0" stroke="none" d="M 865.963134765625 1746.5 C 865.963134765625 1740.1487248 871.111859565625 1735 877.463134765625 1735 C 883.814409965625 1735 888.963134765625 1740.1487248 888.963134765625 1746.5 C 888.963134765625 1752.8512752 883.814409965625 1758 877.463134765625 1758 C 871.111859565625 1758 865.963134765625 1752.8512752 865.963134765625 1746.5 Z" opacity="0.2"/></g><g transform="translate(-94,-94) scale(1,1)"><path fill="none" stroke="#000000" d="M 870 1750.5 A 11.5 11.5 0 0 1 870 1727.5" stroke-miterlimit="10"/></g><g transform="translate(-94,-94) scale(1,1)"><path fill="#ffffff" stroke="none" d="M 861.963134765625 1739.5 C 861.963134765625 1734.8055792 865.768713965625 1731 870.463134765625 1731 C 875.157555565625 1731 878.963134765625 1734.8055792 878.963134765625 1739.5 C 878.963134765625 1744.1944208 875.157555565625 1748 870.463134765625 1748 C 865.768713965625 1748 861.963134765625 1744.1944208 861.963134765625 1739.5 Z"/></g><g transform="translate(-94,-94) scale(1,1)"><path fill="none" stroke="#000000" d="M 861.963134765625 1739.5 C 861.963134765625 1734.8055792 865.768713965625 1731 870.463134765625 1731 C 875.157555565625 1731 878.963134765625 1734.8055792 878.963134765625 1739.5 C 878.963134765625 1744.1944208 875.157555565625 1748 870.463134765625 1748 C 865.768713965625 1748 861.963134765625 1744.1944208 861.963134765625 1739.5 Z" stroke-miterlimit="10"/></g><g transform="translate(-94,-94) scale(1,1)"><g><path fill="none" stroke="none"/><text fill="#000000" stroke="none" font-family="Arial" font-size="13px" font-style="normal" font-weight="bold" text-decoration="none" x="837.463134765625" y="1770.5">DB Access</text></g></g><g transform="translate(-94,-94) scale(1,1)"><path fill="none" stroke="#000000" d="M 944 1739 L 881.963134765625 1739" stroke-miterlimit="10"/></g><g transform="translate(-94,-94) scale(1,1)"><path fill="#C0C0C0" stroke="none" d="M 1191 441 L 1532 441 L 1532 598 L 1191 598" opacity="0.2"/></g><g transform="translate(-94,-94) scale(1,1)"><path fill="#C0C0C0" stroke="none" d="M 1191 441 L 1201 431 L 1542 431 L 1532 441" opacity="0.2"/></g><g transform="translate(-94,-94) scale(1,1)"><path fill="#C0C0C0" stroke="none" d="M 1542 431 L 1532 441 L 1532 598 L 1542 588" opacity="0.2"/></g><g transform="translate(-94,-94) scale(1,1)"><path fill="#ffffff" stroke="none" d="M 1184 434 L 1525 434 L 1525 591 L 1184 591"/></g><g transform="translate(-94,-94) scale(1,1)"><path fill="#ffffff" stroke="none" d="M 1184 434 L 1194 424 L 1535 424 L 1525 434"/></g><g transform="translate(-94,-94) scale(1,1)"><path fill="#ffffff" stroke="none" d="M 1535 424 L 1525 434 L 1525 591 L 1535 581"/></g><g transform="translate(-94,-94) scale(1,1)"><path fill="none" stroke="#000000" d="M 1184 434 L 1525 434 L 1525 591 L 1184 591 L 1184 434" stroke-miterlimit="10"/></g><g transform="translate(-94,-94) scale(1,1)"><path fill="none" stroke="#000000" d="M 1184 434 L 1194 424 L 1535 424 L 1525 434 L 1184 434" stroke-miterlimit="10"/></g><g transform="translate(-94,-94) scale(1,1)"><path fill="none" stroke="#000000" d="M 1535 424 L 1525 434 L 1525 591 L 1535 581 L 1535 424" stroke-miterlimit="10"/></g><g transform="translate(-94,-94) scale(1,1)"><g><path fill="none" stroke="none"/><text fill="#000000" stroke="none" font-family="Arial" font-size="13px" font-style="normal" font-weight="normal" text-decoration="none" x="1330" y="451.5">«server»</text></g></g><g transform="translate(-94,-94) scale(1,1)"><g><path fill="none" stroke="none"/><text fill="#000000" stroke="none" font-family="Arial" font-size="13px" font-style="normal" font-weight="bold" text-decoration="none" x="1267.5" y="466.5">push.esibank.inside.esiag.info</text></g></g><g transform="translate(-94,-94) scale(1,1)"><path fill="#C0C0C0" stroke="none" d="M 1207 489 L 1500 489 L 1500 574 L 1207 574" opacity="0.2"/></g><g transform="translate(-94,-94) scale(1,1)"><path fill="#C0C0C0" stroke="none" d="M 1207 489 L 1217 479 L 1510 479 L 1500 489" opacity="0.2"/></g><g transform="translate(-94,-94) scale(1,1)"><path fill="#C0C0C0" stroke="none" d="M 1510 479 L 1500 489 L 1500 574 L 1510 564" opacity="0.2"/></g><g transform="translate(-94,-94) scale(1,1)"><path fill="#ffffff" stroke="none" d="M 1200 482 L 1493 482 L 1493 567 L 1200 567"/></g><g transform="translate(-94,-94) scale(1,1)"><path fill="#ffffff" stroke="none" d="M 1200 482 L 1210 472 L 1503 472 L 1493 482"/></g><g transform="translate(-94,-94) scale(1,1)"><path fill="#ffffff" stroke="none" d="M 1503 472 L 1493 482 L 1493 567 L 1503 557"/></g><g transform="translate(-94,-94) scale(1,1)"><path fill="none" stroke="#000000" d="M 1200 482 L 1493 482 L 1493 567 L 1200 567 L 1200 482" stroke-miterlimit="10"/></g><g transform="translate(-94,-94) scale(1,1)"><path fill="none" stroke="#000000" d="M 1200 482 L 1210 472 L 1503 472 L 1493 482 L 1200 482" stroke-miterlimit="10"/></g><g transform="translate(-94,-94) scale(1,1)"><path fill="none" stroke="#000000" d="M 1503 472 L 1493 482 L 1493 567 L 1503 557 L 1503 472" stroke-miterlimit="10"/></g><g transform="translate(-94,-94) scale(1,1)"><g><path fill="none" stroke="none"/><text fill="#000000" stroke="none" font-family="Arial" font-size="13px" font-style="normal" font-weight="normal" text-decoration="none" x="1275.5" y="499.5">«executionEnvironment»</text></g></g><g transform="translate(-94,-94) scale(1,1)"><g><path fill="none" stroke="none"/><text fill="#000000" stroke="none" font-family="Arial" font-size="13px" font-style="normal" font-weight="bold" text-decoration="none" x="1333.5" y="514.5">JVM</text></g></g><g transform="translate(-94,-94) scale(1,1)"><rect fill="#C0C0C0" stroke="none" x="1215" y="527" width="282" height="37" opacity="0.2"/></g><g transform="translate(-94,-94) scale(1,1)"><rect fill="#ffffff" stroke="none" x="1208" y="520" width="282" height="37"/></g><g transform="translate(-94,-94) scale(1,1)"><path fill="none" stroke="#000000" d="M 1208 520 L 1490 520 L 1490 557 L 1208 557 L 1208 520 Z Z" stroke-miterlimit="10"/></g><g transform="translate(-94,-94) scale(1,1)"><path fill="#ffffff" stroke="none" d="M 1463.4 525 L 1476.8400000000001 525 L 1482.6000000000001 530.76 L 1482.6000000000001 549 L 1463.4 549"/></g><g transform="translate(-94,-94) scale(1,1)"><path fill="none" stroke="#000000" d="M 1463.4 525 L 1476.8400000000001 525 L 1482.6000000000001 530.76 L 1482.6000000000001 549 L 1463.4 549 L 1463.4 525" stroke-miterlimit="10"/></g><g transform="translate(-94,-94) scale(1,1)"><path fill="none" stroke="#000000" d="M 1476.8400000000001 525 L 1476.8400000000001 530.76 L 1482.6000000000001 530.76 L 1476.8400000000001 525" stroke-miterlimit="10"/></g><g transform="translate(-94,-94) scale(1,1)"><g><path fill="none" stroke="none"/><text fill="#000000" stroke="none" font-family="Arial" font-size="11px" font-style="normal" font-weight="normal" text-decoration="none" x="1314.5" y="535.5">«artifact»</text></g></g><g transform="translate(-94,-94) scale(1,1)"><g><path fill="none" stroke="none"/><text fill="#000000" stroke="none" font-family="Arial" font-size="11px" font-style="normal" font-weight="bold" text-decoration="none" x="1225" y="548.5">notification.push.server.0.0.1.SNAPSHOT.war</text></g></g><g transform="translate(-94,-94) scale(1,1)"><path fill="#C0C0C0" stroke="none" d="M 1078.7099609375 458.5 C 1078.7099609375 452.1487248 1083.8586857375 447 1090.2099609375 447 C 1096.5612361375 447 1101.7099609375 452.1487248 1101.7099609375 458.5 C 1101.7099609375 464.8512752 1096.5612361375 470 1090.2099609375 470 C 1083.8586857375 470 1078.7099609375 464.8512752 1078.7099609375 458.5 Z" opacity="0.2"/></g><g transform="translate(-94,-94) scale(1,1)"><path fill="none" stroke="#000000" d="M 1083 462.5 A 11.5 11.5 0 0 1 1083 439.5" stroke-miterlimit="10"/></g><g transform="translate(-94,-94) scale(1,1)"><path fill="#ffffff" stroke="none" d="M 1074.7099609375 451.5 C 1074.7099609375 446.8055792 1078.5155401375 443 1083.2099609375 443 C 1087.9043817375 443 1091.7099609375 446.8055792 1091.7099609375 451.5 C 1091.7099609375 456.1944208 1087.9043817375 460 1083.2099609375 460 C 1078.5155401375 460 1074.7099609375 456.1944208 1074.7099609375 451.5 Z"/></g><g transform="translate(-94,-94) scale(1,1)"><path fill="none" stroke="#000000" d="M 1074.7099609375 451.5 C 1074.7099609375 446.8055792 1078.5155401375 443 1083.2099609375 443 C 1087.9043817375 443 1091.7099609375 446.8055792 1091.7099609375 451.5 C 1091.7099609375 456.1944208 1087.9043817375 460 1083.2099609375 460 C 1078.5155401375 460 1074.7099609375 456.1944208 1074.7099609375 451.5 Z" stroke-miterlimit="10"/></g><g transform="translate(-94,-94) scale(1,1)"><g><path fill="none" stroke="none"/><text fill="#000000" stroke="none" font-family="Arial" font-size="13px" font-style="normal" font-weight="bold" text-decoration="none" x="1062.7099609375" y="482.5">Socket</text></g></g><g transform="translate(-94,-94) scale(1,1)"><path fill="none" stroke="#000000" d="M 1184 451 L 1094.7099609375 451" stroke-miterlimit="10"/></g><g transform="translate(-94,-94) scale(1,1)"><g><path fill="none" stroke="none"/><text fill="#000000" stroke="none" font-family="Arial" font-size="13px" font-style="normal" font-weight="normal" text-decoration="none" x="1134.755859375" y="471.5">+2702</text></g></g><g transform="translate(-94,-94) scale(1,1)"><path fill="none" stroke="#000000" d="M 970 288 L 970 451 L 1071.7099609375 451" stroke-miterlimit="10"/></g><g transform="translate(-94,-94) scale(1,1)"><g><path fill="none" stroke="none"/><text fill="#000000" stroke="none" font-family="Arial" font-size="13px" font-style="normal" font-weight="normal" text-decoration="none" x="966.5" y="420.5">+TCP</text></g></g><g transform="translate(-94,-94) scale(1,1)"><rect fill="#ffffff" stroke="none" x="937" y="1733" width="14" height="14"/></g><g transform="translate(-94,-94) scale(1,1)"><path fill="none" stroke="#000000" d="M 937 1733 L 951 1733 L 951 1747 L 937 1747 L 937 1733 Z Z" stroke-miterlimit="10"/></g><g transform="translate(-94,-94) scale(1,1)"><g><path fill="none" stroke="none"/><text fill="#000000" stroke="none" font-family="Arial" font-size="13px" font-style="normal" font-weight="normal" text-decoration="none" x="914.5" y="1731">3306</text></g></g><g transform="translate(-94,-94) scale(1,1)"><g><path fill="none" stroke="none"/><text fill="#000000" stroke="none" font-family="Arial" font-size="13px" font-style="normal" font-weight="normal" text-decoration="none" x="900.5" y="1721">«port»</text></g></g><g transform="translate(-94,-94) scale(1,1)"><path fill="#C0C0C0" stroke="none" d="M 695 1353 L 916 1353 L 916 1454 L 695 1454" opacity="0.2"/></g><g transform="translate(-94,-94) scale(1,1)"><path fill="#C0C0C0" stroke="none" d="M 695 1353 L 705 1343 L 926 1343 L 916 1353" opacity="0.2"/></g><g transform="translate(-94,-94) scale(1,1)"><path fill="#C0C0C0" stroke="none" d="M 926 1343 L 916 1353 L 916 1454 L 926 1444" opacity="0.2"/></g><g transform="translate(-94,-94) scale(1,1)"><path fill="#ffffff" stroke="none" d="M 688 1346 L 909 1346 L 909 1447 L 688 1447"/></g><g transform="translate(-94,-94) scale(1,1)"><path fill="#ffffff" stroke="none" d="M 688 1346 L 698 1336 L 919 1336 L 909 1346"/></g><g transform="translate(-94,-94) scale(1,1)"><path fill="#ffffff" stroke="none" d="M 919 1336 L 909 1346 L 909 1447 L 919 1437"/></g><g transform="translate(-94,-94) scale(1,1)"><path fill="none" stroke="#000000" d="M 688 1346 L 909 1346 L 909 1447 L 688 1447 L 688 1346" stroke-miterlimit="10"/></g><g transform="translate(-94,-94) scale(1,1)"><path fill="none" stroke="#000000" d="M 688 1346 L 698 1336 L 919 1336 L 909 1346 L 688 1346" stroke-miterlimit="10"/></g><g transform="translate(-94,-94) scale(1,1)"><path fill="none" stroke="#000000" d="M 919 1336 L 909 1346 L 909 1447 L 919 1437 L 919 1336" stroke-miterlimit="10"/></g><g transform="translate(-94,-94) scale(1,1)"><g><path fill="none" stroke="none"/><text fill="#000000" stroke="none" font-family="Arial" font-size="13px" font-style="normal" font-weight="normal" text-decoration="none" x="727.5" y="1363.5">«executionEnvironment»</text></g></g><g transform="translate(-94,-94) scale(1,1)"><g><path fill="none" stroke="none"/><text fill="#000000" stroke="none" font-family="Arial" font-size="13px" font-style="normal" font-weight="bold" text-decoration="none" x="785.5" y="1378.5">JVM</text></g></g><g transform="translate(-94,-94) scale(1,1)"><rect fill="#C0C0C0" stroke="none" x="727" y="1399" width="153.04833984375" height="33" opacity="0.2"/></g><g transform="translate(-94,-94) scale(1,1)"><rect fill="#ffffff" stroke="none" x="720" y="1392" width="153.04833984375" height="33"/></g><g transform="translate(-94,-94) scale(1,1)"><path fill="none" stroke="#000000" d="M 720 1392 L 873.04833984375 1392 L 873.04833984375 1425 L 720 1425 L 720 1392 Z Z" stroke-miterlimit="10"/></g><g transform="translate(-94,-94) scale(1,1)"><path fill="#ffffff" stroke="none" d="M 846.44833984375 1397 L 859.88833984375 1397 L 865.64833984375 1402.76 L 865.64833984375 1421 L 846.44833984375 1421"/></g><g transform="translate(-94,-94) scale(1,1)"><path fill="none" stroke="#000000" d="M 846.44833984375 1397 L 859.88833984375 1397 L 865.64833984375 1402.76 L 865.64833984375 1421 L 846.44833984375 1421 L 846.44833984375 1397" stroke-miterlimit="10"/></g><g transform="translate(-94,-94) scale(1,1)"><path fill="none" stroke="#000000" d="M 859.88833984375 1397 L 859.88833984375 1402.76 L 865.64833984375 1402.76 L 859.88833984375 1397" stroke-miterlimit="10"/></g><g transform="translate(-94,-94) scale(1,1)"><g><path fill="none" stroke="none"/><text fill="#000000" stroke="none" font-family="Arial" font-size="11px" font-style="normal" font-weight="normal" text-decoration="none" x="762.024169921875" y="1407.5">«artifact»</text></g></g><g transform="translate(-94,-94) scale(1,1)"><g><path fill="none" stroke="none"/><text fill="#000000" stroke="none" font-family="Arial" font-size="11px" font-style="normal" font-weight="bold" text-decoration="none" x="732.524169921875" y="1420.5">bank.transfer.1.0.war</text></g></g><g transform="translate(-94,-94) scale(1,1)"><path fill="#C0C0C0" stroke="none" d="M 455 1681 L 764 1681 L 764 1862 L 455 1862" opacity="0.2"/></g><g transform="translate(-94,-94) scale(1,1)"><path fill="#C0C0C0" stroke="none" d="M 455 1681 L 465 1671 L 774 1671 L 764 1681" opacity="0.2"/></g><g transform="translate(-94,-94) scale(1,1)"><path fill="#C0C0C0" stroke="none" d="M 774 1671 L 764 1681 L 764 1862 L 774 1852" opacity="0.2"/></g><g transform="translate(-94,-94) scale(1,1)"><path fill="#ffffff" stroke="none" d="M 448 1674 L 757 1674 L 757 1855 L 448 1855"/></g><g transform="translate(-94,-94) scale(1,1)"><path fill="#ffffff" stroke="none" d="M 448 1674 L 458 1664 L 767 1664 L 757 1674"/></g><g transform="translate(-94,-94) scale(1,1)"><path fill="#ffffff" stroke="none" d="M 767 1664 L 757 1674 L 757 1855 L 767 1845"/></g><g transform="translate(-94,-94) scale(1,1)"><path fill="none" stroke="#000000" d="M 448 1674 L 757 1674 L 757 1855 L 448 1855 L 448 1674" stroke-miterlimit="10"/></g><g transform="translate(-94,-94) scale(1,1)"><path fill="none" stroke="#000000" d="M 448 1674 L 458 1664 L 767 1664 L 757 1674 L 448 1674" stroke-miterlimit="10"/></g><g transform="translate(-94,-94) scale(1,1)"><path fill="none" stroke="#000000" d="M 767 1664 L 757 1674 L 757 1855 L 767 1845 L 767 1664" stroke-miterlimit="10"/></g><g transform="translate(-94,-94) scale(1,1)"><g><path fill="none" stroke="none"/><text fill="#000000" stroke="none" font-family="Arial" font-size="13px" font-style="normal" font-weight="bold" text-decoration="none" x="539" y="1693.5">Apache tomcat server</text></g></g><g transform="translate(-94,-94) scale(1,1)"><path fill="#C0C0C0" stroke="none" d="M 479 1729 L 740 1729 L 740 1830 L 479 1830" opacity="0.2"/></g><g transform="translate(-94,-94) scale(1,1)"><path fill="#C0C0C0" stroke="none" d="M 479 1729 L 489 1719 L 750 1719 L 740 1729" opacity="0.2"/></g><g transform="translate(-94,-94) scale(1,1)"><path fill="#C0C0C0" stroke="none" d="M 750 1719 L 740 1729 L 740 1830 L 750 1820" opacity="0.2"/></g><g transform="translate(-94,-94) scale(1,1)"><path fill="#ffffff" stroke="none" d="M 472 1722 L 733 1722 L 733 1823 L 472 1823"/></g><g transform="translate(-94,-94) scale(1,1)"><path fill="#ffffff" stroke="none" d="M 472 1722 L 482 1712 L 743 1712 L 733 1722"/></g><g transform="translate(-94,-94) scale(1,1)"><path fill="#ffffff" stroke="none" d="M 743 1712 L 733 1722 L 733 1823 L 743 1813"/></g><g transform="translate(-94,-94) scale(1,1)"><path fill="none" stroke="#000000" d="M 472 1722 L 733 1722 L 733 1823 L 472 1823 L 472 1722" stroke-miterlimit="10"/></g><g transform="translate(-94,-94) scale(1,1)"><path fill="none" stroke="#000000" d="M 472 1722 L 482 1712 L 743 1712 L 733 1722 L 472 1722" stroke-miterlimit="10"/></g><g transform="translate(-94,-94) scale(1,1)"><path fill="none" stroke="#000000" d="M 743 1712 L 733 1722 L 733 1823 L 743 1813 L 743 1712" stroke-miterlimit="10"/></g><g transform="translate(-94,-94) scale(1,1)"><g><path fill="none" stroke="none"/><text fill="#000000" stroke="none" font-family="Arial" font-size="13px" font-style="normal" font-weight="normal" text-decoration="none" x="531.5" y="1739.5">«executionEnvironment»</text></g></g><g transform="translate(-94,-94) scale(1,1)"><g><path fill="none" stroke="none"/><text fill="#000000" stroke="none" font-family="Arial" font-size="13px" font-style="normal" font-weight="bold" text-decoration="none" x="589.5" y="1754.5">JVM</text></g></g><g transform="translate(-94,-94) scale(1,1)"><rect fill="#C0C0C0" stroke="none" x="487" y="1775" width="247.21435546875" height="33" opacity="0.2"/></g><g transform="translate(-94,-94) scale(1,1)"><rect fill="#ffffff" stroke="none" x="480" y="1768" width="247.21435546875" height="33"/></g><g transform="translate(-94,-94) scale(1,1)"><path fill="none" stroke="#000000" d="M 480 1768 L 727.21435546875 1768 L 727.21435546875 1801 L 480 1801 L 480 1768 Z Z" stroke-miterlimit="10"/></g><g transform="translate(-94,-94) scale(1,1)"><path fill="#ffffff" stroke="none" d="M 700.61435546875 1773 L 714.05435546875 1773 L 719.81435546875 1778.76 L 719.81435546875 1797 L 700.61435546875 1797"/></g><g transform="translate(-94,-94) scale(1,1)"><path fill="none" stroke="#000000" d="M 700.61435546875 1773 L 714.05435546875 1773 L 719.81435546875 1778.76 L 719.81435546875 1797 L 700.61435546875 1797 L 700.61435546875 1773" stroke-miterlimit="10"/></g><g transform="translate(-94,-94) scale(1,1)"><path fill="none" stroke="#000000" d="M 714.05435546875 1773 L 714.05435546875 1778.76 L 719.81435546875 1778.76 L 714.05435546875 1773" stroke-miterlimit="10"/></g><g transform="translate(-94,-94) scale(1,1)"><g><path fill="none" stroke="none"/><text fill="#000000" stroke="none" font-family="Arial" font-size="11px" font-style="normal" font-weight="normal" text-decoration="none" x="569.107177734375" y="1783.5">«artifact»</text></g></g><g transform="translate(-94,-94) scale(1,1)"><g><path fill="none" stroke="none"/><text fill="#000000" stroke="none" font-family="Arial" font-size="11px" font-style="normal" font-weight="bold" text-decoration="none" x="492.107177734375" y="1796.5">data-access-server.1.0.SNAPSHOT.war</text></g></g><g transform="translate(-94,-94) scale(1,1)"><path fill="none" stroke="#000000" d="M 768 1739 L 858.963134765625 1739" stroke-miterlimit="10"/></g><g transform="translate(-94,-94) scale(1,1)"><g><path fill="none" stroke="none"/><text fill="#000000" stroke="none" font-family="Arial" font-size="13px" font-style="normal" font-weight="normal" text-decoration="none" x="796.5" y="1730.5">+jdbc</text></g></g><g transform="translate(-94,-94) scale(1,1)"><path fill="#C0C0C0" stroke="none" d="M 111 1305 L 420 1305 L 420 1470 L 111 1470" opacity="0.2"/></g><g transform="translate(-94,-94) scale(1,1)"><path fill="#C0C0C0" stroke="none" d="M 111 1305 L 121 1295 L 430 1295 L 420 1305" opacity="0.2"/></g><g transform="translate(-94,-94) scale(1,1)"><path fill="#C0C0C0" stroke="none" d="M 430 1295 L 420 1305 L 420 1470 L 430 1460" opacity="0.2"/></g><g transform="translate(-94,-94) scale(1,1)"><path fill="#ffffff" stroke="none" d="M 104 1298 L 413 1298 L 413 1463 L 104 1463"/></g><g transform="translate(-94,-94) scale(1,1)"><path fill="#ffffff" stroke="none" d="M 104 1298 L 114 1288 L 423 1288 L 413 1298"/></g><g transform="translate(-94,-94) scale(1,1)"><path fill="#ffffff" stroke="none" d="M 423 1288 L 413 1298 L 413 1463 L 423 1453"/></g><g transform="translate(-94,-94) scale(1,1)"><path fill="none" stroke="#000000" d="M 104 1298 L 413 1298 L 413 1463 L 104 1463 L 104 1298" stroke-miterlimit="10"/></g><g transform="translate(-94,-94) scale(1,1)"><path fill="none" stroke="#000000" d="M 104 1298 L 114 1288 L 423 1288 L 413 1298 L 104 1298" stroke-miterlimit="10"/></g><g transform="translate(-94,-94) scale(1,1)"><path fill="none" stroke="#000000" d="M 423 1288 L 413 1298 L 413 1463 L 423 1453 L 423 1288" stroke-miterlimit="10"/></g><g transform="translate(-94,-94) scale(1,1)"><g><path fill="none" stroke="none"/><text fill="#000000" stroke="none" font-family="Arial" font-size="13px" font-style="normal" font-weight="bold" text-decoration="none" x="195" y="1317.5">Apache tomcat server</text></g></g><g transform="translate(-94,-94) scale(1,1)"><path fill="#C0C0C0" stroke="none" d="M 127 1345 L 396 1345 L 396 1446 L 127 1446" opacity="0.2"/></g><g transform="translate(-94,-94) scale(1,1)"><path fill="#C0C0C0" stroke="none" d="M 127 1345 L 137 1335 L 406 1335 L 396 1345" opacity="0.2"/></g><g transform="translate(-94,-94) scale(1,1)"><path fill="#C0C0C0" stroke="none" d="M 406 1335 L 396 1345 L 396 1446 L 406 1436" opacity="0.2"/></g><g transform="translate(-94,-94) scale(1,1)"><path fill="#ffffff" stroke="none" d="M 120 1338 L 389 1338 L 389 1439 L 120 1439"/></g><g transform="translate(-94,-94) scale(1,1)"><path fill="#ffffff" stroke="none" d="M 120 1338 L 130 1328 L 399 1328 L 389 1338"/></g><g transform="translate(-94,-94) scale(1,1)"><path fill="#ffffff" stroke="none" d="M 399 1328 L 389 1338 L 389 1439 L 399 1429"/></g><g transform="translate(-94,-94) scale(1,1)"><path fill="none" stroke="#000000" d="M 120 1338 L 389 1338 L 389 1439 L 120 1439 L 120 1338" stroke-miterlimit="10"/></g><g transform="translate(-94,-94) scale(1,1)"><path fill="none" stroke="#000000" d="M 120 1338 L 130 1328 L 399 1328 L 389 1338 L 120 1338" stroke-miterlimit="10"/></g><g transform="translate(-94,-94) scale(1,1)"><path fill="none" stroke="#000000" d="M 399 1328 L 389 1338 L 389 1439 L 399 1429 L 399 1328" stroke-miterlimit="10"/></g><g transform="translate(-94,-94) scale(1,1)"><g><path fill="none" stroke="none"/><text fill="#000000" stroke="none" font-family="Arial" font-size="13px" font-style="normal" font-weight="normal" text-decoration="none" x="183.5" y="1355.5">«executionEnvironment»</text></g></g><g transform="translate(-94,-94) scale(1,1)"><g><path fill="none" stroke="none"/><text fill="#000000" stroke="none" font-family="Arial" font-size="13px" font-style="normal" font-weight="bold" text-decoration="none" x="241.5" y="1370.5">JVM</text></g></g><g transform="translate(-94,-94) scale(1,1)"><rect fill="#C0C0C0" stroke="none" x="135" y="1383" width="253.29443359375" height="33" opacity="0.2"/></g><g transform="translate(-94,-94) scale(1,1)"><rect fill="#ffffff" stroke="none" x="128" y="1376" width="253.29443359375" height="33"/></g><g transform="translate(-94,-94) scale(1,1)"><path fill="none" stroke="#000000" d="M 128 1376 L 381.29443359375 1376 L 381.29443359375 1409 L 128 1409 L 128 1376 Z Z" stroke-miterlimit="10"/></g><g transform="translate(-94,-94) scale(1,1)"><path fill="#ffffff" stroke="none" d="M 354.69443359375 1381 L 368.13443359375 1381 L 373.89443359374997 1386.76 L 373.89443359374997 1405 L 354.69443359375 1405"/></g><g transform="translate(-94,-94) scale(1,1)"><path fill="none" stroke="#000000" d="M 354.69443359375 1381 L 368.13443359375 1381 L 373.89443359374997 1386.76 L 373.89443359374997 1405 L 354.69443359375 1405 L 354.69443359375 1381" stroke-miterlimit="10"/></g><g transform="translate(-94,-94) scale(1,1)"><path fill="none" stroke="#000000" d="M 368.13443359375 1381 L 368.13443359375 1386.76 L 373.89443359374997 1386.76 L 368.13443359375 1381" stroke-miterlimit="10"/></g><g transform="translate(-94,-94) scale(1,1)"><g><path fill="none" stroke="none"/><text fill="#000000" stroke="none" font-family="Arial" font-size="11px" font-style="normal" font-weight="normal" text-decoration="none" x="220.147216796875" y="1391.5">«artifact»</text></g></g><g transform="translate(-94,-94) scale(1,1)"><g><path fill="none" stroke="none"/><text fill="#000000" stroke="none" font-family="Arial" font-size="11px" font-style="normal" font-weight="bold" text-decoration="none" x="142.147216796875" y="1404.5">shares-price-history.1.0.SNAPSHOT.war</text></g></g><g transform="translate(-94,-94) scale(1,1)"><path fill="#C0C0C0" stroke="none" d="M 689.18359375 1218.5 C 689.18359375 1212.1487248 694.33231855 1207 700.68359375 1207 C 707.03486895 1207 712.18359375 1212.1487248 712.18359375 1218.5 C 712.18359375 1224.8512752 707.03486895 1230 700.68359375 1230 C 694.33231855 1230 689.18359375 1224.8512752 689.18359375 1218.5 Z" opacity="0.2"/></g><g transform="translate(-94,-94) scale(1,1)"><path fill="none" stroke="#000000" d="M 693 1222.5 A 11.5 11.5 0 0 1 693 1199.5" stroke-miterlimit="10"/></g><g transform="translate(-94,-94) scale(1,1)"><path fill="none" stroke="#000000" d="M 704.5 1211 A 11.5 11.5 0 0 1 681.5 1211" stroke-miterlimit="10"/></g><g transform="translate(-94,-94) scale(1,1)"><path fill="#ffffff" stroke="none" d="M 685.18359375 1211.5 C 685.18359375 1206.8055792 688.98917295 1203 693.68359375 1203 C 698.37801455 1203 702.18359375 1206.8055792 702.18359375 1211.5 C 702.18359375 1216.1944208 698.37801455 1220 693.68359375 1220 C 688.98917295 1220 685.18359375 1216.1944208 685.18359375 1211.5 Z"/></g><g transform="translate(-94,-94) scale(1,1)"><path fill="none" stroke="#000000" d="M 685.18359375 1211.5 C 685.18359375 1206.8055792 688.98917295 1203 693.68359375 1203 C 698.37801455 1203 702.18359375 1206.8055792 702.18359375 1211.5 C 702.18359375 1216.1944208 698.37801455 1220 693.68359375 1220 C 688.98917295 1220 685.18359375 1216.1944208 685.18359375 1211.5 Z" stroke-miterlimit="10"/></g><g transform="translate(-94,-94) scale(1,1)"><g><path fill="none" stroke="none"/><text fill="#000000" stroke="none" font-family="Arial" font-size="13px" font-style="normal" font-weight="bold" text-decoration="none" x="676.18359375" y="1242.5">REST</text></g></g><g transform="translate(-94,-94) scale(1,1)"><path fill="none" stroke="#000000" d="M 693 1064 L 693 1200" stroke-miterlimit="10"/></g><g transform="translate(-94,-94) scale(1,1)"><path fill="none" stroke="#000000" d="M 328 1288 L 328 1211 L 682.18359375 1211" stroke-miterlimit="10"/></g><g transform="translate(-94,-94) scale(1,1)"><g><path fill="none" stroke="none"/><text fill="#000000" stroke="none" font-family="Arial" font-size="13px" font-style="normal" font-weight="normal" text-decoration="none" x="306.5" y="1202.5">+HTTP</text></g></g><g transform="translate(-94,-94) scale(1,1)"><path fill="none" stroke="#000000" d="M 693 1296 L 693 1223" stroke-miterlimit="10"/></g><g transform="translate(-94,-94) scale(1,1)"><g><path fill="none" stroke="none"/><text fill="#000000" stroke="none" font-family="Arial" font-size="13px" font-style="normal" font-weight="normal" text-decoration="none" x="656.5" y="1264.5">+HTTP</text></g></g><g transform="translate(-94,-94) scale(1,1)"><path fill="#C0C0C0" stroke="none" d="M 598.7099609375 1602.5 C 598.7099609375 1596.1487248 603.8586857375 1591 610.2099609375 1591 C 616.5612361375 1591 621.7099609375 1596.1487248 621.7099609375 1602.5 C 621.7099609375 1608.8512752 616.5612361375 1614 610.2099609375 1614 C 603.8586857375 1614 598.7099609375 1608.8512752 598.7099609375 1602.5 Z" opacity="0.2"/></g><g transform="translate(-94,-94) scale(1,1)"><path fill="none" stroke="#000000" d="M 603 1606.5 A 11.5 11.5 0 0 1 603 1583.5" stroke-miterlimit="10"/></g><g transform="translate(-94,-94) scale(1,1)"><path fill="none" stroke="#000000" d="M 603 1583.5 A 11.5 11.5 0 0 1 603 1606.5" stroke-miterlimit="10"/></g><g transform="translate(-94,-94) scale(1,1)"><path fill="#ffffff" stroke="none" d="M 594.7099609375 1595.5 C 594.7099609375 1590.8055792 598.5155401375 1587 603.2099609375 1587 C 607.9043817375 1587 611.7099609375 1590.8055792 611.7099609375 1595.5 C 611.7099609375 1600.1944208 607.9043817375 1604 603.2099609375 1604 C 598.5155401375 1604 594.7099609375 1600.1944208 594.7099609375 1595.5 Z"/></g><g transform="translate(-94,-94) scale(1,1)"><path fill="none" stroke="#000000" d="M 594.7099609375 1595.5 C 594.7099609375 1590.8055792 598.5155401375 1587 603.2099609375 1587 C 607.9043817375 1587 611.7099609375 1590.8055792 611.7099609375 1595.5 C 611.7099609375 1600.1944208 607.9043817375 1604 603.2099609375 1604 C 598.5155401375 1604 594.7099609375 1600.1944208 594.7099609375 1595.5 Z" stroke-miterlimit="10"/></g><g transform="translate(-94,-94) scale(1,1)"><g><path fill="none" stroke="none"/><text fill="#000000" stroke="none" font-family="Arial" font-size="13px" font-style="normal" font-weight="bold" text-decoration="none" x="585.7099609375" y="1626.5">REST</text></g></g><g transform="translate(-94,-94) scale(1,1)"><path fill="none" stroke="#000000" d="M 603 1664 L 603 1607" stroke-miterlimit="10"/></g><g transform="translate(-94,-94) scale(1,1)"><path fill="none" stroke="#000000" d="M 394 1464 L 394 1595 L 591.7099609375 1595" stroke-miterlimit="10"/></g><g transform="translate(-94,-94) scale(1,1)"><g><path fill="none" stroke="none"/><text fill="#000000" stroke="none" font-family="Arial" font-size="13px" font-style="normal" font-weight="normal" text-decoration="none" x="372.5" y="1586.5">+HTTP</text></g></g><g transform="translate(-94,-94) scale(1,1)"><path fill="none" stroke="#000000" d="M 734 1464 L 734 1595 L 614.7099609375 1595" stroke-miterlimit="10"/></g><g transform="translate(-94,-94) scale(1,1)"><g><path fill="none" stroke="none"/><text fill="#000000" stroke="none" font-family="Arial" font-size="13px" font-style="normal" font-weight="normal" text-decoration="none" x="711.5" y="1616.5">+HTTP</text></g></g><g transform="translate(-94,-94) scale(1,1)"><path fill="#C0C0C0" stroke="none" d="M 1679 745 L 1996 745 L 1996 998 L 1679 998" opacity="0.2"/></g><g transform="translate(-94,-94) scale(1,1)"><path fill="#C0C0C0" stroke="none" d="M 1679 745 L 1689 735 L 2006 735 L 1996 745" opacity="0.2"/></g><g transform="translate(-94,-94) scale(1,1)"><path fill="#C0C0C0" stroke="none" d="M 2006 735 L 1996 745 L 1996 998 L 2006 988" opacity="0.2"/></g><g transform="translate(-94,-94) scale(1,1)"><path fill="#ffffff" stroke="none" d="M 1672 738 L 1989 738 L 1989 991 L 1672 991"/></g><g transform="translate(-94,-94) scale(1,1)"><path fill="#ffffff" stroke="none" d="M 1672 738 L 1682 728 L 1999 728 L 1989 738"/></g><g transform="translate(-94,-94) scale(1,1)"><path fill="#ffffff" stroke="none" d="M 1999 728 L 1989 738 L 1989 991 L 1999 981"/></g><g transform="translate(-94,-94) scale(1,1)"><path fill="none" stroke="#000000" d="M 1672 738 L 1989 738 L 1989 991 L 1672 991 L 1672 738" stroke-miterlimit="10"/></g><g transform="translate(-94,-94) scale(1,1)"><path fill="none" stroke="#000000" d="M 1672 738 L 1682 728 L 1999 728 L 1989 738 L 1672 738" stroke-miterlimit="10"/></g><g transform="translate(-94,-94) scale(1,1)"><path fill="none" stroke="#000000" d="M 1999 728 L 1989 738 L 1989 991 L 1999 981 L 1999 728" stroke-miterlimit="10"/></g><g transform="translate(-94,-94) scale(1,1)"><g><path fill="none" stroke="none"/><text fill="#000000" stroke="none" font-family="Arial" font-size="13px" font-style="normal" font-weight="normal" text-decoration="none" x="1806" y="755.5">«server»</text></g></g><g transform="translate(-94,-94) scale(1,1)"><g><path fill="none" stroke="none"/><text fill="#000000" stroke="none" font-family="Arial" font-size="13px" font-style="normal" font-weight="bold" text-decoration="none" x="1743" y="770.5">mom.esibank.inside.esiag.info</text></g></g><g transform="translate(-94,-94) scale(1,1)"><rect fill="#C0C0C0" stroke="none" x="1753" y="823" width="214" height="44" opacity="0.2"/></g><g transform="translate(-94,-94) scale(1,1)"><rect fill="#ffffff" stroke="none" x="1746" y="816" width="214" height="44"/></g><g transform="translate(-94,-94) scale(1,1)"><path fill="none" stroke="#000000" d="M 1746 816 L 1960 816 L 1960 860 L 1746 860 L 1746 816 Z Z" stroke-miterlimit="10"/></g><g transform="translate(-94,-94) scale(1,1)"><rect fill="#ffffff" stroke="none" x="1736" y="823" width="20" height="10"/></g><g transform="translate(-94,-94) scale(1,1)"><path fill="none" stroke="#000000" d="M 1736 823 L 1756 823 L 1756 833 L 1736 833 L 1736 823 Z Z" stroke-miterlimit="10"/></g><g transform="translate(-94,-94) scale(1,1)"><rect fill="#ffffff" stroke="none" x="1736" y="843" width="20" height="10"/></g><g transform="translate(-94,-94) scale(1,1)"><path fill="none" stroke="#000000" d="M 1736 843 L 1756 843 L 1756 853 L 1736 853 L 1736 843 Z Z" stroke-miterlimit="10"/></g><g transform="translate(-94,-94) scale(1,1)"><g><path fill="none" stroke="none"/><text fill="#000000" stroke="none" font-family="Arial" font-size="13px" font-style="normal" font-weight="normal" text-decoration="none" x="1840.5" y="833.5">«app»</text></g></g><g transform="translate(-94,-94) scale(1,1)"><g><path fill="none" stroke="none"/><text fill="#000000" stroke="none" font-family="Arial" font-size="13px" font-style="normal" font-weight="bold" text-decoration="none" x="1810" y="848.5">rabbitMQ_3.6.14</text></g></g><g transform="translate(-94,-94) scale(1,1)"><rect fill="#C0C0C0" stroke="none" x="1753" y="911" width="204" height="52" opacity="0.2"/></g><g transform="translate(-94,-94) scale(1,1)"><rect fill="#ffffff" stroke="none" x="1746" y="904" width="204" height="52"/></g><g transform="translate(-94,-94) scale(1,1)"><path fill="none" stroke="#000000" d="M 1746 904 L 1950 904 L 1950 956 L 1746 956 L 1746 904 Z Z" stroke-miterlimit="10"/></g><g transform="translate(-94,-94) scale(1,1)"><rect fill="#ffffff" stroke="none" x="1736" y="911" width="20" height="10"/></g><g transform="translate(-94,-94) scale(1,1)"><path fill="none" stroke="#000000" d="M 1736 911 L 1756 911 L 1756 921 L 1736 921 L 1736 911 Z Z" stroke-miterlimit="10"/></g><g transform="translate(-94,-94) scale(1,1)"><rect fill="#ffffff" stroke="none" x="1736" y="931" width="20" height="10"/></g><g transform="translate(-94,-94) scale(1,1)"><path fill="none" stroke="#000000" d="M 1736 931 L 1756 931 L 1756 941 L 1736 941 L 1736 931 Z Z" stroke-miterlimit="10"/></g><g transform="translate(-94,-94) scale(1,1)"><g><path fill="none" stroke="none"/><text fill="#000000" stroke="none" font-family="Arial" font-size="13px" font-style="normal" font-weight="normal" text-decoration="none" x="1835.5" y="921.5">«app»</text></g></g><g transform="translate(-94,-94) scale(1,1)"><g><path fill="none" stroke="none"/><text fill="#000000" stroke="none" font-family="Arial" font-size="13px" font-style="normal" font-weight="bold" text-decoration="none" x="1820" y="936.5">Erlang.20.1</text></g></g><g transform="translate(-94,-94) scale(1,1)"><path fill="none" stroke="#000000" d="M 1847 860 L 1847 904" stroke-miterlimit="10" stroke-dasharray="3"/></g><g transform="translate(-94,-94) scale(1,1)"><path fill="none" stroke="#000000" d="M 1842.7904822439841 893.8373251423759 L 1847 904 L 1851.2095177560159 893.8373251423759" stroke-miterlimit="10"/></g><g transform="translate(-94,-94) scale(1,1)"><path fill="#C0C0C0" stroke="none" d="M 1590.7099609375 834.5 C 1590.7099609375 828.1487248 1595.8586857375 823 1602.2099609375 823 C 1608.5612361375 823 1613.7099609375 828.1487248 1613.7099609375 834.5 C 1613.7099609375 840.8512752 1608.5612361375 846 1602.2099609375 846 C 1595.8586857375 846 1590.7099609375 840.8512752 1590.7099609375 834.5 Z" opacity="0.2"/></g><g transform="translate(-94,-94) scale(1,1)"><path fill="none" stroke="#000000" d="M 1595 838.5 A 11.5 11.5 0 0 1 1595 815.5" stroke-miterlimit="10"/></g><g transform="translate(-94,-94) scale(1,1)"><path fill="none" stroke="#000000" d="M 1606.5 827 A 11.5 11.5 0 0 1 1583.5 827" stroke-miterlimit="10"/></g><g transform="translate(-94,-94) scale(1,1)"><path fill="#ffffff" stroke="none" d="M 1586.7099609375 827.5 C 1586.7099609375 822.8055792 1590.5155401375 819 1595.2099609375 819 C 1599.9043817375 819 1603.7099609375 822.8055792 1603.7099609375 827.5 C 1603.7099609375 832.1944208 1599.9043817375 836 1595.2099609375 836 C 1590.5155401375 836 1586.7099609375 832.1944208 1586.7099609375 827.5 Z"/></g><g transform="translate(-94,-94) scale(1,1)"><path fill="none" stroke="#000000" d="M 1586.7099609375 827.5 C 1586.7099609375 822.8055792 1590.5155401375 819 1595.2099609375 819 C 1599.9043817375 819 1603.7099609375 822.8055792 1603.7099609375 827.5 C 1603.7099609375 832.1944208 1599.9043817375 836 1595.2099609375 836 C 1590.5155401375 836 1586.7099609375 832.1944208 1586.7099609375 827.5 Z" stroke-miterlimit="10"/></g><g transform="translate(-94,-94) scale(1,1)"><g><path fill="none" stroke="none"/><text fill="#000000" stroke="none" font-family="Arial" font-size="13px" font-style="normal" font-weight="bold" text-decoration="none" x="1579.2099609375" y="858.5">ampq</text></g></g><g transform="translate(-94,-94) scale(1,1)"><path fill="none" stroke="#000000" d="M 1736 827 L 1606.7099609375 827" stroke-miterlimit="10"/></g><g transform="translate(-94,-94) scale(1,1)"><g><path fill="none" stroke="none"/><text fill="#000000" stroke="none" font-family="Arial" font-size="13px" font-style="normal" font-weight="normal" text-decoration="none" x="1690.755859375" y="847.5">+5673</text></g></g><g transform="translate(-94,-94) scale(1,1)"><path fill="#C0C0C0" stroke="none" d="M 1191 1033 L 1540 1033 L 1540 1221 L 1191 1221" opacity="0.2"/></g><g transform="translate(-94,-94) scale(1,1)"><path fill="#C0C0C0" stroke="none" d="M 1191 1033 L 1201 1023 L 1550 1023 L 1540 1033" opacity="0.2"/></g><g transform="translate(-94,-94) scale(1,1)"><path fill="#C0C0C0" stroke="none" d="M 1550 1023 L 1540 1033 L 1540 1221 L 1550 1211" opacity="0.2"/></g><g transform="translate(-94,-94) scale(1,1)"><path fill="#ffffff" stroke="none" d="M 1184 1026 L 1533 1026 L 1533 1214 L 1184 1214"/></g><g transform="translate(-94,-94) scale(1,1)"><path fill="#ffffff" stroke="none" d="M 1184 1026 L 1194 1016 L 1543 1016 L 1533 1026"/></g><g transform="translate(-94,-94) scale(1,1)"><path fill="#ffffff" stroke="none" d="M 1543 1016 L 1533 1026 L 1533 1214 L 1543 1204"/></g><g transform="translate(-94,-94) scale(1,1)"><path fill="none" stroke="#000000" d="M 1184 1026 L 1533 1026 L 1533 1214 L 1184 1214 L 1184 1026" stroke-miterlimit="10"/></g><g transform="translate(-94,-94) scale(1,1)"><path fill="none" stroke="#000000" d="M 1184 1026 L 1194 1016 L 1543 1016 L 1533 1026 L 1184 1026" stroke-miterlimit="10"/></g><g transform="translate(-94,-94) scale(1,1)"><path fill="none" stroke="#000000" d="M 1543 1016 L 1533 1026 L 1533 1214 L 1543 1204 L 1543 1016" stroke-miterlimit="10"/></g><g transform="translate(-94,-94) scale(1,1)"><g><path fill="none" stroke="none"/><text fill="#000000" stroke="none" font-family="Arial" font-size="13px" font-style="normal" font-weight="normal" text-decoration="none" x="1334" y="1043.5">«server»</text></g></g><g transform="translate(-94,-94) scale(1,1)"><g><path fill="none" stroke="none"/><text fill="#000000" stroke="none" font-family="Arial" font-size="13px" font-style="normal" font-weight="bold" text-decoration="none" x="1254" y="1058.5">notification.esibank.inside.esiag.info</text></g></g><g transform="translate(-94,-94) scale(1,1)"><path fill="#C0C0C0" stroke="none" d="M 1207 1081 L 1516 1081 L 1516 1206 L 1207 1206" opacity="0.2"/></g><g transform="translate(-94,-94) scale(1,1)"><path fill="#C0C0C0" stroke="none" d="M 1207 1081 L 1217 1071 L 1526 1071 L 1516 1081" opacity="0.2"/></g><g transform="translate(-94,-94) scale(1,1)"><path fill="#C0C0C0" stroke="none" d="M 1526 1071 L 1516 1081 L 1516 1206 L 1526 1196" opacity="0.2"/></g><g transform="translate(-94,-94) scale(1,1)"><path fill="#ffffff" stroke="none" d="M 1200 1074 L 1509 1074 L 1509 1199 L 1200 1199"/></g><g transform="translate(-94,-94) scale(1,1)"><path fill="#ffffff" stroke="none" d="M 1200 1074 L 1210 1064 L 1519 1064 L 1509 1074"/></g><g transform="translate(-94,-94) scale(1,1)"><path fill="#ffffff" stroke="none" d="M 1519 1064 L 1509 1074 L 1509 1199 L 1519 1189"/></g><g transform="translate(-94,-94) scale(1,1)"><path fill="none" stroke="#000000" d="M 1200 1074 L 1509 1074 L 1509 1199 L 1200 1199 L 1200 1074" stroke-miterlimit="10"/></g><g transform="translate(-94,-94) scale(1,1)"><path fill="none" stroke="#000000" d="M 1200 1074 L 1210 1064 L 1519 1064 L 1509 1074 L 1200 1074" stroke-miterlimit="10"/></g><g transform="translate(-94,-94) scale(1,1)"><path fill="none" stroke="#000000" d="M 1519 1064 L 1509 1074 L 1509 1199 L 1519 1189 L 1519 1064" stroke-miterlimit="10"/></g><g transform="translate(-94,-94) scale(1,1)"><g><path fill="none" stroke="none"/><text fill="#000000" stroke="none" font-family="Arial" font-size="13px" font-style="normal" font-weight="normal" text-decoration="none" x="1283.5" y="1091.5">«executionEnvironment»</text></g></g><g transform="translate(-94,-94) scale(1,1)"><g><path fill="none" stroke="none"/><text fill="#000000" stroke="none" font-family="Arial" font-size="13px" font-style="normal" font-weight="bold" text-decoration="none" x="1341.5" y="1106.5">JVM</text></g></g><g transform="translate(-94,-94) scale(1,1)"><rect fill="#C0C0C0" stroke="none" x="1215" y="1135" width="290.076171875" height="52" opacity="0.2"/></g><g transform="translate(-94,-94) scale(1,1)"><rect fill="#ffffff" stroke="none" x="1208" y="1128" width="290.076171875" height="52"/></g><g transform="translate(-94,-94) scale(1,1)"><path fill="none" stroke="#000000" d="M 1208 1128 L 1498.076171875 1128 L 1498.076171875 1180 L 1208 1180 L 1208 1128 Z Z" stroke-miterlimit="10"/></g><g transform="translate(-94,-94) scale(1,1)"><path fill="#ffffff" stroke="none" d="M 1471.476171875 1133 L 1484.9161718750001 1133 L 1490.6761718750001 1138.76 L 1490.6761718750001 1157 L 1471.476171875 1157"/></g><g transform="translate(-94,-94) scale(1,1)"><path fill="none" stroke="#000000" d="M 1471.476171875 1133 L 1484.9161718750001 1133 L 1490.6761718750001 1138.76 L 1490.6761718750001 1157 L 1471.476171875 1157 L 1471.476171875 1133" stroke-miterlimit="10"/></g><g transform="translate(-94,-94) scale(1,1)"><path fill="none" stroke="#000000" d="M 1484.9161718750001 1133 L 1484.9161718750001 1138.76 L 1490.6761718750001 1138.76 L 1484.9161718750001 1133" stroke-miterlimit="10"/></g><g transform="translate(-94,-94) scale(1,1)"><g><path fill="none" stroke="none"/><text fill="#000000" stroke="none" font-family="Arial" font-size="13px" font-style="normal" font-weight="normal" text-decoration="none" x="1314.0380859375" y="1145.5">«artifact»</text></g></g><g transform="translate(-94,-94) scale(1,1)"><g><path fill="none" stroke="none"/><text fill="#000000" stroke="none" font-family="Arial" font-size="13px" font-style="normal" font-weight="bold" text-decoration="none" x="1223.0380859375" y="1160.5">notification.server.0.0.1.SNAPSHOT.war</text></g></g><g transform="translate(-94,-94) scale(1,1)"><path fill="#C0C0C0" stroke="none" d="M 1134.7099609375 842.5 C 1134.7099609375 836.1487248 1139.8586857375 831 1146.2099609375 831 C 1152.5612361375 831 1157.7099609375 836.1487248 1157.7099609375 842.5 C 1157.7099609375 848.8512752 1152.5612361375 854 1146.2099609375 854 C 1139.8586857375 854 1134.7099609375 848.8512752 1134.7099609375 842.5 Z" opacity="0.2"/></g><g transform="translate(-94,-94) scale(1,1)"><path fill="none" stroke="#000000" d="M 1139 846.5 A 11.5 11.5 0 0 1 1139 823.5" stroke-miterlimit="10"/></g><g transform="translate(-94,-94) scale(1,1)"><path fill="#ffffff" stroke="none" d="M 1130.7099609375 835.5 C 1130.7099609375 830.8055792 1134.5155401375 827 1139.2099609375 827 C 1143.9043817375 827 1147.7099609375 830.8055792 1147.7099609375 835.5 C 1147.7099609375 840.1944208 1143.9043817375 844 1139.2099609375 844 C 1134.5155401375 844 1130.7099609375 840.1944208 1130.7099609375 835.5 Z"/></g><g transform="translate(-94,-94) scale(1,1)"><path fill="none" stroke="#000000" d="M 1130.7099609375 835.5 C 1130.7099609375 830.8055792 1134.5155401375 827 1139.2099609375 827 C 1143.9043817375 827 1147.7099609375 830.8055792 1147.7099609375 835.5 C 1147.7099609375 840.1944208 1143.9043817375 844 1139.2099609375 844 C 1134.5155401375 844 1130.7099609375 840.1944208 1130.7099609375 835.5 Z" stroke-miterlimit="10"/></g><g transform="translate(-94,-94) scale(1,1)"><g><path fill="none" stroke="none"/><text fill="#000000" stroke="none" font-family="Arial" font-size="13px" font-style="normal" font-weight="bold" text-decoration="none" x="1121.7099609375" y="866.5">REST</text></g></g><g transform="translate(-94,-94) scale(1,1)"><path fill="none" stroke="#000000" d="M 1184 1099 L 1139 1099 L 1139 847" stroke-miterlimit="10"/></g><g transform="translate(-94,-94) scale(1,1)"><g><path fill="none" stroke="none"/><text fill="#000000" stroke="none" font-family="Arial" font-size="13px" font-style="normal" font-weight="normal" text-decoration="none" x="1086.5" y="1116.5">+HTTP</text></g></g><g transform="translate(-94,-94) scale(1,1)"><path fill="none" stroke="#000000" d="M 932 272 L 932 835 L 1127.7099609375 835" stroke-miterlimit="10"/></g><g transform="translate(-94,-94) scale(1,1)"><g><path fill="none" stroke="none"/><text fill="#000000" stroke="none" font-family="Arial" font-size="13px" font-style="normal" font-weight="normal" text-decoration="none" x="870.5" y="355.5">+HTTP</text></g></g><g transform="translate(-94,-94) scale(1,1)"><path fill="none" stroke="#000000" d="M 1420 592 L 1420 827 L 1583.7099609375 827" stroke-miterlimit="10"/></g><g transform="translate(-94,-94) scale(1,1)"><path fill="none" stroke="#000000" d="M 1544 1115 L 1595 1115 L 1595 839" stroke-miterlimit="10"/></g><g transform="translate(-94,-94) scale(1,1)"><path fill="#C0C0C0" stroke="none" d="M 1399 1681 L 1756 1681 L 1756 1837 L 1399 1837" opacity="0.2"/></g><g transform="translate(-94,-94) scale(1,1)"><path fill="#C0C0C0" stroke="none" d="M 1399 1681 L 1409 1671 L 1766 1671 L 1756 1681" opacity="0.2"/></g><g transform="translate(-94,-94) scale(1,1)"><path fill="#C0C0C0" stroke="none" d="M 1766 1671 L 1756 1681 L 1756 1837 L 1766 1827" opacity="0.2"/></g><g transform="translate(-94,-94) scale(1,1)"><path fill="#ffffff" stroke="none" d="M 1392 1674 L 1749 1674 L 1749 1830 L 1392 1830"/></g><g transform="translate(-94,-94) scale(1,1)"><path fill="#ffffff" stroke="none" d="M 1392 1674 L 1402 1664 L 1759 1664 L 1749 1674"/></g><g transform="translate(-94,-94) scale(1,1)"><path fill="#ffffff" stroke="none" d="M 1759 1664 L 1749 1674 L 1749 1830 L 1759 1820"/></g><g transform="translate(-94,-94) scale(1,1)"><path fill="none" stroke="#000000" d="M 1392 1674 L 1749 1674 L 1749 1830 L 1392 1830 L 1392 1674" stroke-miterlimit="10"/></g><g transform="translate(-94,-94) scale(1,1)"><path fill="none" stroke="#000000" d="M 1392 1674 L 1402 1664 L 1759 1664 L 1749 1674 L 1392 1674" stroke-miterlimit="10"/></g><g transform="translate(-94,-94) scale(1,1)"><path fill="none" stroke="#000000" d="M 1759 1664 L 1749 1674 L 1749 1830 L 1759 1820 L 1759 1664" stroke-miterlimit="10"/></g><g transform="translate(-94,-94) scale(1,1)"><g><path fill="none" stroke="none"/><text fill="#000000" stroke="none" font-family="Arial" font-size="13px" font-style="normal" font-weight="normal" text-decoration="none" x="1545" y="1691.5">«device»</text></g></g><g transform="translate(-94,-94) scale(1,1)"><g><path fill="none" stroke="none"/><text fill="#000000" stroke="none" font-family="Arial" font-size="13px" font-style="normal" font-weight="bold" text-decoration="none" x="1530.5" y="1706.5">Talend Server</text></g></g><g transform="translate(-94,-94) scale(1,1)"><path fill="#C0C0C0" stroke="none" d="M 1407 1737 L 1732 1737 L 1732 1830 L 1407 1830" opacity="0.2"/></g><g transform="translate(-94,-94) scale(1,1)"><path fill="#C0C0C0" stroke="none" d="M 1407 1737 L 1417 1727 L 1742 1727 L 1732 1737" opacity="0.2"/></g><g transform="translate(-94,-94) scale(1,1)"><path fill="#C0C0C0" stroke="none" d="M 1742 1727 L 1732 1737 L 1732 1830 L 1742 1820" opacity="0.2"/></g><g transform="translate(-94,-94) scale(1,1)"><path fill="#ffffff" stroke="none" d="M 1400 1730 L 1725 1730 L 1725 1823 L 1400 1823"/></g><g transform="translate(-94,-94) scale(1,1)"><path fill="#ffffff" stroke="none" d="M 1400 1730 L 1410 1720 L 1735 1720 L 1725 1730"/></g><g transform="translate(-94,-94) scale(1,1)"><path fill="#ffffff" stroke="none" d="M 1735 1720 L 1725 1730 L 1725 1823 L 1735 1813"/></g><g transform="translate(-94,-94) scale(1,1)"><path fill="none" stroke="#000000" d="M 1400 1730 L 1725 1730 L 1725 1823 L 1400 1823 L 1400 1730" stroke-miterlimit="10"/></g><g transform="translate(-94,-94) scale(1,1)"><path fill="none" stroke="#000000" d="M 1400 1730 L 1410 1720 L 1735 1720 L 1725 1730 L 1400 1730" stroke-miterlimit="10"/></g><g transform="translate(-94,-94) scale(1,1)"><path fill="none" stroke="#000000" d="M 1735 1720 L 1725 1730 L 1725 1823 L 1735 1813 L 1735 1720" stroke-miterlimit="10"/></g><g transform="translate(-94,-94) scale(1,1)"><g><path fill="none" stroke="none"/><text fill="#000000" stroke="none" font-family="Arial" font-size="13px" font-style="normal" font-weight="normal" text-decoration="none" x="1491.5" y="1747.5">«executionEnvironment»</text></g></g><g transform="translate(-94,-94) scale(1,1)"><g><path fill="none" stroke="none"/><text fill="#000000" stroke="none" font-family="Arial" font-size="13px" font-style="normal" font-weight="bold" text-decoration="none" x="1549.5" y="1762.5">JVM</text></g></g><g transform="translate(-94,-94) scale(1,1)"><rect fill="#C0C0C0" stroke="none" x="1423" y="1775" width="304" height="48" opacity="0.2"/></g><g transform="translate(-94,-94) scale(1,1)"><rect fill="#ffffff" stroke="none" x="1416" y="1768" width="304" height="48"/></g><g transform="translate(-94,-94) scale(1,1)"><path fill="none" stroke="#000000" d="M 1416 1768 L 1720 1768 L 1720 1816 L 1416 1816 L 1416 1768 Z Z" stroke-miterlimit="10"/></g><g transform="translate(-94,-94) scale(1,1)"><path fill="#ffffff" stroke="none" d="M 1693.4 1773 L 1706.8400000000001 1773 L 1712.6000000000001 1778.76 L 1712.6000000000001 1797 L 1693.4 1797"/></g><g transform="translate(-94,-94) scale(1,1)"><path fill="none" stroke="#000000" d="M 1693.4 1773 L 1706.8400000000001 1773 L 1712.6000000000001 1778.76 L 1712.6000000000001 1797 L 1693.4 1797 L 1693.4 1773" stroke-miterlimit="10"/></g><g transform="translate(-94,-94) scale(1,1)"><path fill="none" stroke="#000000" d="M 1706.8400000000001 1773 L 1706.8400000000001 1778.76 L 1712.6000000000001 1778.76 L 1706.8400000000001 1773" stroke-miterlimit="10"/></g><g transform="translate(-94,-94) scale(1,1)"><g><path fill="none" stroke="none"/><text fill="#000000" stroke="none" font-family="Arial" font-size="13px" font-style="normal" font-weight="normal" text-decoration="none" x="1529" y="1785.5">«artifact»</text></g></g><g transform="translate(-94,-94) scale(1,1)"><g><path fill="none" stroke="none"/><text fill="#000000" stroke="none" font-family="Arial" font-size="13px" font-style="normal" font-weight="bold" text-decoration="none" x="1463" y="1800.5">Extract_Load_Transform_run.jar</text></g></g><g transform="translate(-94,-94) scale(1,1)"><path fill="#C0C0C0" stroke="none" d="M 1267 1770.5 C 1267 1764.1487248 1272.1487248 1759 1278.5 1759 C 1284.8512752 1759 1290 1764.1487248 1290 1770.5 C 1290 1776.8512752 1284.8512752 1782 1278.5 1782 C 1272.1487248 1782 1267 1776.8512752 1267 1770.5 Z" opacity="0.2"/></g><g transform="translate(-94,-94) scale(1,1)"><path fill="none" stroke="#000000" d="M 1271.708527941089 1751.5218473543564 A 11.5 11.5 0 0 1 1270.291472058911 1774.4781526456436" stroke-miterlimit="10"/></g><g transform="translate(-94,-94) scale(1,1)"><path fill="none" stroke="#000000" d="M 1279.02544435947 1754.7633597363335 A 11.5 11.5 0 0 1 1262.97455564053 1771.2366402636665" stroke-miterlimit="10"/></g><g transform="translate(-94,-94) scale(1,1)"><path fill="#ffffff" stroke="none" d="M 1263 1763.5 C 1263 1758.8055792 1266.8055792 1755 1271.5 1755 C 1276.1944208 1755 1280 1758.8055792 1280 1763.5 C 1280 1768.1944208 1276.1944208 1772 1271.5 1772 C 1266.8055792 1772 1263 1768.1944208 1263 1763.5 Z"/></g><g transform="translate(-94,-94) scale(1,1)"><path fill="none" stroke="#000000" d="M 1263 1763.5 C 1263 1758.8055792 1266.8055792 1755 1271.5 1755 C 1276.1944208 1755 1280 1758.8055792 1280 1763.5 C 1280 1768.1944208 1276.1944208 1772 1271.5 1772 C 1266.8055792 1772 1263 1768.1944208 1263 1763.5 Z" stroke-miterlimit="10"/></g><g transform="translate(-94,-94) scale(1,1)"><g><path fill="none" stroke="none"/><text fill="#000000" stroke="none" font-family="Arial" font-size="13px" font-style="normal" font-weight="bold" text-decoration="none" x="1238.5" y="1794.5">DB Access</text></g></g><g transform="translate(-94,-94) scale(1,1)"><path fill="#C0C0C0" stroke="none" d="M 951 1929 L 1164 1929 L 1164 2022 L 951 2022" opacity="0.2"/></g><g transform="translate(-94,-94) scale(1,1)"><path fill="#C0C0C0" stroke="none" d="M 951 1929 L 961 1919 L 1174 1919 L 1164 1929" opacity="0.2"/></g><g transform="translate(-94,-94) scale(1,1)"><path fill="#C0C0C0" stroke="none" d="M 1174 1919 L 1164 1929 L 1164 2022 L 1174 2012" opacity="0.2"/></g><g transform="translate(-94,-94) scale(1,1)"><path fill="#ffffff" stroke="none" d="M 944 1922 L 1157 1922 L 1157 2015 L 944 2015"/></g><g transform="translate(-94,-94) scale(1,1)"><path fill="#ffffff" stroke="none" d="M 944 1922 L 954 1912 L 1167 1912 L 1157 1922"/></g><g transform="translate(-94,-94) scale(1,1)"><path fill="#ffffff" stroke="none" d="M 1167 1912 L 1157 1922 L 1157 2015 L 1167 2005"/></g><g transform="translate(-94,-94) scale(1,1)"><path fill="none" stroke="#000000" d="M 944 1922 L 1157 1922 L 1157 2015 L 944 2015 L 944 1922" stroke-miterlimit="10"/></g><g transform="translate(-94,-94) scale(1,1)"><path fill="none" stroke="#000000" d="M 944 1922 L 954 1912 L 1167 1912 L 1157 1922 L 944 1922" stroke-miterlimit="10"/></g><g transform="translate(-94,-94) scale(1,1)"><path fill="none" stroke="#000000" d="M 1167 1912 L 1157 1922 L 1157 2015 L 1167 2005 L 1167 1912" stroke-miterlimit="10"/></g><g transform="translate(-94,-94) scale(1,1)"><g><path fill="none" stroke="none"/><text fill="#000000" stroke="none" font-family="Arial" font-size="13px" font-style="normal" font-weight="normal" text-decoration="none" x="1025" y="1939.5">«device»</text></g></g><g transform="translate(-94,-94) scale(1,1)"><g><path fill="none" stroke="none"/><text fill="#000000" stroke="none" font-family="Arial" font-size="13px" font-style="normal" font-weight="bold" text-decoration="none" x="1001.5" y="1954.5">MongoDB Server</text></g></g><g transform="translate(-94,-94) scale(1,1)"><rect fill="#C0C0C0" stroke="none" x="999" y="1975" width="94" height="32" opacity="0.2"/></g><g transform="translate(-94,-94) scale(1,1)"><rect fill="#ffffff" stroke="none" x="992" y="1968" width="94" height="32"/></g><g transform="translate(-94,-94) scale(1,1)"><path fill="none" stroke="#000000" d="M 992 1968 L 1086 1968 L 1086 2000 L 992 2000 L 992 1968 Z Z" stroke-miterlimit="10"/></g><g transform="translate(-94,-94) scale(1,1)"><g><path fill="none" stroke="none"/><text fill="#000000" stroke="none" font-family="Arial" font-size="13px" font-style="normal" font-weight="bold" text-decoration="none" x="1010.5" y="1987.5">NoSql DB</text></g></g><g transform="translate(-94,-94) scale(1,1)"><path fill="#C0C0C0" stroke="none" d="M 1471 1953 L 1860 1953 L 1860 2126 L 1471 2126" opacity="0.2"/></g><g transform="translate(-94,-94) scale(1,1)"><path fill="#C0C0C0" stroke="none" d="M 1471 1953 L 1481 1943 L 1870 1943 L 1860 1953" opacity="0.2"/></g><g transform="translate(-94,-94) scale(1,1)"><path fill="#C0C0C0" stroke="none" d="M 1870 1943 L 1860 1953 L 1860 2126 L 1870 2116" opacity="0.2"/></g><g transform="translate(-94,-94) scale(1,1)"><path fill="#ffffff" stroke="none" d="M 1464 1946 L 1853 1946 L 1853 2119 L 1464 2119"/></g><g transform="translate(-94,-94) scale(1,1)"><path fill="#ffffff" stroke="none" d="M 1464 1946 L 1474 1936 L 1863 1936 L 1853 1946"/></g><g transform="translate(-94,-94) scale(1,1)"><path fill="#ffffff" stroke="none" d="M 1863 1936 L 1853 1946 L 1853 2119 L 1863 2109"/></g><g transform="translate(-94,-94) scale(1,1)"><path fill="none" stroke="#000000" d="M 1464 1946 L 1853 1946 L 1853 2119 L 1464 2119 L 1464 1946" stroke-miterlimit="10"/></g><g transform="translate(-94,-94) scale(1,1)"><path fill="none" stroke="#000000" d="M 1464 1946 L 1474 1936 L 1863 1936 L 1853 1946 L 1464 1946" stroke-miterlimit="10"/></g><g transform="translate(-94,-94) scale(1,1)"><path fill="none" stroke="#000000" d="M 1863 1936 L 1853 1946 L 1853 2119 L 1863 2109 L 1863 1936" stroke-miterlimit="10"/></g><g transform="translate(-94,-94) scale(1,1)"><g><path fill="none" stroke="none"/><text fill="#000000" stroke="none" font-family="Arial" font-size="13px" font-style="normal" font-weight="normal" text-decoration="none" x="1633" y="1963.5">«device»</text></g></g><g transform="translate(-94,-94) scale(1,1)"><g><path fill="none" stroke="none"/><text fill="#000000" stroke="none" font-family="Arial" font-size="13px" font-style="normal" font-weight="bold" text-decoration="none" x="1621" y="1978.5">Spark Server</text></g></g><g transform="translate(-94,-94) scale(1,1)"><path fill="#C0C0C0" stroke="none" d="M 1495 2017 L 1835 2017 L 1835 2110 L 1495 2110" opacity="0.2"/></g><g transform="translate(-94,-94) scale(1,1)"><path fill="#C0C0C0" stroke="none" d="M 1495 2017 L 1505 2007 L 1845 2007 L 1835 2017" opacity="0.2"/></g><g transform="translate(-94,-94) scale(1,1)"><path fill="#C0C0C0" stroke="none" d="M 1845 2007 L 1835 2017 L 1835 2110 L 1845 2100" opacity="0.2"/></g><g transform="translate(-94,-94) scale(1,1)"><path fill="#ffffff" stroke="none" d="M 1488 2010 L 1828 2010 L 1828 2103 L 1488 2103"/></g><g transform="translate(-94,-94) scale(1,1)"><path fill="#ffffff" stroke="none" d="M 1488 2010 L 1498 2000 L 1838 2000 L 1828 2010"/></g><g transform="translate(-94,-94) scale(1,1)"><path fill="#ffffff" stroke="none" d="M 1838 2000 L 1828 2010 L 1828 2103 L 1838 2093"/></g><g transform="translate(-94,-94) scale(1,1)"><path fill="none" stroke="#000000" d="M 1488 2010 L 1828 2010 L 1828 2103 L 1488 2103 L 1488 2010" stroke-miterlimit="10"/></g><g transform="translate(-94,-94) scale(1,1)"><path fill="none" stroke="#000000" d="M 1488 2010 L 1498 2000 L 1838 2000 L 1828 2010 L 1488 2010" stroke-miterlimit="10"/></g><g transform="translate(-94,-94) scale(1,1)"><path fill="none" stroke="#000000" d="M 1838 2000 L 1828 2010 L 1828 2103 L 1838 2093 L 1838 2000" stroke-miterlimit="10"/></g><g transform="translate(-94,-94) scale(1,1)"><g><path fill="none" stroke="none"/><text fill="#000000" stroke="none" font-family="Arial" font-size="13px" font-style="normal" font-weight="normal" text-decoration="none" x="1587" y="2027.5">«executionEnvironment»</text></g></g><g transform="translate(-94,-94) scale(1,1)"><g><path fill="none" stroke="none"/><text fill="#000000" stroke="none" font-family="Arial" font-size="13px" font-style="normal" font-weight="bold" text-decoration="none" x="1645" y="2042.5">JVM</text></g></g><g transform="translate(-94,-94) scale(1,1)"><rect fill="#C0C0C0" stroke="none" x="1551" y="2055" width="238" height="40" opacity="0.2"/></g><g transform="translate(-94,-94) scale(1,1)"><rect fill="#ffffff" stroke="none" x="1544" y="2048" width="238" height="40"/></g><g transform="translate(-94,-94) scale(1,1)"><path fill="none" stroke="#000000" d="M 1544 2048 L 1782 2048 L 1782 2088 L 1544 2088 L 1544 2048 Z Z" stroke-miterlimit="10"/></g><g transform="translate(-94,-94) scale(1,1)"><path fill="#ffffff" stroke="none" d="M 1755.4 2053 L 1768.8400000000001 2053 L 1774.6000000000001 2058.76 L 1774.6000000000001 2077 L 1755.4 2077"/></g><g transform="translate(-94,-94) scale(1,1)"><path fill="none" stroke="#000000" d="M 1755.4 2053 L 1768.8400000000001 2053 L 1774.6000000000001 2058.76 L 1774.6000000000001 2077 L 1755.4 2077 L 1755.4 2053" stroke-miterlimit="10"/></g><g transform="translate(-94,-94) scale(1,1)"><path fill="none" stroke="#000000" d="M 1768.8400000000001 2053 L 1768.8400000000001 2058.76 L 1774.6000000000001 2058.76 L 1768.8400000000001 2053" stroke-miterlimit="10"/></g><g transform="translate(-94,-94) scale(1,1)"><g><path fill="none" stroke="none"/><text fill="#000000" stroke="none" font-family="Arial" font-size="13px" font-style="normal" font-weight="normal" text-decoration="none" x="1624" y="2065.5">«artifact»</text></g></g><g transform="translate(-94,-94) scale(1,1)"><g><path fill="none" stroke="none"/><text fill="#000000" stroke="none" font-family="Arial" font-size="13px" font-style="normal" font-weight="bold" text-decoration="none" x="1561" y="2080.5">bigdata_complaintsAnalysis.jar</text></g></g><g transform="translate(-94,-94) scale(1,1)"><path fill="#C0C0C0" stroke="none" d="M 1287 1994.5 C 1287 1988.1487248 1292.1487248 1983 1298.5 1983 C 1304.8512752 1983 1310 1988.1487248 1310 1994.5 C 1310 2000.8512752 1304.8512752 2006 1298.5 2006 C 1292.1487248 2006 1287 2000.8512752 1287 1994.5 Z" opacity="0.2"/></g><g transform="translate(-94,-94) scale(1,1)"><path fill="none" stroke="#000000" d="M 1294.2547008885485 1975.9701803221412 A 11.5 11.5 0 0 1 1287.7452991114515 1998.0298196778588" stroke-miterlimit="10"/></g><g transform="translate(-94,-94) scale(1,1)"><path fill="#ffffff" stroke="none" d="M 1283 1987.5 C 1283 1982.8055792 1286.8055792 1979 1291.5 1979 C 1296.1944208 1979 1300 1982.8055792 1300 1987.5 C 1300 1992.1944208 1296.1944208 1996 1291.5 1996 C 1286.8055792 1996 1283 1992.1944208 1283 1987.5 Z"/></g><g transform="translate(-94,-94) scale(1,1)"><path fill="none" stroke="#000000" d="M 1283 1987.5 C 1283 1982.8055792 1286.8055792 1979 1291.5 1979 C 1296.1944208 1979 1300 1982.8055792 1300 1987.5 C 1300 1992.1944208 1296.1944208 1996 1291.5 1996 C 1286.8055792 1996 1283 1992.1944208 1283 1987.5 Z" stroke-miterlimit="10"/></g><g transform="translate(-94,-94) scale(1,1)"><g><path fill="none" stroke="none"/><text fill="#000000" stroke="none" font-family="Arial" font-size="13px" font-style="normal" font-weight="bold" text-decoration="none" x="1258.5" y="2018.5">DB Access</text></g></g><g transform="translate(-94,-94) scale(1,1)"><path fill="none" stroke="#000000" d="M 1391 1765 L 1283 1763.7407407407406" stroke-miterlimit="10"/></g><g transform="translate(-94,-94) scale(1,1)"><g><path fill="none" stroke="none"/><text fill="#000000" stroke="none" font-family="Arial" font-size="13px" font-style="normal" font-weight="normal" text-decoration="none" x="1174.5" y="1755.5">+port 3306</text></g></g><g transform="translate(-94,-94) scale(1,1)"><path fill="none" stroke="#000000" d="M 1161 1768 L 1260 1763.9625" stroke-miterlimit="10"/></g><g transform="translate(-94,-94) scale(1,1)"><g><path fill="none" stroke="none"/><text fill="#000000" stroke="none" font-family="Arial" font-size="13px" font-style="normal" font-weight="normal" text-decoration="none" x="1318.5" y="1756.5">+jdbc</text></g></g><g transform="translate(-94,-94) scale(1,1)"><path fill="none" stroke="#000000" d="M 1463 2013 L 1303 1990.5409836065573" stroke-miterlimit="10"/></g><g transform="translate(-94,-94) scale(1,1)"><g><path fill="none" stroke="none"/><text fill="#000000" stroke="none" font-family="Arial" font-size="13px" font-style="normal" font-weight="normal" text-decoration="none" x="1343.5" y="1996.5">+MongoSpark</text></g></g><g transform="translate(-94,-94) scale(1,1)"><path fill="none" stroke="#000000" d="M 1169 1981 L 1280 1987.7333333333333" stroke-miterlimit="10"/></g><g transform="translate(-94,-94) scale(1,1)"><g><path fill="none" stroke="none"/><text fill="#000000" stroke="none" font-family="Arial" font-size="13px" font-style="normal" font-weight="normal" text-decoration="none" x="1191.5" y="1980.5">+port 27017</text></g></g><g transform="translate(-94,-94) scale(1,1)"><path fill="none" stroke="#000000" d="M 1519 1935 L 1283 1774.6923076923076" stroke-miterlimit="10"/></g><g transform="translate(-94,-94) scale(1,1)"><g><path fill="none" stroke="none"/><text fill="#000000" stroke="none" font-family="Arial" font-size="13px" font-style="normal" font-weight="normal" text-decoration="none" x="1375.5" y="1872.5">+jdbc</text></g></g></g></svg>