<svg version="1.1" xmlns="http://www.w3.org/2000/svg" xmlns:xlink="http://www.w3.org/1999/xlink" width="1148" height="796"><defs/><g><g transform="translate(-62,-6) scale(1,1)"><path fill="none" stroke="#000000" d="M 72 16 L 1200 16 L 1200 792 L 72 792 L 72 16" stroke-miterlimit="10"/></g><g transform="translate(-62,-6) scale(1,1)"><path fill="#ffffff" stroke="none" d="M 72 16 L 72 38 L 265.06787109375 38 L 276.06787109375 27 L 276.06787109375 16 L 72 16"/></g><g transform="translate(-62,-6) scale(1,1)"><path fill="none" stroke="#000000" d="M 72 16 L 72 38 L 265.06787109375 38 L 276.06787109375 27 L 276.06787109375 16 L 72 16 L 72 16" stroke-miterlimit="10"/></g><g transform="translate(-62,-6) scale(1,1)"><g><path fill="none" stroke="none"/><text fill="#000000" stroke="none" font-family="Arial" font-size="13px" font-style="normal" font-weight="normal" text-decoration="none" x="150.208984375" y="33.5">esibank_BI_deploy</text></g></g><g transform="translate(-62,-6) scale(1,1)"><g><path fill="none" stroke="none"/><text fill="#000000" stroke="none" font-family="Arial" font-size="13px" font-style="normal" font-weight="bold" text-decoration="none" x="77" y="33.5">deployment</text></g></g><g transform="translate(-62,-6) scale(1,1)"><path fill="#C0C0C0" stroke="none" d="M 919 137 L 1180 137 L 1180 374 L 919 374" opacity="0.2"/></g><g transform="translate(-62,-6) scale(1,1)"><path fill="#C0C0C0" stroke="none" d="M 919 137 L 929 127 L 1190 127 L 1180 137" opacity="0.2"/></g><g transform="translate(-62,-6) scale(1,1)"><path fill="#C0C0C0" stroke="none" d="M 1190 127 L 1180 137 L 1180 374 L 1190 364" opacity="0.2"/></g><g transform="translate(-62,-6) scale(1,1)"><path fill="#ffffff" stroke="none" d="M 912 130 L 1173 130 L 1173 367 L 912 367"/></g><g transform="translate(-62,-6) scale(1,1)"><path fill="#ffffff" stroke="none" d="M 912 130 L 922 120 L 1183 120 L 1173 130"/></g><g transform="translate(-62,-6) scale(1,1)"><path fill="#ffffff" stroke="none" d="M 1183 120 L 1173 130 L 1173 367 L 1183 357"/></g><g transform="translate(-62,-6) scale(1,1)"><path fill="none" stroke="#000000" d="M 912 130 L 1173 130 L 1173 367 L 912 367 L 912 130" stroke-miterlimit="10"/></g><g transform="translate(-62,-6) scale(1,1)"><path fill="none" stroke="#000000" d="M 912 130 L 922 120 L 1183 120 L 1173 130 L 912 130" stroke-miterlimit="10"/></g><g transform="translate(-62,-6) scale(1,1)"><path fill="none" stroke="#000000" d="M 1183 120 L 1173 130 L 1173 367 L 1183 357 L 1183 120" stroke-miterlimit="10"/></g><g transform="translate(-62,-6) scale(1,1)"><g><path fill="none" stroke="none"/><text fill="#000000" stroke="none" font-family="Arial" font-size="13px" font-style="normal" font-weight="bold" text-decoration="none" x="966.0283203125" y="149.5">esibank_proto_decisionnel</text></g></g><g transform="translate(-62,-6) scale(1,1)"><path fill="#C0C0C0" stroke="none" d="M 543 121 L 748 121 L 748 374 L 543 374" opacity="0.2"/></g><g transform="translate(-62,-6) scale(1,1)"><path fill="#C0C0C0" stroke="none" d="M 543 121 L 553 111 L 758 111 L 748 121" opacity="0.2"/></g><g transform="translate(-62,-6) scale(1,1)"><path fill="#C0C0C0" stroke="none" d="M 758 111 L 748 121 L 748 374 L 758 364" opacity="0.2"/></g><g transform="translate(-62,-6) scale(1,1)"><path fill="#ffffff" stroke="none" d="M 536 114 L 741 114 L 741 367 L 536 367"/></g><g transform="translate(-62,-6) scale(1,1)"><path fill="#ffffff" stroke="none" d="M 536 114 L 546 104 L 751 104 L 741 114"/></g><g transform="translate(-62,-6) scale(1,1)"><path fill="#ffffff" stroke="none" d="M 751 104 L 741 114 L 741 367 L 751 357"/></g><g transform="translate(-62,-6) scale(1,1)"><path fill="none" stroke="#000000" d="M 536 114 L 741 114 L 741 367 L 536 367 L 536 114" stroke-miterlimit="10"/></g><g transform="translate(-62,-6) scale(1,1)"><path fill="none" stroke="#000000" d="M 536 114 L 546 104 L 751 104 L 741 114 L 536 114" stroke-miterlimit="10"/></g><g transform="translate(-62,-6) scale(1,1)"><path fill="none" stroke="#000000" d="M 751 104 L 741 114 L 741 367 L 751 357 L 751 104" stroke-miterlimit="10"/></g><g transform="translate(-62,-6) scale(1,1)"><g><path fill="none" stroke="none"/><text fill="#000000" stroke="none" font-family="Arial" font-size="13px" font-style="normal" font-weight="normal" text-decoration="none" x="618.40185546875" y="131.5">«linux»</text></g></g><g transform="translate(-62,-6) scale(1,1)"><g><path fill="none" stroke="none"/><text fill="#000000" stroke="none" font-family="Arial" font-size="13px" font-style="normal" font-weight="bold" text-decoration="none" x="595.27099609375" y="146.5">esibank_talend</text></g></g><g transform="translate(-62,-6) scale(1,1)"><rect fill="#C0C0C0" stroke="none" x="593" y="223" width="125.90087890625" height="44" opacity="0.2"/></g><g transform="translate(-62,-6) scale(1,1)"><rect fill="#ffffff" stroke="none" x="586" y="216" width="125.90087890625" height="44"/></g><g transform="translate(-62,-6) scale(1,1)"><path fill="none" stroke="#000000" d="M 586 216 L 711.90087890625 216 L 711.90087890625 260 L 586 260 L 586 216 Z Z" stroke-miterlimit="10"/></g><g transform="translate(-62,-6) scale(1,1)"><rect fill="#ffffff" stroke="none" x="576" y="223" width="20" height="10"/></g><g transform="translate(-62,-6) scale(1,1)"><path fill="none" stroke="#000000" d="M 576 223 L 596 223 L 596 233 L 576 233 L 576 223 Z Z" stroke-miterlimit="10"/></g><g transform="translate(-62,-6) scale(1,1)"><rect fill="#ffffff" stroke="none" x="576" y="243" width="20" height="10"/></g><g transform="translate(-62,-6) scale(1,1)"><path fill="none" stroke="#000000" d="M 576 243 L 596 243 L 596 253 L 576 253 L 576 243 Z Z" stroke-miterlimit="10"/></g><g transform="translate(-62,-6) scale(1,1)"><g><path fill="none" stroke="none"/><text fill="#000000" stroke="none" font-family="Arial" font-size="13px" font-style="normal" font-weight="normal" text-decoration="none" x="639.496826171875" y="233.5">«jar»</text></g></g><g transform="translate(-62,-6) scale(1,1)"><g><path fill="none" stroke="none"/><text fill="#000000" stroke="none" font-family="Arial" font-size="13px" font-style="normal" font-weight="bold" text-decoration="none" x="604.79736328125" y="248.5">Job_ods_loading</text></g></g><g transform="translate(-62,-6) scale(1,1)"><path fill="#C0C0C0" stroke="none" d="M 167 129 L 412 129 L 412 349 L 167 349" opacity="0.2"/></g><g transform="translate(-62,-6) scale(1,1)"><path fill="#C0C0C0" stroke="none" d="M 167 129 L 177 119 L 422 119 L 412 129" opacity="0.2"/></g><g transform="translate(-62,-6) scale(1,1)"><path fill="#C0C0C0" stroke="none" d="M 422 119 L 412 129 L 412 349 L 422 339" opacity="0.2"/></g><g transform="translate(-62,-6) scale(1,1)"><path fill="#ffffff" stroke="none" d="M 160 122 L 405 122 L 405 342 L 160 342"/></g><g transform="translate(-62,-6) scale(1,1)"><path fill="#ffffff" stroke="none" d="M 160 122 L 170 112 L 415 112 L 405 122"/></g><g transform="translate(-62,-6) scale(1,1)"><path fill="#ffffff" stroke="none" d="M 415 112 L 405 122 L 405 342 L 415 332"/></g><g transform="translate(-62,-6) scale(1,1)"><path fill="none" stroke="#000000" d="M 160 122 L 405 122 L 405 342 L 160 342 L 160 122" stroke-miterlimit="10"/></g><g transform="translate(-62,-6) scale(1,1)"><path fill="none" stroke="#000000" d="M 160 122 L 170 112 L 415 112 L 405 122 L 160 122" stroke-miterlimit="10"/></g><g transform="translate(-62,-6) scale(1,1)"><path fill="none" stroke="#000000" d="M 415 112 L 405 122 L 405 342 L 415 332 L 415 112" stroke-miterlimit="10"/></g><g transform="translate(-62,-6) scale(1,1)"><g><path fill="none" stroke="none"/><text fill="#000000" stroke="none" font-family="Arial" font-size="13px" font-style="normal" font-weight="normal" text-decoration="none" x="262.40185546875" y="139.5">«linux»</text></g></g><g transform="translate(-62,-6) scale(1,1)"><g><path fill="none" stroke="none"/><text fill="#000000" stroke="none" font-family="Arial" font-size="13px" font-style="normal" font-weight="bold" text-decoration="none" x="240.00732421875" y="154.5">esibank_mysql</text></g></g><g transform="translate(-62,-6) scale(1,1)"><rect fill="#C0C0C0" stroke="none" x="225" y="183" width="130.96630859375" height="44" opacity="0.2"/></g><g transform="translate(-62,-6) scale(1,1)"><rect fill="#ffffff" stroke="none" x="218" y="176" width="130.96630859375" height="44"/></g><g transform="translate(-62,-6) scale(1,1)"><path fill="none" stroke="#000000" d="M 218 176 L 348.96630859375 176 L 348.96630859375 220 L 218 220 L 218 176 Z Z" stroke-miterlimit="10"/></g><g transform="translate(-62,-6) scale(1,1)"><rect fill="#ffffff" stroke="none" x="208" y="183" width="20" height="10"/></g><g transform="translate(-62,-6) scale(1,1)"><path fill="none" stroke="#000000" d="M 208 183 L 228 183 L 228 193 L 208 193 L 208 183 Z Z" stroke-miterlimit="10"/></g><g transform="translate(-62,-6) scale(1,1)"><rect fill="#ffffff" stroke="none" x="208" y="203" width="20" height="10"/></g><g transform="translate(-62,-6) scale(1,1)"><path fill="none" stroke="#000000" d="M 208 203 L 228 203 L 228 213 L 208 213 L 208 203 Z Z" stroke-miterlimit="10"/></g><g transform="translate(-62,-6) scale(1,1)"><g><path fill="none" stroke="none"/><text fill="#000000" stroke="none" font-family="Arial" font-size="13px" font-style="normal" font-weight="normal" text-decoration="none" x="264.279541015625" y="193.5">«mysql»</text></g></g><g transform="translate(-62,-6) scale(1,1)"><g><path fill="none" stroke="none"/><text fill="#000000" stroke="none" font-family="Arial" font-size="13px" font-style="normal" font-weight="bold" text-decoration="none" x="236.8037109375" y="208.5">esibank_proto_db</text></g></g><g transform="translate(-62,-6) scale(1,1)"><path fill="none" stroke="#000000" d="M 417 230 L 535 233" stroke-miterlimit="10"/></g><g transform="translate(-62,-6) scale(1,1)"><g><path fill="none" stroke="none"/><text fill="#000000" stroke="none" font-family="Arial" font-size="13px" font-style="normal" font-weight="normal" text-decoration="none" x="451.5" y="222.5">+TCP IP</text></g></g><g transform="translate(-62,-6) scale(1,1)"><path fill="#C0C0C0" stroke="none" d="M 935 513 L 1156 513 L 1156 686 L 935 686" opacity="0.2"/></g><g transform="translate(-62,-6) scale(1,1)"><path fill="#C0C0C0" stroke="none" d="M 935 513 L 945 503 L 1166 503 L 1156 513" opacity="0.2"/></g><g transform="translate(-62,-6) scale(1,1)"><path fill="#C0C0C0" stroke="none" d="M 1166 503 L 1156 513 L 1156 686 L 1166 676" opacity="0.2"/></g><g transform="translate(-62,-6) scale(1,1)"><path fill="#ffffff" stroke="none" d="M 928 506 L 1149 506 L 1149 679 L 928 679"/></g><g transform="translate(-62,-6) scale(1,1)"><path fill="#ffffff" stroke="none" d="M 928 506 L 938 496 L 1159 496 L 1149 506"/></g><g transform="translate(-62,-6) scale(1,1)"><path fill="#ffffff" stroke="none" d="M 1159 496 L 1149 506 L 1149 679 L 1159 669"/></g><g transform="translate(-62,-6) scale(1,1)"><path fill="none" stroke="#000000" d="M 928 506 L 1149 506 L 1149 679 L 928 679 L 928 506" stroke-miterlimit="10"/></g><g transform="translate(-62,-6) scale(1,1)"><path fill="none" stroke="#000000" d="M 928 506 L 938 496 L 1159 496 L 1149 506 L 928 506" stroke-miterlimit="10"/></g><g transform="translate(-62,-6) scale(1,1)"><path fill="none" stroke="#000000" d="M 1159 496 L 1149 506 L 1149 679 L 1159 669 L 1159 496" stroke-miterlimit="10"/></g><g transform="translate(-62,-6) scale(1,1)"><g><path fill="none" stroke="none"/><text fill="#000000" stroke="none" font-family="Arial" font-size="13px" font-style="normal" font-weight="normal" text-decoration="none" x="1006.8427734375" y="523.5">«windows»</text></g></g><g transform="translate(-62,-6) scale(1,1)"><g><path fill="none" stroke="none"/><text fill="#000000" stroke="none" font-family="Arial" font-size="13px" font-style="normal" font-weight="bold" text-decoration="none" x="989.13916015625" y="538.5">esibank_qlikView</text></g></g><g transform="translate(-62,-6) scale(1,1)"><rect fill="#C0C0C0" stroke="none" x="1001" y="591" width="98.44091796875" height="44" opacity="0.2"/></g><g transform="translate(-62,-6) scale(1,1)"><rect fill="#ffffff" stroke="none" x="994" y="584" width="98.44091796875" height="44"/></g><g transform="translate(-62,-6) scale(1,1)"><path fill="none" stroke="#000000" d="M 994 584 L 1092.44091796875 584 L 1092.44091796875 628 L 994 628 L 994 584 Z Z" stroke-miterlimit="10"/></g><g transform="translate(-62,-6) scale(1,1)"><rect fill="#ffffff" stroke="none" x="984" y="591" width="20" height="10"/></g><g transform="translate(-62,-6) scale(1,1)"><path fill="none" stroke="#000000" d="M 984 591 L 1004 591 L 1004 601 L 984 601 L 984 591 Z Z" stroke-miterlimit="10"/></g><g transform="translate(-62,-6) scale(1,1)"><rect fill="#ffffff" stroke="none" x="984" y="611" width="20" height="10"/></g><g transform="translate(-62,-6) scale(1,1)"><path fill="none" stroke="#000000" d="M 984 611 L 1004 611 L 1004 621 L 984 621 L 984 611 Z Z" stroke-miterlimit="10"/></g><g transform="translate(-62,-6) scale(1,1)"><g><path fill="none" stroke="none"/><text fill="#000000" stroke="none" font-family="Arial" font-size="13px" font-style="normal" font-weight="normal" text-decoration="none" x="1021.484130859375" y="601.5">«artifact»</text></g></g><g transform="translate(-62,-6) scale(1,1)"><g><path fill="none" stroke="none"/><text fill="#000000" stroke="none" font-family="Arial" font-size="13px" font-style="normal" font-weight="bold" text-decoration="none" x="1022.937744140625" y="616.5">QlikView</text></g></g><g transform="translate(-62,-6) scale(1,1)"><rect fill="#C0C0C0" stroke="none" x="953" y="231" width="209.71533203125" height="44" opacity="0.2"/></g><g transform="translate(-62,-6) scale(1,1)"><rect fill="#ffffff" stroke="none" x="946" y="224" width="209.71533203125" height="44"/></g><g transform="translate(-62,-6) scale(1,1)"><path fill="none" stroke="#000000" d="M 946 224 L 1155.71533203125 224 L 1155.71533203125 268 L 946 268 L 946 224 Z Z" stroke-miterlimit="10"/></g><g transform="translate(-62,-6) scale(1,1)"><rect fill="#ffffff" stroke="none" x="936" y="231" width="20" height="10"/></g><g transform="translate(-62,-6) scale(1,1)"><path fill="none" stroke="#000000" d="M 936 231 L 956 231 L 956 241 L 936 241 L 936 231 Z Z" stroke-miterlimit="10"/></g><g transform="translate(-62,-6) scale(1,1)"><rect fill="#ffffff" stroke="none" x="936" y="251" width="20" height="10"/></g><g transform="translate(-62,-6) scale(1,1)"><path fill="none" stroke="#000000" d="M 936 251 L 956 251 L 956 261 L 936 261 L 936 251 Z Z" stroke-miterlimit="10"/></g><g transform="translate(-62,-6) scale(1,1)"><g><path fill="none" stroke="none"/><text fill="#000000" stroke="none" font-family="Arial" font-size="13px" font-style="normal" font-weight="normal" text-decoration="none" x="1031.654052734375" y="241.5">«mysql»</text></g></g><g transform="translate(-62,-6) scale(1,1)"><g><path fill="none" stroke="none"/><text fill="#000000" stroke="none" font-family="Arial" font-size="13px" font-style="normal" font-weight="bold" text-decoration="none" x="968.041015625" y="256.5">esibank_proto_db_decisionnel</text></g></g><g transform="translate(-62,-6) scale(1,1)"><path fill="none" stroke="#000000" d="M 753 238 L 911 241" stroke-miterlimit="10"/></g><g transform="translate(-62,-6) scale(1,1)"><g><path fill="none" stroke="none"/><text fill="#000000" stroke="none" font-family="Arial" font-size="13px" font-style="normal" font-weight="normal" text-decoration="none" x="807.5" y="230.5">+TCP IP</text></g></g><g transform="translate(-62,-6) scale(1,1)"><path fill="none" stroke="#000000" d="M 1045 495 L 1047 369" stroke-miterlimit="10"/></g><g transform="translate(-62,-6) scale(1,1)"><g><path fill="none" stroke="none"/><text fill="#000000" stroke="none" font-family="Arial" font-size="13px" font-style="normal" font-weight="normal" text-decoration="none" x="975.5" y="444.5">+TCP IP</text></g></g></g></svg>