<svg version="1.1" xmlns="http://www.w3.org/2000/svg" xmlns:xlink="http://www.w3.org/1999/xlink" width="687" height="448"><defs/><g><g transform="translate(-14,-30) scale(1,1)"><rect fill="#C0C0C0" stroke="none" x="489" y="127" width="209" height="44" opacity="0.2"/></g><g transform="translate(-14,-30) scale(1,1)"><rect fill="#ffffff" stroke="none" x="482" y="120" width="209" height="44"/></g><g transform="translate(-14,-30) scale(1,1)"><path fill="none" stroke="#000000" d="M 482 120 L 691 120 L 691 164 L 482 164 L 482 120 Z Z" stroke-miterlimit="10"/></g><g transform="translate(-14,-30) scale(1,1)"><rect fill="#ffffff" stroke="none" x="472" y="127" width="20" height="10"/></g><g transform="translate(-14,-30) scale(1,1)"><path fill="none" stroke="#000000" d="M 472 127 L 492 127 L 492 137 L 472 137 L 472 127 Z Z" stroke-miterlimit="10"/></g><g transform="translate(-14,-30) scale(1,1)"><rect fill="#ffffff" stroke="none" x="472" y="147" width="20" height="10"/></g><g transform="translate(-14,-30) scale(1,1)"><path fill="none" stroke="#000000" d="M 472 147 L 492 147 L 492 157 L 472 157 L 472 147 Z Z" stroke-miterlimit="10"/></g><g transform="translate(-14,-30) scale(1,1)"><g><path fill="none" stroke="none"/><text fill="#000000" stroke="none" font-family="Arial" font-size="13px" font-style="normal" font-weight="normal" text-decoration="none" x="567" y="137.5">«mysql»</text></g></g><g transform="translate(-14,-30) scale(1,1)"><g><path fill="none" stroke="none"/><text fill="#000000" stroke="none" font-family="Arial" font-size="13px" font-style="normal" font-weight="bold" text-decoration="none" x="504.5" y="152.5">esibank_proto_db_decisionnel</text></g></g><g transform="translate(-14,-30) scale(1,1)"><rect fill="#C0C0C0" stroke="none" x="57" y="143" width="130" height="44" opacity="0.2"/></g><g transform="translate(-14,-30) scale(1,1)"><rect fill="#ffffff" stroke="none" x="50" y="136" width="130" height="44"/></g><g transform="translate(-14,-30) scale(1,1)"><path fill="none" stroke="#000000" d="M 50 136 L 180 136 L 180 180 L 50 180 L 50 136 Z Z" stroke-miterlimit="10"/></g><g transform="translate(-14,-30) scale(1,1)"><rect fill="#ffffff" stroke="none" x="40" y="143" width="20" height="10"/></g><g transform="translate(-14,-30) scale(1,1)"><path fill="none" stroke="#000000" d="M 40 143 L 60 143 L 60 153 L 40 153 L 40 143 Z Z" stroke-miterlimit="10"/></g><g transform="translate(-14,-30) scale(1,1)"><rect fill="#ffffff" stroke="none" x="40" y="163" width="20" height="10"/></g><g transform="translate(-14,-30) scale(1,1)"><path fill="none" stroke="#000000" d="M 40 163 L 60 163 L 60 173 L 40 173 L 40 163 Z Z" stroke-miterlimit="10"/></g><g transform="translate(-14,-30) scale(1,1)"><g><path fill="none" stroke="none"/><text fill="#000000" stroke="none" font-family="Arial" font-size="13px" font-style="normal" font-weight="normal" text-decoration="none" x="95.5" y="153.5">«mysql»</text></g></g><g transform="translate(-14,-30) scale(1,1)"><g><path fill="none" stroke="none"/><text fill="#000000" stroke="none" font-family="Arial" font-size="13px" font-style="normal" font-weight="bold" text-decoration="none" x="69" y="168.5">esibank_proto_db</text></g></g><g transform="translate(-14,-30) scale(1,1)"><rect fill="#C0C0C0" stroke="none" x="257" y="207" width="216" height="44" opacity="0.2"/></g><g transform="translate(-14,-30) scale(1,1)"><rect fill="#ffffff" stroke="none" x="250" y="200" width="216" height="44"/></g><g transform="translate(-14,-30) scale(1,1)"><path fill="none" stroke="#000000" d="M 250 200 L 466 200 L 466 244 L 250 244 L 250 200 Z Z" stroke-miterlimit="10"/></g><g transform="translate(-14,-30) scale(1,1)"><rect fill="#ffffff" stroke="none" x="240" y="207" width="20" height="10"/></g><g transform="translate(-14,-30) scale(1,1)"><path fill="none" stroke="#000000" d="M 240 207 L 260 207 L 260 217 L 240 217 L 240 207 Z Z" stroke-miterlimit="10"/></g><g transform="translate(-14,-30) scale(1,1)"><rect fill="#ffffff" stroke="none" x="240" y="227" width="20" height="10"/></g><g transform="translate(-14,-30) scale(1,1)"><path fill="none" stroke="#000000" d="M 240 227 L 260 227 L 260 237 L 240 237 L 240 227 Z Z" stroke-miterlimit="10"/></g><g transform="translate(-14,-30) scale(1,1)"><g><path fill="none" stroke="none"/><text fill="#000000" stroke="none" font-family="Arial" font-size="13px" font-style="normal" font-weight="normal" text-decoration="none" x="349" y="217.5">«jar»</text></g></g><g transform="translate(-14,-30) scale(1,1)"><g><path fill="none" stroke="none"/><text fill="#000000" stroke="none" font-family="Arial" font-size="13px" font-style="normal" font-weight="bold" text-decoration="none" x="270.5" y="232.5">mysql-connector-java-5.1.30-bin</text></g></g><g transform="translate(-14,-30) scale(1,1)"><rect fill="#C0C0C0" stroke="none" x="273" y="431" width="222" height="44" opacity="0.2"/></g><g transform="translate(-14,-30) scale(1,1)"><rect fill="#ffffff" stroke="none" x="266" y="424" width="222" height="44"/></g><g transform="translate(-14,-30) scale(1,1)"><path fill="none" stroke="#000000" d="M 266 424 L 488 424 L 488 468 L 266 468 L 266 424 Z Z" stroke-miterlimit="10"/></g><g transform="translate(-14,-30) scale(1,1)"><rect fill="#ffffff" stroke="none" x="256" y="431" width="20" height="10"/></g><g transform="translate(-14,-30) scale(1,1)"><path fill="none" stroke="#000000" d="M 256 431 L 276 431 L 276 441 L 256 441 L 256 431 Z Z" stroke-miterlimit="10"/></g><g transform="translate(-14,-30) scale(1,1)"><rect fill="#ffffff" stroke="none" x="256" y="451" width="20" height="10"/></g><g transform="translate(-14,-30) scale(1,1)"><path fill="none" stroke="#000000" d="M 256 451 L 276 451 L 276 461 L 256 461 L 256 451 Z Z" stroke-miterlimit="10"/></g><g transform="translate(-14,-30) scale(1,1)"><g><path fill="none" stroke="none"/><text fill="#000000" stroke="none" font-family="Arial" font-size="13px" font-style="normal" font-weight="normal" text-decoration="none" x="341.5" y="441.5">«Script Shell»</text></g></g><g transform="translate(-14,-30) scale(1,1)"><g><path fill="none" stroke="none"/><text fill="#000000" stroke="none" font-family="Arial" font-size="13px" font-style="normal" font-weight="bold" text-decoration="none" x="295" y="456.5">data_extract_transform.0.1.sh</text></g></g><g transform="translate(-14,-30) scale(1,1)"><rect fill="#C0C0C0" stroke="none" x="257" y="327" width="222" height="44" opacity="0.2"/></g><g transform="translate(-14,-30) scale(1,1)"><rect fill="#ffffff" stroke="none" x="250" y="320" width="222" height="44"/></g><g transform="translate(-14,-30) scale(1,1)"><path fill="none" stroke="#000000" d="M 250 320 L 472 320 L 472 364 L 250 364 L 250 320 Z Z" stroke-miterlimit="10"/></g><g transform="translate(-14,-30) scale(1,1)"><rect fill="#ffffff" stroke="none" x="240" y="327" width="20" height="10"/></g><g transform="translate(-14,-30) scale(1,1)"><path fill="none" stroke="#000000" d="M 240 327 L 260 327 L 260 337 L 240 337 L 240 327 Z Z" stroke-miterlimit="10"/></g><g transform="translate(-14,-30) scale(1,1)"><rect fill="#ffffff" stroke="none" x="240" y="347" width="20" height="10"/></g><g transform="translate(-14,-30) scale(1,1)"><path fill="none" stroke="#000000" d="M 240 347 L 260 347 L 260 357 L 240 357 L 240 347 Z Z" stroke-miterlimit="10"/></g><g transform="translate(-14,-30) scale(1,1)"><g><path fill="none" stroke="none"/><text fill="#000000" stroke="none" font-family="Arial" font-size="13px" font-style="normal" font-weight="normal" text-decoration="none" x="352" y="337.5">«jar»</text></g></g><g transform="translate(-14,-30) scale(1,1)"><g><path fill="none" stroke="none"/><text fill="#000000" stroke="none" font-family="Arial" font-size="13px" font-style="normal" font-weight="bold" text-decoration="none" x="279" y="352.5">data_extract_transform.0.1.jar</text></g></g><g transform="translate(-14,-30) scale(1,1)"><rect fill="#C0C0C0" stroke="none" x="577" y="311" width="98" height="44" opacity="0.2"/></g><g transform="translate(-14,-30) scale(1,1)"><rect fill="#ffffff" stroke="none" x="570" y="304" width="98" height="44"/></g><g transform="translate(-14,-30) scale(1,1)"><path fill="none" stroke="#000000" d="M 570 304 L 668 304 L 668 348 L 570 348 L 570 304 Z Z" stroke-miterlimit="10"/></g><g transform="translate(-14,-30) scale(1,1)"><rect fill="#ffffff" stroke="none" x="560" y="311" width="20" height="10"/></g><g transform="translate(-14,-30) scale(1,1)"><path fill="none" stroke="#000000" d="M 560 311 L 580 311 L 580 321 L 560 321 L 560 311 Z Z" stroke-miterlimit="10"/></g><g transform="translate(-14,-30) scale(1,1)"><rect fill="#ffffff" stroke="none" x="560" y="331" width="20" height="10"/></g><g transform="translate(-14,-30) scale(1,1)"><path fill="none" stroke="#000000" d="M 560 331 L 580 331 L 580 341 L 560 341 L 560 331 Z Z" stroke-miterlimit="10"/></g><g transform="translate(-14,-30) scale(1,1)"><g><path fill="none" stroke="none"/><text fill="#000000" stroke="none" font-family="Arial" font-size="13px" font-style="normal" font-weight="bold" text-decoration="none" x="600.5" y="323.5">JRE-1.8</text></g></g><g transform="translate(-14,-30) scale(1,1)"><path fill="none" stroke="#000000" d="M 473 335 L 559 329" stroke-miterlimit="10" stroke-dasharray="3"/></g><g transform="translate(-14,-30) scale(1,1)"><path fill="none" stroke="#000000" d="M 549.1549437273908 333.90661461591975 L 559 329 L 548.5689934808889 325.50799441606074" stroke-miterlimit="10"/></g><g transform="translate(-14,-30) scale(1,1)"><path fill="none" stroke="#000000" d="M 368 423 L 360 365" stroke-miterlimit="10" stroke-dasharray="3"/></g><g transform="translate(-14,-30) scale(1,1)"><path fill="none" stroke="#000000" d="M 365.5586386735307 374.49218289420975 L 360 365 L 357.2185642074607 375.6425379929781" stroke-miterlimit="10"/></g><g transform="translate(-14,-30) scale(1,1)"><rect fill="#C0C0C0" stroke="none" x="593" y="423" width="98" height="44" opacity="0.2"/></g><g transform="translate(-14,-30) scale(1,1)"><rect fill="#ffffff" stroke="none" x="586" y="416" width="98" height="44"/></g><g transform="translate(-14,-30) scale(1,1)"><path fill="none" stroke="#000000" d="M 586 416 L 684 416 L 684 460 L 586 460 L 586 416 Z Z" stroke-miterlimit="10"/></g><g transform="translate(-14,-30) scale(1,1)"><rect fill="#ffffff" stroke="none" x="576" y="423" width="20" height="10"/></g><g transform="translate(-14,-30) scale(1,1)"><path fill="none" stroke="#000000" d="M 576 423 L 596 423 L 596 433 L 576 433 L 576 423 Z Z" stroke-miterlimit="10"/></g><g transform="translate(-14,-30) scale(1,1)"><rect fill="#ffffff" stroke="none" x="576" y="443" width="20" height="10"/></g><g transform="translate(-14,-30) scale(1,1)"><path fill="none" stroke="#000000" d="M 576 443 L 596 443 L 596 453 L 576 453 L 576 443 Z Z" stroke-miterlimit="10"/></g><g transform="translate(-14,-30) scale(1,1)"><g><path fill="none" stroke="none"/><text fill="#000000" stroke="none" font-family="Arial" font-size="13px" font-style="normal" font-weight="normal" text-decoration="none" x="619.5" y="433.5">«Cron»</text></g></g><g transform="translate(-14,-30) scale(1,1)"><g><path fill="none" stroke="none"/><text fill="#000000" stroke="none" font-family="Arial" font-size="13px" font-style="normal" font-weight="bold" text-decoration="none" x="612" y="448.5">scheduler</text></g></g><g transform="translate(-14,-30) scale(1,1)"><path fill="none" stroke="#000000" d="M 575 440 L 489 442" stroke-miterlimit="10" stroke-dasharray="3"/></g><g transform="translate(-14,-30) scale(1,1)"><path fill="none" stroke="#000000" d="M 499.0620585175945 437.55534271416747 L 489 442 L 499.2577971173493 445.97210250362457" stroke-miterlimit="10"/></g><g transform="translate(-14,-30) scale(1,1)"><rect fill="#C0C0C0" stroke="none" x="81" y="47" width="126" height="44" opacity="0.2"/></g><g transform="translate(-14,-30) scale(1,1)"><rect fill="#ffffff" stroke="none" x="74" y="40" width="126" height="44"/></g><g transform="translate(-14,-30) scale(1,1)"><path fill="none" stroke="#000000" d="M 74 40 L 200 40 L 200 84 L 74 84 L 74 40 Z Z" stroke-miterlimit="10"/></g><g transform="translate(-14,-30) scale(1,1)"><rect fill="#ffffff" stroke="none" x="64" y="47" width="20" height="10"/></g><g transform="translate(-14,-30) scale(1,1)"><path fill="none" stroke="#000000" d="M 64 47 L 84 47 L 84 57 L 64 57 L 64 47 Z Z" stroke-miterlimit="10"/></g><g transform="translate(-14,-30) scale(1,1)"><rect fill="#ffffff" stroke="none" x="64" y="67" width="20" height="10"/></g><g transform="translate(-14,-30) scale(1,1)"><path fill="none" stroke="#000000" d="M 64 67 L 84 67 L 84 77 L 64 77 L 64 67 Z Z" stroke-miterlimit="10"/></g><g transform="translate(-14,-30) scale(1,1)"><g><path fill="none" stroke="none"/><text fill="#000000" stroke="none" font-family="Arial" font-size="13px" font-style="normal" font-weight="normal" text-decoration="none" x="123.5" y="57.5">«qvw»</text></g></g><g transform="translate(-14,-30) scale(1,1)"><g><path fill="none" stroke="none"/><text fill="#000000" stroke="none" font-family="Arial" font-size="13px" font-style="normal" font-weight="bold" text-decoration="none" x="90.5" y="72.5">Analyse_KPI.qvw</text></g></g><g transform="translate(-14,-30) scale(1,1)"><rect fill="#C0C0C0" stroke="none" x="313" y="55" width="116" height="44" opacity="0.2"/></g><g transform="translate(-14,-30) scale(1,1)"><rect fill="#ffffff" stroke="none" x="306" y="48" width="116" height="44"/></g><g transform="translate(-14,-30) scale(1,1)"><path fill="none" stroke="#000000" d="M 306 48 L 422 48 L 422 92 L 306 92 L 306 48 Z Z" stroke-miterlimit="10"/></g><g transform="translate(-14,-30) scale(1,1)"><rect fill="#ffffff" stroke="none" x="296" y="55" width="20" height="10"/></g><g transform="translate(-14,-30) scale(1,1)"><path fill="none" stroke="#000000" d="M 296 55 L 316 55 L 316 65 L 296 65 L 296 55 Z Z" stroke-miterlimit="10"/></g><g transform="translate(-14,-30) scale(1,1)"><rect fill="#ffffff" stroke="none" x="296" y="75" width="20" height="10"/></g><g transform="translate(-14,-30) scale(1,1)"><path fill="none" stroke="#000000" d="M 296 75 L 316 75 L 316 85 L 296 85 L 296 75 Z Z" stroke-miterlimit="10"/></g><g transform="translate(-14,-30) scale(1,1)"><g><path fill="none" stroke="none"/><text fill="#000000" stroke="none" font-family="Arial" font-size="13px" font-style="normal" font-weight="bold" text-decoration="none" x="323.5" y="67.5">Qlikview Server</text></g></g><g transform="translate(-14,-30) scale(1,1)"><path fill="none" stroke="#000000" d="M 295 68 L 201 64" stroke-miterlimit="10" stroke-dasharray="3"/></g><g transform="translate(-14,-30) scale(1,1)"><path fill="none" stroke="#000000" d="M 211.33245263499137 60.226351560404694 L 201 64 L 210.97451972594308 68.63777492303933" stroke-miterlimit="10"/></g><g transform="translate(-14,-30) scale(1,1)"><path fill="none" stroke="#000000" d="M 355 319 L 354 245" stroke-miterlimit="10" stroke-dasharray="3"/></g><g transform="translate(-14,-30) scale(1,1)"><path fill="none" stroke="#000000" d="M 358.3464543541705 255.10486687428946 L 354 245 L 349.92818745815435 255.21862723774913" stroke-miterlimit="10"/></g><g transform="translate(-14,-30) scale(1,1)"><rect fill="#C0C0C0" stroke="none" x="41" y="271" width="183" height="44" opacity="0.2"/></g><g transform="translate(-14,-30) scale(1,1)"><rect fill="#ffffff" stroke="none" x="34" y="264" width="183" height="44"/></g><g transform="translate(-14,-30) scale(1,1)"><path fill="none" stroke="#000000" d="M 34 264 L 217 264 L 217 308 L 34 308 L 34 264 Z Z" stroke-miterlimit="10"/></g><g transform="translate(-14,-30) scale(1,1)"><rect fill="#ffffff" stroke="none" x="24" y="271" width="20" height="10"/></g><g transform="translate(-14,-30) scale(1,1)"><path fill="none" stroke="#000000" d="M 24 271 L 44 271 L 44 281 L 24 281 L 24 271 Z Z" stroke-miterlimit="10"/></g><g transform="translate(-14,-30) scale(1,1)"><rect fill="#ffffff" stroke="none" x="24" y="291" width="20" height="10"/></g><g transform="translate(-14,-30) scale(1,1)"><path fill="none" stroke="#000000" d="M 24 291 L 44 291 L 44 301 L 24 301 L 24 291 Z Z" stroke-miterlimit="10"/></g><g transform="translate(-14,-30) scale(1,1)"><g><path fill="none" stroke="none"/><text fill="#000000" stroke="none" font-family="Arial" font-size="13px" font-style="normal" font-weight="bold" text-decoration="none" x="54" y="283.5">esibank_db_financial_data</text></g></g><g transform="translate(-14,-30) scale(1,1)"><path fill="#C0C0C0" stroke="none" d="M 126 354.5 C 126 348.1487248 131.1487248 343 137.5 343 C 143.8512752 343 149 348.1487248 149 354.5 C 149 360.8512752 143.8512752 366 137.5 366 C 131.1487248 366 126 360.8512752 126 354.5 Z" opacity="0.2"/></g><g transform="translate(-14,-30) scale(1,1)"><path fill="none" stroke="#000000" d="M 118.84336124832868 349.78915968791785 A 11.5 11.5 0 0 1 141.15663875167132 344.21084031208215" stroke-miterlimit="10"/></g><g transform="translate(-14,-30) scale(1,1)"><path fill="#ffffff" stroke="none" d="M 122 347.5 C 122 342.8055792 125.8055792 339 130.5 339 C 135.1944208 339 139 342.8055792 139 347.5 C 139 352.1944208 135.1944208 356 130.5 356 C 125.8055792 356 122 352.1944208 122 347.5 Z"/></g><g transform="translate(-14,-30) scale(1,1)"><path fill="none" stroke="#000000" d="M 122 347.5 C 122 342.8055792 125.8055792 339 130.5 339 C 135.1944208 339 139 342.8055792 139 347.5 C 139 352.1944208 135.1944208 356 130.5 356 C 125.8055792 356 122 352.1944208 122 347.5 Z" stroke-miterlimit="10"/></g><g transform="translate(-14,-30) scale(1,1)"><g><path fill="none" stroke="none"/><text fill="#000000" stroke="none" font-family="Arial" font-size="13px" font-style="normal" font-weight="bold" text-decoration="none" x="112" y="378.5">ODBC</text></g></g><g transform="translate(-14,-30) scale(1,1)"><path fill="none" stroke="#000000" d="M 239 351 L 142 350.3333333333333" stroke-miterlimit="10"/></g><g transform="translate(-14,-30) scale(1,1)"><path fill="none" stroke="#000000" d="M 123 309 L 127.25 336" stroke-miterlimit="10"/></g><g transform="translate(-14,-30) scale(1,1)"><path fill="#C0C0C0" stroke="none" d="M 358 162.5 C 358 156.1487248 363.1487248 151 369.5 151 C 375.8512752 151 381 156.1487248 381 162.5 C 381 168.8512752 375.8512752 174 369.5 174 C 363.1487248 174 358 168.8512752 358 162.5 Z" opacity="0.2"/></g><g transform="translate(-14,-30) scale(1,1)"><path fill="none" stroke="#000000" d="M 373.43681270859616 156.20387502195746 A 11.5 11.5 0 0 1 350.56318729140384 153.79612497804254" stroke-miterlimit="10"/></g><g transform="translate(-14,-30) scale(1,1)"><path fill="#ffffff" stroke="none" d="M 354 155.5 C 354 150.8055792 357.8055792 147 362.5 147 C 367.1944208 147 371 150.8055792 371 155.5 C 371 160.1944208 367.1944208 164 362.5 164 C 357.8055792 164 354 160.1944208 354 155.5 Z"/></g><g transform="translate(-14,-30) scale(1,1)"><path fill="none" stroke="#000000" d="M 354 155.5 C 354 150.8055792 357.8055792 147 362.5 147 C 367.1944208 147 371 150.8055792 371 155.5 C 371 160.1944208 367.1944208 164 362.5 164 C 357.8055792 164 354 160.1944208 354 155.5 Z" stroke-miterlimit="10"/></g><g transform="translate(-14,-30) scale(1,1)"><g><path fill="none" stroke="none"/><text fill="#000000" stroke="none" font-family="Arial" font-size="13px" font-style="normal" font-weight="bold" text-decoration="none" x="344" y="186.5">ODBC</text></g></g><g transform="translate(-14,-30) scale(1,1)"><path fill="none" stroke="#000000" d="M 360 93 L 361.0833333333333 144" stroke-miterlimit="10"/></g><g transform="translate(-14,-30) scale(1,1)"><path fill="#C0C0C0" stroke="none" d="M 598 202.5 C 598 196.1487248 603.1487248 191 609.5 191 C 615.8512752 191 621 196.1487248 621 202.5 C 621 208.8512752 615.8512752 214 609.5 214 C 603.1487248 214 598 208.8512752 598 202.5 Z" opacity="0.2"/></g><g transform="translate(-14,-30) scale(1,1)"><path fill="none" stroke="#000000" d="M 606.5300719336605 205.57016784520766 A 11.5 11.5 0 0 1 597.4699280663395 184.42983215479234" stroke-miterlimit="10"/></g><g transform="translate(-14,-30) scale(1,1)"><path fill="#ffffff" stroke="none" d="M 594 195.5 C 594 190.8055792 597.8055792 187 602.5 187 C 607.1944208 187 611 190.8055792 611 195.5 C 611 200.1944208 607.1944208 204 602.5 204 C 597.8055792 204 594 200.1944208 594 195.5 Z"/></g><g transform="translate(-14,-30) scale(1,1)"><path fill="none" stroke="#000000" d="M 594 195.5 C 594 190.8055792 597.8055792 187 602.5 187 C 607.1944208 187 611 190.8055792 611 195.5 C 611 200.1944208 607.1944208 204 602.5 204 C 597.8055792 204 594 200.1944208 594 195.5 Z" stroke-miterlimit="10"/></g><g transform="translate(-14,-30) scale(1,1)"><g><path fill="none" stroke="none"/><text fill="#000000" stroke="none" font-family="Arial" font-size="13px" font-style="normal" font-weight="bold" text-decoration="none" x="584" y="226.5">ODBC</text></g></g><g transform="translate(-14,-30) scale(1,1)"><path fill="none" stroke="#000000" d="M 588 165 L 594.6666666666666 184" stroke-miterlimit="10"/></g><g transform="translate(-14,-30) scale(1,1)"><path fill="none" stroke="#000000" d="M 467 216 L 591 199.71428571428572" stroke-miterlimit="10"/></g><g transform="translate(-14,-30) scale(1,1)"><path fill="none" stroke="#000000" d="M 357 199 L 360.7368421052632 167" stroke-miterlimit="10"/></g><g transform="translate(-14,-30) scale(1,1)"><path fill="#C0C0C0" stroke="none" d="M 150 226.5 C 150 220.1487248 155.1487248 215 161.5 215 C 167.8512752 215 173 220.1487248 173 226.5 C 173 232.8512752 167.8512752 238 161.5 238 C 155.1487248 238 150 232.8512752 150 226.5 Z" opacity="0.2"/></g><g transform="translate(-14,-30) scale(1,1)"><path fill="none" stroke="#000000" d="M 157.36051315938872 208.0019569329096 A 11.5 11.5 0 0 1 150.63948684061128 229.9980430670904" stroke-miterlimit="10"/></g><g transform="translate(-14,-30) scale(1,1)"><path fill="#ffffff" stroke="none" d="M 146 219.5 C 146 214.8055792 149.8055792 211 154.5 211 C 159.1944208 211 163 214.8055792 163 219.5 C 163 224.1944208 159.1944208 228 154.5 228 C 149.8055792 228 146 224.1944208 146 219.5 Z"/></g><g transform="translate(-14,-30) scale(1,1)"><path fill="none" stroke="#000000" d="M 146 219.5 C 146 214.8055792 149.8055792 211 154.5 211 C 159.1944208 211 163 214.8055792 163 219.5 C 163 224.1944208 159.1944208 228 154.5 228 C 149.8055792 228 146 224.1944208 146 219.5 Z" stroke-miterlimit="10"/></g><g transform="translate(-14,-30) scale(1,1)"><g><path fill="none" stroke="none"/><text fill="#000000" stroke="none" font-family="Arial" font-size="13px" font-style="normal" font-weight="bold" text-decoration="none" x="136" y="250.5">ODBC</text></g></g><g transform="translate(-14,-30) scale(1,1)"><path fill="none" stroke="#000000" d="M 239 228 L 166 222.66666666666666" stroke-miterlimit="10"/></g><g transform="translate(-14,-30) scale(1,1)"><path fill="none" stroke="#000000" d="M 124 181 L 143 210.2" stroke-miterlimit="10"/></g></g></svg>