<svg version="1.1" xmlns="http://www.w3.org/2000/svg" xmlns:xlink="http://www.w3.org/1999/xlink" width="1620.814453125" height="584"><defs/><g><g transform="translate(-406,-110) scale(1,1)"><rect fill="#C0C0C0" stroke="none" x="1105" y="327" width="111.5107421875" height="44" opacity="0.2"/></g><g transform="translate(-406,-110) scale(1,1)"><rect fill="#ebd8ff" stroke="none" x="1098" y="320" width="111.5107421875" height="44"/></g><g transform="translate(-406,-110) scale(1,1)"><path fill="none" stroke="#000000" d="M 1098 320 L 1209.5107421875 320 L 1209.5107421875 364 L 1098 364 L 1098 320 Z Z" stroke-miterlimit="10"/></g><g transform="translate(-406,-110) scale(1,1)"><rect fill="#ebd8ff" stroke="none" x="1088" y="327" width="20" height="10"/></g><g transform="translate(-406,-110) scale(1,1)"><path fill="none" stroke="#000000" d="M 1088 327 L 1108 327 L 1108 337 L 1088 337 L 1088 327 Z Z" stroke-miterlimit="10"/></g><g transform="translate(-406,-110) scale(1,1)"><rect fill="#ebd8ff" stroke="none" x="1088" y="347" width="20" height="10"/></g><g transform="translate(-406,-110) scale(1,1)"><path fill="none" stroke="#000000" d="M 1088 347 L 1108 347 L 1108 357 L 1088 357 L 1088 347 Z Z" stroke-miterlimit="10"/></g><g transform="translate(-406,-110) scale(1,1)"><g><path fill="none" stroke="none"/><text fill="#000000" stroke="none" font-family="Arial" font-size="13px" font-style="normal" font-weight="normal" text-decoration="none" x="1144.3017578125" y="337.5">«jar»</text></g></g><g transform="translate(-406,-110) scale(1,1)"><g><path fill="none" stroke="none"/><text fill="#000000" stroke="none" font-family="Arial" font-size="13px" font-style="normal" font-weight="bold" text-decoration="none" x="1117.568603515625" y="352.5">securerest 1.0</text></g></g><g transform="translate(-406,-110) scale(1,1)"><rect fill="#C0C0C0" stroke="none" x="1537" y="327" width="166" height="44" opacity="0.2"/></g><g transform="translate(-406,-110) scale(1,1)"><rect fill="#ebd8ff" stroke="none" x="1530" y="320" width="166" height="44"/></g><g transform="translate(-406,-110) scale(1,1)"><path fill="none" stroke="#000000" d="M 1530 320 L 1696 320 L 1696 364 L 1530 364 L 1530 320 Z Z" stroke-miterlimit="10"/></g><g transform="translate(-406,-110) scale(1,1)"><rect fill="#ebd8ff" stroke="none" x="1520" y="327" width="20" height="10"/></g><g transform="translate(-406,-110) scale(1,1)"><path fill="none" stroke="#000000" d="M 1520 327 L 1540 327 L 1540 337 L 1520 337 L 1520 327 Z Z" stroke-miterlimit="10"/></g><g transform="translate(-406,-110) scale(1,1)"><rect fill="#ebd8ff" stroke="none" x="1520" y="347" width="20" height="10"/></g><g transform="translate(-406,-110) scale(1,1)"><path fill="none" stroke="#000000" d="M 1520 347 L 1540 347 L 1540 357 L 1520 357 L 1520 347 Z Z" stroke-miterlimit="10"/></g><g transform="translate(-406,-110) scale(1,1)"><g><path fill="none" stroke="none"/><text fill="#000000" stroke="none" font-family="Arial" font-size="13px" font-style="normal" font-weight="normal" text-decoration="none" x="1603.54638671875" y="337.5">«jar»</text></g></g><g transform="translate(-406,-110) scale(1,1)"><g><path fill="none" stroke="none"/><text fill="#000000" stroke="none" font-family="Arial" font-size="13px" font-style="normal" font-weight="bold" text-decoration="none" x="1574.27734375" y="352.5">dataaccess 1.0</text></g></g><g transform="translate(-406,-110) scale(1,1)"><rect fill="#C0C0C0" stroke="none" x="671" y="325" width="118.71533203125" height="44" opacity="0.2"/></g><g transform="translate(-406,-110) scale(1,1)"><rect fill="#ebd8ff" stroke="none" x="664" y="318" width="118.71533203125" height="44"/></g><g transform="translate(-406,-110) scale(1,1)"><path fill="none" stroke="#000000" d="M 664 318 L 782.71533203125 318 L 782.71533203125 362 L 664 362 L 664 318 Z Z" stroke-miterlimit="10"/></g><g transform="translate(-406,-110) scale(1,1)"><rect fill="#ebd8ff" stroke="none" x="654" y="325" width="20" height="10"/></g><g transform="translate(-406,-110) scale(1,1)"><path fill="none" stroke="#000000" d="M 654 325 L 674 325 L 674 335 L 654 335 L 654 325 Z Z" stroke-miterlimit="10"/></g><g transform="translate(-406,-110) scale(1,1)"><rect fill="#ebd8ff" stroke="none" x="654" y="345" width="20" height="10"/></g><g transform="translate(-406,-110) scale(1,1)"><path fill="none" stroke="#000000" d="M 654 345 L 674 345 L 674 355 L 654 355 L 654 345 Z Z" stroke-miterlimit="10"/></g><g transform="translate(-406,-110) scale(1,1)"><g><path fill="none" stroke="none"/><text fill="#000000" stroke="none" font-family="Arial" font-size="13px" font-style="normal" font-weight="normal" text-decoration="none" x="713.904052734375" y="335.5">«jar»</text></g></g><g transform="translate(-406,-110) scale(1,1)"><g><path fill="none" stroke="none"/><text fill="#000000" stroke="none" font-family="Arial" font-size="13px" font-style="normal" font-weight="bold" text-decoration="none" x="689.33544921875" y="350.5">payfreeclt 1.0</text></g></g><g transform="translate(-406,-110) scale(1,1)"><rect fill="#C0C0C0" stroke="none" x="673" y="231" width="99.17724609375" height="44" opacity="0.2"/></g><g transform="translate(-406,-110) scale(1,1)"><rect fill="#ffffff" stroke="none" x="666" y="224" width="99.17724609375" height="44"/></g><g transform="translate(-406,-110) scale(1,1)"><path fill="none" stroke="#000000" d="M 666 224 L 765.17724609375 224 L 765.17724609375 268 L 666 268 L 666 224 Z Z" stroke-miterlimit="10"/></g><g transform="translate(-406,-110) scale(1,1)"><rect fill="#ffffff" stroke="none" x="656" y="231" width="20" height="10"/></g><g transform="translate(-406,-110) scale(1,1)"><path fill="none" stroke="#000000" d="M 656 231 L 676 231 L 676 241 L 656 241 L 656 231 Z Z" stroke-miterlimit="10"/></g><g transform="translate(-406,-110) scale(1,1)"><rect fill="#ffffff" stroke="none" x="656" y="251" width="20" height="10"/></g><g transform="translate(-406,-110) scale(1,1)"><path fill="none" stroke="#000000" d="M 656 251 L 676 251 L 676 261 L 656 261 L 656 251 Z Z" stroke-miterlimit="10"/></g><g transform="translate(-406,-110) scale(1,1)"><g><path fill="none" stroke="none"/><text fill="#000000" stroke="none" font-family="Arial" font-size="13px" font-style="normal" font-weight="normal" text-decoration="none" x="706.135009765625" y="241.5">«jar»</text></g></g><g transform="translate(-406,-110) scale(1,1)"><g><path fill="none" stroke="none"/><text fill="#000000" stroke="none" font-family="Arial" font-size="13px" font-style="normal" font-weight="bold" text-decoration="none" x="683.73095703125" y="256.5">httpclient 4.5</text></g></g><g transform="translate(-406,-110) scale(1,1)"><rect fill="#C0C0C0" stroke="none" x="1241" y="591" width="182.97265625" height="44" opacity="0.2"/></g><g transform="translate(-406,-110) scale(1,1)"><rect fill="#ffffff" stroke="none" x="1234" y="584" width="182.97265625" height="44"/></g><g transform="translate(-406,-110) scale(1,1)"><path fill="none" stroke="#000000" d="M 1234 584 L 1416.97265625 584 L 1416.97265625 628 L 1234 628 L 1234 584 Z Z" stroke-miterlimit="10"/></g><g transform="translate(-406,-110) scale(1,1)"><rect fill="#ffffff" stroke="none" x="1224" y="591" width="20" height="10"/></g><g transform="translate(-406,-110) scale(1,1)"><path fill="none" stroke="#000000" d="M 1224 591 L 1244 591 L 1244 601 L 1224 601 L 1224 591 Z Z" stroke-miterlimit="10"/></g><g transform="translate(-406,-110) scale(1,1)"><rect fill="#ffffff" stroke="none" x="1224" y="611" width="20" height="10"/></g><g transform="translate(-406,-110) scale(1,1)"><path fill="none" stroke="#000000" d="M 1224 611 L 1244 611 L 1244 621 L 1224 621 L 1224 611 Z Z" stroke-miterlimit="10"/></g><g transform="translate(-406,-110) scale(1,1)"><g><path fill="none" stroke="none"/><text fill="#000000" stroke="none" font-family="Arial" font-size="13px" font-style="normal" font-weight="normal" text-decoration="none" x="1316.03271484375" y="601.5">«jar»</text></g></g><g transform="translate(-406,-110) scale(1,1)"><g><path fill="none" stroke="none"/><text fill="#000000" stroke="none" font-family="Arial" font-size="13px" font-style="normal" font-weight="bold" text-decoration="none" x="1263.293212890625" y="616.5">spring-boot-starter-web</text></g></g><g transform="translate(-406,-110) scale(1,1)"><path fill="none" stroke="#000000" d="M 712 362 L 712 606 L 1224 606" stroke-miterlimit="10" stroke-dasharray="3"/></g><g transform="translate(-406,-110) scale(1,1)"><path fill="none" stroke="#000000" d="M 1213.837325142376 610.209517756016 L 1224 606 L 1213.837325142376 601.790482243984" stroke-miterlimit="10"/></g><g transform="translate(-406,-110) scale(1,1)"><path fill="none" stroke="#000000" d="M 712 318 L 712 268" stroke-miterlimit="10" stroke-dasharray="3"/></g><g transform="translate(-406,-110) scale(1,1)"><path fill="none" stroke="#000000" d="M 716.209517756016 278.16267485762415 L 712 268 L 707.790482243984 278.16267485762415" stroke-miterlimit="10"/></g><g transform="translate(-406,-110) scale(1,1)"><path fill="none" stroke="#000000" d="M 1152 364 L 1152 488 L 1320 488 L 1320 584" stroke-miterlimit="10" stroke-dasharray="3"/></g><g transform="translate(-406,-110) scale(1,1)"><path fill="none" stroke="#000000" d="M 1315.7904822439841 573.8373251423759 L 1320 584 L 1324.2095177560159 573.8373251423759" stroke-miterlimit="10"/></g><g transform="translate(-406,-110) scale(1,1)"><path fill="none" stroke="#000000" d="M 1592 364 L 1592 606 L 1417 606" stroke-miterlimit="10" stroke-dasharray="3"/></g><g transform="translate(-406,-110) scale(1,1)"><path fill="none" stroke="#000000" d="M 1427.162674857624 601.790482243984 L 1417 606 L 1427.162674857624 610.209517756016" stroke-miterlimit="10"/></g><g transform="translate(-406,-110) scale(1,1)"><rect fill="#C0C0C0" stroke="none" x="1457" y="647" width="120.14990234375" height="44" opacity="0.2"/></g><g transform="translate(-406,-110) scale(1,1)"><rect fill="#ebd8ff" stroke="none" x="1450" y="640" width="120.14990234375" height="44"/></g><g transform="translate(-406,-110) scale(1,1)"><path fill="none" stroke="#000000" d="M 1450 640 L 1570.14990234375 640 L 1570.14990234375 684 L 1450 684 L 1450 640 Z Z" stroke-miterlimit="10"/></g><g transform="translate(-406,-110) scale(1,1)"><rect fill="#ebd8ff" stroke="none" x="1440" y="647" width="20" height="10"/></g><g transform="translate(-406,-110) scale(1,1)"><path fill="none" stroke="#000000" d="M 1440 647 L 1460 647 L 1460 657 L 1440 657 L 1440 647 Z Z" stroke-miterlimit="10"/></g><g transform="translate(-406,-110) scale(1,1)"><rect fill="#ebd8ff" stroke="none" x="1440" y="667" width="20" height="10"/></g><g transform="translate(-406,-110) scale(1,1)"><path fill="none" stroke="#000000" d="M 1440 667 L 1460 667 L 1460 677 L 1440 677 L 1440 667 Z Z" stroke-miterlimit="10"/></g><g transform="translate(-406,-110) scale(1,1)"><g><path fill="none" stroke="none"/><text fill="#000000" stroke="none" font-family="Arial" font-size="13px" font-style="normal" font-weight="normal" text-decoration="none" x="1500.621337890625" y="657.5">«jar»</text></g></g><g transform="translate(-406,-110) scale(1,1)"><g><path fill="none" stroke="none"/><text fill="#000000" stroke="none" font-family="Arial" font-size="13px" font-style="normal" font-weight="bold" text-decoration="none" x="1468.10546875" y="672.5">esibank-utils 1.0</text></g></g><g transform="translate(-406,-110) scale(1,1)"><path fill="none" stroke="#000000" d="M 1632 364 L 1632 664 L 1570 664" stroke-miterlimit="10" stroke-dasharray="3"/></g><g transform="translate(-406,-110) scale(1,1)"><path fill="none" stroke="#000000" d="M 1580.162674857624 659.790482243984 L 1570 664 L 1580.162674857624 668.209517756016" stroke-miterlimit="10"/></g><g transform="translate(-406,-110) scale(1,1)"><rect fill="#C0C0C0" stroke="none" x="1817" y="319" width="206.814453125" height="44" opacity="0.2"/></g><g transform="translate(-406,-110) scale(1,1)"><rect fill="#ffffff" stroke="none" x="1810" y="312" width="206.814453125" height="44"/></g><g transform="translate(-406,-110) scale(1,1)"><path fill="none" stroke="#000000" d="M 1810 312 L 2016.814453125 312 L 2016.814453125 356 L 1810 356 L 1810 312 Z Z" stroke-miterlimit="10"/></g><g transform="translate(-406,-110) scale(1,1)"><rect fill="#ffffff" stroke="none" x="1800" y="319" width="20" height="10"/></g><g transform="translate(-406,-110) scale(1,1)"><path fill="none" stroke="#000000" d="M 1800 319 L 1820 319 L 1820 329 L 1800 329 L 1800 319 Z Z" stroke-miterlimit="10"/></g><g transform="translate(-406,-110) scale(1,1)"><rect fill="#ffffff" stroke="none" x="1800" y="339" width="20" height="10"/></g><g transform="translate(-406,-110) scale(1,1)"><path fill="none" stroke="#000000" d="M 1800 339 L 1820 339 L 1820 349 L 1800 349 L 1800 339 Z Z" stroke-miterlimit="10"/></g><g transform="translate(-406,-110) scale(1,1)"><g><path fill="none" stroke="none"/><text fill="#000000" stroke="none" font-family="Arial" font-size="13px" font-style="normal" font-weight="normal" text-decoration="none" x="1903.95361328125" y="329.5">«jar»</text></g></g><g transform="translate(-406,-110) scale(1,1)"><g><path fill="none" stroke="none"/><text fill="#000000" stroke="none" font-family="Arial" font-size="13px" font-style="normal" font-weight="bold" text-decoration="none" x="1839.648681640625" y="344.5">spring-boot-starter-data-jpa</text></g></g><g transform="translate(-406,-110) scale(1,1)"><path fill="none" stroke="#000000" d="M 1696 334 L 1800 334" stroke-miterlimit="10" stroke-dasharray="3"/></g><g transform="translate(-406,-110) scale(1,1)"><path fill="none" stroke="#000000" d="M 1789.837325142376 338.209517756016 L 1800 334 L 1789.837325142376 329.790482243984" stroke-miterlimit="10"/></g><g transform="translate(-406,-110) scale(1,1)"><rect fill="#C0C0C0" stroke="none" x="1817" y="255" width="171.45166015625" height="44" opacity="0.2"/></g><g transform="translate(-406,-110) scale(1,1)"><rect fill="#ffffff" stroke="none" x="1810" y="248" width="171.45166015625" height="44"/></g><g transform="translate(-406,-110) scale(1,1)"><path fill="none" stroke="#000000" d="M 1810 248 L 1981.45166015625 248 L 1981.45166015625 292 L 1810 292 L 1810 248 Z Z" stroke-miterlimit="10"/></g><g transform="translate(-406,-110) scale(1,1)"><rect fill="#ffffff" stroke="none" x="1800" y="255" width="20" height="10"/></g><g transform="translate(-406,-110) scale(1,1)"><path fill="none" stroke="#000000" d="M 1800 255 L 1820 255 L 1820 265 L 1800 265 L 1800 255 Z Z" stroke-miterlimit="10"/></g><g transform="translate(-406,-110) scale(1,1)"><rect fill="#ffffff" stroke="none" x="1800" y="275" width="20" height="10"/></g><g transform="translate(-406,-110) scale(1,1)"><path fill="none" stroke="#000000" d="M 1800 275 L 1820 275 L 1820 285 L 1800 285 L 1800 275 Z Z" stroke-miterlimit="10"/></g><g transform="translate(-406,-110) scale(1,1)"><g><path fill="none" stroke="none"/><text fill="#000000" stroke="none" font-family="Arial" font-size="13px" font-style="normal" font-weight="normal" text-decoration="none" x="1886.272216796875" y="265.5">«jar»</text></g></g><g transform="translate(-406,-110) scale(1,1)"><g><path fill="none" stroke="none"/><text fill="#000000" stroke="none" font-family="Arial" font-size="13px" font-style="normal" font-weight="bold" text-decoration="none" x="1838.95361328125" y="280.5">mysql-connector-java</text></g></g><g transform="translate(-406,-110) scale(1,1)"><rect fill="#C0C0C0" stroke="none" x="1817" y="191" width="112.208984375" height="44" opacity="0.2"/></g><g transform="translate(-406,-110) scale(1,1)"><rect fill="#ffffff" stroke="none" x="1810" y="184" width="112.208984375" height="44"/></g><g transform="translate(-406,-110) scale(1,1)"><path fill="none" stroke="#000000" d="M 1810 184 L 1922.208984375 184 L 1922.208984375 228 L 1810 228 L 1810 184 Z Z" stroke-miterlimit="10"/></g><g transform="translate(-406,-110) scale(1,1)"><rect fill="#ffffff" stroke="none" x="1800" y="191" width="20" height="10"/></g><g transform="translate(-406,-110) scale(1,1)"><path fill="none" stroke="#000000" d="M 1800 191 L 1820 191 L 1820 201 L 1800 201 L 1800 191 Z Z" stroke-miterlimit="10"/></g><g transform="translate(-406,-110) scale(1,1)"><rect fill="#ffffff" stroke="none" x="1800" y="211" width="20" height="10"/></g><g transform="translate(-406,-110) scale(1,1)"><path fill="none" stroke="#000000" d="M 1800 211 L 1820 211 L 1820 221 L 1800 221 L 1800 211 Z Z" stroke-miterlimit="10"/></g><g transform="translate(-406,-110) scale(1,1)"><g><path fill="none" stroke="none"/><text fill="#000000" stroke="none" font-family="Arial" font-size="13px" font-style="normal" font-weight="normal" text-decoration="none" x="1856.65087890625" y="201.5">«jar»</text></g></g><g transform="translate(-406,-110) scale(1,1)"><g><path fill="none" stroke="none"/><text fill="#000000" stroke="none" font-family="Arial" font-size="13px" font-style="normal" font-weight="bold" text-decoration="none" x="1826.658203125" y="216.5">lombok 1.16.20</text></g></g><g transform="translate(-406,-110) scale(1,1)"><path fill="none" stroke="#000000" d="M 1656 320 L 1656 270 L 1800 270" stroke-miterlimit="10" stroke-dasharray="3"/></g><g transform="translate(-406,-110) scale(1,1)"><path fill="none" stroke="#000000" d="M 1789.837325142376 274.209517756016 L 1800 270 L 1789.837325142376 265.790482243984" stroke-miterlimit="10"/></g><g transform="translate(-406,-110) scale(1,1)"><path fill="none" stroke="#000000" d="M 1632 320 L 1632 208 L 1800 208" stroke-miterlimit="10" stroke-dasharray="3"/></g><g transform="translate(-406,-110) scale(1,1)"><path fill="none" stroke="#000000" d="M 1789.837325142376 212.209517756016 L 1800 208 L 1789.837325142376 203.790482243984" stroke-miterlimit="10"/></g><g transform="translate(-406,-110) scale(1,1)"><path fill="#C0C0C0" stroke="none" d="M 475 346.5 C 475 340.1487248 480.1487248 335 486.5 335 C 492.8512752 335 498 340.1487248 498 346.5 C 498 352.8512752 492.8512752 358 486.5 358 C 480.1487248 358 475 352.8512752 475 346.5 Z" opacity="0.2"/></g><g transform="translate(-406,-110) scale(1,1)"><path fill="#ffffff" stroke="none" d="M 468 339.5 C 468 333.1487248 473.1487248 328 479.5 328 C 485.8512752 328 491 333.1487248 491 339.5 C 491 345.8512752 485.8512752 351 479.5 351 C 473.1487248 351 468 345.8512752 468 339.5 Z"/></g><g transform="translate(-406,-110) scale(1,1)"><path fill="none" stroke="#000000" d="M 468 339.5 C 468 333.1487248 473.1487248 328 479.5 328 C 485.8512752 328 491 333.1487248 491 339.5 C 491 345.8512752 485.8512752 351 479.5 351 C 473.1487248 351 468 345.8512752 468 339.5 Z" stroke-miterlimit="10"/></g><g transform="translate(-406,-110) scale(1,1)"><g><path fill="none" stroke="none"/><text fill="#000000" stroke="none" font-family="Arial" font-size="13px" font-style="normal" font-weight="bold" text-decoration="none" x="462.16455078125" y="370.5">REST</text></g></g><g transform="translate(-406,-110) scale(1,1)"><path fill="none" stroke="#000000" d="M 654 339 L 491 339" stroke-miterlimit="10"/></g><g transform="translate(-406,-110) scale(1,1)"><g><path fill="none" stroke="none"/><text fill="#000000" stroke="none" font-family="Arial" font-size="13px" font-style="normal" font-weight="normal" text-decoration="none" x="540.5" y="360.5">+http:1234</text></g></g><g transform="translate(-406,-110) scale(1,1)"><rect fill="#C0C0C0" stroke="none" x="1097" y="535" width="110.0634765625" height="44" opacity="0.2"/></g><g transform="translate(-406,-110) scale(1,1)"><rect fill="#ffffff" stroke="none" x="1090" y="528" width="110.0634765625" height="44"/></g><g transform="translate(-406,-110) scale(1,1)"><path fill="none" stroke="#000000" d="M 1090 528 L 1200.0634765625 528 L 1200.0634765625 572 L 1090 572 L 1090 528 Z Z" stroke-miterlimit="10"/></g><g transform="translate(-406,-110) scale(1,1)"><rect fill="#ffffff" stroke="none" x="1080" y="535" width="20" height="10"/></g><g transform="translate(-406,-110) scale(1,1)"><path fill="none" stroke="#000000" d="M 1080 535 L 1100 535 L 1100 545 L 1080 545 L 1080 535 Z Z" stroke-miterlimit="10"/></g><g transform="translate(-406,-110) scale(1,1)"><rect fill="#ffffff" stroke="none" x="1080" y="555" width="20" height="10"/></g><g transform="translate(-406,-110) scale(1,1)"><path fill="none" stroke="#000000" d="M 1080 555 L 1100 555 L 1100 565 L 1080 565 L 1080 555 Z Z" stroke-miterlimit="10"/></g><g transform="translate(-406,-110) scale(1,1)"><g><path fill="none" stroke="none"/><text fill="#000000" stroke="none" font-family="Arial" font-size="13px" font-style="normal" font-weight="normal" text-decoration="none" x="1135.578125" y="545.5">«jar»</text></g></g><g transform="translate(-406,-110) scale(1,1)"><g><path fill="none" stroke="none"/><text fill="#000000" stroke="none" font-family="Arial" font-size="13px" font-style="normal" font-weight="bold" text-decoration="none" x="1107.042236328125" y="560.5">jersey-core 1.9</text></g></g><g transform="translate(-406,-110) scale(1,1)"><path fill="none" stroke="#000000" d="M 688 362 L 688 662 L 1440 662" stroke-miterlimit="10" stroke-dasharray="3"/></g><g transform="translate(-406,-110) scale(1,1)"><path fill="none" stroke="#000000" d="M 1429.837325142376 666.209517756016 L 1440 662 L 1429.837325142376 657.790482243984" stroke-miterlimit="10"/></g><g transform="translate(-406,-110) scale(1,1)"><path fill="none" stroke="#000000" d="M 744 362 L 744 550 L 1080 550" stroke-miterlimit="10" stroke-dasharray="3"/></g><g transform="translate(-406,-110) scale(1,1)"><path fill="none" stroke="#000000" d="M 1069.837325142376 554.209517756016 L 1080 550 L 1069.837325142376 545.790482243984" stroke-miterlimit="10"/></g><g transform="translate(-406,-110) scale(1,1)"><path fill="none" stroke="#000000" d="M 1120 364 L 1120 528" stroke-miterlimit="10" stroke-dasharray="3"/></g><g transform="translate(-406,-110) scale(1,1)"><path fill="none" stroke="#000000" d="M 1115.7904822439841 517.8373251423759 L 1120 528 L 1124.2095177560159 517.8373251423759" stroke-miterlimit="10"/></g><g transform="translate(-406,-110) scale(1,1)"><path fill="none" stroke="#000000" d="M 1552 364 L 1552 544 L 1200 544" stroke-miterlimit="10" stroke-dasharray="3"/></g><g transform="translate(-406,-110) scale(1,1)"><path fill="none" stroke="#000000" d="M 1210.162674857624 539.790482243984 L 1200 544 L 1210.162674857624 548.209517756016" stroke-miterlimit="10"/></g><g transform="translate(-406,-110) scale(1,1)"><rect fill="#C0C0C0" stroke="none" x="1817" y="127" width="98.44091796875" height="44" opacity="0.2"/></g><g transform="translate(-406,-110) scale(1,1)"><rect fill="#ffffff" stroke="none" x="1810" y="120" width="98.44091796875" height="44"/></g><g transform="translate(-406,-110) scale(1,1)"><path fill="none" stroke="#000000" d="M 1810 120 L 1908.44091796875 120 L 1908.44091796875 164 L 1810 164 L 1810 120 Z Z" stroke-miterlimit="10"/></g><g transform="translate(-406,-110) scale(1,1)"><rect fill="#ffffff" stroke="none" x="1800" y="127" width="20" height="10"/></g><g transform="translate(-406,-110) scale(1,1)"><path fill="none" stroke="#000000" d="M 1800 127 L 1820 127 L 1820 137 L 1800 137 L 1800 127 Z Z" stroke-miterlimit="10"/></g><g transform="translate(-406,-110) scale(1,1)"><rect fill="#ffffff" stroke="none" x="1800" y="147" width="20" height="10"/></g><g transform="translate(-406,-110) scale(1,1)"><path fill="none" stroke="#000000" d="M 1800 147 L 1820 147 L 1820 157 L 1800 157 L 1800 147 Z Z" stroke-miterlimit="10"/></g><g transform="translate(-406,-110) scale(1,1)"><g><path fill="none" stroke="none"/><text fill="#000000" stroke="none" font-family="Arial" font-size="13px" font-style="normal" font-weight="normal" text-decoration="none" x="1849.766845703125" y="137.5">«jar»</text></g></g><g transform="translate(-406,-110) scale(1,1)"><g><path fill="none" stroke="none"/><text fill="#000000" stroke="none" font-family="Arial" font-size="13px" font-style="normal" font-weight="bold" text-decoration="none" x="1831.6982421875" y="152.5">dozer 5.5.1</text></g></g><g transform="translate(-406,-110) scale(1,1)"><path fill="none" stroke="#000000" d="M 1608 320 L 1608 152 L 1800 152" stroke-miterlimit="10" stroke-dasharray="3"/></g><g transform="translate(-406,-110) scale(1,1)"><path fill="none" stroke="#000000" d="M 1789.837325142376 156.209517756016 L 1800 152 L 1789.837325142376 147.790482243984" stroke-miterlimit="10"/></g><g transform="translate(-406,-110) scale(1,1)"><path fill="none" stroke="#000000" d="M 1184 364 L 1184 464 L 1504 464 L 1504 640" stroke-miterlimit="10" stroke-dasharray="3"/></g><g transform="translate(-406,-110) scale(1,1)"><path fill="none" stroke="#000000" d="M 1499.7904822439841 629.8373251423759 L 1504 640 L 1508.2095177560159 629.8373251423759" stroke-miterlimit="10"/></g><g transform="translate(-406,-110) scale(1,1)"><path fill="#C0C0C0" stroke="none" d="M 926.7099609375 346.5 C 926.7099609375 340.1487248 931.8586857375 335 938.2099609375 335 C 944.5612361375 335 949.7099609375 340.1487248 949.7099609375 346.5 C 949.7099609375 352.8512752 944.5612361375 358 938.2099609375 358 C 931.8586857375 358 926.7099609375 352.8512752 926.7099609375 346.5 Z" opacity="0.2"/></g><g transform="translate(-406,-110) scale(1,1)"><path fill="none" stroke="#000000" d="M 931 350.5 A 11.5 11.5 0 0 1 931 327.5" stroke-miterlimit="10"/></g><g transform="translate(-406,-110) scale(1,1)"><path fill="#ffffff" stroke="none" d="M 922.7099609375 339.5 C 922.7099609375 334.8055792 926.5155401375 331 931.2099609375 331 C 935.9043817375 331 939.7099609375 334.8055792 939.7099609375 339.5 C 939.7099609375 344.1944208 935.9043817375 348 931.2099609375 348 C 926.5155401375 348 922.7099609375 344.1944208 922.7099609375 339.5 Z"/></g><g transform="translate(-406,-110) scale(1,1)"><path fill="none" stroke="#000000" d="M 922.7099609375 339.5 C 922.7099609375 334.8055792 926.5155401375 331 931.2099609375 331 C 935.9043817375 331 939.7099609375 334.8055792 939.7099609375 339.5 C 939.7099609375 344.1944208 935.9043817375 348 931.2099609375 348 C 926.5155401375 348 922.7099609375 344.1944208 922.7099609375 339.5 Z" stroke-miterlimit="10"/></g><g transform="translate(-406,-110) scale(1,1)"><g><path fill="none" stroke="none"/><text fill="#000000" stroke="none" font-family="Arial" font-size="13px" font-style="normal" font-weight="bold" text-decoration="none" x="913.87451171875" y="370.5">REST</text></g></g><g transform="translate(-406,-110) scale(1,1)"><path fill="#C0C0C0" stroke="none" d="M 1366.7099609375 346.5 C 1366.7099609375 340.1487248 1371.8586857375 335 1378.2099609375 335 C 1384.5612361375 335 1389.7099609375 340.1487248 1389.7099609375 346.5 C 1389.7099609375 352.8512752 1384.5612361375 358 1378.2099609375 358 C 1371.8586857375 358 1366.7099609375 352.8512752 1366.7099609375 346.5 Z" opacity="0.2"/></g><g transform="translate(-406,-110) scale(1,1)"><path fill="none" stroke="#000000" d="M 1371 350.5 A 11.5 11.5 0 0 1 1371 327.5" stroke-miterlimit="10"/></g><g transform="translate(-406,-110) scale(1,1)"><path fill="#ffffff" stroke="none" d="M 1362.7099609375 339.5 C 1362.7099609375 334.8055792 1366.5155401375 331 1371.2099609375 331 C 1375.9043817375 331 1379.7099609375 334.8055792 1379.7099609375 339.5 C 1379.7099609375 344.1944208 1375.9043817375 348 1371.2099609375 348 C 1366.5155401375 348 1362.7099609375 344.1944208 1362.7099609375 339.5 Z"/></g><g transform="translate(-406,-110) scale(1,1)"><path fill="none" stroke="#000000" d="M 1362.7099609375 339.5 C 1362.7099609375 334.8055792 1366.5155401375 331 1371.2099609375 331 C 1375.9043817375 331 1379.7099609375 334.8055792 1379.7099609375 339.5 C 1379.7099609375 344.1944208 1375.9043817375 348 1371.2099609375 348 C 1366.5155401375 348 1362.7099609375 344.1944208 1362.7099609375 339.5 Z" stroke-miterlimit="10"/></g><g transform="translate(-406,-110) scale(1,1)"><g><path fill="none" stroke="none"/><text fill="#000000" stroke="none" font-family="Arial" font-size="13px" font-style="normal" font-weight="bold" text-decoration="none" x="1353.87451171875" y="370.5">REST</text></g></g><g transform="translate(-406,-110) scale(1,1)"><path fill="none" stroke="#000000" d="M 1088 339 L 942.7099609375 339" stroke-miterlimit="10"/></g><g transform="translate(-406,-110) scale(1,1)"><g><path fill="none" stroke="none"/><text fill="#000000" stroke="none" font-family="Arial" font-size="13px" font-style="normal" font-weight="normal" text-decoration="none" x="979.5" y="360.5">+https:4321</text></g></g><g transform="translate(-406,-110) scale(1,1)"><path fill="none" stroke="#000000" d="M 1520 339 L 1382.7099609375 339" stroke-miterlimit="10"/></g><g transform="translate(-406,-110) scale(1,1)"><g><path fill="none" stroke="none"/><text fill="#000000" stroke="none" font-family="Arial" font-size="13px" font-style="normal" font-weight="normal" text-decoration="none" x="1426.5" y="360.5">+http:80</text></g></g><g transform="translate(-406,-110) scale(1,1)"><path fill="none" stroke="#000000" d="M 783 339 L 919.7099609375 339" stroke-miterlimit="10"/></g><g transform="translate(-406,-110) scale(1,1)"><path fill="none" stroke="#000000" d="M 1210 339 L 1359.7099609375 339" stroke-miterlimit="10"/></g><g transform="translate(-406,-110) scale(1,1)"><path fill="#ffffff" stroke="none" d="M 1792 539 L 1957 539 L 1967 549 L 1967 642 L 1792 642 L 1792 539"/></g><g transform="translate(-406,-110) scale(1,1)"><path fill="none" stroke="#000000" d="M 1792 539 L 1957 539 L 1967 549 L 1967 642 L 1792 642 L 1792 539 L 1792 539" stroke-miterlimit="10"/></g><g transform="translate(-406,-110) scale(1,1)"><path fill="none" stroke="#000000" d="M 1957 539 L 1957 549 L 1967 549 L 1957 539" stroke-miterlimit="10"/></g><g transform="translate(-406,-110) scale(1,1)"><path fill="#ffd8d8" stroke="none" d="M 1810.6666666666667 547 L 1852.3333333333333 547 Q 1863 547 1863 557.6666666666666 L 1863 568.3333333333334 Q 1863 579 1852.3333333333333 579 L 1810.6666666666667 579 Q 1800 579 1800 568.3333333333334 L 1800 557.6666666666666 Q 1800 547 1810.6666666666667 547 Z"/></g><g transform="translate(-406,-110) scale(1,1)"><path fill="none" stroke="#000000" d="M 1810.6666666666667 547 L 1852.3333333333333 547 Q 1863 547 1863 557.6666666666666 L 1863 568.3333333333334 Q 1863 579 1852.3333333333333 579 L 1810.6666666666667 579 Q 1800 579 1800 568.3333333333334 L 1800 557.6666666666666 Q 1800 547 1810.6666666666667 547 Z" stroke-miterlimit="10"/></g><g transform="translate(-406,-110) scale(1,1)"><path fill="#ebd8ff" stroke="none" d="M 1810.6666666666667 595 L 1852.3333333333333 595 Q 1863 595 1863 605.6666666666666 L 1863 616.3333333333334 Q 1863 627 1852.3333333333333 627 L 1810.6666666666667 627 Q 1800 627 1800 616.3333333333334 L 1800 605.6666666666666 Q 1800 595 1810.6666666666667 595 Z"/></g><g transform="translate(-406,-110) scale(1,1)"><path fill="none" stroke="#000000" d="M 1810.6666666666667 595 L 1852.3333333333333 595 Q 1863 595 1863 605.6666666666666 L 1863 616.3333333333334 Q 1863 627 1852.3333333333333 627 L 1810.6666666666667 627 Q 1800 627 1800 616.3333333333334 L 1800 605.6666666666666 Q 1800 595 1810.6666666666667 595 Z" stroke-miterlimit="10"/></g><g transform="translate(-406,-110) scale(1,1)"><g><path fill="none" stroke="none"/><text fill="#000000" stroke="none" font-family="Arial" font-size="20px" font-style="normal" font-weight="normal" text-decoration="none" x="1869" y="572">Usman</text></g></g><g transform="translate(-406,-110) scale(1,1)"><g><path fill="none" stroke="none"/><text fill="#000000" stroke="none" font-family="Arial" font-size="20px" font-style="normal" font-weight="normal" text-decoration="none" x="1869" y="620">Thibault</text></g></g><g transform="translate(-406,-110) scale(1,1)"><rect fill="#C0C0C0" stroke="none" x="1105" y="191" width="149.76806640625" height="44" opacity="0.2"/></g><g transform="translate(-406,-110) scale(1,1)"><rect fill="#ebd8ff" stroke="none" x="1098" y="184" width="149.76806640625" height="44"/></g><g transform="translate(-406,-110) scale(1,1)"><path fill="none" stroke="#000000" d="M 1098 184 L 1247.76806640625 184 L 1247.76806640625 228 L 1098 228 L 1098 184 Z Z" stroke-miterlimit="10"/></g><g transform="translate(-406,-110) scale(1,1)"><rect fill="#ebd8ff" stroke="none" x="1088" y="191" width="20" height="10"/></g><g transform="translate(-406,-110) scale(1,1)"><path fill="none" stroke="#000000" d="M 1088 191 L 1108 191 L 1108 201 L 1088 201 L 1088 191 Z Z" stroke-miterlimit="10"/></g><g transform="translate(-406,-110) scale(1,1)"><rect fill="#ebd8ff" stroke="none" x="1088" y="211" width="20" height="10"/></g><g transform="translate(-406,-110) scale(1,1)"><path fill="none" stroke="#000000" d="M 1088 211 L 1108 211 L 1108 221 L 1088 221 L 1088 211 Z Z" stroke-miterlimit="10"/></g><g transform="translate(-406,-110) scale(1,1)"><g><path fill="none" stroke="none"/><text fill="#000000" stroke="none" font-family="Arial" font-size="13px" font-style="normal" font-weight="normal" text-decoration="none" x="1163.430419921875" y="201.5">«jar»</text></g></g><g transform="translate(-406,-110) scale(1,1)"><g><path fill="none" stroke="none"/><text fill="#000000" stroke="none" font-family="Arial" font-size="13px" font-style="normal" font-weight="bold" text-decoration="none" x="1117.908203125" y="216.5">notificationserver 1.0</text></g></g><g transform="translate(-406,-110) scale(1,1)"><path fill="none" stroke="#000000" d="M 1164 320 L 1164 228" stroke-miterlimit="10" stroke-dasharray="3"/></g><g transform="translate(-406,-110) scale(1,1)"><path fill="none" stroke="#000000" d="M 1168.2095177560159 238.16267485762415 L 1164 228 L 1159.7904822439841 238.16267485762415" stroke-miterlimit="10"/></g></g></svg>