<svg version="1.1" xmlns="http://www.w3.org/2000/svg" xmlns:xlink="http://www.w3.org/1999/xlink" width="2410" height="1061"><defs/><g><g transform="translate(-310,-584) scale(1,1)"><rect fill="#C0C0C0" stroke="none" x="846" y="1449" width="98.44091796875" height="44" opacity="0.2"/></g><g transform="translate(-310,-584) scale(1,1)"><rect fill="#ffd8d8" stroke="none" x="839" y="1442" width="98.44091796875" height="44"/></g><g transform="translate(-310,-584) scale(1,1)"><path fill="none" stroke="#000000" d="M 839 1442 L 937.44091796875 1442 L 937.44091796875 1486 L 839 1486 L 839 1442 Z Z" stroke-miterlimit="10"/></g><g transform="translate(-310,-584) scale(1,1)"><rect fill="#ffd8d8" stroke="none" x="829" y="1449" width="20" height="10"/></g><g transform="translate(-310,-584) scale(1,1)"><path fill="none" stroke="#000000" d="M 829 1449 L 849 1449 L 849 1459 L 829 1459 L 829 1449 Z Z" stroke-miterlimit="10"/></g><g transform="translate(-310,-584) scale(1,1)"><rect fill="#ffd8d8" stroke="none" x="829" y="1469" width="20" height="10"/></g><g transform="translate(-310,-584) scale(1,1)"><path fill="none" stroke="#000000" d="M 829 1469 L 849 1469 L 849 1479 L 829 1479 L 829 1469 Z Z" stroke-miterlimit="10"/></g><g transform="translate(-310,-584) scale(1,1)"><g><path fill="none" stroke="none"/><text fill="#000000" stroke="none" font-family="Arial" font-size="13px" font-style="normal" font-weight="normal" text-decoration="none" x="875.510498046875" y="1459.5">«apk»</text></g></g><g transform="translate(-310,-584) scale(1,1)"><g><path fill="none" stroke="none"/><text fill="#000000" stroke="none" font-family="Arial" font-size="13px" font-style="normal" font-weight="bold" text-decoration="none" x="859.974609375" y="1474.5">esibank.1.0</text></g></g><g transform="translate(-310,-584) scale(1,1)"><rect fill="#C0C0C0" stroke="none" x="662" y="1081" width="214" height="64" opacity="0.2"/></g><g transform="translate(-310,-584) scale(1,1)"><rect fill="#ffd8d8" stroke="none" x="655" y="1074" width="214" height="64"/></g><g transform="translate(-310,-584) scale(1,1)"><path fill="none" stroke="#000000" d="M 655 1074 L 869 1074 L 869 1138 L 655 1138 L 655 1074 Z Z" stroke-miterlimit="10"/></g><g transform="translate(-310,-584) scale(1,1)"><rect fill="#ffd8d8" stroke="none" x="645" y="1081" width="20" height="10"/></g><g transform="translate(-310,-584) scale(1,1)"><path fill="none" stroke="#000000" d="M 645 1081 L 665 1081 L 665 1091 L 645 1091 L 645 1081 Z Z" stroke-miterlimit="10"/></g><g transform="translate(-310,-584) scale(1,1)"><rect fill="#ffd8d8" stroke="none" x="645" y="1101" width="20" height="10"/></g><g transform="translate(-310,-584) scale(1,1)"><path fill="none" stroke="#000000" d="M 645 1101 L 665 1101 L 665 1111 L 645 1111 L 645 1101 Z Z" stroke-miterlimit="10"/></g><g transform="translate(-310,-584) scale(1,1)"><g><path fill="none" stroke="none"/><text fill="#000000" stroke="none" font-family="Arial" font-size="13px" font-style="normal" font-weight="normal" text-decoration="none" x="740.263671875" y="1091.5">«artifact»</text></g></g><g transform="translate(-310,-584) scale(1,1)"><g><path fill="none" stroke="none"/><text fill="#000000" stroke="none" font-family="Arial" font-size="13px" font-style="normal" font-weight="bold" text-decoration="none" x="734.833251953125" y="1106.5">dab.app.py</text></g></g><g transform="translate(-310,-584) scale(1,1)"><rect fill="#C0C0C0" stroke="none" x="542" y="1369" width="115.814453125" height="44" opacity="0.2"/></g><g transform="translate(-310,-584) scale(1,1)"><rect fill="#ffd8d8" stroke="none" x="535" y="1362" width="115.814453125" height="44"/></g><g transform="translate(-310,-584) scale(1,1)"><path fill="none" stroke="#000000" d="M 535 1362 L 650.814453125 1362 L 650.814453125 1406 L 535 1406 L 535 1362 Z Z" stroke-miterlimit="10"/></g><g transform="translate(-310,-584) scale(1,1)"><rect fill="#ffd8d8" stroke="none" x="525" y="1369" width="20" height="10"/></g><g transform="translate(-310,-584) scale(1,1)"><path fill="none" stroke="#000000" d="M 525 1369 L 545 1369 L 545 1379 L 525 1379 L 525 1369 Z Z" stroke-miterlimit="10"/></g><g transform="translate(-310,-584) scale(1,1)"><rect fill="#ffd8d8" stroke="none" x="525" y="1389" width="20" height="10"/></g><g transform="translate(-310,-584) scale(1,1)"><path fill="none" stroke="#000000" d="M 525 1389 L 545 1389 L 545 1399 L 525 1399 L 525 1389 Z Z" stroke-miterlimit="10"/></g><g transform="translate(-310,-584) scale(1,1)"><g><path fill="none" stroke="none"/><text fill="#000000" stroke="none" font-family="Arial" font-size="13px" font-style="normal" font-weight="normal" text-decoration="none" x="571.1708984375" y="1379.5">«artifact»</text></g></g><g transform="translate(-310,-584) scale(1,1)"><g><path fill="none" stroke="none"/><text fill="#000000" stroke="none" font-family="Arial" font-size="13px" font-style="normal" font-weight="bold" text-decoration="none" x="552.740478515625" y="1394.5">nfc_gateway.py</text></g></g><g transform="translate(-310,-584) scale(1,1)"><rect fill="#C0C0C0" stroke="none" x="678" y="601" width="98.44091796875" height="44" opacity="0.2"/></g><g transform="translate(-310,-584) scale(1,1)"><rect fill="#ffffff" stroke="none" x="671" y="594" width="98.44091796875" height="44"/></g><g transform="translate(-310,-584) scale(1,1)"><path fill="none" stroke="#000000" d="M 671 594 L 769.44091796875 594 L 769.44091796875 638 L 671 638 L 671 594 Z Z" stroke-miterlimit="10"/></g><g transform="translate(-310,-584) scale(1,1)"><rect fill="#ffffff" stroke="none" x="661" y="601" width="20" height="10"/></g><g transform="translate(-310,-584) scale(1,1)"><path fill="none" stroke="#000000" d="M 661 601 L 681 601 L 681 611 L 661 611 L 661 601 Z Z" stroke-miterlimit="10"/></g><g transform="translate(-310,-584) scale(1,1)"><rect fill="#ffffff" stroke="none" x="661" y="621" width="20" height="10"/></g><g transform="translate(-310,-584) scale(1,1)"><path fill="none" stroke="#000000" d="M 661 621 L 681 621 L 681 631 L 661 631 L 661 621 Z Z" stroke-miterlimit="10"/></g><g transform="translate(-310,-584) scale(1,1)"><g><path fill="none" stroke="none"/><text fill="#000000" stroke="none" font-family="Arial" font-size="13px" font-style="normal" font-weight="bold" text-decoration="none" x="689.813232421875" y="613.5">Flask.0.12.2</text></g></g><g transform="translate(-310,-584) scale(1,1)"><rect fill="#C0C0C0" stroke="none" x="678" y="681" width="123.75537109375" height="44" opacity="0.2"/></g><g transform="translate(-310,-584) scale(1,1)"><rect fill="#ffffff" stroke="none" x="671" y="674" width="123.75537109375" height="44"/></g><g transform="translate(-310,-584) scale(1,1)"><path fill="none" stroke="#000000" d="M 671 674 L 794.75537109375 674 L 794.75537109375 718 L 671 718 L 671 674 Z Z" stroke-miterlimit="10"/></g><g transform="translate(-310,-584) scale(1,1)"><rect fill="#ffffff" stroke="none" x="661" y="681" width="20" height="10"/></g><g transform="translate(-310,-584) scale(1,1)"><path fill="none" stroke="#000000" d="M 661 681 L 681 681 L 681 691 L 661 691 L 661 681 Z Z" stroke-miterlimit="10"/></g><g transform="translate(-310,-584) scale(1,1)"><rect fill="#ffffff" stroke="none" x="661" y="701" width="20" height="10"/></g><g transform="translate(-310,-584) scale(1,1)"><path fill="none" stroke="#000000" d="M 661 701 L 681 701 L 681 711 L 661 711 L 661 701 Z Z" stroke-miterlimit="10"/></g><g transform="translate(-310,-584) scale(1,1)"><g><path fill="none" stroke="none"/><text fill="#000000" stroke="none" font-family="Arial" font-size="13px" font-style="normal" font-weight="bold" text-decoration="none" x="710.055908203125" y="693.5">Bootstrap</text></g></g><g transform="translate(-310,-584) scale(1,1)"><rect fill="#C0C0C0" stroke="none" x="678" y="761" width="155.55078125" height="44" opacity="0.2"/></g><g transform="translate(-310,-584) scale(1,1)"><rect fill="#ffffff" stroke="none" x="671" y="754" width="155.55078125" height="44"/></g><g transform="translate(-310,-584) scale(1,1)"><path fill="none" stroke="#000000" d="M 671 754 L 826.55078125 754 L 826.55078125 798 L 671 798 L 671 754 Z Z" stroke-miterlimit="10"/></g><g transform="translate(-310,-584) scale(1,1)"><rect fill="#ffffff" stroke="none" x="661" y="761" width="20" height="10"/></g><g transform="translate(-310,-584) scale(1,1)"><path fill="none" stroke="#000000" d="M 661 761 L 681 761 L 681 771 L 661 771 L 661 761 Z Z" stroke-miterlimit="10"/></g><g transform="translate(-310,-584) scale(1,1)"><rect fill="#ffffff" stroke="none" x="661" y="781" width="20" height="10"/></g><g transform="translate(-310,-584) scale(1,1)"><path fill="none" stroke="#000000" d="M 661 781 L 681 781 L 681 791 L 661 791 L 661 781 Z Z" stroke-miterlimit="10"/></g><g transform="translate(-310,-584) scale(1,1)"><g><path fill="none" stroke="none"/><text fill="#000000" stroke="none" font-family="Arial" font-size="13px" font-style="normal" font-weight="bold" text-decoration="none" x="689.819580078125" y="773.5">flask.bootstrap.3.3.7.0</text></g></g><g transform="translate(-310,-584) scale(1,1)"><rect fill="#C0C0C0" stroke="none" x="678" y="833" width="141.12255859375" height="44" opacity="0.2"/></g><g transform="translate(-310,-584) scale(1,1)"><rect fill="#ffffff" stroke="none" x="671" y="826" width="141.12255859375" height="44"/></g><g transform="translate(-310,-584) scale(1,1)"><path fill="none" stroke="#000000" d="M 671 826 L 812.12255859375 826 L 812.12255859375 870 L 671 870 L 671 826 Z Z" stroke-miterlimit="10"/></g><g transform="translate(-310,-584) scale(1,1)"><rect fill="#ffffff" stroke="none" x="661" y="833" width="20" height="10"/></g><g transform="translate(-310,-584) scale(1,1)"><path fill="none" stroke="#000000" d="M 661 833 L 681 833 L 681 843 L 661 843 L 661 833 Z Z" stroke-miterlimit="10"/></g><g transform="translate(-310,-584) scale(1,1)"><rect fill="#ffffff" stroke="none" x="661" y="853" width="20" height="10"/></g><g transform="translate(-310,-584) scale(1,1)"><path fill="none" stroke="#000000" d="M 661 853 L 681 853 L 681 863 L 661 863 L 661 853 Z Z" stroke-miterlimit="10"/></g><g transform="translate(-310,-584) scale(1,1)"><g><path fill="none" stroke="none"/><text fill="#000000" stroke="none" font-family="Arial" font-size="13px" font-style="normal" font-weight="bold" text-decoration="none" x="689.476806640625" y="845.5">flask.socket.io.2.9.0</text></g></g><g transform="translate(-310,-584) scale(1,1)"><rect fill="#C0C0C0" stroke="none" x="337" y="1351" width="112.9453125" height="44" opacity="0.2"/></g><g transform="translate(-310,-584) scale(1,1)"><rect fill="#ffffff" stroke="none" x="330" y="1344" width="112.9453125" height="44"/></g><g transform="translate(-310,-584) scale(1,1)"><path fill="none" stroke="#000000" d="M 330 1344 L 442.9453125 1344 L 442.9453125 1388 L 330 1388 L 330 1344 Z Z" stroke-miterlimit="10"/></g><g transform="translate(-310,-584) scale(1,1)"><rect fill="#ffffff" stroke="none" x="320" y="1351" width="20" height="10"/></g><g transform="translate(-310,-584) scale(1,1)"><path fill="none" stroke="#000000" d="M 320 1351 L 340 1351 L 340 1361 L 320 1361 L 320 1351 Z Z" stroke-miterlimit="10"/></g><g transform="translate(-310,-584) scale(1,1)"><rect fill="#ffffff" stroke="none" x="320" y="1371" width="20" height="10"/></g><g transform="translate(-310,-584) scale(1,1)"><path fill="none" stroke="#000000" d="M 320 1371 L 340 1371 L 340 1381 L 320 1381 L 320 1371 Z Z" stroke-miterlimit="10"/></g><g transform="translate(-310,-584) scale(1,1)"><g><path fill="none" stroke="none"/><text fill="#000000" stroke="none" font-family="Arial" font-size="13px" font-style="normal" font-weight="bold" text-decoration="none" x="346.66455078125" y="1363.5">requests.2.18.4</text></g></g><g transform="translate(-310,-584) scale(1,1)"><path fill="none" stroke="#000000" d="M 645 1120 L 400 1120 L 400 1344" stroke-miterlimit="10" stroke-dasharray="3"/></g><g transform="translate(-310,-584) scale(1,1)"><path fill="none" stroke="#000000" d="M 395.790482243984 1333.837325142376 L 400 1344 L 404.209517756016 1333.837325142376" stroke-miterlimit="10"/></g><g transform="translate(-310,-584) scale(1,1)"><path fill="none" stroke="#000000" d="M 645 1090 L 565 1090 L 565 848 L 661 848" stroke-miterlimit="10" stroke-dasharray="3"/></g><g transform="translate(-310,-584) scale(1,1)"><path fill="none" stroke="#000000" d="M 650.8373251423759 852.209517756016 L 661 848 L 650.8373251423758 843.790482243984" stroke-miterlimit="10"/></g><g transform="translate(-310,-584) scale(1,1)"><path fill="none" stroke="#000000" d="M 645 1098 L 549 1098 L 549 776 L 661 776" stroke-miterlimit="10" stroke-dasharray="3"/></g><g transform="translate(-310,-584) scale(1,1)"><path fill="none" stroke="#000000" d="M 650.8373251423759 780.209517756016 L 661 776 L 650.8373251423758 771.790482243984" stroke-miterlimit="10"/></g><g transform="translate(-310,-584) scale(1,1)"><path fill="none" stroke="#000000" d="M 645 1106 L 533 1106 L 533 696 L 661 696" stroke-miterlimit="10" stroke-dasharray="3"/></g><g transform="translate(-310,-584) scale(1,1)"><path fill="none" stroke="#000000" d="M 650.8373251423759 700.209517756016 L 661 696 L 650.8373251423758 691.790482243984" stroke-miterlimit="10"/></g><g transform="translate(-310,-584) scale(1,1)"><path fill="none" stroke="#000000" d="M 645 1114 L 509 1114 L 509 616 L 661 616" stroke-miterlimit="10" stroke-dasharray="3"/></g><g transform="translate(-310,-584) scale(1,1)"><path fill="none" stroke="#000000" d="M 650.8373251423759 620.209517756016 L 661 616 L 650.8373251423758 611.790482243984" stroke-miterlimit="10"/></g><g transform="translate(-310,-584) scale(1,1)"><rect fill="#C0C0C0" stroke="none" x="542" y="1185" width="98.44091796875" height="44" opacity="0.2"/></g><g transform="translate(-310,-584) scale(1,1)"><rect fill="#ffffff" stroke="none" x="535" y="1178" width="98.44091796875" height="44"/></g><g transform="translate(-310,-584) scale(1,1)"><path fill="none" stroke="#000000" d="M 535 1178 L 633.44091796875 1178 L 633.44091796875 1222 L 535 1222 L 535 1178 Z Z" stroke-miterlimit="10"/></g><g transform="translate(-310,-584) scale(1,1)"><rect fill="#ffffff" stroke="none" x="525" y="1185" width="20" height="10"/></g><g transform="translate(-310,-584) scale(1,1)"><path fill="none" stroke="#000000" d="M 525 1185 L 545 1185 L 545 1195 L 525 1195 L 525 1185 Z Z" stroke-miterlimit="10"/></g><g transform="translate(-310,-584) scale(1,1)"><rect fill="#ffffff" stroke="none" x="525" y="1205" width="20" height="10"/></g><g transform="translate(-310,-584) scale(1,1)"><path fill="none" stroke="#000000" d="M 525 1205 L 545 1205 L 545 1215 L 525 1215 L 525 1205 Z Z" stroke-miterlimit="10"/></g><g transform="translate(-310,-584) scale(1,1)"><g><path fill="none" stroke="none"/><text fill="#000000" stroke="none" font-family="Arial" font-size="13px" font-style="normal" font-weight="bold" text-decoration="none" x="558.86279296875" y="1197.5">python.2.7</text></g></g><g transform="translate(-310,-584) scale(1,1)"><path fill="none" stroke="#000000" d="M 645 1128 L 581 1128 L 581 1178" stroke-miterlimit="10" stroke-dasharray="3"/></g><g transform="translate(-310,-584) scale(1,1)"><path fill="none" stroke="#000000" d="M 576.790482243984 1167.837325142376 L 581 1178 L 585.209517756016 1167.837325142376" stroke-miterlimit="10"/></g><g transform="translate(-310,-584) scale(1,1)"><path fill="none" stroke="#000000" d="M 579 1362 L 579 1222" stroke-miterlimit="10" stroke-dasharray="3"/></g><g transform="translate(-310,-584) scale(1,1)"><path fill="none" stroke="#000000" d="M 583.209517756016 1232.162674857624 L 579 1222 L 574.790482243984 1232.162674857624" stroke-miterlimit="10"/></g><g transform="translate(-310,-584) scale(1,1)"><path fill="#C0C0C0" stroke="none" d="M 710.7099609375 1474.5 C 710.7099609375 1468.1487248 715.8586857375 1463 722.2099609375 1463 C 728.5612361375 1463 733.7099609375 1468.1487248 733.7099609375 1474.5 C 733.7099609375 1480.8512752 728.5612361375 1486 722.2099609375 1486 C 715.8586857375 1486 710.7099609375 1480.8512752 710.7099609375 1474.5 Z" opacity="0.2"/></g><g transform="translate(-310,-584) scale(1,1)"><path fill="none" stroke="#000000" d="M 715 1455.5 A 11.5 11.5 0 0 1 715 1478.5" stroke-miterlimit="10"/></g><g transform="translate(-310,-584) scale(1,1)"><path fill="#ffffff" stroke="none" d="M 706.7099609375 1467.5 C 706.7099609375 1462.8055792 710.5155401375 1459 715.2099609375 1459 C 719.9043817375 1459 723.7099609375 1462.8055792 723.7099609375 1467.5 C 723.7099609375 1472.1944208 719.9043817375 1476 715.2099609375 1476 C 710.5155401375 1476 706.7099609375 1472.1944208 706.7099609375 1467.5 Z"/></g><g transform="translate(-310,-584) scale(1,1)"><path fill="none" stroke="#000000" d="M 706.7099609375 1467.5 C 706.7099609375 1462.8055792 710.5155401375 1459 715.2099609375 1459 C 719.9043817375 1459 723.7099609375 1462.8055792 723.7099609375 1467.5 C 723.7099609375 1472.1944208 719.9043817375 1476 715.2099609375 1476 C 710.5155401375 1476 706.7099609375 1472.1944208 706.7099609375 1467.5 Z" stroke-miterlimit="10"/></g><g transform="translate(-310,-584) scale(1,1)"><g><path fill="none" stroke="none"/><text fill="#000000" stroke="none" font-family="Arial" font-size="13px" font-style="normal" font-weight="bold" text-decoration="none" x="701.851318359375" y="1498.5">NFC</text></g></g><g transform="translate(-310,-584) scale(1,1)"><path fill="none" stroke="#000000" d="M 616 1406 L 616 1467 L 703.7099609375 1467" stroke-miterlimit="10"/></g><g transform="translate(-310,-584) scale(1,1)"><path fill="none" stroke="#000000" d="M 829 1467 L 726.7099609375 1467" stroke-miterlimit="10"/></g><g transform="translate(-310,-584) scale(1,1)"><g><path fill="none" stroke="none"/><text fill="#000000" stroke="none" font-family="Arial" font-size="13px" font-style="normal" font-weight="normal" text-decoration="none" x="754.510009765625" y="1488.5">+NDEF</text></g></g><g transform="translate(-310,-584) scale(1,1)"><path fill="#C0C0C0" stroke="none" d="M 742.7099609375 1292.5 C 742.7099609375 1286.1487248 747.8586857375 1281 754.2099609375 1281 C 760.5612361375 1281 765.7099609375 1286.1487248 765.7099609375 1292.5 C 765.7099609375 1298.8512752 760.5612361375 1304 754.2099609375 1304 C 747.8586857375 1304 742.7099609375 1298.8512752 742.7099609375 1292.5 Z" opacity="0.2"/></g><g transform="translate(-310,-584) scale(1,1)"><path fill="none" stroke="#000000" d="M 747 1296.5 A 11.5 11.5 0 0 1 747 1273.5" stroke-miterlimit="10"/></g><g transform="translate(-310,-584) scale(1,1)"><path fill="#ffffff" stroke="none" d="M 738.7099609375 1285.5 C 738.7099609375 1280.8055792 742.5155401375 1277 747.2099609375 1277 C 751.9043817375 1277 755.7099609375 1280.8055792 755.7099609375 1285.5 C 755.7099609375 1290.1944208 751.9043817375 1294 747.2099609375 1294 C 742.5155401375 1294 738.7099609375 1290.1944208 738.7099609375 1285.5 Z"/></g><g transform="translate(-310,-584) scale(1,1)"><path fill="none" stroke="#000000" d="M 738.7099609375 1285.5 C 738.7099609375 1280.8055792 742.5155401375 1277 747.2099609375 1277 C 751.9043817375 1277 755.7099609375 1280.8055792 755.7099609375 1285.5 C 755.7099609375 1290.1944208 751.9043817375 1294 747.2099609375 1294 C 742.5155401375 1294 738.7099609375 1290.1944208 738.7099609375 1285.5 Z" stroke-miterlimit="10"/></g><g transform="translate(-310,-584) scale(1,1)"><g><path fill="none" stroke="none"/><text fill="#000000" stroke="none" font-family="Arial" font-size="13px" font-style="normal" font-weight="bold" text-decoration="none" x="729.87451171875" y="1316.5">REST</text></g></g><g transform="translate(-310,-584) scale(1,1)"><path fill="none" stroke="#000000" d="M 845 1138 L 845 1285 L 758.7099609375 1285" stroke-miterlimit="10"/></g><g transform="translate(-310,-584) scale(1,1)"><g><path fill="none" stroke="none"/><text fill="#000000" stroke="none" font-family="Arial" font-size="13px" font-style="normal" font-weight="normal" text-decoration="none" x="822.733642578125" y="1306.5">+HTTP</text></g></g><g transform="translate(-310,-584) scale(1,1)"><path fill="none" stroke="#000000" d="M 616 1362 L 616 1285 L 735.7099609375 1285" stroke-miterlimit="10"/></g><g transform="translate(-310,-584) scale(1,1)"><rect fill="#C0C0C0" stroke="none" x="1652" y="1077" width="171" height="44" opacity="0.2"/></g><g transform="translate(-310,-584) scale(1,1)"><rect fill="#ebd8ff" stroke="none" x="1645" y="1070" width="171" height="44"/></g><g transform="translate(-310,-584) scale(1,1)"><path fill="none" stroke="#000000" d="M 1645 1070 L 1816 1070 L 1816 1114 L 1645 1114 L 1645 1070 Z Z" stroke-miterlimit="10"/></g><g transform="translate(-310,-584) scale(1,1)"><rect fill="#ebd8ff" stroke="none" x="1635" y="1077" width="20" height="10"/></g><g transform="translate(-310,-584) scale(1,1)"><path fill="none" stroke="#000000" d="M 1635 1077 L 1655 1077 L 1655 1087 L 1635 1087 L 1635 1077 Z Z" stroke-miterlimit="10"/></g><g transform="translate(-310,-584) scale(1,1)"><rect fill="#ebd8ff" stroke="none" x="1635" y="1097" width="20" height="10"/></g><g transform="translate(-310,-584) scale(1,1)"><path fill="none" stroke="#000000" d="M 1635 1097 L 1655 1097 L 1655 1107 L 1635 1107 L 1635 1097 Z Z" stroke-miterlimit="10"/></g><g transform="translate(-310,-584) scale(1,1)"><g><path fill="none" stroke="none"/><text fill="#000000" stroke="none" font-family="Arial" font-size="13px" font-style="normal" font-weight="normal" text-decoration="none" x="1721.04638671875" y="1087.5">«jar»</text></g></g><g transform="translate(-310,-584) scale(1,1)"><g><path fill="none" stroke="none"/><text fill="#000000" stroke="none" font-family="Arial" font-size="13px" font-style="normal" font-weight="bold" text-decoration="none" x="1694.313232421875" y="1102.5">securerest 1.0</text></g></g><g transform="translate(-310,-584) scale(1,1)"><rect fill="#C0C0C0" stroke="none" x="2084" y="1077" width="166" height="44" opacity="0.2"/></g><g transform="translate(-310,-584) scale(1,1)"><rect fill="#ebd8ff" stroke="none" x="2077" y="1070" width="166" height="44"/></g><g transform="translate(-310,-584) scale(1,1)"><path fill="none" stroke="#000000" d="M 2077 1070 L 2243 1070 L 2243 1114 L 2077 1114 L 2077 1070 Z Z" stroke-miterlimit="10"/></g><g transform="translate(-310,-584) scale(1,1)"><rect fill="#ebd8ff" stroke="none" x="2067" y="1077" width="20" height="10"/></g><g transform="translate(-310,-584) scale(1,1)"><path fill="none" stroke="#000000" d="M 2067 1077 L 2087 1077 L 2087 1087 L 2067 1087 L 2067 1077 Z Z" stroke-miterlimit="10"/></g><g transform="translate(-310,-584) scale(1,1)"><rect fill="#ebd8ff" stroke="none" x="2067" y="1097" width="20" height="10"/></g><g transform="translate(-310,-584) scale(1,1)"><path fill="none" stroke="#000000" d="M 2067 1097 L 2087 1097 L 2087 1107 L 2067 1107 L 2067 1097 Z Z" stroke-miterlimit="10"/></g><g transform="translate(-310,-584) scale(1,1)"><g><path fill="none" stroke="none"/><text fill="#000000" stroke="none" font-family="Arial" font-size="13px" font-style="normal" font-weight="normal" text-decoration="none" x="2150.54638671875" y="1087.5">«jar»</text></g></g><g transform="translate(-310,-584) scale(1,1)"><g><path fill="none" stroke="none"/><text fill="#000000" stroke="none" font-family="Arial" font-size="13px" font-style="normal" font-weight="bold" text-decoration="none" x="2121.27734375" y="1102.5">dataaccess 1.0</text></g></g><g transform="translate(-310,-584) scale(1,1)"><rect fill="#C0C0C0" stroke="none" x="1218" y="1075" width="173" height="44" opacity="0.2"/></g><g transform="translate(-310,-584) scale(1,1)"><rect fill="#ebd8ff" stroke="none" x="1211" y="1068" width="173" height="44"/></g><g transform="translate(-310,-584) scale(1,1)"><path fill="none" stroke="#000000" d="M 1211 1068 L 1384 1068 L 1384 1112 L 1211 1112 L 1211 1068 Z Z" stroke-miterlimit="10"/></g><g transform="translate(-310,-584) scale(1,1)"><rect fill="#ebd8ff" stroke="none" x="1201" y="1075" width="20" height="10"/></g><g transform="translate(-310,-584) scale(1,1)"><path fill="none" stroke="#000000" d="M 1201 1075 L 1221 1075 L 1221 1085 L 1201 1085 L 1201 1075 Z Z" stroke-miterlimit="10"/></g><g transform="translate(-310,-584) scale(1,1)"><rect fill="#ebd8ff" stroke="none" x="1201" y="1095" width="20" height="10"/></g><g transform="translate(-310,-584) scale(1,1)"><path fill="none" stroke="#000000" d="M 1201 1095 L 1221 1095 L 1221 1105 L 1201 1105 L 1201 1095 Z Z" stroke-miterlimit="10"/></g><g transform="translate(-310,-584) scale(1,1)"><g><path fill="none" stroke="none"/><text fill="#000000" stroke="none" font-family="Arial" font-size="13px" font-style="normal" font-weight="normal" text-decoration="none" x="1288.04638671875" y="1085.5">«jar»</text></g></g><g transform="translate(-310,-584) scale(1,1)"><g><path fill="none" stroke="none"/><text fill="#000000" stroke="none" font-family="Arial" font-size="13px" font-style="normal" font-weight="bold" text-decoration="none" x="1263.477783203125" y="1100.5">payfreeclt 1.0</text></g></g><g transform="translate(-310,-584) scale(1,1)"><rect fill="#C0C0C0" stroke="none" x="1220" y="981" width="99.17724609375" height="44" opacity="0.2"/></g><g transform="translate(-310,-584) scale(1,1)"><rect fill="#ffffff" stroke="none" x="1213" y="974" width="99.17724609375" height="44"/></g><g transform="translate(-310,-584) scale(1,1)"><path fill="none" stroke="#000000" d="M 1213 974 L 1312.17724609375 974 L 1312.17724609375 1018 L 1213 1018 L 1213 974 Z Z" stroke-miterlimit="10"/></g><g transform="translate(-310,-584) scale(1,1)"><rect fill="#ffffff" stroke="none" x="1203" y="981" width="20" height="10"/></g><g transform="translate(-310,-584) scale(1,1)"><path fill="none" stroke="#000000" d="M 1203 981 L 1223 981 L 1223 991 L 1203 991 L 1203 981 Z Z" stroke-miterlimit="10"/></g><g transform="translate(-310,-584) scale(1,1)"><rect fill="#ffffff" stroke="none" x="1203" y="1001" width="20" height="10"/></g><g transform="translate(-310,-584) scale(1,1)"><path fill="none" stroke="#000000" d="M 1203 1001 L 1223 1001 L 1223 1011 L 1203 1011 L 1203 1001 Z Z" stroke-miterlimit="10"/></g><g transform="translate(-310,-584) scale(1,1)"><g><path fill="none" stroke="none"/><text fill="#000000" stroke="none" font-family="Arial" font-size="13px" font-style="normal" font-weight="normal" text-decoration="none" x="1253.135009765625" y="991.5">«jar»</text></g></g><g transform="translate(-310,-584) scale(1,1)"><g><path fill="none" stroke="none"/><text fill="#000000" stroke="none" font-family="Arial" font-size="13px" font-style="normal" font-weight="bold" text-decoration="none" x="1230.73095703125" y="1006.5">httpclient 4.5</text></g></g><g transform="translate(-310,-584) scale(1,1)"><rect fill="#C0C0C0" stroke="none" x="1788" y="1341" width="182.97265625" height="44" opacity="0.2"/></g><g transform="translate(-310,-584) scale(1,1)"><rect fill="#ffffff" stroke="none" x="1781" y="1334" width="182.97265625" height="44"/></g><g transform="translate(-310,-584) scale(1,1)"><path fill="none" stroke="#000000" d="M 1781 1334 L 1963.97265625 1334 L 1963.97265625 1378 L 1781 1378 L 1781 1334 Z Z" stroke-miterlimit="10"/></g><g transform="translate(-310,-584) scale(1,1)"><rect fill="#ffffff" stroke="none" x="1771" y="1341" width="20" height="10"/></g><g transform="translate(-310,-584) scale(1,1)"><path fill="none" stroke="#000000" d="M 1771 1341 L 1791 1341 L 1791 1351 L 1771 1351 L 1771 1341 Z Z" stroke-miterlimit="10"/></g><g transform="translate(-310,-584) scale(1,1)"><rect fill="#ffffff" stroke="none" x="1771" y="1361" width="20" height="10"/></g><g transform="translate(-310,-584) scale(1,1)"><path fill="none" stroke="#000000" d="M 1771 1361 L 1791 1361 L 1791 1371 L 1771 1371 L 1771 1361 Z Z" stroke-miterlimit="10"/></g><g transform="translate(-310,-584) scale(1,1)"><g><path fill="none" stroke="none"/><text fill="#000000" stroke="none" font-family="Arial" font-size="13px" font-style="normal" font-weight="normal" text-decoration="none" x="1863.03271484375" y="1351.5">«jar»</text></g></g><g transform="translate(-310,-584) scale(1,1)"><g><path fill="none" stroke="none"/><text fill="#000000" stroke="none" font-family="Arial" font-size="13px" font-style="normal" font-weight="bold" text-decoration="none" x="1810.293212890625" y="1366.5">spring-boot-starter-web</text></g></g><g transform="translate(-310,-584) scale(1,1)"><path fill="none" stroke="#000000" d="M 1259 1112 L 1259 1356 L 1771 1356" stroke-miterlimit="10" stroke-dasharray="3"/></g><g transform="translate(-310,-584) scale(1,1)"><path fill="none" stroke="#000000" d="M 1760.837325142376 1360.2095177560159 L 1771 1356 L 1760.837325142376 1351.7904822439841" stroke-miterlimit="10"/></g><g transform="translate(-310,-584) scale(1,1)"><path fill="none" stroke="#000000" d="M 1259 1068 L 1259 1018" stroke-miterlimit="10" stroke-dasharray="3"/></g><g transform="translate(-310,-584) scale(1,1)"><path fill="none" stroke="#000000" d="M 1263.2095177560159 1028.162674857624 L 1259 1018 L 1254.7904822439841 1028.162674857624" stroke-miterlimit="10"/></g><g transform="translate(-310,-584) scale(1,1)"><path fill="none" stroke="#000000" d="M 1699 1114 L 1699 1238 L 1867 1238 L 1867 1334" stroke-miterlimit="10" stroke-dasharray="3"/></g><g transform="translate(-310,-584) scale(1,1)"><path fill="none" stroke="#000000" d="M 1862.7904822439841 1323.837325142376 L 1867 1334 L 1871.2095177560159 1323.837325142376" stroke-miterlimit="10"/></g><g transform="translate(-310,-584) scale(1,1)"><path fill="none" stroke="#000000" d="M 2139 1114 L 2139 1356 L 1964 1356" stroke-miterlimit="10" stroke-dasharray="3"/></g><g transform="translate(-310,-584) scale(1,1)"><path fill="none" stroke="#000000" d="M 1974.162674857624 1351.7904822439841 L 1964 1356 L 1974.162674857624 1360.2095177560159" stroke-miterlimit="10"/></g><g transform="translate(-310,-584) scale(1,1)"><rect fill="#C0C0C0" stroke="none" x="2004" y="1397" width="120.14990234375" height="44" opacity="0.2"/></g><g transform="translate(-310,-584) scale(1,1)"><rect fill="#ebd8ff" stroke="none" x="1997" y="1390" width="120.14990234375" height="44"/></g><g transform="translate(-310,-584) scale(1,1)"><path fill="none" stroke="#000000" d="M 1997 1390 L 2117.14990234375 1390 L 2117.14990234375 1434 L 1997 1434 L 1997 1390 Z Z" stroke-miterlimit="10"/></g><g transform="translate(-310,-584) scale(1,1)"><rect fill="#ebd8ff" stroke="none" x="1987" y="1397" width="20" height="10"/></g><g transform="translate(-310,-584) scale(1,1)"><path fill="none" stroke="#000000" d="M 1987 1397 L 2007 1397 L 2007 1407 L 1987 1407 L 1987 1397 Z Z" stroke-miterlimit="10"/></g><g transform="translate(-310,-584) scale(1,1)"><rect fill="#ebd8ff" stroke="none" x="1987" y="1417" width="20" height="10"/></g><g transform="translate(-310,-584) scale(1,1)"><path fill="none" stroke="#000000" d="M 1987 1417 L 2007 1417 L 2007 1427 L 1987 1427 L 1987 1417 Z Z" stroke-miterlimit="10"/></g><g transform="translate(-310,-584) scale(1,1)"><g><path fill="none" stroke="none"/><text fill="#000000" stroke="none" font-family="Arial" font-size="13px" font-style="normal" font-weight="normal" text-decoration="none" x="2047.621337890625" y="1407.5">«jar»</text></g></g><g transform="translate(-310,-584) scale(1,1)"><g><path fill="none" stroke="none"/><text fill="#000000" stroke="none" font-family="Arial" font-size="13px" font-style="normal" font-weight="bold" text-decoration="none" x="2015.10546875" y="1422.5">esibank-utils 1.0</text></g></g><g transform="translate(-310,-584) scale(1,1)"><path fill="none" stroke="#000000" d="M 2179 1114 L 2179 1414 L 2117 1414" stroke-miterlimit="10" stroke-dasharray="3"/></g><g transform="translate(-310,-584) scale(1,1)"><path fill="none" stroke="#000000" d="M 2127.162674857624 1409.7904822439841 L 2117 1414 L 2127.162674857624 1418.2095177560159" stroke-miterlimit="10"/></g><g transform="translate(-310,-584) scale(1,1)"><rect fill="#C0C0C0" stroke="none" x="2364" y="1069" width="206.814453125" height="44" opacity="0.2"/></g><g transform="translate(-310,-584) scale(1,1)"><rect fill="#ffffff" stroke="none" x="2357" y="1062" width="206.814453125" height="44"/></g><g transform="translate(-310,-584) scale(1,1)"><path fill="none" stroke="#000000" d="M 2357 1062 L 2563.814453125 1062 L 2563.814453125 1106 L 2357 1106 L 2357 1062 Z Z" stroke-miterlimit="10"/></g><g transform="translate(-310,-584) scale(1,1)"><rect fill="#ffffff" stroke="none" x="2347" y="1069" width="20" height="10"/></g><g transform="translate(-310,-584) scale(1,1)"><path fill="none" stroke="#000000" d="M 2347 1069 L 2367 1069 L 2367 1079 L 2347 1079 L 2347 1069 Z Z" stroke-miterlimit="10"/></g><g transform="translate(-310,-584) scale(1,1)"><rect fill="#ffffff" stroke="none" x="2347" y="1089" width="20" height="10"/></g><g transform="translate(-310,-584) scale(1,1)"><path fill="none" stroke="#000000" d="M 2347 1089 L 2367 1089 L 2367 1099 L 2347 1099 L 2347 1089 Z Z" stroke-miterlimit="10"/></g><g transform="translate(-310,-584) scale(1,1)"><g><path fill="none" stroke="none"/><text fill="#000000" stroke="none" font-family="Arial" font-size="13px" font-style="normal" font-weight="normal" text-decoration="none" x="2450.95361328125" y="1079.5">«jar»</text></g></g><g transform="translate(-310,-584) scale(1,1)"><g><path fill="none" stroke="none"/><text fill="#000000" stroke="none" font-family="Arial" font-size="13px" font-style="normal" font-weight="bold" text-decoration="none" x="2386.648681640625" y="1094.5">spring-boot-starter-data-jpa</text></g></g><g transform="translate(-310,-584) scale(1,1)"><path fill="none" stroke="#000000" d="M 2243 1084 L 2347 1084" stroke-miterlimit="10" stroke-dasharray="3"/></g><g transform="translate(-310,-584) scale(1,1)"><path fill="none" stroke="#000000" d="M 2336.837325142376 1088.2095177560159 L 2347 1084 L 2336.837325142376 1079.7904822439841" stroke-miterlimit="10"/></g><g transform="translate(-310,-584) scale(1,1)"><rect fill="#C0C0C0" stroke="none" x="2364" y="1005" width="171.45166015625" height="44" opacity="0.2"/></g><g transform="translate(-310,-584) scale(1,1)"><rect fill="#ffffff" stroke="none" x="2357" y="998" width="171.45166015625" height="44"/></g><g transform="translate(-310,-584) scale(1,1)"><path fill="none" stroke="#000000" d="M 2357 998 L 2528.45166015625 998 L 2528.45166015625 1042 L 2357 1042 L 2357 998 Z Z" stroke-miterlimit="10"/></g><g transform="translate(-310,-584) scale(1,1)"><rect fill="#ffffff" stroke="none" x="2347" y="1005" width="20" height="10"/></g><g transform="translate(-310,-584) scale(1,1)"><path fill="none" stroke="#000000" d="M 2347 1005 L 2367 1005 L 2367 1015 L 2347 1015 L 2347 1005 Z Z" stroke-miterlimit="10"/></g><g transform="translate(-310,-584) scale(1,1)"><rect fill="#ffffff" stroke="none" x="2347" y="1025" width="20" height="10"/></g><g transform="translate(-310,-584) scale(1,1)"><path fill="none" stroke="#000000" d="M 2347 1025 L 2367 1025 L 2367 1035 L 2347 1035 L 2347 1025 Z Z" stroke-miterlimit="10"/></g><g transform="translate(-310,-584) scale(1,1)"><g><path fill="none" stroke="none"/><text fill="#000000" stroke="none" font-family="Arial" font-size="13px" font-style="normal" font-weight="normal" text-decoration="none" x="2433.272216796875" y="1015.5">«jar»</text></g></g><g transform="translate(-310,-584) scale(1,1)"><g><path fill="none" stroke="none"/><text fill="#000000" stroke="none" font-family="Arial" font-size="13px" font-style="normal" font-weight="bold" text-decoration="none" x="2385.95361328125" y="1030.5">mysql-connector-java</text></g></g><g transform="translate(-310,-584) scale(1,1)"><rect fill="#C0C0C0" stroke="none" x="2364" y="941" width="112.208984375" height="44" opacity="0.2"/></g><g transform="translate(-310,-584) scale(1,1)"><rect fill="#ffffff" stroke="none" x="2357" y="934" width="112.208984375" height="44"/></g><g transform="translate(-310,-584) scale(1,1)"><path fill="none" stroke="#000000" d="M 2357 934 L 2469.208984375 934 L 2469.208984375 978 L 2357 978 L 2357 934 Z Z" stroke-miterlimit="10"/></g><g transform="translate(-310,-584) scale(1,1)"><rect fill="#ffffff" stroke="none" x="2347" y="941" width="20" height="10"/></g><g transform="translate(-310,-584) scale(1,1)"><path fill="none" stroke="#000000" d="M 2347 941 L 2367 941 L 2367 951 L 2347 951 L 2347 941 Z Z" stroke-miterlimit="10"/></g><g transform="translate(-310,-584) scale(1,1)"><rect fill="#ffffff" stroke="none" x="2347" y="961" width="20" height="10"/></g><g transform="translate(-310,-584) scale(1,1)"><path fill="none" stroke="#000000" d="M 2347 961 L 2367 961 L 2367 971 L 2347 971 L 2347 961 Z Z" stroke-miterlimit="10"/></g><g transform="translate(-310,-584) scale(1,1)"><g><path fill="none" stroke="none"/><text fill="#000000" stroke="none" font-family="Arial" font-size="13px" font-style="normal" font-weight="normal" text-decoration="none" x="2403.65087890625" y="951.5">«jar»</text></g></g><g transform="translate(-310,-584) scale(1,1)"><g><path fill="none" stroke="none"/><text fill="#000000" stroke="none" font-family="Arial" font-size="13px" font-style="normal" font-weight="bold" text-decoration="none" x="2373.658203125" y="966.5">lombok 1.16.20</text></g></g><g transform="translate(-310,-584) scale(1,1)"><path fill="none" stroke="#000000" d="M 2203 1070 L 2203 1020 L 2347 1020" stroke-miterlimit="10" stroke-dasharray="3"/></g><g transform="translate(-310,-584) scale(1,1)"><path fill="none" stroke="#000000" d="M 2336.837325142376 1024.2095177560159 L 2347 1020 L 2336.837325142376 1015.790482243984" stroke-miterlimit="10"/></g><g transform="translate(-310,-584) scale(1,1)"><path fill="none" stroke="#000000" d="M 2179 1070 L 2179 958 L 2347 958" stroke-miterlimit="10" stroke-dasharray="3"/></g><g transform="translate(-310,-584) scale(1,1)"><path fill="none" stroke="#000000" d="M 2336.837325142376 962.209517756016 L 2347 958 L 2336.837325142376 953.790482243984" stroke-miterlimit="10"/></g><g transform="translate(-310,-584) scale(1,1)"><path fill="#C0C0C0" stroke="none" d="M 1051 1090.5 C 1051 1084.1487248 1056.1487248 1079 1062.5 1079 C 1068.8512752 1079 1074 1084.1487248 1074 1090.5 C 1074 1096.8512752 1068.8512752 1102 1062.5 1102 C 1056.1487248 1102 1051 1096.8512752 1051 1090.5 Z" opacity="0.2"/></g><g transform="translate(-310,-584) scale(1,1)"><path fill="none" stroke="#000000" d="M 1055 1094.5 A 11.5 11.5 0 0 1 1055 1071.5" stroke-miterlimit="10"/></g><g transform="translate(-310,-584) scale(1,1)"><path fill="#ffffff" stroke="none" d="M 1047 1083.5 C 1047 1078.8055792 1050.8055792 1075 1055.5 1075 C 1060.1944208 1075 1064 1078.8055792 1064 1083.5 C 1064 1088.1944208 1060.1944208 1092 1055.5 1092 C 1050.8055792 1092 1047 1088.1944208 1047 1083.5 Z"/></g><g transform="translate(-310,-584) scale(1,1)"><path fill="none" stroke="#000000" d="M 1047 1083.5 C 1047 1078.8055792 1050.8055792 1075 1055.5 1075 C 1060.1944208 1075 1064 1078.8055792 1064 1083.5 C 1064 1088.1944208 1060.1944208 1092 1055.5 1092 C 1050.8055792 1092 1047 1088.1944208 1047 1083.5 Z" stroke-miterlimit="10"/></g><g transform="translate(-310,-584) scale(1,1)"><g><path fill="none" stroke="none"/><text fill="#000000" stroke="none" font-family="Arial" font-size="13px" font-style="normal" font-weight="bold" text-decoration="none" x="1038.16455078125" y="1114.5">REST</text></g></g><g transform="translate(-310,-584) scale(1,1)"><path fill="none" stroke="#000000" d="M 1201 1083 L 1067 1083" stroke-miterlimit="10"/></g><g transform="translate(-310,-584) scale(1,1)"><g><path fill="none" stroke="none"/><text fill="#000000" stroke="none" font-family="Arial" font-size="13px" font-style="normal" font-weight="normal" text-decoration="none" x="1111.733642578125" y="1104.5">+HTTP</text></g></g><g transform="translate(-310,-584) scale(1,1)"><rect fill="#C0C0C0" stroke="none" x="1644" y="1285" width="110.0634765625" height="44" opacity="0.2"/></g><g transform="translate(-310,-584) scale(1,1)"><rect fill="#ffffff" stroke="none" x="1637" y="1278" width="110.0634765625" height="44"/></g><g transform="translate(-310,-584) scale(1,1)"><path fill="none" stroke="#000000" d="M 1637 1278 L 1747.0634765625 1278 L 1747.0634765625 1322 L 1637 1322 L 1637 1278 Z Z" stroke-miterlimit="10"/></g><g transform="translate(-310,-584) scale(1,1)"><rect fill="#ffffff" stroke="none" x="1627" y="1285" width="20" height="10"/></g><g transform="translate(-310,-584) scale(1,1)"><path fill="none" stroke="#000000" d="M 1627 1285 L 1647 1285 L 1647 1295 L 1627 1295 L 1627 1285 Z Z" stroke-miterlimit="10"/></g><g transform="translate(-310,-584) scale(1,1)"><rect fill="#ffffff" stroke="none" x="1627" y="1305" width="20" height="10"/></g><g transform="translate(-310,-584) scale(1,1)"><path fill="none" stroke="#000000" d="M 1627 1305 L 1647 1305 L 1647 1315 L 1627 1315 L 1627 1305 Z Z" stroke-miterlimit="10"/></g><g transform="translate(-310,-584) scale(1,1)"><g><path fill="none" stroke="none"/><text fill="#000000" stroke="none" font-family="Arial" font-size="13px" font-style="normal" font-weight="normal" text-decoration="none" x="1682.578125" y="1295.5">«jar»</text></g></g><g transform="translate(-310,-584) scale(1,1)"><g><path fill="none" stroke="none"/><text fill="#000000" stroke="none" font-family="Arial" font-size="13px" font-style="normal" font-weight="bold" text-decoration="none" x="1654.042236328125" y="1310.5">jersey-core 1.9</text></g></g><g transform="translate(-310,-584) scale(1,1)"><path fill="none" stroke="#000000" d="M 1235 1112 L 1235 1412 L 1987 1412" stroke-miterlimit="10" stroke-dasharray="3"/></g><g transform="translate(-310,-584) scale(1,1)"><path fill="none" stroke="#000000" d="M 1976.837325142376 1416.2095177560159 L 1987 1412 L 1976.837325142376 1407.7904822439841" stroke-miterlimit="10"/></g><g transform="translate(-310,-584) scale(1,1)"><path fill="none" stroke="#000000" d="M 1291 1112 L 1291 1300 L 1627 1300" stroke-miterlimit="10" stroke-dasharray="3"/></g><g transform="translate(-310,-584) scale(1,1)"><path fill="none" stroke="#000000" d="M 1616.837325142376 1304.2095177560159 L 1627 1300 L 1616.837325142376 1295.7904822439841" stroke-miterlimit="10"/></g><g transform="translate(-310,-584) scale(1,1)"><path fill="none" stroke="#000000" d="M 1667 1114 L 1667 1278" stroke-miterlimit="10" stroke-dasharray="3"/></g><g transform="translate(-310,-584) scale(1,1)"><path fill="none" stroke="#000000" d="M 1662.7904822439841 1267.837325142376 L 1667 1278 L 1671.2095177560159 1267.837325142376" stroke-miterlimit="10"/></g><g transform="translate(-310,-584) scale(1,1)"><path fill="none" stroke="#000000" d="M 2099 1114 L 2099 1294 L 1747 1294" stroke-miterlimit="10" stroke-dasharray="3"/></g><g transform="translate(-310,-584) scale(1,1)"><path fill="none" stroke="#000000" d="M 1757.162674857624 1289.7904822439841 L 1747 1294 L 1757.162674857624 1298.2095177560159" stroke-miterlimit="10"/></g><g transform="translate(-310,-584) scale(1,1)"><rect fill="#C0C0C0" stroke="none" x="2364" y="877" width="98.44091796875" height="44" opacity="0.2"/></g><g transform="translate(-310,-584) scale(1,1)"><rect fill="#ffffff" stroke="none" x="2357" y="870" width="98.44091796875" height="44"/></g><g transform="translate(-310,-584) scale(1,1)"><path fill="none" stroke="#000000" d="M 2357 870 L 2455.44091796875 870 L 2455.44091796875 914 L 2357 914 L 2357 870 Z Z" stroke-miterlimit="10"/></g><g transform="translate(-310,-584) scale(1,1)"><rect fill="#ffffff" stroke="none" x="2347" y="877" width="20" height="10"/></g><g transform="translate(-310,-584) scale(1,1)"><path fill="none" stroke="#000000" d="M 2347 877 L 2367 877 L 2367 887 L 2347 887 L 2347 877 Z Z" stroke-miterlimit="10"/></g><g transform="translate(-310,-584) scale(1,1)"><rect fill="#ffffff" stroke="none" x="2347" y="897" width="20" height="10"/></g><g transform="translate(-310,-584) scale(1,1)"><path fill="none" stroke="#000000" d="M 2347 897 L 2367 897 L 2367 907 L 2347 907 L 2347 897 Z Z" stroke-miterlimit="10"/></g><g transform="translate(-310,-584) scale(1,1)"><g><path fill="none" stroke="none"/><text fill="#000000" stroke="none" font-family="Arial" font-size="13px" font-style="normal" font-weight="normal" text-decoration="none" x="2396.766845703125" y="887.5">«jar»</text></g></g><g transform="translate(-310,-584) scale(1,1)"><g><path fill="none" stroke="none"/><text fill="#000000" stroke="none" font-family="Arial" font-size="13px" font-style="normal" font-weight="bold" text-decoration="none" x="2378.6982421875" y="902.5">dozer 5.5.1</text></g></g><g transform="translate(-310,-584) scale(1,1)"><path fill="none" stroke="#000000" d="M 2155 1070 L 2155 902 L 2347 902" stroke-miterlimit="10" stroke-dasharray="3"/></g><g transform="translate(-310,-584) scale(1,1)"><path fill="none" stroke="#000000" d="M 2336.837325142376 906.209517756016 L 2347 902 L 2336.837325142376 897.790482243984" stroke-miterlimit="10"/></g><g transform="translate(-310,-584) scale(1,1)"><path fill="none" stroke="#000000" d="M 1731 1114 L 1731 1214 L 2051 1214 L 2051 1390" stroke-miterlimit="10" stroke-dasharray="3"/></g><g transform="translate(-310,-584) scale(1,1)"><path fill="none" stroke="#000000" d="M 2046.7904822439841 1379.837325142376 L 2051 1390 L 2055.209517756016 1379.837325142376" stroke-miterlimit="10"/></g><g transform="translate(-310,-584) scale(1,1)"><path fill="#C0C0C0" stroke="none" d="M 1473.7099609375 1096.5 C 1473.7099609375 1090.1487248 1478.8586857375 1085 1485.2099609375 1085 C 1491.5612361375 1085 1496.7099609375 1090.1487248 1496.7099609375 1096.5 C 1496.7099609375 1102.8512752 1491.5612361375 1108 1485.2099609375 1108 C 1478.8586857375 1108 1473.7099609375 1102.8512752 1473.7099609375 1096.5 Z" opacity="0.2"/></g><g transform="translate(-310,-584) scale(1,1)"><path fill="none" stroke="#000000" d="M 1478 1100.5 A 11.5 11.5 0 0 1 1478 1077.5" stroke-miterlimit="10"/></g><g transform="translate(-310,-584) scale(1,1)"><path fill="#ffffff" stroke="none" d="M 1469.7099609375 1089.5 C 1469.7099609375 1084.8055792 1473.5155401375 1081 1478.2099609375 1081 C 1482.9043817375 1081 1486.7099609375 1084.8055792 1486.7099609375 1089.5 C 1486.7099609375 1094.1944208 1482.9043817375 1098 1478.2099609375 1098 C 1473.5155401375 1098 1469.7099609375 1094.1944208 1469.7099609375 1089.5 Z"/></g><g transform="translate(-310,-584) scale(1,1)"><path fill="none" stroke="#000000" d="M 1469.7099609375 1089.5 C 1469.7099609375 1084.8055792 1473.5155401375 1081 1478.2099609375 1081 C 1482.9043817375 1081 1486.7099609375 1084.8055792 1486.7099609375 1089.5 C 1486.7099609375 1094.1944208 1482.9043817375 1098 1478.2099609375 1098 C 1473.5155401375 1098 1469.7099609375 1094.1944208 1469.7099609375 1089.5 Z" stroke-miterlimit="10"/></g><g transform="translate(-310,-584) scale(1,1)"><g><path fill="none" stroke="none"/><text fill="#000000" stroke="none" font-family="Arial" font-size="13px" font-style="normal" font-weight="bold" text-decoration="none" x="1460.87451171875" y="1120.5">REST</text></g></g><g transform="translate(-310,-584) scale(1,1)"><path fill="#C0C0C0" stroke="none" d="M 1913.7099609375 1096.5 C 1913.7099609375 1090.1487248 1918.8586857375 1085 1925.2099609375 1085 C 1931.5612361375 1085 1936.7099609375 1090.1487248 1936.7099609375 1096.5 C 1936.7099609375 1102.8512752 1931.5612361375 1108 1925.2099609375 1108 C 1918.8586857375 1108 1913.7099609375 1102.8512752 1913.7099609375 1096.5 Z" opacity="0.2"/></g><g transform="translate(-310,-584) scale(1,1)"><path fill="none" stroke="#000000" d="M 1918 1100.5 A 11.5 11.5 0 0 1 1918 1077.5" stroke-miterlimit="10"/></g><g transform="translate(-310,-584) scale(1,1)"><path fill="#ffffff" stroke="none" d="M 1909.7099609375 1089.5 C 1909.7099609375 1084.8055792 1913.5155401375 1081 1918.2099609375 1081 C 1922.9043817375 1081 1926.7099609375 1084.8055792 1926.7099609375 1089.5 C 1926.7099609375 1094.1944208 1922.9043817375 1098 1918.2099609375 1098 C 1913.5155401375 1098 1909.7099609375 1094.1944208 1909.7099609375 1089.5 Z"/></g><g transform="translate(-310,-584) scale(1,1)"><path fill="none" stroke="#000000" d="M 1909.7099609375 1089.5 C 1909.7099609375 1084.8055792 1913.5155401375 1081 1918.2099609375 1081 C 1922.9043817375 1081 1926.7099609375 1084.8055792 1926.7099609375 1089.5 C 1926.7099609375 1094.1944208 1922.9043817375 1098 1918.2099609375 1098 C 1913.5155401375 1098 1909.7099609375 1094.1944208 1909.7099609375 1089.5 Z" stroke-miterlimit="10"/></g><g transform="translate(-310,-584) scale(1,1)"><g><path fill="none" stroke="none"/><text fill="#000000" stroke="none" font-family="Arial" font-size="13px" font-style="normal" font-weight="bold" text-decoration="none" x="1900.87451171875" y="1120.5">REST</text></g></g><g transform="translate(-310,-584) scale(1,1)"><path fill="none" stroke="#000000" d="M 1635 1089 L 1489.7099609375 1089" stroke-miterlimit="10"/></g><g transform="translate(-310,-584) scale(1,1)"><g><path fill="none" stroke="none"/><text fill="#000000" stroke="none" font-family="Arial" font-size="13px" font-style="normal" font-weight="normal" text-decoration="none" x="1535.898193359375" y="1110.5">+HTTPS</text></g></g><g transform="translate(-310,-584) scale(1,1)"><path fill="none" stroke="#000000" d="M 2067 1089 L 1929.7099609375 1089" stroke-miterlimit="10"/></g><g transform="translate(-310,-584) scale(1,1)"><g><path fill="none" stroke="none"/><text fill="#000000" stroke="none" font-family="Arial" font-size="13px" font-style="normal" font-weight="normal" text-decoration="none" x="1975.733642578125" y="1110.5">+HTTP</text></g></g><g transform="translate(-310,-584) scale(1,1)"><path fill="none" stroke="#000000" d="M 1384 1089 L 1466.7099609375 1089" stroke-miterlimit="10"/></g><g transform="translate(-310,-584) scale(1,1)"><path fill="none" stroke="#000000" d="M 1816 1089 L 1906.7099609375 1089" stroke-miterlimit="10"/></g><g transform="translate(-310,-584) scale(1,1)"><path fill="none" stroke="#000000" d="M 869 1083 L 1044 1083" stroke-miterlimit="10"/></g><g transform="translate(-310,-584) scale(1,1)"><path fill="#ffffff" stroke="none" d="M 2534 1531 L 2699 1531 L 2709 1541 L 2709 1634 L 2534 1634 L 2534 1531"/></g><g transform="translate(-310,-584) scale(1,1)"><path fill="none" stroke="#000000" d="M 2534 1531 L 2699 1531 L 2709 1541 L 2709 1634 L 2534 1634 L 2534 1531 L 2534 1531" stroke-miterlimit="10"/></g><g transform="translate(-310,-584) scale(1,1)"><path fill="none" stroke="#000000" d="M 2699 1531 L 2699 1541 L 2709 1541 L 2699 1531" stroke-miterlimit="10"/></g><g transform="translate(-310,-584) scale(1,1)"><path fill="#ffd8d8" stroke="none" d="M 2552.6666666666665 1539 L 2594.3333333333335 1539 Q 2605 1539 2605 1549.6666666666667 L 2605 1560.3333333333333 Q 2605 1571 2594.3333333333335 1571 L 2552.6666666666665 1571 Q 2542 1571 2542 1560.3333333333333 L 2542 1549.6666666666667 Q 2542 1539 2552.6666666666665 1539 Z"/></g><g transform="translate(-310,-584) scale(1,1)"><path fill="none" stroke="#000000" d="M 2552.6666666666665 1539 L 2594.3333333333335 1539 Q 2605 1539 2605 1549.6666666666667 L 2605 1560.3333333333333 Q 2605 1571 2594.3333333333335 1571 L 2552.6666666666665 1571 Q 2542 1571 2542 1560.3333333333333 L 2542 1549.6666666666667 Q 2542 1539 2552.6666666666665 1539 Z" stroke-miterlimit="10"/></g><g transform="translate(-310,-584) scale(1,1)"><path fill="#ebd8ff" stroke="none" d="M 2552.6666666666665 1587 L 2594.3333333333335 1587 Q 2605 1587 2605 1597.6666666666667 L 2605 1608.3333333333333 Q 2605 1619 2594.3333333333335 1619 L 2552.6666666666665 1619 Q 2542 1619 2542 1608.3333333333333 L 2542 1597.6666666666667 Q 2542 1587 2552.6666666666665 1587 Z"/></g><g transform="translate(-310,-584) scale(1,1)"><path fill="none" stroke="#000000" d="M 2552.6666666666665 1587 L 2594.3333333333335 1587 Q 2605 1587 2605 1597.6666666666667 L 2605 1608.3333333333333 Q 2605 1619 2594.3333333333335 1619 L 2552.6666666666665 1619 Q 2542 1619 2542 1608.3333333333333 L 2542 1597.6666666666667 Q 2542 1587 2552.6666666666665 1587 Z" stroke-miterlimit="10"/></g><g transform="translate(-310,-584) scale(1,1)"><g><path fill="none" stroke="none"/><text fill="#000000" stroke="none" font-family="Arial" font-size="20px" font-style="normal" font-weight="normal" text-decoration="none" x="2611" y="1564">Usman</text></g></g><g transform="translate(-310,-584) scale(1,1)"><g><path fill="none" stroke="none"/><text fill="#000000" stroke="none" font-family="Arial" font-size="20px" font-style="normal" font-weight="normal" text-decoration="none" x="2611" y="1612">Thibault</text></g></g><g transform="translate(-310,-584) scale(1,1)"><rect fill="#C0C0C0" stroke="none" x="1649" y="967" width="149.76806640625" height="44" opacity="0.2"/></g><g transform="translate(-310,-584) scale(1,1)"><rect fill="#ebd8ff" stroke="none" x="1642" y="960" width="149.76806640625" height="44"/></g><g transform="translate(-310,-584) scale(1,1)"><path fill="none" stroke="#000000" d="M 1642 960 L 1791.76806640625 960 L 1791.76806640625 1004 L 1642 1004 L 1642 960 Z Z" stroke-miterlimit="10"/></g><g transform="translate(-310,-584) scale(1,1)"><rect fill="#ebd8ff" stroke="none" x="1632" y="967" width="20" height="10"/></g><g transform="translate(-310,-584) scale(1,1)"><path fill="none" stroke="#000000" d="M 1632 967 L 1652 967 L 1652 977 L 1632 977 L 1632 967 Z Z" stroke-miterlimit="10"/></g><g transform="translate(-310,-584) scale(1,1)"><rect fill="#ebd8ff" stroke="none" x="1632" y="987" width="20" height="10"/></g><g transform="translate(-310,-584) scale(1,1)"><path fill="none" stroke="#000000" d="M 1632 987 L 1652 987 L 1652 997 L 1632 997 L 1632 987 Z Z" stroke-miterlimit="10"/></g><g transform="translate(-310,-584) scale(1,1)"><g><path fill="none" stroke="none"/><text fill="#000000" stroke="none" font-family="Arial" font-size="13px" font-style="normal" font-weight="normal" text-decoration="none" x="1707.430419921875" y="977.5">«jar»</text></g></g><g transform="translate(-310,-584) scale(1,1)"><g><path fill="none" stroke="none"/><text fill="#000000" stroke="none" font-family="Arial" font-size="13px" font-style="normal" font-weight="bold" text-decoration="none" x="1661.908203125" y="992.5">notificationserver 1.0</text></g></g><g transform="translate(-310,-584) scale(1,1)"><path fill="none" stroke="#000000" d="M 1708 1070 L 1708 1004" stroke-miterlimit="10" stroke-dasharray="3"/></g><g transform="translate(-310,-584) scale(1,1)"><path fill="none" stroke="#000000" d="M 1712.2095177560159 1014.1626748576241 L 1708 1004 L 1703.7904822439841 1014.1626748576241" stroke-miterlimit="10"/></g><g transform="translate(-310,-584) scale(1,1)"><path fill="none" stroke="#000000" d="M 525 1378 L 443 1378" stroke-miterlimit="10" stroke-dasharray="3"/></g><g transform="translate(-310,-584) scale(1,1)"><path fill="none" stroke="#000000" d="M 453.16267485762415 1373.7904822439841 L 443 1378 L 453.16267485762415 1382.2095177560159" stroke-miterlimit="10"/></g><g transform="translate(-310,-584) scale(1,1)"><rect fill="#ffffff" stroke="none" x="840" y="1131" width="14" height="14"/></g><g transform="translate(-310,-584) scale(1,1)"><path fill="none" stroke="#000000" d="M 840 1131 L 854 1131 L 854 1145 L 840 1145 L 840 1131 Z Z" stroke-miterlimit="10"/></g><g transform="translate(-310,-584) scale(1,1)"><g><path fill="none" stroke="none"/><text fill="#000000" stroke="none" font-family="Arial" font-size="13px" font-style="normal" font-weight="normal" text-decoration="none" x="804.03369140625" y="1129">port 5000</text></g></g><g transform="translate(-310,-584) scale(1,1)"><rect fill="#ffffff" stroke="none" x="1194" y="1071" width="14" height="14"/></g><g transform="translate(-310,-584) scale(1,1)"><path fill="none" stroke="#000000" d="M 1194 1071 L 1208 1071 L 1208 1085 L 1194 1085 L 1194 1071 Z Z" stroke-miterlimit="10"/></g><g transform="translate(-310,-584) scale(1,1)"><g><path fill="none" stroke="none"/><text fill="#000000" stroke="none" font-family="Arial" font-size="13px" font-style="normal" font-weight="normal" text-decoration="none" x="1171.0400390625" y="1069">1234</text></g></g><g transform="translate(-310,-584) scale(1,1)"><rect fill="#ffffff" stroke="none" x="1628" y="1070" width="14" height="14"/></g><g transform="translate(-310,-584) scale(1,1)"><path fill="none" stroke="#000000" d="M 1628 1070 L 1642 1070 L 1642 1084 L 1628 1084 L 1628 1070 Z Z" stroke-miterlimit="10"/></g><g transform="translate(-310,-584) scale(1,1)"><g><path fill="none" stroke="none"/><text fill="#000000" stroke="none" font-family="Arial" font-size="13px" font-style="normal" font-weight="normal" text-decoration="none" x="1605.0400390625" y="1068">4321</text></g></g><g transform="translate(-310,-584) scale(1,1)"><rect fill="#ffffff" stroke="none" x="2060" y="1070" width="14" height="14"/></g><g transform="translate(-310,-584) scale(1,1)"><path fill="none" stroke="#000000" d="M 2060 1070 L 2074 1070 L 2074 1084 L 2060 1084 L 2060 1070 Z Z" stroke-miterlimit="10"/></g><g transform="translate(-310,-584) scale(1,1)"><g><path fill="none" stroke="none"/><text fill="#000000" stroke="none" font-family="Arial" font-size="13px" font-style="normal" font-weight="normal" text-decoration="none" x="2044.27001953125" y="1068">80</text></g></g><g transform="translate(-310,-584) scale(1,1)"><rect fill="#C0C0C0" stroke="none" x="1921" y="775" width="133.91796875" height="44" opacity="0.2"/></g><g transform="translate(-310,-584) scale(1,1)"><rect fill="#ffd8d8" stroke="none" x="1914" y="768" width="133.91796875" height="44"/></g><g transform="translate(-310,-584) scale(1,1)"><path fill="none" stroke="#000000" d="M 1914 768 L 2047.91796875 768 L 2047.91796875 812 L 1914 812 L 1914 768 Z Z" stroke-miterlimit="10"/></g><g transform="translate(-310,-584) scale(1,1)"><rect fill="#ffd8d8" stroke="none" x="1904" y="775" width="20" height="10"/></g><g transform="translate(-310,-584) scale(1,1)"><path fill="none" stroke="#000000" d="M 1904 775 L 1924 775 L 1924 785 L 1904 785 L 1904 775 Z Z" stroke-miterlimit="10"/></g><g transform="translate(-310,-584) scale(1,1)"><rect fill="#ffd8d8" stroke="none" x="1904" y="795" width="20" height="10"/></g><g transform="translate(-310,-584) scale(1,1)"><path fill="none" stroke="#000000" d="M 1904 795 L 1924 795 L 1924 805 L 1904 805 L 1904 795 Z Z" stroke-miterlimit="10"/></g><g transform="translate(-310,-584) scale(1,1)"><g><path fill="none" stroke="none"/><text fill="#000000" stroke="none" font-family="Arial" font-size="13px" font-style="normal" font-weight="normal" text-decoration="none" x="1959.22265625" y="785.5">«artifact»</text></g></g><g transform="translate(-310,-584) scale(1,1)"><g><path fill="none" stroke="none"/><text fill="#000000" stroke="none" font-family="Arial" font-size="13px" font-style="normal" font-weight="bold" text-decoration="none" x="1931.7626953125" y="800.5">elasticsearch.5.4.3</text></g></g><g transform="translate(-310,-584) scale(1,1)"><path fill="#C0C0C0" stroke="none" d="M 1886.7099609375 906.5 C 1886.7099609375 900.1487248 1891.8586857375 895 1898.2099609375 895 C 1904.5612361375 895 1909.7099609375 900.1487248 1909.7099609375 906.5 C 1909.7099609375 912.8512752 1904.5612361375 918 1898.2099609375 918 C 1891.8586857375 918 1886.7099609375 912.8512752 1886.7099609375 906.5 Z" opacity="0.2"/></g><g transform="translate(-310,-584) scale(1,1)"><path fill="none" stroke="#000000" d="M 1891 910.5 A 11.5 11.5 0 0 1 1891 887.5" stroke-miterlimit="10"/></g><g transform="translate(-310,-584) scale(1,1)"><path fill="#ffffff" stroke="none" d="M 1882.7099609375 899.5 C 1882.7099609375 894.8055792 1886.5155401375 891 1891.2099609375 891 C 1895.9043817375 891 1899.7099609375 894.8055792 1899.7099609375 899.5 C 1899.7099609375 904.1944208 1895.9043817375 908 1891.2099609375 908 C 1886.5155401375 908 1882.7099609375 904.1944208 1882.7099609375 899.5 Z"/></g><g transform="translate(-310,-584) scale(1,1)"><path fill="none" stroke="#000000" d="M 1882.7099609375 899.5 C 1882.7099609375 894.8055792 1886.5155401375 891 1891.2099609375 891 C 1895.9043817375 891 1899.7099609375 894.8055792 1899.7099609375 899.5 C 1899.7099609375 904.1944208 1895.9043817375 908 1891.2099609375 908 C 1886.5155401375 908 1882.7099609375 904.1944208 1882.7099609375 899.5 Z" stroke-miterlimit="10"/></g><g transform="translate(-310,-584) scale(1,1)"><g><path fill="none" stroke="none"/><text fill="#000000" stroke="none" font-family="Arial" font-size="13px" font-style="normal" font-weight="bold" text-decoration="none" x="1873.87451171875" y="930.5">REST</text></g></g><g transform="translate(-310,-584) scale(1,1)"><rect fill="#ffffff" stroke="none" x="1897" y="792" width="14" height="14"/></g><g transform="translate(-310,-584) scale(1,1)"><path fill="none" stroke="#000000" d="M 1897 792 L 1911 792 L 1911 806 L 1897 806 L 1897 792 Z Z" stroke-miterlimit="10"/></g><g transform="translate(-310,-584) scale(1,1)"><g><path fill="none" stroke="none"/><text fill="#000000" stroke="none" font-family="Arial" font-size="13px" font-style="normal" font-weight="normal" text-decoration="none" x="1874.0400390625" y="790">9200</text></g></g><g transform="translate(-310,-584) scale(1,1)"><path fill="none" stroke="#000000" d="M 1959 812 L 1959 899 L 1902.7099609375 899" stroke-miterlimit="10"/></g><g transform="translate(-310,-584) scale(1,1)"><g><path fill="none" stroke="none"/><text fill="#000000" stroke="none" font-family="Arial" font-size="13px" font-style="normal" font-weight="normal" text-decoration="none" x="1943.5" y="920.5">+http</text></g></g><g transform="translate(-310,-584) scale(1,1)"><path fill="none" stroke="#000000" d="M 1744 960 L 1744 899 L 1879.7099609375 899" stroke-miterlimit="10"/></g></g></svg>