<svg version="1.1" xmlns="http://www.w3.org/2000/svg" xmlns:xlink="http://www.w3.org/1999/xlink" width="980.71533203125" height="932"><defs/><g><g transform="translate(-6,-14) scale(1,1)"><rect fill="#C0C0C0" stroke="none" x="481" y="879" width="98.44091796875" height="44" opacity="0.2"/></g><g transform="translate(-6,-14) scale(1,1)"><rect fill="#ffffff" stroke="none" x="474" y="872" width="98.44091796875" height="44"/></g><g transform="translate(-6,-14) scale(1,1)"><path fill="none" stroke="#000000" d="M 474 872 L 572.44091796875 872 L 572.44091796875 916 L 474 916 L 474 872 Z Z" stroke-miterlimit="10"/></g><g transform="translate(-6,-14) scale(1,1)"><rect fill="#ffffff" stroke="none" x="464" y="879" width="20" height="10"/></g><g transform="translate(-6,-14) scale(1,1)"><path fill="none" stroke="#000000" d="M 464 879 L 484 879 L 484 889 L 464 889 L 464 879 Z Z" stroke-miterlimit="10"/></g><g transform="translate(-6,-14) scale(1,1)"><rect fill="#ffffff" stroke="none" x="464" y="899" width="20" height="10"/></g><g transform="translate(-6,-14) scale(1,1)"><path fill="none" stroke="#000000" d="M 464 899 L 484 899 L 484 909 L 464 909 L 464 899 Z Z" stroke-miterlimit="10"/></g><g transform="translate(-6,-14) scale(1,1)"><g><path fill="none" stroke="none"/><text fill="#000000" stroke="none" font-family="Arial" font-size="13px" font-style="normal" font-weight="normal" text-decoration="none" x="510.510498046875" y="889.5">«apk»</text></g></g><g transform="translate(-6,-14) scale(1,1)"><g><path fill="none" stroke="none"/><text fill="#000000" stroke="none" font-family="Arial" font-size="13px" font-style="normal" font-weight="bold" text-decoration="none" x="494.974609375" y="904.5">esibank.1.0</text></g></g><g transform="translate(-6,-14) scale(1,1)"><rect fill="#C0C0C0" stroke="none" x="297" y="511" width="214" height="64" opacity="0.2"/></g><g transform="translate(-6,-14) scale(1,1)"><rect fill="#ffffff" stroke="none" x="290" y="504" width="214" height="64"/></g><g transform="translate(-6,-14) scale(1,1)"><path fill="none" stroke="#000000" d="M 290 504 L 504 504 L 504 568 L 290 568 L 290 504 Z Z" stroke-miterlimit="10"/></g><g transform="translate(-6,-14) scale(1,1)"><rect fill="#ffffff" stroke="none" x="280" y="511" width="20" height="10"/></g><g transform="translate(-6,-14) scale(1,1)"><path fill="none" stroke="#000000" d="M 280 511 L 300 511 L 300 521 L 280 521 L 280 511 Z Z" stroke-miterlimit="10"/></g><g transform="translate(-6,-14) scale(1,1)"><rect fill="#ffffff" stroke="none" x="280" y="531" width="20" height="10"/></g><g transform="translate(-6,-14) scale(1,1)"><path fill="none" stroke="#000000" d="M 280 531 L 300 531 L 300 541 L 280 541 L 280 531 Z Z" stroke-miterlimit="10"/></g><g transform="translate(-6,-14) scale(1,1)"><g><path fill="none" stroke="none"/><text fill="#000000" stroke="none" font-family="Arial" font-size="13px" font-style="normal" font-weight="normal" text-decoration="none" x="375.263671875" y="521.5">«artifact»</text></g></g><g transform="translate(-6,-14) scale(1,1)"><g><path fill="none" stroke="none"/><text fill="#000000" stroke="none" font-family="Arial" font-size="13px" font-style="normal" font-weight="bold" text-decoration="none" x="369.833251953125" y="536.5">dab.app.py</text></g></g><g transform="translate(-6,-14) scale(1,1)"><rect fill="#C0C0C0" stroke="none" x="33" y="871" width="115.814453125" height="44" opacity="0.2"/></g><g transform="translate(-6,-14) scale(1,1)"><rect fill="#ffffff" stroke="none" x="26" y="864" width="115.814453125" height="44"/></g><g transform="translate(-6,-14) scale(1,1)"><path fill="none" stroke="#000000" d="M 26 864 L 141.814453125 864 L 141.814453125 908 L 26 908 L 26 864 Z Z" stroke-miterlimit="10"/></g><g transform="translate(-6,-14) scale(1,1)"><rect fill="#ffffff" stroke="none" x="16" y="871" width="20" height="10"/></g><g transform="translate(-6,-14) scale(1,1)"><path fill="none" stroke="#000000" d="M 16 871 L 36 871 L 36 881 L 16 881 L 16 871 Z Z" stroke-miterlimit="10"/></g><g transform="translate(-6,-14) scale(1,1)"><rect fill="#ffffff" stroke="none" x="16" y="891" width="20" height="10"/></g><g transform="translate(-6,-14) scale(1,1)"><path fill="none" stroke="#000000" d="M 16 891 L 36 891 L 36 901 L 16 901 L 16 891 Z Z" stroke-miterlimit="10"/></g><g transform="translate(-6,-14) scale(1,1)"><g><path fill="none" stroke="none"/><text fill="#000000" stroke="none" font-family="Arial" font-size="13px" font-style="normal" font-weight="normal" text-decoration="none" x="62.1708984375" y="881.5">«artifact»</text></g></g><g transform="translate(-6,-14) scale(1,1)"><g><path fill="none" stroke="none"/><text fill="#000000" stroke="none" font-family="Arial" font-size="13px" font-style="normal" font-weight="bold" text-decoration="none" x="43.740478515625" y="896.5">nfc_gateway.py</text></g></g><g transform="translate(-6,-14) scale(1,1)"><rect fill="#C0C0C0" stroke="none" x="313" y="31" width="98.44091796875" height="44" opacity="0.2"/></g><g transform="translate(-6,-14) scale(1,1)"><rect fill="#ffffff" stroke="none" x="306" y="24" width="98.44091796875" height="44"/></g><g transform="translate(-6,-14) scale(1,1)"><path fill="none" stroke="#000000" d="M 306 24 L 404.44091796875 24 L 404.44091796875 68 L 306 68 L 306 24 Z Z" stroke-miterlimit="10"/></g><g transform="translate(-6,-14) scale(1,1)"><rect fill="#ffffff" stroke="none" x="296" y="31" width="20" height="10"/></g><g transform="translate(-6,-14) scale(1,1)"><path fill="none" stroke="#000000" d="M 296 31 L 316 31 L 316 41 L 296 41 L 296 31 Z Z" stroke-miterlimit="10"/></g><g transform="translate(-6,-14) scale(1,1)"><rect fill="#ffffff" stroke="none" x="296" y="51" width="20" height="10"/></g><g transform="translate(-6,-14) scale(1,1)"><path fill="none" stroke="#000000" d="M 296 51 L 316 51 L 316 61 L 296 61 L 296 51 Z Z" stroke-miterlimit="10"/></g><g transform="translate(-6,-14) scale(1,1)"><g><path fill="none" stroke="none"/><text fill="#000000" stroke="none" font-family="Arial" font-size="13px" font-style="normal" font-weight="bold" text-decoration="none" x="324.813232421875" y="43.5">Flask.0.12.2</text></g></g><g transform="translate(-6,-14) scale(1,1)"><rect fill="#C0C0C0" stroke="none" x="313" y="111" width="123.75537109375" height="44" opacity="0.2"/></g><g transform="translate(-6,-14) scale(1,1)"><rect fill="#ffffff" stroke="none" x="306" y="104" width="123.75537109375" height="44"/></g><g transform="translate(-6,-14) scale(1,1)"><path fill="none" stroke="#000000" d="M 306 104 L 429.75537109375 104 L 429.75537109375 148 L 306 148 L 306 104 Z Z" stroke-miterlimit="10"/></g><g transform="translate(-6,-14) scale(1,1)"><rect fill="#ffffff" stroke="none" x="296" y="111" width="20" height="10"/></g><g transform="translate(-6,-14) scale(1,1)"><path fill="none" stroke="#000000" d="M 296 111 L 316 111 L 316 121 L 296 121 L 296 111 Z Z" stroke-miterlimit="10"/></g><g transform="translate(-6,-14) scale(1,1)"><rect fill="#ffffff" stroke="none" x="296" y="131" width="20" height="10"/></g><g transform="translate(-6,-14) scale(1,1)"><path fill="none" stroke="#000000" d="M 296 131 L 316 131 L 316 141 L 296 141 L 296 131 Z Z" stroke-miterlimit="10"/></g><g transform="translate(-6,-14) scale(1,1)"><g><path fill="none" stroke="none"/><text fill="#000000" stroke="none" font-family="Arial" font-size="13px" font-style="normal" font-weight="bold" text-decoration="none" x="345.055908203125" y="123.5">Bootstrap</text></g></g><g transform="translate(-6,-14) scale(1,1)"><rect fill="#C0C0C0" stroke="none" x="313" y="191" width="155.55078125" height="44" opacity="0.2"/></g><g transform="translate(-6,-14) scale(1,1)"><rect fill="#ffffff" stroke="none" x="306" y="184" width="155.55078125" height="44"/></g><g transform="translate(-6,-14) scale(1,1)"><path fill="none" stroke="#000000" d="M 306 184 L 461.55078125 184 L 461.55078125 228 L 306 228 L 306 184 Z Z" stroke-miterlimit="10"/></g><g transform="translate(-6,-14) scale(1,1)"><rect fill="#ffffff" stroke="none" x="296" y="191" width="20" height="10"/></g><g transform="translate(-6,-14) scale(1,1)"><path fill="none" stroke="#000000" d="M 296 191 L 316 191 L 316 201 L 296 201 L 296 191 Z Z" stroke-miterlimit="10"/></g><g transform="translate(-6,-14) scale(1,1)"><rect fill="#ffffff" stroke="none" x="296" y="211" width="20" height="10"/></g><g transform="translate(-6,-14) scale(1,1)"><path fill="none" stroke="#000000" d="M 296 211 L 316 211 L 316 221 L 296 221 L 296 211 Z Z" stroke-miterlimit="10"/></g><g transform="translate(-6,-14) scale(1,1)"><g><path fill="none" stroke="none"/><text fill="#000000" stroke="none" font-family="Arial" font-size="13px" font-style="normal" font-weight="bold" text-decoration="none" x="324.819580078125" y="203.5">flask.bootstrap.3.3.7.0</text></g></g><g transform="translate(-6,-14) scale(1,1)"><rect fill="#C0C0C0" stroke="none" x="313" y="263" width="141.12255859375" height="44" opacity="0.2"/></g><g transform="translate(-6,-14) scale(1,1)"><rect fill="#ffffff" stroke="none" x="306" y="256" width="141.12255859375" height="44"/></g><g transform="translate(-6,-14) scale(1,1)"><path fill="none" stroke="#000000" d="M 306 256 L 447.12255859375 256 L 447.12255859375 300 L 306 300 L 306 256 Z Z" stroke-miterlimit="10"/></g><g transform="translate(-6,-14) scale(1,1)"><rect fill="#ffffff" stroke="none" x="296" y="263" width="20" height="10"/></g><g transform="translate(-6,-14) scale(1,1)"><path fill="none" stroke="#000000" d="M 296 263 L 316 263 L 316 273 L 296 273 L 296 263 Z Z" stroke-miterlimit="10"/></g><g transform="translate(-6,-14) scale(1,1)"><rect fill="#ffffff" stroke="none" x="296" y="283" width="20" height="10"/></g><g transform="translate(-6,-14) scale(1,1)"><path fill="none" stroke="#000000" d="M 296 283 L 316 283 L 316 293 L 296 293 L 296 283 Z Z" stroke-miterlimit="10"/></g><g transform="translate(-6,-14) scale(1,1)"><g><path fill="none" stroke="none"/><text fill="#000000" stroke="none" font-family="Arial" font-size="13px" font-style="normal" font-weight="bold" text-decoration="none" x="324.476806640625" y="275.5">flask.socket.io.2.9.0</text></g></g><g transform="translate(-6,-14) scale(1,1)"><rect fill="#C0C0C0" stroke="none" x="305" y="335" width="112.9453125" height="44" opacity="0.2"/></g><g transform="translate(-6,-14) scale(1,1)"><rect fill="#ffffff" stroke="none" x="298" y="328" width="112.9453125" height="44"/></g><g transform="translate(-6,-14) scale(1,1)"><path fill="none" stroke="#000000" d="M 298 328 L 410.9453125 328 L 410.9453125 372 L 298 372 L 298 328 Z Z" stroke-miterlimit="10"/></g><g transform="translate(-6,-14) scale(1,1)"><rect fill="#ffffff" stroke="none" x="288" y="335" width="20" height="10"/></g><g transform="translate(-6,-14) scale(1,1)"><path fill="none" stroke="#000000" d="M 288 335 L 308 335 L 308 345 L 288 345 L 288 335 Z Z" stroke-miterlimit="10"/></g><g transform="translate(-6,-14) scale(1,1)"><rect fill="#ffffff" stroke="none" x="288" y="355" width="20" height="10"/></g><g transform="translate(-6,-14) scale(1,1)"><path fill="none" stroke="#000000" d="M 288 355 L 308 355 L 308 365 L 288 365 L 288 355 Z Z" stroke-miterlimit="10"/></g><g transform="translate(-6,-14) scale(1,1)"><g><path fill="none" stroke="none"/><text fill="#000000" stroke="none" font-family="Arial" font-size="13px" font-style="normal" font-weight="bold" text-decoration="none" x="314.66455078125" y="347.5">requests.2.18.4</text></g></g><g transform="translate(-6,-14) scale(1,1)"><path fill="none" stroke="#000000" d="M 280 520 L 240 520 L 240 350 L 288 350" stroke-miterlimit="10" stroke-dasharray="3"/></g><g transform="translate(-6,-14) scale(1,1)"><path fill="none" stroke="#000000" d="M 277.83732514237585 354.209517756016 L 288 350 L 277.83732514237585 345.790482243984" stroke-miterlimit="10"/></g><g transform="translate(-6,-14) scale(1,1)"><path fill="none" stroke="#000000" d="M 280 520 L 200 520 L 200 278 L 296 278" stroke-miterlimit="10" stroke-dasharray="3"/></g><g transform="translate(-6,-14) scale(1,1)"><path fill="none" stroke="#000000" d="M 285.83732514237585 282.209517756016 L 296 278 L 285.83732514237585 273.790482243984" stroke-miterlimit="10"/></g><g transform="translate(-6,-14) scale(1,1)"><path fill="none" stroke="#000000" d="M 280 528 L 184 528 L 184 206 L 296 206" stroke-miterlimit="10" stroke-dasharray="3"/></g><g transform="translate(-6,-14) scale(1,1)"><path fill="none" stroke="#000000" d="M 285.83732514237585 210.209517756016 L 296 206 L 285.83732514237585 201.790482243984" stroke-miterlimit="10"/></g><g transform="translate(-6,-14) scale(1,1)"><path fill="none" stroke="#000000" d="M 280 536 L 168 536 L 168 126 L 296 126" stroke-miterlimit="10" stroke-dasharray="3"/></g><g transform="translate(-6,-14) scale(1,1)"><path fill="none" stroke="#000000" d="M 285.83732514237585 130.209517756016 L 296 126 L 285.83732514237585 121.79048224398402" stroke-miterlimit="10"/></g><g transform="translate(-6,-14) scale(1,1)"><path fill="none" stroke="#000000" d="M 280 544 L 144 544 L 144 46 L 296 46" stroke-miterlimit="10" stroke-dasharray="3"/></g><g transform="translate(-6,-14) scale(1,1)"><path fill="none" stroke="#000000" d="M 285.83732514237585 50.20951775601599 L 296 46 L 285.83732514237585 41.790482243984016" stroke-miterlimit="10"/></g><g transform="translate(-6,-14) scale(1,1)"><rect fill="#C0C0C0" stroke="none" x="33" y="687" width="98.44091796875" height="44" opacity="0.2"/></g><g transform="translate(-6,-14) scale(1,1)"><rect fill="#ffffff" stroke="none" x="26" y="680" width="98.44091796875" height="44"/></g><g transform="translate(-6,-14) scale(1,1)"><path fill="none" stroke="#000000" d="M 26 680 L 124.44091796875 680 L 124.44091796875 724 L 26 724 L 26 680 Z Z" stroke-miterlimit="10"/></g><g transform="translate(-6,-14) scale(1,1)"><rect fill="#ffffff" stroke="none" x="16" y="687" width="20" height="10"/></g><g transform="translate(-6,-14) scale(1,1)"><path fill="none" stroke="#000000" d="M 16 687 L 36 687 L 36 697 L 16 697 L 16 687 Z Z" stroke-miterlimit="10"/></g><g transform="translate(-6,-14) scale(1,1)"><rect fill="#ffffff" stroke="none" x="16" y="707" width="20" height="10"/></g><g transform="translate(-6,-14) scale(1,1)"><path fill="none" stroke="#000000" d="M 16 707 L 36 707 L 36 717 L 16 717 L 16 707 Z Z" stroke-miterlimit="10"/></g><g transform="translate(-6,-14) scale(1,1)"><g><path fill="none" stroke="none"/><text fill="#000000" stroke="none" font-family="Arial" font-size="13px" font-style="normal" font-weight="bold" text-decoration="none" x="49.86279296875" y="699.5">python.2.7</text></g></g><g transform="translate(-6,-14) scale(1,1)"><path fill="none" stroke="#000000" d="M 280 560 L 72 560 L 72 680" stroke-miterlimit="10" stroke-dasharray="3"/></g><g transform="translate(-6,-14) scale(1,1)"><path fill="none" stroke="#000000" d="M 67.79048224398402 669.8373251423759 L 72 680 L 76.20951775601598 669.8373251423759" stroke-miterlimit="10"/></g><g transform="translate(-6,-14) scale(1,1)"><path fill="none" stroke="#000000" d="M 70 864 L 70 724" stroke-miterlimit="10" stroke-dasharray="3"/></g><g transform="translate(-6,-14) scale(1,1)"><path fill="none" stroke="#000000" d="M 74.20951775601598 734.1626748576241 L 70 724 L 65.79048224398402 734.1626748576241" stroke-miterlimit="10"/></g><g transform="translate(-6,-14) scale(1,1)"><path fill="#C0C0C0" stroke="none" d="M 278.7099609375 906.5 C 278.7099609375 900.1487248 283.8586857375 895 290.2099609375 895 C 296.5612361375 895 301.7099609375 900.1487248 301.7099609375 906.5 C 301.7099609375 912.8512752 296.5612361375 918 290.2099609375 918 C 283.8586857375 918 278.7099609375 912.8512752 278.7099609375 906.5 Z" opacity="0.2"/></g><g transform="translate(-6,-14) scale(1,1)"><path fill="none" stroke="#000000" d="M 283 887.5 A 11.5 11.5 0 0 1 283 910.5" stroke-miterlimit="10"/></g><g transform="translate(-6,-14) scale(1,1)"><path fill="#ffffff" stroke="none" d="M 274.7099609375 899.5 C 274.7099609375 894.8055792 278.5155401375 891 283.2099609375 891 C 287.9043817375 891 291.7099609375 894.8055792 291.7099609375 899.5 C 291.7099609375 904.1944208 287.9043817375 908 283.2099609375 908 C 278.5155401375 908 274.7099609375 904.1944208 274.7099609375 899.5 Z"/></g><g transform="translate(-6,-14) scale(1,1)"><path fill="none" stroke="#000000" d="M 274.7099609375 899.5 C 274.7099609375 894.8055792 278.5155401375 891 283.2099609375 891 C 287.9043817375 891 291.7099609375 894.8055792 291.7099609375 899.5 C 291.7099609375 904.1944208 287.9043817375 908 283.2099609375 908 C 278.5155401375 908 274.7099609375 904.1944208 274.7099609375 899.5 Z" stroke-miterlimit="10"/></g><g transform="translate(-6,-14) scale(1,1)"><g><path fill="none" stroke="none"/><text fill="#000000" stroke="none" font-family="Arial" font-size="13px" font-style="normal" font-weight="bold" text-decoration="none" x="269.851318359375" y="930.5">NFC</text></g></g><g transform="translate(-6,-14) scale(1,1)"><path fill="none" stroke="#000000" d="M 142 899 L 271.7099609375 899" stroke-miterlimit="10"/></g><g transform="translate(-6,-14) scale(1,1)"><path fill="none" stroke="#000000" d="M 464 899 L 294.7099609375 899" stroke-miterlimit="10"/></g><g transform="translate(-6,-14) scale(1,1)"><g><path fill="none" stroke="none"/><text fill="#000000" stroke="none" font-family="Arial" font-size="13px" font-style="normal" font-weight="normal" text-decoration="none" x="356.5" y="920.5">+NDEF</text></g></g><g transform="translate(-6,-14) scale(1,1)"><path fill="#C0C0C0" stroke="none" d="M 398.7099609375 722.5 C 398.7099609375 716.1487248 403.8586857375 711 410.2099609375 711 C 416.5612361375 711 421.7099609375 716.1487248 421.7099609375 722.5 C 421.7099609375 728.8512752 416.5612361375 734 410.2099609375 734 C 403.8586857375 734 398.7099609375 728.8512752 398.7099609375 722.5 Z" opacity="0.2"/></g><g transform="translate(-6,-14) scale(1,1)"><path fill="none" stroke="#000000" d="M 403 726.5 A 11.5 11.5 0 0 1 403 703.5" stroke-miterlimit="10"/></g><g transform="translate(-6,-14) scale(1,1)"><path fill="#ffffff" stroke="none" d="M 394.7099609375 715.5 C 394.7099609375 710.8055792 398.5155401375 707 403.2099609375 707 C 407.9043817375 707 411.7099609375 710.8055792 411.7099609375 715.5 C 411.7099609375 720.1944208 407.9043817375 724 403.2099609375 724 C 398.5155401375 724 394.7099609375 720.1944208 394.7099609375 715.5 Z"/></g><g transform="translate(-6,-14) scale(1,1)"><path fill="none" stroke="#000000" d="M 394.7099609375 715.5 C 394.7099609375 710.8055792 398.5155401375 707 403.2099609375 707 C 407.9043817375 707 411.7099609375 710.8055792 411.7099609375 715.5 C 411.7099609375 720.1944208 407.9043817375 724 403.2099609375 724 C 398.5155401375 724 394.7099609375 720.1944208 394.7099609375 715.5 Z" stroke-miterlimit="10"/></g><g transform="translate(-6,-14) scale(1,1)"><g><path fill="none" stroke="none"/><text fill="#000000" stroke="none" font-family="Arial" font-size="13px" font-style="normal" font-weight="bold" text-decoration="none" x="385.87451171875" y="746.5">REST</text></g></g><g transform="translate(-6,-14) scale(1,1)"><path fill="none" stroke="#000000" d="M 480 568 L 480 715 L 414.7099609375 715" stroke-miterlimit="10"/></g><g transform="translate(-6,-14) scale(1,1)"><g><path fill="none" stroke="none"/><text fill="#000000" stroke="none" font-family="Arial" font-size="13px" font-style="normal" font-weight="normal" text-decoration="none" x="457.733642578125" y="736.5">+HTTP</text></g></g><g transform="translate(-6,-14) scale(1,1)"><path fill="none" stroke="#000000" d="M 142 886 L 216 886 L 216 715 L 391.7099609375 715" stroke-miterlimit="10"/></g><g transform="translate(-6,-14) scale(1,1)"><rect fill="#C0C0C0" stroke="none" x="865" y="519" width="118.71533203125" height="44" opacity="0.2"/></g><g transform="translate(-6,-14) scale(1,1)"><rect fill="#ebd8ff" stroke="none" x="858" y="512" width="118.71533203125" height="44"/></g><g transform="translate(-6,-14) scale(1,1)"><path fill="none" stroke="#000000" d="M 858 512 L 976.71533203125 512 L 976.71533203125 556 L 858 556 L 858 512 Z Z" stroke-miterlimit="10"/></g><g transform="translate(-6,-14) scale(1,1)"><rect fill="#ebd8ff" stroke="none" x="848" y="519" width="20" height="10"/></g><g transform="translate(-6,-14) scale(1,1)"><path fill="none" stroke="#000000" d="M 848 519 L 868 519 L 868 529 L 848 529 L 848 519 Z Z" stroke-miterlimit="10"/></g><g transform="translate(-6,-14) scale(1,1)"><rect fill="#ebd8ff" stroke="none" x="848" y="539" width="20" height="10"/></g><g transform="translate(-6,-14) scale(1,1)"><path fill="none" stroke="#000000" d="M 848 539 L 868 539 L 868 549 L 848 549 L 848 539 Z Z" stroke-miterlimit="10"/></g><g transform="translate(-6,-14) scale(1,1)"><g><path fill="none" stroke="none"/><text fill="#000000" stroke="none" font-family="Arial" font-size="13px" font-style="normal" font-weight="normal" text-decoration="none" x="907.904052734375" y="529.5">«jar»</text></g></g><g transform="translate(-6,-14) scale(1,1)"><g><path fill="none" stroke="none"/><text fill="#000000" stroke="none" font-family="Arial" font-size="13px" font-style="normal" font-weight="bold" text-decoration="none" x="883.33544921875" y="544.5">payfreeclt 1.0</text></g></g><g transform="translate(-6,-14) scale(1,1)"><path fill="#C0C0C0" stroke="none" d="M 702.7099609375 530.5 C 702.7099609375 524.1487248 707.8586857375 519 714.2099609375 519 C 720.5612361375 519 725.7099609375 524.1487248 725.7099609375 530.5 C 725.7099609375 536.8512752 720.5612361375 542 714.2099609375 542 C 707.8586857375 542 702.7099609375 536.8512752 702.7099609375 530.5 Z" opacity="0.2"/></g><g transform="translate(-6,-14) scale(1,1)"><path fill="none" stroke="#000000" d="M 707 534.5 A 11.5 11.5 0 0 1 707 511.5" stroke-miterlimit="10"/></g><g transform="translate(-6,-14) scale(1,1)"><path fill="#ffffff" stroke="none" d="M 698.7099609375 523.5 C 698.7099609375 518.8055792 702.5155401375 515 707.2099609375 515 C 711.9043817375 515 715.7099609375 518.8055792 715.7099609375 523.5 C 715.7099609375 528.1944208 711.9043817375 532 707.2099609375 532 C 702.5155401375 532 698.7099609375 528.1944208 698.7099609375 523.5 Z"/></g><g transform="translate(-6,-14) scale(1,1)"><path fill="none" stroke="#000000" d="M 698.7099609375 523.5 C 698.7099609375 518.8055792 702.5155401375 515 707.2099609375 515 C 711.9043817375 515 715.7099609375 518.8055792 715.7099609375 523.5 C 715.7099609375 528.1944208 711.9043817375 532 707.2099609375 532 C 702.5155401375 532 698.7099609375 528.1944208 698.7099609375 523.5 Z" stroke-miterlimit="10"/></g><g transform="translate(-6,-14) scale(1,1)"><g><path fill="none" stroke="none"/><text fill="#000000" stroke="none" font-family="Arial" font-size="13px" font-style="normal" font-weight="bold" text-decoration="none" x="689.87451171875" y="554.5">REST</text></g></g><g transform="translate(-6,-14) scale(1,1)"><path fill="none" stroke="#000000" d="M 848 523 L 718.7099609375 523" stroke-miterlimit="10"/></g><g transform="translate(-6,-14) scale(1,1)"><g><path fill="none" stroke="none"/><text fill="#000000" stroke="none" font-family="Arial" font-size="13px" font-style="normal" font-weight="normal" text-decoration="none" x="761.5" y="544.5">+HTTP</text></g></g><g transform="translate(-6,-14) scale(1,1)"><path fill="none" stroke="#000000" d="M 504 523 L 695.7099609375 523" stroke-miterlimit="10"/></g><g transform="translate(-6,-14) scale(1,1)"><rect fill="#ffffff" stroke="none" x="850" y="505" width="14" height="14"/></g><g transform="translate(-6,-14) scale(1,1)"><path fill="none" stroke="#000000" d="M 850 505 L 864 505 L 864 519 L 850 519 L 850 505 Z Z" stroke-miterlimit="10"/></g><g transform="translate(-6,-14) scale(1,1)"><g><path fill="none" stroke="none"/><text fill="#000000" stroke="none" font-family="Arial" font-size="13px" font-style="normal" font-weight="normal" text-decoration="none" x="827.0400390625" y="503">1234</text></g></g><g transform="translate(-6,-14) scale(1,1)"><rect fill="#ffffff" stroke="none" x="497" y="559" width="14" height="14"/></g><g transform="translate(-6,-14) scale(1,1)"><path fill="none" stroke="#000000" d="M 497 559 L 511 559 L 511 573 L 497 573 L 497 559 Z Z" stroke-miterlimit="10"/></g><g transform="translate(-6,-14) scale(1,1)"><g><path fill="none" stroke="none"/><text fill="#000000" stroke="none" font-family="Arial" font-size="13px" font-style="normal" font-weight="normal" text-decoration="none" x="474.0400390625" y="557">5000</text></g></g></g></svg>