<svg version="1.1" xmlns="http://www.w3.org/2000/svg" xmlns:xlink="http://www.w3.org/1999/xlink" width="1721" height="564"><defs/><g><g transform="translate(-97,-590) scale(1,1)"><path fill="#C0C0C0" stroke="none" d="M 780 661 L 1017 661 L 1017 1150 L 780 1150" opacity="0.2"/></g><g transform="translate(-97,-590) scale(1,1)"><path fill="#C0C0C0" stroke="none" d="M 780 661 L 790 651 L 1027 651 L 1017 661" opacity="0.2"/></g><g transform="translate(-97,-590) scale(1,1)"><path fill="#C0C0C0" stroke="none" d="M 1027 651 L 1017 661 L 1017 1150 L 1027 1140" opacity="0.2"/></g><g transform="translate(-97,-590) scale(1,1)"><path fill="#ffffff" stroke="none" d="M 773 654 L 1010 654 L 1010 1143 L 773 1143"/></g><g transform="translate(-97,-590) scale(1,1)"><path fill="#ffffff" stroke="none" d="M 773 654 L 783 644 L 1020 644 L 1010 654"/></g><g transform="translate(-97,-590) scale(1,1)"><path fill="#ffffff" stroke="none" d="M 1020 644 L 1010 654 L 1010 1143 L 1020 1133"/></g><g transform="translate(-97,-590) scale(1,1)"><path fill="none" stroke="#000000" d="M 773 654 L 1010 654 L 1010 1143 L 773 1143 L 773 654" stroke-miterlimit="10"/></g><g transform="translate(-97,-590) scale(1,1)"><path fill="none" stroke="#000000" d="M 773 654 L 783 644 L 1020 644 L 1010 654 L 773 654" stroke-miterlimit="10"/></g><g transform="translate(-97,-590) scale(1,1)"><path fill="none" stroke="#000000" d="M 1020 644 L 1010 654 L 1010 1143 L 1020 1133 L 1020 644" stroke-miterlimit="10"/></g><g transform="translate(-97,-590) scale(1,1)"><g><path fill="none" stroke="none"/><text fill="#000000" stroke="none" font-family="Arial" font-size="13px" font-style="normal" font-weight="normal" text-decoration="none" x="840.3173828125" y="671.5">«Ubuntu 16.04.1»</text></g></g><g transform="translate(-97,-590) scale(1,1)"><g><path fill="none" stroke="none"/><text fill="#000000" stroke="none" font-family="Arial" font-size="13px" font-style="normal" font-weight="bold" text-decoration="none" x="857.31005859375" y="686.5">EsiBankLab</text></g></g><g transform="translate(-97,-590) scale(1,1)"><path fill="#C0C0C0" stroke="none" d="M 820 741 L 969 741 L 969 858 L 820 858" opacity="0.2"/></g><g transform="translate(-97,-590) scale(1,1)"><path fill="#C0C0C0" stroke="none" d="M 820 741 L 830 731 L 979 731 L 969 741" opacity="0.2"/></g><g transform="translate(-97,-590) scale(1,1)"><path fill="#C0C0C0" stroke="none" d="M 979 731 L 969 741 L 969 858 L 979 848" opacity="0.2"/></g><g transform="translate(-97,-590) scale(1,1)"><path fill="#ffffff" stroke="none" d="M 813 734 L 962 734 L 962 851 L 813 851"/></g><g transform="translate(-97,-590) scale(1,1)"><path fill="#ffffff" stroke="none" d="M 813 734 L 823 724 L 972 724 L 962 734"/></g><g transform="translate(-97,-590) scale(1,1)"><path fill="#ffffff" stroke="none" d="M 972 724 L 962 734 L 962 851 L 972 841"/></g><g transform="translate(-97,-590) scale(1,1)"><path fill="none" stroke="#000000" d="M 813 734 L 962 734 L 962 851 L 813 851 L 813 734" stroke-miterlimit="10"/></g><g transform="translate(-97,-590) scale(1,1)"><path fill="none" stroke="#000000" d="M 813 734 L 823 724 L 972 724 L 962 734 L 813 734" stroke-miterlimit="10"/></g><g transform="translate(-97,-590) scale(1,1)"><path fill="none" stroke="#000000" d="M 972 724 L 962 734 L 962 851 L 972 841 L 972 724" stroke-miterlimit="10"/></g><g transform="translate(-97,-590) scale(1,1)"><g><path fill="none" stroke="none"/><text fill="#000000" stroke="none" font-family="Arial" font-size="13px" font-style="normal" font-weight="normal" text-decoration="none" x="854.030517578125" y="751.5">«container»</text></g></g><g transform="translate(-97,-590) scale(1,1)"><g><path fill="none" stroke="none"/><text fill="#000000" stroke="none" font-family="Arial" font-size="13px" font-style="normal" font-weight="bold" text-decoration="none" x="857.655029296875" y="766.5">securerest</text></g></g><g transform="translate(-97,-590) scale(1,1)"><path fill="#C0C0C0" stroke="none" d="M 820 1017 L 969 1017 L 969 1134 L 820 1134" opacity="0.2"/></g><g transform="translate(-97,-590) scale(1,1)"><path fill="#C0C0C0" stroke="none" d="M 820 1017 L 830 1007 L 979 1007 L 969 1017" opacity="0.2"/></g><g transform="translate(-97,-590) scale(1,1)"><path fill="#C0C0C0" stroke="none" d="M 979 1007 L 969 1017 L 969 1134 L 979 1124" opacity="0.2"/></g><g transform="translate(-97,-590) scale(1,1)"><path fill="#ffffff" stroke="none" d="M 813 1010 L 962 1010 L 962 1127 L 813 1127"/></g><g transform="translate(-97,-590) scale(1,1)"><path fill="#ffffff" stroke="none" d="M 813 1010 L 823 1000 L 972 1000 L 962 1010"/></g><g transform="translate(-97,-590) scale(1,1)"><path fill="#ffffff" stroke="none" d="M 972 1000 L 962 1010 L 962 1127 L 972 1117"/></g><g transform="translate(-97,-590) scale(1,1)"><path fill="none" stroke="#000000" d="M 813 1010 L 962 1010 L 962 1127 L 813 1127 L 813 1010" stroke-miterlimit="10"/></g><g transform="translate(-97,-590) scale(1,1)"><path fill="none" stroke="#000000" d="M 813 1010 L 823 1000 L 972 1000 L 962 1010 L 813 1010" stroke-miterlimit="10"/></g><g transform="translate(-97,-590) scale(1,1)"><path fill="none" stroke="#000000" d="M 972 1000 L 962 1010 L 962 1127 L 972 1117 L 972 1000" stroke-miterlimit="10"/></g><g transform="translate(-97,-590) scale(1,1)"><g><path fill="none" stroke="none"/><text fill="#000000" stroke="none" font-family="Arial" font-size="13px" font-style="normal" font-weight="normal" text-decoration="none" x="854.030517578125" y="1027.5">«container»</text></g></g><g transform="translate(-97,-590) scale(1,1)"><g><path fill="none" stroke="none"/><text fill="#000000" stroke="none" font-family="Arial" font-size="13px" font-style="normal" font-weight="bold" text-decoration="none" x="855.119140625" y="1042.5">dataaccess</text></g></g><g transform="translate(-97,-590) scale(1,1)"><rect fill="#C0C0C0" stroke="none" x="846" y="795" width="111.5107421875" height="44" opacity="0.2"/></g><g transform="translate(-97,-590) scale(1,1)"><rect fill="#ebd8ff" stroke="none" x="839" y="788" width="111.5107421875" height="44"/></g><g transform="translate(-97,-590) scale(1,1)"><path fill="none" stroke="#000000" d="M 839 788 L 950.5107421875 788 L 950.5107421875 832 L 839 832 L 839 788 Z Z" stroke-miterlimit="10"/></g><g transform="translate(-97,-590) scale(1,1)"><rect fill="#ebd8ff" stroke="none" x="829" y="795" width="20" height="10"/></g><g transform="translate(-97,-590) scale(1,1)"><path fill="none" stroke="#000000" d="M 829 795 L 849 795 L 849 805 L 829 805 L 829 795 Z Z" stroke-miterlimit="10"/></g><g transform="translate(-97,-590) scale(1,1)"><rect fill="#ebd8ff" stroke="none" x="829" y="815" width="20" height="10"/></g><g transform="translate(-97,-590) scale(1,1)"><path fill="none" stroke="#000000" d="M 829 815 L 849 815 L 849 825 L 829 825 L 829 815 Z Z" stroke-miterlimit="10"/></g><g transform="translate(-97,-590) scale(1,1)"><g><path fill="none" stroke="none"/><text fill="#000000" stroke="none" font-family="Arial" font-size="13px" font-style="normal" font-weight="normal" text-decoration="none" x="885.3017578125" y="805.5">«jar»</text></g></g><g transform="translate(-97,-590) scale(1,1)"><g><path fill="none" stroke="none"/><text fill="#000000" stroke="none" font-family="Arial" font-size="13px" font-style="normal" font-weight="bold" text-decoration="none" x="858.568603515625" y="820.5">securerest 1.0</text></g></g><g transform="translate(-97,-590) scale(1,1)"><rect fill="#C0C0C0" stroke="none" x="846" y="1063" width="110.79345703125" height="44" opacity="0.2"/></g><g transform="translate(-97,-590) scale(1,1)"><rect fill="#ebd8ff" stroke="none" x="839" y="1056" width="110.79345703125" height="44"/></g><g transform="translate(-97,-590) scale(1,1)"><path fill="none" stroke="#000000" d="M 839 1056 L 949.79345703125 1056 L 949.79345703125 1100 L 839 1100 L 839 1056 Z Z" stroke-miterlimit="10"/></g><g transform="translate(-97,-590) scale(1,1)"><rect fill="#ebd8ff" stroke="none" x="829" y="1063" width="20" height="10"/></g><g transform="translate(-97,-590) scale(1,1)"><path fill="none" stroke="#000000" d="M 829 1063 L 849 1063 L 849 1073 L 829 1073 L 829 1063 Z Z" stroke-miterlimit="10"/></g><g transform="translate(-97,-590) scale(1,1)"><rect fill="#ebd8ff" stroke="none" x="829" y="1083" width="20" height="10"/></g><g transform="translate(-97,-590) scale(1,1)"><path fill="none" stroke="#000000" d="M 829 1083 L 849 1083 L 849 1093 L 829 1093 L 829 1083 Z Z" stroke-miterlimit="10"/></g><g transform="translate(-97,-590) scale(1,1)"><g><path fill="none" stroke="none"/><text fill="#000000" stroke="none" font-family="Arial" font-size="13px" font-style="normal" font-weight="normal" text-decoration="none" x="884.943115234375" y="1073.5">«jar»</text></g></g><g transform="translate(-97,-590) scale(1,1)"><g><path fill="none" stroke="none"/><text fill="#000000" stroke="none" font-family="Arial" font-size="13px" font-style="normal" font-weight="bold" text-decoration="none" x="855.674072265625" y="1088.5">dataaccess 1.0</text></g></g><g transform="translate(-97,-590) scale(1,1)"><path fill="#C0C0C0" stroke="none" d="M 1215 1025 L 1380 1025 L 1380 1142 L 1215 1142" opacity="0.2"/></g><g transform="translate(-97,-590) scale(1,1)"><path fill="#C0C0C0" stroke="none" d="M 1215 1025 L 1225 1015 L 1390 1015 L 1380 1025" opacity="0.2"/></g><g transform="translate(-97,-590) scale(1,1)"><path fill="#C0C0C0" stroke="none" d="M 1390 1015 L 1380 1025 L 1380 1142 L 1390 1132" opacity="0.2"/></g><g transform="translate(-97,-590) scale(1,1)"><path fill="#ffffff" stroke="none" d="M 1208 1018 L 1373 1018 L 1373 1135 L 1208 1135"/></g><g transform="translate(-97,-590) scale(1,1)"><path fill="#ffffff" stroke="none" d="M 1208 1018 L 1218 1008 L 1383 1008 L 1373 1018"/></g><g transform="translate(-97,-590) scale(1,1)"><path fill="#ffffff" stroke="none" d="M 1383 1008 L 1373 1018 L 1373 1135 L 1383 1125"/></g><g transform="translate(-97,-590) scale(1,1)"><path fill="none" stroke="#000000" d="M 1208 1018 L 1373 1018 L 1373 1135 L 1208 1135 L 1208 1018" stroke-miterlimit="10"/></g><g transform="translate(-97,-590) scale(1,1)"><path fill="none" stroke="#000000" d="M 1208 1018 L 1218 1008 L 1383 1008 L 1373 1018 L 1208 1018" stroke-miterlimit="10"/></g><g transform="translate(-97,-590) scale(1,1)"><path fill="none" stroke="#000000" d="M 1383 1008 L 1373 1018 L 1373 1135 L 1383 1125 L 1383 1008" stroke-miterlimit="10"/></g><g transform="translate(-97,-590) scale(1,1)"><g><path fill="none" stroke="none"/><text fill="#000000" stroke="none" font-family="Arial" font-size="13px" font-style="normal" font-weight="normal" text-decoration="none" x="1239.3173828125" y="1035.5">«Ubuntu 16.04.1»</text></g></g><g transform="translate(-97,-590) scale(1,1)"><g><path fill="none" stroke="none"/><text fill="#000000" stroke="none" font-family="Arial" font-size="13px" font-style="normal" font-weight="bold" text-decoration="none" x="1245.830078125" y="1050.5">Prod_Database</text></g></g><g transform="translate(-97,-590) scale(1,1)"><rect fill="#C0C0C0" stroke="none" x="1249" y="1071" width="107.14990234375" height="44" opacity="0.2"/></g><g transform="translate(-97,-590) scale(1,1)"><rect fill="#ffffff" stroke="none" x="1242" y="1064" width="107.14990234375" height="44"/></g><g transform="translate(-97,-590) scale(1,1)"><path fill="none" stroke="#000000" d="M 1242 1064 L 1349.14990234375 1064 L 1349.14990234375 1108 L 1242 1108 L 1242 1064 Z Z" stroke-miterlimit="10"/></g><g transform="translate(-97,-590) scale(1,1)"><rect fill="#ffffff" stroke="none" x="1232" y="1071" width="20" height="10"/></g><g transform="translate(-97,-590) scale(1,1)"><path fill="none" stroke="#000000" d="M 1232 1071 L 1252 1071 L 1252 1081 L 1232 1081 L 1232 1071 Z Z" stroke-miterlimit="10"/></g><g transform="translate(-97,-590) scale(1,1)"><rect fill="#ffffff" stroke="none" x="1232" y="1091" width="20" height="10"/></g><g transform="translate(-97,-590) scale(1,1)"><path fill="none" stroke="#000000" d="M 1232 1091 L 1252 1091 L 1252 1101 L 1232 1101 L 1232 1091 Z Z" stroke-miterlimit="10"/></g><g transform="translate(-97,-590) scale(1,1)"><g><path fill="none" stroke="none"/><text fill="#000000" stroke="none" font-family="Arial" font-size="13px" font-style="normal" font-weight="normal" text-decoration="none" x="1275.285888671875" y="1081.5">«server»</text></g></g><g transform="translate(-97,-590) scale(1,1)"><g><path fill="none" stroke="none"/><text fill="#000000" stroke="none" font-family="Arial" font-size="13px" font-style="normal" font-weight="bold" text-decoration="none" x="1257.220458984375" y="1096.5">MySQL  5.7.21</text></g></g><g transform="translate(-97,-590) scale(1,1)"><path fill="#C0C0C0" stroke="none" d="M 1110.7099609375 1074.5 C 1110.7099609375 1068.1487248 1115.8586857375 1063 1122.2099609375 1063 C 1128.5612361375 1063 1133.7099609375 1068.1487248 1133.7099609375 1074.5 C 1133.7099609375 1080.8512752 1128.5612361375 1086 1122.2099609375 1086 C 1115.8586857375 1086 1110.7099609375 1080.8512752 1110.7099609375 1074.5 Z" opacity="0.2"/></g><g transform="translate(-97,-590) scale(1,1)"><path fill="none" stroke="#000000" d="M 1115 1078.5 A 11.5 11.5 0 0 1 1115 1055.5" stroke-miterlimit="10"/></g><g transform="translate(-97,-590) scale(1,1)"><path fill="#ffffff" stroke="none" d="M 1106.7099609375 1067.5 C 1106.7099609375 1062.8055792 1110.5155401375 1059 1115.2099609375 1059 C 1119.9043817375 1059 1123.7099609375 1062.8055792 1123.7099609375 1067.5 C 1123.7099609375 1072.1944208 1119.9043817375 1076 1115.2099609375 1076 C 1110.5155401375 1076 1106.7099609375 1072.1944208 1106.7099609375 1067.5 Z"/></g><g transform="translate(-97,-590) scale(1,1)"><path fill="none" stroke="#000000" d="M 1106.7099609375 1067.5 C 1106.7099609375 1062.8055792 1110.5155401375 1059 1115.2099609375 1059 C 1119.9043817375 1059 1123.7099609375 1062.8055792 1123.7099609375 1067.5 C 1123.7099609375 1072.1944208 1119.9043817375 1076 1115.2099609375 1076 C 1110.5155401375 1076 1106.7099609375 1072.1944208 1106.7099609375 1067.5 Z" stroke-miterlimit="10"/></g><g transform="translate(-97,-590) scale(1,1)"><g><path fill="none" stroke="none"/><text fill="#000000" stroke="none" font-family="Arial" font-size="13px" font-style="normal" font-weight="bold" text-decoration="none" x="1102.2099609375" y="1098.5">TCP</text></g></g><g transform="translate(-97,-590) scale(1,1)"><path fill="none" stroke="#000000" d="M 1208 1067 L 1126.7099609375 1067" stroke-miterlimit="10"/></g><g transform="translate(-97,-590) scale(1,1)"><g><path fill="none" stroke="none"/><text fill="#000000" stroke="none" font-family="Arial" font-size="13px" font-style="normal" font-weight="normal" text-decoration="none" x="1131.5" y="1059.5">+tcp:3306</text></g></g><g transform="translate(-97,-590) scale(1,1)"><path fill="none" stroke="#000000" d="M 973 1067 L 1103.7099609375 1067" stroke-miterlimit="10"/></g><g transform="translate(-97,-590) scale(1,1)"><path fill="#C0C0C0" stroke="none" d="M 883.7099609375 930.5 C 883.7099609375 924.1487248 888.8586857375 919 895.2099609375 919 C 901.5612361375 919 906.7099609375 924.1487248 906.7099609375 930.5 C 906.7099609375 936.8512752 901.5612361375 942 895.2099609375 942 C 888.8586857375 942 883.7099609375 936.8512752 883.7099609375 930.5 Z" opacity="0.2"/></g><g transform="translate(-97,-590) scale(1,1)"><path fill="none" stroke="#000000" d="M 888 911.5 A 11.5 11.5 0 0 1 888 934.5" stroke-miterlimit="10"/></g><g transform="translate(-97,-590) scale(1,1)"><path fill="#ffffff" stroke="none" d="M 879.7099609375 923.5 C 879.7099609375 918.8055792 883.5155401375 915 888.2099609375 915 C 892.9043817375 915 896.7099609375 918.8055792 896.7099609375 923.5 C 896.7099609375 928.1944208 892.9043817375 932 888.2099609375 932 C 883.5155401375 932 879.7099609375 928.1944208 879.7099609375 923.5 Z"/></g><g transform="translate(-97,-590) scale(1,1)"><path fill="none" stroke="#000000" d="M 879.7099609375 923.5 C 879.7099609375 918.8055792 883.5155401375 915 888.2099609375 915 C 892.9043817375 915 896.7099609375 918.8055792 896.7099609375 923.5 C 896.7099609375 928.1944208 892.9043817375 932 888.2099609375 932 C 883.5155401375 932 879.7099609375 928.1944208 879.7099609375 923.5 Z" stroke-miterlimit="10"/></g><g transform="translate(-97,-590) scale(1,1)"><g><path fill="none" stroke="none"/><text fill="#000000" stroke="none" font-family="Arial" font-size="13px" font-style="normal" font-weight="bold" text-decoration="none" x="870.87451171875" y="954.5">REST</text></g></g><g transform="translate(-97,-590) scale(1,1)"><path fill="none" stroke="#000000" d="M 829 1000 L 829 923 L 876.7099609375 923" stroke-miterlimit="10"/></g><g transform="translate(-97,-590) scale(1,1)"><g><path fill="none" stroke="none"/><text fill="#000000" stroke="none" font-family="Arial" font-size="13px" font-style="normal" font-weight="normal" text-decoration="none" x="805.5" y="914.5">+http:80</text></g></g><g transform="translate(-97,-590) scale(1,1)"><path fill="none" stroke="#000000" d="M 941 852 L 941 923 L 899.7099609375 923" stroke-miterlimit="10"/></g><g transform="translate(-97,-590) scale(1,1)"><path fill="#C0C0C0" stroke="none" d="M 378 661 L 607 661 L 607 1150 L 378 1150" opacity="0.2"/></g><g transform="translate(-97,-590) scale(1,1)"><path fill="#C0C0C0" stroke="none" d="M 378 661 L 388 651 L 617 651 L 607 661" opacity="0.2"/></g><g transform="translate(-97,-590) scale(1,1)"><path fill="#C0C0C0" stroke="none" d="M 617 651 L 607 661 L 607 1150 L 617 1140" opacity="0.2"/></g><g transform="translate(-97,-590) scale(1,1)"><path fill="#ffffff" stroke="none" d="M 371 654 L 600 654 L 600 1143 L 371 1143"/></g><g transform="translate(-97,-590) scale(1,1)"><path fill="#ffffff" stroke="none" d="M 371 654 L 381 644 L 610 644 L 600 654"/></g><g transform="translate(-97,-590) scale(1,1)"><path fill="#ffffff" stroke="none" d="M 610 644 L 600 654 L 600 1143 L 610 1133"/></g><g transform="translate(-97,-590) scale(1,1)"><path fill="none" stroke="#000000" d="M 371 654 L 600 654 L 600 1143 L 371 1143 L 371 654" stroke-miterlimit="10"/></g><g transform="translate(-97,-590) scale(1,1)"><path fill="none" stroke="#000000" d="M 371 654 L 381 644 L 610 644 L 600 654 L 371 654" stroke-miterlimit="10"/></g><g transform="translate(-97,-590) scale(1,1)"><path fill="none" stroke="#000000" d="M 610 644 L 600 654 L 600 1143 L 610 1133 L 610 644" stroke-miterlimit="10"/></g><g transform="translate(-97,-590) scale(1,1)"><g><path fill="none" stroke="none"/><text fill="#000000" stroke="none" font-family="Arial" font-size="13px" font-style="normal" font-weight="normal" text-decoration="none" x="440.465087890625" y="671.5">«Raspbian 4.9»</text></g></g><g transform="translate(-97,-590) scale(1,1)"><g><path fill="none" stroke="none"/><text fill="#000000" stroke="none" font-family="Arial" font-size="13px" font-style="normal" font-weight="bold" text-decoration="none" x="472.635009765625" y="686.5">DAB</text></g></g><g transform="translate(-97,-590) scale(1,1)"><rect fill="#C0C0C0" stroke="none" x="409" y="775" width="182" height="44" opacity="0.2"/></g><g transform="translate(-97,-590) scale(1,1)"><rect fill="#ffd8d8" stroke="none" x="402" y="768" width="182" height="44"/></g><g transform="translate(-97,-590) scale(1,1)"><path fill="none" stroke="#000000" d="M 402 768 L 584 768 L 584 812 L 402 812 L 402 768 Z Z" stroke-miterlimit="10"/></g><g transform="translate(-97,-590) scale(1,1)"><rect fill="#ffd8d8" stroke="none" x="392" y="775" width="20" height="10"/></g><g transform="translate(-97,-590) scale(1,1)"><path fill="none" stroke="#000000" d="M 392 775 L 412 775 L 412 785 L 392 785 L 392 775 Z Z" stroke-miterlimit="10"/></g><g transform="translate(-97,-590) scale(1,1)"><rect fill="#ffd8d8" stroke="none" x="392" y="795" width="20" height="10"/></g><g transform="translate(-97,-590) scale(1,1)"><path fill="none" stroke="#000000" d="M 392 795 L 412 795 L 412 805 L 392 805 L 392 795 Z Z" stroke-miterlimit="10"/></g><g transform="translate(-97,-590) scale(1,1)"><g><path fill="none" stroke="none"/><text fill="#000000" stroke="none" font-family="Arial" font-size="13px" font-style="normal" font-weight="normal" text-decoration="none" x="483.905029296875" y="785.5">«py»</text></g></g><g transform="translate(-97,-590) scale(1,1)"><g><path fill="none" stroke="none"/><text fill="#000000" stroke="none" font-family="Arial" font-size="13px" font-style="normal" font-weight="bold" text-decoration="none" x="468.734130859375" y="800.5">nfc.reader</text></g></g><g transform="translate(-97,-590) scale(1,1)"><path fill="#C0C0C0" stroke="none" d="M 114 661 L 247 661 L 247 774 L 114 774" opacity="0.2"/></g><g transform="translate(-97,-590) scale(1,1)"><path fill="#C0C0C0" stroke="none" d="M 114 661 L 124 651 L 257 651 L 247 661" opacity="0.2"/></g><g transform="translate(-97,-590) scale(1,1)"><path fill="#C0C0C0" stroke="none" d="M 257 651 L 247 661 L 247 774 L 257 764" opacity="0.2"/></g><g transform="translate(-97,-590) scale(1,1)"><path fill="#ffffff" stroke="none" d="M 107 654 L 240 654 L 240 767 L 107 767"/></g><g transform="translate(-97,-590) scale(1,1)"><path fill="#ffffff" stroke="none" d="M 107 654 L 117 644 L 250 644 L 240 654"/></g><g transform="translate(-97,-590) scale(1,1)"><path fill="#ffffff" stroke="none" d="M 250 644 L 240 654 L 240 767 L 250 757"/></g><g transform="translate(-97,-590) scale(1,1)"><path fill="none" stroke="#000000" d="M 107 654 L 240 654 L 240 767 L 107 767 L 107 654" stroke-miterlimit="10"/></g><g transform="translate(-97,-590) scale(1,1)"><path fill="none" stroke="#000000" d="M 107 654 L 117 644 L 250 644 L 240 654 L 107 654" stroke-miterlimit="10"/></g><g transform="translate(-97,-590) scale(1,1)"><path fill="none" stroke="#000000" d="M 250 644 L 240 654 L 240 767 L 250 757 L 250 644" stroke-miterlimit="10"/></g><g transform="translate(-97,-590) scale(1,1)"><g><path fill="none" stroke="none"/><text fill="#000000" stroke="none" font-family="Arial" font-size="13px" font-style="normal" font-weight="normal" text-decoration="none" x="147.98095703125" y="671.5">«device»</text></g></g><g transform="translate(-97,-590) scale(1,1)"><g><path fill="none" stroke="none"/><text fill="#000000" stroke="none" font-family="Arial" font-size="13px" font-style="normal" font-weight="bold" text-decoration="none" x="151.595947265625" y="686.5">Android</text></g></g><g transform="translate(-97,-590) scale(1,1)"><rect fill="#C0C0C0" stroke="none" x="132" y="707" width="98.44091796875" height="44" opacity="0.2"/></g><g transform="translate(-97,-590) scale(1,1)"><rect fill="#ffd8d8" stroke="none" x="125" y="700" width="98.44091796875" height="44"/></g><g transform="translate(-97,-590) scale(1,1)"><path fill="none" stroke="#000000" d="M 125 700 L 223.44091796875 700 L 223.44091796875 744 L 125 744 L 125 700 Z Z" stroke-miterlimit="10"/></g><g transform="translate(-97,-590) scale(1,1)"><rect fill="#ffd8d8" stroke="none" x="115" y="707" width="20" height="10"/></g><g transform="translate(-97,-590) scale(1,1)"><path fill="none" stroke="#000000" d="M 115 707 L 135 707 L 135 717 L 115 717 L 115 707 Z Z" stroke-miterlimit="10"/></g><g transform="translate(-97,-590) scale(1,1)"><rect fill="#ffd8d8" stroke="none" x="115" y="727" width="20" height="10"/></g><g transform="translate(-97,-590) scale(1,1)"><path fill="none" stroke="#000000" d="M 115 727 L 135 727 L 135 737 L 115 737 L 115 727 Z Z" stroke-miterlimit="10"/></g><g transform="translate(-97,-590) scale(1,1)"><g><path fill="none" stroke="none"/><text fill="#000000" stroke="none" font-family="Arial" font-size="13px" font-style="normal" font-weight="normal" text-decoration="none" x="161.510498046875" y="717.5">«apk»</text></g></g><g transform="translate(-97,-590) scale(1,1)"><g><path fill="none" stroke="none"/><text fill="#000000" stroke="none" font-family="Arial" font-size="13px" font-style="normal" font-weight="bold" text-decoration="none" x="156.81640625" y="732.5">esibank</text></g></g><g transform="translate(-97,-590) scale(1,1)"><path fill="#C0C0C0" stroke="none" d="M 278.7099609375 910.5 C 278.7099609375 904.1487248 283.8586857375 899 290.2099609375 899 C 296.5612361375 899 301.7099609375 904.1487248 301.7099609375 910.5 C 301.7099609375 916.8512752 296.5612361375 922 290.2099609375 922 C 283.8586857375 922 278.7099609375 916.8512752 278.7099609375 910.5 Z" opacity="0.2"/></g><g transform="translate(-97,-590) scale(1,1)"><path fill="none" stroke="#000000" d="M 283 914.5 A 11.5 11.5 0 0 1 283 891.5" stroke-miterlimit="10"/></g><g transform="translate(-97,-590) scale(1,1)"><path fill="#ffffff" stroke="none" d="M 274.7099609375 903.5 C 274.7099609375 898.8055792 278.5155401375 895 283.2099609375 895 C 287.9043817375 895 291.7099609375 898.8055792 291.7099609375 903.5 C 291.7099609375 908.1944208 287.9043817375 912 283.2099609375 912 C 278.5155401375 912 274.7099609375 908.1944208 274.7099609375 903.5 Z"/></g><g transform="translate(-97,-590) scale(1,1)"><path fill="none" stroke="#000000" d="M 274.7099609375 903.5 C 274.7099609375 898.8055792 278.5155401375 895 283.2099609375 895 C 287.9043817375 895 291.7099609375 898.8055792 291.7099609375 903.5 C 291.7099609375 908.1944208 287.9043817375 912 283.2099609375 912 C 278.5155401375 912 274.7099609375 908.1944208 274.7099609375 903.5 Z" stroke-miterlimit="10"/></g><g transform="translate(-97,-590) scale(1,1)"><g><path fill="none" stroke="none"/><text fill="#000000" stroke="none" font-family="Arial" font-size="13px" font-style="normal" font-weight="bold" text-decoration="none" x="269.851318359375" y="934.5">NFC</text></g></g><g transform="translate(-97,-590) scale(1,1)"><path fill="none" stroke="#000000" d="M 371 903 L 294.7099609375 903" stroke-miterlimit="10"/></g><g transform="translate(-97,-590) scale(1,1)"><path fill="none" stroke="#000000" d="M 176 768 L 176 903 L 271.7099609375 903" stroke-miterlimit="10"/></g><g transform="translate(-97,-590) scale(1,1)"><rect fill="#C0C0C0" stroke="none" x="409" y="711" width="181" height="47" opacity="0.2"/></g><g transform="translate(-97,-590) scale(1,1)"><rect fill="#ffd8d8" stroke="none" x="402" y="704" width="181" height="47"/></g><g transform="translate(-97,-590) scale(1,1)"><path fill="none" stroke="#000000" d="M 402 704 L 583 704 L 583 751 L 402 751 L 402 704 Z Z" stroke-miterlimit="10"/></g><g transform="translate(-97,-590) scale(1,1)"><rect fill="#ffd8d8" stroke="none" x="392" y="711" width="20" height="10"/></g><g transform="translate(-97,-590) scale(1,1)"><path fill="none" stroke="#000000" d="M 392 711 L 412 711 L 412 721 L 392 721 L 392 711 Z Z" stroke-miterlimit="10"/></g><g transform="translate(-97,-590) scale(1,1)"><rect fill="#ffd8d8" stroke="none" x="392" y="731" width="20" height="10"/></g><g transform="translate(-97,-590) scale(1,1)"><path fill="none" stroke="#000000" d="M 392 731 L 412 731 L 412 741 L 392 741 L 392 731 Z Z" stroke-miterlimit="10"/></g><g transform="translate(-97,-590) scale(1,1)"><g><path fill="none" stroke="none"/><text fill="#000000" stroke="none" font-family="Arial" font-size="13px" font-style="normal" font-weight="normal" text-decoration="none" x="467.15185546875" y="721.5">«browser»</text></g></g><g transform="translate(-97,-590) scale(1,1)"><g><path fill="none" stroke="none"/><text fill="#000000" stroke="none" font-family="Arial" font-size="13px" font-style="normal" font-weight="bold" text-decoration="none" x="468.96728515625" y="736.5">chromium</text></g></g><g transform="translate(-97,-590) scale(1,1)"><rect fill="#C0C0C0" stroke="none" x="409" y="831" width="182" height="48" opacity="0.2"/></g><g transform="translate(-97,-590) scale(1,1)"><rect fill="#ffd8d8" stroke="none" x="402" y="824" width="182" height="48"/></g><g transform="translate(-97,-590) scale(1,1)"><path fill="none" stroke="#000000" d="M 402 824 L 584 824 L 584 872 L 402 872 L 402 824 Z Z" stroke-miterlimit="10"/></g><g transform="translate(-97,-590) scale(1,1)"><rect fill="#ffd8d8" stroke="none" x="392" y="831" width="20" height="10"/></g><g transform="translate(-97,-590) scale(1,1)"><path fill="none" stroke="#000000" d="M 392 831 L 412 831 L 412 841 L 392 841 L 392 831 Z Z" stroke-miterlimit="10"/></g><g transform="translate(-97,-590) scale(1,1)"><rect fill="#ffd8d8" stroke="none" x="392" y="851" width="20" height="10"/></g><g transform="translate(-97,-590) scale(1,1)"><path fill="none" stroke="#000000" d="M 392 851 L 412 851 L 412 861 L 392 861 L 392 851 Z Z" stroke-miterlimit="10"/></g><g transform="translate(-97,-590) scale(1,1)"><g><path fill="none" stroke="none"/><text fill="#000000" stroke="none" font-family="Arial" font-size="13px" font-style="normal" font-weight="normal" text-decoration="none" x="483.905029296875" y="841.5">«py»</text></g></g><g transform="translate(-97,-590) scale(1,1)"><g><path fill="none" stroke="none"/><text fill="#000000" stroke="none" font-family="Arial" font-size="13px" font-style="normal" font-weight="bold" text-decoration="none" x="471.984130859375" y="856.5">app.flask</text></g></g><g transform="translate(-97,-590) scale(1,1)"><path fill="#C0C0C0" stroke="none" d="M 391 1017 L 580 1017 L 580 1134 L 391 1134" opacity="0.2"/></g><g transform="translate(-97,-590) scale(1,1)"><path fill="#C0C0C0" stroke="none" d="M 391 1017 L 401 1007 L 590 1007 L 580 1017" opacity="0.2"/></g><g transform="translate(-97,-590) scale(1,1)"><path fill="#C0C0C0" stroke="none" d="M 590 1007 L 580 1017 L 580 1134 L 590 1124" opacity="0.2"/></g><g transform="translate(-97,-590) scale(1,1)"><path fill="#ffffff" stroke="none" d="M 384 1010 L 573 1010 L 573 1127 L 384 1127"/></g><g transform="translate(-97,-590) scale(1,1)"><path fill="#ffffff" stroke="none" d="M 384 1010 L 394 1000 L 583 1000 L 573 1010"/></g><g transform="translate(-97,-590) scale(1,1)"><path fill="#ffffff" stroke="none" d="M 583 1000 L 573 1010 L 573 1127 L 583 1117"/></g><g transform="translate(-97,-590) scale(1,1)"><path fill="none" stroke="#000000" d="M 384 1010 L 573 1010 L 573 1127 L 384 1127 L 384 1010" stroke-miterlimit="10"/></g><g transform="translate(-97,-590) scale(1,1)"><path fill="none" stroke="#000000" d="M 384 1010 L 394 1000 L 583 1000 L 573 1010 L 384 1010" stroke-miterlimit="10"/></g><g transform="translate(-97,-590) scale(1,1)"><path fill="none" stroke="#000000" d="M 583 1000 L 573 1010 L 573 1127 L 583 1117 L 583 1000" stroke-miterlimit="10"/></g><g transform="translate(-97,-590) scale(1,1)"><g><path fill="none" stroke="none"/><text fill="#000000" stroke="none" font-family="Arial" font-size="13px" font-style="normal" font-weight="normal" text-decoration="none" x="445.030517578125" y="1027.5">«container»</text></g></g><g transform="translate(-97,-590) scale(1,1)"><g><path fill="none" stroke="none"/><text fill="#000000" stroke="none" font-family="Arial" font-size="13px" font-style="normal" font-weight="bold" text-decoration="none" x="440.339599609375" y="1042.5">payfree client</text></g></g><g transform="translate(-97,-590) scale(1,1)"><rect fill="#C0C0C0" stroke="none" x="433" y="1063" width="118.71533203125" height="44" opacity="0.2"/></g><g transform="translate(-97,-590) scale(1,1)"><rect fill="#ebd8ff" stroke="none" x="426" y="1056" width="118.71533203125" height="44"/></g><g transform="translate(-97,-590) scale(1,1)"><path fill="none" stroke="#000000" d="M 426 1056 L 544.71533203125 1056 L 544.71533203125 1100 L 426 1100 L 426 1056 Z Z" stroke-miterlimit="10"/></g><g transform="translate(-97,-590) scale(1,1)"><rect fill="#ebd8ff" stroke="none" x="416" y="1063" width="20" height="10"/></g><g transform="translate(-97,-590) scale(1,1)"><path fill="none" stroke="#000000" d="M 416 1063 L 436 1063 L 436 1073 L 416 1073 L 416 1063 Z Z" stroke-miterlimit="10"/></g><g transform="translate(-97,-590) scale(1,1)"><rect fill="#ebd8ff" stroke="none" x="416" y="1083" width="20" height="10"/></g><g transform="translate(-97,-590) scale(1,1)"><path fill="none" stroke="#000000" d="M 416 1083 L 436 1083 L 436 1093 L 416 1093 L 416 1083 Z Z" stroke-miterlimit="10"/></g><g transform="translate(-97,-590) scale(1,1)"><g><path fill="none" stroke="none"/><text fill="#000000" stroke="none" font-family="Arial" font-size="13px" font-style="normal" font-weight="normal" text-decoration="none" x="475.904052734375" y="1073.5">«jar»</text></g></g><g transform="translate(-97,-590) scale(1,1)"><g><path fill="none" stroke="none"/><text fill="#000000" stroke="none" font-family="Arial" font-size="13px" font-style="normal" font-weight="bold" text-decoration="none" x="451.33544921875" y="1088.5">payfreeclt 1.0</text></g></g><g transform="translate(-97,-590) scale(1,1)"><path fill="#C0C0C0" stroke="none" d="M 486.7099609375 938.5 C 486.7099609375 932.1487248 491.8586857375 927 498.2099609375 927 C 504.5612361375 927 509.7099609375 932.1487248 509.7099609375 938.5 C 509.7099609375 944.8512752 504.5612361375 950 498.2099609375 950 C 491.8586857375 950 486.7099609375 944.8512752 486.7099609375 938.5 Z" opacity="0.2"/></g><g transform="translate(-97,-590) scale(1,1)"><path fill="none" stroke="#000000" d="M 491 942.5 A 11.5 11.5 0 0 1 491 919.5" stroke-miterlimit="10"/></g><g transform="translate(-97,-590) scale(1,1)"><path fill="#ffffff" stroke="none" d="M 482.7099609375 931.5 C 482.7099609375 926.8055792 486.5155401375 923 491.2099609375 923 C 495.9043817375 923 499.7099609375 926.8055792 499.7099609375 931.5 C 499.7099609375 936.1944208 495.9043817375 940 491.2099609375 940 C 486.5155401375 940 482.7099609375 936.1944208 482.7099609375 931.5 Z"/></g><g transform="translate(-97,-590) scale(1,1)"><path fill="none" stroke="#000000" d="M 482.7099609375 931.5 C 482.7099609375 926.8055792 486.5155401375 923 491.2099609375 923 C 495.9043817375 923 499.7099609375 926.8055792 499.7099609375 931.5 C 499.7099609375 936.1944208 495.9043817375 940 491.2099609375 940 C 486.5155401375 940 482.7099609375 936.1944208 482.7099609375 931.5 Z" stroke-miterlimit="10"/></g><g transform="translate(-97,-590) scale(1,1)"><g><path fill="none" stroke="none"/><text fill="#000000" stroke="none" font-family="Arial" font-size="13px" font-style="normal" font-weight="bold" text-decoration="none" x="473.87451171875" y="962.5">REST</text></g></g><g transform="translate(-97,-590) scale(1,1)"><path fill="none" stroke="#000000" d="M 552 1000 L 552 931 L 502.7099609375 931" stroke-miterlimit="10"/></g><g transform="translate(-97,-590) scale(1,1)"><g><path fill="none" stroke="none"/><text fill="#000000" stroke="none" font-family="Arial" font-size="13px" font-style="normal" font-weight="normal" text-decoration="none" x="520.5" y="952.5">+http:1234</text></g></g><g transform="translate(-97,-590) scale(1,1)"><path fill="none" stroke="#000000" d="M 432 872 L 432 931 L 479.7099609375 931" stroke-miterlimit="10"/></g><g transform="translate(-97,-590) scale(1,1)"><path fill="#C0C0C0" stroke="none" d="M 678.7099609375 906.5 C 678.7099609375 900.1487248 683.8586857375 895 690.2099609375 895 C 696.5612361375 895 701.7099609375 900.1487248 701.7099609375 906.5 C 701.7099609375 912.8512752 696.5612361375 918 690.2099609375 918 C 683.8586857375 918 678.7099609375 912.8512752 678.7099609375 906.5 Z" opacity="0.2"/></g><g transform="translate(-97,-590) scale(1,1)"><path fill="none" stroke="#000000" d="M 683 910.5 A 11.5 11.5 0 0 1 683 887.5" stroke-miterlimit="10"/></g><g transform="translate(-97,-590) scale(1,1)"><path fill="#ffffff" stroke="none" d="M 674.7099609375 899.5 C 674.7099609375 894.8055792 678.5155401375 891 683.2099609375 891 C 687.9043817375 891 691.7099609375 894.8055792 691.7099609375 899.5 C 691.7099609375 904.1944208 687.9043817375 908 683.2099609375 908 C 678.5155401375 908 674.7099609375 904.1944208 674.7099609375 899.5 Z"/></g><g transform="translate(-97,-590) scale(1,1)"><path fill="none" stroke="#000000" d="M 674.7099609375 899.5 C 674.7099609375 894.8055792 678.5155401375 891 683.2099609375 891 C 687.9043817375 891 691.7099609375 894.8055792 691.7099609375 899.5 C 691.7099609375 904.1944208 687.9043817375 908 683.2099609375 908 C 678.5155401375 908 674.7099609375 904.1944208 674.7099609375 899.5 Z" stroke-miterlimit="10"/></g><g transform="translate(-97,-590) scale(1,1)"><g><path fill="none" stroke="none"/><text fill="#000000" stroke="none" font-family="Arial" font-size="13px" font-style="normal" font-weight="bold" text-decoration="none" x="665.87451171875" y="930.5">REST</text></g></g><g transform="translate(-97,-590) scale(1,1)"><path fill="none" stroke="#000000" d="M 813 792 L 728 792 L 728 899 L 694.7099609375 899" stroke-miterlimit="10"/></g><g transform="translate(-97,-590) scale(1,1)"><g><path fill="none" stroke="none"/><text fill="#000000" stroke="none" font-family="Arial" font-size="13px" font-style="normal" font-weight="normal" text-decoration="none" x="694.5" y="788.5">+https:4321</text></g></g><g transform="translate(-97,-590) scale(1,1)"><path fill="none" stroke="#000000" d="M 584 1064 L 640 1064 L 640 899 L 671.7099609375 899" stroke-miterlimit="10"/></g><g transform="translate(-97,-590) scale(1,1)"><path fill="#ffffff" stroke="none" d="M 1608 984 L 1773 984 L 1783 994 L 1783 1087 L 1608 1087 L 1608 984"/></g><g transform="translate(-97,-590) scale(1,1)"><path fill="none" stroke="#000000" d="M 1608 984 L 1773 984 L 1783 994 L 1783 1087 L 1608 1087 L 1608 984 L 1608 984" stroke-miterlimit="10"/></g><g transform="translate(-97,-590) scale(1,1)"><path fill="none" stroke="#000000" d="M 1773 984 L 1773 994 L 1783 994 L 1773 984" stroke-miterlimit="10"/></g><g transform="translate(-97,-590) scale(1,1)"><path fill="#ffd8d8" stroke="none" d="M 1626.6666666666667 992 L 1668.3333333333333 992 Q 1679 992 1679 1002.6666666666666 L 1679 1013.3333333333334 Q 1679 1024 1668.3333333333333 1024 L 1626.6666666666667 1024 Q 1616 1024 1616 1013.3333333333334 L 1616 1002.6666666666666 Q 1616 992 1626.6666666666667 992 Z"/></g><g transform="translate(-97,-590) scale(1,1)"><path fill="none" stroke="#000000" d="M 1626.6666666666667 992 L 1668.3333333333333 992 Q 1679 992 1679 1002.6666666666666 L 1679 1013.3333333333334 Q 1679 1024 1668.3333333333333 1024 L 1626.6666666666667 1024 Q 1616 1024 1616 1013.3333333333334 L 1616 1002.6666666666666 Q 1616 992 1626.6666666666667 992 Z" stroke-miterlimit="10"/></g><g transform="translate(-97,-590) scale(1,1)"><path fill="#ebd8ff" stroke="none" d="M 1626.6666666666667 1040 L 1668.3333333333333 1040 Q 1679 1040 1679 1050.6666666666667 L 1679 1061.3333333333333 Q 1679 1072 1668.3333333333333 1072 L 1626.6666666666667 1072 Q 1616 1072 1616 1061.3333333333333 L 1616 1050.6666666666667 Q 1616 1040 1626.6666666666667 1040 Z"/></g><g transform="translate(-97,-590) scale(1,1)"><path fill="none" stroke="#000000" d="M 1626.6666666666667 1040 L 1668.3333333333333 1040 Q 1679 1040 1679 1050.6666666666667 L 1679 1061.3333333333333 Q 1679 1072 1668.3333333333333 1072 L 1626.6666666666667 1072 Q 1616 1072 1616 1061.3333333333333 L 1616 1050.6666666666667 Q 1616 1040 1626.6666666666667 1040 Z" stroke-miterlimit="10"/></g><g transform="translate(-97,-590) scale(1,1)"><g><path fill="none" stroke="none"/><text fill="#000000" stroke="none" font-family="Arial" font-size="20px" font-style="normal" font-weight="normal" text-decoration="none" x="1685" y="1017">Usman</text></g></g><g transform="translate(-97,-590) scale(1,1)"><g><path fill="none" stroke="none"/><text fill="#000000" stroke="none" font-family="Arial" font-size="20px" font-style="normal" font-weight="normal" text-decoration="none" x="1685" y="1065">Thibault</text></g></g><g transform="translate(-97,-590) scale(1,1)"><path fill="#C0C0C0" stroke="none" d="M 1183 657 L 1444 657 L 1444 982 L 1183 982" opacity="0.2"/></g><g transform="translate(-97,-590) scale(1,1)"><path fill="#C0C0C0" stroke="none" d="M 1183 657 L 1193 647 L 1454 647 L 1444 657" opacity="0.2"/></g><g transform="translate(-97,-590) scale(1,1)"><path fill="#C0C0C0" stroke="none" d="M 1454 647 L 1444 657 L 1444 982 L 1454 972" opacity="0.2"/></g><g transform="translate(-97,-590) scale(1,1)"><path fill="#ffffff" stroke="none" d="M 1176 650 L 1437 650 L 1437 975 L 1176 975"/></g><g transform="translate(-97,-590) scale(1,1)"><path fill="#ffffff" stroke="none" d="M 1176 650 L 1186 640 L 1447 640 L 1437 650"/></g><g transform="translate(-97,-590) scale(1,1)"><path fill="#ffffff" stroke="none" d="M 1447 640 L 1437 650 L 1437 975 L 1447 965"/></g><g transform="translate(-97,-590) scale(1,1)"><path fill="none" stroke="#000000" d="M 1176 650 L 1437 650 L 1437 975 L 1176 975 L 1176 650" stroke-miterlimit="10"/></g><g transform="translate(-97,-590) scale(1,1)"><path fill="none" stroke="#000000" d="M 1176 650 L 1186 640 L 1447 640 L 1437 650 L 1176 650" stroke-miterlimit="10"/></g><g transform="translate(-97,-590) scale(1,1)"><path fill="none" stroke="#000000" d="M 1447 640 L 1437 650 L 1437 975 L 1447 965 L 1447 640" stroke-miterlimit="10"/></g><g transform="translate(-97,-590) scale(1,1)"><g><path fill="none" stroke="none"/><text fill="#000000" stroke="none" font-family="Arial" font-size="13px" font-style="normal" font-weight="normal" text-decoration="none" x="1255.3173828125" y="667.5">«Ubuntu 16.04.1»</text></g></g><g transform="translate(-97,-590) scale(1,1)"><g><path fill="none" stroke="none"/><text fill="#000000" stroke="none" font-family="Arial" font-size="13px" font-style="normal" font-weight="bold" text-decoration="none" x="1282.7900390625" y="682.5">NotifLab</text></g></g><g transform="translate(-97,-590) scale(1,1)"><path fill="#C0C0C0" stroke="none" d="M 1199 849 L 1420 849 L 1420 966 L 1199 966" opacity="0.2"/></g><g transform="translate(-97,-590) scale(1,1)"><path fill="#C0C0C0" stroke="none" d="M 1199 849 L 1209 839 L 1430 839 L 1420 849" opacity="0.2"/></g><g transform="translate(-97,-590) scale(1,1)"><path fill="#C0C0C0" stroke="none" d="M 1430 839 L 1420 849 L 1420 966 L 1430 956" opacity="0.2"/></g><g transform="translate(-97,-590) scale(1,1)"><path fill="#ffffff" stroke="none" d="M 1192 842 L 1413 842 L 1413 959 L 1192 959"/></g><g transform="translate(-97,-590) scale(1,1)"><path fill="#ffffff" stroke="none" d="M 1192 842 L 1202 832 L 1423 832 L 1413 842"/></g><g transform="translate(-97,-590) scale(1,1)"><path fill="#ffffff" stroke="none" d="M 1423 832 L 1413 842 L 1413 959 L 1423 949"/></g><g transform="translate(-97,-590) scale(1,1)"><path fill="none" stroke="#000000" d="M 1192 842 L 1413 842 L 1413 959 L 1192 959 L 1192 842" stroke-miterlimit="10"/></g><g transform="translate(-97,-590) scale(1,1)"><path fill="none" stroke="#000000" d="M 1192 842 L 1202 832 L 1423 832 L 1413 842 L 1192 842" stroke-miterlimit="10"/></g><g transform="translate(-97,-590) scale(1,1)"><path fill="none" stroke="#000000" d="M 1423 832 L 1413 842 L 1413 959 L 1423 949 L 1423 832" stroke-miterlimit="10"/></g><g transform="translate(-97,-590) scale(1,1)"><g><path fill="none" stroke="none"/><text fill="#000000" stroke="none" font-family="Arial" font-size="13px" font-style="normal" font-weight="normal" text-decoration="none" x="1269.030517578125" y="859.5">«container»</text></g></g><g transform="translate(-97,-590) scale(1,1)"><g><path fill="none" stroke="none"/><text fill="#000000" stroke="none" font-family="Arial" font-size="13px" font-style="normal" font-weight="bold" text-decoration="none" x="1269.0400390625" y="874.5">notif_server</text></g></g><g transform="translate(-97,-590) scale(1,1)"><path fill="#C0C0C0" stroke="none" d="M 1199 705 L 1420 705 L 1420 822 L 1199 822" opacity="0.2"/></g><g transform="translate(-97,-590) scale(1,1)"><path fill="#C0C0C0" stroke="none" d="M 1199 705 L 1209 695 L 1430 695 L 1420 705" opacity="0.2"/></g><g transform="translate(-97,-590) scale(1,1)"><path fill="#C0C0C0" stroke="none" d="M 1430 695 L 1420 705 L 1420 822 L 1430 812" opacity="0.2"/></g><g transform="translate(-97,-590) scale(1,1)"><path fill="#ffffff" stroke="none" d="M 1192 698 L 1413 698 L 1413 815 L 1192 815"/></g><g transform="translate(-97,-590) scale(1,1)"><path fill="#ffffff" stroke="none" d="M 1192 698 L 1202 688 L 1423 688 L 1413 698"/></g><g transform="translate(-97,-590) scale(1,1)"><path fill="#ffffff" stroke="none" d="M 1423 688 L 1413 698 L 1413 815 L 1423 805"/></g><g transform="translate(-97,-590) scale(1,1)"><path fill="none" stroke="#000000" d="M 1192 698 L 1413 698 L 1413 815 L 1192 815 L 1192 698" stroke-miterlimit="10"/></g><g transform="translate(-97,-590) scale(1,1)"><path fill="none" stroke="#000000" d="M 1192 698 L 1202 688 L 1423 688 L 1413 698 L 1192 698" stroke-miterlimit="10"/></g><g transform="translate(-97,-590) scale(1,1)"><path fill="none" stroke="#000000" d="M 1423 688 L 1413 698 L 1413 815 L 1423 805 L 1423 688" stroke-miterlimit="10"/></g><g transform="translate(-97,-590) scale(1,1)"><g><path fill="none" stroke="none"/><text fill="#000000" stroke="none" font-family="Arial" font-size="13px" font-style="normal" font-weight="normal" text-decoration="none" x="1269.030517578125" y="715.5">«container»</text></g></g><g transform="translate(-97,-590) scale(1,1)"><g><path fill="none" stroke="none"/><text fill="#000000" stroke="none" font-family="Arial" font-size="13px" font-style="normal" font-weight="bold" text-decoration="none" x="1267.23095703125" y="730.5">push_server</text></g></g><g transform="translate(-97,-590) scale(1,1)"><rect fill="#C0C0C0" stroke="none" x="1241" y="903" width="149.76806640625" height="44" opacity="0.2"/></g><g transform="translate(-97,-590) scale(1,1)"><rect fill="#ebd8ff" stroke="none" x="1234" y="896" width="149.76806640625" height="44"/></g><g transform="translate(-97,-590) scale(1,1)"><path fill="none" stroke="#000000" d="M 1234 896 L 1383.76806640625 896 L 1383.76806640625 940 L 1234 940 L 1234 896 Z Z" stroke-miterlimit="10"/></g><g transform="translate(-97,-590) scale(1,1)"><rect fill="#ebd8ff" stroke="none" x="1224" y="903" width="20" height="10"/></g><g transform="translate(-97,-590) scale(1,1)"><path fill="none" stroke="#000000" d="M 1224 903 L 1244 903 L 1244 913 L 1224 913 L 1224 903 Z Z" stroke-miterlimit="10"/></g><g transform="translate(-97,-590) scale(1,1)"><rect fill="#ebd8ff" stroke="none" x="1224" y="923" width="20" height="10"/></g><g transform="translate(-97,-590) scale(1,1)"><path fill="none" stroke="#000000" d="M 1224 923 L 1244 923 L 1244 933 L 1224 933 L 1224 923 Z Z" stroke-miterlimit="10"/></g><g transform="translate(-97,-590) scale(1,1)"><g><path fill="none" stroke="none"/><text fill="#000000" stroke="none" font-family="Arial" font-size="13px" font-style="normal" font-weight="normal" text-decoration="none" x="1299.430419921875" y="913.5">«jar»</text></g></g><g transform="translate(-97,-590) scale(1,1)"><g><path fill="none" stroke="none"/><text fill="#000000" stroke="none" font-family="Arial" font-size="13px" font-style="normal" font-weight="bold" text-decoration="none" x="1253.908203125" y="928.5">notificationserver 1.0</text></g></g><g transform="translate(-97,-590) scale(1,1)"><rect fill="#C0C0C0" stroke="none" x="1225" y="759" width="180.82080078125" height="44" opacity="0.2"/></g><g transform="translate(-97,-590) scale(1,1)"><rect fill="#ebd8ff" stroke="none" x="1218" y="752" width="180.82080078125" height="44"/></g><g transform="translate(-97,-590) scale(1,1)"><path fill="none" stroke="#000000" d="M 1218 752 L 1398.82080078125 752 L 1398.82080078125 796 L 1218 796 L 1218 752 Z Z" stroke-miterlimit="10"/></g><g transform="translate(-97,-590) scale(1,1)"><rect fill="#ebd8ff" stroke="none" x="1208" y="759" width="20" height="10"/></g><g transform="translate(-97,-590) scale(1,1)"><path fill="none" stroke="#000000" d="M 1208 759 L 1228 759 L 1228 769 L 1208 769 L 1208 759 Z Z" stroke-miterlimit="10"/></g><g transform="translate(-97,-590) scale(1,1)"><rect fill="#ebd8ff" stroke="none" x="1208" y="779" width="20" height="10"/></g><g transform="translate(-97,-590) scale(1,1)"><path fill="none" stroke="#000000" d="M 1208 779 L 1228 779 L 1228 789 L 1208 789 L 1208 779 Z Z" stroke-miterlimit="10"/></g><g transform="translate(-97,-590) scale(1,1)"><g><path fill="none" stroke="none"/><text fill="#000000" stroke="none" font-family="Arial" font-size="13px" font-style="normal" font-weight="normal" text-decoration="none" x="1298.956787109375" y="769.5">«jar»</text></g></g><g transform="translate(-97,-590) scale(1,1)"><g><path fill="none" stroke="none"/><text fill="#000000" stroke="none" font-family="Arial" font-size="13px" font-style="normal" font-weight="bold" text-decoration="none" x="1239.339599609375" y="784.5">notificationpushserver 1.0</text></g></g><g transform="translate(-97,-590) scale(1,1)"><path fill="#C0C0C0" stroke="none" d="M 1639 761 L 1804 761 L 1804 886 L 1639 886" opacity="0.2"/></g><g transform="translate(-97,-590) scale(1,1)"><path fill="#C0C0C0" stroke="none" d="M 1639 761 L 1649 751 L 1814 751 L 1804 761" opacity="0.2"/></g><g transform="translate(-97,-590) scale(1,1)"><path fill="#C0C0C0" stroke="none" d="M 1814 751 L 1804 761 L 1804 886 L 1814 876" opacity="0.2"/></g><g transform="translate(-97,-590) scale(1,1)"><path fill="#ffffff" stroke="none" d="M 1632 754 L 1797 754 L 1797 879 L 1632 879"/></g><g transform="translate(-97,-590) scale(1,1)"><path fill="#ffffff" stroke="none" d="M 1632 754 L 1642 744 L 1807 744 L 1797 754"/></g><g transform="translate(-97,-590) scale(1,1)"><path fill="#ffffff" stroke="none" d="M 1807 744 L 1797 754 L 1797 879 L 1807 869"/></g><g transform="translate(-97,-590) scale(1,1)"><path fill="none" stroke="#000000" d="M 1632 754 L 1797 754 L 1797 879 L 1632 879 L 1632 754" stroke-miterlimit="10"/></g><g transform="translate(-97,-590) scale(1,1)"><path fill="none" stroke="#000000" d="M 1632 754 L 1642 744 L 1807 744 L 1797 754 L 1632 754" stroke-miterlimit="10"/></g><g transform="translate(-97,-590) scale(1,1)"><path fill="none" stroke="#000000" d="M 1807 744 L 1797 754 L 1797 879 L 1807 869 L 1807 744" stroke-miterlimit="10"/></g><g transform="translate(-97,-590) scale(1,1)"><g><path fill="none" stroke="none"/><text fill="#000000" stroke="none" font-family="Arial" font-size="13px" font-style="normal" font-weight="normal" text-decoration="none" x="1663.3173828125" y="771.5">«Ubuntu 16.04.1»</text></g></g><g transform="translate(-97,-590) scale(1,1)"><g><path fill="none" stroke="none"/><text fill="#000000" stroke="none" font-family="Arial" font-size="13px" font-style="normal" font-weight="bold" text-decoration="none" x="1681.411376953125" y="786.5">MomServer</text></g></g><g transform="translate(-97,-590) scale(1,1)"><rect fill="#C0C0C0" stroke="none" x="1665" y="815" width="120.13720703125" height="44" opacity="0.2"/></g><g transform="translate(-97,-590) scale(1,1)"><rect fill="#ffffff" stroke="none" x="1658" y="808" width="120.13720703125" height="44"/></g><g transform="translate(-97,-590) scale(1,1)"><path fill="none" stroke="#000000" d="M 1658 808 L 1778.13720703125 808 L 1778.13720703125 852 L 1658 852 L 1658 808 Z Z" stroke-miterlimit="10"/></g><g transform="translate(-97,-590) scale(1,1)"><rect fill="#ffffff" stroke="none" x="1648" y="815" width="20" height="10"/></g><g transform="translate(-97,-590) scale(1,1)"><path fill="none" stroke="#000000" d="M 1648 815 L 1668 815 L 1668 825 L 1648 825 L 1648 815 Z Z" stroke-miterlimit="10"/></g><g transform="translate(-97,-590) scale(1,1)"><rect fill="#ffffff" stroke="none" x="1648" y="835" width="20" height="10"/></g><g transform="translate(-97,-590) scale(1,1)"><path fill="none" stroke="#000000" d="M 1648 835 L 1668 835 L 1668 845 L 1648 845 L 1648 835 Z Z" stroke-miterlimit="10"/></g><g transform="translate(-97,-590) scale(1,1)"><g><path fill="none" stroke="none"/><text fill="#000000" stroke="none" font-family="Arial" font-size="13px" font-style="normal" font-weight="normal" text-decoration="none" x="1697.779541015625" y="825.5">«server»</text></g></g><g transform="translate(-97,-590) scale(1,1)"><g><path fill="none" stroke="none"/><text fill="#000000" stroke="none" font-family="Arial" font-size="13px" font-style="normal" font-weight="bold" text-decoration="none" x="1673.931396484375" y="840.5">RabbitMQ 3.6.14</text></g></g><g transform="translate(-97,-590) scale(1,1)"><path fill="#C0C0C0" stroke="none" d="M 1534.7099609375 826.5 C 1534.7099609375 820.1487248 1539.8586857375 815 1546.2099609375 815 C 1552.5612361375 815 1557.7099609375 820.1487248 1557.7099609375 826.5 C 1557.7099609375 832.8512752 1552.5612361375 838 1546.2099609375 838 C 1539.8586857375 838 1534.7099609375 832.8512752 1534.7099609375 826.5 Z" opacity="0.2"/></g><g transform="translate(-97,-590) scale(1,1)"><path fill="none" stroke="#000000" d="M 1539 830.5 A 11.5 11.5 0 0 1 1539 807.5" stroke-miterlimit="10"/></g><g transform="translate(-97,-590) scale(1,1)"><path fill="none" stroke="#000000" d="M 1527.905216055766 822.0258501666093 A 11.5 11.5 0 0 1 1550.094783944234 815.9741498333907" stroke-miterlimit="10"/></g><g transform="translate(-97,-590) scale(1,1)"><path fill="#ffffff" stroke="none" d="M 1530.7099609375 819.5 C 1530.7099609375 814.8055792 1534.5155401375 811 1539.2099609375 811 C 1543.9043817375 811 1547.7099609375 814.8055792 1547.7099609375 819.5 C 1547.7099609375 824.1944208 1543.9043817375 828 1539.2099609375 828 C 1534.5155401375 828 1530.7099609375 824.1944208 1530.7099609375 819.5 Z"/></g><g transform="translate(-97,-590) scale(1,1)"><path fill="none" stroke="#000000" d="M 1530.7099609375 819.5 C 1530.7099609375 814.8055792 1534.5155401375 811 1539.2099609375 811 C 1543.9043817375 811 1547.7099609375 814.8055792 1547.7099609375 819.5 C 1547.7099609375 824.1944208 1543.9043817375 828 1539.2099609375 828 C 1534.5155401375 828 1530.7099609375 824.1944208 1530.7099609375 819.5 Z" stroke-miterlimit="10"/></g><g transform="translate(-97,-590) scale(1,1)"><g><path fill="none" stroke="none"/><text fill="#000000" stroke="none" font-family="Arial" font-size="13px" font-style="normal" font-weight="bold" text-decoration="none" x="1520.068603515625" y="850.5">AMPQ</text></g></g><g transform="translate(-97,-590) scale(1,1)"><path fill="none" stroke="#000000" d="M 1632 819 L 1550.7099609375 819" stroke-miterlimit="10"/></g><g transform="translate(-97,-590) scale(1,1)"><g><path fill="none" stroke="none"/><text fill="#000000" stroke="none" font-family="Arial" font-size="13px" font-style="normal" font-weight="normal" text-decoration="none" x="1561.5" y="840.5">+tcp:5673</text></g></g><g transform="translate(-97,-590) scale(1,1)"><path fill="none" stroke="#000000" d="M 1424 928 L 1464 928 L 1464 819 L 1527.7099609375 819" stroke-miterlimit="10"/></g><g transform="translate(-97,-590) scale(1,1)"><path fill="none" stroke="#000000" d="M 1424 744 L 1536 744 L 1536 808" stroke-miterlimit="10"/></g><g transform="translate(-97,-590) scale(1,1)"><path fill="#C0C0C0" stroke="none" d="M 1078.7099609375 898.5 C 1078.7099609375 892.1487248 1083.8586857375 887 1090.2099609375 887 C 1096.5612361375 887 1101.7099609375 892.1487248 1101.7099609375 898.5 C 1101.7099609375 904.8512752 1096.5612361375 910 1090.2099609375 910 C 1083.8586857375 910 1078.7099609375 904.8512752 1078.7099609375 898.5 Z" opacity="0.2"/></g><g transform="translate(-97,-590) scale(1,1)"><path fill="none" stroke="#000000" d="M 1071.905216055766 894.0258501666093 A 11.5 11.5 0 0 1 1094.094783944234 887.9741498333907" stroke-miterlimit="10"/></g><g transform="translate(-97,-590) scale(1,1)"><path fill="#ffffff" stroke="none" d="M 1074.7099609375 891.5 C 1074.7099609375 886.8055792 1078.5155401375 883 1083.2099609375 883 C 1087.9043817375 883 1091.7099609375 886.8055792 1091.7099609375 891.5 C 1091.7099609375 896.1944208 1087.9043817375 900 1083.2099609375 900 C 1078.5155401375 900 1074.7099609375 896.1944208 1074.7099609375 891.5 Z"/></g><g transform="translate(-97,-590) scale(1,1)"><path fill="none" stroke="#000000" d="M 1074.7099609375 891.5 C 1074.7099609375 886.8055792 1078.5155401375 883 1083.2099609375 883 C 1087.9043817375 883 1091.7099609375 886.8055792 1091.7099609375 891.5 C 1091.7099609375 896.1944208 1087.9043817375 900 1083.2099609375 900 C 1078.5155401375 900 1074.7099609375 896.1944208 1074.7099609375 891.5 Z" stroke-miterlimit="10"/></g><g transform="translate(-97,-590) scale(1,1)"><g><path fill="none" stroke="none"/><text fill="#000000" stroke="none" font-family="Arial" font-size="13px" font-style="normal" font-weight="bold" text-decoration="none" x="1065.87451171875" y="922.5">REST</text></g></g><g transform="translate(-97,-590) scale(1,1)"><path fill="none" stroke="#000000" d="M 1192 891 L 1094.7099609375 891" stroke-miterlimit="10"/></g><g transform="translate(-97,-590) scale(1,1)"><g><path fill="none" stroke="none"/><text fill="#000000" stroke="none" font-family="Arial" font-size="13px" font-style="normal" font-weight="normal" text-decoration="none" x="1111.5" y="912.5">+http:8080</text></g></g><g transform="translate(-97,-590) scale(1,1)"><path fill="none" stroke="#000000" d="M 973 808 L 1080 808 L 1080 880" stroke-miterlimit="10"/></g><g transform="translate(-97,-590) scale(1,1)"><path fill="#C0C0C0" stroke="none" d="M 1070.7099609375 722.5 C 1070.7099609375 716.1487248 1075.8586857375 711 1082.2099609375 711 C 1088.5612361375 711 1093.7099609375 716.1487248 1093.7099609375 722.5 C 1093.7099609375 728.8512752 1088.5612361375 734 1082.2099609375 734 C 1075.8586857375 734 1070.7099609375 728.8512752 1070.7099609375 722.5 Z" opacity="0.2"/></g><g transform="translate(-97,-590) scale(1,1)"><path fill="none" stroke="#000000" d="M 1063.905216055766 718.0258501666093 A 11.5 11.5 0 0 1 1086.094783944234 711.9741498333907" stroke-miterlimit="10"/></g><g transform="translate(-97,-590) scale(1,1)"><path fill="#ffffff" stroke="none" d="M 1066.7099609375 715.5 C 1066.7099609375 710.8055792 1070.5155401375 707 1075.2099609375 707 C 1079.9043817375 707 1083.7099609375 710.8055792 1083.7099609375 715.5 C 1083.7099609375 720.1944208 1079.9043817375 724 1075.2099609375 724 C 1070.5155401375 724 1066.7099609375 720.1944208 1066.7099609375 715.5 Z"/></g><g transform="translate(-97,-590) scale(1,1)"><path fill="none" stroke="#000000" d="M 1066.7099609375 715.5 C 1066.7099609375 710.8055792 1070.5155401375 707 1075.2099609375 707 C 1079.9043817375 707 1083.7099609375 710.8055792 1083.7099609375 715.5 C 1083.7099609375 720.1944208 1079.9043817375 724 1075.2099609375 724 C 1070.5155401375 724 1066.7099609375 720.1944208 1066.7099609375 715.5 Z" stroke-miterlimit="10"/></g><g transform="translate(-97,-590) scale(1,1)"><g><path fill="none" stroke="none"/><text fill="#000000" stroke="none" font-family="Arial" font-size="13px" font-style="normal" font-weight="bold" text-decoration="none" x="1062.2099609375" y="746.5">TCP</text></g></g><g transform="translate(-97,-590) scale(1,1)"><path fill="none" stroke="#000000" d="M 1192 715 L 1086.7099609375 715" stroke-miterlimit="10"/></g><g transform="translate(-97,-590) scale(1,1)"><g><path fill="none" stroke="none"/><text fill="#000000" stroke="none" font-family="Arial" font-size="13px" font-style="normal" font-weight="normal" text-decoration="none" x="1109.5" y="736.5">+tcp:9090</text></g></g><g transform="translate(-97,-590) scale(1,1)"><path fill="none" stroke="#000000" d="M 184 644 L 184 600 L 1072 600 L 1072 704" stroke-miterlimit="10"/></g></g></svg>