<svg version="1.1" xmlns="http://www.w3.org/2000/svg" xmlns:xlink="http://www.w3.org/1999/xlink" width="1721" height="1068"><defs/><g><g transform="translate(-97,-590) scale(1,1)"><path fill="#C0C0C0" stroke="none" d="M 780 661 L 1017 661 L 1017 1150 L 780 1150" opacity="0.2"/></g><g transform="translate(-97,-590) scale(1,1)"><path fill="#C0C0C0" stroke="none" d="M 780 661 L 790 651 L 1027 651 L 1017 661" opacity="0.2"/></g><g transform="translate(-97,-590) scale(1,1)"><path fill="#C0C0C0" stroke="none" d="M 1027 651 L 1017 661 L 1017 1150 L 1027 1140" opacity="0.2"/></g><g transform="translate(-97,-590) scale(1,1)"><path fill="#ffffff" stroke="none" d="M 773 654 L 1010 654 L 1010 1143 L 773 1143"/></g><g transform="translate(-97,-590) scale(1,1)"><path fill="#ffffff" stroke="none" d="M 773 654 L 783 644 L 1020 644 L 1010 654"/></g><g transform="translate(-97,-590) scale(1,1)"><path fill="#ffffff" stroke="none" d="M 1020 644 L 1010 654 L 1010 1143 L 1020 1133"/></g><g transform="translate(-97,-590) scale(1,1)"><path fill="none" stroke="#000000" d="M 773 654 L 1010 654 L 1010 1143 L 773 1143 L 773 654" stroke-miterlimit="10"/></g><g transform="translate(-97,-590) scale(1,1)"><path fill="none" stroke="#000000" d="M 773 654 L 783 644 L 1020 644 L 1010 654 L 773 654" stroke-miterlimit="10"/></g><g transform="translate(-97,-590) scale(1,1)"><path fill="none" stroke="#000000" d="M 1020 644 L 1010 654 L 1010 1143 L 1020 1133 L 1020 644" stroke-miterlimit="10"/></g><g transform="translate(-97,-590) scale(1,1)"><g><path fill="none" stroke="none"/><text fill="#000000" stroke="none" font-family="Arial" font-size="13px" font-style="normal" font-weight="normal" text-decoration="none" x="840.3173828125" y="671.5">«Ubuntu 16.04.1»</text></g></g><g transform="translate(-97,-590) scale(1,1)"><g><path fill="none" stroke="none"/><text fill="#000000" stroke="none" font-family="Arial" font-size="13px" font-style="normal" font-weight="bold" text-decoration="none" x="857.31005859375" y="686.5">EsiBankLab</text></g></g><g transform="translate(-97,-590) scale(1,1)"><path fill="#C0C0C0" stroke="none" d="M 820 741 L 969 741 L 969 858 L 820 858" opacity="0.2"/></g><g transform="translate(-97,-590) scale(1,1)"><path fill="#C0C0C0" stroke="none" d="M 820 741 L 830 731 L 979 731 L 969 741" opacity="0.2"/></g><g transform="translate(-97,-590) scale(1,1)"><path fill="#C0C0C0" stroke="none" d="M 979 731 L 969 741 L 969 858 L 979 848" opacity="0.2"/></g><g transform="translate(-97,-590) scale(1,1)"><path fill="#ffffff" stroke="none" d="M 813 734 L 962 734 L 962 851 L 813 851"/></g><g transform="translate(-97,-590) scale(1,1)"><path fill="#ffffff" stroke="none" d="M 813 734 L 823 724 L 972 724 L 962 734"/></g><g transform="translate(-97,-590) scale(1,1)"><path fill="#ffffff" stroke="none" d="M 972 724 L 962 734 L 962 851 L 972 841"/></g><g transform="translate(-97,-590) scale(1,1)"><path fill="none" stroke="#000000" d="M 813 734 L 962 734 L 962 851 L 813 851 L 813 734" stroke-miterlimit="10"/></g><g transform="translate(-97,-590) scale(1,1)"><path fill="none" stroke="#000000" d="M 813 734 L 823 724 L 972 724 L 962 734 L 813 734" stroke-miterlimit="10"/></g><g transform="translate(-97,-590) scale(1,1)"><path fill="none" stroke="#000000" d="M 972 724 L 962 734 L 962 851 L 972 841 L 972 724" stroke-miterlimit="10"/></g><g transform="translate(-97,-590) scale(1,1)"><g><path fill="none" stroke="none"/><text fill="#000000" stroke="none" font-family="Arial" font-size="13px" font-style="normal" font-weight="normal" text-decoration="none" x="854.030517578125" y="751.5">«container»</text></g></g><g transform="translate(-97,-590) scale(1,1)"><g><path fill="none" stroke="none"/><text fill="#000000" stroke="none" font-family="Arial" font-size="13px" font-style="normal" font-weight="bold" text-decoration="none" x="857.655029296875" y="766.5">securerest</text></g></g><g transform="translate(-97,-590) scale(1,1)"><path fill="#C0C0C0" stroke="none" d="M 820 1017 L 969 1017 L 969 1134 L 820 1134" opacity="0.2"/></g><g transform="translate(-97,-590) scale(1,1)"><path fill="#C0C0C0" stroke="none" d="M 820 1017 L 830 1007 L 979 1007 L 969 1017" opacity="0.2"/></g><g transform="translate(-97,-590) scale(1,1)"><path fill="#C0C0C0" stroke="none" d="M 979 1007 L 969 1017 L 969 1134 L 979 1124" opacity="0.2"/></g><g transform="translate(-97,-590) scale(1,1)"><path fill="#ffffff" stroke="none" d="M 813 1010 L 962 1010 L 962 1127 L 813 1127"/></g><g transform="translate(-97,-590) scale(1,1)"><path fill="#ffffff" stroke="none" d="M 813 1010 L 823 1000 L 972 1000 L 962 1010"/></g><g transform="translate(-97,-590) scale(1,1)"><path fill="#ffffff" stroke="none" d="M 972 1000 L 962 1010 L 962 1127 L 972 1117"/></g><g transform="translate(-97,-590) scale(1,1)"><path fill="none" stroke="#000000" d="M 813 1010 L 962 1010 L 962 1127 L 813 1127 L 813 1010" stroke-miterlimit="10"/></g><g transform="translate(-97,-590) scale(1,1)"><path fill="none" stroke="#000000" d="M 813 1010 L 823 1000 L 972 1000 L 962 1010 L 813 1010" stroke-miterlimit="10"/></g><g transform="translate(-97,-590) scale(1,1)"><path fill="none" stroke="#000000" d="M 972 1000 L 962 1010 L 962 1127 L 972 1117 L 972 1000" stroke-miterlimit="10"/></g><g transform="translate(-97,-590) scale(1,1)"><g><path fill="none" stroke="none"/><text fill="#000000" stroke="none" font-family="Arial" font-size="13px" font-style="normal" font-weight="normal" text-decoration="none" x="854.030517578125" y="1027.5">«container»</text></g></g><g transform="translate(-97,-590) scale(1,1)"><g><path fill="none" stroke="none"/><text fill="#000000" stroke="none" font-family="Arial" font-size="13px" font-style="normal" font-weight="bold" text-decoration="none" x="855.119140625" y="1042.5">dataaccess</text></g></g><g transform="translate(-97,-590) scale(1,1)"><rect fill="#C0C0C0" stroke="none" x="846" y="795" width="111.5107421875" height="44" opacity="0.2"/></g><g transform="translate(-97,-590) scale(1,1)"><rect fill="#ebd8ff" stroke="none" x="839" y="788" width="111.5107421875" height="44"/></g><g transform="translate(-97,-590) scale(1,1)"><path fill="none" stroke="#000000" d="M 839 788 L 950.5107421875 788 L 950.5107421875 832 L 839 832 L 839 788 Z Z" stroke-miterlimit="10"/></g><g transform="translate(-97,-590) scale(1,1)"><rect fill="#ebd8ff" stroke="none" x="829" y="795" width="20" height="10"/></g><g transform="translate(-97,-590) scale(1,1)"><path fill="none" stroke="#000000" d="M 829 795 L 849 795 L 849 805 L 829 805 L 829 795 Z Z" stroke-miterlimit="10"/></g><g transform="translate(-97,-590) scale(1,1)"><rect fill="#ebd8ff" stroke="none" x="829" y="815" width="20" height="10"/></g><g transform="translate(-97,-590) scale(1,1)"><path fill="none" stroke="#000000" d="M 829 815 L 849 815 L 849 825 L 829 825 L 829 815 Z Z" stroke-miterlimit="10"/></g><g transform="translate(-97,-590) scale(1,1)"><g><path fill="none" stroke="none"/><text fill="#000000" stroke="none" font-family="Arial" font-size="13px" font-style="normal" font-weight="normal" text-decoration="none" x="885.3017578125" y="805.5">«jar»</text></g></g><g transform="translate(-97,-590) scale(1,1)"><g><path fill="none" stroke="none"/><text fill="#000000" stroke="none" font-family="Arial" font-size="13px" font-style="normal" font-weight="bold" text-decoration="none" x="858.568603515625" y="820.5">securerest 1.0</text></g></g><g transform="translate(-97,-590) scale(1,1)"><rect fill="#C0C0C0" stroke="none" x="846" y="1063" width="110.79345703125" height="44" opacity="0.2"/></g><g transform="translate(-97,-590) scale(1,1)"><rect fill="#ebd8ff" stroke="none" x="839" y="1056" width="110.79345703125" height="44"/></g><g transform="translate(-97,-590) scale(1,1)"><path fill="none" stroke="#000000" d="M 839 1056 L 949.79345703125 1056 L 949.79345703125 1100 L 839 1100 L 839 1056 Z Z" stroke-miterlimit="10"/></g><g transform="translate(-97,-590) scale(1,1)"><rect fill="#ebd8ff" stroke="none" x="829" y="1063" width="20" height="10"/></g><g transform="translate(-97,-590) scale(1,1)"><path fill="none" stroke="#000000" d="M 829 1063 L 849 1063 L 849 1073 L 829 1073 L 829 1063 Z Z" stroke-miterlimit="10"/></g><g transform="translate(-97,-590) scale(1,1)"><rect fill="#ebd8ff" stroke="none" x="829" y="1083" width="20" height="10"/></g><g transform="translate(-97,-590) scale(1,1)"><path fill="none" stroke="#000000" d="M 829 1083 L 849 1083 L 849 1093 L 829 1093 L 829 1083 Z Z" stroke-miterlimit="10"/></g><g transform="translate(-97,-590) scale(1,1)"><g><path fill="none" stroke="none"/><text fill="#000000" stroke="none" font-family="Arial" font-size="13px" font-style="normal" font-weight="normal" text-decoration="none" x="884.943115234375" y="1073.5">«jar»</text></g></g><g transform="translate(-97,-590) scale(1,1)"><g><path fill="none" stroke="none"/><text fill="#000000" stroke="none" font-family="Arial" font-size="13px" font-style="normal" font-weight="bold" text-decoration="none" x="855.674072265625" y="1088.5">dataaccess 1.0</text></g></g><g transform="translate(-97,-590) scale(1,1)"><path fill="#C0C0C0" stroke="none" d="M 1215 1025 L 1380 1025 L 1380 1142 L 1215 1142" opacity="0.2"/></g><g transform="translate(-97,-590) scale(1,1)"><path fill="#C0C0C0" stroke="none" d="M 1215 1025 L 1225 1015 L 1390 1015 L 1380 1025" opacity="0.2"/></g><g transform="translate(-97,-590) scale(1,1)"><path fill="#C0C0C0" stroke="none" d="M 1390 1015 L 1380 1025 L 1380 1142 L 1390 1132" opacity="0.2"/></g><g transform="translate(-97,-590) scale(1,1)"><path fill="#ffffff" stroke="none" d="M 1208 1018 L 1373 1018 L 1373 1135 L 1208 1135"/></g><g transform="translate(-97,-590) scale(1,1)"><path fill="#ffffff" stroke="none" d="M 1208 1018 L 1218 1008 L 1383 1008 L 1373 1018"/></g><g transform="translate(-97,-590) scale(1,1)"><path fill="#ffffff" stroke="none" d="M 1383 1008 L 1373 1018 L 1373 1135 L 1383 1125"/></g><g transform="translate(-97,-590) scale(1,1)"><path fill="none" stroke="#000000" d="M 1208 1018 L 1373 1018 L 1373 1135 L 1208 1135 L 1208 1018" stroke-miterlimit="10"/></g><g transform="translate(-97,-590) scale(1,1)"><path fill="none" stroke="#000000" d="M 1208 1018 L 1218 1008 L 1383 1008 L 1373 1018 L 1208 1018" stroke-miterlimit="10"/></g><g transform="translate(-97,-590) scale(1,1)"><path fill="none" stroke="#000000" d="M 1383 1008 L 1373 1018 L 1373 1135 L 1383 1125 L 1383 1008" stroke-miterlimit="10"/></g><g transform="translate(-97,-590) scale(1,1)"><g><path fill="none" stroke="none"/><text fill="#000000" stroke="none" font-family="Arial" font-size="13px" font-style="normal" font-weight="normal" text-decoration="none" x="1239.3173828125" y="1035.5">«Ubuntu 16.04.1»</text></g></g><g transform="translate(-97,-590) scale(1,1)"><g><path fill="none" stroke="none"/><text fill="#000000" stroke="none" font-family="Arial" font-size="13px" font-style="normal" font-weight="bold" text-decoration="none" x="1245.830078125" y="1050.5">Prod_Database</text></g></g><g transform="translate(-97,-590) scale(1,1)"><rect fill="#C0C0C0" stroke="none" x="1249" y="1071" width="107.14990234375" height="44" opacity="0.2"/></g><g transform="translate(-97,-590) scale(1,1)"><rect fill="#ffffff" stroke="none" x="1242" y="1064" width="107.14990234375" height="44"/></g><g transform="translate(-97,-590) scale(1,1)"><path fill="none" stroke="#000000" d="M 1242 1064 L 1349.14990234375 1064 L 1349.14990234375 1108 L 1242 1108 L 1242 1064 Z Z" stroke-miterlimit="10"/></g><g transform="translate(-97,-590) scale(1,1)"><rect fill="#ffffff" stroke="none" x="1232" y="1071" width="20" height="10"/></g><g transform="translate(-97,-590) scale(1,1)"><path fill="none" stroke="#000000" d="M 1232 1071 L 1252 1071 L 1252 1081 L 1232 1081 L 1232 1071 Z Z" stroke-miterlimit="10"/></g><g transform="translate(-97,-590) scale(1,1)"><rect fill="#ffffff" stroke="none" x="1232" y="1091" width="20" height="10"/></g><g transform="translate(-97,-590) scale(1,1)"><path fill="none" stroke="#000000" d="M 1232 1091 L 1252 1091 L 1252 1101 L 1232 1101 L 1232 1091 Z Z" stroke-miterlimit="10"/></g><g transform="translate(-97,-590) scale(1,1)"><g><path fill="none" stroke="none"/><text fill="#000000" stroke="none" font-family="Arial" font-size="13px" font-style="normal" font-weight="normal" text-decoration="none" x="1275.285888671875" y="1081.5">«server»</text></g></g><g transform="translate(-97,-590) scale(1,1)"><g><path fill="none" stroke="none"/><text fill="#000000" stroke="none" font-family="Arial" font-size="13px" font-style="normal" font-weight="bold" text-decoration="none" x="1257.220458984375" y="1096.5">MySQL  5.7.21</text></g></g><g transform="translate(-97,-590) scale(1,1)"><path fill="#C0C0C0" stroke="none" d="M 1118.7099609375 1074.5 C 1118.7099609375 1068.1487248 1123.8586857375 1063 1130.2099609375 1063 C 1136.5612361375 1063 1141.7099609375 1068.1487248 1141.7099609375 1074.5 C 1141.7099609375 1080.8512752 1136.5612361375 1086 1130.2099609375 1086 C 1123.8586857375 1086 1118.7099609375 1080.8512752 1118.7099609375 1074.5 Z" opacity="0.2"/></g><g transform="translate(-97,-590) scale(1,1)"><path fill="none" stroke="#000000" d="M 1123 1078.5 A 11.5 11.5 0 0 1 1123 1055.5" stroke-miterlimit="10"/></g><g transform="translate(-97,-590) scale(1,1)"><path fill="#ffffff" stroke="none" d="M 1114.7099609375 1067.5 C 1114.7099609375 1062.8055792 1118.5155401375 1059 1123.2099609375 1059 C 1127.9043817375 1059 1131.7099609375 1062.8055792 1131.7099609375 1067.5 C 1131.7099609375 1072.1944208 1127.9043817375 1076 1123.2099609375 1076 C 1118.5155401375 1076 1114.7099609375 1072.1944208 1114.7099609375 1067.5 Z"/></g><g transform="translate(-97,-590) scale(1,1)"><path fill="none" stroke="#000000" d="M 1114.7099609375 1067.5 C 1114.7099609375 1062.8055792 1118.5155401375 1059 1123.2099609375 1059 C 1127.9043817375 1059 1131.7099609375 1062.8055792 1131.7099609375 1067.5 C 1131.7099609375 1072.1944208 1127.9043817375 1076 1123.2099609375 1076 C 1118.5155401375 1076 1114.7099609375 1072.1944208 1114.7099609375 1067.5 Z" stroke-miterlimit="10"/></g><g transform="translate(-97,-590) scale(1,1)"><g><path fill="none" stroke="none"/><text fill="#000000" stroke="none" font-family="Arial" font-size="13px" font-style="normal" font-weight="bold" text-decoration="none" x="1110.2099609375" y="1098.5">TCP</text></g></g><g transform="translate(-97,-590) scale(1,1)"><path fill="none" stroke="#000000" d="M 1208 1040 L 1127 1040 L 1127 1056" stroke-miterlimit="10"/></g><g transform="translate(-97,-590) scale(1,1)"><g><path fill="none" stroke="none"/><text fill="#000000" stroke="none" font-family="Arial" font-size="13px" font-style="normal" font-weight="normal" text-decoration="none" x="1084.533203125" y="1052.5">+tcp</text></g></g><g transform="translate(-97,-590) scale(1,1)"><path fill="none" stroke="#000000" d="M 973 1067 L 1111.7099609375 1067" stroke-miterlimit="10"/></g><g transform="translate(-97,-590) scale(1,1)"><path fill="#C0C0C0" stroke="none" d="M 883.7099609375 930.5 C 883.7099609375 924.1487248 888.8586857375 919 895.2099609375 919 C 901.5612361375 919 906.7099609375 924.1487248 906.7099609375 930.5 C 906.7099609375 936.8512752 901.5612361375 942 895.2099609375 942 C 888.8586857375 942 883.7099609375 936.8512752 883.7099609375 930.5 Z" opacity="0.2"/></g><g transform="translate(-97,-590) scale(1,1)"><path fill="none" stroke="#000000" d="M 888 911.5 A 11.5 11.5 0 0 1 888 934.5" stroke-miterlimit="10"/></g><g transform="translate(-97,-590) scale(1,1)"><path fill="#ffffff" stroke="none" d="M 879.7099609375 923.5 C 879.7099609375 918.8055792 883.5155401375 915 888.2099609375 915 C 892.9043817375 915 896.7099609375 918.8055792 896.7099609375 923.5 C 896.7099609375 928.1944208 892.9043817375 932 888.2099609375 932 C 883.5155401375 932 879.7099609375 928.1944208 879.7099609375 923.5 Z"/></g><g transform="translate(-97,-590) scale(1,1)"><path fill="none" stroke="#000000" d="M 879.7099609375 923.5 C 879.7099609375 918.8055792 883.5155401375 915 888.2099609375 915 C 892.9043817375 915 896.7099609375 918.8055792 896.7099609375 923.5 C 896.7099609375 928.1944208 892.9043817375 932 888.2099609375 932 C 883.5155401375 932 879.7099609375 928.1944208 879.7099609375 923.5 Z" stroke-miterlimit="10"/></g><g transform="translate(-97,-590) scale(1,1)"><g><path fill="none" stroke="none"/><text fill="#000000" stroke="none" font-family="Arial" font-size="13px" font-style="normal" font-weight="bold" text-decoration="none" x="870.87451171875" y="954.5">REST</text></g></g><g transform="translate(-97,-590) scale(1,1)"><path fill="none" stroke="#000000" d="M 829 1000 L 829 923 L 876.7099609375 923" stroke-miterlimit="10"/></g><g transform="translate(-97,-590) scale(1,1)"><g><path fill="none" stroke="none"/><text fill="#000000" stroke="none" font-family="Arial" font-size="13px" font-style="normal" font-weight="normal" text-decoration="none" x="813.8623046875" y="914.5">+http</text></g></g><g transform="translate(-97,-590) scale(1,1)"><path fill="none" stroke="#000000" d="M 941 852 L 941 923 L 899.7099609375 923" stroke-miterlimit="10"/></g><g transform="translate(-97,-590) scale(1,1)"><path fill="#C0C0C0" stroke="none" d="M 375 681 L 604 681 L 604 1654 L 375 1654" opacity="0.2"/></g><g transform="translate(-97,-590) scale(1,1)"><path fill="#C0C0C0" stroke="none" d="M 375 681 L 385 671 L 614 671 L 604 681" opacity="0.2"/></g><g transform="translate(-97,-590) scale(1,1)"><path fill="#C0C0C0" stroke="none" d="M 614 671 L 604 681 L 604 1654 L 614 1644" opacity="0.2"/></g><g transform="translate(-97,-590) scale(1,1)"><path fill="#ffffff" stroke="none" d="M 368 674 L 597 674 L 597 1647 L 368 1647"/></g><g transform="translate(-97,-590) scale(1,1)"><path fill="#ffffff" stroke="none" d="M 368 674 L 378 664 L 607 664 L 597 674"/></g><g transform="translate(-97,-590) scale(1,1)"><path fill="#ffffff" stroke="none" d="M 607 664 L 597 674 L 597 1647 L 607 1637"/></g><g transform="translate(-97,-590) scale(1,1)"><path fill="none" stroke="#000000" d="M 368 674 L 597 674 L 597 1647 L 368 1647 L 368 674" stroke-miterlimit="10"/></g><g transform="translate(-97,-590) scale(1,1)"><path fill="none" stroke="#000000" d="M 368 674 L 378 664 L 607 664 L 597 674 L 368 674" stroke-miterlimit="10"/></g><g transform="translate(-97,-590) scale(1,1)"><path fill="none" stroke="#000000" d="M 607 664 L 597 674 L 597 1647 L 607 1637 L 607 664" stroke-miterlimit="10"/></g><g transform="translate(-97,-590) scale(1,1)"><g><path fill="none" stroke="none"/><text fill="#000000" stroke="none" font-family="Arial" font-size="13px" font-style="normal" font-weight="normal" text-decoration="none" x="437.465087890625" y="691.5">«Raspbian 4.9»</text></g></g><g transform="translate(-97,-590) scale(1,1)"><g><path fill="none" stroke="none"/><text fill="#000000" stroke="none" font-family="Arial" font-size="13px" font-style="normal" font-weight="bold" text-decoration="none" x="469.635009765625" y="706.5">DAB</text></g></g><g transform="translate(-97,-590) scale(1,1)"><rect fill="#C0C0C0" stroke="none" x="409" y="775" width="182" height="44" opacity="0.2"/></g><g transform="translate(-97,-590) scale(1,1)"><rect fill="#ffd8d8" stroke="none" x="402" y="768" width="182" height="44"/></g><g transform="translate(-97,-590) scale(1,1)"><path fill="none" stroke="#000000" d="M 402 768 L 584 768 L 584 812 L 402 812 L 402 768 Z Z" stroke-miterlimit="10"/></g><g transform="translate(-97,-590) scale(1,1)"><rect fill="#ffd8d8" stroke="none" x="392" y="775" width="20" height="10"/></g><g transform="translate(-97,-590) scale(1,1)"><path fill="none" stroke="#000000" d="M 392 775 L 412 775 L 412 785 L 392 785 L 392 775 Z Z" stroke-miterlimit="10"/></g><g transform="translate(-97,-590) scale(1,1)"><rect fill="#ffd8d8" stroke="none" x="392" y="795" width="20" height="10"/></g><g transform="translate(-97,-590) scale(1,1)"><path fill="none" stroke="#000000" d="M 392 795 L 412 795 L 412 805 L 392 805 L 392 795 Z Z" stroke-miterlimit="10"/></g><g transform="translate(-97,-590) scale(1,1)"><g><path fill="none" stroke="none"/><text fill="#000000" stroke="none" font-family="Arial" font-size="13px" font-style="normal" font-weight="normal" text-decoration="none" x="483.905029296875" y="785.5">«py»</text></g></g><g transform="translate(-97,-590) scale(1,1)"><g><path fill="none" stroke="none"/><text fill="#000000" stroke="none" font-family="Arial" font-size="13px" font-style="normal" font-weight="bold" text-decoration="none" x="461.504150390625" y="800.5">nfc_gateway</text></g></g><g transform="translate(-97,-590) scale(1,1)"><path fill="#C0C0C0" stroke="none" d="M 114 661 L 247 661 L 247 774 L 114 774" opacity="0.2"/></g><g transform="translate(-97,-590) scale(1,1)"><path fill="#C0C0C0" stroke="none" d="M 114 661 L 124 651 L 257 651 L 247 661" opacity="0.2"/></g><g transform="translate(-97,-590) scale(1,1)"><path fill="#C0C0C0" stroke="none" d="M 257 651 L 247 661 L 247 774 L 257 764" opacity="0.2"/></g><g transform="translate(-97,-590) scale(1,1)"><path fill="#ffffff" stroke="none" d="M 107 654 L 240 654 L 240 767 L 107 767"/></g><g transform="translate(-97,-590) scale(1,1)"><path fill="#ffffff" stroke="none" d="M 107 654 L 117 644 L 250 644 L 240 654"/></g><g transform="translate(-97,-590) scale(1,1)"><path fill="#ffffff" stroke="none" d="M 250 644 L 240 654 L 240 767 L 250 757"/></g><g transform="translate(-97,-590) scale(1,1)"><path fill="none" stroke="#000000" d="M 107 654 L 240 654 L 240 767 L 107 767 L 107 654" stroke-miterlimit="10"/></g><g transform="translate(-97,-590) scale(1,1)"><path fill="none" stroke="#000000" d="M 107 654 L 117 644 L 250 644 L 240 654 L 107 654" stroke-miterlimit="10"/></g><g transform="translate(-97,-590) scale(1,1)"><path fill="none" stroke="#000000" d="M 250 644 L 240 654 L 240 767 L 250 757 L 250 644" stroke-miterlimit="10"/></g><g transform="translate(-97,-590) scale(1,1)"><g><path fill="none" stroke="none"/><text fill="#000000" stroke="none" font-family="Arial" font-size="13px" font-style="normal" font-weight="normal" text-decoration="none" x="147.98095703125" y="671.5">«device»</text></g></g><g transform="translate(-97,-590) scale(1,1)"><g><path fill="none" stroke="none"/><text fill="#000000" stroke="none" font-family="Arial" font-size="13px" font-style="normal" font-weight="bold" text-decoration="none" x="151.595947265625" y="686.5">Android</text></g></g><g transform="translate(-97,-590) scale(1,1)"><rect fill="#C0C0C0" stroke="none" x="132" y="707" width="98.44091796875" height="44" opacity="0.2"/></g><g transform="translate(-97,-590) scale(1,1)"><rect fill="#ffd8d8" stroke="none" x="125" y="700" width="98.44091796875" height="44"/></g><g transform="translate(-97,-590) scale(1,1)"><path fill="none" stroke="#000000" d="M 125 700 L 223.44091796875 700 L 223.44091796875 744 L 125 744 L 125 700 Z Z" stroke-miterlimit="10"/></g><g transform="translate(-97,-590) scale(1,1)"><rect fill="#ffd8d8" stroke="none" x="115" y="707" width="20" height="10"/></g><g transform="translate(-97,-590) scale(1,1)"><path fill="none" stroke="#000000" d="M 115 707 L 135 707 L 135 717 L 115 717 L 115 707 Z Z" stroke-miterlimit="10"/></g><g transform="translate(-97,-590) scale(1,1)"><rect fill="#ffd8d8" stroke="none" x="115" y="727" width="20" height="10"/></g><g transform="translate(-97,-590) scale(1,1)"><path fill="none" stroke="#000000" d="M 115 727 L 135 727 L 135 737 L 115 737 L 115 727 Z Z" stroke-miterlimit="10"/></g><g transform="translate(-97,-590) scale(1,1)"><g><path fill="none" stroke="none"/><text fill="#000000" stroke="none" font-family="Arial" font-size="13px" font-style="normal" font-weight="normal" text-decoration="none" x="161.510498046875" y="717.5">«apk»</text></g></g><g transform="translate(-97,-590) scale(1,1)"><g><path fill="none" stroke="none"/><text fill="#000000" stroke="none" font-family="Arial" font-size="13px" font-style="normal" font-weight="bold" text-decoration="none" x="156.81640625" y="732.5">esibank</text></g></g><g transform="translate(-97,-590) scale(1,1)"><path fill="#C0C0C0" stroke="none" d="M 278.7099609375 910.5 C 278.7099609375 904.1487248 283.8586857375 899 290.2099609375 899 C 296.5612361375 899 301.7099609375 904.1487248 301.7099609375 910.5 C 301.7099609375 916.8512752 296.5612361375 922 290.2099609375 922 C 283.8586857375 922 278.7099609375 916.8512752 278.7099609375 910.5 Z" opacity="0.2"/></g><g transform="translate(-97,-590) scale(1,1)"><path fill="none" stroke="#000000" d="M 283 914.5 A 11.5 11.5 0 0 1 283 891.5" stroke-miterlimit="10"/></g><g transform="translate(-97,-590) scale(1,1)"><path fill="#ffffff" stroke="none" d="M 274.7099609375 903.5 C 274.7099609375 898.8055792 278.5155401375 895 283.2099609375 895 C 287.9043817375 895 291.7099609375 898.8055792 291.7099609375 903.5 C 291.7099609375 908.1944208 287.9043817375 912 283.2099609375 912 C 278.5155401375 912 274.7099609375 908.1944208 274.7099609375 903.5 Z"/></g><g transform="translate(-97,-590) scale(1,1)"><path fill="none" stroke="#000000" d="M 274.7099609375 903.5 C 274.7099609375 898.8055792 278.5155401375 895 283.2099609375 895 C 287.9043817375 895 291.7099609375 898.8055792 291.7099609375 903.5 C 291.7099609375 908.1944208 287.9043817375 912 283.2099609375 912 C 278.5155401375 912 274.7099609375 908.1944208 274.7099609375 903.5 Z" stroke-miterlimit="10"/></g><g transform="translate(-97,-590) scale(1,1)"><g><path fill="none" stroke="none"/><text fill="#000000" stroke="none" font-family="Arial" font-size="13px" font-style="normal" font-weight="bold" text-decoration="none" x="269.851318359375" y="934.5">NFC</text></g></g><g transform="translate(-97,-590) scale(1,1)"><path fill="none" stroke="#000000" d="M 368 903 L 294.7099609375 903" stroke-miterlimit="10"/></g><g transform="translate(-97,-590) scale(1,1)"><path fill="none" stroke="#000000" d="M 176 768 L 176 903 L 271.7099609375 903" stroke-miterlimit="10"/></g><g transform="translate(-97,-590) scale(1,1)"><g><path fill="none" stroke="none"/><text fill="#000000" stroke="none" font-family="Arial" font-size="13px" font-style="normal" font-weight="normal" text-decoration="none" x="182.5" y="894.5">+ndef</text></g></g><g transform="translate(-97,-590) scale(1,1)"><rect fill="#C0C0C0" stroke="none" x="409" y="719" width="181" height="47" opacity="0.2"/></g><g transform="translate(-97,-590) scale(1,1)"><rect fill="#ffd8d8" stroke="none" x="402" y="712" width="181" height="47"/></g><g transform="translate(-97,-590) scale(1,1)"><path fill="none" stroke="#000000" d="M 402 712 L 583 712 L 583 759 L 402 759 L 402 712 Z Z" stroke-miterlimit="10"/></g><g transform="translate(-97,-590) scale(1,1)"><rect fill="#ffd8d8" stroke="none" x="392" y="719" width="20" height="10"/></g><g transform="translate(-97,-590) scale(1,1)"><path fill="none" stroke="#000000" d="M 392 719 L 412 719 L 412 729 L 392 729 L 392 719 Z Z" stroke-miterlimit="10"/></g><g transform="translate(-97,-590) scale(1,1)"><rect fill="#ffd8d8" stroke="none" x="392" y="739" width="20" height="10"/></g><g transform="translate(-97,-590) scale(1,1)"><path fill="none" stroke="#000000" d="M 392 739 L 412 739 L 412 749 L 392 749 L 392 739 Z Z" stroke-miterlimit="10"/></g><g transform="translate(-97,-590) scale(1,1)"><g><path fill="none" stroke="none"/><text fill="#000000" stroke="none" font-family="Arial" font-size="13px" font-style="normal" font-weight="normal" text-decoration="none" x="467.15185546875" y="729.5">«browser»</text></g></g><g transform="translate(-97,-590) scale(1,1)"><g><path fill="none" stroke="none"/><text fill="#000000" stroke="none" font-family="Arial" font-size="13px" font-style="normal" font-weight="bold" text-decoration="none" x="468.96728515625" y="744.5">chromium</text></g></g><g transform="translate(-97,-590) scale(1,1)"><path fill="#C0C0C0" stroke="none" d="M 391 1249 L 580 1249 L 580 1366 L 391 1366" opacity="0.2"/></g><g transform="translate(-97,-590) scale(1,1)"><path fill="#C0C0C0" stroke="none" d="M 391 1249 L 401 1239 L 590 1239 L 580 1249" opacity="0.2"/></g><g transform="translate(-97,-590) scale(1,1)"><path fill="#C0C0C0" stroke="none" d="M 590 1239 L 580 1249 L 580 1366 L 590 1356" opacity="0.2"/></g><g transform="translate(-97,-590) scale(1,1)"><path fill="#ffffff" stroke="none" d="M 384 1242 L 573 1242 L 573 1359 L 384 1359"/></g><g transform="translate(-97,-590) scale(1,1)"><path fill="#ffffff" stroke="none" d="M 384 1242 L 394 1232 L 583 1232 L 573 1242"/></g><g transform="translate(-97,-590) scale(1,1)"><path fill="#ffffff" stroke="none" d="M 583 1232 L 573 1242 L 573 1359 L 583 1349"/></g><g transform="translate(-97,-590) scale(1,1)"><path fill="none" stroke="#000000" d="M 384 1242 L 573 1242 L 573 1359 L 384 1359 L 384 1242" stroke-miterlimit="10"/></g><g transform="translate(-97,-590) scale(1,1)"><path fill="none" stroke="#000000" d="M 384 1242 L 394 1232 L 583 1232 L 573 1242 L 384 1242" stroke-miterlimit="10"/></g><g transform="translate(-97,-590) scale(1,1)"><path fill="none" stroke="#000000" d="M 583 1232 L 573 1242 L 573 1359 L 583 1349 L 583 1232" stroke-miterlimit="10"/></g><g transform="translate(-97,-590) scale(1,1)"><g><path fill="none" stroke="none"/><text fill="#000000" stroke="none" font-family="Arial" font-size="13px" font-style="normal" font-weight="normal" text-decoration="none" x="445.030517578125" y="1259.5">«container»</text></g></g><g transform="translate(-97,-590) scale(1,1)"><g><path fill="none" stroke="none"/><text fill="#000000" stroke="none" font-family="Arial" font-size="13px" font-style="normal" font-weight="bold" text-decoration="none" x="440.339599609375" y="1274.5">payfree client</text></g></g><g transform="translate(-97,-590) scale(1,1)"><rect fill="#C0C0C0" stroke="none" x="433" y="1295" width="118.71533203125" height="44" opacity="0.2"/></g><g transform="translate(-97,-590) scale(1,1)"><rect fill="#ebd8ff" stroke="none" x="426" y="1288" width="118.71533203125" height="44"/></g><g transform="translate(-97,-590) scale(1,1)"><path fill="none" stroke="#000000" d="M 426 1288 L 544.71533203125 1288 L 544.71533203125 1332 L 426 1332 L 426 1288 Z Z" stroke-miterlimit="10"/></g><g transform="translate(-97,-590) scale(1,1)"><rect fill="#ebd8ff" stroke="none" x="416" y="1295" width="20" height="10"/></g><g transform="translate(-97,-590) scale(1,1)"><path fill="none" stroke="#000000" d="M 416 1295 L 436 1295 L 436 1305 L 416 1305 L 416 1295 Z Z" stroke-miterlimit="10"/></g><g transform="translate(-97,-590) scale(1,1)"><rect fill="#ebd8ff" stroke="none" x="416" y="1315" width="20" height="10"/></g><g transform="translate(-97,-590) scale(1,1)"><path fill="none" stroke="#000000" d="M 416 1315 L 436 1315 L 436 1325 L 416 1325 L 416 1315 Z Z" stroke-miterlimit="10"/></g><g transform="translate(-97,-590) scale(1,1)"><g><path fill="none" stroke="none"/><text fill="#000000" stroke="none" font-family="Arial" font-size="13px" font-style="normal" font-weight="normal" text-decoration="none" x="475.904052734375" y="1305.5">«jar»</text></g></g><g transform="translate(-97,-590) scale(1,1)"><g><path fill="none" stroke="none"/><text fill="#000000" stroke="none" font-family="Arial" font-size="13px" font-style="normal" font-weight="bold" text-decoration="none" x="451.33544921875" y="1320.5">payfreeclt 1.0</text></g></g><g transform="translate(-97,-590) scale(1,1)"><path fill="#C0C0C0" stroke="none" d="M 678.7099609375 906.5 C 678.7099609375 900.1487248 683.8586857375 895 690.2099609375 895 C 696.5612361375 895 701.7099609375 900.1487248 701.7099609375 906.5 C 701.7099609375 912.8512752 696.5612361375 918 690.2099609375 918 C 683.8586857375 918 678.7099609375 912.8512752 678.7099609375 906.5 Z" opacity="0.2"/></g><g transform="translate(-97,-590) scale(1,1)"><path fill="none" stroke="#000000" d="M 683 910.5 A 11.5 11.5 0 0 1 683 887.5" stroke-miterlimit="10"/></g><g transform="translate(-97,-590) scale(1,1)"><path fill="#ffffff" stroke="none" d="M 674.7099609375 899.5 C 674.7099609375 894.8055792 678.5155401375 891 683.2099609375 891 C 687.9043817375 891 691.7099609375 894.8055792 691.7099609375 899.5 C 691.7099609375 904.1944208 687.9043817375 908 683.2099609375 908 C 678.5155401375 908 674.7099609375 904.1944208 674.7099609375 899.5 Z"/></g><g transform="translate(-97,-590) scale(1,1)"><path fill="none" stroke="#000000" d="M 674.7099609375 899.5 C 674.7099609375 894.8055792 678.5155401375 891 683.2099609375 891 C 687.9043817375 891 691.7099609375 894.8055792 691.7099609375 899.5 C 691.7099609375 904.1944208 687.9043817375 908 683.2099609375 908 C 678.5155401375 908 674.7099609375 904.1944208 674.7099609375 899.5 Z" stroke-miterlimit="10"/></g><g transform="translate(-97,-590) scale(1,1)"><g><path fill="none" stroke="none"/><text fill="#000000" stroke="none" font-family="Arial" font-size="13px" font-style="normal" font-weight="bold" text-decoration="none" x="665.87451171875" y="930.5">REST</text></g></g><g transform="translate(-97,-590) scale(1,1)"><path fill="none" stroke="#000000" d="M 813 760 L 728 760 L 728 899 L 694.7099609375 899" stroke-miterlimit="10"/></g><g transform="translate(-97,-590) scale(1,1)"><g><path fill="none" stroke="none"/><text fill="#000000" stroke="none" font-family="Arial" font-size="13px" font-style="normal" font-weight="normal" text-decoration="none" x="711.1123046875" y="772.5">+https</text></g></g><g transform="translate(-97,-590) scale(1,1)"><path fill="none" stroke="#000000" d="M 584 1296 L 640 1296 L 640 899 L 671.7099609375 899" stroke-miterlimit="10"/></g><g transform="translate(-97,-590) scale(1,1)"><path fill="#ffffff" stroke="none" d="M 1608 984 L 1773 984 L 1783 994 L 1783 1087 L 1608 1087 L 1608 984"/></g><g transform="translate(-97,-590) scale(1,1)"><path fill="none" stroke="#000000" d="M 1608 984 L 1773 984 L 1783 994 L 1783 1087 L 1608 1087 L 1608 984 L 1608 984" stroke-miterlimit="10"/></g><g transform="translate(-97,-590) scale(1,1)"><path fill="none" stroke="#000000" d="M 1773 984 L 1773 994 L 1783 994 L 1773 984" stroke-miterlimit="10"/></g><g transform="translate(-97,-590) scale(1,1)"><path fill="#ffd8d8" stroke="none" d="M 1626.6666666666667 992 L 1668.3333333333333 992 Q 1679 992 1679 1002.6666666666666 L 1679 1013.3333333333334 Q 1679 1024 1668.3333333333333 1024 L 1626.6666666666667 1024 Q 1616 1024 1616 1013.3333333333334 L 1616 1002.6666666666666 Q 1616 992 1626.6666666666667 992 Z"/></g><g transform="translate(-97,-590) scale(1,1)"><path fill="none" stroke="#000000" d="M 1626.6666666666667 992 L 1668.3333333333333 992 Q 1679 992 1679 1002.6666666666666 L 1679 1013.3333333333334 Q 1679 1024 1668.3333333333333 1024 L 1626.6666666666667 1024 Q 1616 1024 1616 1013.3333333333334 L 1616 1002.6666666666666 Q 1616 992 1626.6666666666667 992 Z" stroke-miterlimit="10"/></g><g transform="translate(-97,-590) scale(1,1)"><path fill="#ebd8ff" stroke="none" d="M 1626.6666666666667 1040 L 1668.3333333333333 1040 Q 1679 1040 1679 1050.6666666666667 L 1679 1061.3333333333333 Q 1679 1072 1668.3333333333333 1072 L 1626.6666666666667 1072 Q 1616 1072 1616 1061.3333333333333 L 1616 1050.6666666666667 Q 1616 1040 1626.6666666666667 1040 Z"/></g><g transform="translate(-97,-590) scale(1,1)"><path fill="none" stroke="#000000" d="M 1626.6666666666667 1040 L 1668.3333333333333 1040 Q 1679 1040 1679 1050.6666666666667 L 1679 1061.3333333333333 Q 1679 1072 1668.3333333333333 1072 L 1626.6666666666667 1072 Q 1616 1072 1616 1061.3333333333333 L 1616 1050.6666666666667 Q 1616 1040 1626.6666666666667 1040 Z" stroke-miterlimit="10"/></g><g transform="translate(-97,-590) scale(1,1)"><g><path fill="none" stroke="none"/><text fill="#000000" stroke="none" font-family="Arial" font-size="20px" font-style="normal" font-weight="normal" text-decoration="none" x="1685" y="1017">Usman</text></g></g><g transform="translate(-97,-590) scale(1,1)"><g><path fill="none" stroke="none"/><text fill="#000000" stroke="none" font-family="Arial" font-size="20px" font-style="normal" font-weight="normal" text-decoration="none" x="1685" y="1065">Thibault</text></g></g><g transform="translate(-97,-590) scale(1,1)"><path fill="#C0C0C0" stroke="none" d="M 1183 657 L 1444 657 L 1444 982 L 1183 982" opacity="0.2"/></g><g transform="translate(-97,-590) scale(1,1)"><path fill="#C0C0C0" stroke="none" d="M 1183 657 L 1193 647 L 1454 647 L 1444 657" opacity="0.2"/></g><g transform="translate(-97,-590) scale(1,1)"><path fill="#C0C0C0" stroke="none" d="M 1454 647 L 1444 657 L 1444 982 L 1454 972" opacity="0.2"/></g><g transform="translate(-97,-590) scale(1,1)"><path fill="#ffffff" stroke="none" d="M 1176 650 L 1437 650 L 1437 975 L 1176 975"/></g><g transform="translate(-97,-590) scale(1,1)"><path fill="#ffffff" stroke="none" d="M 1176 650 L 1186 640 L 1447 640 L 1437 650"/></g><g transform="translate(-97,-590) scale(1,1)"><path fill="#ffffff" stroke="none" d="M 1447 640 L 1437 650 L 1437 975 L 1447 965"/></g><g transform="translate(-97,-590) scale(1,1)"><path fill="none" stroke="#000000" d="M 1176 650 L 1437 650 L 1437 975 L 1176 975 L 1176 650" stroke-miterlimit="10"/></g><g transform="translate(-97,-590) scale(1,1)"><path fill="none" stroke="#000000" d="M 1176 650 L 1186 640 L 1447 640 L 1437 650 L 1176 650" stroke-miterlimit="10"/></g><g transform="translate(-97,-590) scale(1,1)"><path fill="none" stroke="#000000" d="M 1447 640 L 1437 650 L 1437 975 L 1447 965 L 1447 640" stroke-miterlimit="10"/></g><g transform="translate(-97,-590) scale(1,1)"><g><path fill="none" stroke="none"/><text fill="#000000" stroke="none" font-family="Arial" font-size="13px" font-style="normal" font-weight="normal" text-decoration="none" x="1255.3173828125" y="667.5">«Ubuntu 16.04.1»</text></g></g><g transform="translate(-97,-590) scale(1,1)"><g><path fill="none" stroke="none"/><text fill="#000000" stroke="none" font-family="Arial" font-size="13px" font-style="normal" font-weight="bold" text-decoration="none" x="1282.7900390625" y="682.5">NotifLab</text></g></g><g transform="translate(-97,-590) scale(1,1)"><path fill="#C0C0C0" stroke="none" d="M 1199 849 L 1420 849 L 1420 966 L 1199 966" opacity="0.2"/></g><g transform="translate(-97,-590) scale(1,1)"><path fill="#C0C0C0" stroke="none" d="M 1199 849 L 1209 839 L 1430 839 L 1420 849" opacity="0.2"/></g><g transform="translate(-97,-590) scale(1,1)"><path fill="#C0C0C0" stroke="none" d="M 1430 839 L 1420 849 L 1420 966 L 1430 956" opacity="0.2"/></g><g transform="translate(-97,-590) scale(1,1)"><path fill="#ffffff" stroke="none" d="M 1192 842 L 1413 842 L 1413 959 L 1192 959"/></g><g transform="translate(-97,-590) scale(1,1)"><path fill="#ffffff" stroke="none" d="M 1192 842 L 1202 832 L 1423 832 L 1413 842"/></g><g transform="translate(-97,-590) scale(1,1)"><path fill="#ffffff" stroke="none" d="M 1423 832 L 1413 842 L 1413 959 L 1423 949"/></g><g transform="translate(-97,-590) scale(1,1)"><path fill="none" stroke="#000000" d="M 1192 842 L 1413 842 L 1413 959 L 1192 959 L 1192 842" stroke-miterlimit="10"/></g><g transform="translate(-97,-590) scale(1,1)"><path fill="none" stroke="#000000" d="M 1192 842 L 1202 832 L 1423 832 L 1413 842 L 1192 842" stroke-miterlimit="10"/></g><g transform="translate(-97,-590) scale(1,1)"><path fill="none" stroke="#000000" d="M 1423 832 L 1413 842 L 1413 959 L 1423 949 L 1423 832" stroke-miterlimit="10"/></g><g transform="translate(-97,-590) scale(1,1)"><g><path fill="none" stroke="none"/><text fill="#000000" stroke="none" font-family="Arial" font-size="13px" font-style="normal" font-weight="normal" text-decoration="none" x="1269.030517578125" y="859.5">«container»</text></g></g><g transform="translate(-97,-590) scale(1,1)"><g><path fill="none" stroke="none"/><text fill="#000000" stroke="none" font-family="Arial" font-size="13px" font-style="normal" font-weight="bold" text-decoration="none" x="1269.0400390625" y="874.5">notif_server</text></g></g><g transform="translate(-97,-590) scale(1,1)"><path fill="#C0C0C0" stroke="none" d="M 1199 705 L 1420 705 L 1420 822 L 1199 822" opacity="0.2"/></g><g transform="translate(-97,-590) scale(1,1)"><path fill="#C0C0C0" stroke="none" d="M 1199 705 L 1209 695 L 1430 695 L 1420 705" opacity="0.2"/></g><g transform="translate(-97,-590) scale(1,1)"><path fill="#C0C0C0" stroke="none" d="M 1430 695 L 1420 705 L 1420 822 L 1430 812" opacity="0.2"/></g><g transform="translate(-97,-590) scale(1,1)"><path fill="#ffffff" stroke="none" d="M 1192 698 L 1413 698 L 1413 815 L 1192 815"/></g><g transform="translate(-97,-590) scale(1,1)"><path fill="#ffffff" stroke="none" d="M 1192 698 L 1202 688 L 1423 688 L 1413 698"/></g><g transform="translate(-97,-590) scale(1,1)"><path fill="#ffffff" stroke="none" d="M 1423 688 L 1413 698 L 1413 815 L 1423 805"/></g><g transform="translate(-97,-590) scale(1,1)"><path fill="none" stroke="#000000" d="M 1192 698 L 1413 698 L 1413 815 L 1192 815 L 1192 698" stroke-miterlimit="10"/></g><g transform="translate(-97,-590) scale(1,1)"><path fill="none" stroke="#000000" d="M 1192 698 L 1202 688 L 1423 688 L 1413 698 L 1192 698" stroke-miterlimit="10"/></g><g transform="translate(-97,-590) scale(1,1)"><path fill="none" stroke="#000000" d="M 1423 688 L 1413 698 L 1413 815 L 1423 805 L 1423 688" stroke-miterlimit="10"/></g><g transform="translate(-97,-590) scale(1,1)"><g><path fill="none" stroke="none"/><text fill="#000000" stroke="none" font-family="Arial" font-size="13px" font-style="normal" font-weight="normal" text-decoration="none" x="1269.030517578125" y="715.5">«container»</text></g></g><g transform="translate(-97,-590) scale(1,1)"><g><path fill="none" stroke="none"/><text fill="#000000" stroke="none" font-family="Arial" font-size="13px" font-style="normal" font-weight="bold" text-decoration="none" x="1267.23095703125" y="730.5">push_server</text></g></g><g transform="translate(-97,-590) scale(1,1)"><rect fill="#C0C0C0" stroke="none" x="1241" y="903" width="149.76806640625" height="44" opacity="0.2"/></g><g transform="translate(-97,-590) scale(1,1)"><rect fill="#ebd8ff" stroke="none" x="1234" y="896" width="149.76806640625" height="44"/></g><g transform="translate(-97,-590) scale(1,1)"><path fill="none" stroke="#000000" d="M 1234 896 L 1383.76806640625 896 L 1383.76806640625 940 L 1234 940 L 1234 896 Z Z" stroke-miterlimit="10"/></g><g transform="translate(-97,-590) scale(1,1)"><rect fill="#ebd8ff" stroke="none" x="1224" y="903" width="20" height="10"/></g><g transform="translate(-97,-590) scale(1,1)"><path fill="none" stroke="#000000" d="M 1224 903 L 1244 903 L 1244 913 L 1224 913 L 1224 903 Z Z" stroke-miterlimit="10"/></g><g transform="translate(-97,-590) scale(1,1)"><rect fill="#ebd8ff" stroke="none" x="1224" y="923" width="20" height="10"/></g><g transform="translate(-97,-590) scale(1,1)"><path fill="none" stroke="#000000" d="M 1224 923 L 1244 923 L 1244 933 L 1224 933 L 1224 923 Z Z" stroke-miterlimit="10"/></g><g transform="translate(-97,-590) scale(1,1)"><g><path fill="none" stroke="none"/><text fill="#000000" stroke="none" font-family="Arial" font-size="13px" font-style="normal" font-weight="normal" text-decoration="none" x="1299.430419921875" y="913.5">«jar»</text></g></g><g transform="translate(-97,-590) scale(1,1)"><g><path fill="none" stroke="none"/><text fill="#000000" stroke="none" font-family="Arial" font-size="13px" font-style="normal" font-weight="bold" text-decoration="none" x="1253.908203125" y="928.5">notificationserver 1.0</text></g></g><g transform="translate(-97,-590) scale(1,1)"><rect fill="#C0C0C0" stroke="none" x="1225" y="759" width="180.82080078125" height="44" opacity="0.2"/></g><g transform="translate(-97,-590) scale(1,1)"><rect fill="#ebd8ff" stroke="none" x="1218" y="752" width="180.82080078125" height="44"/></g><g transform="translate(-97,-590) scale(1,1)"><path fill="none" stroke="#000000" d="M 1218 752 L 1398.82080078125 752 L 1398.82080078125 796 L 1218 796 L 1218 752 Z Z" stroke-miterlimit="10"/></g><g transform="translate(-97,-590) scale(1,1)"><rect fill="#ebd8ff" stroke="none" x="1208" y="759" width="20" height="10"/></g><g transform="translate(-97,-590) scale(1,1)"><path fill="none" stroke="#000000" d="M 1208 759 L 1228 759 L 1228 769 L 1208 769 L 1208 759 Z Z" stroke-miterlimit="10"/></g><g transform="translate(-97,-590) scale(1,1)"><rect fill="#ebd8ff" stroke="none" x="1208" y="779" width="20" height="10"/></g><g transform="translate(-97,-590) scale(1,1)"><path fill="none" stroke="#000000" d="M 1208 779 L 1228 779 L 1228 789 L 1208 789 L 1208 779 Z Z" stroke-miterlimit="10"/></g><g transform="translate(-97,-590) scale(1,1)"><g><path fill="none" stroke="none"/><text fill="#000000" stroke="none" font-family="Arial" font-size="13px" font-style="normal" font-weight="normal" text-decoration="none" x="1298.956787109375" y="769.5">«jar»</text></g></g><g transform="translate(-97,-590) scale(1,1)"><g><path fill="none" stroke="none"/><text fill="#000000" stroke="none" font-family="Arial" font-size="13px" font-style="normal" font-weight="bold" text-decoration="none" x="1239.339599609375" y="784.5">notificationpushserver 1.0</text></g></g><g transform="translate(-97,-590) scale(1,1)"><path fill="#C0C0C0" stroke="none" d="M 1639 761 L 1804 761 L 1804 886 L 1639 886" opacity="0.2"/></g><g transform="translate(-97,-590) scale(1,1)"><path fill="#C0C0C0" stroke="none" d="M 1639 761 L 1649 751 L 1814 751 L 1804 761" opacity="0.2"/></g><g transform="translate(-97,-590) scale(1,1)"><path fill="#C0C0C0" stroke="none" d="M 1814 751 L 1804 761 L 1804 886 L 1814 876" opacity="0.2"/></g><g transform="translate(-97,-590) scale(1,1)"><path fill="#ffffff" stroke="none" d="M 1632 754 L 1797 754 L 1797 879 L 1632 879"/></g><g transform="translate(-97,-590) scale(1,1)"><path fill="#ffffff" stroke="none" d="M 1632 754 L 1642 744 L 1807 744 L 1797 754"/></g><g transform="translate(-97,-590) scale(1,1)"><path fill="#ffffff" stroke="none" d="M 1807 744 L 1797 754 L 1797 879 L 1807 869"/></g><g transform="translate(-97,-590) scale(1,1)"><path fill="none" stroke="#000000" d="M 1632 754 L 1797 754 L 1797 879 L 1632 879 L 1632 754" stroke-miterlimit="10"/></g><g transform="translate(-97,-590) scale(1,1)"><path fill="none" stroke="#000000" d="M 1632 754 L 1642 744 L 1807 744 L 1797 754 L 1632 754" stroke-miterlimit="10"/></g><g transform="translate(-97,-590) scale(1,1)"><path fill="none" stroke="#000000" d="M 1807 744 L 1797 754 L 1797 879 L 1807 869 L 1807 744" stroke-miterlimit="10"/></g><g transform="translate(-97,-590) scale(1,1)"><g><path fill="none" stroke="none"/><text fill="#000000" stroke="none" font-family="Arial" font-size="13px" font-style="normal" font-weight="normal" text-decoration="none" x="1663.3173828125" y="771.5">«Ubuntu 16.04.1»</text></g></g><g transform="translate(-97,-590) scale(1,1)"><g><path fill="none" stroke="none"/><text fill="#000000" stroke="none" font-family="Arial" font-size="13px" font-style="normal" font-weight="bold" text-decoration="none" x="1681.411376953125" y="786.5">MomServer</text></g></g><g transform="translate(-97,-590) scale(1,1)"><rect fill="#C0C0C0" stroke="none" x="1665" y="815" width="120.13720703125" height="44" opacity="0.2"/></g><g transform="translate(-97,-590) scale(1,1)"><rect fill="#ffffff" stroke="none" x="1658" y="808" width="120.13720703125" height="44"/></g><g transform="translate(-97,-590) scale(1,1)"><path fill="none" stroke="#000000" d="M 1658 808 L 1778.13720703125 808 L 1778.13720703125 852 L 1658 852 L 1658 808 Z Z" stroke-miterlimit="10"/></g><g transform="translate(-97,-590) scale(1,1)"><rect fill="#ffffff" stroke="none" x="1648" y="815" width="20" height="10"/></g><g transform="translate(-97,-590) scale(1,1)"><path fill="none" stroke="#000000" d="M 1648 815 L 1668 815 L 1668 825 L 1648 825 L 1648 815 Z Z" stroke-miterlimit="10"/></g><g transform="translate(-97,-590) scale(1,1)"><rect fill="#ffffff" stroke="none" x="1648" y="835" width="20" height="10"/></g><g transform="translate(-97,-590) scale(1,1)"><path fill="none" stroke="#000000" d="M 1648 835 L 1668 835 L 1668 845 L 1648 845 L 1648 835 Z Z" stroke-miterlimit="10"/></g><g transform="translate(-97,-590) scale(1,1)"><g><path fill="none" stroke="none"/><text fill="#000000" stroke="none" font-family="Arial" font-size="13px" font-style="normal" font-weight="normal" text-decoration="none" x="1697.779541015625" y="825.5">«server»</text></g></g><g transform="translate(-97,-590) scale(1,1)"><g><path fill="none" stroke="none"/><text fill="#000000" stroke="none" font-family="Arial" font-size="13px" font-style="normal" font-weight="bold" text-decoration="none" x="1673.931396484375" y="840.5">RabbitMQ 3.6.14</text></g></g><g transform="translate(-97,-590) scale(1,1)"><path fill="#C0C0C0" stroke="none" d="M 1534.7099609375 786.5 C 1534.7099609375 780.1487248 1539.8586857375 775 1546.2099609375 775 C 1552.5612361375 775 1557.7099609375 780.1487248 1557.7099609375 786.5 C 1557.7099609375 792.8512752 1552.5612361375 798 1546.2099609375 798 C 1539.8586857375 798 1534.7099609375 792.8512752 1534.7099609375 786.5 Z" opacity="0.2"/></g><g transform="translate(-97,-590) scale(1,1)"><path fill="none" stroke="#000000" d="M 1539 790.5 A 11.5 11.5 0 0 1 1539 767.5" stroke-miterlimit="10"/></g><g transform="translate(-97,-590) scale(1,1)"><path fill="none" stroke="#000000" d="M 1527.905216055766 782.0258501666093 A 11.5 11.5 0 0 1 1550.094783944234 775.9741498333907" stroke-miterlimit="10"/></g><g transform="translate(-97,-590) scale(1,1)"><path fill="#ffffff" stroke="none" d="M 1530.7099609375 779.5 C 1530.7099609375 774.8055792 1534.5155401375 771 1539.2099609375 771 C 1543.9043817375 771 1547.7099609375 774.8055792 1547.7099609375 779.5 C 1547.7099609375 784.1944208 1543.9043817375 788 1539.2099609375 788 C 1534.5155401375 788 1530.7099609375 784.1944208 1530.7099609375 779.5 Z"/></g><g transform="translate(-97,-590) scale(1,1)"><path fill="none" stroke="#000000" d="M 1530.7099609375 779.5 C 1530.7099609375 774.8055792 1534.5155401375 771 1539.2099609375 771 C 1543.9043817375 771 1547.7099609375 774.8055792 1547.7099609375 779.5 C 1547.7099609375 784.1944208 1543.9043817375 788 1539.2099609375 788 C 1534.5155401375 788 1530.7099609375 784.1944208 1530.7099609375 779.5 Z" stroke-miterlimit="10"/></g><g transform="translate(-97,-590) scale(1,1)"><g><path fill="none" stroke="none"/><text fill="#000000" stroke="none" font-family="Arial" font-size="13px" font-style="normal" font-weight="bold" text-decoration="none" x="1520.068603515625" y="810.5">AMPQ</text></g></g><g transform="translate(-97,-590) scale(1,1)"><path fill="none" stroke="#000000" d="M 1632 779 L 1550.7099609375 779" stroke-miterlimit="10"/></g><g transform="translate(-97,-590) scale(1,1)"><g><path fill="none" stroke="none"/><text fill="#000000" stroke="none" font-family="Arial" font-size="13px" font-style="normal" font-weight="normal" text-decoration="none" x="1577.533203125" y="800.5">+tcp</text></g></g><g transform="translate(-97,-590) scale(1,1)"><path fill="none" stroke="#000000" d="M 1424 928 L 1464 928 L 1464 779 L 1527.7099609375 779" stroke-miterlimit="10"/></g><g transform="translate(-97,-590) scale(1,1)"><path fill="none" stroke="#000000" d="M 1424 744 L 1536 744 L 1536 768" stroke-miterlimit="10"/></g><g transform="translate(-97,-590) scale(1,1)"><path fill="#C0C0C0" stroke="none" d="M 1078.7099609375 874.5 C 1078.7099609375 868.1487248 1083.8586857375 863 1090.2099609375 863 C 1096.5612361375 863 1101.7099609375 868.1487248 1101.7099609375 874.5 C 1101.7099609375 880.8512752 1096.5612361375 886 1090.2099609375 886 C 1083.8586857375 886 1078.7099609375 880.8512752 1078.7099609375 874.5 Z" opacity="0.2"/></g><g transform="translate(-97,-590) scale(1,1)"><path fill="none" stroke="#000000" d="M 1071.905216055766 870.0258501666093 A 11.5 11.5 0 0 1 1094.094783944234 863.9741498333907" stroke-miterlimit="10"/></g><g transform="translate(-97,-590) scale(1,1)"><path fill="#ffffff" stroke="none" d="M 1074.7099609375 867.5 C 1074.7099609375 862.8055792 1078.5155401375 859 1083.2099609375 859 C 1087.9043817375 859 1091.7099609375 862.8055792 1091.7099609375 867.5 C 1091.7099609375 872.1944208 1087.9043817375 876 1083.2099609375 876 C 1078.5155401375 876 1074.7099609375 872.1944208 1074.7099609375 867.5 Z"/></g><g transform="translate(-97,-590) scale(1,1)"><path fill="none" stroke="#000000" d="M 1074.7099609375 867.5 C 1074.7099609375 862.8055792 1078.5155401375 859 1083.2099609375 859 C 1087.9043817375 859 1091.7099609375 862.8055792 1091.7099609375 867.5 C 1091.7099609375 872.1944208 1087.9043817375 876 1083.2099609375 876 C 1078.5155401375 876 1074.7099609375 872.1944208 1074.7099609375 867.5 Z" stroke-miterlimit="10"/></g><g transform="translate(-97,-590) scale(1,1)"><g><path fill="none" stroke="none"/><text fill="#000000" stroke="none" font-family="Arial" font-size="13px" font-style="normal" font-weight="bold" text-decoration="none" x="1065.87451171875" y="898.5">REST</text></g></g><g transform="translate(-97,-590) scale(1,1)"><path fill="none" stroke="#000000" d="M 1192 867 L 1094.7099609375 867" stroke-miterlimit="10"/></g><g transform="translate(-97,-590) scale(1,1)"><g><path fill="none" stroke="none"/><text fill="#000000" stroke="none" font-family="Arial" font-size="13px" font-style="normal" font-weight="normal" text-decoration="none" x="1112.8623046875" y="907.5">+http</text></g></g><g transform="translate(-97,-590) scale(1,1)"><path fill="none" stroke="#000000" d="M 973 808 L 1080 808 L 1080 856" stroke-miterlimit="10"/></g><g transform="translate(-97,-590) scale(1,1)"><path fill="#C0C0C0" stroke="none" d="M 1070.7099609375 722.5 C 1070.7099609375 716.1487248 1075.8586857375 711 1082.2099609375 711 C 1088.5612361375 711 1093.7099609375 716.1487248 1093.7099609375 722.5 C 1093.7099609375 728.8512752 1088.5612361375 734 1082.2099609375 734 C 1075.8586857375 734 1070.7099609375 728.8512752 1070.7099609375 722.5 Z" opacity="0.2"/></g><g transform="translate(-97,-590) scale(1,1)"><path fill="none" stroke="#000000" d="M 1063.905216055766 718.0258501666093 A 11.5 11.5 0 0 1 1086.094783944234 711.9741498333907" stroke-miterlimit="10"/></g><g transform="translate(-97,-590) scale(1,1)"><path fill="#ffffff" stroke="none" d="M 1066.7099609375 715.5 C 1066.7099609375 710.8055792 1070.5155401375 707 1075.2099609375 707 C 1079.9043817375 707 1083.7099609375 710.8055792 1083.7099609375 715.5 C 1083.7099609375 720.1944208 1079.9043817375 724 1075.2099609375 724 C 1070.5155401375 724 1066.7099609375 720.1944208 1066.7099609375 715.5 Z"/></g><g transform="translate(-97,-590) scale(1,1)"><path fill="none" stroke="#000000" d="M 1066.7099609375 715.5 C 1066.7099609375 710.8055792 1070.5155401375 707 1075.2099609375 707 C 1079.9043817375 707 1083.7099609375 710.8055792 1083.7099609375 715.5 C 1083.7099609375 720.1944208 1079.9043817375 724 1075.2099609375 724 C 1070.5155401375 724 1066.7099609375 720.1944208 1066.7099609375 715.5 Z" stroke-miterlimit="10"/></g><g transform="translate(-97,-590) scale(1,1)"><g><path fill="none" stroke="none"/><text fill="#000000" stroke="none" font-family="Arial" font-size="13px" font-style="normal" font-weight="bold" text-decoration="none" x="1062.2099609375" y="746.5">TCP</text></g></g><g transform="translate(-97,-590) scale(1,1)"><path fill="none" stroke="#000000" d="M 1192 715 L 1086.7099609375 715" stroke-miterlimit="10"/></g><g transform="translate(-97,-590) scale(1,1)"><g><path fill="none" stroke="none"/><text fill="#000000" stroke="none" font-family="Arial" font-size="13px" font-style="normal" font-weight="normal" text-decoration="none" x="1125.533203125" y="736.5">+tcp</text></g></g><g transform="translate(-97,-590) scale(1,1)"><path fill="none" stroke="#000000" d="M 184 644 L 184 600 L 1072 600 L 1072 704" stroke-miterlimit="10"/></g><g transform="translate(-97,-590) scale(1,1)"><rect fill="#ffffff" stroke="none" x="496" y="1225" width="14" height="14"/></g><g transform="translate(-97,-590) scale(1,1)"><path fill="none" stroke="#000000" d="M 496 1225 L 510 1225 L 510 1239 L 496 1239 L 496 1225 Z Z" stroke-miterlimit="10"/></g><g transform="translate(-97,-590) scale(1,1)"><g><path fill="none" stroke="none"/><text fill="#000000" stroke="none" font-family="Arial" font-size="13px" font-style="normal" font-weight="normal" text-decoration="none" x="473.0400390625" y="1223">1234</text></g></g><g transform="translate(-97,-590) scale(1,1)"><path fill="#C0C0C0" stroke="none" d="M 399 985 L 572 985 L 572 1134 L 399 1134" opacity="0.2"/></g><g transform="translate(-97,-590) scale(1,1)"><path fill="#C0C0C0" stroke="none" d="M 399 985 L 409 975 L 582 975 L 572 985" opacity="0.2"/></g><g transform="translate(-97,-590) scale(1,1)"><path fill="#C0C0C0" stroke="none" d="M 582 975 L 572 985 L 572 1134 L 582 1124" opacity="0.2"/></g><g transform="translate(-97,-590) scale(1,1)"><path fill="#ffffff" stroke="none" d="M 392 978 L 565 978 L 565 1127 L 392 1127"/></g><g transform="translate(-97,-590) scale(1,1)"><path fill="#ffffff" stroke="none" d="M 392 978 L 402 968 L 575 968 L 565 978"/></g><g transform="translate(-97,-590) scale(1,1)"><path fill="#ffffff" stroke="none" d="M 575 968 L 565 978 L 565 1127 L 575 1117"/></g><g transform="translate(-97,-590) scale(1,1)"><path fill="none" stroke="#000000" d="M 392 978 L 565 978 L 565 1127 L 392 1127 L 392 978" stroke-miterlimit="10"/></g><g transform="translate(-97,-590) scale(1,1)"><path fill="none" stroke="#000000" d="M 392 978 L 402 968 L 575 968 L 565 978 L 392 978" stroke-miterlimit="10"/></g><g transform="translate(-97,-590) scale(1,1)"><path fill="none" stroke="#000000" d="M 575 968 L 565 978 L 565 1127 L 575 1117 L 575 968" stroke-miterlimit="10"/></g><g transform="translate(-97,-590) scale(1,1)"><g><path fill="none" stroke="none"/><text fill="#000000" stroke="none" font-family="Arial" font-size="13px" font-style="normal" font-weight="normal" text-decoration="none" x="445.030517578125" y="995.5">«container»</text></g></g><g transform="translate(-97,-590) scale(1,1)"><g><path fill="none" stroke="none"/><text fill="#000000" stroke="none" font-family="Arial" font-size="13px" font-style="normal" font-weight="bold" text-decoration="none" x="455.504150390625" y="1010.5">dab.app</text></g></g><g transform="translate(-97,-590) scale(1,1)"><rect fill="#C0C0C0" stroke="none" x="417" y="1055" width="134" height="52" opacity="0.2"/></g><g transform="translate(-97,-590) scale(1,1)"><rect fill="#ffd8d8" stroke="none" x="410" y="1048" width="134" height="52"/></g><g transform="translate(-97,-590) scale(1,1)"><path fill="none" stroke="#000000" d="M 410 1048 L 544 1048 L 544 1100 L 410 1100 L 410 1048 Z Z" stroke-miterlimit="10"/></g><g transform="translate(-97,-590) scale(1,1)"><rect fill="#ffd8d8" stroke="none" x="400" y="1055" width="20" height="10"/></g><g transform="translate(-97,-590) scale(1,1)"><path fill="none" stroke="#000000" d="M 400 1055 L 420 1055 L 420 1065 L 400 1065 L 400 1055 Z Z" stroke-miterlimit="10"/></g><g transform="translate(-97,-590) scale(1,1)"><rect fill="#ffd8d8" stroke="none" x="400" y="1075" width="20" height="10"/></g><g transform="translate(-97,-590) scale(1,1)"><path fill="none" stroke="#000000" d="M 400 1075 L 420 1075 L 420 1085 L 400 1085 L 400 1075 Z Z" stroke-miterlimit="10"/></g><g transform="translate(-97,-590) scale(1,1)"><g><path fill="none" stroke="none"/><text fill="#000000" stroke="none" font-family="Arial" font-size="13px" font-style="normal" font-weight="normal" text-decoration="none" x="467.905029296875" y="1065.5">«py»</text></g></g><g transform="translate(-97,-590) scale(1,1)"><g><path fill="none" stroke="none"/><text fill="#000000" stroke="none" font-family="Arial" font-size="13px" font-style="normal" font-weight="bold" text-decoration="none" x="455.984130859375" y="1080.5">app.flask</text></g></g><g transform="translate(-97,-590) scale(1,1)"><rect fill="#ffffff" stroke="none" x="496" y="961" width="14" height="14"/></g><g transform="translate(-97,-590) scale(1,1)"><path fill="none" stroke="#000000" d="M 496 961 L 510 961 L 510 975 L 496 975 L 496 961 Z Z" stroke-miterlimit="10"/></g><g transform="translate(-97,-590) scale(1,1)"><g><path fill="none" stroke="none"/><text fill="#000000" stroke="none" font-family="Arial" font-size="13px" font-style="normal" font-weight="normal" text-decoration="none" x="473.0400390625" y="959">5000</text></g></g><g transform="translate(-97,-590) scale(1,1)"><path fill="#C0C0C0" stroke="none" d="M 502.7099609375 1170.5 C 502.7099609375 1164.1487248 507.8586857375 1159 514.2099609375 1159 C 520.5612361375 1159 525.7099609375 1164.1487248 525.7099609375 1170.5 C 525.7099609375 1176.8512752 520.5612361375 1182 514.2099609375 1182 C 507.8586857375 1182 502.7099609375 1176.8512752 502.7099609375 1170.5 Z" opacity="0.2"/></g><g transform="translate(-97,-590) scale(1,1)"><path fill="none" stroke="#000000" d="M 495.90521605576606 1166.0258501666092 A 11.5 11.5 0 0 1 518.0947839442339 1159.9741498333908" stroke-miterlimit="10"/></g><g transform="translate(-97,-590) scale(1,1)"><path fill="#ffffff" stroke="none" d="M 498.7099609375 1163.5 C 498.7099609375 1158.8055792 502.5155401375 1155 507.2099609375 1155 C 511.9043817375 1155 515.7099609375 1158.8055792 515.7099609375 1163.5 C 515.7099609375 1168.1944208 511.9043817375 1172 507.2099609375 1172 C 502.5155401375 1172 498.7099609375 1168.1944208 498.7099609375 1163.5 Z"/></g><g transform="translate(-97,-590) scale(1,1)"><path fill="none" stroke="#000000" d="M 498.7099609375 1163.5 C 498.7099609375 1158.8055792 502.5155401375 1155 507.2099609375 1155 C 511.9043817375 1155 515.7099609375 1158.8055792 515.7099609375 1163.5 C 515.7099609375 1168.1944208 511.9043817375 1172 507.2099609375 1172 C 502.5155401375 1172 498.7099609375 1168.1944208 498.7099609375 1163.5 Z" stroke-miterlimit="10"/></g><g transform="translate(-97,-590) scale(1,1)"><g><path fill="none" stroke="none"/><text fill="#000000" stroke="none" font-family="Arial" font-size="13px" font-style="normal" font-weight="bold" text-decoration="none" x="489.87451171875" y="1194.5">REST</text></g></g><g transform="translate(-97,-590) scale(1,1)"><path fill="none" stroke="#000000" d="M 507 1232 L 507 1175" stroke-miterlimit="10"/></g><g transform="translate(-97,-590) scale(1,1)"><g><path fill="none" stroke="none"/><text fill="#000000" stroke="none" font-family="Arial" font-size="13px" font-style="normal" font-weight="normal" text-decoration="none" x="477.628662109375" y="1208.5">+http</text></g></g><g transform="translate(-97,-590) scale(1,1)"><path fill="none" stroke="#000000" d="M 504 1100 L 504 1152" stroke-miterlimit="10"/></g><g transform="translate(-97,-590) scale(1,1)"><rect fill="#ffffff" stroke="none" x="1185" y="711" width="14" height="14"/></g><g transform="translate(-97,-590) scale(1,1)"><path fill="none" stroke="#000000" d="M 1185 711 L 1199 711 L 1199 725 L 1185 725 L 1185 711 Z Z" stroke-miterlimit="10"/></g><g transform="translate(-97,-590) scale(1,1)"><g><path fill="none" stroke="none"/><text fill="#000000" stroke="none" font-family="Arial" font-size="13px" font-style="normal" font-weight="normal" text-decoration="none" x="1162.0400390625" y="709">9090</text></g></g><g transform="translate(-97,-590) scale(1,1)"><rect fill="#ffffff" stroke="none" x="1185" y="870" width="14" height="14"/></g><g transform="translate(-97,-590) scale(1,1)"><path fill="none" stroke="#000000" d="M 1185 870 L 1199 870 L 1199 884 L 1185 884 L 1185 870 Z Z" stroke-miterlimit="10"/></g><g transform="translate(-97,-590) scale(1,1)"><g><path fill="none" stroke="none"/><text fill="#000000" stroke="none" font-family="Arial" font-size="13px" font-style="normal" font-weight="normal" text-decoration="none" x="1162.0400390625" y="868">8080</text></g></g><g transform="translate(-97,-590) scale(1,1)"><rect fill="#ffffff" stroke="none" x="1201" y="1033" width="14" height="14"/></g><g transform="translate(-97,-590) scale(1,1)"><path fill="none" stroke="#000000" d="M 1201 1033 L 1215 1033 L 1215 1047 L 1201 1047 L 1201 1033 Z Z" stroke-miterlimit="10"/></g><g transform="translate(-97,-590) scale(1,1)"><g><path fill="none" stroke="none"/><text fill="#000000" stroke="none" font-family="Arial" font-size="13px" font-style="normal" font-weight="normal" text-decoration="none" x="1178.0400390625" y="1031">3306</text></g></g><g transform="translate(-97,-590) scale(1,1)"><rect fill="#ffffff" stroke="none" x="806" y="755" width="14" height="14"/></g><g transform="translate(-97,-590) scale(1,1)"><path fill="none" stroke="#000000" d="M 806 755 L 820 755 L 820 769 L 806 769 L 806 755 Z Z" stroke-miterlimit="10"/></g><g transform="translate(-97,-590) scale(1,1)"><g><path fill="none" stroke="none"/><text fill="#000000" stroke="none" font-family="Arial" font-size="13px" font-style="normal" font-weight="normal" text-decoration="none" x="783.0400390625" y="753">4321</text></g></g><g transform="translate(-97,-590) scale(1,1)"><rect fill="#ffffff" stroke="none" x="806" y="1038" width="14" height="14"/></g><g transform="translate(-97,-590) scale(1,1)"><path fill="none" stroke="#000000" d="M 806 1038 L 820 1038 L 820 1052 L 806 1052 L 806 1038 Z Z" stroke-miterlimit="10"/></g><g transform="translate(-97,-590) scale(1,1)"><g><path fill="none" stroke="none"/><text fill="#000000" stroke="none" font-family="Arial" font-size="13px" font-style="normal" font-weight="normal" text-decoration="none" x="790.27001953125" y="1036">80</text></g></g><g transform="translate(-97,-590) scale(1,1)"><rect fill="#ffffff" stroke="none" x="1625" y="770" width="14" height="14"/></g><g transform="translate(-97,-590) scale(1,1)"><path fill="none" stroke="#000000" d="M 1625 770 L 1639 770 L 1639 784 L 1625 784 L 1625 770 Z Z" stroke-miterlimit="10"/></g><g transform="translate(-97,-590) scale(1,1)"><g><path fill="none" stroke="none"/><text fill="#000000" stroke="none" font-family="Arial" font-size="13px" font-style="normal" font-weight="normal" text-decoration="none" x="1602.0400390625" y="768">5673</text></g></g><g transform="translate(-97,-590) scale(1,1)"><path fill="#C0C0C0" stroke="none" d="M 502.7099609375 914.5 C 502.7099609375 908.1487248 507.8586857375 903 514.2099609375 903 C 520.5612361375 903 525.7099609375 908.1487248 525.7099609375 914.5 C 525.7099609375 920.8512752 520.5612361375 926 514.2099609375 926 C 507.8586857375 926 502.7099609375 920.8512752 502.7099609375 914.5 Z" opacity="0.2"/></g><g transform="translate(-97,-590) scale(1,1)"><path fill="none" stroke="#000000" d="M 498.8682720163547 915.1317279836453 A 11.5 11.5 0 0 1 515.1317279836453 898.8682720163547" stroke-miterlimit="10"/></g><g transform="translate(-97,-590) scale(1,1)"><path fill="#ffffff" stroke="none" d="M 498.7099609375 907.5 C 498.7099609375 902.8055792 502.5155401375 899 507.2099609375 899 C 511.9043817375 899 515.7099609375 902.8055792 515.7099609375 907.5 C 515.7099609375 912.1944208 511.9043817375 916 507.2099609375 916 C 502.5155401375 916 498.7099609375 912.1944208 498.7099609375 907.5 Z"/></g><g transform="translate(-97,-590) scale(1,1)"><path fill="none" stroke="#000000" d="M 498.7099609375 907.5 C 498.7099609375 902.8055792 502.5155401375 899 507.2099609375 899 C 511.9043817375 899 515.7099609375 902.8055792 515.7099609375 907.5 C 515.7099609375 912.1944208 511.9043817375 916 507.2099609375 916 C 502.5155401375 916 498.7099609375 912.1944208 498.7099609375 907.5 Z" stroke-miterlimit="10"/></g><g transform="translate(-97,-590) scale(1,1)"><g><path fill="none" stroke="none"/><text fill="#000000" stroke="none" font-family="Arial" font-size="13px" font-style="normal" font-weight="bold" text-decoration="none" x="489.87451171875" y="938.5">REST</text></g></g><g transform="translate(-97,-590) scale(1,1)"><path fill="none" stroke="#000000" d="M 507 968 L 507 919" stroke-miterlimit="10"/></g><g transform="translate(-97,-590) scale(1,1)"><path fill="none" stroke="#000000" d="M 496 812 L 496 896" stroke-miterlimit="10"/></g><g transform="translate(-97,-590) scale(1,1)"><g><path fill="none" stroke="none"/><text fill="#000000" stroke="none" font-family="Arial" font-size="13px" font-style="normal" font-weight="normal" text-decoration="none" x="495.5" y="859.5">+http</text></g></g><g transform="translate(-97,-590) scale(1,1)"><rect fill="#C0C0C0" stroke="none" x="409" y="1559" width="178.66259765625" height="44" opacity="0.2"/></g><g transform="translate(-97,-590) scale(1,1)"><rect fill="#ffd8d8" stroke="none" x="402" y="1552" width="178.66259765625" height="44"/></g><g transform="translate(-97,-590) scale(1,1)"><path fill="none" stroke="#000000" d="M 402 1552 L 580.66259765625 1552 L 580.66259765625 1596 L 402 1596 L 402 1552 Z Z" stroke-miterlimit="10"/></g><g transform="translate(-97,-590) scale(1,1)"><rect fill="#ffd8d8" stroke="none" x="392" y="1559" width="20" height="10"/></g><g transform="translate(-97,-590) scale(1,1)"><path fill="none" stroke="#000000" d="M 392 1559 L 412 1559 L 412 1569 L 392 1569 L 392 1559 Z Z" stroke-miterlimit="10"/></g><g transform="translate(-97,-590) scale(1,1)"><rect fill="#ffd8d8" stroke="none" x="392" y="1579" width="20" height="10"/></g><g transform="translate(-97,-590) scale(1,1)"><path fill="none" stroke="#000000" d="M 392 1579 L 412 1579 L 412 1589 L 392 1589 L 392 1579 Z Z" stroke-miterlimit="10"/></g><g transform="translate(-97,-590) scale(1,1)"><g><path fill="none" stroke="none"/><text fill="#000000" stroke="none" font-family="Arial" font-size="13px" font-style="normal" font-weight="normal" text-decoration="none" x="476.456787109375" y="1569.5">«cron»</text></g></g><g transform="translate(-97,-590) scale(1,1)"><g><path fill="none" stroke="none"/><text fill="#000000" stroke="none" font-family="Arial" font-size="13px" font-style="normal" font-weight="bold" text-decoration="none" x="422.977783203125" y="1584.5">script_install_dab_app.sh</text></g></g><g transform="translate(-97,-590) scale(1,1)"><path fill="#C0C0C0" stroke="none" d="M 415 1425 L 564 1425 L 564 1518 L 415 1518" opacity="0.2"/></g><g transform="translate(-97,-590) scale(1,1)"><path fill="#C0C0C0" stroke="none" d="M 415 1425 L 425 1415 L 574 1415 L 564 1425" opacity="0.2"/></g><g transform="translate(-97,-590) scale(1,1)"><path fill="#C0C0C0" stroke="none" d="M 574 1415 L 564 1425 L 564 1518 L 574 1508" opacity="0.2"/></g><g transform="translate(-97,-590) scale(1,1)"><path fill="#ffffff" stroke="none" d="M 408 1418 L 557 1418 L 557 1511 L 408 1511"/></g><g transform="translate(-97,-590) scale(1,1)"><path fill="#ffffff" stroke="none" d="M 408 1418 L 418 1408 L 567 1408 L 557 1418"/></g><g transform="translate(-97,-590) scale(1,1)"><path fill="#ffffff" stroke="none" d="M 567 1408 L 557 1418 L 557 1511 L 567 1501"/></g><g transform="translate(-97,-590) scale(1,1)"><path fill="none" stroke="#000000" d="M 408 1418 L 557 1418 L 557 1511 L 408 1511 L 408 1418" stroke-miterlimit="10"/></g><g transform="translate(-97,-590) scale(1,1)"><path fill="none" stroke="#000000" d="M 408 1418 L 418 1408 L 567 1408 L 557 1418 L 408 1418" stroke-miterlimit="10"/></g><g transform="translate(-97,-590) scale(1,1)"><path fill="none" stroke="#000000" d="M 567 1408 L 557 1418 L 557 1511 L 567 1501 L 567 1408" stroke-miterlimit="10"/></g><g transform="translate(-97,-590) scale(1,1)"><g><path fill="none" stroke="none"/><text fill="#000000" stroke="none" font-family="Arial" font-size="13px" font-style="normal" font-weight="normal" text-decoration="none" x="449.030517578125" y="1435.5">«container»</text></g></g><g transform="translate(-97,-590) scale(1,1)"><g><path fill="none" stroke="none"/><text fill="#000000" stroke="none" font-family="Arial" font-size="13px" font-style="normal" font-weight="bold" text-decoration="none" x="473.970458984375" y="1450.5">DB</text></g></g><g transform="translate(-97,-590) scale(1,1)"><rect fill="#ffffff" stroke="none" x="503" y="1401" width="14" height="14"/></g><g transform="translate(-97,-590) scale(1,1)"><path fill="none" stroke="#000000" d="M 503 1401 L 517 1401 L 517 1415 L 503 1415 L 503 1401 Z Z" stroke-miterlimit="10"/></g><g transform="translate(-97,-590) scale(1,1)"><g><path fill="none" stroke="none"/><text fill="#000000" stroke="none" font-family="Arial" font-size="13px" font-style="normal" font-weight="normal" text-decoration="none" x="480.0400390625" y="1399">6379</text></g></g><g transform="translate(-97,-590) scale(1,1)"><rect fill="#C0C0C0" stroke="none" x="449" y="1463" width="98.44091796875" height="44" opacity="0.2"/></g><g transform="translate(-97,-590) scale(1,1)"><rect fill="#ffd8d8" stroke="none" x="442" y="1456" width="98.44091796875" height="44"/></g><g transform="translate(-97,-590) scale(1,1)"><path fill="none" stroke="#000000" d="M 442 1456 L 540.44091796875 1456 L 540.44091796875 1500 L 442 1500 L 442 1456 Z Z" stroke-miterlimit="10"/></g><g transform="translate(-97,-590) scale(1,1)"><rect fill="#ffd8d8" stroke="none" x="432" y="1463" width="20" height="10"/></g><g transform="translate(-97,-590) scale(1,1)"><path fill="none" stroke="#000000" d="M 432 1463 L 452 1463 L 452 1473 L 432 1473 L 432 1463 Z Z" stroke-miterlimit="10"/></g><g transform="translate(-97,-590) scale(1,1)"><rect fill="#ffd8d8" stroke="none" x="432" y="1483" width="20" height="10"/></g><g transform="translate(-97,-590) scale(1,1)"><path fill="none" stroke="#000000" d="M 432 1483 L 452 1483 L 452 1493 L 432 1493 L 432 1483 Z Z" stroke-miterlimit="10"/></g><g transform="translate(-97,-590) scale(1,1)"><g><path fill="none" stroke="none"/><text fill="#000000" stroke="none" font-family="Arial" font-size="13px" font-style="normal" font-weight="normal" text-decoration="none" x="460.0927734375" y="1473.5">«Dockerfile»</text></g></g><g transform="translate(-97,-590) scale(1,1)"><g><path fill="none" stroke="none"/><text fill="#000000" stroke="none" font-family="Arial" font-size="13px" font-style="normal" font-weight="bold" text-decoration="none" x="482.1318359375" y="1488.5">redis</text></g></g></g></svg>