<svg version="1.1" xmlns="http://www.w3.org/2000/svg" xmlns:xlink="http://www.w3.org/1999/xlink" width="1180" height="524"><defs/><g><g transform="translate(-336,-288) scale(1,1)"><path fill="#C0C0C0" stroke="none" d="M 478 319 L 715 319 L 715 808 L 478 808" opacity="0.2"/></g><g transform="translate(-336,-288) scale(1,1)"><path fill="#C0C0C0" stroke="none" d="M 478 319 L 488 309 L 725 309 L 715 319" opacity="0.2"/></g><g transform="translate(-336,-288) scale(1,1)"><path fill="#C0C0C0" stroke="none" d="M 725 309 L 715 319 L 715 808 L 725 798" opacity="0.2"/></g><g transform="translate(-336,-288) scale(1,1)"><path fill="#ffffff" stroke="none" d="M 471 312 L 708 312 L 708 801 L 471 801"/></g><g transform="translate(-336,-288) scale(1,1)"><path fill="#ffffff" stroke="none" d="M 471 312 L 481 302 L 718 302 L 708 312"/></g><g transform="translate(-336,-288) scale(1,1)"><path fill="#ffffff" stroke="none" d="M 718 302 L 708 312 L 708 801 L 718 791"/></g><g transform="translate(-336,-288) scale(1,1)"><path fill="none" stroke="#000000" d="M 471 312 L 708 312 L 708 801 L 471 801 L 471 312" stroke-miterlimit="10"/></g><g transform="translate(-336,-288) scale(1,1)"><path fill="none" stroke="#000000" d="M 471 312 L 481 302 L 718 302 L 708 312 L 471 312" stroke-miterlimit="10"/></g><g transform="translate(-336,-288) scale(1,1)"><path fill="none" stroke="#000000" d="M 718 302 L 708 312 L 708 801 L 718 791 L 718 302" stroke-miterlimit="10"/></g><g transform="translate(-336,-288) scale(1,1)"><g><path fill="none" stroke="none"/><text fill="#000000" stroke="none" font-family="Arial" font-size="13px" font-style="normal" font-weight="normal" text-decoration="none" x="538.3173828125" y="329.5">«Ubuntu 16.04.1»</text></g></g><g transform="translate(-336,-288) scale(1,1)"><g><path fill="none" stroke="none"/><text fill="#000000" stroke="none" font-family="Arial" font-size="13px" font-style="normal" font-weight="bold" text-decoration="none" x="555.31005859375" y="344.5">EsiBankLab</text></g></g><g transform="translate(-336,-288) scale(1,1)"><path fill="#C0C0C0" stroke="none" d="M 518 399 L 667 399 L 667 516 L 518 516" opacity="0.2"/></g><g transform="translate(-336,-288) scale(1,1)"><path fill="#C0C0C0" stroke="none" d="M 518 399 L 528 389 L 677 389 L 667 399" opacity="0.2"/></g><g transform="translate(-336,-288) scale(1,1)"><path fill="#C0C0C0" stroke="none" d="M 677 389 L 667 399 L 667 516 L 677 506" opacity="0.2"/></g><g transform="translate(-336,-288) scale(1,1)"><path fill="#ffffff" stroke="none" d="M 511 392 L 660 392 L 660 509 L 511 509"/></g><g transform="translate(-336,-288) scale(1,1)"><path fill="#ffffff" stroke="none" d="M 511 392 L 521 382 L 670 382 L 660 392"/></g><g transform="translate(-336,-288) scale(1,1)"><path fill="#ffffff" stroke="none" d="M 670 382 L 660 392 L 660 509 L 670 499"/></g><g transform="translate(-336,-288) scale(1,1)"><path fill="none" stroke="#000000" d="M 511 392 L 660 392 L 660 509 L 511 509 L 511 392" stroke-miterlimit="10"/></g><g transform="translate(-336,-288) scale(1,1)"><path fill="none" stroke="#000000" d="M 511 392 L 521 382 L 670 382 L 660 392 L 511 392" stroke-miterlimit="10"/></g><g transform="translate(-336,-288) scale(1,1)"><path fill="none" stroke="#000000" d="M 670 382 L 660 392 L 660 509 L 670 499 L 670 382" stroke-miterlimit="10"/></g><g transform="translate(-336,-288) scale(1,1)"><g><path fill="none" stroke="none"/><text fill="#000000" stroke="none" font-family="Arial" font-size="13px" font-style="normal" font-weight="normal" text-decoration="none" x="552.030517578125" y="409.5">«container»</text></g></g><g transform="translate(-336,-288) scale(1,1)"><g><path fill="none" stroke="none"/><text fill="#000000" stroke="none" font-family="Arial" font-size="13px" font-style="normal" font-weight="bold" text-decoration="none" x="555.655029296875" y="424.5">securerest</text></g></g><g transform="translate(-336,-288) scale(1,1)"><path fill="#C0C0C0" stroke="none" d="M 518 675 L 667 675 L 667 792 L 518 792" opacity="0.2"/></g><g transform="translate(-336,-288) scale(1,1)"><path fill="#C0C0C0" stroke="none" d="M 518 675 L 528 665 L 677 665 L 667 675" opacity="0.2"/></g><g transform="translate(-336,-288) scale(1,1)"><path fill="#C0C0C0" stroke="none" d="M 677 665 L 667 675 L 667 792 L 677 782" opacity="0.2"/></g><g transform="translate(-336,-288) scale(1,1)"><path fill="#ffffff" stroke="none" d="M 511 668 L 660 668 L 660 785 L 511 785"/></g><g transform="translate(-336,-288) scale(1,1)"><path fill="#ffffff" stroke="none" d="M 511 668 L 521 658 L 670 658 L 660 668"/></g><g transform="translate(-336,-288) scale(1,1)"><path fill="#ffffff" stroke="none" d="M 670 658 L 660 668 L 660 785 L 670 775"/></g><g transform="translate(-336,-288) scale(1,1)"><path fill="none" stroke="#000000" d="M 511 668 L 660 668 L 660 785 L 511 785 L 511 668" stroke-miterlimit="10"/></g><g transform="translate(-336,-288) scale(1,1)"><path fill="none" stroke="#000000" d="M 511 668 L 521 658 L 670 658 L 660 668 L 511 668" stroke-miterlimit="10"/></g><g transform="translate(-336,-288) scale(1,1)"><path fill="none" stroke="#000000" d="M 670 658 L 660 668 L 660 785 L 670 775 L 670 658" stroke-miterlimit="10"/></g><g transform="translate(-336,-288) scale(1,1)"><g><path fill="none" stroke="none"/><text fill="#000000" stroke="none" font-family="Arial" font-size="13px" font-style="normal" font-weight="normal" text-decoration="none" x="552.030517578125" y="685.5">«container»</text></g></g><g transform="translate(-336,-288) scale(1,1)"><g><path fill="none" stroke="none"/><text fill="#000000" stroke="none" font-family="Arial" font-size="13px" font-style="normal" font-weight="bold" text-decoration="none" x="553.119140625" y="700.5">dataaccess</text></g></g><g transform="translate(-336,-288) scale(1,1)"><rect fill="#C0C0C0" stroke="none" x="544" y="453" width="111.5107421875" height="44" opacity="0.2"/></g><g transform="translate(-336,-288) scale(1,1)"><rect fill="#ebd8ff" stroke="none" x="537" y="446" width="111.5107421875" height="44"/></g><g transform="translate(-336,-288) scale(1,1)"><path fill="none" stroke="#000000" d="M 537 446 L 648.5107421875 446 L 648.5107421875 490 L 537 490 L 537 446 Z Z" stroke-miterlimit="10"/></g><g transform="translate(-336,-288) scale(1,1)"><rect fill="#ebd8ff" stroke="none" x="527" y="453" width="20" height="10"/></g><g transform="translate(-336,-288) scale(1,1)"><path fill="none" stroke="#000000" d="M 527 453 L 547 453 L 547 463 L 527 463 L 527 453 Z Z" stroke-miterlimit="10"/></g><g transform="translate(-336,-288) scale(1,1)"><rect fill="#ebd8ff" stroke="none" x="527" y="473" width="20" height="10"/></g><g transform="translate(-336,-288) scale(1,1)"><path fill="none" stroke="#000000" d="M 527 473 L 547 473 L 547 483 L 527 483 L 527 473 Z Z" stroke-miterlimit="10"/></g><g transform="translate(-336,-288) scale(1,1)"><g><path fill="none" stroke="none"/><text fill="#000000" stroke="none" font-family="Arial" font-size="13px" font-style="normal" font-weight="normal" text-decoration="none" x="583.3017578125" y="463.5">«jar»</text></g></g><g transform="translate(-336,-288) scale(1,1)"><g><path fill="none" stroke="none"/><text fill="#000000" stroke="none" font-family="Arial" font-size="13px" font-style="normal" font-weight="bold" text-decoration="none" x="556.568603515625" y="478.5">securerest 1.0</text></g></g><g transform="translate(-336,-288) scale(1,1)"><rect fill="#C0C0C0" stroke="none" x="544" y="721" width="110.79345703125" height="44" opacity="0.2"/></g><g transform="translate(-336,-288) scale(1,1)"><rect fill="#ebd8ff" stroke="none" x="537" y="714" width="110.79345703125" height="44"/></g><g transform="translate(-336,-288) scale(1,1)"><path fill="none" stroke="#000000" d="M 537 714 L 647.79345703125 714 L 647.79345703125 758 L 537 758 L 537 714 Z Z" stroke-miterlimit="10"/></g><g transform="translate(-336,-288) scale(1,1)"><rect fill="#ebd8ff" stroke="none" x="527" y="721" width="20" height="10"/></g><g transform="translate(-336,-288) scale(1,1)"><path fill="none" stroke="#000000" d="M 527 721 L 547 721 L 547 731 L 527 731 L 527 721 Z Z" stroke-miterlimit="10"/></g><g transform="translate(-336,-288) scale(1,1)"><rect fill="#ebd8ff" stroke="none" x="527" y="741" width="20" height="10"/></g><g transform="translate(-336,-288) scale(1,1)"><path fill="none" stroke="#000000" d="M 527 741 L 547 741 L 547 751 L 527 751 L 527 741 Z Z" stroke-miterlimit="10"/></g><g transform="translate(-336,-288) scale(1,1)"><g><path fill="none" stroke="none"/><text fill="#000000" stroke="none" font-family="Arial" font-size="13px" font-style="normal" font-weight="normal" text-decoration="none" x="582.943115234375" y="731.5">«jar»</text></g></g><g transform="translate(-336,-288) scale(1,1)"><g><path fill="none" stroke="none"/><text fill="#000000" stroke="none" font-family="Arial" font-size="13px" font-style="normal" font-weight="bold" text-decoration="none" x="553.674072265625" y="746.5">dataaccess 1.0</text></g></g><g transform="translate(-336,-288) scale(1,1)"><path fill="#C0C0C0" stroke="none" d="M 913 683 L 1078 683 L 1078 800 L 913 800" opacity="0.2"/></g><g transform="translate(-336,-288) scale(1,1)"><path fill="#C0C0C0" stroke="none" d="M 913 683 L 923 673 L 1088 673 L 1078 683" opacity="0.2"/></g><g transform="translate(-336,-288) scale(1,1)"><path fill="#C0C0C0" stroke="none" d="M 1088 673 L 1078 683 L 1078 800 L 1088 790" opacity="0.2"/></g><g transform="translate(-336,-288) scale(1,1)"><path fill="#ffffff" stroke="none" d="M 906 676 L 1071 676 L 1071 793 L 906 793"/></g><g transform="translate(-336,-288) scale(1,1)"><path fill="#ffffff" stroke="none" d="M 906 676 L 916 666 L 1081 666 L 1071 676"/></g><g transform="translate(-336,-288) scale(1,1)"><path fill="#ffffff" stroke="none" d="M 1081 666 L 1071 676 L 1071 793 L 1081 783"/></g><g transform="translate(-336,-288) scale(1,1)"><path fill="none" stroke="#000000" d="M 906 676 L 1071 676 L 1071 793 L 906 793 L 906 676" stroke-miterlimit="10"/></g><g transform="translate(-336,-288) scale(1,1)"><path fill="none" stroke="#000000" d="M 906 676 L 916 666 L 1081 666 L 1071 676 L 906 676" stroke-miterlimit="10"/></g><g transform="translate(-336,-288) scale(1,1)"><path fill="none" stroke="#000000" d="M 1081 666 L 1071 676 L 1071 793 L 1081 783 L 1081 666" stroke-miterlimit="10"/></g><g transform="translate(-336,-288) scale(1,1)"><g><path fill="none" stroke="none"/><text fill="#000000" stroke="none" font-family="Arial" font-size="13px" font-style="normal" font-weight="normal" text-decoration="none" x="937.3173828125" y="693.5">«Ubuntu 16.04.1»</text></g></g><g transform="translate(-336,-288) scale(1,1)"><g><path fill="none" stroke="none"/><text fill="#000000" stroke="none" font-family="Arial" font-size="13px" font-style="normal" font-weight="bold" text-decoration="none" x="943.830078125" y="708.5">Prod_Database</text></g></g><g transform="translate(-336,-288) scale(1,1)"><rect fill="#C0C0C0" stroke="none" x="947" y="729" width="107.14990234375" height="44" opacity="0.2"/></g><g transform="translate(-336,-288) scale(1,1)"><rect fill="#ffffff" stroke="none" x="940" y="722" width="107.14990234375" height="44"/></g><g transform="translate(-336,-288) scale(1,1)"><path fill="none" stroke="#000000" d="M 940 722 L 1047.14990234375 722 L 1047.14990234375 766 L 940 766 L 940 722 Z Z" stroke-miterlimit="10"/></g><g transform="translate(-336,-288) scale(1,1)"><rect fill="#ffffff" stroke="none" x="930" y="729" width="20" height="10"/></g><g transform="translate(-336,-288) scale(1,1)"><path fill="none" stroke="#000000" d="M 930 729 L 950 729 L 950 739 L 930 739 L 930 729 Z Z" stroke-miterlimit="10"/></g><g transform="translate(-336,-288) scale(1,1)"><rect fill="#ffffff" stroke="none" x="930" y="749" width="20" height="10"/></g><g transform="translate(-336,-288) scale(1,1)"><path fill="none" stroke="#000000" d="M 930 749 L 950 749 L 950 759 L 930 759 L 930 749 Z Z" stroke-miterlimit="10"/></g><g transform="translate(-336,-288) scale(1,1)"><g><path fill="none" stroke="none"/><text fill="#000000" stroke="none" font-family="Arial" font-size="13px" font-style="normal" font-weight="normal" text-decoration="none" x="973.285888671875" y="739.5">«server»</text></g></g><g transform="translate(-336,-288) scale(1,1)"><g><path fill="none" stroke="none"/><text fill="#000000" stroke="none" font-family="Arial" font-size="13px" font-style="normal" font-weight="bold" text-decoration="none" x="955.220458984375" y="754.5">MySQL  5.7.21</text></g></g><g transform="translate(-336,-288) scale(1,1)"><path fill="#C0C0C0" stroke="none" d="M 808.7099609375 732.5 C 808.7099609375 726.1487248 813.8586857375 721 820.2099609375 721 C 826.5612361375 721 831.7099609375 726.1487248 831.7099609375 732.5 C 831.7099609375 738.8512752 826.5612361375 744 820.2099609375 744 C 813.8586857375 744 808.7099609375 738.8512752 808.7099609375 732.5 Z" opacity="0.2"/></g><g transform="translate(-336,-288) scale(1,1)"><path fill="none" stroke="#000000" d="M 813 736.5 A 11.5 11.5 0 0 1 813 713.5" stroke-miterlimit="10"/></g><g transform="translate(-336,-288) scale(1,1)"><path fill="#ffffff" stroke="none" d="M 804.7099609375 725.5 C 804.7099609375 720.8055792 808.5155401375 717 813.2099609375 717 C 817.9043817375 717 821.7099609375 720.8055792 821.7099609375 725.5 C 821.7099609375 730.1944208 817.9043817375 734 813.2099609375 734 C 808.5155401375 734 804.7099609375 730.1944208 804.7099609375 725.5 Z"/></g><g transform="translate(-336,-288) scale(1,1)"><path fill="none" stroke="#000000" d="M 804.7099609375 725.5 C 804.7099609375 720.8055792 808.5155401375 717 813.2099609375 717 C 817.9043817375 717 821.7099609375 720.8055792 821.7099609375 725.5 C 821.7099609375 730.1944208 817.9043817375 734 813.2099609375 734 C 808.5155401375 734 804.7099609375 730.1944208 804.7099609375 725.5 Z" stroke-miterlimit="10"/></g><g transform="translate(-336,-288) scale(1,1)"><g><path fill="none" stroke="none"/><text fill="#000000" stroke="none" font-family="Arial" font-size="13px" font-style="normal" font-weight="bold" text-decoration="none" x="800.2099609375" y="756.5">TCP</text></g></g><g transform="translate(-336,-288) scale(1,1)"><path fill="none" stroke="#000000" d="M 906 725 L 824.7099609375 725" stroke-miterlimit="10"/></g><g transform="translate(-336,-288) scale(1,1)"><g><path fill="none" stroke="none"/><text fill="#000000" stroke="none" font-family="Arial" font-size="13px" font-style="normal" font-weight="normal" text-decoration="none" x="829.5" y="717.5">+tcp:3306</text></g></g><g transform="translate(-336,-288) scale(1,1)"><path fill="none" stroke="#000000" d="M 671 725 L 801.7099609375 725" stroke-miterlimit="10"/></g><g transform="translate(-336,-288) scale(1,1)"><path fill="#C0C0C0" stroke="none" d="M 581.7099609375 588.5 C 581.7099609375 582.1487248 586.8586857375 577 593.2099609375 577 C 599.5612361375 577 604.7099609375 582.1487248 604.7099609375 588.5 C 604.7099609375 594.8512752 599.5612361375 600 593.2099609375 600 C 586.8586857375 600 581.7099609375 594.8512752 581.7099609375 588.5 Z" opacity="0.2"/></g><g transform="translate(-336,-288) scale(1,1)"><path fill="none" stroke="#000000" d="M 586 569.5 A 11.5 11.5 0 0 1 586 592.5" stroke-miterlimit="10"/></g><g transform="translate(-336,-288) scale(1,1)"><path fill="#ffffff" stroke="none" d="M 577.7099609375 581.5 C 577.7099609375 576.8055792 581.5155401375 573 586.2099609375 573 C 590.9043817375 573 594.7099609375 576.8055792 594.7099609375 581.5 C 594.7099609375 586.1944208 590.9043817375 590 586.2099609375 590 C 581.5155401375 590 577.7099609375 586.1944208 577.7099609375 581.5 Z"/></g><g transform="translate(-336,-288) scale(1,1)"><path fill="none" stroke="#000000" d="M 577.7099609375 581.5 C 577.7099609375 576.8055792 581.5155401375 573 586.2099609375 573 C 590.9043817375 573 594.7099609375 576.8055792 594.7099609375 581.5 C 594.7099609375 586.1944208 590.9043817375 590 586.2099609375 590 C 581.5155401375 590 577.7099609375 586.1944208 577.7099609375 581.5 Z" stroke-miterlimit="10"/></g><g transform="translate(-336,-288) scale(1,1)"><g><path fill="none" stroke="none"/><text fill="#000000" stroke="none" font-family="Arial" font-size="13px" font-style="normal" font-weight="bold" text-decoration="none" x="568.87451171875" y="612.5">REST</text></g></g><g transform="translate(-336,-288) scale(1,1)"><path fill="none" stroke="#000000" d="M 527 658 L 527 581 L 574.7099609375 581" stroke-miterlimit="10"/></g><g transform="translate(-336,-288) scale(1,1)"><g><path fill="none" stroke="none"/><text fill="#000000" stroke="none" font-family="Arial" font-size="13px" font-style="normal" font-weight="normal" text-decoration="none" x="503.5" y="572.5">+http:80</text></g></g><g transform="translate(-336,-288) scale(1,1)"><path fill="none" stroke="#000000" d="M 639 510 L 639 581 L 597.7099609375 581" stroke-miterlimit="10"/></g><g transform="translate(-336,-288) scale(1,1)"><path fill="#C0C0C0" stroke="none" d="M 376.7099609375 564.5 C 376.7099609375 558.1487248 381.8586857375 553 388.2099609375 553 C 394.5612361375 553 399.7099609375 558.1487248 399.7099609375 564.5 C 399.7099609375 570.8512752 394.5612361375 576 388.2099609375 576 C 381.8586857375 576 376.7099609375 570.8512752 376.7099609375 564.5 Z" opacity="0.2"/></g><g transform="translate(-336,-288) scale(1,1)"><path fill="#ffffff" stroke="none" d="M 369.7099609375 557.5 C 369.7099609375 551.1487248 374.8586857375 546 381.2099609375 546 C 387.5612361375 546 392.7099609375 551.1487248 392.7099609375 557.5 C 392.7099609375 563.8512752 387.5612361375 569 381.2099609375 569 C 374.8586857375 569 369.7099609375 563.8512752 369.7099609375 557.5 Z"/></g><g transform="translate(-336,-288) scale(1,1)"><path fill="none" stroke="#000000" d="M 369.7099609375 557.5 C 369.7099609375 551.1487248 374.8586857375 546 381.2099609375 546 C 387.5612361375 546 392.7099609375 551.1487248 392.7099609375 557.5 C 392.7099609375 563.8512752 387.5612361375 569 381.2099609375 569 C 374.8586857375 569 369.7099609375 563.8512752 369.7099609375 557.5 Z" stroke-miterlimit="10"/></g><g transform="translate(-336,-288) scale(1,1)"><g><path fill="none" stroke="none"/><text fill="#000000" stroke="none" font-family="Arial" font-size="13px" font-style="normal" font-weight="bold" text-decoration="none" x="363.87451171875" y="588.5">REST</text></g></g><g transform="translate(-336,-288) scale(1,1)"><path fill="none" stroke="#000000" d="M 511 450 L 426 450 L 426 557 L 392.7099609375 557" stroke-miterlimit="10"/></g><g transform="translate(-336,-288) scale(1,1)"><g><path fill="none" stroke="none"/><text fill="#000000" stroke="none" font-family="Arial" font-size="13px" font-style="normal" font-weight="normal" text-decoration="none" x="392.5" y="446.5">+https:4321</text></g></g><g transform="translate(-336,-288) scale(1,1)"><path fill="#ffffff" stroke="none" d="M 1306 642 L 1471 642 L 1481 652 L 1481 745 L 1306 745 L 1306 642"/></g><g transform="translate(-336,-288) scale(1,1)"><path fill="none" stroke="#000000" d="M 1306 642 L 1471 642 L 1481 652 L 1481 745 L 1306 745 L 1306 642 L 1306 642" stroke-miterlimit="10"/></g><g transform="translate(-336,-288) scale(1,1)"><path fill="none" stroke="#000000" d="M 1471 642 L 1471 652 L 1481 652 L 1471 642" stroke-miterlimit="10"/></g><g transform="translate(-336,-288) scale(1,1)"><path fill="#ffd8d8" stroke="none" d="M 1324.6666666666667 650 L 1366.3333333333333 650 Q 1377 650 1377 660.6666666666666 L 1377 671.3333333333334 Q 1377 682 1366.3333333333333 682 L 1324.6666666666667 682 Q 1314 682 1314 671.3333333333334 L 1314 660.6666666666666 Q 1314 650 1324.6666666666667 650 Z"/></g><g transform="translate(-336,-288) scale(1,1)"><path fill="none" stroke="#000000" d="M 1324.6666666666667 650 L 1366.3333333333333 650 Q 1377 650 1377 660.6666666666666 L 1377 671.3333333333334 Q 1377 682 1366.3333333333333 682 L 1324.6666666666667 682 Q 1314 682 1314 671.3333333333334 L 1314 660.6666666666666 Q 1314 650 1324.6666666666667 650 Z" stroke-miterlimit="10"/></g><g transform="translate(-336,-288) scale(1,1)"><path fill="#ebd8ff" stroke="none" d="M 1324.6666666666667 698 L 1366.3333333333333 698 Q 1377 698 1377 708.6666666666666 L 1377 719.3333333333334 Q 1377 730 1366.3333333333333 730 L 1324.6666666666667 730 Q 1314 730 1314 719.3333333333334 L 1314 708.6666666666666 Q 1314 698 1324.6666666666667 698 Z"/></g><g transform="translate(-336,-288) scale(1,1)"><path fill="none" stroke="#000000" d="M 1324.6666666666667 698 L 1366.3333333333333 698 Q 1377 698 1377 708.6666666666666 L 1377 719.3333333333334 Q 1377 730 1366.3333333333333 730 L 1324.6666666666667 730 Q 1314 730 1314 719.3333333333334 L 1314 708.6666666666666 Q 1314 698 1324.6666666666667 698 Z" stroke-miterlimit="10"/></g><g transform="translate(-336,-288) scale(1,1)"><g><path fill="none" stroke="none"/><text fill="#000000" stroke="none" font-family="Arial" font-size="20px" font-style="normal" font-weight="normal" text-decoration="none" x="1383" y="675">Usman</text></g></g><g transform="translate(-336,-288) scale(1,1)"><g><path fill="none" stroke="none"/><text fill="#000000" stroke="none" font-family="Arial" font-size="20px" font-style="normal" font-weight="normal" text-decoration="none" x="1383" y="723">Thibault</text></g></g><g transform="translate(-336,-288) scale(1,1)"><path fill="#C0C0C0" stroke="none" d="M 881 315 L 1142 315 L 1142 640 L 881 640" opacity="0.2"/></g><g transform="translate(-336,-288) scale(1,1)"><path fill="#C0C0C0" stroke="none" d="M 881 315 L 891 305 L 1152 305 L 1142 315" opacity="0.2"/></g><g transform="translate(-336,-288) scale(1,1)"><path fill="#C0C0C0" stroke="none" d="M 1152 305 L 1142 315 L 1142 640 L 1152 630" opacity="0.2"/></g><g transform="translate(-336,-288) scale(1,1)"><path fill="#ffffff" stroke="none" d="M 874 308 L 1135 308 L 1135 633 L 874 633"/></g><g transform="translate(-336,-288) scale(1,1)"><path fill="#ffffff" stroke="none" d="M 874 308 L 884 298 L 1145 298 L 1135 308"/></g><g transform="translate(-336,-288) scale(1,1)"><path fill="#ffffff" stroke="none" d="M 1145 298 L 1135 308 L 1135 633 L 1145 623"/></g><g transform="translate(-336,-288) scale(1,1)"><path fill="none" stroke="#000000" d="M 874 308 L 1135 308 L 1135 633 L 874 633 L 874 308" stroke-miterlimit="10"/></g><g transform="translate(-336,-288) scale(1,1)"><path fill="none" stroke="#000000" d="M 874 308 L 884 298 L 1145 298 L 1135 308 L 874 308" stroke-miterlimit="10"/></g><g transform="translate(-336,-288) scale(1,1)"><path fill="none" stroke="#000000" d="M 1145 298 L 1135 308 L 1135 633 L 1145 623 L 1145 298" stroke-miterlimit="10"/></g><g transform="translate(-336,-288) scale(1,1)"><g><path fill="none" stroke="none"/><text fill="#000000" stroke="none" font-family="Arial" font-size="13px" font-style="normal" font-weight="normal" text-decoration="none" x="953.3173828125" y="325.5">«Ubuntu 16.04.1»</text></g></g><g transform="translate(-336,-288) scale(1,1)"><g><path fill="none" stroke="none"/><text fill="#000000" stroke="none" font-family="Arial" font-size="13px" font-style="normal" font-weight="bold" text-decoration="none" x="980.7900390625" y="340.5">NotifLab</text></g></g><g transform="translate(-336,-288) scale(1,1)"><path fill="#C0C0C0" stroke="none" d="M 897 507 L 1118 507 L 1118 624 L 897 624" opacity="0.2"/></g><g transform="translate(-336,-288) scale(1,1)"><path fill="#C0C0C0" stroke="none" d="M 897 507 L 907 497 L 1128 497 L 1118 507" opacity="0.2"/></g><g transform="translate(-336,-288) scale(1,1)"><path fill="#C0C0C0" stroke="none" d="M 1128 497 L 1118 507 L 1118 624 L 1128 614" opacity="0.2"/></g><g transform="translate(-336,-288) scale(1,1)"><path fill="#ffffff" stroke="none" d="M 890 500 L 1111 500 L 1111 617 L 890 617"/></g><g transform="translate(-336,-288) scale(1,1)"><path fill="#ffffff" stroke="none" d="M 890 500 L 900 490 L 1121 490 L 1111 500"/></g><g transform="translate(-336,-288) scale(1,1)"><path fill="#ffffff" stroke="none" d="M 1121 490 L 1111 500 L 1111 617 L 1121 607"/></g><g transform="translate(-336,-288) scale(1,1)"><path fill="none" stroke="#000000" d="M 890 500 L 1111 500 L 1111 617 L 890 617 L 890 500" stroke-miterlimit="10"/></g><g transform="translate(-336,-288) scale(1,1)"><path fill="none" stroke="#000000" d="M 890 500 L 900 490 L 1121 490 L 1111 500 L 890 500" stroke-miterlimit="10"/></g><g transform="translate(-336,-288) scale(1,1)"><path fill="none" stroke="#000000" d="M 1121 490 L 1111 500 L 1111 617 L 1121 607 L 1121 490" stroke-miterlimit="10"/></g><g transform="translate(-336,-288) scale(1,1)"><g><path fill="none" stroke="none"/><text fill="#000000" stroke="none" font-family="Arial" font-size="13px" font-style="normal" font-weight="normal" text-decoration="none" x="967.030517578125" y="517.5">«container»</text></g></g><g transform="translate(-336,-288) scale(1,1)"><g><path fill="none" stroke="none"/><text fill="#000000" stroke="none" font-family="Arial" font-size="13px" font-style="normal" font-weight="bold" text-decoration="none" x="967.0400390625" y="532.5">notif_server</text></g></g><g transform="translate(-336,-288) scale(1,1)"><path fill="#C0C0C0" stroke="none" d="M 897 363 L 1118 363 L 1118 480 L 897 480" opacity="0.2"/></g><g transform="translate(-336,-288) scale(1,1)"><path fill="#C0C0C0" stroke="none" d="M 897 363 L 907 353 L 1128 353 L 1118 363" opacity="0.2"/></g><g transform="translate(-336,-288) scale(1,1)"><path fill="#C0C0C0" stroke="none" d="M 1128 353 L 1118 363 L 1118 480 L 1128 470" opacity="0.2"/></g><g transform="translate(-336,-288) scale(1,1)"><path fill="#ffffff" stroke="none" d="M 890 356 L 1111 356 L 1111 473 L 890 473"/></g><g transform="translate(-336,-288) scale(1,1)"><path fill="#ffffff" stroke="none" d="M 890 356 L 900 346 L 1121 346 L 1111 356"/></g><g transform="translate(-336,-288) scale(1,1)"><path fill="#ffffff" stroke="none" d="M 1121 346 L 1111 356 L 1111 473 L 1121 463"/></g><g transform="translate(-336,-288) scale(1,1)"><path fill="none" stroke="#000000" d="M 890 356 L 1111 356 L 1111 473 L 890 473 L 890 356" stroke-miterlimit="10"/></g><g transform="translate(-336,-288) scale(1,1)"><path fill="none" stroke="#000000" d="M 890 356 L 900 346 L 1121 346 L 1111 356 L 890 356" stroke-miterlimit="10"/></g><g transform="translate(-336,-288) scale(1,1)"><path fill="none" stroke="#000000" d="M 1121 346 L 1111 356 L 1111 473 L 1121 463 L 1121 346" stroke-miterlimit="10"/></g><g transform="translate(-336,-288) scale(1,1)"><g><path fill="none" stroke="none"/><text fill="#000000" stroke="none" font-family="Arial" font-size="13px" font-style="normal" font-weight="normal" text-decoration="none" x="967.030517578125" y="373.5">«container»</text></g></g><g transform="translate(-336,-288) scale(1,1)"><g><path fill="none" stroke="none"/><text fill="#000000" stroke="none" font-family="Arial" font-size="13px" font-style="normal" font-weight="bold" text-decoration="none" x="965.23095703125" y="388.5">push_server</text></g></g><g transform="translate(-336,-288) scale(1,1)"><rect fill="#C0C0C0" stroke="none" x="939" y="561" width="149.76806640625" height="44" opacity="0.2"/></g><g transform="translate(-336,-288) scale(1,1)"><rect fill="#ebd8ff" stroke="none" x="932" y="554" width="149.76806640625" height="44"/></g><g transform="translate(-336,-288) scale(1,1)"><path fill="none" stroke="#000000" d="M 932 554 L 1081.76806640625 554 L 1081.76806640625 598 L 932 598 L 932 554 Z Z" stroke-miterlimit="10"/></g><g transform="translate(-336,-288) scale(1,1)"><rect fill="#ebd8ff" stroke="none" x="922" y="561" width="20" height="10"/></g><g transform="translate(-336,-288) scale(1,1)"><path fill="none" stroke="#000000" d="M 922 561 L 942 561 L 942 571 L 922 571 L 922 561 Z Z" stroke-miterlimit="10"/></g><g transform="translate(-336,-288) scale(1,1)"><rect fill="#ebd8ff" stroke="none" x="922" y="581" width="20" height="10"/></g><g transform="translate(-336,-288) scale(1,1)"><path fill="none" stroke="#000000" d="M 922 581 L 942 581 L 942 591 L 922 591 L 922 581 Z Z" stroke-miterlimit="10"/></g><g transform="translate(-336,-288) scale(1,1)"><g><path fill="none" stroke="none"/><text fill="#000000" stroke="none" font-family="Arial" font-size="13px" font-style="normal" font-weight="normal" text-decoration="none" x="997.430419921875" y="571.5">«jar»</text></g></g><g transform="translate(-336,-288) scale(1,1)"><g><path fill="none" stroke="none"/><text fill="#000000" stroke="none" font-family="Arial" font-size="13px" font-style="normal" font-weight="bold" text-decoration="none" x="951.908203125" y="586.5">notificationserver 1.0</text></g></g><g transform="translate(-336,-288) scale(1,1)"><rect fill="#C0C0C0" stroke="none" x="923" y="417" width="180.82080078125" height="44" opacity="0.2"/></g><g transform="translate(-336,-288) scale(1,1)"><rect fill="#ebd8ff" stroke="none" x="916" y="410" width="180.82080078125" height="44"/></g><g transform="translate(-336,-288) scale(1,1)"><path fill="none" stroke="#000000" d="M 916 410 L 1096.82080078125 410 L 1096.82080078125 454 L 916 454 L 916 410 Z Z" stroke-miterlimit="10"/></g><g transform="translate(-336,-288) scale(1,1)"><rect fill="#ebd8ff" stroke="none" x="906" y="417" width="20" height="10"/></g><g transform="translate(-336,-288) scale(1,1)"><path fill="none" stroke="#000000" d="M 906 417 L 926 417 L 926 427 L 906 427 L 906 417 Z Z" stroke-miterlimit="10"/></g><g transform="translate(-336,-288) scale(1,1)"><rect fill="#ebd8ff" stroke="none" x="906" y="437" width="20" height="10"/></g><g transform="translate(-336,-288) scale(1,1)"><path fill="none" stroke="#000000" d="M 906 437 L 926 437 L 926 447 L 906 447 L 906 437 Z Z" stroke-miterlimit="10"/></g><g transform="translate(-336,-288) scale(1,1)"><g><path fill="none" stroke="none"/><text fill="#000000" stroke="none" font-family="Arial" font-size="13px" font-style="normal" font-weight="normal" text-decoration="none" x="996.956787109375" y="427.5">«jar»</text></g></g><g transform="translate(-336,-288) scale(1,1)"><g><path fill="none" stroke="none"/><text fill="#000000" stroke="none" font-family="Arial" font-size="13px" font-style="normal" font-weight="bold" text-decoration="none" x="937.339599609375" y="442.5">notificationpushserver 1.0</text></g></g><g transform="translate(-336,-288) scale(1,1)"><path fill="#C0C0C0" stroke="none" d="M 1337 419 L 1502 419 L 1502 544 L 1337 544" opacity="0.2"/></g><g transform="translate(-336,-288) scale(1,1)"><path fill="#C0C0C0" stroke="none" d="M 1337 419 L 1347 409 L 1512 409 L 1502 419" opacity="0.2"/></g><g transform="translate(-336,-288) scale(1,1)"><path fill="#C0C0C0" stroke="none" d="M 1512 409 L 1502 419 L 1502 544 L 1512 534" opacity="0.2"/></g><g transform="translate(-336,-288) scale(1,1)"><path fill="#ffffff" stroke="none" d="M 1330 412 L 1495 412 L 1495 537 L 1330 537"/></g><g transform="translate(-336,-288) scale(1,1)"><path fill="#ffffff" stroke="none" d="M 1330 412 L 1340 402 L 1505 402 L 1495 412"/></g><g transform="translate(-336,-288) scale(1,1)"><path fill="#ffffff" stroke="none" d="M 1505 402 L 1495 412 L 1495 537 L 1505 527"/></g><g transform="translate(-336,-288) scale(1,1)"><path fill="none" stroke="#000000" d="M 1330 412 L 1495 412 L 1495 537 L 1330 537 L 1330 412" stroke-miterlimit="10"/></g><g transform="translate(-336,-288) scale(1,1)"><path fill="none" stroke="#000000" d="M 1330 412 L 1340 402 L 1505 402 L 1495 412 L 1330 412" stroke-miterlimit="10"/></g><g transform="translate(-336,-288) scale(1,1)"><path fill="none" stroke="#000000" d="M 1505 402 L 1495 412 L 1495 537 L 1505 527 L 1505 402" stroke-miterlimit="10"/></g><g transform="translate(-336,-288) scale(1,1)"><g><path fill="none" stroke="none"/><text fill="#000000" stroke="none" font-family="Arial" font-size="13px" font-style="normal" font-weight="normal" text-decoration="none" x="1361.3173828125" y="429.5">«Ubuntu 16.04.1»</text></g></g><g transform="translate(-336,-288) scale(1,1)"><g><path fill="none" stroke="none"/><text fill="#000000" stroke="none" font-family="Arial" font-size="13px" font-style="normal" font-weight="bold" text-decoration="none" x="1379.411376953125" y="444.5">MomServer</text></g></g><g transform="translate(-336,-288) scale(1,1)"><rect fill="#C0C0C0" stroke="none" x="1363" y="473" width="120.13720703125" height="44" opacity="0.2"/></g><g transform="translate(-336,-288) scale(1,1)"><rect fill="#ffffff" stroke="none" x="1356" y="466" width="120.13720703125" height="44"/></g><g transform="translate(-336,-288) scale(1,1)"><path fill="none" stroke="#000000" d="M 1356 466 L 1476.13720703125 466 L 1476.13720703125 510 L 1356 510 L 1356 466 Z Z" stroke-miterlimit="10"/></g><g transform="translate(-336,-288) scale(1,1)"><rect fill="#ffffff" stroke="none" x="1346" y="473" width="20" height="10"/></g><g transform="translate(-336,-288) scale(1,1)"><path fill="none" stroke="#000000" d="M 1346 473 L 1366 473 L 1366 483 L 1346 483 L 1346 473 Z Z" stroke-miterlimit="10"/></g><g transform="translate(-336,-288) scale(1,1)"><rect fill="#ffffff" stroke="none" x="1346" y="493" width="20" height="10"/></g><g transform="translate(-336,-288) scale(1,1)"><path fill="none" stroke="#000000" d="M 1346 493 L 1366 493 L 1366 503 L 1346 503 L 1346 493 Z Z" stroke-miterlimit="10"/></g><g transform="translate(-336,-288) scale(1,1)"><g><path fill="none" stroke="none"/><text fill="#000000" stroke="none" font-family="Arial" font-size="13px" font-style="normal" font-weight="normal" text-decoration="none" x="1395.779541015625" y="483.5">«server»</text></g></g><g transform="translate(-336,-288) scale(1,1)"><g><path fill="none" stroke="none"/><text fill="#000000" stroke="none" font-family="Arial" font-size="13px" font-style="normal" font-weight="bold" text-decoration="none" x="1371.931396484375" y="498.5">RabbitMQ 3.6.14</text></g></g><g transform="translate(-336,-288) scale(1,1)"><path fill="#C0C0C0" stroke="none" d="M 1232.7099609375 484.5 C 1232.7099609375 478.1487248 1237.8586857375 473 1244.2099609375 473 C 1250.5612361375 473 1255.7099609375 478.1487248 1255.7099609375 484.5 C 1255.7099609375 490.8512752 1250.5612361375 496 1244.2099609375 496 C 1237.8586857375 496 1232.7099609375 490.8512752 1232.7099609375 484.5 Z" opacity="0.2"/></g><g transform="translate(-336,-288) scale(1,1)"><path fill="none" stroke="#000000" d="M 1237 488.5 A 11.5 11.5 0 0 1 1237 465.5" stroke-miterlimit="10"/></g><g transform="translate(-336,-288) scale(1,1)"><path fill="none" stroke="#000000" d="M 1225.905216055766 480.02585016660925 A 11.5 11.5 0 0 1 1248.094783944234 473.97414983339075" stroke-miterlimit="10"/></g><g transform="translate(-336,-288) scale(1,1)"><path fill="#ffffff" stroke="none" d="M 1228.7099609375 477.5 C 1228.7099609375 472.8055792 1232.5155401375 469 1237.2099609375 469 C 1241.9043817375 469 1245.7099609375 472.8055792 1245.7099609375 477.5 C 1245.7099609375 482.1944208 1241.9043817375 486 1237.2099609375 486 C 1232.5155401375 486 1228.7099609375 482.1944208 1228.7099609375 477.5 Z"/></g><g transform="translate(-336,-288) scale(1,1)"><path fill="none" stroke="#000000" d="M 1228.7099609375 477.5 C 1228.7099609375 472.8055792 1232.5155401375 469 1237.2099609375 469 C 1241.9043817375 469 1245.7099609375 472.8055792 1245.7099609375 477.5 C 1245.7099609375 482.1944208 1241.9043817375 486 1237.2099609375 486 C 1232.5155401375 486 1228.7099609375 482.1944208 1228.7099609375 477.5 Z" stroke-miterlimit="10"/></g><g transform="translate(-336,-288) scale(1,1)"><g><path fill="none" stroke="none"/><text fill="#000000" stroke="none" font-family="Arial" font-size="13px" font-style="normal" font-weight="bold" text-decoration="none" x="1218.068603515625" y="508.5">AMPQ</text></g></g><g transform="translate(-336,-288) scale(1,1)"><path fill="none" stroke="#000000" d="M 1330 477 L 1248.7099609375 477" stroke-miterlimit="10"/></g><g transform="translate(-336,-288) scale(1,1)"><g><path fill="none" stroke="none"/><text fill="#000000" stroke="none" font-family="Arial" font-size="13px" font-style="normal" font-weight="normal" text-decoration="none" x="1259.5" y="498.5">+tcp:5673</text></g></g><g transform="translate(-336,-288) scale(1,1)"><path fill="none" stroke="#000000" d="M 1122 586 L 1162 586 L 1162 477 L 1225.7099609375 477" stroke-miterlimit="10"/></g><g transform="translate(-336,-288) scale(1,1)"><path fill="none" stroke="#000000" d="M 1122 402 L 1234 402 L 1234 466" stroke-miterlimit="10"/></g><g transform="translate(-336,-288) scale(1,1)"><path fill="#C0C0C0" stroke="none" d="M 776.7099609375 556.5 C 776.7099609375 550.1487248 781.8586857375 545 788.2099609375 545 C 794.5612361375 545 799.7099609375 550.1487248 799.7099609375 556.5 C 799.7099609375 562.8512752 794.5612361375 568 788.2099609375 568 C 781.8586857375 568 776.7099609375 562.8512752 776.7099609375 556.5 Z" opacity="0.2"/></g><g transform="translate(-336,-288) scale(1,1)"><path fill="none" stroke="#000000" d="M 769.9052160557661 552.0258501666093 A 11.5 11.5 0 0 1 792.0947839442339 545.9741498333907" stroke-miterlimit="10"/></g><g transform="translate(-336,-288) scale(1,1)"><path fill="#ffffff" stroke="none" d="M 772.7099609375 549.5 C 772.7099609375 544.8055792 776.5155401375 541 781.2099609375 541 C 785.9043817375 541 789.7099609375 544.8055792 789.7099609375 549.5 C 789.7099609375 554.1944208 785.9043817375 558 781.2099609375 558 C 776.5155401375 558 772.7099609375 554.1944208 772.7099609375 549.5 Z"/></g><g transform="translate(-336,-288) scale(1,1)"><path fill="none" stroke="#000000" d="M 772.7099609375 549.5 C 772.7099609375 544.8055792 776.5155401375 541 781.2099609375 541 C 785.9043817375 541 789.7099609375 544.8055792 789.7099609375 549.5 C 789.7099609375 554.1944208 785.9043817375 558 781.2099609375 558 C 776.5155401375 558 772.7099609375 554.1944208 772.7099609375 549.5 Z" stroke-miterlimit="10"/></g><g transform="translate(-336,-288) scale(1,1)"><g><path fill="none" stroke="none"/><text fill="#000000" stroke="none" font-family="Arial" font-size="13px" font-style="normal" font-weight="bold" text-decoration="none" x="763.87451171875" y="580.5">REST</text></g></g><g transform="translate(-336,-288) scale(1,1)"><path fill="none" stroke="#000000" d="M 890 549 L 792.7099609375 549" stroke-miterlimit="10"/></g><g transform="translate(-336,-288) scale(1,1)"><g><path fill="none" stroke="none"/><text fill="#000000" stroke="none" font-family="Arial" font-size="13px" font-style="normal" font-weight="normal" text-decoration="none" x="809.5" y="570.5">+http:8080</text></g></g><g transform="translate(-336,-288) scale(1,1)"><path fill="none" stroke="#000000" d="M 671 466 L 778 466 L 778 538" stroke-miterlimit="10"/></g><g transform="translate(-336,-288) scale(1,1)"><path fill="#C0C0C0" stroke="none" d="M 768.7099609375 380.5 C 768.7099609375 374.1487248 773.8586857375 369 780.2099609375 369 C 786.5612361375 369 791.7099609375 374.1487248 791.7099609375 380.5 C 791.7099609375 386.8512752 786.5612361375 392 780.2099609375 392 C 773.8586857375 392 768.7099609375 386.8512752 768.7099609375 380.5 Z" opacity="0.2"/></g><g transform="translate(-336,-288) scale(1,1)"><path fill="#ffffff" stroke="none" d="M 761.7099609375 373.5 C 761.7099609375 367.1487248 766.8586857375 362 773.2099609375 362 C 779.5612361375 362 784.7099609375 367.1487248 784.7099609375 373.5 C 784.7099609375 379.8512752 779.5612361375 385 773.2099609375 385 C 766.8586857375 385 761.7099609375 379.8512752 761.7099609375 373.5 Z"/></g><g transform="translate(-336,-288) scale(1,1)"><path fill="none" stroke="#000000" d="M 761.7099609375 373.5 C 761.7099609375 367.1487248 766.8586857375 362 773.2099609375 362 C 779.5612361375 362 784.7099609375 367.1487248 784.7099609375 373.5 C 784.7099609375 379.8512752 779.5612361375 385 773.2099609375 385 C 766.8586857375 385 761.7099609375 379.8512752 761.7099609375 373.5 Z" stroke-miterlimit="10"/></g><g transform="translate(-336,-288) scale(1,1)"><g><path fill="none" stroke="none"/><text fill="#000000" stroke="none" font-family="Arial" font-size="13px" font-style="normal" font-weight="bold" text-decoration="none" x="760.2099609375" y="404.5">TCP</text></g></g><g transform="translate(-336,-288) scale(1,1)"><path fill="none" stroke="#000000" d="M 890 373 L 784.7099609375 373" stroke-miterlimit="10"/></g><g transform="translate(-336,-288) scale(1,1)"><g><path fill="none" stroke="none"/><text fill="#000000" stroke="none" font-family="Arial" font-size="13px" font-style="normal" font-weight="normal" text-decoration="none" x="807.5" y="394.5">+tcp:9090</text></g></g></g></svg>