<svg version="1.1" xmlns="http://www.w3.org/2000/svg" xmlns:xlink="http://www.w3.org/1999/xlink" width="588" height="812"><defs/><g><g transform="translate(-30,-166) scale(1,1)"><path fill="#C0C0C0" stroke="none" d="M 375 209 L 604 209 L 604 974 L 375 974" opacity="0.2"/></g><g transform="translate(-30,-166) scale(1,1)"><path fill="#C0C0C0" stroke="none" d="M 375 209 L 385 199 L 614 199 L 604 209" opacity="0.2"/></g><g transform="translate(-30,-166) scale(1,1)"><path fill="#C0C0C0" stroke="none" d="M 614 199 L 604 209 L 604 974 L 614 964" opacity="0.2"/></g><g transform="translate(-30,-166) scale(1,1)"><path fill="#ffffff" stroke="none" d="M 368 202 L 597 202 L 597 967 L 368 967"/></g><g transform="translate(-30,-166) scale(1,1)"><path fill="#ffffff" stroke="none" d="M 368 202 L 378 192 L 607 192 L 597 202"/></g><g transform="translate(-30,-166) scale(1,1)"><path fill="#ffffff" stroke="none" d="M 607 192 L 597 202 L 597 967 L 607 957"/></g><g transform="translate(-30,-166) scale(1,1)"><path fill="none" stroke="#000000" d="M 368 202 L 597 202 L 597 967 L 368 967 L 368 202" stroke-miterlimit="10"/></g><g transform="translate(-30,-166) scale(1,1)"><path fill="none" stroke="#000000" d="M 368 202 L 378 192 L 607 192 L 597 202 L 368 202" stroke-miterlimit="10"/></g><g transform="translate(-30,-166) scale(1,1)"><path fill="none" stroke="#000000" d="M 607 192 L 597 202 L 597 967 L 607 957 L 607 192" stroke-miterlimit="10"/></g><g transform="translate(-30,-166) scale(1,1)"><g><path fill="none" stroke="none"/><text fill="#000000" stroke="none" font-family="Arial" font-size="13px" font-style="normal" font-weight="normal" text-decoration="none" x="437.465087890625" y="219.5">«Raspbian 4.9»</text></g></g><g transform="translate(-30,-166) scale(1,1)"><g><path fill="none" stroke="none"/><text fill="#000000" stroke="none" font-family="Arial" font-size="13px" font-style="normal" font-weight="bold" text-decoration="none" x="469.635009765625" y="234.5">DAB</text></g></g><g transform="translate(-30,-166) scale(1,1)"><rect fill="#C0C0C0" stroke="none" x="409" y="383" width="166" height="44" opacity="0.2"/></g><g transform="translate(-30,-166) scale(1,1)"><rect fill="#ffffff" stroke="none" x="402" y="376" width="166" height="44"/></g><g transform="translate(-30,-166) scale(1,1)"><path fill="none" stroke="#000000" d="M 402 376 L 568 376 L 568 420 L 402 420 L 402 376 Z Z" stroke-miterlimit="10"/></g><g transform="translate(-30,-166) scale(1,1)"><rect fill="#ffffff" stroke="none" x="392" y="383" width="20" height="10"/></g><g transform="translate(-30,-166) scale(1,1)"><path fill="none" stroke="#000000" d="M 392 383 L 412 383 L 412 393 L 392 393 L 392 383 Z Z" stroke-miterlimit="10"/></g><g transform="translate(-30,-166) scale(1,1)"><rect fill="#ffffff" stroke="none" x="392" y="403" width="20" height="10"/></g><g transform="translate(-30,-166) scale(1,1)"><path fill="none" stroke="#000000" d="M 392 403 L 412 403 L 412 413 L 392 413 L 392 403 Z Z" stroke-miterlimit="10"/></g><g transform="translate(-30,-166) scale(1,1)"><g><path fill="none" stroke="none"/><text fill="#000000" stroke="none" font-family="Arial" font-size="13px" font-style="normal" font-weight="normal" text-decoration="none" x="475.905029296875" y="393.5">«py»</text></g></g><g transform="translate(-30,-166) scale(1,1)"><g><path fill="none" stroke="none"/><text fill="#000000" stroke="none" font-family="Arial" font-size="13px" font-style="normal" font-weight="bold" text-decoration="none" x="453.504150390625" y="408.5">nfc_gateway</text></g></g><g transform="translate(-30,-166) scale(1,1)"><path fill="#C0C0C0" stroke="none" d="M 47 193 L 180 193 L 180 358 L 47 358" opacity="0.2"/></g><g transform="translate(-30,-166) scale(1,1)"><path fill="#C0C0C0" stroke="none" d="M 47 193 L 57 183 L 190 183 L 180 193" opacity="0.2"/></g><g transform="translate(-30,-166) scale(1,1)"><path fill="#C0C0C0" stroke="none" d="M 190 183 L 180 193 L 180 358 L 190 348" opacity="0.2"/></g><g transform="translate(-30,-166) scale(1,1)"><path fill="#ffffff" stroke="none" d="M 40 186 L 173 186 L 173 351 L 40 351"/></g><g transform="translate(-30,-166) scale(1,1)"><path fill="#ffffff" stroke="none" d="M 40 186 L 50 176 L 183 176 L 173 186"/></g><g transform="translate(-30,-166) scale(1,1)"><path fill="#ffffff" stroke="none" d="M 183 176 L 173 186 L 173 351 L 183 341"/></g><g transform="translate(-30,-166) scale(1,1)"><path fill="none" stroke="#000000" d="M 40 186 L 173 186 L 173 351 L 40 351 L 40 186" stroke-miterlimit="10"/></g><g transform="translate(-30,-166) scale(1,1)"><path fill="none" stroke="#000000" d="M 40 186 L 50 176 L 183 176 L 173 186 L 40 186" stroke-miterlimit="10"/></g><g transform="translate(-30,-166) scale(1,1)"><path fill="none" stroke="#000000" d="M 183 176 L 173 186 L 173 351 L 183 341 L 183 176" stroke-miterlimit="10"/></g><g transform="translate(-30,-166) scale(1,1)"><g><path fill="none" stroke="none"/><text fill="#000000" stroke="none" font-family="Arial" font-size="13px" font-style="normal" font-weight="normal" text-decoration="none" x="80.98095703125" y="203.5">«device»</text></g></g><g transform="translate(-30,-166) scale(1,1)"><g><path fill="none" stroke="none"/><text fill="#000000" stroke="none" font-family="Arial" font-size="13px" font-style="normal" font-weight="bold" text-decoration="none" x="84.595947265625" y="218.5">Android</text></g></g><g transform="translate(-30,-166) scale(1,1)"><rect fill="#C0C0C0" stroke="none" x="65" y="239" width="98.44091796875" height="44" opacity="0.2"/></g><g transform="translate(-30,-166) scale(1,1)"><rect fill="#ffffff" stroke="none" x="58" y="232" width="98.44091796875" height="44"/></g><g transform="translate(-30,-166) scale(1,1)"><path fill="none" stroke="#000000" d="M 58 232 L 156.44091796875 232 L 156.44091796875 276 L 58 276 L 58 232 Z Z" stroke-miterlimit="10"/></g><g transform="translate(-30,-166) scale(1,1)"><rect fill="#ffffff" stroke="none" x="48" y="239" width="20" height="10"/></g><g transform="translate(-30,-166) scale(1,1)"><path fill="none" stroke="#000000" d="M 48 239 L 68 239 L 68 249 L 48 249 L 48 239 Z Z" stroke-miterlimit="10"/></g><g transform="translate(-30,-166) scale(1,1)"><rect fill="#ffffff" stroke="none" x="48" y="259" width="20" height="10"/></g><g transform="translate(-30,-166) scale(1,1)"><path fill="none" stroke="#000000" d="M 48 259 L 68 259 L 68 269 L 48 269 L 48 259 Z Z" stroke-miterlimit="10"/></g><g transform="translate(-30,-166) scale(1,1)"><g><path fill="none" stroke="none"/><text fill="#000000" stroke="none" font-family="Arial" font-size="13px" font-style="normal" font-weight="normal" text-decoration="none" x="94.510498046875" y="249.5">«apk»</text></g></g><g transform="translate(-30,-166) scale(1,1)"><g><path fill="none" stroke="none"/><text fill="#000000" stroke="none" font-family="Arial" font-size="13px" font-style="normal" font-weight="bold" text-decoration="none" x="89.81640625" y="264.5">esibank</text></g></g><g transform="translate(-30,-166) scale(1,1)"><path fill="#C0C0C0" stroke="none" d="M 270.7099609375 442.5 C 270.7099609375 436.1487248 275.8586857375 431 282.2099609375 431 C 288.5612361375 431 293.7099609375 436.1487248 293.7099609375 442.5 C 293.7099609375 448.8512752 288.5612361375 454 282.2099609375 454 C 275.8586857375 454 270.7099609375 448.8512752 270.7099609375 442.5 Z" opacity="0.2"/></g><g transform="translate(-30,-166) scale(1,1)"><path fill="none" stroke="#000000" d="M 275 446.5 A 11.5 11.5 0 0 1 275 423.5" stroke-miterlimit="10"/></g><g transform="translate(-30,-166) scale(1,1)"><path fill="#ffffff" stroke="none" d="M 266.7099609375 435.5 C 266.7099609375 430.8055792 270.5155401375 427 275.2099609375 427 C 279.9043817375 427 283.7099609375 430.8055792 283.7099609375 435.5 C 283.7099609375 440.1944208 279.9043817375 444 275.2099609375 444 C 270.5155401375 444 266.7099609375 440.1944208 266.7099609375 435.5 Z"/></g><g transform="translate(-30,-166) scale(1,1)"><path fill="none" stroke="#000000" d="M 266.7099609375 435.5 C 266.7099609375 430.8055792 270.5155401375 427 275.2099609375 427 C 279.9043817375 427 283.7099609375 430.8055792 283.7099609375 435.5 C 283.7099609375 440.1944208 279.9043817375 444 275.2099609375 444 C 270.5155401375 444 266.7099609375 440.1944208 266.7099609375 435.5 Z" stroke-miterlimit="10"/></g><g transform="translate(-30,-166) scale(1,1)"><g><path fill="none" stroke="none"/><text fill="#000000" stroke="none" font-family="Arial" font-size="13px" font-style="normal" font-weight="bold" text-decoration="none" x="261.851318359375" y="466.5">NFC</text></g></g><g transform="translate(-30,-166) scale(1,1)"><path fill="none" stroke="#000000" d="M 368 435 L 286.7099609375 435" stroke-miterlimit="10"/></g><g transform="translate(-30,-166) scale(1,1)"><path fill="none" stroke="#000000" d="M 112 352 L 112 435 L 263.7099609375 435" stroke-miterlimit="10"/></g><g transform="translate(-30,-166) scale(1,1)"><g><path fill="none" stroke="none"/><text fill="#000000" stroke="none" font-family="Arial" font-size="13px" font-style="normal" font-weight="normal" text-decoration="none" x="95.5" y="426.5">+ndef</text></g></g><g transform="translate(-30,-166) scale(1,1)"><rect fill="#C0C0C0" stroke="none" x="409" y="295" width="181" height="47" opacity="0.2"/></g><g transform="translate(-30,-166) scale(1,1)"><rect fill="#ffffff" stroke="none" x="402" y="288" width="181" height="47"/></g><g transform="translate(-30,-166) scale(1,1)"><path fill="none" stroke="#000000" d="M 402 288 L 583 288 L 583 335 L 402 335 L 402 288 Z Z" stroke-miterlimit="10"/></g><g transform="translate(-30,-166) scale(1,1)"><rect fill="#ffffff" stroke="none" x="392" y="295" width="20" height="10"/></g><g transform="translate(-30,-166) scale(1,1)"><path fill="none" stroke="#000000" d="M 392 295 L 412 295 L 412 305 L 392 305 L 392 295 Z Z" stroke-miterlimit="10"/></g><g transform="translate(-30,-166) scale(1,1)"><rect fill="#ffffff" stroke="none" x="392" y="315" width="20" height="10"/></g><g transform="translate(-30,-166) scale(1,1)"><path fill="none" stroke="#000000" d="M 392 315 L 412 315 L 412 325 L 392 325 L 392 315 Z Z" stroke-miterlimit="10"/></g><g transform="translate(-30,-166) scale(1,1)"><g><path fill="none" stroke="none"/><text fill="#000000" stroke="none" font-family="Arial" font-size="13px" font-style="normal" font-weight="normal" text-decoration="none" x="467.15185546875" y="305.5">«browser»</text></g></g><g transform="translate(-30,-166) scale(1,1)"><g><path fill="none" stroke="none"/><text fill="#000000" stroke="none" font-family="Arial" font-size="13px" font-style="normal" font-weight="bold" text-decoration="none" x="468.96728515625" y="320.5">chromium</text></g></g><g transform="translate(-30,-166) scale(1,1)"><path fill="#C0C0C0" stroke="none" d="M 399 593 L 572 593 L 572 742 L 399 742" opacity="0.2"/></g><g transform="translate(-30,-166) scale(1,1)"><path fill="#C0C0C0" stroke="none" d="M 399 593 L 409 583 L 582 583 L 572 593" opacity="0.2"/></g><g transform="translate(-30,-166) scale(1,1)"><path fill="#C0C0C0" stroke="none" d="M 582 583 L 572 593 L 572 742 L 582 732" opacity="0.2"/></g><g transform="translate(-30,-166) scale(1,1)"><path fill="#ffffff" stroke="none" d="M 392 586 L 565 586 L 565 735 L 392 735"/></g><g transform="translate(-30,-166) scale(1,1)"><path fill="#ffffff" stroke="none" d="M 392 586 L 402 576 L 575 576 L 565 586"/></g><g transform="translate(-30,-166) scale(1,1)"><path fill="#ffffff" stroke="none" d="M 575 576 L 565 586 L 565 735 L 575 725"/></g><g transform="translate(-30,-166) scale(1,1)"><path fill="none" stroke="#000000" d="M 392 586 L 565 586 L 565 735 L 392 735 L 392 586" stroke-miterlimit="10"/></g><g transform="translate(-30,-166) scale(1,1)"><path fill="none" stroke="#000000" d="M 392 586 L 402 576 L 575 576 L 565 586 L 392 586" stroke-miterlimit="10"/></g><g transform="translate(-30,-166) scale(1,1)"><path fill="none" stroke="#000000" d="M 575 576 L 565 586 L 565 735 L 575 725 L 575 576" stroke-miterlimit="10"/></g><g transform="translate(-30,-166) scale(1,1)"><g><path fill="none" stroke="none"/><text fill="#000000" stroke="none" font-family="Arial" font-size="13px" font-style="normal" font-weight="normal" text-decoration="none" x="445.030517578125" y="603.5">«container»</text></g></g><g transform="translate(-30,-166) scale(1,1)"><g><path fill="none" stroke="none"/><text fill="#000000" stroke="none" font-family="Arial" font-size="13px" font-style="normal" font-weight="bold" text-decoration="none" x="455.504150390625" y="618.5">dab.app</text></g></g><g transform="translate(-30,-166) scale(1,1)"><rect fill="#C0C0C0" stroke="none" x="417" y="655" width="142" height="44" opacity="0.2"/></g><g transform="translate(-30,-166) scale(1,1)"><rect fill="#ffffff" stroke="none" x="410" y="648" width="142" height="44"/></g><g transform="translate(-30,-166) scale(1,1)"><path fill="none" stroke="#000000" d="M 410 648 L 552 648 L 552 692 L 410 692 L 410 648 Z Z" stroke-miterlimit="10"/></g><g transform="translate(-30,-166) scale(1,1)"><rect fill="#ffffff" stroke="none" x="400" y="655" width="20" height="10"/></g><g transform="translate(-30,-166) scale(1,1)"><path fill="none" stroke="#000000" d="M 400 655 L 420 655 L 420 665 L 400 665 L 400 655 Z Z" stroke-miterlimit="10"/></g><g transform="translate(-30,-166) scale(1,1)"><rect fill="#ffffff" stroke="none" x="400" y="675" width="20" height="10"/></g><g transform="translate(-30,-166) scale(1,1)"><path fill="none" stroke="#000000" d="M 400 675 L 420 675 L 420 685 L 400 685 L 400 675 Z Z" stroke-miterlimit="10"/></g><g transform="translate(-30,-166) scale(1,1)"><g><path fill="none" stroke="none"/><text fill="#000000" stroke="none" font-family="Arial" font-size="13px" font-style="normal" font-weight="normal" text-decoration="none" x="471.905029296875" y="665.5">«py»</text></g></g><g transform="translate(-30,-166) scale(1,1)"><g><path fill="none" stroke="none"/><text fill="#000000" stroke="none" font-family="Arial" font-size="13px" font-style="normal" font-weight="bold" text-decoration="none" x="462.504150390625" y="680.5">dab.app</text></g></g><g transform="translate(-30,-166) scale(1,1)"><path fill="#C0C0C0" stroke="none" d="M 494.7099609375 530.5 C 494.7099609375 524.1487248 499.8586857375 519 506.2099609375 519 C 512.5612361375 519 517.7099609375 524.1487248 517.7099609375 530.5 C 517.7099609375 536.8512752 512.5612361375 542 506.2099609375 542 C 499.8586857375 542 494.7099609375 536.8512752 494.7099609375 530.5 Z" opacity="0.2"/></g><g transform="translate(-30,-166) scale(1,1)"><path fill="none" stroke="#000000" d="M 487.90521605576606 526.0258501666093 A 11.5 11.5 0 0 1 510.09478394423394 519.9741498333907" stroke-miterlimit="10"/></g><g transform="translate(-30,-166) scale(1,1)"><path fill="#ffffff" stroke="none" d="M 490.7099609375 523.5 C 490.7099609375 518.8055792 494.5155401375 515 499.2099609375 515 C 503.9043817375 515 507.7099609375 518.8055792 507.7099609375 523.5 C 507.7099609375 528.1944208 503.9043817375 532 499.2099609375 532 C 494.5155401375 532 490.7099609375 528.1944208 490.7099609375 523.5 Z"/></g><g transform="translate(-30,-166) scale(1,1)"><path fill="none" stroke="#000000" d="M 490.7099609375 523.5 C 490.7099609375 518.8055792 494.5155401375 515 499.2099609375 515 C 503.9043817375 515 507.7099609375 518.8055792 507.7099609375 523.5 C 507.7099609375 528.1944208 503.9043817375 532 499.2099609375 532 C 494.5155401375 532 490.7099609375 528.1944208 490.7099609375 523.5 Z" stroke-miterlimit="10"/></g><g transform="translate(-30,-166) scale(1,1)"><g><path fill="none" stroke="none"/><text fill="#000000" stroke="none" font-family="Arial" font-size="13px" font-style="normal" font-weight="bold" text-decoration="none" x="481.87451171875" y="554.5">REST</text></g></g><g transform="translate(-30,-166) scale(1,1)"><path fill="none" stroke="#000000" d="M 499 576 L 499 535" stroke-miterlimit="10"/></g><g transform="translate(-30,-166) scale(1,1)"><path fill="none" stroke="#000000" d="M 496 420 L 496 512" stroke-miterlimit="10"/></g><g transform="translate(-30,-166) scale(1,1)"><g><path fill="none" stroke="none"/><text fill="#000000" stroke="none" font-family="Arial" font-size="13px" font-style="normal" font-weight="normal" text-decoration="none" x="495.5" y="471.5">+http</text></g></g><g transform="translate(-30,-166) scale(1,1)"><rect fill="#ffffff" stroke="none" x="496" y="569" width="14" height="14"/></g><g transform="translate(-30,-166) scale(1,1)"><path fill="none" stroke="#000000" d="M 496 569 L 510 569 L 510 583 L 496 583 L 496 569 Z Z" stroke-miterlimit="10"/></g><g transform="translate(-30,-166) scale(1,1)"><g><path fill="none" stroke="none"/><text fill="#000000" stroke="none" font-family="Arial" font-size="13px" font-style="normal" font-weight="normal" text-decoration="none" x="464.0400390625" y="571">5000</text></g></g><g transform="translate(-30,-166) scale(1,1)"><path fill="#C0C0C0" stroke="none" d="M 407 777 L 556 777 L 556 870 L 407 870" opacity="0.2"/></g><g transform="translate(-30,-166) scale(1,1)"><path fill="#C0C0C0" stroke="none" d="M 407 777 L 417 767 L 566 767 L 556 777" opacity="0.2"/></g><g transform="translate(-30,-166) scale(1,1)"><path fill="#C0C0C0" stroke="none" d="M 566 767 L 556 777 L 556 870 L 566 860" opacity="0.2"/></g><g transform="translate(-30,-166) scale(1,1)"><path fill="#ffffff" stroke="none" d="M 400 770 L 549 770 L 549 863 L 400 863"/></g><g transform="translate(-30,-166) scale(1,1)"><path fill="#ffffff" stroke="none" d="M 400 770 L 410 760 L 559 760 L 549 770"/></g><g transform="translate(-30,-166) scale(1,1)"><path fill="#ffffff" stroke="none" d="M 559 760 L 549 770 L 549 863 L 559 853"/></g><g transform="translate(-30,-166) scale(1,1)"><path fill="none" stroke="#000000" d="M 400 770 L 549 770 L 549 863 L 400 863 L 400 770" stroke-miterlimit="10"/></g><g transform="translate(-30,-166) scale(1,1)"><path fill="none" stroke="#000000" d="M 400 770 L 410 760 L 559 760 L 549 770 L 400 770" stroke-miterlimit="10"/></g><g transform="translate(-30,-166) scale(1,1)"><path fill="none" stroke="#000000" d="M 559 760 L 549 770 L 549 863 L 559 853 L 559 760" stroke-miterlimit="10"/></g><g transform="translate(-30,-166) scale(1,1)"><g><path fill="none" stroke="none"/><text fill="#000000" stroke="none" font-family="Arial" font-size="13px" font-style="normal" font-weight="normal" text-decoration="none" x="441.030517578125" y="787.5">«container»</text></g></g><g transform="translate(-30,-166) scale(1,1)"><g><path fill="none" stroke="none"/><text fill="#000000" stroke="none" font-family="Arial" font-size="13px" font-style="normal" font-weight="bold" text-decoration="none" x="465.970458984375" y="802.5">DB</text></g></g><g transform="translate(-30,-166) scale(1,1)"><rect fill="#C0C0C0" stroke="none" x="433" y="815" width="98.44091796875" height="44" opacity="0.2"/></g><g transform="translate(-30,-166) scale(1,1)"><rect fill="#ffffff" stroke="none" x="426" y="808" width="98.44091796875" height="44"/></g><g transform="translate(-30,-166) scale(1,1)"><path fill="none" stroke="#000000" d="M 426 808 L 524.44091796875 808 L 524.44091796875 852 L 426 852 L 426 808 Z Z" stroke-miterlimit="10"/></g><g transform="translate(-30,-166) scale(1,1)"><rect fill="#ffffff" stroke="none" x="416" y="815" width="20" height="10"/></g><g transform="translate(-30,-166) scale(1,1)"><path fill="none" stroke="#000000" d="M 416 815 L 436 815 L 436 825 L 416 825 L 416 815 Z Z" stroke-miterlimit="10"/></g><g transform="translate(-30,-166) scale(1,1)"><rect fill="#ffffff" stroke="none" x="416" y="835" width="20" height="10"/></g><g transform="translate(-30,-166) scale(1,1)"><path fill="none" stroke="#000000" d="M 416 835 L 436 835 L 436 845 L 416 845 L 416 835 Z Z" stroke-miterlimit="10"/></g><g transform="translate(-30,-166) scale(1,1)"><g><path fill="none" stroke="none"/><text fill="#000000" stroke="none" font-family="Arial" font-size="13px" font-style="normal" font-weight="normal" text-decoration="none" x="444.0927734375" y="825.5">«Dockerfile»</text></g></g><g transform="translate(-30,-166) scale(1,1)"><g><path fill="none" stroke="none"/><text fill="#000000" stroke="none" font-family="Arial" font-size="13px" font-style="normal" font-weight="bold" text-decoration="none" x="466.1318359375" y="840.5">redis</text></g></g><g transform="translate(-30,-166) scale(1,1)"><rect fill="#ffffff" stroke="none" x="491" y="753" width="14" height="14"/></g><g transform="translate(-30,-166) scale(1,1)"><path fill="none" stroke="#000000" d="M 491 753 L 505 753 L 505 767 L 491 767 L 491 753 Z Z" stroke-miterlimit="10"/></g><g transform="translate(-30,-166) scale(1,1)"><g><path fill="none" stroke="none"/><text fill="#000000" stroke="none" font-family="Arial" font-size="13px" font-style="normal" font-weight="normal" text-decoration="none" x="468.0400390625" y="751">6379</text></g></g><g transform="translate(-30,-166) scale(1,1)"><rect fill="#C0C0C0" stroke="none" x="401" y="903" width="178.66259765625" height="44" opacity="0.2"/></g><g transform="translate(-30,-166) scale(1,1)"><rect fill="#ffffff" stroke="none" x="394" y="896" width="178.66259765625" height="44"/></g><g transform="translate(-30,-166) scale(1,1)"><path fill="none" stroke="#000000" d="M 394 896 L 572.66259765625 896 L 572.66259765625 940 L 394 940 L 394 896 Z Z" stroke-miterlimit="10"/></g><g transform="translate(-30,-166) scale(1,1)"><rect fill="#ffffff" stroke="none" x="384" y="903" width="20" height="10"/></g><g transform="translate(-30,-166) scale(1,1)"><path fill="none" stroke="#000000" d="M 384 903 L 404 903 L 404 913 L 384 913 L 384 903 Z Z" stroke-miterlimit="10"/></g><g transform="translate(-30,-166) scale(1,1)"><rect fill="#ffffff" stroke="none" x="384" y="923" width="20" height="10"/></g><g transform="translate(-30,-166) scale(1,1)"><path fill="none" stroke="#000000" d="M 384 923 L 404 923 L 404 933 L 384 933 L 384 923 Z Z" stroke-miterlimit="10"/></g><g transform="translate(-30,-166) scale(1,1)"><g><path fill="none" stroke="none"/><text fill="#000000" stroke="none" font-family="Arial" font-size="13px" font-style="normal" font-weight="normal" text-decoration="none" x="468.456787109375" y="913.5">«cron»</text></g></g><g transform="translate(-30,-166) scale(1,1)"><g><path fill="none" stroke="none"/><text fill="#000000" stroke="none" font-family="Arial" font-size="13px" font-style="normal" font-weight="bold" text-decoration="none" x="414.977783203125" y="928.5">script_install_dab_app.sh</text></g></g></g></svg>