<svg version="1.1" xmlns="http://www.w3.org/2000/svg" xmlns:xlink="http://www.w3.org/1999/xlink" width="1393.47705078125" height="1416"><defs/><g><g transform="translate(-5,254) scale(1,1)"><path fill="none" stroke="#000000" d="M 16 120 L 1320 120 L 1320 1152 L 16 1152 L 16 120" stroke-miterlimit="10"/></g><g transform="translate(-5,254) scale(1,1)"><path fill="#ffffff" stroke="none" d="M 16 120 L 16 142 L 206.88427734375 142 L 217.88427734375 131 L 217.88427734375 120 L 16 120"/></g><g transform="translate(-5,254) scale(1,1)"><path fill="none" stroke="#000000" d="M 16 120 L 16 142 L 206.88427734375 142 L 217.88427734375 131 L 217.88427734375 120 L 16 120 L 16 120" stroke-miterlimit="10"/></g><g transform="translate(-5,254) scale(1,1)"><g><path fill="none" stroke="none"/><text fill="#000000" stroke="none" font-family="Arial" font-size="13px" font-style="normal" font-weight="normal" text-decoration="none" x="86.97900390625" y="137.5">SequenceDiagram1</text></g></g><g transform="translate(-5,254) scale(1,1)"><g><path fill="none" stroke="none"/><text fill="#000000" stroke="none" font-family="Arial" font-size="13px" font-style="normal" font-weight="bold" text-decoration="none" x="21" y="137.5">interaction</text></g></g><g transform="translate(-5,254) scale(1,1)"><rect fill="#C0C0C0" stroke="none" x="167" y="47" width="118.00439453125" height="39" opacity="0.2"/></g><g transform="translate(-5,254) scale(1,1)"><rect fill="#ffffff" stroke="none" x="160" y="40" width="118.00439453125" height="39"/></g><g transform="translate(-5,254) scale(1,1)"><path fill="none" stroke="#000000" d="M 160 40 L 278.00439453125 40 L 278.00439453125 79 L 160 79 L 160 40 Z Z" stroke-miterlimit="10"/></g><g transform="translate(-5,254) scale(1,1)"><g><path fill="none" stroke="none"/><text fill="#000000" stroke="none" font-family="Arial" font-size="13px" font-style="normal" font-weight="normal" text-decoration="none" x="191.186767578125" y="57.5">«Activity»</text></g></g><g transform="translate(-5,254) scale(1,1)"><g><path fill="none" stroke="none"/><text fill="#000000" stroke="none" font-family="Arial" font-size="13px" font-style="normal" font-weight="bold" text-decoration="none" x="185.05810546875" y="72.5">NFCActivity</text></g></g><g transform="translate(-5,254) scale(1,1)"><path fill="none" stroke="#000000" d="M 220.5 80 L 220.5 760" stroke-miterlimit="10" stroke-dasharray="3"/></g><g transform="translate(-5,254) scale(1,1)"><rect fill="#C0C0C0" stroke="none" x="407" y="47" width="101.36083984375" height="39" opacity="0.2"/></g><g transform="translate(-5,254) scale(1,1)"><rect fill="#ffffff" stroke="none" x="400" y="40" width="101.36083984375" height="39"/></g><g transform="translate(-5,254) scale(1,1)"><path fill="none" stroke="#000000" d="M 400 40 L 501.36083984375 40 L 501.36083984375 79 L 400 79 L 400 40 Z Z" stroke-miterlimit="10"/></g><g transform="translate(-5,254) scale(1,1)"><g><path fill="none" stroke="none"/><text fill="#000000" stroke="none" font-family="Arial" font-size="13px" font-style="normal" font-weight="normal" text-decoration="none" x="436.58544921875" y="57.5">«py»</text></g></g><g transform="translate(-5,254) scale(1,1)"><g><path fill="none" stroke="none"/><text fill="#000000" stroke="none" font-family="Arial" font-size="13px" font-style="normal" font-weight="bold" text-decoration="none" x="414.1845703125" y="72.5">nfc_gateway</text></g></g><g transform="translate(-5,254) scale(1,1)"><path fill="none" stroke="#000000" d="M 451.5 80 L 451.5 966" stroke-miterlimit="10" stroke-dasharray="3"/></g><g transform="translate(-5,254) scale(1,1)"><rect fill="#C0C0C0" stroke="none" x="743" y="47" width="87.6181640625" height="39" opacity="0.2"/></g><g transform="translate(-5,254) scale(1,1)"><rect fill="#ffffff" stroke="none" x="736" y="40" width="87.6181640625" height="39"/></g><g transform="translate(-5,254) scale(1,1)"><path fill="none" stroke="#000000" d="M 736 40 L 823.6181640625 40 L 823.6181640625 79 L 736 79 L 736 40 Z Z" stroke-miterlimit="10"/></g><g transform="translate(-5,254) scale(1,1)"><g><path fill="none" stroke="none"/><text fill="#000000" stroke="none" font-family="Arial" font-size="13px" font-style="normal" font-weight="normal" text-decoration="none" x="765.714111328125" y="57.5">«py»</text></g></g><g transform="translate(-5,254) scale(1,1)"><g><path fill="none" stroke="none"/><text fill="#000000" stroke="none" font-family="Arial" font-size="13px" font-style="normal" font-weight="bold" text-decoration="none" x="756.313232421875" y="72.5">dab.app</text></g></g><g transform="translate(-5,254) scale(1,1)"><path fill="none" stroke="#000000" d="M 780.5 80 L 780.5 1061" stroke-miterlimit="10" stroke-dasharray="3"/></g><g transform="translate(-5,254) scale(1,1)"><rect fill="#C0C0C0" stroke="none" x="967" y="47" width="102.814453125" height="39" opacity="0.2"/></g><g transform="translate(-5,254) scale(1,1)"><rect fill="#ffffff" stroke="none" x="960" y="40" width="102.814453125" height="39"/></g><g transform="translate(-5,254) scale(1,1)"><path fill="none" stroke="#000000" d="M 960 40 L 1062.814453125 40 L 1062.814453125 79 L 960 79 L 960 40 Z Z" stroke-miterlimit="10"/></g><g transform="translate(-5,254) scale(1,1)"><g><path fill="none" stroke="none"/><text fill="#000000" stroke="none" font-family="Arial" font-size="13px" font-style="normal" font-weight="normal" text-decoration="none" x="996.95361328125" y="57.5">«jar»</text></g></g><g transform="translate(-5,254) scale(1,1)"><g><path fill="none" stroke="none"/><text fill="#000000" stroke="none" font-family="Arial" font-size="13px" font-style="normal" font-weight="bold" text-decoration="none" x="972.746826171875" y="72.5">payfree.client</text></g></g><g transform="translate(-5,254) scale(1,1)"><path fill="none" stroke="#000000" d="M 1012.5 80 L 1012.5 968" stroke-miterlimit="10" stroke-dasharray="3"/></g><g transform="translate(-5,254) scale(1,1)"><rect fill="#C0C0C0" stroke="none" x="1207" y="47" width="123.0634765625" height="39" opacity="0.2"/></g><g transform="translate(-5,254) scale(1,1)"><rect fill="#ffffff" stroke="none" x="1200" y="40" width="123.0634765625" height="39"/></g><g transform="translate(-5,254) scale(1,1)"><path fill="none" stroke="#000000" d="M 1200 40 L 1323.0634765625 40 L 1323.0634765625 79 L 1200 79 L 1200 40 Z Z" stroke-miterlimit="10"/></g><g transform="translate(-5,254) scale(1,1)"><g><path fill="none" stroke="none"/><text fill="#000000" stroke="none" font-family="Arial" font-size="13px" font-style="normal" font-weight="normal" text-decoration="none" x="1247.078125" y="57.5">«jar»</text></g></g><g transform="translate(-5,254) scale(1,1)"><g><path fill="none" stroke="none"/><text fill="#000000" stroke="none" font-family="Arial" font-size="13px" font-style="normal" font-weight="bold" text-decoration="none" x="1230.831298828125" y="72.5">rest.server</text></g></g><g transform="translate(-5,254) scale(1,1)"><path fill="none" stroke="#000000" d="M 1262.5 80 L 1262.5 960" stroke-miterlimit="10" stroke-dasharray="3"/></g><g transform="translate(-5,254) scale(1,1)"><path fill="#000000" stroke="none" d="M 1355 231.5 C 1355 227.6340064 1358.1340064 224.5 1362 224.5 C 1365.8659936 224.5 1369 227.6340064 1369 231.5 C 1369 235.3659936 1365.8659936 238.5 1362 238.5 C 1358.1340064 238.5 1355 235.3659936 1355 231.5 Z"/></g><g transform="translate(-5,254) scale(1,1)"><path fill="#ffffff" stroke="none" d="M 63.99815518465909 47.3 C 63.99815518465909 43.82060576 66.8765569068409 41 70.42724609375 41 C 73.9779352806591 41 76.8563370028409 43.82060576 76.8563370028409 47.3 C 76.8563370028409 50.779394239999995 73.9779352806591 53.6 70.42724609375 53.6 C 66.8765569068409 53.6 63.99815518465909 50.779394239999995 63.99815518465909 47.3 Z"/></g><g transform="translate(-5,254) scale(1,1)"><path fill="none" stroke="#000000" d="M 63.99815518465909 47.3 C 63.99815518465909 43.82060576 66.8765569068409 41 70.42724609375 41 C 73.9779352806591 41 76.8563370028409 43.82060576 76.8563370028409 47.3 C 76.8563370028409 50.779394239999995 73.9779352806591 53.6 70.42724609375 53.6 C 66.8765569068409 53.6 63.99815518465909 50.779394239999995 63.99815518465909 47.3 Z" stroke-miterlimit="10"/></g><g transform="translate(-5,254) scale(1,1)"><path fill="none" stroke="#000000" d="M 70.42724609375 53.6 L 70.42724609375 66.4" stroke-miterlimit="10"/></g><g transform="translate(-5,254) scale(1,1)"><path fill="none" stroke="#000000" d="M 63.619973366477275 58.4 L 77.23451882102273 58.4" stroke-miterlimit="10"/></g><g transform="translate(-5,254) scale(1,1)"><path fill="none" stroke="#000000" d="M 70.42724609375 66.4 L 60.97270063920455 79" stroke-miterlimit="10"/></g><g transform="translate(-5,254) scale(1,1)"><path fill="none" stroke="#000000" d="M 70.42724609375 66.4 L 79.88179154829545 79" stroke-miterlimit="10"/></g><g transform="translate(-5,254) scale(1,1)"><g><path fill="none" stroke="none"/><text fill="#000000" stroke="none" font-family="Arial" font-size="13px" font-style="normal" font-weight="bold" text-decoration="none" x="23.81640625" y="99.5">Lifeline1: Actor1</text></g></g><g transform="translate(-5,254) scale(1,1)"><path fill="none" stroke="#000000" d="M 71.5 105 L 71.5 894" stroke-miterlimit="10" stroke-dasharray="3"/></g><g transform="translate(-5,254) scale(1,1)"><path fill="#000000" stroke="none" d="M 1371 655.5 C 1371 651.6340064 1374.1340064 648.5 1378 648.5 C 1381.8659936 648.5 1385 651.6340064 1385 655.5 C 1385 659.3659936 1381.8659936 662.5 1378 662.5 C 1374.1340064 662.5 1371 659.3659936 1371 655.5 Z"/></g><g transform="translate(-5,254) scale(1,1)"><path fill="#ffffff" stroke="none" d="M 824 376 L 940 376 L 950 386 L 950 446 L 824 446 L 824 376"/></g><g transform="translate(-5,254) scale(1,1)"><path fill="none" stroke="#000000" d="M 824 376 L 940 376 L 950 386 L 950 446 L 824 446 L 824 376 L 824 376" stroke-miterlimit="10"/></g><g transform="translate(-5,254) scale(1,1)"><path fill="none" stroke="#000000" d="M 940 376 L 940 386 L 950 386 L 940 376" stroke-miterlimit="10"/></g><g transform="translate(-5,254) scale(1,1)"><g><path fill="none" stroke="none"/><text fill="#000000" stroke="none" font-family="Arial" font-size="13px" font-style="normal" font-weight="normal" text-decoration="none" x="829" y="394">socket updates</text><text fill="#000000" stroke="none" font-family="Arial" font-size="13px" font-style="normal" font-weight="normal" text-decoration="none" x="829" y="407">front page and</text><text fill="#000000" stroke="none" font-family="Arial" font-size="13px" font-style="normal" font-weight="normal" text-decoration="none" x="829" y="420">redirecs t to</text><text fill="#000000" stroke="none" font-family="Arial" font-size="13px" font-style="normal" font-weight="normal" text-decoration="none" x="829" y="433">withdraw UI</text></g></g><g transform="translate(-5,254) scale(1,1)"><path fill="#ffffff" stroke="none" d="M 1096 384 L 1188 384 L 1198 394 L 1198 498 L 1096 498 L 1096 384"/></g><g transform="translate(-5,254) scale(1,1)"><path fill="none" stroke="#000000" d="M 1096 384 L 1188 384 L 1198 394 L 1198 498 L 1096 498 L 1096 384 L 1096 384" stroke-miterlimit="10"/></g><g transform="translate(-5,254) scale(1,1)"><path fill="none" stroke="#000000" d="M 1188 384 L 1188 394 L 1198 394 L 1188 384" stroke-miterlimit="10"/></g><g transform="translate(-5,254) scale(1,1)"><g><path fill="none" stroke="none"/><text fill="#000000" stroke="none" font-family="Arial" font-size="13px" font-style="normal" font-weight="normal" text-decoration="none" x="1101" y="402">payfree is a</text><text fill="#000000" stroke="none" font-family="Arial" font-size="13px" font-style="normal" font-weight="normal" text-decoration="none" x="1101" y="415">Thibault's work</text><text fill="#000000" stroke="none" font-family="Arial" font-size="13px" font-style="normal" font-weight="normal" text-decoration="none" x="1101" y="428">integration for</text><text fill="#000000" stroke="none" font-family="Arial" font-size="13px" font-style="normal" font-weight="normal" text-decoration="none" x="1101" y="441">securing</text><text fill="#000000" stroke="none" font-family="Arial" font-size="13px" font-style="normal" font-weight="normal" text-decoration="none" x="1101" y="454">requests from</text><text fill="#000000" stroke="none" font-family="Arial" font-size="13px" font-style="normal" font-weight="normal" text-decoration="none" x="1101" y="467">client to server</text></g></g><g transform="translate(-5,254) scale(1,1)"><rect fill="#C0C0C0" stroke="none" x="615" y="47" width="71.736328125" height="39" opacity="0.2"/></g><g transform="translate(-5,254) scale(1,1)"><rect fill="#ffffff" stroke="none" x="608" y="40" width="71.736328125" height="39"/></g><g transform="translate(-5,254) scale(1,1)"><path fill="none" stroke="#000000" d="M 608 40 L 679.736328125 40 L 679.736328125 79 L 608 79 L 608 40 Z Z" stroke-miterlimit="10"/></g><g transform="translate(-5,254) scale(1,1)"><g><path fill="none" stroke="none"/><text fill="#000000" stroke="none" font-family="Arial" font-size="13px" font-style="normal" font-weight="normal" text-decoration="none" x="627.608642578125" y="57.5">«DB»</text></g></g><g transform="translate(-5,254) scale(1,1)"><g><path fill="none" stroke="none"/><text fill="#000000" stroke="none" font-family="Arial" font-size="13px" font-style="normal" font-weight="bold" text-decoration="none" x="629.779541015625" y="72.5">redis</text></g></g><g transform="translate(-5,254) scale(1,1)"><path fill="none" stroke="#000000" d="M 644.5 80 L 644.5 936" stroke-miterlimit="10" stroke-dasharray="3"/></g><g transform="translate(-5,254) scale(1,1)"><path fill="#ffffff" stroke="none" d="M 512 304 L 604 304 L 614 314 L 614 366 L 512 366 L 512 304"/></g><g transform="translate(-5,254) scale(1,1)"><path fill="none" stroke="#000000" d="M 512 304 L 604 304 L 614 314 L 614 366 L 512 366 L 512 304 L 512 304" stroke-miterlimit="10"/></g><g transform="translate(-5,254) scale(1,1)"><path fill="none" stroke="#000000" d="M 604 304 L 604 314 L 614 314 L 604 304" stroke-miterlimit="10"/></g><g transform="translate(-5,254) scale(1,1)"><g><path fill="none" stroke="none"/><text fill="#000000" stroke="none" font-family="Arial" font-size="13px" font-style="normal" font-weight="normal" text-decoration="none" x="517" y="322">We save card</text><text fill="#000000" stroke="none" font-family="Arial" font-size="13px" font-style="normal" font-weight="normal" text-decoration="none" x="517" y="335">id and pin</text><text fill="#000000" stroke="none" font-family="Arial" font-size="13px" font-style="normal" font-weight="normal" text-decoration="none" x="517" y="348">temporary in</text><text fill="#000000" stroke="none" font-family="Arial" font-size="13px" font-style="normal" font-weight="normal" text-decoration="none" x="517" y="361">Redis</text></g></g><g transform="translate(-5,254) scale(1,1)"><path fill="none" stroke="#000000" d="M 71 120 L 220 120" stroke-miterlimit="10" stroke-dasharray="3"/></g><g transform="translate(-5,254) scale(1,1)"><path fill="none" stroke="#000000" d="M 209.83732514237585 124.20951775601598 L 220 120 L 209.83732514237585 115.79048224398402" stroke-miterlimit="10"/></g><g transform="translate(-5,254) scale(1,1)"><g><path fill="none" stroke="none"/><text fill="#000000" stroke="none" font-family="Arial" font-size="13px" font-style="normal" font-weight="normal" text-decoration="none" x="94.5" y="116.5">1 : device contact</text></g></g><g transform="translate(-5,254) scale(1,1)"><path fill="none" stroke="#000000" d="M 220 162 L 444 162" stroke-miterlimit="10"/></g><g transform="translate(-5,254) scale(1,1)"><path fill="#000000" stroke="none" d="M 433.83732514237585 166.209517756016 L 444 162 L 433.83732514237585 157.790482243984"/></g><g transform="translate(-5,254) scale(1,1)"><path fill="none" stroke="#000000" d="M 433.83732514237585 166.209517756016 L 444 162 L 433.83732514237585 157.790482243984 L 433.83732514237585 166.209517756016" stroke-miterlimit="10"/></g><g transform="translate(-5,254) scale(1,1)"><g><path fill="none" stroke="none"/><text fill="#000000" stroke="none" font-family="Arial" font-size="13px" font-style="normal" font-weight="normal" text-decoration="none" x="272.5" y="158.5">2 : send(card_id,pin)</text></g></g><g transform="translate(-5,254) scale(1,1)"><rect fill="#ffffff" stroke="none" x="444" y="162" width="13" height="118"/></g><g transform="translate(-5,254) scale(1,1)"><path fill="none" stroke="#000000" d="M 444 162 L 457 162 L 457 280 L 444 280 L 444 162 Z Z" stroke-miterlimit="10"/></g><g transform="translate(-5,254) scale(1,1)"><path fill="none" stroke="#000000" d="M 457 184 L 773 184" stroke-miterlimit="10"/></g><g transform="translate(-5,254) scale(1,1)"><path fill="#000000" stroke="none" d="M 762.8373251423759 188.209517756016 L 773 184 L 762.8373251423758 179.790482243984"/></g><g transform="translate(-5,254) scale(1,1)"><path fill="none" stroke="#000000" d="M 762.8373251423759 188.209517756016 L 773 184 L 762.8373251423758 179.790482243984 L 762.8373251423759 188.209517756016" stroke-miterlimit="10"/></g><g transform="translate(-5,254) scale(1,1)"><g><path fill="none" stroke="none"/><text fill="#000000" stroke="none" font-family="Arial" font-size="13px" font-style="normal" font-weight="normal" text-decoration="none" x="525.5" y="180.5">3 : post_user_data(card_id,pin)</text></g></g><g transform="translate(-5,254) scale(1,1)"><rect fill="#ffffff" stroke="none" x="773" y="184" width="13" height="640"/></g><g transform="translate(-5,254) scale(1,1)"><path fill="none" stroke="#000000" d="M 773 184 L 786 184 L 786 824 L 773 824 L 773 184 Z Z" stroke-miterlimit="10"/></g><g transform="translate(-5,254) scale(1,1)"><path fill="none" stroke="#000000" d="M 786 200 L 1005 200" stroke-miterlimit="10"/></g><g transform="translate(-5,254) scale(1,1)"><path fill="#000000" stroke="none" d="M 994.8373251423759 204.209517756016 L 1005 200 L 994.8373251423758 195.790482243984"/></g><g transform="translate(-5,254) scale(1,1)"><path fill="none" stroke="#000000" d="M 994.8373251423759 204.209517756016 L 1005 200 L 994.8373251423758 195.790482243984 L 994.8373251423759 204.209517756016" stroke-miterlimit="10"/></g><g transform="translate(-5,254) scale(1,1)"><g><path fill="none" stroke="none"/><text fill="#000000" stroke="none" font-family="Arial" font-size="13px" font-style="normal" font-weight="normal" text-decoration="none" x="844.864990234375" y="-231.5">4 : check_cardzz</text></g></g><g transform="translate(-5,254) scale(1,1)"><rect fill="#ffffff" stroke="none" x="1005" y="200" width="13" height="101"/></g><g transform="translate(-5,254) scale(1,1)"><path fill="none" stroke="#000000" d="M 1005 200 L 1018 200 L 1018 301 L 1005 301 L 1005 200 Z Z" stroke-miterlimit="10"/></g><g transform="translate(-5,254) scale(1,1)"><path fill="none" stroke="#000000" d="M 1018 224 L 1255 224" stroke-miterlimit="10"/></g><g transform="translate(-5,254) scale(1,1)"><path fill="#000000" stroke="none" d="M 1244.837325142376 228.209517756016 L 1255 224 L 1244.837325142376 219.790482243984"/></g><g transform="translate(-5,254) scale(1,1)"><path fill="none" stroke="#000000" d="M 1244.837325142376 228.209517756016 L 1255 224 L 1244.837325142376 219.790482243984 L 1244.837325142376 228.209517756016" stroke-miterlimit="10"/></g><g transform="translate(-5,254) scale(1,1)"><g><path fill="none" stroke="none"/><text fill="#000000" stroke="none" font-family="Arial" font-size="13px" font-style="normal" font-weight="normal" text-decoration="none" x="1087.5" y="220.5">5 : sign(payload)</text></g></g><g transform="translate(-5,254) scale(1,1)"><rect fill="#ffffff" stroke="none" x="1255" y="224" width="13" height="28"/></g><g transform="translate(-5,254) scale(1,1)"><path fill="none" stroke="#000000" d="M 1255 224 L 1268 224 L 1268 252 L 1255 252 L 1255 224 Z Z" stroke-miterlimit="10"/></g><g transform="translate(-5,254) scale(1,1)"><path fill="none" stroke="#000000" d="M 1268 232 L 1355 232" stroke-miterlimit="10"/></g><g transform="translate(-5,254) scale(1,1)"><path fill="#000000" stroke="none" d="M 1344.837325142376 236.209517756016 L 1355 232 L 1344.837325142376 227.790482243984"/></g><g transform="translate(-5,254) scale(1,1)"><path fill="none" stroke="#000000" d="M 1344.837325142376 236.209517756016 L 1355 232 L 1344.837325142376 227.790482243984 L 1344.837325142376 236.209517756016" stroke-miterlimit="10"/></g><g transform="translate(-5,254) scale(1,1)"><g><path fill="none" stroke="none"/><text fill="#000000" stroke="none" font-family="Arial" font-size="13px" font-style="normal" font-weight="normal" text-decoration="none" x="1244.5" y="228.5">6 : check_data_access</text></g></g><g transform="translate(-5,254) scale(1,1)"><path fill="none" stroke="#000000" d="M 1262 256 L 1018 256" stroke-miterlimit="10" stroke-dasharray="3"/></g><g transform="translate(-5,254) scale(1,1)"><path fill="none" stroke="#000000" d="M 1028.162674857624 251.790482243984 L 1018 256 L 1028.162674857624 260.209517756016" stroke-miterlimit="10"/></g><g transform="translate(-5,254) scale(1,1)"><g><path fill="none" stroke="none"/><text fill="#000000" stroke="none" font-family="Arial" font-size="13px" font-style="normal" font-weight="normal" text-decoration="none" x="1103.5" y="272.5">7 : response</text></g></g><g transform="translate(-5,254) scale(1,1)"><path fill="none" stroke="#000000" d="M 1012 312 L 786 312" stroke-miterlimit="10" stroke-dasharray="3"/></g><g transform="translate(-5,254) scale(1,1)"><path fill="none" stroke="#000000" d="M 796.1626748576241 307.790482243984 L 786 312 L 796.1626748576241 316.209517756016" stroke-miterlimit="10"/></g><g transform="translate(-5,254) scale(1,1)"><g><path fill="none" stroke="none"/><text fill="#000000" stroke="none" font-family="Arial" font-size="13px" font-style="normal" font-weight="normal" text-decoration="none" x="856.3037109375" y="328.5">8 : ok http 200</text></g></g><g transform="translate(-5,254) scale(1,1)"><path fill="none" stroke="#000000" d="M 786 376 L 816 376 L 816 396 L 786 396" stroke-miterlimit="10" stroke-dasharray="3"/></g><g transform="translate(-5,254) scale(1,1)"><path fill="none" stroke="#000000" d="M 796.1626748576241 391.790482243984 L 786 396 L 796.1626748576241 400.209517756016" stroke-miterlimit="10"/></g><g transform="translate(-5,254) scale(1,1)"><g><path fill="none" stroke="none"/><text fill="#000000" stroke="none" font-family="Arial" font-size="13px" font-style="normal" font-weight="normal" text-decoration="none" x="795.114990234375" y="364.5">9 : socket.on.emit.home_pool</text></g></g><g transform="translate(-5,254) scale(1,1)"><path fill="none" stroke="#000000" d="M 773 440 L 650 440" stroke-miterlimit="10"/></g><g transform="translate(-5,254) scale(1,1)"><path fill="#000000" stroke="none" d="M 660.1626748576241 435.790482243984 L 650 440 L 660.1626748576241 444.209517756016"/></g><g transform="translate(-5,254) scale(1,1)"><path fill="none" stroke="#000000" d="M 660.1626748576241 435.790482243984 L 650 440 L 660.1626748576241 444.209517756016 L 660.1626748576241 435.790482243984" stroke-miterlimit="10"/></g><g transform="translate(-5,254) scale(1,1)"><g><path fill="none" stroke="none"/><text fill="#000000" stroke="none" font-family="Arial" font-size="13px" font-style="normal" font-weight="normal" text-decoration="none" x="639.5" y="427.5">10 : save(card_id,pin)</text></g></g><g transform="translate(-5,254) scale(1,1)"><rect fill="#ffffff" stroke="none" x="637" y="440" width="13" height="28"/></g><g transform="translate(-5,254) scale(1,1)"><path fill="none" stroke="#000000" d="M 637 440 L 650 440 L 650 468 L 637 468 L 637 440 Z Z" stroke-miterlimit="10"/></g><g transform="translate(-5,254) scale(1,1)"><path fill="none" stroke="#000000" d="M 71 472 L 780 472" stroke-miterlimit="10"/></g><g transform="translate(-5,254) scale(1,1)"><path fill="none" stroke="#000000" d="M 769.8373251423759 476.209517756016 L 780 472 L 769.8373251423758 467.790482243984" stroke-miterlimit="10"/></g><g transform="translate(-5,254) scale(1,1)"><g><path fill="none" stroke="none"/><text fill="#000000" stroke="none" font-family="Arial" font-size="13px" font-style="normal" font-weight="normal" text-decoration="none" x="293.5" y="468.5">11 : check_valid_transac(card_id,pin,amount)</text></g></g><g transform="translate(-5,254) scale(1,1)"><rect fill="#ffffff" stroke="none" x="780" y="472" width="13" height="28"/></g><g transform="translate(-5,254) scale(1,1)"><path fill="none" stroke="#000000" d="M 780 472 L 793 472 L 793 500 L 780 500 L 780 472 Z Z" stroke-miterlimit="10"/></g><g transform="translate(-5,254) scale(1,1)"><path fill="none" stroke="#000000" d="M 786 523 L 816 523 L 816 543 L 786 543" stroke-miterlimit="10" stroke-dasharray="3"/></g><g transform="translate(-5,254) scale(1,1)"><path fill="none" stroke="#000000" d="M 796.1626748576241 538.790482243984 L 786 543 L 796.1626748576241 547.209517756016" stroke-miterlimit="10"/></g><g transform="translate(-5,254) scale(1,1)"><g><path fill="none" stroke="none"/><text fill="#000000" stroke="none" font-family="Arial" font-size="13px" font-style="normal" font-weight="normal" text-decoration="none" x="791.5" y="516.5">12 : socket.on.emit.confirm_transac</text></g></g><g transform="translate(-5,254) scale(1,1)"><path fill="none" stroke="#000000" d="M 71 544 L 220 544" stroke-miterlimit="10"/></g><g transform="translate(-5,254) scale(1,1)"><path fill="none" stroke="#000000" d="M 209.83732514237585 548.209517756016 L 220 544 L 209.83732514237585 539.790482243984" stroke-miterlimit="10"/></g><g transform="translate(-5,254) scale(1,1)"><g><path fill="none" stroke="none"/><text fill="#000000" stroke="none" font-family="Arial" font-size="13px" font-style="normal" font-weight="normal" text-decoration="none" x="89.5" y="538.5">13 : device contact</text></g></g><g transform="translate(-5,254) scale(1,1)"><path fill="none" stroke="#000000" d="M 220 552 L 444 552" stroke-miterlimit="10"/></g><g transform="translate(-5,254) scale(1,1)"><path fill="#000000" stroke="none" d="M 433.83732514237585 556.209517756016 L 444 552 L 433.83732514237585 547.790482243984"/></g><g transform="translate(-5,254) scale(1,1)"><path fill="none" stroke="#000000" d="M 433.83732514237585 556.209517756016 L 444 552 L 433.83732514237585 547.790482243984 L 433.83732514237585 556.209517756016" stroke-miterlimit="10"/></g><g transform="translate(-5,254) scale(1,1)"><g><path fill="none" stroke="none"/><text fill="#000000" stroke="none" font-family="Arial" font-size="13px" font-style="normal" font-weight="normal" text-decoration="none" x="269.5" y="548.5">14 : send(card_id,pin)</text></g></g><g transform="translate(-5,254) scale(1,1)"><rect fill="#ffffff" stroke="none" x="444" y="552" width="13" height="28"/></g><g transform="translate(-5,254) scale(1,1)"><path fill="none" stroke="#000000" d="M 444 552 L 457 552 L 457 580 L 444 580 L 444 552 Z Z" stroke-miterlimit="10"/></g><g transform="translate(-5,254) scale(1,1)"><path fill="none" stroke="#000000" d="M 457 560 L 773 560" stroke-miterlimit="10"/></g><g transform="translate(-5,254) scale(1,1)"><path fill="none" stroke="#000000" d="M 762.8373251423759 564.209517756016 L 773 560 L 762.8373251423758 555.790482243984" stroke-miterlimit="10"/></g><g transform="translate(-5,254) scale(1,1)"><g><path fill="none" stroke="none"/><text fill="#000000" stroke="none" font-family="Arial" font-size="13px" font-style="normal" font-weight="normal" text-decoration="none" x="521.5" y="556.5">15 : post_user_data(card_id,pin)</text></g></g><g transform="translate(-5,254) scale(1,1)"><path fill="none" stroke="#000000" d="M 773 585 L 650 585" stroke-miterlimit="10"/></g><g transform="translate(-5,254) scale(1,1)"><path fill="#000000" stroke="none" d="M 660.1626748576241 580.790482243984 L 650 585 L 660.1626748576241 589.209517756016"/></g><g transform="translate(-5,254) scale(1,1)"><path fill="none" stroke="#000000" d="M 660.1626748576241 580.790482243984 L 650 585 L 660.1626748576241 589.209517756016 L 660.1626748576241 580.790482243984" stroke-miterlimit="10"/></g><g transform="translate(-5,254) scale(1,1)"><g><path fill="none" stroke="none"/><text fill="#000000" stroke="none" font-family="Arial" font-size="13px" font-style="normal" font-weight="normal" text-decoration="none" x="672.200439453125" y="601.5">16 : compare</text></g></g><g transform="translate(-5,254) scale(1,1)"><rect fill="#ffffff" stroke="none" x="637" y="585" width="13" height="28"/></g><g transform="translate(-5,254) scale(1,1)"><path fill="none" stroke="#000000" d="M 637 585 L 650 585 L 650 613 L 637 613 L 637 585 Z Z" stroke-miterlimit="10"/></g><g transform="translate(-5,254) scale(1,1)"><path fill="none" stroke="#000000" d="M 786 608 L 1005 608" stroke-miterlimit="10"/></g><g transform="translate(-5,254) scale(1,1)"><path fill="#000000" stroke="none" d="M 994.8373251423759 612.209517756016 L 1005 608 L 994.8373251423758 603.790482243984"/></g><g transform="translate(-5,254) scale(1,1)"><path fill="none" stroke="#000000" d="M 994.8373251423759 612.209517756016 L 1005 608 L 994.8373251423758 603.790482243984 L 994.8373251423759 612.209517756016" stroke-miterlimit="10"/></g><g transform="translate(-5,254) scale(1,1)"><g><path fill="none" stroke="none"/><text fill="#000000" stroke="none" font-family="Arial" font-size="13px" font-style="normal" font-weight="normal" text-decoration="none" x="822.5" y="599.5">17 : check_card(card_id,pin)</text></g></g><g transform="translate(-5,254) scale(1,1)"><rect fill="#ffffff" stroke="none" x="1005" y="608" width="13" height="142"/></g><g transform="translate(-5,254) scale(1,1)"><path fill="none" stroke="#000000" d="M 1005 608 L 1018 608 L 1018 750 L 1005 750 L 1005 608 Z Z" stroke-miterlimit="10"/></g><g transform="translate(-5,254) scale(1,1)"><path fill="none" stroke="#000000" d="M 1018 640 L 1255 640" stroke-miterlimit="10"/></g><g transform="translate(-5,254) scale(1,1)"><path fill="#000000" stroke="none" d="M 1244.837325142376 644.209517756016 L 1255 640 L 1244.837325142376 635.790482243984"/></g><g transform="translate(-5,254) scale(1,1)"><path fill="none" stroke="#000000" d="M 1244.837325142376 644.209517756016 L 1255 640 L 1244.837325142376 635.790482243984 L 1244.837325142376 644.209517756016" stroke-miterlimit="10"/></g><g transform="translate(-5,254) scale(1,1)"><g><path fill="none" stroke="none"/><text fill="#000000" stroke="none" font-family="Arial" font-size="13px" font-style="normal" font-weight="normal" text-decoration="none" x="1084.5" y="636.5">18 : sign(payload)</text></g></g><g transform="translate(-5,254) scale(1,1)"><rect fill="#ffffff" stroke="none" x="1255" y="640" width="13" height="28"/></g><g transform="translate(-5,254) scale(1,1)"><path fill="none" stroke="#000000" d="M 1255 640 L 1268 640 L 1268 668 L 1255 668 L 1255 640 Z Z" stroke-miterlimit="10"/></g><g transform="translate(-5,254) scale(1,1)"><path fill="none" stroke="#000000" d="M 1268 656 L 1371 656" stroke-miterlimit="10"/></g><g transform="translate(-5,254) scale(1,1)"><path fill="#000000" stroke="none" d="M 1360.837325142376 660.209517756016 L 1371 656 L 1360.837325142376 651.790482243984"/></g><g transform="translate(-5,254) scale(1,1)"><path fill="none" stroke="#000000" d="M 1360.837325142376 660.209517756016 L 1371 656 L 1360.837325142376 651.790482243984 L 1360.837325142376 660.209517756016" stroke-miterlimit="10"/></g><g transform="translate(-5,254) scale(1,1)"><g><path fill="none" stroke="none"/><text fill="#000000" stroke="none" font-family="Arial" font-size="13px" font-style="normal" font-weight="normal" text-decoration="none" x="1249.5" y="652.5">19 : check_data_access</text></g></g><g transform="translate(-5,254) scale(1,1)"><path fill="none" stroke="#000000" d="M 1255 664 L 1018 664" stroke-miterlimit="10" stroke-dasharray="3"/></g><g transform="translate(-5,254) scale(1,1)"><path fill="none" stroke="#000000" d="M 1028.162674857624 659.790482243984 L 1018 664 L 1028.162674857624 668.209517756016" stroke-miterlimit="10"/></g><g transform="translate(-5,254) scale(1,1)"><g><path fill="none" stroke="none"/><text fill="#000000" stroke="none" font-family="Arial" font-size="13px" font-style="normal" font-weight="normal" text-decoration="none" x="1095.5" y="680.5">20 : response</text></g></g><g transform="translate(-5,254) scale(1,1)"><path fill="none" stroke="#000000" d="M 1005 712 L 786 712" stroke-miterlimit="10" stroke-dasharray="3"/></g><g transform="translate(-5,254) scale(1,1)"><path fill="none" stroke="#000000" d="M 796.1626748576241 707.790482243984 L 786 712 L 796.1626748576241 716.209517756016" stroke-miterlimit="10"/></g><g transform="translate(-5,254) scale(1,1)"><g><path fill="none" stroke="none"/><text fill="#000000" stroke="none" font-family="Arial" font-size="13px" font-style="normal" font-weight="normal" text-decoration="none" x="848.688720703125" y="728.5">21 : ok http 200</text></g></g><g transform="translate(-5,254) scale(1,1)"><path fill="none" stroke="#000000" d="M 773 768 L 71 768" stroke-miterlimit="10" stroke-dasharray="3"/></g><g transform="translate(-5,254) scale(1,1)"><path fill="none" stroke="#000000" d="M 81.16267485762415 763.790482243984 L 71 768 L 81.16267485762415 772.209517756016" stroke-miterlimit="10"/></g><g transform="translate(-5,254) scale(1,1)"><g><path fill="none" stroke="none"/><text fill="#000000" stroke="none" font-family="Arial" font-size="13px" font-style="normal" font-weight="normal" text-decoration="none" x="400.9873046875" y="784.5">22 : ok</text></g></g></g></svg>