<svg version="1.1" xmlns="http://www.w3.org/2000/svg" xmlns:xlink="http://www.w3.org/1999/xlink" width="860" height="771"><defs/><g><g transform="translate(-246,-134) scale(1,1)"><rect fill="#C0C0C0" stroke="none" x="487" y="151" width="616" height="408" opacity="0.2"/></g><g transform="translate(-246,-134) scale(1,1)"><rect fill="#ffffff" stroke="none" x="480" y="144" width="616" height="408"/></g><g transform="translate(-246,-134) scale(1,1)"><path fill="none" stroke="#000000" d="M 480 144 L 1096 144 L 1096 552 L 480 552 L 480 144 Z Z" stroke-miterlimit="10"/></g><g transform="translate(-246,-134) scale(1,1)"><g><path fill="none" stroke="none"/><text fill="#000000" stroke="none" font-family="Arial" font-size="13px" font-style="normal" font-weight="bold" text-decoration="none" x="696.590576171875" y="163.5">Distribteur automatique de billet</text></g></g><g transform="translate(-246,-134) scale(1,1)"><rect fill="#C0C0C0" stroke="none" x="455" y="607" width="583" height="295" opacity="0.2"/></g><g transform="translate(-246,-134) scale(1,1)"><rect fill="#ffffff" stroke="none" x="448" y="600" width="583" height="295"/></g><g transform="translate(-246,-134) scale(1,1)"><path fill="none" stroke="#000000" d="M 448 600 L 1031 600 L 1031 895 L 448 895 L 448 600 Z Z" stroke-miterlimit="10"/></g><g transform="translate(-246,-134) scale(1,1)"><g><path fill="none" stroke="none"/><text fill="#000000" stroke="none" font-family="Arial" font-size="13px" font-style="normal" font-weight="bold" text-decoration="none" x="686.747802734375" y="619.5">Application mobile</text></g></g><g transform="translate(-246,-134) scale(1,1)"><path fill="#ffffff" stroke="none" d="M 272.40935031960225 361.68 C 272.40935031960225 356.886167936 276.29519264454774 353 281.088623046875 353 C 285.88205344920226 353 289.76789577414775 356.886167936 289.76789577414775 361.68 C 289.76789577414775 366.473832064 285.88205344920226 370.36 281.088623046875 370.36 C 276.29519264454774 370.36 272.40935031960225 366.473832064 272.40935031960225 361.68 Z"/></g><g transform="translate(-246,-134) scale(1,1)"><path fill="none" stroke="#000000" d="M 272.40935031960225 361.68 C 272.40935031960225 356.886167936 276.29519264454774 353 281.088623046875 353 C 285.88205344920226 353 289.76789577414775 356.886167936 289.76789577414775 361.68 C 289.76789577414775 366.473832064 285.88205344920226 370.36 281.088623046875 370.36 C 276.29519264454774 370.36 272.40935031960225 366.473832064 272.40935031960225 361.68 Z" stroke-miterlimit="10"/></g><g transform="translate(-246,-134) scale(1,1)"><path fill="none" stroke="#000000" d="M 281.088623046875 370.36 L 281.088623046875 387.64" stroke-miterlimit="10"/></g><g transform="translate(-246,-134) scale(1,1)"><path fill="none" stroke="#000000" d="M 271.89880486505683 376.84 L 290.27844122869317 376.84" stroke-miterlimit="10"/></g><g transform="translate(-246,-134) scale(1,1)"><path fill="none" stroke="#000000" d="M 281.088623046875 387.64 L 268.32498668323865 405" stroke-miterlimit="10"/></g><g transform="translate(-246,-134) scale(1,1)"><path fill="none" stroke="#000000" d="M 281.088623046875 387.64 L 293.85225941051135 405" stroke-miterlimit="10"/></g><g transform="translate(-246,-134) scale(1,1)"><g><path fill="none" stroke="none"/><text fill="#000000" stroke="none" font-family="Arial" font-size="13px" font-style="normal" font-weight="bold" text-decoration="none" x="265.91455078125" y="425.5">client</text></g></g><g transform="translate(-246,-134) scale(1,1)"><path fill="#C0C0C0" stroke="none" d="M 543 368 C 543 358.6111584 579.4887888 351 624.5 351 C 669.5112112 351 706 358.6111584 706 368 C 706 377.3888416 669.5112112 385 624.5 385 C 579.4887888 385 543 377.3888416 543 368 Z" opacity="0.2"/></g><g transform="translate(-246,-134) scale(1,1)"><path fill="#ffffff" stroke="none" d="M 536 361 C 536 351.6111584 572.4887888 344 617.5 344 C 662.5112112 344 699 351.6111584 699 361 C 699 370.3888416 662.5112112 378 617.5 378 C 572.4887888 378 536 370.3888416 536 361 Z"/></g><g transform="translate(-246,-134) scale(1,1)"><path fill="none" stroke="#000000" d="M 536 361 C 536 351.6111584 572.4887888 344 617.5 344 C 662.5112112 344 699 351.6111584 699 361 C 699 370.3888416 662.5112112 378 617.5 378 C 572.4887888 378 536 370.3888416 536 361 Z" stroke-miterlimit="10"/></g><g transform="translate(-246,-134) scale(1,1)"><g><path fill="none" stroke="none"/><text fill="#000000" stroke="none" font-family="Arial" font-size="13px" font-style="normal" font-weight="bold" text-decoration="none" x="568.569091796875" y="368">retirer de l'argent</text></g></g><g transform="translate(-246,-134) scale(1,1)"><path fill="#C0C0C0" stroke="none" d="M 815 392 C 815 382.6111584 843.4299152 375 878.5 375 C 913.5700848 375 942 382.6111584 942 392 C 942 401.3888416 913.5700848 409 878.5 409 C 843.4299152 409 815 401.3888416 815 392 Z" opacity="0.2"/></g><g transform="translate(-246,-134) scale(1,1)"><path fill="#ffffff" stroke="none" d="M 808 385 C 808 375.6111584 836.4299152 368 871.5 368 C 906.5700848 368 935 375.6111584 935 385 C 935 394.3888416 906.5700848 402 871.5 402 C 836.4299152 402 808 394.3888416 808 385 Z"/></g><g transform="translate(-246,-134) scale(1,1)"><path fill="none" stroke="#000000" d="M 808 385 C 808 375.6111584 836.4299152 368 871.5 368 C 906.5700848 368 935 375.6111584 935 385 C 935 394.3888416 906.5700848 402 871.5 402 C 836.4299152 402 808 394.3888416 808 385 Z" stroke-miterlimit="10"/></g><g transform="translate(-246,-134) scale(1,1)"><g><path fill="none" stroke="none"/><text fill="#000000" stroke="none" font-family="Arial" font-size="13px" font-style="normal" font-weight="bold" text-decoration="none" x="834.8486328125" y="392">s'authentifier</text></g></g><g transform="translate(-246,-134) scale(1,1)"><path fill="#C0C0C0" stroke="none" d="M 639 504 C 639 494.6111584 667.8776304 487 703.5 487 C 739.1223696 487 768 494.6111584 768 504 C 768 513.3888416 739.1223696 521 703.5 521 C 667.8776304 521 639 513.3888416 639 504 Z" opacity="0.2"/></g><g transform="translate(-246,-134) scale(1,1)"><path fill="#ffffff" stroke="none" d="M 632 497 C 632 487.6111584 660.8776304 480 696.5 480 C 732.1223696 480 761 487.6111584 761 497 C 761 506.3888416 732.1223696 514 696.5 514 C 660.8776304 514 632 506.3888416 632 497 Z"/></g><g transform="translate(-246,-134) scale(1,1)"><path fill="none" stroke="#000000" d="M 632 497 C 632 487.6111584 660.8776304 480 696.5 480 C 732.1223696 480 761 487.6111584 761 497 C 761 506.3888416 732.1223696 514 696.5 514 C 660.8776304 514 632 506.3888416 632 497 Z" stroke-miterlimit="10"/></g><g transform="translate(-246,-134) scale(1,1)"><g><path fill="none" stroke="none"/><text fill="#000000" stroke="none" font-family="Arial" font-size="13px" font-style="normal" font-weight="bold" text-decoration="none" x="658.56640625" y="504">Vérifier solde</text></g></g><g transform="translate(-246,-134) scale(1,1)"><path fill="none" stroke="#000000" d="M 307 389 L 535 368" stroke-miterlimit="10"/></g><g transform="translate(-246,-134) scale(1,1)"><path fill="none" stroke="#000000" d="M 700 369 L 807 379" stroke-miterlimit="10" stroke-dasharray="3"/></g><g transform="translate(-246,-134) scale(1,1)"><path fill="none" stroke="#000000" d="M 796.4897129340696 382.2455917475457 L 807 379 L 797.2731248098107 373.86308467711603" stroke-miterlimit="10"/></g><g transform="translate(-246,-134) scale(1,1)"><g><path fill="none" stroke="none"/><text fill="#000000" stroke="none" font-family="Arial" font-size="13px" font-style="normal" font-weight="normal" text-decoration="none" x="727.5" y="350.5">«include»</text></g></g><g transform="translate(-246,-134) scale(1,1)"><path fill="none" stroke="#000000" d="M 686 479 L 627 379" stroke-miterlimit="10" stroke-dasharray="3"/></g><g transform="translate(-246,-134) scale(1,1)"><path fill="none" stroke="#000000" d="M 635.7896798960942 385.6137377725608 L 627 379 L 628.5386234310199 389.89186108695463" stroke-miterlimit="10"/></g><g transform="translate(-246,-134) scale(1,1)"><g><path fill="none" stroke="none"/><text fill="#000000" stroke="none" font-family="Arial" font-size="13px" font-style="normal" font-weight="normal" text-decoration="none" x="603.5" y="450.5">«extend»</text></g></g><g transform="translate(-246,-134) scale(1,1)"><path fill="#C0C0C0" stroke="none" d="M 559 728 C 559 718.6111584 612.2781088 711 678 711 C 743.7218912 711 797 718.6111584 797 728 C 797 737.3888416 743.7218912 745 678 745 C 612.2781088 745 559 737.3888416 559 728 Z" opacity="0.2"/></g><g transform="translate(-246,-134) scale(1,1)"><path fill="#ffffff" stroke="none" d="M 552 721 C 552 711.6111584 605.2781088 704 671 704 C 736.7218912 704 790 711.6111584 790 721 C 790 730.3888416 736.7218912 738 671 738 C 605.2781088 738 552 730.3888416 552 721 Z"/></g><g transform="translate(-246,-134) scale(1,1)"><path fill="none" stroke="#000000" d="M 552 721 C 552 711.6111584 605.2781088 704 671 704 C 736.7218912 704 790 711.6111584 790 721 C 790 730.3888416 736.7218912 738 671 738 C 605.2781088 738 552 730.3888416 552 721 Z" stroke-miterlimit="10"/></g><g transform="translate(-246,-134) scale(1,1)"><g><path fill="none" stroke="none"/><text fill="#000000" stroke="none" font-family="Arial" font-size="13px" font-style="normal" font-weight="bold" text-decoration="none" x="596.935546875" y="728">enregistrer carte bancaire</text></g></g><g transform="translate(-246,-134) scale(1,1)"><path fill="#C0C0C0" stroke="none" d="M 567 872 C 567 862.6111584 619.606536 855 684.5 855 C 749.393464 855 802 862.6111584 802 872 C 802 881.3888416 749.393464 889 684.5 889 C 619.606536 889 567 881.3888416 567 872 Z" opacity="0.2"/></g><g transform="translate(-246,-134) scale(1,1)"><path fill="#ffffff" stroke="none" d="M 560 865 C 560 855.6111584 612.606536 848 677.5 848 C 742.393464 848 795 855.6111584 795 865 C 795 874.3888416 742.393464 882 677.5 882 C 612.606536 882 560 874.3888416 560 865 Z"/></g><g transform="translate(-246,-134) scale(1,1)"><path fill="none" stroke="#000000" d="M 560 865 C 560 855.6111584 612.606536 848 677.5 848 C 742.393464 848 795 855.6111584 795 865 C 795 874.3888416 742.393464 882 677.5 882 C 612.606536 882 560 874.3888416 560 865 Z" stroke-miterlimit="10"/></g><g transform="translate(-246,-134) scale(1,1)"><g><path fill="none" stroke="none"/><text fill="#000000" stroke="none" font-family="Arial" font-size="13px" font-style="normal" font-weight="bold" text-decoration="none" x="605.965087890625" y="872">recevoir des notifications</text></g></g><g transform="translate(-246,-134) scale(1,1)"><path fill="none" stroke="#000000" d="M 307 413 L 650 703" stroke-miterlimit="10"/></g><g transform="translate(-246,-134) scale(1,1)"><path fill="#C0C0C0" stroke="none" d="M 575 808 C 575 798.6111584 603.2060576 791 638 791 C 672.7939424 791 701 798.6111584 701 808 C 701 817.3888416 672.7939424 825 638 825 C 603.2060576 825 575 817.3888416 575 808 Z" opacity="0.2"/></g><g transform="translate(-246,-134) scale(1,1)"><path fill="#ffffff" stroke="none" d="M 568 801 C 568 791.6111584 596.2060576 784 631 784 C 665.7939424 784 694 791.6111584 694 801 C 694 810.3888416 665.7939424 818 631 818 C 596.2060576 818 568 810.3888416 568 801 Z"/></g><g transform="translate(-246,-134) scale(1,1)"><path fill="none" stroke="#000000" d="M 568 801 C 568 791.6111584 596.2060576 784 631 784 C 665.7939424 784 694 791.6111584 694 801 C 694 810.3888416 665.7939424 818 631 818 C 596.2060576 818 568 810.3888416 568 801 Z" stroke-miterlimit="10"/></g><g transform="translate(-246,-134) scale(1,1)"><g><path fill="none" stroke="none"/><text fill="#000000" stroke="none" font-family="Arial" font-size="13px" font-style="normal" font-weight="bold" text-decoration="none" x="593.78369140625" y="808">se connecter</text></g></g><g transform="translate(-246,-134) scale(1,1)"><path fill="none" stroke="#000000" d="M 662 739 L 640 783" stroke-miterlimit="10" stroke-dasharray="3"/></g><g transform="translate(-246,-134) scale(1,1)"><path fill="none" stroke="#000000" d="M 640.7797792209975 772.0276737030609 L 640 783 L 648.3099935049528 775.7927808450386" stroke-miterlimit="10"/></g><g transform="translate(-246,-134) scale(1,1)"><g><path fill="none" stroke="none"/><text fill="#000000" stroke="none" font-family="Arial" font-size="13px" font-style="normal" font-weight="normal" text-decoration="none" x="649.5" y="780.5">«include»</text></g></g></g></svg>